<?xml version="1.0" encoding="UTF-8" standalone="no"?>
<!DOCTYPE svg PUBLIC "-//W3C//DTD SVG 1.1//EN"
 "http://www.w3.org/Graphics/SVG/1.1/DTD/svg11.dtd">
<!-- Generated by graphviz version 12.2.1 (20241206.2353)
 -->
<!-- Title: src/audio/AudioMain.cpp Pages: 1 -->
<!--zoomable 208 -->

<svg id="main" version="1.1" xmlns="http://www.w3.org/2000/svg" xmlns:xlink="http://www.w3.org/1999/xlink" xml:space="preserve" onload="init(evt)">

<style type="text/css"><![CDATA[
.node, .edge {opacity: 0.7;}
.node.selected, .edge.selected {opacity: 1;}
.edge:hover path { stroke: red; }
.edge:hover polygon { stroke: red; fill: red; }
]]></style>

<defs>
  <circle id="rim" cx="0" cy="0" r="7"/>
  <circle id="rim2" cx="0" cy="0" r="3.5"/>
  <g id="zoomPlus">
    <use xlink:href="#rim" fill="#404040"><set attributeName="fill" to="#808080" begin="zoomplus.mouseover" end="zoomplus.mouseout"/></use>
    <path d="M-4,0h8M0,-4v8" fill="none" stroke="white" stroke-width="1.5" pointer-events="none"/>
  </g>
  <g id="zoomMin">
    <use xlink:href="#rim" fill="#404040"><set attributeName="fill" to="#808080" begin="zoomminus.mouseover" end="zoomminus.mouseout"/></use>
    <path d="M-4,0h8" fill="none" stroke="white" stroke-width="1.5" pointer-events="none"/>
  </g>
  <g id="arrowUp" transform="translate(30 24)">
    <use xlink:href="#rim"/>
    <path pointer-events="none" fill="none" stroke="white" stroke-width="1.5" d="M0,-3.0v7 M-2.5,-0.5L0,-3.0L2.5,-0.5"/>
  </g>
  <g id="arrowRight" transform="rotate(90) translate(36 -43)">
    <use xlink:href="#rim"/>
    <path pointer-events="none" fill="none" stroke="white" stroke-width="1.5" d="M0,-3.0v7 M-2.5,-0.5L0,-3.0L2.5,-0.5"/>
  </g>
  <g id="arrowDown" transform="rotate(180) translate(-30 -48)">
    <use xlink:href="#rim"/>
    <path pointer-events="none" fill="none" stroke="white" stroke-width="1.5" d="M0,-3.0v7 M-2.5,-0.5L0,-3.0L2.5,-0.5"/>
  </g>
  <g id="arrowLeft" transform="rotate(270) translate(-36 17)">
    <use xlink:href="#rim"/>
    <path pointer-events="none" fill="none" stroke="white" stroke-width="1.5" d="M0,-3.0v7 M-2.5,-0.5L0,-3.0L2.5,-0.5"/>
  </g>
  <g id="resetDef">
    <use xlink:href="#rim2" fill="#404040"><set attributeName="fill" to="#808080" begin="reset.mouseover" end="reset.mouseout"/></use>
  </g>
</defs>
<script type="application/ecmascript">
var viewWidth = 1050;
var viewHeight = 208;
var sectionId = 'dynsection-0';
</script>
<script type="application/ecmascript" xlink:href="svg.min.js"/>
<svg id="graph" class="graph">
<g id="viewport">
<title>src/audio/AudioMain.cpp</title>
<!-- Node1 -->
<g id="Node000001" class="node">
<title>Node1</title>
<g id="a_Node000001"><a xlink:title=" ">
<polygon fill="#999999" stroke="#666666" points="670.42,-200 547.17,-200 547.17,-180 670.42,-180 670.42,-200"/>
<text text-anchor="middle" x="608.8" y="-186.5" font-family="Helvetica,sans-Serif" font-size="10.00">src/audio/AudioMain.cpp</text>
</a>
</g>
</g>
<!-- Node2 -->
<g id="Node000002" class="node">
<title>Node2</title>
<g id="a_Node000002"><a xlink:href="AudioMain_8hpp.html" target="_top" xlink:title=" ">
<polygon fill="white" stroke="#666666" points="485.67,-144 327.92,-144 327.92,-124 485.67,-124 485.67,-144"/>
<text text-anchor="middle" x="406.8" y="-130.5" font-family="Helvetica,sans-Serif" font-size="10.00">EyeAICore/audio/AudioMain.hpp</text>
</a>
</g>
</g>
<!-- Node1&#45;&gt;Node2 -->
<g id="edge1_Node000001_Node000002" class="edge">
<title>Node1&#45;&gt;Node2</title>
<g id="a_edge1_Node000001_Node000002"><a xlink:title=" ">
<path fill="none" stroke="#63b8ff" d="M573.61,-179.59C540.21,-170.67 489.82,-157.19 453.16,-147.39"/>
<polygon fill="#63b8ff" stroke="#63b8ff" points="454.28,-144.07 443.72,-144.87 452.47,-150.83 454.28,-144.07"/>
</a>
</g>
</g>
<!-- Node3 -->
<g id="Node000003" class="node">
<title>Node3</title>
<g id="a_Node000003"><a xlink:href="DepthAudioSourceData_8hpp.html" target="_top" xlink:title=" ">
<polygon fill="white" stroke="#666666" points="389.92,-88 245.67,-88 245.67,-56 389.92,-56 389.92,-88"/>
<text text-anchor="start" x="253.67" y="-74.5" font-family="Helvetica,sans-Serif" font-size="10.00">EyeAICore/audio/DepthAudio</text>
<text text-anchor="middle" x="317.8" y="-62.5" font-family="Helvetica,sans-Serif" font-size="10.00">SourceData.hpp</text>
</a>
</g>
</g>
<!-- Node1&#45;&gt;Node3 -->
<g id="edge18_Node000001_Node000003" class="edge">
<title>Node1&#45;&gt;Node3</title>
<g id="a_edge18_Node000001_Node000003"><a xlink:title=" ">
<path fill="none" stroke="#63b8ff" d="M546.89,-188.39C470.69,-186.17 347.79,-177.36 318.8,-144 308.39,-132.03 308.19,-114.17 310.57,-99.35"/>
<polygon fill="#63b8ff" stroke="#63b8ff" points="313.95,-100.28 312.57,-89.78 307.1,-98.85 313.95,-100.28"/>
</a>
</g>
</g>
<!-- Node4 -->
<g id="Node000004" class="node">
<title>Node4</title>
<g id="a_Node000004"><a xlink:title=" ">
<polygon fill="#e0e0e0" stroke="#999999" points="389.3,-20 346.3,-20 346.3,0 389.3,0 389.3,-20"/>
<text text-anchor="middle" x="367.8" y="-6.5" font-family="Helvetica,sans-Serif" font-size="10.00">vector</text>
</a>
</g>
</g>
<!-- Node1&#45;&gt;Node4 -->
<g id="edge31_Node000001_Node000004" class="edge">
<title>Node1&#45;&gt;Node4</title>
<g id="a_edge31_Node000001_Node000004"><a xlink:title=" ">
<path fill="none" stroke="#63b8ff" d="M546.78,-188.8C406.3,-186.83 71.01,-173.13 6.8,-88 -1.77,-76.65 -2.62,-66.66 6.8,-56 28.36,-31.58 249.66,-17.29 334.73,-12.67"/>
<polygon fill="#63b8ff" stroke="#63b8ff" points="334.71,-16.17 344.51,-12.15 334.34,-9.18 334.71,-16.17"/>
</a>
</g>
</g>
<!-- Node5 -->
<g id="Node000005" class="node">
<title>Node5</title>
<g id="a_Node000005"><a xlink:href="ObjectAudioSourceData_8hpp.html" target="_top" xlink:title=" ">
<polygon fill="white" stroke="#666666" points="162.05,-88 15.55,-88 15.55,-56 162.05,-56 162.05,-88"/>
<text text-anchor="start" x="23.55" y="-74.5" font-family="Helvetica,sans-Serif" font-size="10.00">EyeAICore/audio/ObjectAudio</text>
<text text-anchor="middle" x="88.8" y="-62.5" font-family="Helvetica,sans-Serif" font-size="10.00">SourceData.hpp</text>
</a>
</g>
</g>
<!-- Node1&#45;&gt;Node5 -->
<g id="edge19_Node000001_Node000005" class="edge">
<title>Node1&#45;&gt;Node5</title>
<g id="a_edge19_Node000001_Node000005"><a xlink:title=" ">
<path fill="none" stroke="#63b8ff" d="M546.75,-185.48C477.54,-180.5 362.7,-169.02 266.8,-144 218.8,-131.48 166.34,-109.46 130.89,-93.26"/>
<polygon fill="#63b8ff" stroke="#63b8ff" points="132.38,-90.09 121.84,-89.07 129.44,-96.44 132.38,-90.09"/>
</a>
</g>
</g>
<!-- Node6 -->
<g id="Node000006" class="node">
<title>Node6</title>
<g id="a_Node000006"><a xlink:href="SpatialAudioSettings_8hpp.html" target="_top" xlink:title=" ">
<polygon fill="white" stroke="#666666" points="765.8,-88 617.8,-88 617.8,-56 765.8,-56 765.8,-88"/>
<text text-anchor="start" x="625.8" y="-74.5" font-family="Helvetica,sans-Serif" font-size="10.00">EyeAICore/audio/SpatialAudio</text>
<text text-anchor="middle" x="691.8" y="-62.5" font-family="Helvetica,sans-Serif" font-size="10.00">Settings.hpp</text>
</a>
</g>
</g>
<!-- Node1&#45;&gt;Node6 -->
<g id="edge20_Node000001_Node000006" class="edge">
<title>Node1&#45;&gt;Node6</title>
<g id="a_edge20_Node000001_Node000006"><a xlink:title=" ">
<path fill="none" stroke="#63b8ff" d="M614.69,-179.58C622.77,-166.79 637.87,-143.32 651.8,-124 658.2,-115.11 665.52,-105.61 672.13,-97.24"/>
<polygon fill="#63b8ff" stroke="#63b8ff" points="674.76,-99.56 678.27,-89.56 669.29,-95.19 674.76,-99.56"/>
</a>
</g>
</g>
<!-- Node8 -->
<g id="Node000008" class="node">
<title>Node8</title>
<g id="a_Node000008"><a xlink:title=" ">
<polygon fill="#e0e0e0" stroke="#999999" points="915.8,-20 857.8,-20 857.8,0 915.8,0 915.8,-20"/>
<text text-anchor="middle" x="886.8" y="-6.5" font-family="Helvetica,sans-Serif" font-size="10.00">sndfile.hh</text>
</a>
</g>
</g>
<!-- Node1&#45;&gt;Node8 -->
<g id="edge28_Node000001_Node000008" class="edge">
<title>Node1&#45;&gt;Node8</title>
<g id="a_edge28_Node000001_Node000008"><a xlink:title=" ">
<path fill="none" stroke="#63b8ff" d="M626.28,-179.53C642.76,-170.55 668.09,-156.6 689.8,-144 704.63,-135.39 706.74,-130.02 722.8,-124 809.82,-91.35 869,-159.15 928.8,-88 944.45,-69.37 924.18,-43.98 906.75,-27.54"/>
<polygon fill="#63b8ff" stroke="#63b8ff" points="909.51,-25.31 899.72,-21.27 904.85,-30.54 909.51,-25.31"/>
</a>
</g>
</g>
<!-- Node9 -->
<g id="Node000009" class="node">
<title>Node9</title>
<g id="a_Node000009"><a xlink:title=" ">
<polygon fill="#e0e0e0" stroke="#999999" points="635.8,-20 595.8,-20 595.8,0 635.8,0 635.8,-20"/>
<text text-anchor="middle" x="615.8" y="-6.5" font-family="Helvetica,sans-Serif" font-size="10.00">string</text>
</a>
</g>
</g>
<!-- Node1&#45;&gt;Node9 -->
<g id="edge29_Node000001_Node000009" class="edge">
<title>Node1&#45;&gt;Node9</title>
<g id="a_edge29_Node000001_Node000009"><a xlink:title=" ">
<path fill="none" stroke="#63b8ff" d="M608.3,-179.63C607.26,-157.87 605.22,-102.27 608.8,-56 609.42,-47.92 610.67,-39.1 611.94,-31.43"/>
<polygon fill="#63b8ff" stroke="#63b8ff" points="615.35,-32.21 613.66,-21.75 608.46,-30.98 615.35,-32.21"/>
</a>
</g>
</g>
<!-- Node10 -->
<g id="Node000010" class="node">
<title>Node10</title>
<g id="a_Node000010"><a xlink:title=" ">
<polygon fill="#e0e0e0" stroke="#999999" points="227.17,-82 180.42,-82 180.42,-62 227.17,-62 227.17,-82"/>
<text text-anchor="middle" x="203.8" y="-68.5" font-family="Helvetica,sans-Serif" font-size="10.00">AL/al.h</text>
</a>
</g>
</g>
<!-- Node1&#45;&gt;Node10 -->
<g id="edge22_Node000001_Node000010" class="edge">
<title>Node1&#45;&gt;Node10</title>
<g id="a_edge22_Node000001_Node000010"><a xlink:title=" ">
<path fill="none" stroke="#63b8ff" d="M546.82,-187.91C484.24,-184.95 385.82,-175.17 306.8,-144 274.33,-131.19 242.03,-106.49 222.49,-89.87"/>
<polygon fill="#63b8ff" stroke="#63b8ff" points="224.95,-87.37 215.12,-83.44 220.36,-92.65 224.95,-87.37"/>
</a>
</g>
</g>
<!-- Node11 -->
<g id="Node000011" class="node">
<title>Node11</title>
<g id="a_Node000011"><a xlink:title=" ">
<polygon fill="#e0e0e0" stroke="#999999" points="497.8,-82 445.8,-82 445.8,-62 497.8,-62 497.8,-82"/>
<text text-anchor="middle" x="471.8" y="-68.5" font-family="Helvetica,sans-Serif" font-size="10.00">AL/alc.h</text>
</a>
</g>
</g>
<!-- Node1&#45;&gt;Node11 -->
<g id="edge23_Node000001_Node000011" class="edge">
<title>Node1&#45;&gt;Node11</title>
<g id="a_edge23_Node000001_Node000011"><a xlink:title=" ">
<path fill="none" stroke="#63b8ff" d="M597.58,-179.51C574.29,-159.78 520.4,-114.15 491.29,-89.51"/>
<polygon fill="#63b8ff" stroke="#63b8ff" points="493.83,-87.07 483.93,-83.28 489.3,-92.41 493.83,-87.07"/>
</a>
</g>
</g>
<!-- Node12 -->
<g id="Node000012" class="node">
<title>Node12</title>
<g id="a_Node000012"><a xlink:title=" ">
<polygon fill="#e0e0e0" stroke="#999999" points="561.42,-82 516.17,-82 516.17,-62 561.42,-62 561.42,-82"/>
<text text-anchor="middle" x="538.8" y="-68.5" font-family="Helvetica,sans-Serif" font-size="10.00">atomic</text>
</a>
</g>
</g>
<!-- Node1&#45;&gt;Node12 -->
<g id="edge24_Node000001_Node000012" class="edge">
<title>Node1&#45;&gt;Node12</title>
<g id="a_edge24_Node000001_Node000012"><a xlink:title=" ">
<path fill="none" stroke="#63b8ff" d="M601.28,-179.64C594.29,-170.74 583.78,-156.83 575.8,-144 565.37,-127.24 555.12,-107.22 548.06,-92.72"/>
<polygon fill="#63b8ff" stroke="#63b8ff" points="551.27,-91.32 543.8,-83.81 544.96,-94.34 551.27,-91.32"/>
</a>
</g>
</g>
<!-- Node13 -->
<g id="Node000013" class="node">
<title>Node13</title>
<g id="a_Node000013"><a xlink:href="ByteArrayParser_8hpp.html" target="_top" xlink:title=" ">
<polygon fill="white" stroke="#666666" points="920.17,-88 783.42,-88 783.42,-56 920.17,-56 920.17,-88"/>
<text text-anchor="start" x="791.42" y="-74.5" font-family="Helvetica,sans-Serif" font-size="10.00">EyeAICore/audio/ByteArray</text>
<text text-anchor="middle" x="851.8" y="-62.5" font-family="Helvetica,sans-Serif" font-size="10.00">Parser.hpp</text>
</a>
</g>
</g>
<!-- Node1&#45;&gt;Node13 -->
<g id="edge14_Node000001_Node000013" class="edge">
<title>Node1&#45;&gt;Node13</title>
<g id="a_edge14_Node000001_Node000013"><a xlink:title=" ">
<path fill="none" stroke="#63b8ff" d="M617.93,-179.72C632.12,-165.79 660.85,-139.46 689.8,-124 715.4,-110.32 745.26,-99.62 772.33,-91.64"/>
<polygon fill="#63b8ff" stroke="#63b8ff" points="773.23,-95.02 781.88,-88.9 771.3,-88.29 773.23,-95.02"/>
</a>
</g>
</g>
<!-- Node15 -->
<g id="Node000015" class="node">
<title>Node15</title>
<g id="a_Node000015"><a xlink:title=" ">
<polygon fill="#e0e0e0" stroke="#999999" points="784.17,-144 731.42,-144 731.42,-124 784.17,-124 784.17,-144"/>
<text text-anchor="middle" x="757.8" y="-130.5" font-family="Helvetica,sans-Serif" font-size="10.00">sndfile.h</text>
</a>
</g>
</g>
<!-- Node1&#45;&gt;Node15 -->
<g id="edge21_Node000001_Node000015" class="edge">
<title>Node1&#45;&gt;Node15</title>
<g id="a_edge21_Node000001_Node000015"><a xlink:title=" ">
<path fill="none" stroke="#63b8ff" d="M634.75,-179.59C658.64,-170.94 694.32,-158 721.12,-148.29"/>
<polygon fill="#63b8ff" stroke="#63b8ff" points="722.01,-151.69 730.22,-145 719.62,-145.11 722.01,-151.69"/>
</a>
</g>
</g>
<!-- Node16 -->
<g id="Node000016" class="node">
<title>Node16</title>
<g id="a_Node000016"><a xlink:title=" ">
<polygon fill="#e0e0e0" stroke="#999999" points="847.42,-144 802.17,-144 802.17,-124 847.42,-124 847.42,-144"/>
<text text-anchor="middle" x="824.8" y="-130.5" font-family="Helvetica,sans-Serif" font-size="10.00">chrono</text>
</a>
</g>
</g>
<!-- Node1&#45;&gt;Node16 -->
<g id="edge25_Node000001_Node000016" class="edge">
<title>Node1&#45;&gt;Node16</title>
<g id="a_edge25_Node000001_Node000016"><a xlink:title=" ">
<path fill="none" stroke="#63b8ff" d="M649.1,-179.56C684.11,-171.27 736.44,-158.66 790.85,-144.45"/>
<polygon fill="#63b8ff" stroke="#63b8ff" points="791.5,-147.89 800.28,-141.97 789.72,-141.12 791.5,-147.89"/>
</a>
</g>
</g>
<!-- Node17 -->
<g id="Node000017" class="node">
<title>Node17</title>
<g id="a_Node000017"><a xlink:title=" ">
<polygon fill="#e0e0e0" stroke="#999999" points="909.67,-144 865.92,-144 865.92,-124 909.67,-124 909.67,-144"/>
<text text-anchor="middle" x="887.8" y="-130.5" font-family="Helvetica,sans-Serif" font-size="10.00">format</text>
</a>
</g>
</g>
<!-- Node1&#45;&gt;Node17 -->
<g id="edge26_Node000001_Node000017" class="edge">
<title>Node1&#45;&gt;Node17</title>
<g id="a_edge26_Node000001_Node000017"><a xlink:title=" ">
<path fill="none" stroke="#63b8ff" d="M670.82,-179.57C718.65,-171.88 786.63,-160.06 854.61,-144.32"/>
<polygon fill="#63b8ff" stroke="#63b8ff" points="855.11,-147.8 864.04,-142.11 853.51,-140.99 855.11,-147.8"/>
</a>
</g>
</g>
<!-- Node18 -->
<g id="Node000018" class="node">
<title>Node18</title>
<g id="a_Node000018"><a xlink:title=" ">
<polygon fill="#e0e0e0" stroke="#999999" points="981.55,-144 928.05,-144 928.05,-124 981.55,-124 981.55,-144"/>
<text text-anchor="middle" x="954.8" y="-130.5" font-family="Helvetica,sans-Serif" font-size="10.00">iostream</text>
</a>
</g>
</g>
<!-- Node1&#45;&gt;Node18 -->
<g id="edge27_Node000001_Node000018" class="edge">
<title>Node1&#45;&gt;Node18</title>
<g id="a_edge27_Node000001_Node000018"><a xlink:title=" ">
<path fill="none" stroke="#63b8ff" d="M670.86,-181.86C731.22,-174.49 825.69,-161.86 916.66,-144.25"/>
<polygon fill="#63b8ff" stroke="#63b8ff" points="917.11,-147.73 926.25,-142.37 915.76,-140.86 917.11,-147.73"/>
</a>
</g>
</g>
<!-- Node19 -->
<g id="Node000019" class="node">
<title>Node19</title>
<g id="a_Node000019"><a xlink:title=" ">
<polygon fill="#e0e0e0" stroke="#999999" points="1042.3,-144 999.3,-144 999.3,-124 1042.3,-124 1042.3,-144"/>
<text text-anchor="middle" x="1020.8" y="-130.5" font-family="Helvetica,sans-Serif" font-size="10.00">thread</text>
</a>
</g>
</g>
<!-- Node1&#45;&gt;Node19 -->
<g id="edge30_Node000001_Node000019" class="edge">
<title>Node1&#45;&gt;Node19</title>
<g id="a_edge30_Node000001_Node000019"><a xlink:title=" ">
<path fill="none" stroke="#63b8ff" d="M670.86,-185.03C744.5,-179.57 871.09,-167.87 987.7,-144.35"/>
<polygon fill="#63b8ff" stroke="#63b8ff" points="988.38,-147.78 997.47,-142.34 986.97,-140.92 988.38,-147.78"/>
</a>
</g>
</g>
<!-- Node2&#45;&gt;Node3 -->
<g id="edge2_Node000002_Node000003" class="edge">
<title>Node2&#45;&gt;Node3</title>
<g id="a_edge2_Node000002_Node000003"><a xlink:title=" ">
<path fill="none" stroke="#63b8ff" d="M392.89,-123.62C381.42,-115.89 364.69,-104.62 349.94,-94.67"/>
<polygon fill="#63b8ff" stroke="#63b8ff" points="352.1,-91.91 341.85,-89.22 348.19,-97.71 352.1,-91.91"/>
</a>
</g>
</g>
<!-- Node2&#45;&gt;Node4 -->
<g id="edge13_Node000002_Node000004" class="edge">
<title>Node2&#45;&gt;Node4</title>
<g id="a_edge13_Node000002_Node000004"><a xlink:title=" ">
<path fill="none" stroke="#63b8ff" d="M407.28,-123.66C407.74,-108.83 407.35,-79.2 398.8,-56 395.24,-46.36 389.15,-36.83 383.3,-29.03"/>
<polygon fill="#63b8ff" stroke="#63b8ff" points="386.16,-27.01 377.18,-21.39 380.7,-31.38 386.16,-27.01"/>
</a>
</g>
</g>
<!-- Node2&#45;&gt;Node5 -->
<g id="edge4_Node000002_Node000005" class="edge">
<title>Node2&#45;&gt;Node5</title>
<g id="a_edge4_Node000002_Node000005"><a xlink:title=" ">
<path fill="none" stroke="#63b8ff" d="M356.76,-123.56C307.71,-114.3 232,-100.02 173.56,-88.99"/>
<polygon fill="#63b8ff" stroke="#63b8ff" points="174.45,-85.6 163.97,-87.18 173.15,-92.48 174.45,-85.6"/>
</a>
</g>
</g>
<!-- Node2&#45;&gt;Node6 -->
<g id="edge5_Node000002_Node000006" class="edge">
<title>Node2&#45;&gt;Node6</title>
<g id="a_edge5_Node000002_Node000006"><a xlink:title=" ">
<path fill="none" stroke="#63b8ff" d="M451.64,-123.56C493.26,-114.8 556.3,-101.53 607.35,-90.78"/>
<polygon fill="#63b8ff" stroke="#63b8ff" points="607.83,-94.25 616.9,-88.77 606.39,-87.4 607.83,-94.25"/>
</a>
</g>
</g>
<!-- Node2&#45;&gt;Node10 -->
<g id="edge10_Node000002_Node000010" class="edge">
<title>Node2&#45;&gt;Node10</title>
<g id="a_edge10_Node000002_Node000010"><a xlink:title=" ">
<path fill="none" stroke="#63b8ff" d="M362.86,-123.51C328.17,-115.51 278.78,-102.98 236.8,-88 235.67,-87.6 234.53,-87.17 233.38,-86.73"/>
<polygon fill="#63b8ff" stroke="#63b8ff" points="235.09,-83.65 224.51,-83.02 232.39,-90.11 235.09,-83.65"/>
</a>
</g>
</g>
<!-- Node2&#45;&gt;Node11 -->
<g id="edge11_Node000002_Node000011" class="edge">
<title>Node2&#45;&gt;Node11</title>
<g id="a_edge11_Node000002_Node000011"><a xlink:title=" ">
<path fill="none" stroke="#63b8ff" d="M416.95,-123.62C426.74,-114.59 441.77,-100.72 453.62,-89.78"/>
<polygon fill="#63b8ff" stroke="#63b8ff" points="455.84,-92.49 460.81,-83.14 451.09,-87.35 455.84,-92.49"/>
</a>
</g>
</g>
<!-- Node2&#45;&gt;Node12 -->
<g id="edge12_Node000002_Node000012" class="edge">
<title>Node2&#45;&gt;Node12</title>
<g id="a_edge12_Node000002_Node000012"><a xlink:title=" ">
<path fill="none" stroke="#63b8ff" d="M427.91,-123.61C448.18,-114.57 479.63,-100.48 506.8,-88 507.4,-87.72 508.02,-87.44 508.64,-87.15"/>
<polygon fill="#63b8ff" stroke="#63b8ff" points="509.88,-90.43 517.47,-83.05 506.93,-84.09 509.88,-90.43"/>
</a>
</g>
</g>
<!-- Node3&#45;&gt;Node4 -->
<g id="edge3_Node000003_Node000004" class="edge">
<title>Node3&#45;&gt;Node4</title>
<g id="a_edge3_Node000003_Node000004"><a xlink:title=" ">
<path fill="none" stroke="#63b8ff" d="M330.67,-55.55C337.4,-47.48 345.67,-37.55 352.7,-29.12"/>
<polygon fill="#63b8ff" stroke="#63b8ff" points="355.27,-31.49 358.99,-21.57 349.9,-27.01 355.27,-31.49"/>
</a>
</g>
</g>
<!-- Node6&#45;&gt;Node4 -->
<g id="edge9_Node000006_Node000004" class="edge">
<title>Node6&#45;&gt;Node4</title>
<g id="a_edge9_Node000006_Node000004"><a xlink:title=" ">
<path fill="none" stroke="#63b8ff" d="M617.46,-57.23C549.32,-44.61 451.55,-26.51 400.96,-17.14"/>
<polygon fill="#63b8ff" stroke="#63b8ff" points="401.7,-13.72 391.23,-15.34 400.42,-20.6 401.7,-13.72"/>
</a>
</g>
</g>
<!-- Node7 -->
<g id="Node000007" class="node">
<title>Node7</title>
<g id="a_Node000007"><a xlink:title=" ">
<polygon fill="#e0e0e0" stroke="#999999" points="727.92,-20 679.67,-20 679.67,0 727.92,0 727.92,-20"/>
<text text-anchor="middle" x="703.8" y="-6.5" font-family="Helvetica,sans-Serif" font-size="10.00">cstddef</text>
</a>
</g>
</g>
<!-- Node6&#45;&gt;Node7 -->
<g id="edge6_Node000006_Node000007" class="edge">
<title>Node6&#45;&gt;Node7</title>
<g id="a_edge6_Node000006_Node000007"><a xlink:title=" ">
<path fill="none" stroke="#63b8ff" d="M694.89,-55.55C696.34,-48.26 698.1,-39.45 699.67,-31.6"/>
<polygon fill="#63b8ff" stroke="#63b8ff" points="703.09,-32.38 701.62,-21.89 696.22,-31.01 703.09,-32.38"/>
</a>
</g>
</g>
<!-- Node6&#45;&gt;Node8 -->
<g id="edge7_Node000006_Node000008" class="edge">
<title>Node6&#45;&gt;Node8</title>
<g id="a_edge7_Node000006_Node000008"><a xlink:title=" ">
<path fill="none" stroke="#63b8ff" d="M742.01,-55.55C774.58,-45.53 816.42,-32.65 846.75,-23.32"/>
<polygon fill="#63b8ff" stroke="#63b8ff" points="847.38,-26.79 855.91,-20.5 845.32,-20.1 847.38,-26.79"/>
</a>
</g>
</g>
<!-- Node6&#45;&gt;Node9 -->
<g id="edge8_Node000006_Node000009" class="edge">
<title>Node6&#45;&gt;Node9</title>
<g id="a_edge8_Node000006_Node000009"><a xlink:title=" ">
<path fill="none" stroke="#63b8ff" d="M672.22,-55.55C661.34,-46.95 647.79,-36.26 636.7,-27.5"/>
<polygon fill="#63b8ff" stroke="#63b8ff" points="638.92,-24.8 628.9,-21.35 634.58,-30.29 638.92,-24.8"/>
</a>
</g>
</g>
<!-- Node13&#45;&gt;Node7 -->
<g id="edge16_Node000013_Node000007" class="edge">
<title>Node13&#45;&gt;Node7</title>
<g id="a_edge16_Node000013_Node000007"><a xlink:title=" ">
<path fill="none" stroke="#63b8ff" d="M813.68,-55.55C790.13,-46 760.18,-33.86 737.49,-24.66"/>
<polygon fill="#63b8ff" stroke="#63b8ff" points="738.99,-21.49 728.4,-20.98 736.36,-27.98 738.99,-21.49"/>
</a>
</g>
</g>
<!-- Node13&#45;&gt;Node8 -->
<g id="edge15_Node000013_Node000008" class="edge">
<title>Node13&#45;&gt;Node8</title>
<g id="a_edge15_Node000013_Node000008"><a xlink:title=" ">
<path fill="none" stroke="#63b8ff" d="M860.81,-55.55C865.32,-47.82 870.81,-38.4 875.59,-30.21"/>
<polygon fill="#63b8ff" stroke="#63b8ff" points="878.53,-32.12 880.54,-21.72 872.48,-28.59 878.53,-32.12"/>
</a>
</g>
</g>
<!-- Node14 -->
<g id="Node000014" class="node">
<title>Node14</title>
<g id="a_Node000014"><a xlink:title=" ">
<polygon fill="#e0e0e0" stroke="#999999" points="839.42,-20 794.17,-20 794.17,0 839.42,0 839.42,-20"/>
<text text-anchor="middle" x="816.8" y="-6.5" font-family="Helvetica,sans-Serif" font-size="10.00">cstring</text>
</a>
</g>
</g>
<!-- Node13&#45;&gt;Node14 -->
<g id="edge17_Node000013_Node000014" class="edge">
<title>Node13&#45;&gt;Node14</title>
<g id="a_edge17_Node000013_Node000014"><a xlink:title=" ">
<path fill="none" stroke="#63b8ff" d="M842.78,-55.55C838.28,-47.82 832.78,-38.4 828,-30.21"/>
<polygon fill="#63b8ff" stroke="#63b8ff" points="831.11,-28.59 823.05,-21.72 825.06,-32.12 831.11,-28.59"/>
</a>
</g>
</g>
</g>
</svg>

<g id="navigator" transform="translate(0 0)" fill="#404254">
  <rect fill="#f2f5e9" fill-opacity="0.5" stroke="#606060" stroke-width=".5" x="0" y="0" width="60" height="60"/>
  <use id="zoomplus" xlink:href="#zoomPlus" x="17" y="9" onmousedown="handleZoom(evt,'in')"/>
  <use id="zoomminus" xlink:href="#zoomMin" x="42" y="9" onmousedown="handleZoom(evt,'out')"/>
  <use id="reset" xlink:href="#resetDef" x="30" y="36" onmousedown="handleReset()"/>
   <use id="arrowup" xlink:href="#arrowUp" x="0" y="0" onmousedown="handlePan(0,-1)"/>
  <use id="arrowright" xlink:href="#arrowRight" x="0" y="0" onmousedown="handlePan(1,0)"/>
  <use id="arrowdown" xlink:href="#arrowDown" x="0" y="0" onmousedown="handlePan(0,1)"/>
  <use id="arrowleft" xlink:href="#arrowLeft" x="0" y="0" onmousedown="handlePan(-1,0)"/>
</g>
<svg viewBox="0 0 15 15" width="100%" height="30px" preserveAspectRatio="xMaxYMin meet">
 <g id="arrow_out" transform="scale(0.3 0.3)">
  <a xlink:href="AudioMain_8cpp__incl_org.svg" target="_base">
   <rect id="button" ry="5" rx="5" y="6" x="6" height="38" width="38"
        fill="#f2f5e9" fill-opacity="0.5" stroke="#606060" stroke-width="1.0"/>
   <path id="arrow"
     d="M 11.500037,31.436501 C 11.940474,20.09759 22.043105,11.32322 32.158766,21.979434 L 37.068811,17.246167 C 37.068811,17.246167 37.088388,32 37.088388,32 L 22.160133,31.978069 C 22.160133,31.978069 26.997745,27.140456 26.997745,27.140456 C 18.528582,18.264221 13.291696,25.230495 11.500037,31.436501 z"
     style="fill:#404040;"/>
  </a>
 </g>
</svg>

<style type='text/css'>
<![CDATA[
[data-mouse-over-selected='false'] { opacity: 0.7; }
[data-mouse-over-selected='true']  { opacity: 1.0; }
]]>
</style>
<script type="application/ecmascript"><![CDATA[
document.addEventListener('DOMContentLoaded', (event) => {
  highlightEdges();
  highlightAdjacentNodes();
});
]]></script>
</svg>
