<?xml version="1.0" encoding="UTF-8" standalone="no"?>
<!DOCTYPE svg PUBLIC "-//W3C//DTD SVG 1.1//EN"
 "http://www.w3.org/Graphics/SVG/1.1/DTD/svg11.dtd">
<!-- Generated by graphviz version 12.2.1 (20241206.2353)
 -->
<!-- Title: include/EyeAICore/audio/AudioMain.hpp Pages: 1 -->
<svg width="895pt" height="168pt"
 viewBox="0.00 0.00 894.88 167.75" xmlns="http://www.w3.org/2000/svg" xmlns:xlink="http://www.w3.org/1999/xlink">
<g id="graph0" class="graph" transform="scale(1 1) rotate(0) translate(4 163.75)">
<title>include/EyeAICore/audio/AudioMain.hpp</title>
<!-- Node1 -->
<g id="Node000001" class="node">
<title>Node1</title>
<g id="a_Node000001"><a xlink:title=" ">
<polygon fill="#999999" stroke="#666666" points="659.38,-159.75 524.88,-159.75 524.88,-126.25 659.38,-126.25 659.38,-159.75"/>
<text text-anchor="start" x="532.88" y="-146.25" font-family="Helvetica,sans-Serif" font-size="10.00">include/EyeAICore/audio</text>
<text text-anchor="middle" x="592.12" y="-133.5" font-family="Helvetica,sans-Serif" font-size="10.00">/AudioMain.hpp</text>
</a>
</g>
</g>
<!-- Node2 -->
<g id="Node000002" class="node">
<title>Node2</title>
<g id="a_Node000002"><a xlink:href="DepthAudioSourceData_8hpp.html" target="_top" xlink:title=" ">
<polygon fill="white" stroke="#666666" points="156.25,-90.25 0,-90.25 0,-56.75 156.25,-56.75 156.25,-90.25"/>
<text text-anchor="start" x="8" y="-76.75" font-family="Helvetica,sans-Serif" font-size="10.00">EyeAICore/audio/DepthAudio</text>
<text text-anchor="middle" x="78.12" y="-64" font-family="Helvetica,sans-Serif" font-size="10.00">SourceData.hpp</text>
</a>
</g>
</g>
<!-- Node1&#45;&gt;Node2 -->
<g id="edge1_Node000001_Node000002" class="edge">
<title>Node1&#45;&gt;Node2</title>
<g id="a_edge1_Node000001_Node000002"><a xlink:title=" ">
<path fill="none" stroke="#63b8ff" d="M524.39,-134.7C440.91,-125.47 294.82,-108.56 170.12,-90.25 169.28,-90.13 168.44,-90 167.59,-89.87"/>
<polygon fill="#63b8ff" stroke="#63b8ff" points="168.29,-86.44 157.88,-88.39 167.23,-93.36 168.29,-86.44"/>
</a>
</g>
</g>
<!-- Node3 -->
<g id="Node000003" class="node">
<title>Node3</title>
<g id="a_Node000003"><a xlink:title=" ">
<polygon fill="#e0e0e0" stroke="#999999" points="207.5,-20.75 160.75,-20.75 160.75,0 207.5,0 207.5,-20.75"/>
<text text-anchor="middle" x="184.12" y="-7.25" font-family="Helvetica,sans-Serif" font-size="10.00">vector</text>
</a>
</g>
</g>
<!-- Node1&#45;&gt;Node3 -->
<g id="edge15_Node000001_Node000003" class="edge">
<title>Node1&#45;&gt;Node3</title>
<g id="a_edge15_Node000001_Node000003"><a xlink:title=" ">
<path fill="none" stroke="#63b8ff" d="M524.54,-141.92C425.88,-140.37 249.12,-131.69 203.12,-90.25 187.13,-75.84 183.46,-50.53 183.1,-32.46"/>
<polygon fill="#63b8ff" stroke="#63b8ff" points="186.6,-32.66 183.26,-22.61 179.6,-32.55 186.6,-32.66"/>
</a>
</g>
</g>
<!-- Node4 -->
<g id="Node000004" class="node">
<title>Node4</title>
<g id="a_Node000004"><a xlink:href="ObjectAudioSourceData_8hpp.html" target="_top" xlink:title=" ">
<polygon fill="white" stroke="#666666" points="370.38,-90.25 211.88,-90.25 211.88,-56.75 370.38,-56.75 370.38,-90.25"/>
<text text-anchor="start" x="219.88" y="-76.75" font-family="Helvetica,sans-Serif" font-size="10.00">EyeAICore/audio/ObjectAudio</text>
<text text-anchor="middle" x="291.12" y="-64" font-family="Helvetica,sans-Serif" font-size="10.00">SourceData.hpp</text>
</a>
</g>
</g>
<!-- Node1&#45;&gt;Node4 -->
<g id="edge3_Node000001_Node000004" class="edge">
<title>Node1&#45;&gt;Node4</title>
<g id="a_edge3_Node000001_Node000004"><a xlink:title=" ">
<path fill="none" stroke="#63b8ff" d="M524.57,-126.85C480.21,-116.9 421.85,-103.82 374.58,-93.22"/>
<polygon fill="#63b8ff" stroke="#63b8ff" points="375.44,-89.82 364.92,-91.05 373.91,-96.65 375.44,-89.82"/>
</a>
</g>
</g>
<!-- Node6 -->
<g id="Node000006" class="node">
<title>Node6</title>
<g id="a_Node000006"><a xlink:href="SpatialAudioSettings_8hpp.html" target="_top" xlink:title=" ">
<polygon fill="white" stroke="#666666" points="549.5,-90.25 388.75,-90.25 388.75,-56.75 549.5,-56.75 549.5,-90.25"/>
<text text-anchor="start" x="396.75" y="-76.75" font-family="Helvetica,sans-Serif" font-size="10.00">EyeAICore/audio/SpatialAudio</text>
<text text-anchor="middle" x="469.12" y="-64" font-family="Helvetica,sans-Serif" font-size="10.00">Settings.hpp</text>
</a>
</g>
</g>
<!-- Node1&#45;&gt;Node6 -->
<g id="edge5_Node000001_Node000006" class="edge">
<title>Node1&#45;&gt;Node6</title>
<g id="a_edge5_Node000001_Node000006"><a xlink:title=" ">
<path fill="none" stroke="#63b8ff" d="M562.66,-125.83C546.38,-116.9 525.95,-105.69 508.34,-96.02"/>
<polygon fill="#63b8ff" stroke="#63b8ff" points="510.12,-93.01 499.67,-91.26 506.76,-99.14 510.12,-93.01"/>
</a>
</g>
</g>
<!-- Node9 -->
<g id="Node000009" class="node">
<title>Node9</title>
<g id="a_Node000009"><a xlink:title=" ">
<polygon fill="#e0e0e0" stroke="#999999" points="616.62,-83.88 567.62,-83.88 567.62,-63.12 616.62,-63.12 616.62,-83.88"/>
<text text-anchor="middle" x="592.12" y="-70.38" font-family="Helvetica,sans-Serif" font-size="10.00">AL/al.h</text>
</a>
</g>
</g>
<!-- Node1&#45;&gt;Node9 -->
<g id="edge10_Node000001_Node000009" class="edge">
<title>Node1&#45;&gt;Node9</title>
<g id="a_edge10_Node000001_Node000009"><a xlink:title=" ">
<path fill="none" stroke="#63b8ff" d="M592.12,-126C592.12,-116.9 592.12,-105.39 592.12,-95.57"/>
<polygon fill="#63b8ff" stroke="#63b8ff" points="595.63,-95.84 592.13,-85.84 588.63,-95.84 595.63,-95.84"/>
</a>
</g>
</g>
<!-- Node10 -->
<g id="Node000010" class="node">
<title>Node10</title>
<g id="a_Node000010"><a xlink:title=" ">
<polygon fill="#e0e0e0" stroke="#999999" points="689.25,-83.88 635,-83.88 635,-63.12 689.25,-63.12 689.25,-83.88"/>
<text text-anchor="middle" x="662.12" y="-70.38" font-family="Helvetica,sans-Serif" font-size="10.00">AL/alc.h</text>
</a>
</g>
</g>
<!-- Node1&#45;&gt;Node10 -->
<g id="edge11_Node000001_Node000010" class="edge">
<title>Node1&#45;&gt;Node10</title>
<g id="a_edge11_Node000001_Node000010"><a xlink:title=" ">
<path fill="none" stroke="#63b8ff" d="M608.71,-126C619.31,-115.79 633.04,-102.55 643.93,-92.04"/>
<polygon fill="#63b8ff" stroke="#63b8ff" points="646.08,-94.83 650.85,-85.37 641.22,-89.79 646.08,-94.83"/>
</a>
</g>
</g>
<!-- Node11 -->
<g id="Node000011" class="node">
<title>Node11</title>
<g id="a_Node000011"><a xlink:title=" ">
<polygon fill="#e0e0e0" stroke="#999999" points="757,-83.88 707.25,-83.88 707.25,-63.12 757,-63.12 757,-83.88"/>
<text text-anchor="middle" x="732.12" y="-70.38" font-family="Helvetica,sans-Serif" font-size="10.00">atomic</text>
</a>
</g>
</g>
<!-- Node1&#45;&gt;Node11 -->
<g id="edge12_Node000001_Node000011" class="edge">
<title>Node1&#45;&gt;Node11</title>
<g id="a_edge12_Node000001_Node000011"><a xlink:title=" ">
<path fill="none" stroke="#63b8ff" d="M625.66,-125.83C648.74,-114.7 679.16,-100.04 701.57,-89.23"/>
<polygon fill="#63b8ff" stroke="#63b8ff" points="703.01,-92.42 710.5,-84.93 699.97,-86.12 703.01,-92.42"/>
</a>
</g>
</g>
<!-- Node12 -->
<g id="Node000012" class="node">
<title>Node12</title>
<g id="a_Node000012"><a xlink:title=" ">
<polygon fill="#e0e0e0" stroke="#999999" points="821.12,-83.88 775.12,-83.88 775.12,-63.12 821.12,-63.12 821.12,-83.88"/>
<text text-anchor="middle" x="798.12" y="-70.38" font-family="Helvetica,sans-Serif" font-size="10.00">deque</text>
</a>
</g>
</g>
<!-- Node1&#45;&gt;Node12 -->
<g id="edge13_Node000001_Node000012" class="edge">
<title>Node1&#45;&gt;Node12</title>
<g id="a_edge13_Node000001_Node000012"><a xlink:title=" ">
<path fill="none" stroke="#63b8ff" d="M655.81,-125.83C689.13,-116.68 730.32,-104.27 766.12,-90.25 767.08,-89.87 768.05,-89.48 769.03,-89.07"/>
<polygon fill="#63b8ff" stroke="#63b8ff" points="770.37,-92.31 778.03,-84.99 767.48,-85.93 770.37,-92.31"/>
</a>
</g>
</g>
<!-- Node13 -->
<g id="Node000013" class="node">
<title>Node13</title>
<g id="a_Node000013"><a xlink:title=" ">
<polygon fill="#e0e0e0" stroke="#999999" points="886.88,-83.88 839.38,-83.88 839.38,-63.12 886.88,-63.12 886.88,-83.88"/>
<text text-anchor="middle" x="863.12" y="-70.38" font-family="Helvetica,sans-Serif" font-size="10.00">mutex</text>
</a>
</g>
</g>
<!-- Node1&#45;&gt;Node13 -->
<g id="edge14_Node000001_Node000013" class="edge">
<title>Node1&#45;&gt;Node13</title>
<g id="a_edge14_Node000001_Node000013"><a xlink:title=" ">
<path fill="none" stroke="#63b8ff" d="M659.68,-131.6C707.95,-123.15 774.01,-109.45 830.12,-90.25 831.48,-89.79 832.85,-89.28 834.22,-88.75"/>
<polygon fill="#63b8ff" stroke="#63b8ff" points="835.41,-92.05 843.2,-84.87 832.64,-85.62 835.41,-92.05"/>
</a>
</g>
</g>
<!-- Node2&#45;&gt;Node3 -->
<g id="edge2_Node000002_Node000003" class="edge">
<title>Node2&#45;&gt;Node3</title>
<g id="a_edge2_Node000002_Node000003"><a xlink:title=" ">
<path fill="none" stroke="#63b8ff" d="M106.25,-56.28C122.15,-47.11 141.91,-35.72 157.55,-26.7"/>
<polygon fill="#63b8ff" stroke="#63b8ff" points="158.92,-29.95 165.84,-21.92 155.43,-23.88 158.92,-29.95"/>
</a>
</g>
</g>
<!-- Node5 -->
<g id="Node000005" class="node">
<title>Node5</title>
<g id="a_Node000005"><a xlink:title=" ">
<polygon fill="#e0e0e0" stroke="#999999" points="331,-20.75 287.25,-20.75 287.25,0 331,0 331,-20.75"/>
<text text-anchor="middle" x="309.12" y="-7.25" font-family="Helvetica,sans-Serif" font-size="10.00">string</text>
</a>
</g>
</g>
<!-- Node4&#45;&gt;Node5 -->
<g id="edge4_Node000004_Node000005" class="edge">
<title>Node4&#45;&gt;Node5</title>
<g id="a_edge4_Node000004_Node000005"><a xlink:title=" ">
<path fill="none" stroke="#63b8ff" d="M295.85,-56.44C298.04,-49.02 300.66,-40.11 303,-32.18"/>
<polygon fill="#63b8ff" stroke="#63b8ff" points="306.33,-33.25 305.8,-22.67 299.62,-31.27 306.33,-33.25"/>
</a>
</g>
</g>
<!-- Node6&#45;&gt;Node3 -->
<g id="edge9_Node000006_Node000003" class="edge">
<title>Node6&#45;&gt;Node3</title>
<g id="a_edge9_Node000006_Node000003"><a xlink:title=" ">
<path fill="none" stroke="#63b8ff" d="M393.5,-56.28C336.85,-44.13 261.97,-28.07 218.82,-18.82"/>
<polygon fill="#63b8ff" stroke="#63b8ff" points="219.78,-15.44 209.27,-16.77 218.32,-22.29 219.78,-15.44"/>
</a>
</g>
</g>
<!-- Node6&#45;&gt;Node5 -->
<g id="edge8_Node000006_Node000005" class="edge">
<title>Node6&#45;&gt;Node5</title>
<g id="a_edge8_Node000006_Node000005"><a xlink:title=" ">
<path fill="none" stroke="#63b8ff" d="M426.67,-56.28C400.01,-46.1 366.17,-33.17 341.65,-23.8"/>
<polygon fill="#63b8ff" stroke="#63b8ff" points="343.1,-20.61 332.51,-20.31 340.6,-27.15 343.1,-20.61"/>
</a>
</g>
</g>
<!-- Node7 -->
<g id="Node000007" class="node">
<title>Node7</title>
<g id="a_Node000007"><a xlink:title=" ">
<polygon fill="#e0e0e0" stroke="#999999" points="457.12,-20.75 405.12,-20.75 405.12,0 457.12,0 457.12,-20.75"/>
<text text-anchor="middle" x="431.12" y="-7.25" font-family="Helvetica,sans-Serif" font-size="10.00">cstddef</text>
</a>
</g>
</g>
<!-- Node6&#45;&gt;Node7 -->
<g id="edge6_Node000006_Node000007" class="edge">
<title>Node6&#45;&gt;Node7</title>
<g id="a_edge6_Node000006_Node000007"><a xlink:title=" ">
<path fill="none" stroke="#63b8ff" d="M459.14,-56.44C454.26,-48.58 448.33,-39.06 443.2,-30.79"/>
<polygon fill="#63b8ff" stroke="#63b8ff" points="446.29,-29.15 438.04,-22.5 440.35,-32.84 446.29,-29.15"/>
</a>
</g>
</g>
<!-- Node8 -->
<g id="Node000008" class="node">
<title>Node8</title>
<g id="a_Node000008"><a xlink:title=" ">
<polygon fill="#e0e0e0" stroke="#999999" points="538.75,-20.75 475.5,-20.75 475.5,0 538.75,0 538.75,-20.75"/>
<text text-anchor="middle" x="507.12" y="-7.25" font-family="Helvetica,sans-Serif" font-size="10.00">sndfile.hh</text>
</a>
</g>
</g>
<!-- Node6&#45;&gt;Node8 -->
<g id="edge7_Node000006_Node000008" class="edge">
<title>Node6&#45;&gt;Node8</title>
<g id="a_edge7_Node000006_Node000008"><a xlink:title=" ">
<path fill="none" stroke="#63b8ff" d="M479.11,-56.44C483.99,-48.58 489.92,-39.06 495.05,-30.79"/>
<polygon fill="#63b8ff" stroke="#63b8ff" points="497.9,-32.84 500.21,-22.5 491.96,-29.15 497.9,-32.84"/>
</a>
</g>
</g>
</g>
</svg>
