<?xml version="1.0" encoding="UTF-8" standalone="no"?>
<!DOCTYPE svg PUBLIC "-//W3C//DTD SVG 1.1//EN"
 "http://www.w3.org/Graphics/SVG/1.1/DTD/svg11.dtd">
<!-- Generated by graphviz version 12.2.1 (20241206.2353)
 -->
<!-- Title: src/audio/AudioMain.cpp Pages: 1 -->
<!--zoomable 212 -->

<svg id="main" version="1.1" xmlns="http://www.w3.org/2000/svg" xmlns:xlink="http://www.w3.org/1999/xlink" xml:space="preserve" onload="init(evt)">

<style type="text/css"><![CDATA[
.node, .edge {opacity: 0.7;}
.node.selected, .edge.selected {opacity: 1;}
.edge:hover path { stroke: red; }
.edge:hover polygon { stroke: red; fill: red; }
]]></style>

<defs>
  <circle id="rim" cx="0" cy="0" r="7"/>
  <circle id="rim2" cx="0" cy="0" r="3.5"/>
  <g id="zoomPlus">
    <use xlink:href="#rim" fill="#404040"><set attributeName="fill" to="#808080" begin="zoomplus.mouseover" end="zoomplus.mouseout"/></use>
    <path d="M-4,0h8M0,-4v8" fill="none" stroke="white" stroke-width="1.5" pointer-events="none"/>
  </g>
  <g id="zoomMin">
    <use xlink:href="#rim" fill="#404040"><set attributeName="fill" to="#808080" begin="zoomminus.mouseover" end="zoomminus.mouseout"/></use>
    <path d="M-4,0h8" fill="none" stroke="white" stroke-width="1.5" pointer-events="none"/>
  </g>
  <g id="arrowUp" transform="translate(30 24)">
    <use xlink:href="#rim"/>
    <path pointer-events="none" fill="none" stroke="white" stroke-width="1.5" d="M0,-3.0v7 M-2.5,-0.5L0,-3.0L2.5,-0.5"/>
  </g>
  <g id="arrowRight" transform="rotate(90) translate(36 -43)">
    <use xlink:href="#rim"/>
    <path pointer-events="none" fill="none" stroke="white" stroke-width="1.5" d="M0,-3.0v7 M-2.5,-0.5L0,-3.0L2.5,-0.5"/>
  </g>
  <g id="arrowDown" transform="rotate(180) translate(-30 -48)">
    <use xlink:href="#rim"/>
    <path pointer-events="none" fill="none" stroke="white" stroke-width="1.5" d="M0,-3.0v7 M-2.5,-0.5L0,-3.0L2.5,-0.5"/>
  </g>
  <g id="arrowLeft" transform="rotate(270) translate(-36 17)">
    <use xlink:href="#rim"/>
    <path pointer-events="none" fill="none" stroke="white" stroke-width="1.5" d="M0,-3.0v7 M-2.5,-0.5L0,-3.0L2.5,-0.5"/>
  </g>
  <g id="resetDef">
    <use xlink:href="#rim2" fill="#404040"><set attributeName="fill" to="#808080" begin="reset.mouseover" end="reset.mouseout"/></use>
  </g>
</defs>
<script type="application/ecmascript">
var viewWidth = 1553;
var viewHeight = 212;
var sectionId = 'dynsection-0';
</script>
<script type="application/ecmascript" xlink:href="svg.min.js"/>
<svg id="graph" class="graph">
<g id="viewport">
<title>src/audio/AudioMain.cpp</title>
<!-- Node1 -->
<g id="Node000001" class="node">
<title>Node1</title>
<g id="a_Node000001"><a xlink:title=" ">
<polygon fill="#999999" stroke="#666666" points="929.92,-203.75 794.67,-203.75 794.67,-183 929.92,-183 929.92,-203.75"/>
<text text-anchor="middle" x="862.29" y="-190.25" font-family="Helvetica,sans-Serif" font-size="10.00">src/audio/AudioMain.cpp</text>
</a>
</g>
</g>
<!-- Node2 -->
<g id="Node000002" class="node">
<title>Node2</title>
<g id="a_Node000002"><a xlink:href="AudioMain_8hpp.html" target="_top" xlink:title=" ">
<polygon fill="white" stroke="#666666" points="556.29,-147 384.29,-147 384.29,-126.25 556.29,-126.25 556.29,-147"/>
<text text-anchor="middle" x="470.29" y="-133.5" font-family="Helvetica,sans-Serif" font-size="10.00">EyeAICore/audio/AudioMain.hpp</text>
</a>
</g>
</g>
<!-- Node1&#45;&gt;Node2 -->
<g id="edge1_Node000001_Node000002" class="edge">
<title>Node1&#45;&gt;Node2</title>
<g id="a_edge1_Node000001_Node000002"><a xlink:title=" ">
<path fill="none" stroke="#63b8ff" d="M794.46,-182.9C727.17,-173.5 623.99,-159.09 552.18,-149.06"/>
<polygon fill="#63b8ff" stroke="#63b8ff" points="552.82,-145.62 542.43,-147.7 551.85,-152.55 552.82,-145.62"/>
</a>
</g>
</g>
<!-- Node3 -->
<g id="Node000003" class="node">
<title>Node3</title>
<g id="a_Node000003"><a xlink:href="DepthAudioSourceData_8hpp.html" target="_top" xlink:title=" ">
<polygon fill="white" stroke="#666666" points="173.42,-90.25 17.17,-90.25 17.17,-56.75 173.42,-56.75 173.42,-90.25"/>
<text text-anchor="start" x="25.17" y="-76.75" font-family="Helvetica,sans-Serif" font-size="10.00">EyeAICore/audio/DepthAudio</text>
<text text-anchor="middle" x="95.29" y="-64" font-family="Helvetica,sans-Serif" font-size="10.00">SourceData.hpp</text>
</a>
</g>
</g>
<!-- Node1&#45;&gt;Node3 -->
<g id="edge21_Node000001_Node000003" class="edge">
<title>Node1&#45;&gt;Node3</title>
<g id="a_edge21_Node000001_Node000003"><a xlink:title=" ">
<path fill="none" stroke="#63b8ff" d="M794.43,-192.87C645.93,-193.13 296.71,-189.09 187.29,-147 160.22,-136.58 134.75,-115.26 117.5,-98.43"/>
<polygon fill="#63b8ff" stroke="#63b8ff" points="120.32,-96.3 110.79,-91.66 115.35,-101.23 120.32,-96.3"/>
</a>
</g>
</g>
<!-- Node4 -->
<g id="Node000004" class="node">
<title>Node4</title>
<g id="a_Node000004"><a xlink:title=" ">
<polygon fill="#e0e0e0" stroke="#999999" points="260.67,-20.75 213.92,-20.75 213.92,0 260.67,0 260.67,-20.75"/>
<text text-anchor="middle" x="237.29" y="-7.25" font-family="Helvetica,sans-Serif" font-size="10.00">vector</text>
</a>
</g>
</g>
<!-- Node1&#45;&gt;Node4 -->
<g id="edge40_Node000001_Node000004" class="edge">
<title>Node1&#45;&gt;Node4</title>
<g id="a_edge40_Node000001_Node000004"><a xlink:title=" ">
<path fill="none" stroke="#63b8ff" d="M794.34,-190.86C640.42,-186.98 269.13,-174.95 147.29,-147 82.25,-132.08 45.51,-145.64 8.29,-90.25 -38.56,-20.51 127.23,-11.59 202.27,-11.03"/>
<polygon fill="#63b8ff" stroke="#63b8ff" points="201.98,-14.53 211.97,-11 201.96,-7.53 201.98,-14.53"/>
</a>
</g>
</g>
<!-- Node5 -->
<g id="Node000005" class="node">
<title>Node5</title>
<g id="a_Node000005"><a xlink:href="ObjectAudioSourceData_8hpp.html" target="_top" xlink:title=" ">
<polygon fill="white" stroke="#666666" points="763.54,-90.25 605.04,-90.25 605.04,-56.75 763.54,-56.75 763.54,-90.25"/>
<text text-anchor="start" x="613.04" y="-76.75" font-family="Helvetica,sans-Serif" font-size="10.00">EyeAICore/audio/ObjectAudio</text>
<text text-anchor="middle" x="684.29" y="-64" font-family="Helvetica,sans-Serif" font-size="10.00">SourceData.hpp</text>
</a>
</g>
</g>
<!-- Node1&#45;&gt;Node5 -->
<g id="edge22_Node000001_Node000005" class="edge">
<title>Node1&#45;&gt;Node5</title>
<g id="a_edge22_Node000001_Node000005"><a xlink:title=" ">
<path fill="none" stroke="#63b8ff" d="M847.42,-182.53C819.15,-163.81 757.01,-122.66 718.11,-96.89"/>
<polygon fill="#63b8ff" stroke="#63b8ff" points="720.29,-94.14 710.02,-91.53 716.42,-99.97 720.29,-94.14"/>
</a>
</g>
</g>
<!-- Node6 -->
<g id="Node000006" class="node">
<title>Node6</title>
<g id="a_Node000006"><a xlink:title=" ">
<polygon fill="#e0e0e0" stroke="#999999" points="706.17,-20.75 662.42,-20.75 662.42,0 706.17,0 706.17,-20.75"/>
<text text-anchor="middle" x="684.29" y="-7.25" font-family="Helvetica,sans-Serif" font-size="10.00">string</text>
</a>
</g>
</g>
<!-- Node1&#45;&gt;Node6 -->
<g id="edge37_Node000001_Node000006" class="edge">
<title>Node1&#45;&gt;Node6</title>
<g id="a_edge37_Node000001_Node000006"><a xlink:title=" ">
<path fill="none" stroke="#63b8ff" d="M794.53,-190.99C666.89,-187.69 395.67,-177.25 307.29,-147 263.62,-132.05 242.28,-130.84 220.29,-90.25 213.2,-77.16 210.29,-67.78 220.29,-56.75 249.13,-24.96 548.77,-14.7 650.62,-12.11"/>
<polygon fill="#63b8ff" stroke="#63b8ff" points="650.61,-15.62 660.52,-11.87 650.44,-8.62 650.61,-15.62"/>
</a>
</g>
</g>
<!-- Node7 -->
<g id="Node000007" class="node">
<title>Node7</title>
<g id="a_Node000007"><a xlink:href="SpatialAudioSettings_8hpp.html" target="_top" xlink:title=" ">
<polygon fill="white" stroke="#666666" points="942.67,-90.25 781.92,-90.25 781.92,-56.75 942.67,-56.75 942.67,-90.25"/>
<text text-anchor="start" x="789.92" y="-76.75" font-family="Helvetica,sans-Serif" font-size="10.00">EyeAICore/audio/SpatialAudio</text>
<text text-anchor="middle" x="862.29" y="-64" font-family="Helvetica,sans-Serif" font-size="10.00">Settings.hpp</text>
</a>
</g>
</g>
<!-- Node1&#45;&gt;Node7 -->
<g id="edge23_Node000001_Node000007" class="edge">
<title>Node1&#45;&gt;Node7</title>
<g id="a_edge23_Node000001_Node000007"><a xlink:title=" ">
<path fill="none" stroke="#63b8ff" d="M862.29,-182.73C862.29,-165.26 862.29,-127.8 862.29,-101.89"/>
<polygon fill="#63b8ff" stroke="#63b8ff" points="865.79,-102.08 862.29,-92.08 858.79,-102.08 865.79,-102.08"/>
</a>
</g>
</g>
<!-- Node9 -->
<g id="Node000009" class="node">
<title>Node9</title>
<g id="a_Node000009"><a xlink:title=" ">
<polygon fill="#e0e0e0" stroke="#999999" points="979.92,-20.75 916.67,-20.75 916.67,0 979.92,0 979.92,-20.75"/>
<text text-anchor="middle" x="948.29" y="-7.25" font-family="Helvetica,sans-Serif" font-size="10.00">sndfile.hh</text>
</a>
</g>
</g>
<!-- Node1&#45;&gt;Node9 -->
<g id="edge36_Node000001_Node000009" class="edge">
<title>Node1&#45;&gt;Node9</title>
<g id="a_edge36_Node000001_Node000009"><a xlink:title=" ">
<path fill="none" stroke="#63b8ff" d="M875.51,-182.57C896.35,-166.18 936.03,-130.99 951.29,-90.25 958.3,-71.54 956.35,-48.55 953.38,-32.23"/>
<polygon fill="#63b8ff" stroke="#63b8ff" points="956.86,-31.76 951.35,-22.71 950.01,-33.22 956.86,-31.76"/>
</a>
</g>
</g>
<!-- Node10 -->
<g id="Node000010" class="node">
<title>Node10</title>
<g id="a_Node000010"><a xlink:title=" ">
<polygon fill="#e0e0e0" stroke="#999999" points="278.79,-83.88 229.79,-83.88 229.79,-63.12 278.79,-63.12 278.79,-83.88"/>
<text text-anchor="middle" x="254.29" y="-70.38" font-family="Helvetica,sans-Serif" font-size="10.00">AL/al.h</text>
</a>
</g>
</g>
<!-- Node1&#45;&gt;Node10 -->
<g id="edge29_Node000001_Node000010" class="edge">
<title>Node1&#45;&gt;Node10</title>
<g id="a_edge29_Node000001_Node000010"><a xlink:title=" ">
<path fill="none" stroke="#63b8ff" d="M794.17,-191.08C673.59,-188.02 427.77,-178.06 348.29,-147 317.56,-134.99 288.51,-109.65 271.05,-92.35"/>
<polygon fill="#63b8ff" stroke="#63b8ff" points="273.58,-89.93 264.09,-85.23 268.57,-94.82 273.58,-89.93"/>
</a>
</g>
</g>
<!-- Node11 -->
<g id="Node000011" class="node">
<title>Node11</title>
<g id="a_Node000011"><a xlink:title=" ">
<polygon fill="#e0e0e0" stroke="#999999" points="351.42,-83.88 297.17,-83.88 297.17,-63.12 351.42,-63.12 351.42,-83.88"/>
<text text-anchor="middle" x="324.29" y="-70.38" font-family="Helvetica,sans-Serif" font-size="10.00">AL/alc.h</text>
</a>
</g>
</g>
<!-- Node1&#45;&gt;Node11 -->
<g id="edge30_Node000001_Node000011" class="edge">
<title>Node1&#45;&gt;Node11</title>
<g id="a_edge30_Node000001_Node000011"><a xlink:title=" ">
<path fill="none" stroke="#63b8ff" d="M794.41,-192.95C677.69,-192.81 444.81,-187.3 375.29,-147 354.87,-135.16 340.61,-111.48 332.46,-94.4"/>
<polygon fill="#63b8ff" stroke="#63b8ff" points="335.86,-93.42 328.6,-85.7 329.46,-96.26 335.86,-93.42"/>
</a>
</g>
</g>
<!-- Node12 -->
<g id="Node000012" class="node">
<title>Node12</title>
<g id="a_Node000012"><a xlink:title=" ">
<polygon fill="#e0e0e0" stroke="#999999" points="521.17,-83.88 471.42,-83.88 471.42,-63.12 521.17,-63.12 521.17,-83.88"/>
<text text-anchor="middle" x="496.29" y="-70.38" font-family="Helvetica,sans-Serif" font-size="10.00">atomic</text>
</a>
</g>
</g>
<!-- Node1&#45;&gt;Node12 -->
<g id="edge32_Node000001_Node000012" class="edge">
<title>Node1&#45;&gt;Node12</title>
<g id="a_edge32_Node000001_Node000012"><a xlink:title=" ">
<path fill="none" stroke="#63b8ff" d="M819.29,-182.52C783.46,-174.01 731.2,-160.92 686.29,-147 615.82,-125.15 598.49,-118.39 530.29,-90.25 529.18,-89.79 528.05,-89.32 526.91,-88.83"/>
<polygon fill="#63b8ff" stroke="#63b8ff" points="528.61,-85.75 518.05,-84.89 525.77,-92.15 528.61,-85.75"/>
</a>
</g>
</g>
<!-- Node14 -->
<g id="Node000014" class="node">
<title>Node14</title>
<g id="a_Node000014"><a xlink:title=" ">
<polygon fill="#e0e0e0" stroke="#999999" points="587.04,-83.88 539.54,-83.88 539.54,-63.12 587.04,-63.12 587.04,-83.88"/>
<text text-anchor="middle" x="563.29" y="-70.38" font-family="Helvetica,sans-Serif" font-size="10.00">mutex</text>
</a>
</g>
</g>
<!-- Node1&#45;&gt;Node14 -->
<g id="edge35_Node000001_Node000014" class="edge">
<title>Node1&#45;&gt;Node14</title>
<g id="a_edge35_Node000001_Node000014"><a xlink:title=" ">
<path fill="none" stroke="#63b8ff" d="M834.82,-182.64C786.24,-165.24 682.19,-127.17 596.29,-90.25 595.35,-89.84 594.39,-89.43 593.43,-89"/>
<polygon fill="#63b8ff" stroke="#63b8ff" points="595,-85.87 584.45,-84.88 592.08,-92.23 595,-85.87"/>
</a>
</g>
</g>
<!-- Node15 -->
<g id="Node000015" class="node">
<title>Node15</title>
<g id="a_Node000015"><a xlink:href="ByteArrayParser_8hpp.html" target="_top" xlink:title=" ">
<polygon fill="white" stroke="#666666" points="1146.29,-90.25 998.29,-90.25 998.29,-56.75 1146.29,-56.75 1146.29,-90.25"/>
<text text-anchor="start" x="1006.29" y="-76.75" font-family="Helvetica,sans-Serif" font-size="10.00">EyeAICore/audio/ByteArray</text>
<text text-anchor="middle" x="1072.29" y="-64" font-family="Helvetica,sans-Serif" font-size="10.00">Parser.hpp</text>
</a>
</g>
</g>
<!-- Node1&#45;&gt;Node15 -->
<g id="edge17_Node000001_Node000015" class="edge">
<title>Node1&#45;&gt;Node15</title>
<g id="a_edge17_Node000001_Node000015"><a xlink:title=" ">
<path fill="none" stroke="#63b8ff" d="M881.8,-182.57C899.53,-173.56 926.36,-159.73 949.29,-147 978.82,-130.61 1011.75,-111.14 1036.11,-96.5"/>
<polygon fill="#63b8ff" stroke="#63b8ff" points="1037.6,-99.69 1044.35,-91.53 1033.98,-93.69 1037.6,-99.69"/>
</a>
</g>
</g>
<!-- Node17 -->
<g id="Node000017" class="node">
<title>Node17</title>
<g id="a_Node000017"><a xlink:href="Profiling_8hpp.html" target="_top" xlink:title=" ">
<polygon fill="white" stroke="#666666" points="1193.29,-147 1039.29,-147 1039.29,-126.25 1193.29,-126.25 1193.29,-147"/>
<text text-anchor="middle" x="1116.29" y="-133.5" font-family="Helvetica,sans-Serif" font-size="10.00">EyeAICore/utils/Profiling.hpp</text>
</a>
</g>
</g>
<!-- Node1&#45;&gt;Node17 -->
<g id="edge24_Node000001_Node000017" class="edge">
<title>Node1&#45;&gt;Node17</title>
<g id="a_edge24_Node000001_Node000017"><a xlink:title=" ">
<path fill="none" stroke="#63b8ff" d="M908,-182.52C950.39,-173.38 1013.65,-159.75 1059.32,-149.91"/>
<polygon fill="#63b8ff" stroke="#63b8ff" points="1060.01,-153.34 1069.05,-147.81 1058.54,-146.49 1060.01,-153.34"/>
</a>
</g>
</g>
<!-- Node18 -->
<g id="Node000018" class="node">
<title>Node18</title>
<g id="a_Node000018"><a xlink:title=" ">
<polygon fill="#e0e0e0" stroke="#999999" points="1213.79,-83.88 1164.79,-83.88 1164.79,-63.12 1213.79,-63.12 1213.79,-83.88"/>
<text text-anchor="middle" x="1189.29" y="-70.38" font-family="Helvetica,sans-Serif" font-size="10.00">chrono</text>
</a>
</g>
</g>
<!-- Node1&#45;&gt;Node18 -->
<g id="edge33_Node000001_Node000018" class="edge">
<title>Node1&#45;&gt;Node18</title>
<g id="a_edge33_Node000001_Node000018"><a xlink:title=" ">
<path fill="none" stroke="#63b8ff" d="M888.15,-182.66C912.11,-173.6 948.7,-159.63 980.29,-147 1002.63,-138.07 1007.59,-134.2 1030.29,-126.25 1084.86,-107.14 1101.13,-110.46 1155.29,-90.25 1156.45,-89.82 1157.62,-89.36 1158.81,-88.89"/>
<polygon fill="#63b8ff" stroke="#63b8ff" points="1160.18,-92.11 1167.98,-84.94 1157.41,-85.68 1160.18,-92.11"/>
</a>
</g>
</g>
<!-- Node21 -->
<g id="Node000021" class="node">
<title>Node21</title>
<g id="a_Node000021"><a xlink:title=" ">
<polygon fill="#e0e0e0" stroke="#999999" points="1268.92,-147 1211.67,-147 1211.67,-126.25 1268.92,-126.25 1268.92,-147"/>
<text text-anchor="middle" x="1240.29" y="-133.5" font-family="Helvetica,sans-Serif" font-size="10.00">sndfile.h</text>
</a>
</g>
</g>
<!-- Node1&#45;&gt;Node21 -->
<g id="edge28_Node000001_Node000021" class="edge">
<title>Node1&#45;&gt;Node21</title>
<g id="a_edge28_Node000001_Node000021"><a xlink:title=" ">
<path fill="none" stroke="#63b8ff" d="M930.38,-185.5C996.78,-178.3 1100.82,-165.69 1200.17,-147.22"/>
<polygon fill="#63b8ff" stroke="#63b8ff" points="1200.65,-150.69 1209.83,-145.4 1199.36,-143.81 1200.65,-150.69"/>
</a>
</g>
</g>
<!-- Node22 -->
<g id="Node000022" class="node">
<title>Node22</title>
<g id="a_Node000022"><a xlink:title=" ">
<polygon fill="#e0e0e0" stroke="#999999" points="1349.92,-147 1286.67,-147 1286.67,-126.25 1349.92,-126.25 1349.92,-147"/>
<text text-anchor="middle" x="1318.29" y="-133.5" font-family="Helvetica,sans-Serif" font-size="10.00">algorithm</text>
</a>
</g>
</g>
<!-- Node1&#45;&gt;Node22 -->
<g id="edge31_Node000001_Node000022" class="edge">
<title>Node1&#45;&gt;Node22</title>
<g id="a_edge31_Node000001_Node000022"><a xlink:title=" ">
<path fill="none" stroke="#63b8ff" d="M930.38,-187.5C1010.71,-181.19 1148.48,-168.57 1275.42,-147.33"/>
<polygon fill="#63b8ff" stroke="#63b8ff" points="1275.72,-150.83 1285,-145.7 1274.55,-143.92 1275.72,-150.83"/>
</a>
</g>
</g>
<!-- Node23 -->
<g id="Node000023" class="node">
<title>Node23</title>
<g id="a_Node000023"><a xlink:title=" ">
<polygon fill="#e0e0e0" stroke="#999999" points="1416.79,-147 1367.79,-147 1367.79,-126.25 1416.79,-126.25 1416.79,-147"/>
<text text-anchor="middle" x="1392.29" y="-133.5" font-family="Helvetica,sans-Serif" font-size="10.00">format</text>
</a>
</g>
</g>
<!-- Node1&#45;&gt;Node23 -->
<g id="edge34_Node000001_Node000023" class="edge">
<title>Node1&#45;&gt;Node23</title>
<g id="a_edge34_Node000001_Node000023"><a xlink:title=" ">
<path fill="none" stroke="#63b8ff" d="M930.37,-190.16C1024.36,-186.22 1199.23,-175.71 1356.27,-147.27"/>
<polygon fill="#63b8ff" stroke="#63b8ff" points="1356.86,-150.72 1366.06,-145.46 1355.59,-143.84 1356.86,-150.72"/>
</a>
</g>
</g>
<!-- Node24 -->
<g id="Node000024" class="node">
<title>Node24</title>
<g id="a_Node000024"><a xlink:title=" ">
<polygon fill="#e0e0e0" stroke="#999999" points="1482.04,-147 1434.54,-147 1434.54,-126.25 1482.04,-126.25 1482.04,-147"/>
<text text-anchor="middle" x="1458.29" y="-133.5" font-family="Helvetica,sans-Serif" font-size="10.00">thread</text>
</a>
</g>
</g>
<!-- Node1&#45;&gt;Node24 -->
<g id="edge38_Node000001_Node000024" class="edge">
<title>Node1&#45;&gt;Node24</title>
<g id="a_edge38_Node000001_Node000024"><a xlink:title=" ">
<path fill="none" stroke="#63b8ff" d="M930.16,-191.39C1034.56,-188.88 1240.81,-180.06 1423.16,-147.26"/>
<polygon fill="#63b8ff" stroke="#63b8ff" points="1423.61,-150.74 1432.82,-145.5 1422.35,-143.85 1423.61,-150.74"/>
</a>
</g>
</g>
<!-- Node25 -->
<g id="Node000025" class="node">
<title>Node25</title>
<g id="a_Node000025"><a xlink:title=" ">
<polygon fill="#e0e0e0" stroke="#999999" points="1544.54,-147 1500.04,-147 1500.04,-126.25 1544.54,-126.25 1544.54,-147"/>
<text text-anchor="middle" x="1522.29" y="-133.5" font-family="Helvetica,sans-Serif" font-size="10.00">utility</text>
</a>
</g>
</g>
<!-- Node1&#45;&gt;Node25 -->
<g id="edge39_Node000001_Node000025" class="edge">
<title>Node1&#45;&gt;Node25</title>
<g id="a_edge39_Node000001_Node000025"><a xlink:title=" ">
<path fill="none" stroke="#63b8ff" d="M930.4,-192.38C1044.45,-191.32 1281.19,-184.52 1488.64,-147.11"/>
<polygon fill="#63b8ff" stroke="#63b8ff" points="1489.06,-150.59 1498.26,-145.35 1487.79,-143.71 1489.06,-150.59"/>
</a>
</g>
</g>
<!-- Node2&#45;&gt;Node3 -->
<g id="edge2_Node000002_Node000003" class="edge">
<title>Node2&#45;&gt;Node3</title>
<g id="a_edge2_Node000002_Node000003"><a xlink:title=" ">
<path fill="none" stroke="#63b8ff" d="M410.04,-125.8C349.12,-115.87 254.26,-100.41 184.6,-89.06"/>
<polygon fill="#63b8ff" stroke="#63b8ff" points="185.57,-85.67 175.14,-87.51 184.44,-92.58 185.57,-85.67"/>
</a>
</g>
</g>
<!-- Node2&#45;&gt;Node4 -->
<g id="edge16_Node000002_Node000004" class="edge">
<title>Node2&#45;&gt;Node4</title>
<g id="a_edge16_Node000002_Node000004"><a xlink:title=" ">
<path fill="none" stroke="#63b8ff" d="M453.2,-125.91C438.29,-117.18 416.27,-103.71 398.29,-90.25 380.27,-76.76 379.63,-68.29 360.29,-56.75 332.5,-40.16 297.62,-28 272.11,-20.47"/>
<polygon fill="#63b8ff" stroke="#63b8ff" points="273.14,-17.12 262.57,-17.75 271.23,-23.85 273.14,-17.12"/>
</a>
</g>
</g>
<!-- Node2&#45;&gt;Node5 -->
<g id="edge4_Node000002_Node000005" class="edge">
<title>Node2&#45;&gt;Node5</title>
<g id="a_edge4_Node000002_Node000005"><a xlink:title=" ">
<path fill="none" stroke="#63b8ff" d="M504.68,-125.8C534.79,-117.2 579.42,-104.45 616.66,-93.82"/>
<polygon fill="#63b8ff" stroke="#63b8ff" points="617.35,-97.26 626,-91.15 615.42,-90.53 617.35,-97.26"/>
</a>
</g>
</g>
<!-- Node2&#45;&gt;Node7 -->
<g id="edge6_Node000002_Node000007" class="edge">
<title>Node2&#45;&gt;Node7</title>
<g id="a_edge6_Node000002_Node000007"><a xlink:title=" ">
<path fill="none" stroke="#63b8ff" d="M539.03,-125.78C597.72,-117.26 684.68,-104.39 770.56,-90.51"/>
<polygon fill="#63b8ff" stroke="#63b8ff" points="771.03,-93.98 780.35,-88.92 769.91,-87.07 771.03,-93.98"/>
</a>
</g>
</g>
<!-- Node2&#45;&gt;Node10 -->
<g id="edge11_Node000002_Node000010" class="edge">
<title>Node2&#45;&gt;Node10</title>
<g id="a_edge11_Node000002_Node000010"><a xlink:title=" ">
<path fill="none" stroke="#63b8ff" d="M420.11,-125.79C383.13,-117.91 331.9,-105.63 288.29,-90.25 286.95,-89.78 285.58,-89.27 284.21,-88.73"/>
<polygon fill="#63b8ff" stroke="#63b8ff" points="285.77,-85.59 275.2,-84.9 283.03,-92.03 285.77,-85.59"/>
</a>
</g>
</g>
<!-- Node2&#45;&gt;Node11 -->
<g id="edge12_Node000002_Node000011" class="edge">
<title>Node2&#45;&gt;Node11</title>
<g id="a_edge12_Node000002_Node000011"><a xlink:title=" ">
<path fill="none" stroke="#63b8ff" d="M446.84,-125.8C422.89,-115.78 385.48,-100.12 358.29,-88.73"/>
<polygon fill="#63b8ff" stroke="#63b8ff" points="359.66,-85.51 349.09,-84.88 356.96,-91.97 359.66,-85.51"/>
</a>
</g>
</g>
<!-- Node2&#45;&gt;Node12 -->
<g id="edge13_Node000002_Node000012" class="edge">
<title>Node2&#45;&gt;Node12</title>
<g id="a_edge13_Node000002_Node000012"><a xlink:title=" ">
<path fill="none" stroke="#63b8ff" d="M474.47,-125.8C478.05,-117.38 483.33,-104.97 487.8,-94.47"/>
<polygon fill="#63b8ff" stroke="#63b8ff" points="490.93,-96.06 491.62,-85.49 484.48,-93.32 490.93,-96.06"/>
</a>
</g>
</g>
<!-- Node13 -->
<g id="Node000013" class="node">
<title>Node13</title>
<g id="a_Node000013"><a xlink:title=" ">
<polygon fill="#e0e0e0" stroke="#999999" points="453.29,-83.88 407.29,-83.88 407.29,-63.12 453.29,-63.12 453.29,-83.88"/>
<text text-anchor="middle" x="430.29" y="-70.38" font-family="Helvetica,sans-Serif" font-size="10.00">deque</text>
</a>
</g>
</g>
<!-- Node2&#45;&gt;Node13 -->
<g id="edge14_Node000002_Node000013" class="edge">
<title>Node2&#45;&gt;Node13</title>
<g id="a_edge14_Node000002_Node000013"><a xlink:title=" ">
<path fill="none" stroke="#63b8ff" d="M463.87,-125.8C458.18,-117.11 449.71,-104.17 442.7,-93.47"/>
<polygon fill="#63b8ff" stroke="#63b8ff" points="445.81,-91.81 437.4,-85.36 439.95,-95.65 445.81,-91.81"/>
</a>
</g>
</g>
<!-- Node2&#45;&gt;Node14 -->
<g id="edge15_Node000002_Node000014" class="edge">
<title>Node2&#45;&gt;Node14</title>
<g id="a_edge15_Node000002_Node000014"><a xlink:title=" ">
<path fill="none" stroke="#63b8ff" d="M485.24,-125.8C499.74,-116.27 522.01,-101.63 539.05,-90.43"/>
<polygon fill="#63b8ff" stroke="#63b8ff" points="540.69,-93.55 547.12,-85.13 536.84,-87.7 540.69,-93.55"/>
</a>
</g>
</g>
<!-- Node3&#45;&gt;Node4 -->
<g id="edge3_Node000003_Node000004" class="edge">
<title>Node3&#45;&gt;Node4</title>
<g id="a_edge3_Node000003_Node000004"><a xlink:title=" ">
<path fill="none" stroke="#63b8ff" d="M132.97,-56.28C155.08,-46.76 182.77,-34.85 204.06,-25.68"/>
<polygon fill="#63b8ff" stroke="#63b8ff" points="205.36,-28.93 213.16,-21.76 202.59,-22.5 205.36,-28.93"/>
</a>
</g>
</g>
<!-- Node5&#45;&gt;Node6 -->
<g id="edge5_Node000005_Node000006" class="edge">
<title>Node5&#45;&gt;Node6</title>
<g id="a_edge5_Node000005_Node000006"><a xlink:title=" ">
<path fill="none" stroke="#63b8ff" d="M684.29,-56.44C684.29,-49.1 684.29,-40.32 684.29,-32.46"/>
<polygon fill="#63b8ff" stroke="#63b8ff" points="687.79,-32.73 684.29,-22.73 680.79,-32.73 687.79,-32.73"/>
</a>
</g>
</g>
<!-- Node7&#45;&gt;Node4 -->
<g id="edge10_Node000007_Node000004" class="edge">
<title>Node7&#45;&gt;Node4</title>
<g id="a_edge10_Node000007_Node000004"><a xlink:title=" ">
<path fill="none" stroke="#63b8ff" d="M781.88,-58.06C778.64,-57.6 775.44,-57.16 772.29,-56.75 584.65,-32.42 358.22,-18.15 272.48,-13.28"/>
<polygon fill="#63b8ff" stroke="#63b8ff" points="272.8,-9.79 262.62,-12.72 272.4,-16.78 272.8,-9.79"/>
</a>
</g>
</g>
<!-- Node7&#45;&gt;Node6 -->
<g id="edge9_Node000007_Node000006" class="edge">
<title>Node7&#45;&gt;Node6</title>
<g id="a_edge9_Node000007_Node000006"><a xlink:title=" ">
<path fill="none" stroke="#63b8ff" d="M815.06,-56.28C784.1,-45.65 744.42,-32.02 716.93,-22.58"/>
<polygon fill="#63b8ff" stroke="#63b8ff" points="718.35,-19.37 707.75,-19.43 716.07,-25.99 718.35,-19.37"/>
</a>
</g>
</g>
<!-- Node8 -->
<g id="Node000008" class="node">
<title>Node8</title>
<g id="a_Node000008"><a xlink:title=" ">
<polygon fill="#e0e0e0" stroke="#999999" points="1050.29,-20.75 998.29,-20.75 998.29,0 1050.29,0 1050.29,-20.75"/>
<text text-anchor="middle" x="1024.29" y="-7.25" font-family="Helvetica,sans-Serif" font-size="10.00">cstddef</text>
</a>
</g>
</g>
<!-- Node7&#45;&gt;Node8 -->
<g id="edge7_Node000007_Node000008" class="edge">
<title>Node7&#45;&gt;Node8</title>
<g id="a_edge7_Node000007_Node000008"><a xlink:title=" ">
<path fill="none" stroke="#63b8ff" d="M905.28,-56.28C930.97,-46.59 963.25,-34.41 987.71,-25.18"/>
<polygon fill="#63b8ff" stroke="#63b8ff" points="988.81,-28.5 996.93,-21.7 986.34,-21.96 988.81,-28.5"/>
</a>
</g>
</g>
<!-- Node7&#45;&gt;Node9 -->
<g id="edge8_Node000007_Node000009" class="edge">
<title>Node7&#45;&gt;Node9</title>
<g id="a_edge8_Node000007_Node000009"><a xlink:title=" ">
<path fill="none" stroke="#63b8ff" d="M884.89,-56.44C897.3,-47.62 912.66,-36.7 925.15,-27.82"/>
<polygon fill="#63b8ff" stroke="#63b8ff" points="927.09,-30.74 933.21,-22.09 923.03,-25.03 927.09,-30.74"/>
</a>
</g>
</g>
<!-- Node15&#45;&gt;Node8 -->
<g id="edge19_Node000015_Node000008" class="edge">
<title>Node15&#45;&gt;Node8</title>
<g id="a_edge19_Node000015_Node000008"><a xlink:title=" ">
<path fill="none" stroke="#63b8ff" d="M1059.68,-56.44C1053.37,-48.41 1045.7,-38.63 1039.11,-30.24"/>
<polygon fill="#63b8ff" stroke="#63b8ff" points="1041.89,-28.11 1032.96,-22.41 1036.38,-32.43 1041.89,-28.11"/>
</a>
</g>
</g>
<!-- Node15&#45;&gt;Node9 -->
<g id="edge18_Node000015_Node000009" class="edge">
<title>Node15&#45;&gt;Node9</title>
<g id="a_edge18_Node000015_Node000009"><a xlink:title=" ">
<path fill="none" stroke="#63b8ff" d="M1039.39,-56.28C1020.44,-46.94 996.79,-35.28 978.34,-26.19"/>
<polygon fill="#63b8ff" stroke="#63b8ff" points="980.03,-23.12 969.51,-21.83 976.93,-29.4 980.03,-23.12"/>
</a>
</g>
</g>
<!-- Node16 -->
<g id="Node000016" class="node">
<title>Node16</title>
<g id="a_Node000016"><a xlink:title=" ">
<polygon fill="#e0e0e0" stroke="#999999" points="1117.79,-20.75 1068.79,-20.75 1068.79,0 1117.79,0 1117.79,-20.75"/>
<text text-anchor="middle" x="1093.29" y="-7.25" font-family="Helvetica,sans-Serif" font-size="10.00">cstring</text>
</a>
</g>
</g>
<!-- Node15&#45;&gt;Node16 -->
<g id="edge20_Node000015_Node000016" class="edge">
<title>Node15&#45;&gt;Node16</title>
<g id="a_edge20_Node000015_Node000016"><a xlink:title=" ">
<path fill="none" stroke="#63b8ff" d="M1077.81,-56.44C1080.39,-48.93 1083.49,-39.9 1086.24,-31.9"/>
<polygon fill="#63b8ff" stroke="#63b8ff" points="1089.48,-33.24 1089.42,-22.65 1082.86,-30.97 1089.48,-33.24"/>
</a>
</g>
</g>
<!-- Node17&#45;&gt;Node18 -->
<g id="edge25_Node000017_Node000018" class="edge">
<title>Node17&#45;&gt;Node18</title>
<g id="a_edge25_Node000017_Node000018"><a xlink:title=" ">
<path fill="none" stroke="#63b8ff" d="M1128.02,-125.8C1139.16,-116.48 1156.11,-102.28 1169.37,-91.19"/>
<polygon fill="#63b8ff" stroke="#63b8ff" points="1171.25,-94.17 1176.67,-85.07 1166.76,-88.8 1171.25,-94.17"/>
</a>
</g>
</g>
<!-- Node19 -->
<g id="Node000019" class="node">
<title>Node19</title>
<g id="a_Node000019"><a xlink:title=" ">
<polygon fill="#e0e0e0" stroke="#999999" points="1338.67,-83.88 1231.92,-83.88 1231.92,-63.12 1338.67,-63.12 1338.67,-83.88"/>
<text text-anchor="middle" x="1285.29" y="-70.38" font-family="Helvetica,sans-Serif" font-size="10.00">concurrentqueue.h</text>
</a>
</g>
</g>
<!-- Node17&#45;&gt;Node19 -->
<g id="edge26_Node000017_Node000019" class="edge">
<title>Node17&#45;&gt;Node19</title>
<g id="a_edge26_Node000017_Node000019"><a xlink:title=" ">
<path fill="none" stroke="#63b8ff" d="M1143.45,-125.8C1171.66,-115.6 1216.02,-99.56 1247.61,-88.13"/>
<polygon fill="#63b8ff" stroke="#63b8ff" points="1248.57,-91.5 1256.78,-84.81 1246.19,-84.92 1248.57,-91.5"/>
</a>
</g>
</g>
<!-- Node20 -->
<g id="Node000020" class="node">
<title>Node20</title>
<g id="a_Node000020"><a xlink:title=" ">
<polygon fill="#e0e0e0" stroke="#999999" points="1429.42,-83.88 1357.17,-83.88 1357.17,-63.12 1429.42,-63.12 1429.42,-83.88"/>
<text text-anchor="middle" x="1393.29" y="-70.38" font-family="Helvetica,sans-Serif" font-size="10.00">string_view</text>
</a>
</g>
</g>
<!-- Node17&#45;&gt;Node20 -->
<g id="edge27_Node000017_Node000020" class="edge">
<title>Node17&#45;&gt;Node20</title>
<g id="a_edge27_Node000017_Node000020"><a xlink:title=" ">
<path fill="none" stroke="#63b8ff" d="M1178.59,-125.75C1225.38,-117.77 1290.84,-105.38 1347.29,-90.25 1350.08,-89.5 1352.93,-88.68 1355.8,-87.8"/>
<polygon fill="#63b8ff" stroke="#63b8ff" points="1356.84,-91.15 1365.29,-84.75 1354.69,-84.48 1356.84,-91.15"/>
</a>
</g>
</g>
</g>
</svg>

<g id="navigator" transform="translate(0 0)" fill="#404254">
  <rect fill="#f2f5e9" fill-opacity="0.5" stroke="#606060" stroke-width=".5" x="0" y="0" width="60" height="60"/>
  <use id="zoomplus" xlink:href="#zoomPlus" x="17" y="9" onmousedown="handleZoom(evt,'in')"/>
  <use id="zoomminus" xlink:href="#zoomMin" x="42" y="9" onmousedown="handleZoom(evt,'out')"/>
  <use id="reset" xlink:href="#resetDef" x="30" y="36" onmousedown="handleReset()"/>
   <use id="arrowup" xlink:href="#arrowUp" x="0" y="0" onmousedown="handlePan(0,-1)"/>
  <use id="arrowright" xlink:href="#arrowRight" x="0" y="0" onmousedown="handlePan(1,0)"/>
  <use id="arrowdown" xlink:href="#arrowDown" x="0" y="0" onmousedown="handlePan(0,1)"/>
  <use id="arrowleft" xlink:href="#arrowLeft" x="0" y="0" onmousedown="handlePan(-1,0)"/>
</g>
<svg viewBox="0 0 15 15" width="100%" height="30px" preserveAspectRatio="xMaxYMin meet">
 <g id="arrow_out" transform="scale(0.3 0.3)">
  <a xlink:href="AudioMain_8cpp__incl_org.svg" target="_base">
   <rect id="button" ry="5" rx="5" y="6" x="6" height="38" width="38"
        fill="#f2f5e9" fill-opacity="0.5" stroke="#606060" stroke-width="1.0"/>
   <path id="arrow"
     d="M 11.500037,31.436501 C 11.940474,20.09759 22.043105,11.32322 32.158766,21.979434 L 37.068811,17.246167 C 37.068811,17.246167 37.088388,32 37.088388,32 L 22.160133,31.978069 C 22.160133,31.978069 26.997745,27.140456 26.997745,27.140456 C 18.528582,18.264221 13.291696,25.230495 11.500037,31.436501 z"
     style="fill:#404040;"/>
  </a>
 </g>
</svg>

<style type='text/css'>
<![CDATA[
[data-mouse-over-selected='false'] { opacity: 0.7; }
[data-mouse-over-selected='true']  { opacity: 1.0; }
]]>
</style>
<script type="application/ecmascript"><![CDATA[
document.addEventListener('DOMContentLoaded', (event) => {
  highlightEdges();
  highlightAdjacentNodes();
});
]]></script>
</svg>
