<?xml version="1.0" encoding="UTF-8" standalone="no"?>
<!DOCTYPE svg PUBLIC "-//W3C//DTD SVG 1.1//EN"
 "http://www.w3.org/Graphics/SVG/1.1/DTD/svg11.dtd">
<!-- Generated by graphviz version 12.2.1 (20241206.2353)
 -->
<!-- Title: include/EyeAICore/audio/AudioMain.hpp Pages: 1 -->
<svg width="312pt" height="164pt"
 viewBox="0.00 0.00 311.62 164.00" xmlns="http://www.w3.org/2000/svg" xmlns:xlink="http://www.w3.org/1999/xlink">
<g id="graph0" class="graph" transform="scale(1 1) rotate(0) translate(4 160)">
<title>include/EyeAICore/audio/AudioMain.hpp</title>
<!-- Node1 -->
<g id="Node000001" class="node">
<title>Node1</title>
<g id="a_Node000001"><a xlink:title=" ">
<polygon fill="#999999" stroke="#666666" points="214,-156 90,-156 90,-124 214,-124 214,-156"/>
<text text-anchor="start" x="98" y="-142.5" font-family="Helvetica,sans-Serif" font-size="10.00">include/EyeAICore/audio</text>
<text text-anchor="middle" x="152" y="-130.5" font-family="Helvetica,sans-Serif" font-size="10.00">/AudioMain.hpp</text>
</a>
</g>
</g>
<!-- Node2 -->
<g id="Node000002" class="node">
<title>Node2</title>
<g id="a_Node000002"><a xlink:href="SpatialAudio_8hpp.html" target="_top" xlink:title=" ">
<polygon fill="white" stroke="#666666" points="124,-88 0,-88 0,-56 124,-56 124,-88"/>
<text text-anchor="start" x="8" y="-74.5" font-family="Helvetica,sans-Serif" font-size="10.00">include/EyeAICore/audio</text>
<text text-anchor="middle" x="62" y="-62.5" font-family="Helvetica,sans-Serif" font-size="10.00">/SpatialAudio.hpp</text>
</a>
</g>
</g>
<!-- Node1&#45;&gt;Node2 -->
<g id="edge1_Node000001_Node000002" class="edge">
<title>Node1&#45;&gt;Node2</title>
<g id="a_edge1_Node000001_Node000002"><a xlink:title=" ">
<path fill="none" stroke="#63b8ff" d="M122.2,-117.15C109.39,-107.75 94.72,-97 83.07,-88.45"/>
<polygon fill="#63b8ff" stroke="#63b8ff" points="119.77,-119.71 129.91,-122.8 123.91,-114.06 119.77,-119.71"/>
</a>
</g>
</g>
<!-- Node3 -->
<g id="Node000003" class="node">
<title>Node3</title>
<g id="a_Node000003"><a xlink:href="SpatialAudio_8cpp.html" target="_top" xlink:title=" ">
<polygon fill="white" stroke="#666666" points="173.12,-20 40.88,-20 40.88,0 173.12,0 173.12,-20"/>
<text text-anchor="middle" x="107" y="-6.5" font-family="Helvetica,sans-Serif" font-size="10.00">src/audio/SpatialAudio.cpp</text>
</a>
</g>
</g>
<!-- Node1&#45;&gt;Node3 -->
<g id="edge4_Node000001_Node000003" class="edge">
<title>Node1&#45;&gt;Node3</title>
<g id="a_edge4_Node000001_Node000003"><a xlink:title=" ">
<path fill="none" stroke="#63b8ff" d="M148.02,-112.52C145.02,-95.91 140.18,-74.27 133,-56 127.85,-42.9 119.32,-29.06 113.45,-20.24"/>
<polygon fill="#63b8ff" stroke="#63b8ff" points="144.52,-112.83 149.64,-122.11 151.43,-111.66 144.52,-112.83"/>
</a>
</g>
</g>
<!-- Node4 -->
<g id="Node000004" class="node">
<title>Node4</title>
<g id="a_Node000004"><a xlink:href="AudioMain_8cpp.html" target="_top" xlink:title=" ">
<polygon fill="white" stroke="#666666" points="303.62,-82 180.38,-82 180.38,-62 303.62,-62 303.62,-82"/>
<text text-anchor="middle" x="242" y="-68.5" font-family="Helvetica,sans-Serif" font-size="10.00">src/audio/AudioMain.cpp</text>
</a>
</g>
</g>
<!-- Node1&#45;&gt;Node4 -->
<g id="edge3_Node000001_Node000004" class="edge">
<title>Node1&#45;&gt;Node4</title>
<g id="a_edge3_Node000001_Node000004"><a xlink:title=" ">
<path fill="none" stroke="#63b8ff" d="M181.94,-117.04C198.04,-105.24 217.04,-91.3 229.3,-82.32"/>
<polygon fill="#63b8ff" stroke="#63b8ff" points="180.09,-114.06 174.09,-122.8 184.23,-119.71 180.09,-114.06"/>
</a>
</g>
</g>
<!-- Node2&#45;&gt;Node3 -->
<g id="edge2_Node000002_Node000003" class="edge">
<title>Node2&#45;&gt;Node3</title>
<g id="a_edge2_Node000002_Node000003"><a xlink:title=" ">
<path fill="none" stroke="#63b8ff" d="M80.45,-46.4C87.32,-37.24 94.71,-27.39 99.94,-20.41"/>
<polygon fill="#63b8ff" stroke="#63b8ff" points="77.7,-44.24 74.5,-54.34 83.3,-48.44 77.7,-44.24"/>
</a>
</g>
</g>
</g>
</svg>
