<?xml version="1.0" encoding="UTF-8" standalone="no"?>
<!DOCTYPE svg PUBLIC "-//W3C//DTD SVG 1.1//EN"
 "http://www.w3.org/Graphics/SVG/1.1/DTD/svg11.dtd">
<!-- Generated by graphviz version 12.2.1 (20241206.2353)
 -->
<!-- Title: include/EyeAICore/audio/AudioMain.hpp Pages: 1 -->
<svg width="718pt" height="164pt"
 viewBox="0.00 0.00 717.75 164.00" xmlns="http://www.w3.org/2000/svg" xmlns:xlink="http://www.w3.org/1999/xlink">
<g id="graph0" class="graph" transform="scale(1 1) rotate(0) translate(4 160)">
<title>include/EyeAICore/audio/AudioMain.hpp</title>
<!-- Node1 -->
<g id="Node000001" class="node">
<title>Node1</title>
<g id="a_Node000001"><a xlink:title=" ">
<polygon fill="#999999" stroke="#666666" points="500.12,-156 376.12,-156 376.12,-124 500.12,-124 500.12,-156"/>
<text text-anchor="start" x="384.12" y="-142.5" font-family="Helvetica,sans-Serif" font-size="10.00">include/EyeAICore/audio</text>
<text text-anchor="middle" x="438.12" y="-130.5" font-family="Helvetica,sans-Serif" font-size="10.00">/AudioMain.hpp</text>
</a>
</g>
</g>
<!-- Node2 -->
<g id="Node000002" class="node">
<title>Node2</title>
<g id="a_Node000002"><a xlink:href="DepthAudioSourceData_8hpp.html" target="_top" xlink:title=" ">
<polygon fill="white" stroke="#666666" points="144.25,-88 0,-88 0,-56 144.25,-56 144.25,-88"/>
<text text-anchor="start" x="8" y="-74.5" font-family="Helvetica,sans-Serif" font-size="10.00">EyeAICore/audio/DepthAudio</text>
<text text-anchor="middle" x="72.12" y="-62.5" font-family="Helvetica,sans-Serif" font-size="10.00">SourceData.hpp</text>
</a>
</g>
</g>
<!-- Node1&#45;&gt;Node2 -->
<g id="edge1_Node000001_Node000002" class="edge">
<title>Node1&#45;&gt;Node2</title>
<g id="a_edge1_Node000001_Node000002"><a xlink:title=" ">
<path fill="none" stroke="#63b8ff" d="M376.04,-127.8C315.38,-116.86 222.63,-100.14 155.55,-88.04"/>
<polygon fill="#63b8ff" stroke="#63b8ff" points="156.54,-84.67 146.08,-86.34 155.3,-91.56 156.54,-84.67"/>
</a>
</g>
</g>
<!-- Node3 -->
<g id="Node000003" class="node">
<title>Node3</title>
<g id="a_Node000003"><a xlink:title=" ">
<polygon fill="#e0e0e0" stroke="#999999" points="193.62,-20 150.62,-20 150.62,0 193.62,0 193.62,-20"/>
<text text-anchor="middle" x="172.12" y="-6.5" font-family="Helvetica,sans-Serif" font-size="10.00">vector</text>
</a>
</g>
</g>
<!-- Node1&#45;&gt;Node3 -->
<g id="edge12_Node000001_Node000003" class="edge">
<title>Node1&#45;&gt;Node3</title>
<g id="a_edge12_Node000001_Node000003"><a xlink:title=" ">
<path fill="none" stroke="#63b8ff" d="M375.67,-133.65C311.38,-126.87 217.03,-112.94 191.12,-88 176.11,-73.55 172.21,-49.27 171.53,-31.84"/>
<polygon fill="#63b8ff" stroke="#63b8ff" points="175.03,-31.86 171.5,-21.87 168.03,-31.88 175.03,-31.86"/>
</a>
</g>
</g>
<!-- Node4 -->
<g id="Node000004" class="node">
<title>Node4</title>
<g id="a_Node000004"><a xlink:href="ObjectAudioSourceData_8hpp.html" target="_top" xlink:title=" ">
<polygon fill="white" stroke="#666666" points="346.38,-88 199.88,-88 199.88,-56 346.38,-56 346.38,-88"/>
<text text-anchor="start" x="207.88" y="-74.5" font-family="Helvetica,sans-Serif" font-size="10.00">EyeAICore/audio/ObjectAudio</text>
<text text-anchor="middle" x="273.12" y="-62.5" font-family="Helvetica,sans-Serif" font-size="10.00">SourceData.hpp</text>
</a>
</g>
</g>
<!-- Node1&#45;&gt;Node4 -->
<g id="edge3_Node000001_Node000004" class="edge">
<title>Node1&#45;&gt;Node4</title>
<g id="a_edge3_Node000001_Node000004"><a xlink:title=" ">
<path fill="none" stroke="#63b8ff" d="M399.44,-123.53C376.46,-114.33 347.08,-102.58 322.44,-92.73"/>
<polygon fill="#63b8ff" stroke="#63b8ff" points="323.84,-89.52 313.26,-89.05 321.24,-96.02 323.84,-89.52"/>
</a>
</g>
</g>
<!-- Node5 -->
<g id="Node000005" class="node">
<title>Node5</title>
<g id="a_Node000005"><a xlink:href="SpatialAudioSettings_8hpp.html" target="_top" xlink:title=" ">
<polygon fill="white" stroke="#666666" points="512.12,-88 364.12,-88 364.12,-56 512.12,-56 512.12,-88"/>
<text text-anchor="start" x="372.12" y="-74.5" font-family="Helvetica,sans-Serif" font-size="10.00">EyeAICore/audio/SpatialAudio</text>
<text text-anchor="middle" x="438.12" y="-62.5" font-family="Helvetica,sans-Serif" font-size="10.00">Settings.hpp</text>
</a>
</g>
</g>
<!-- Node1&#45;&gt;Node5 -->
<g id="edge4_Node000001_Node000005" class="edge">
<title>Node1&#45;&gt;Node5</title>
<g id="a_edge4_Node000001_Node000005"><a xlink:title=" ">
<path fill="none" stroke="#63b8ff" d="M438.12,-123.69C438.12,-116.53 438.12,-107.79 438.12,-99.59"/>
<polygon fill="#63b8ff" stroke="#63b8ff" points="441.63,-99.74 438.13,-89.74 434.63,-99.74 441.63,-99.74"/>
</a>
</g>
</g>
<!-- Node9 -->
<g id="Node000009" class="node">
<title>Node9</title>
<g id="a_Node000009"><a xlink:title=" ">
<polygon fill="#e0e0e0" stroke="#999999" points="576.5,-82 529.75,-82 529.75,-62 576.5,-62 576.5,-82"/>
<text text-anchor="middle" x="553.12" y="-68.5" font-family="Helvetica,sans-Serif" font-size="10.00">AL/al.h</text>
</a>
</g>
</g>
<!-- Node1&#45;&gt;Node9 -->
<g id="edge9_Node000001_Node000009" class="edge">
<title>Node1&#45;&gt;Node9</title>
<g id="a_edge9_Node000001_Node000009"><a xlink:title=" ">
<path fill="none" stroke="#63b8ff" d="M465.09,-123.53C483.71,-112.84 508.35,-98.7 526.83,-88.09"/>
<polygon fill="#63b8ff" stroke="#63b8ff" points="528.4,-91.23 535.33,-83.21 524.91,-85.16 528.4,-91.23"/>
</a>
</g>
</g>
<!-- Node10 -->
<g id="Node000010" class="node">
<title>Node10</title>
<g id="a_Node000010"><a xlink:title=" ">
<polygon fill="#e0e0e0" stroke="#999999" points="646.12,-82 594.12,-82 594.12,-62 646.12,-62 646.12,-82"/>
<text text-anchor="middle" x="620.12" y="-68.5" font-family="Helvetica,sans-Serif" font-size="10.00">AL/alc.h</text>
</a>
</g>
</g>
<!-- Node1&#45;&gt;Node10 -->
<g id="edge10_Node000001_Node000010" class="edge">
<title>Node1&#45;&gt;Node10</title>
<g id="a_edge10_Node000001_Node000010"><a xlink:title=" ">
<path fill="none" stroke="#63b8ff" d="M485.44,-123.54C514.41,-113.83 552.13,-100.78 585.12,-88 586.23,-87.57 587.36,-87.13 588.5,-86.67"/>
<polygon fill="#63b8ff" stroke="#63b8ff" points="589.44,-90.07 597.35,-83.02 586.77,-83.6 589.44,-90.07"/>
</a>
</g>
</g>
<!-- Node11 -->
<g id="Node000011" class="node">
<title>Node11</title>
<g id="a_Node000011"><a xlink:title=" ">
<polygon fill="#e0e0e0" stroke="#999999" points="709.75,-82 664.5,-82 664.5,-62 709.75,-62 709.75,-82"/>
<text text-anchor="middle" x="687.12" y="-68.5" font-family="Helvetica,sans-Serif" font-size="10.00">atomic</text>
</a>
</g>
</g>
<!-- Node1&#45;&gt;Node11 -->
<g id="edge11_Node000001_Node000011" class="edge">
<title>Node1&#45;&gt;Node11</title>
<g id="a_edge11_Node000001_Node000011"><a xlink:title=" ">
<path fill="none" stroke="#63b8ff" d="M500.36,-127.94C544.28,-119.28 604.13,-105.73 655.12,-88 656.26,-87.61 657.4,-87.19 658.55,-86.75"/>
<polygon fill="#63b8ff" stroke="#63b8ff" points="659.56,-90.12 667.39,-82.98 656.82,-83.68 659.56,-90.12"/>
</a>
</g>
</g>
<!-- Node2&#45;&gt;Node3 -->
<g id="edge2_Node000002_Node000003" class="edge">
<title>Node2&#45;&gt;Node3</title>
<g id="a_edge2_Node000002_Node000003"><a xlink:title=" ">
<path fill="none" stroke="#63b8ff" d="M97.88,-55.55C112.92,-46.52 131.83,-35.17 146.81,-26.19"/>
<polygon fill="#63b8ff" stroke="#63b8ff" points="148.37,-29.33 155.15,-21.19 144.77,-23.33 148.37,-29.33"/>
</a>
</g>
</g>
<!-- Node5&#45;&gt;Node3 -->
<g id="edge8_Node000005_Node000003" class="edge">
<title>Node5&#45;&gt;Node3</title>
<g id="a_edge8_Node000005_Node000003"><a xlink:title=" ">
<path fill="none" stroke="#63b8ff" d="M369.62,-55.55C316.8,-43.63 246.08,-27.68 205.17,-18.45"/>
<polygon fill="#63b8ff" stroke="#63b8ff" points="205.97,-15.05 195.45,-16.26 204.43,-21.88 205.97,-15.05"/>
</a>
</g>
</g>
<!-- Node6 -->
<g id="Node000006" class="node">
<title>Node6</title>
<g id="a_Node000006"><a xlink:title=" ">
<polygon fill="#e0e0e0" stroke="#999999" points="391.25,-20 343,-20 343,0 391.25,0 391.25,-20"/>
<text text-anchor="middle" x="367.12" y="-6.5" font-family="Helvetica,sans-Serif" font-size="10.00">cstddef</text>
</a>
</g>
</g>
<!-- Node5&#45;&gt;Node6 -->
<g id="edge5_Node000005_Node000006" class="edge">
<title>Node5&#45;&gt;Node6</title>
<g id="a_edge5_Node000005_Node000006"><a xlink:title=" ">
<path fill="none" stroke="#63b8ff" d="M419.84,-55.55C409.77,-47.04 397.27,-36.48 386.97,-27.77"/>
<polygon fill="#63b8ff" stroke="#63b8ff" points="389.31,-25.17 379.41,-21.38 384.79,-30.51 389.31,-25.17"/>
</a>
</g>
</g>
<!-- Node7 -->
<g id="Node000007" class="node">
<title>Node7</title>
<g id="a_Node000007"><a xlink:title=" ">
<polygon fill="#e0e0e0" stroke="#999999" points="467.12,-20 409.12,-20 409.12,0 467.12,0 467.12,-20"/>
<text text-anchor="middle" x="438.12" y="-6.5" font-family="Helvetica,sans-Serif" font-size="10.00">sndfile.hh</text>
</a>
</g>
</g>
<!-- Node5&#45;&gt;Node7 -->
<g id="edge6_Node000005_Node000007" class="edge">
<title>Node5&#45;&gt;Node7</title>
<g id="a_edge6_Node000005_Node000007"><a xlink:title=" ">
<path fill="none" stroke="#63b8ff" d="M438.12,-55.55C438.12,-48.34 438.12,-39.66 438.12,-31.88"/>
<polygon fill="#63b8ff" stroke="#63b8ff" points="441.63,-31.92 438.13,-21.92 434.63,-31.92 441.63,-31.92"/>
</a>
</g>
</g>
<!-- Node8 -->
<g id="Node000008" class="node">
<title>Node8</title>
<g id="a_Node000008"><a xlink:title=" ">
<polygon fill="#e0e0e0" stroke="#999999" points="525.12,-20 485.12,-20 485.12,0 525.12,0 525.12,-20"/>
<text text-anchor="middle" x="505.12" y="-6.5" font-family="Helvetica,sans-Serif" font-size="10.00">string</text>
</a>
</g>
</g>
<!-- Node5&#45;&gt;Node8 -->
<g id="edge7_Node000005_Node000008" class="edge">
<title>Node5&#45;&gt;Node8</title>
<g id="a_edge7_Node000005_Node000008"><a xlink:title=" ">
<path fill="none" stroke="#63b8ff" d="M455.38,-55.55C464.78,-47.13 476.44,-36.69 486.1,-28.04"/>
<polygon fill="#63b8ff" stroke="#63b8ff" points="488.38,-30.7 493.49,-21.42 483.71,-25.48 488.38,-30.7"/>
</a>
</g>
</g>
</g>
</svg>
