<?xml version="1.0" encoding="UTF-8" standalone="no"?>
<!DOCTYPE svg PUBLIC "-//W3C//DTD SVG 1.1//EN"
 "http://www.w3.org/Graphics/SVG/1.1/DTD/svg11.dtd">
<!-- Generated by graphviz version 12.2.1 (20241206.2353)
 -->
<!-- Title: src/audio/AudioSourceData.cpp Pages: 1 -->
<svg width="323pt" height="152pt"
 viewBox="0.00 0.00 322.88 152.00" xmlns="http://www.w3.org/2000/svg" xmlns:xlink="http://www.w3.org/1999/xlink">
<g id="graph0" class="graph" transform="scale(1 1) rotate(0) translate(4 148)">
<title>src/audio/AudioSourceData.cpp</title>
<!-- Node1 -->
<g id="Node000001" class="node">
<title>Node1</title>
<g id="a_Node000001"><a xlink:title=" ">
<polygon fill="#999999" stroke="#666666" points="274.12,-144 120.12,-144 120.12,-124 274.12,-124 274.12,-144"/>
<text text-anchor="middle" x="197.12" y="-130.5" font-family="Helvetica,sans-Serif" font-size="10.00">src/audio/AudioSourceData.cpp</text>
</a>
</g>
</g>
<!-- Node2 -->
<g id="Node000002" class="node">
<title>Node2</title>
<g id="a_Node000002"><a xlink:href="DepthAudioSourceData_8hpp.html" target="_top" xlink:title=" ">
<polygon fill="white" stroke="#666666" points="144.25,-88 0,-88 0,-56 144.25,-56 144.25,-88"/>
<text text-anchor="start" x="8" y="-74.5" font-family="Helvetica,sans-Serif" font-size="10.00">EyeAICore/audio/DepthAudio</text>
<text text-anchor="middle" x="72.12" y="-62.5" font-family="Helvetica,sans-Serif" font-size="10.00">SourceData.hpp</text>
</a>
</g>
</g>
<!-- Node1&#45;&gt;Node2 -->
<g id="edge1_Node000001_Node000002" class="edge">
<title>Node1&#45;&gt;Node2</title>
<g id="a_edge1_Node000001_Node000002"><a xlink:title=" ">
<path fill="none" stroke="#63b8ff" d="M177.59,-123.62C160.72,-115.52 135.74,-103.53 114.33,-93.26"/>
<polygon fill="#63b8ff" stroke="#63b8ff" points="116.05,-90.2 105.52,-89.03 113.02,-96.51 116.05,-90.2"/>
</a>
</g>
</g>
<!-- Node3 -->
<g id="Node000003" class="node">
<title>Node3</title>
<g id="a_Node000003"><a xlink:title=" ">
<polygon fill="#e0e0e0" stroke="#999999" points="143.62,-20 100.62,-20 100.62,0 143.62,0 143.62,-20"/>
<text text-anchor="middle" x="122.12" y="-6.5" font-family="Helvetica,sans-Serif" font-size="10.00">vector</text>
</a>
</g>
</g>
<!-- Node1&#45;&gt;Node3 -->
<g id="edge4_Node000001_Node000003" class="edge">
<title>Node1&#45;&gt;Node3</title>
<g id="a_edge4_Node000001_Node000003"><a xlink:title=" ">
<path fill="none" stroke="#63b8ff" d="M192.22,-123.85C184.34,-109.27 168.2,-79.98 153.12,-56 147.59,-47.19 141.1,-37.67 135.5,-29.66"/>
<polygon fill="#63b8ff" stroke="#63b8ff" points="138.52,-27.87 129.89,-21.73 132.81,-31.92 138.52,-27.87"/>
</a>
</g>
</g>
<!-- Node4 -->
<g id="Node000004" class="node">
<title>Node4</title>
<g id="a_Node000004"><a xlink:title=" ">
<polygon fill="#e0e0e0" stroke="#999999" points="243.62,-82 200.62,-82 200.62,-62 243.62,-62 243.62,-82"/>
<text text-anchor="middle" x="222.12" y="-68.5" font-family="Helvetica,sans-Serif" font-size="10.00">cmath</text>
</a>
</g>
</g>
<!-- Node1&#45;&gt;Node4 -->
<g id="edge3_Node000001_Node000004" class="edge">
<title>Node1&#45;&gt;Node4</title>
<g id="a_edge3_Node000001_Node000004"><a xlink:title=" ">
<path fill="none" stroke="#63b8ff" d="M201.03,-123.62C204.46,-115.39 209.57,-103.13 213.9,-92.74"/>
<polygon fill="#63b8ff" stroke="#63b8ff" points="217.13,-94.09 217.75,-83.51 210.67,-91.39 217.13,-94.09"/>
</a>
</g>
</g>
<!-- Node5 -->
<g id="Node000005" class="node">
<title>Node5</title>
<g id="a_Node000005"><a xlink:title=" ">
<polygon fill="#e0e0e0" stroke="#999999" points="314.88,-82 261.38,-82 261.38,-62 314.88,-62 314.88,-82"/>
<text text-anchor="middle" x="288.12" y="-68.5" font-family="Helvetica,sans-Serif" font-size="10.00">numbers</text>
</a>
</g>
</g>
<!-- Node1&#45;&gt;Node5 -->
<g id="edge5_Node000001_Node000005" class="edge">
<title>Node1&#45;&gt;Node5</title>
<g id="a_edge5_Node000001_Node000005"><a xlink:title=" ">
<path fill="none" stroke="#63b8ff" d="M211.34,-123.62C225.63,-114.2 247.91,-99.52 264.79,-88.39"/>
<polygon fill="#63b8ff" stroke="#63b8ff" points="266.32,-91.57 272.74,-83.14 262.47,-85.72 266.32,-91.57"/>
</a>
</g>
</g>
<!-- Node2&#45;&gt;Node3 -->
<g id="edge2_Node000002_Node000003" class="edge">
<title>Node2&#45;&gt;Node3</title>
<g id="a_edge2_Node000002_Node000003"><a xlink:title=" ">
<path fill="none" stroke="#63b8ff" d="M85,-55.55C91.73,-47.48 100,-37.55 107.03,-29.12"/>
<polygon fill="#63b8ff" stroke="#63b8ff" points="109.6,-31.49 113.32,-21.57 104.23,-27.01 109.6,-31.49"/>
</a>
</g>
</g>
</g>
</svg>
