<?xml version="1.0" encoding="UTF-8" standalone="no"?>
<!DOCTYPE svg PUBLIC "-//W3C//DTD SVG 1.1//EN"
 "http://www.w3.org/Graphics/SVG/1.1/DTD/svg11.dtd">
<!-- Generated by graphviz version 12.2.1 (20241206.2353)
 -->
<!-- Title: src/audio/CalculateSoundOrigin.cpp Pages: 1 -->
<svg width="275pt" height="164pt"
 viewBox="0.00 0.00 275.00 164.00" xmlns="http://www.w3.org/2000/svg" xmlns:xlink="http://www.w3.org/1999/xlink">

<svg id="main" version="1.1" xmlns="http://www.w3.org/2000/svg" xmlns:xlink="http://www.w3.org/1999/xlink" xml:space="preserve">

<style type="text/css"><![CDATA[
.node, .edge {opacity: 0.7;}
.node.selected, .edge.selected {opacity: 1;}
.edge:hover path { stroke: red; }
.edge:hover polygon { stroke: red; fill: red; }
]]></style>
<script type="application/ecmascript" xlink:href="svg.min.js"/>
<svg id="graph" class="graph">
<g id="graph0" class="graph" transform="scale(1 1) rotate(0) translate(4 160)">
<title>src/audio/CalculateSoundOrigin.cpp</title>
<!-- Node1 -->
<g id="Node000001" class="node">
<title>Node1</title>
<g id="a_Node000001"><a xlink:title=" ">
<polygon fill="#999999" stroke="#666666" points="238.12,-156 110.38,-156 110.38,-124 238.12,-124 238.12,-156"/>
<text text-anchor="start" x="118.38" y="-142.5" font-family="Helvetica,sans-Serif" font-size="10.00">src/audio/CalculateSound</text>
<text text-anchor="middle" x="174.25" y="-130.5" font-family="Helvetica,sans-Serif" font-size="10.00">Origin.cpp</text>
</a>
</g>
</g>
<!-- Node2 -->
<g id="Node000002" class="node">
<title>Node2</title>
<g id="a_Node000002"><a xlink:href="CalculateSoundOrigin_8hpp.html" target="_top" xlink:title=" ">
<polygon fill="white" stroke="#666666" points="134.5,-88 0,-88 0,-56 134.5,-56 134.5,-88"/>
<text text-anchor="start" x="8" y="-74.5" font-family="Helvetica,sans-Serif" font-size="10.00">EyeAICore/audio/Calculate</text>
<text text-anchor="middle" x="67.25" y="-62.5" font-family="Helvetica,sans-Serif" font-size="10.00">SoundOrigin.hpp</text>
</a>
</g>
</g>
<!-- Node1&#45;&gt;Node2 -->
<g id="edge1_Node000001_Node000002" class="edge">
<title>Node1&#45;&gt;Node2</title>
<g id="a_edge1_Node000001_Node000002"><a xlink:title=" ">
<path fill="none" stroke="#63b8ff" d="M149.16,-123.53C135.08,-114.84 117.29,-103.86 101.89,-94.37"/>
<polygon fill="#63b8ff" stroke="#63b8ff" points="103.82,-91.44 93.47,-89.17 100.14,-97.4 103.82,-91.44"/>
</a>
</g>
</g>
<!-- Node4 -->
<g id="Node000004" class="node">
<title>Node4</title>
<g id="a_Node000004"><a xlink:title=" ">
<polygon fill="#e0e0e0" stroke="#999999" points="195.75,-82 152.75,-82 152.75,-62 195.75,-62 195.75,-82"/>
<text text-anchor="middle" x="174.25" y="-68.5" font-family="Helvetica,sans-Serif" font-size="10.00">cmath</text>
</a>
</g>
</g>
<!-- Node1&#45;&gt;Node4 -->
<g id="edge3_Node000001_Node000004" class="edge">
<title>Node1&#45;&gt;Node4</title>
<g id="a_edge3_Node000001_Node000004"><a xlink:title=" ">
<path fill="none" stroke="#63b8ff" d="M174.25,-123.69C174.25,-114.8 174.25,-103.46 174.25,-93.77"/>
<polygon fill="#63b8ff" stroke="#63b8ff" points="177.75,-93.83 174.25,-83.83 170.75,-93.83 177.75,-93.83"/>
</a>
</g>
</g>
<!-- Node5 -->
<g id="Node000005" class="node">
<title>Node5</title>
<g id="a_Node000005"><a xlink:title=" ">
<polygon fill="#e0e0e0" stroke="#999999" points="267,-82 213.5,-82 213.5,-62 267,-62 267,-82"/>
<text text-anchor="middle" x="240.25" y="-68.5" font-family="Helvetica,sans-Serif" font-size="10.00">iostream</text>
</a>
</g>
</g>
<!-- Node1&#45;&gt;Node5 -->
<g id="edge4_Node000001_Node000005" class="edge">
<title>Node1&#45;&gt;Node5</title>
<g id="a_edge4_Node000001_Node000005"><a xlink:title=" ">
<path fill="none" stroke="#63b8ff" d="M189.56,-123.69C199.55,-113.7 212.62,-100.63 222.99,-90.26"/>
<polygon fill="#63b8ff" stroke="#63b8ff" points="225.27,-92.93 229.86,-83.39 220.32,-87.98 225.27,-92.93"/>
</a>
</g>
</g>
<!-- Node3 -->
<g id="Node000003" class="node">
<title>Node3</title>
<g id="a_Node000003"><a xlink:title=" ">
<polygon fill="#e0e0e0" stroke="#999999" points="86.12,-20 48.38,-20 48.38,0 86.12,0 86.12,-20"/>
<text text-anchor="middle" x="67.25" y="-6.5" font-family="Helvetica,sans-Serif" font-size="10.00">array</text>
</a>
</g>
</g>
<!-- Node2&#45;&gt;Node3 -->
<g id="edge2_Node000002_Node000003" class="edge">
<title>Node2&#45;&gt;Node3</title>
<g id="a_edge2_Node000002_Node000003"><a xlink:title=" ">
<path fill="none" stroke="#63b8ff" d="M67.25,-55.55C67.25,-48.34 67.25,-39.66 67.25,-31.88"/>
<polygon fill="#63b8ff" stroke="#63b8ff" points="70.75,-31.92 67.25,-21.92 63.75,-31.92 70.75,-31.92"/>
</a>
</g>
</g>
</g>
</svg>
</svg>

<style type='text/css'>
<![CDATA[
[data-mouse-over-selected='false'] { opacity: 0.7; }
[data-mouse-over-selected='true']  { opacity: 1.0; }
]]>
</style>
<script type="application/ecmascript"><![CDATA[
document.addEventListener('DOMContentLoaded', (event) => {
  highlightEdges();
  highlightAdjacentNodes();
});
]]></script>
</svg>
