<?xml version="1.0" encoding="UTF-8" standalone="no"?>
<!DOCTYPE svg PUBLIC "-//W3C//DTD SVG 1.1//EN"
 "http://www.w3.org/Graphics/SVG/1.1/DTD/svg11.dtd">
<!-- Generated by graphviz version 12.2.1 (20241206.2353)
 -->
<!-- Title: src/audio/CalculateSoundOrigin.cpp Pages: 1 -->
<svg width="466pt" height="168pt"
 viewBox="0.00 0.00 465.88 167.75" xmlns="http://www.w3.org/2000/svg" xmlns:xlink="http://www.w3.org/1999/xlink">

<svg id="main" version="1.1" xmlns="http://www.w3.org/2000/svg" xmlns:xlink="http://www.w3.org/1999/xlink" xml:space="preserve">

<style type="text/css"><![CDATA[
.node, .edge {opacity: 0.7;}
.node.selected, .edge.selected {opacity: 1;}
.edge:hover path { stroke: red; }
.edge:hover polygon { stroke: red; fill: red; }
]]></style>
<script type="application/ecmascript" xlink:href="svg.min.js"/>
<svg id="graph" class="graph">
<g id="graph0" class="graph" transform="scale(1 1) rotate(0) translate(4 163.75)">
<title>src/audio/CalculateSoundOrigin.cpp</title>
<!-- Node1 -->
<g id="Node000001" class="node">
<title>Node1</title>
<g id="a_Node000001"><a xlink:title=" ">
<polygon fill="#999999" stroke="#666666" points="315,-159.75 176,-159.75 176,-126.25 315,-126.25 315,-159.75"/>
<text text-anchor="start" x="184" y="-146.25" font-family="Helvetica,sans-Serif" font-size="10.00">src/audio/CalculateSound</text>
<text text-anchor="middle" x="245.5" y="-133.5" font-family="Helvetica,sans-Serif" font-size="10.00">Origin.cpp</text>
</a>
</g>
</g>
<!-- Node2 -->
<g id="Node000002" class="node">
<title>Node2</title>
<g id="a_Node000002"><a xlink:href="CalculateSoundOrigin_8hpp.html" target="_top" xlink:title=" ">
<polygon fill="white" stroke="#666666" points="145,-90.25 0,-90.25 0,-56.75 145,-56.75 145,-90.25"/>
<text text-anchor="start" x="8" y="-76.75" font-family="Helvetica,sans-Serif" font-size="10.00">EyeAICore/audio/Calculate</text>
<text text-anchor="middle" x="72.5" y="-64" font-family="Helvetica,sans-Serif" font-size="10.00">SoundOrigin.hpp</text>
</a>
</g>
</g>
<!-- Node1&#45;&gt;Node2 -->
<g id="edge1_Node000001_Node000002" class="edge">
<title>Node1&#45;&gt;Node2</title>
<g id="a_edge1_Node000001_Node000002"><a xlink:title=" ">
<path fill="none" stroke="#63b8ff" d="M204.06,-125.83C180.18,-116.52 149.95,-104.72 124.49,-94.78"/>
<polygon fill="#63b8ff" stroke="#63b8ff" points="125.9,-91.58 115.31,-91.2 123.35,-98.1 125.9,-91.58"/>
</a>
</g>
</g>
<!-- Node4 -->
<g id="Node000004" class="node">
<title>Node4</title>
<g id="a_Node000004"><a xlink:title=" ">
<polygon fill="#e0e0e0" stroke="#999999" points="209.88,-83.88 163.12,-83.88 163.12,-63.12 209.88,-63.12 209.88,-83.88"/>
<text text-anchor="middle" x="186.5" y="-70.38" font-family="Helvetica,sans-Serif" font-size="10.00">cmath</text>
</a>
</g>
</g>
<!-- Node1&#45;&gt;Node4 -->
<g id="edge3_Node000001_Node000004" class="edge">
<title>Node1&#45;&gt;Node4</title>
<g id="a_edge3_Node000001_Node000004"><a xlink:title=" ">
<path fill="none" stroke="#63b8ff" d="M231.52,-126C222.86,-116.09 211.7,-103.33 202.66,-92.99"/>
<polygon fill="#63b8ff" stroke="#63b8ff" points="205.3,-90.69 196.08,-85.46 200.03,-95.29 205.3,-90.69"/>
</a>
</g>
</g>
<!-- Node5 -->
<g id="Node000005" class="node">
<title>Node5</title>
<g id="a_Node000005"><a xlink:href="Profiling_8hpp.html" target="_top" xlink:title=" ">
<polygon fill="white" stroke="#666666" points="381.5,-83.88 227.5,-83.88 227.5,-63.12 381.5,-63.12 381.5,-83.88"/>
<text text-anchor="middle" x="304.5" y="-70.38" font-family="Helvetica,sans-Serif" font-size="10.00">EyeAICore/utils/Profiling.hpp</text>
</a>
</g>
</g>
<!-- Node1&#45;&gt;Node5 -->
<g id="edge4_Node000001_Node000005" class="edge">
<title>Node1&#45;&gt;Node5</title>
<g id="a_edge4_Node000001_Node000005"><a xlink:title=" ">
<path fill="none" stroke="#63b8ff" d="M259.48,-126C268.14,-116.09 279.3,-103.33 288.34,-92.99"/>
<polygon fill="#63b8ff" stroke="#63b8ff" points="290.97,-95.29 294.92,-85.46 285.7,-90.69 290.97,-95.29"/>
</a>
</g>
</g>
<!-- Node9 -->
<g id="Node000009" class="node">
<title>Node9</title>
<g id="a_Node000009"><a xlink:title=" ">
<polygon fill="#e0e0e0" stroke="#999999" points="457.88,-83.88 399.12,-83.88 399.12,-63.12 457.88,-63.12 457.88,-83.88"/>
<text text-anchor="middle" x="428.5" y="-70.38" font-family="Helvetica,sans-Serif" font-size="10.00">numbers</text>
</a>
</g>
</g>
<!-- Node1&#45;&gt;Node9 -->
<g id="edge8_Node000001_Node000009" class="edge">
<title>Node1&#45;&gt;Node9</title>
<g id="a_edge8_Node000001_Node000009"><a xlink:title=" ">
<path fill="none" stroke="#63b8ff" d="M292.74,-125.81C321.19,-115.9 358.08,-102.75 390.5,-90.25 391.85,-89.73 393.22,-89.19 394.61,-88.65"/>
<polygon fill="#63b8ff" stroke="#63b8ff" points="395.9,-91.9 403.86,-84.91 393.28,-85.41 395.9,-91.9"/>
</a>
</g>
</g>
<!-- Node3 -->
<g id="Node000003" class="node">
<title>Node3</title>
<g id="a_Node000003"><a xlink:title=" ">
<polygon fill="#e0e0e0" stroke="#999999" points="93.25,-20.75 51.75,-20.75 51.75,0 93.25,0 93.25,-20.75"/>
<text text-anchor="middle" x="72.5" y="-7.25" font-family="Helvetica,sans-Serif" font-size="10.00">array</text>
</a>
</g>
</g>
<!-- Node2&#45;&gt;Node3 -->
<g id="edge2_Node000002_Node000003" class="edge">
<title>Node2&#45;&gt;Node3</title>
<g id="a_edge2_Node000002_Node000003"><a xlink:title=" ">
<path fill="none" stroke="#63b8ff" d="M72.5,-56.44C72.5,-49.1 72.5,-40.32 72.5,-32.46"/>
<polygon fill="#63b8ff" stroke="#63b8ff" points="76,-32.73 72.5,-22.73 69,-32.73 76,-32.73"/>
</a>
</g>
</g>
<!-- Node6 -->
<g id="Node000006" class="node">
<title>Node6</title>
<g id="a_Node000006"><a xlink:title=" ">
<polygon fill="#e0e0e0" stroke="#999999" points="233,-20.75 184,-20.75 184,0 233,0 233,-20.75"/>
<text text-anchor="middle" x="208.5" y="-7.25" font-family="Helvetica,sans-Serif" font-size="10.00">chrono</text>
</a>
</g>
</g>
<!-- Node5&#45;&gt;Node6 -->
<g id="edge5_Node000005_Node000006" class="edge">
<title>Node5&#45;&gt;Node6</title>
<g id="a_edge5_Node000005_Node000006"><a xlink:title=" ">
<path fill="none" stroke="#63b8ff" d="M289.08,-62.68C274.1,-53.14 251.11,-38.51 233.52,-27.31"/>
<polygon fill="#63b8ff" stroke="#63b8ff" points="235.48,-24.4 225.16,-21.98 231.72,-30.31 235.48,-24.4"/>
</a>
</g>
</g>
<!-- Node7 -->
<g id="Node000007" class="node">
<title>Node7</title>
<g id="a_Node000007"><a xlink:title=" ">
<polygon fill="#e0e0e0" stroke="#999999" points="357.88,-20.75 251.12,-20.75 251.12,0 357.88,0 357.88,-20.75"/>
<text text-anchor="middle" x="304.5" y="-7.25" font-family="Helvetica,sans-Serif" font-size="10.00">concurrentqueue.h</text>
</a>
</g>
</g>
<!-- Node5&#45;&gt;Node7 -->
<g id="edge6_Node000005_Node000007" class="edge">
<title>Node5&#45;&gt;Node7</title>
<g id="a_edge6_Node000005_Node000007"><a xlink:title=" ">
<path fill="none" stroke="#63b8ff" d="M304.5,-62.68C304.5,-54.52 304.5,-42.63 304.5,-32.35"/>
<polygon fill="#63b8ff" stroke="#63b8ff" points="308,-32.48 304.5,-22.48 301,-32.48 308,-32.48"/>
</a>
</g>
</g>
<!-- Node8 -->
<g id="Node000008" class="node">
<title>Node8</title>
<g id="a_Node000008"><a xlink:title=" ">
<polygon fill="#e0e0e0" stroke="#999999" points="448.62,-20.75 376.38,-20.75 376.38,0 448.62,0 448.62,-20.75"/>
<text text-anchor="middle" x="412.5" y="-7.25" font-family="Helvetica,sans-Serif" font-size="10.00">string_view</text>
</a>
</g>
</g>
<!-- Node5&#45;&gt;Node8 -->
<g id="edge7_Node000005_Node000008" class="edge">
<title>Node5&#45;&gt;Node8</title>
<g id="a_edge7_Node000005_Node000008"><a xlink:title=" ">
<path fill="none" stroke="#63b8ff" d="M321.85,-62.68C338.94,-53.01 365.28,-38.1 385.18,-26.84"/>
<polygon fill="#63b8ff" stroke="#63b8ff" points="386.89,-29.89 393.87,-21.92 383.45,-23.8 386.89,-29.89"/>
</a>
</g>
</g>
</g>
</svg>
</svg>

<style type='text/css'>
<![CDATA[
[data-mouse-over-selected='false'] { opacity: 0.7; }
[data-mouse-over-selected='true']  { opacity: 1.0; }
]]>
</style>
<script type="application/ecmascript"><![CDATA[
document.addEventListener('DOMContentLoaded', (event) => {
  highlightEdges();
  highlightAdjacentNodes();
});
]]></script>
</svg>
