<?xml version="1.0" encoding="UTF-8" standalone="no"?>
<!DOCTYPE svg PUBLIC "-//W3C//DTD SVG 1.1//EN"
 "http://www.w3.org/Graphics/SVG/1.1/DTD/svg11.dtd">
<!-- Generated by graphviz version 2.43.0 (0)
 -->
<!-- Title: RelativeDepthPostOperator Pages: 1 -->
<svg width="489pt" height="50pt"
 viewBox="0.00 0.00 489.00 50.00" xmlns="http://www.w3.org/2000/svg" xmlns:xlink="http://www.w3.org/1999/xlink">
<g id="graph0" class="graph" transform="scale(1 1) rotate(0) translate(4 46)">
<title>RelativeDepthPostOperator</title>
<!-- Node1 -->
<g id="node1" class="node">
<title>Node1</title>
<g id="a_node1"><a xlink:title="rescales values from [min, max] to [0, 1]">
<polygon fill="#bfbfbf" stroke="black" points="331,-11.5 331,-30.5 481,-30.5 481,-11.5 331,-11.5"/>
<text text-anchor="middle" x="406" y="-18.5" font-family="Helvetica,sans-Serif" font-size="10.00">RelativeDepthPostOperator</text>
</a>
</g>
</g>
<!-- Node2 -->
<g id="node2" class="node">
<title>Node2</title>
<g id="a_node2"><a xlink:href="classOperator.html" target="_top" xlink:title=" ">
<polygon fill="none" stroke="black" points="119,-0.5 119,-41.5 295,-41.5 295,-0.5 119,-0.5"/>
<text text-anchor="start" x="127" y="-29.5" font-family="Helvetica,sans-Serif" font-size="10.00">Operator&lt; FloatTensorFormat</text>
<text text-anchor="start" x="127" y="-18.5" font-family="Helvetica,sans-Serif" font-size="10.00">::RawRelativeDepth, FloatTensor</text>
<text text-anchor="middle" x="207" y="-7.5" font-family="Helvetica,sans-Serif" font-size="10.00">Format::RelativeDepth &gt;</text>
</a>
</g>
</g>
<!-- Node2&#45;&gt;Node1 -->
<g id="edge1" class="edge">
<title>Node2&#45;&gt;Node1</title>
<path fill="none" stroke="midnightblue" d="M305.29,-21C313.85,-21 322.41,-21 330.74,-21"/>
<polygon fill="midnightblue" stroke="midnightblue" points="305.27,-17.5 295.27,-21 305.27,-24.5 305.27,-17.5"/>
</g>
<!-- Node3 -->
<g id="node3" class="node">
<title>Node3</title>
<g id="a_node3"><a xlink:href="classOperatorBase.html" target="_top" xlink:title=" ">
<polygon fill="none" stroke="black" points="0,-11.5 0,-30.5 83,-30.5 83,-11.5 0,-11.5"/>
<text text-anchor="middle" x="41.5" y="-18.5" font-family="Helvetica,sans-Serif" font-size="10.00">OperatorBase</text>
</a>
</g>
</g>
<!-- Node3&#45;&gt;Node2 -->
<g id="edge2" class="edge">
<title>Node3&#45;&gt;Node2</title>
<path fill="none" stroke="midnightblue" d="M93.34,-21C101.46,-21 110.06,-21 118.74,-21"/>
<polygon fill="midnightblue" stroke="midnightblue" points="93.34,-17.5 83.34,-21 93.34,-24.5 93.34,-17.5"/>
</g>
</g>
</svg>
