<?xml version="1.0" encoding="UTF-8" standalone="no"?>
<!DOCTYPE svg PUBLIC "-//W3C//DTD SVG 1.1//EN"
 "http://www.w3.org/Graphics/SVG/1.1/DTD/svg11.dtd">
<!-- Generated by graphviz version 12.2.1 (20241206.2353)
 -->
<!-- Title: SpatialAudioSettings Pages: 1 -->
<svg width="240pt" height="177pt"
 viewBox="0.00 0.00 239.73 177.00" xmlns="http://www.w3.org/2000/svg" xmlns:xlink="http://www.w3.org/1999/xlink">

<svg id="main" version="1.1" xmlns="http://www.w3.org/2000/svg" xmlns:xlink="http://www.w3.org/1999/xlink" xml:space="preserve">

<style type="text/css"><![CDATA[
.node, .edge {opacity: 0.7;}
.node.selected, .edge.selected {opacity: 1;}
.edge:hover path { stroke: red; }
.edge:hover polygon { stroke: red; fill: red; }
]]></style>
<script type="application/ecmascript" xlink:href="svg.min.js"/>
<svg id="graph" class="graph">
<g id="graph0" class="graph" transform="scale(1 1) rotate(0) translate(4 173)">
<title>SpatialAudioSettings</title>
<!-- Node1 -->
<g id="Node000001" class="node">
<title>Node1</title>
<g id="a_Node000001"><a xlink:title=" ">
<polygon fill="#999999" stroke="#666666" points="165.75,-20 59,-20 59,0 165.75,0 165.75,-20"/>
<text text-anchor="middle" x="112.38" y="-6.5" font-family="Helvetica,sans-Serif" font-size="10.00">SpatialAudioSettings</text>
</a>
</g>
</g>
<!-- Node2 -->
<g id="Node000002" class="node">
<title>Node2</title>
<g id="a_Node000002"><a xlink:title=" ">
<polygon fill="white" stroke="#666666" points="118.75,-100 0,-100 0,-80 118.75,-80 118.75,-100"/>
<text text-anchor="middle" x="59.38" y="-86.5" font-family="Helvetica,sans-Serif" font-size="10.00">std::vector&lt; std::byte &gt;</text>
</a>
</g>
</g>
<!-- Node2&#45;&gt;Node1 -->
<g id="edge1_Node000001_Node000002" class="edge">
<title>Node2&#45;&gt;Node1</title>
<g id="a_edge1_Node000001_Node000002"><a xlink:title=" ">
<path fill="none" stroke="#9a32cd" stroke-dasharray="5,2" d="M55,-68.29C54.04,-58.44 54.62,-46.89 60.12,-38 64.96,-30.19 72.86,-24.53 81.06,-20.48"/>
<polygon fill="#9a32cd" stroke="#9a32cd" points="51.53,-68.73 56.57,-78.05 58.44,-67.63 51.53,-68.73"/>
</a>
</g>
<text text-anchor="middle" x="101.75" y="-52.5" font-family="Helvetica,sans-Serif" font-size="10.00" fill="grey"> coco_labels_audio</text>
<text text-anchor="middle" x="101.75" y="-40.5" font-family="Helvetica,sans-Serif" font-size="10.00" fill="grey">coco_labels_data</text>
</g>
<!-- Node3 -->
<g id="Node000003" class="node">
<title>Node3</title>
<g id="a_Node000003"><a xlink:title=" ">
<polygon fill="white" stroke="#666666" points="196.12,-100 136.62,-100 136.62,-80 196.12,-80 196.12,-100"/>
<text text-anchor="middle" x="166.38" y="-86.5" font-family="Helvetica,sans-Serif" font-size="10.00">std::string</text>
</a>
</g>
</g>
<!-- Node3&#45;&gt;Node1 -->
<g id="edge2_Node000001_Node000003" class="edge">
<title>Node3&#45;&gt;Node1</title>
<g id="a_edge2_Node000001_Node000003"><a xlink:title=" ">
<path fill="none" stroke="#9a32cd" stroke-dasharray="5,2" d="M159.63,-68.89C155.76,-59.04 150.29,-47.31 143.38,-38 138.44,-31.35 131.61,-25.19 125.62,-20.43"/>
<polygon fill="#9a32cd" stroke="#9a32cd" points="156.33,-70.07 163.02,-78.28 162.91,-67.69 156.33,-70.07"/>
</a>
</g>
<text text-anchor="middle" x="194.23" y="-52.5" font-family="Helvetica,sans-Serif" font-size="10.00" fill="grey"> logErrorCallback</text>
<text text-anchor="middle" x="194.23" y="-40.5" font-family="Helvetica,sans-Serif" font-size="10.00" fill="grey">logInfoCallback</text>
</g>
<!-- Node4 -->
<g id="Node000004" class="node">
<title>Node4</title>
<g id="a_Node000004"><a xlink:title=" ">
<polygon fill="white" stroke="#666666" points="213.38,-169 119.38,-169 119.38,-137 213.38,-137 213.38,-169"/>
<text text-anchor="start" x="127.38" y="-155.5" font-family="Helvetica,sans-Serif" font-size="10.00">std::basic_string&lt;</text>
<text text-anchor="middle" x="166.38" y="-143.5" font-family="Helvetica,sans-Serif" font-size="10.00"> Char &gt;</text>
</a>
</g>
</g>
<!-- Node4&#45;&gt;Node3 -->
<g id="edge3_Node000003_Node000004" class="edge">
<title>Node4&#45;&gt;Node3</title>
<g id="a_edge3_Node000003_Node000004"><a xlink:title=" ">
<path fill="none" stroke="#63b8ff" d="M166.38,-125.36C166.38,-116.41 166.38,-107.01 166.38,-100.31"/>
<polygon fill="#63b8ff" stroke="#63b8ff" points="162.88,-125.09 166.38,-135.09 169.88,-125.09 162.88,-125.09"/>
</a>
</g>
</g>
</g>
</svg>
</svg>

<style type='text/css'>
<![CDATA[
[data-mouse-over-selected='false'] { opacity: 0.7; }
[data-mouse-over-selected='true']  { opacity: 1.0; }
]]>
</style>
<script type="application/ecmascript"><![CDATA[
document.addEventListener('DOMContentLoaded', (event) => {
  highlightEdges();
  highlightAdjacentNodes();
});
]]></script>
</svg>
