<?xml version="1.0" encoding="UTF-8" standalone="no"?>
<!DOCTYPE svg PUBLIC "-//W3C//DTD SVG 1.1//EN"
 "http://www.w3.org/Graphics/SVG/1.1/DTD/svg11.dtd">
<!-- Generated by graphviz version 12.2.1 (20241206.2353)
 -->
<!-- Title: SpatialAudioSettings Pages: 1 -->
<svg width="266pt" height="182pt"
 viewBox="0.00 0.00 265.60 181.50" xmlns="http://www.w3.org/2000/svg" xmlns:xlink="http://www.w3.org/1999/xlink">
<g id="graph0" class="graph" transform="scale(1 1) rotate(0) translate(4 177.5)">
<title>SpatialAudioSettings</title>
<!-- Node1 -->
<g id="Node000001" class="node">
<title>Node1</title>
<g id="a_Node000001"><a xlink:title=" ">
<polygon fill="#999999" stroke="#666666" points="182.12,-20.75 64.88,-20.75 64.88,0 182.12,0 182.12,-20.75"/>
<text text-anchor="middle" x="123.5" y="-7.25" font-family="Helvetica,sans-Serif" font-size="10.00">SpatialAudioSettings</text>
</a>
</g>
</g>
<!-- Node2 -->
<g id="Node000002" class="node">
<title>Node2</title>
<g id="a_Node000002"><a xlink:title=" ">
<polygon fill="white" stroke="#666666" points="133,-103 0,-103 0,-82.25 133,-82.25 133,-103"/>
<text text-anchor="middle" x="66.5" y="-89.5" font-family="Helvetica,sans-Serif" font-size="10.00">std::vector&lt; std::byte &gt;</text>
</a>
</g>
</g>
<!-- Node2&#45;&gt;Node1 -->
<g id="edge1_Node000001_Node000002" class="edge">
<title>Node2&#45;&gt;Node1</title>
<g id="a_edge1_Node000001_Node000002"><a xlink:title=" ">
<path fill="none" stroke="#9a32cd" stroke-dasharray="5,2" d="M62.39,-70.41C61.53,-60.1 62.31,-47.97 68.25,-38.75 73.29,-30.92 81.29,-25.25 89.65,-21.18"/>
<polygon fill="#9a32cd" stroke="#9a32cd" points="58.92,-70.87 63.8,-80.28 65.85,-69.88 58.92,-70.87"/>
</a>
</g>
<text text-anchor="middle" x="114.38" y="-54.75" font-family="Helvetica,sans-Serif" font-size="10.00" fill="grey"> coco_labels_audio</text>
<text text-anchor="middle" x="114.38" y="-42" font-family="Helvetica,sans-Serif" font-size="10.00" fill="grey">coco_labels_data</text>
</g>
<!-- Node3 -->
<g id="Node000003" class="node">
<title>Node3</title>
<g id="a_Node000003"><a xlink:title=" ">
<polygon fill="white" stroke="#666666" points="215.88,-103 151.12,-103 151.12,-82.25 215.88,-82.25 215.88,-103"/>
<text text-anchor="middle" x="183.5" y="-89.5" font-family="Helvetica,sans-Serif" font-size="10.00">std::string</text>
</a>
</g>
</g>
<!-- Node3&#45;&gt;Node1 -->
<g id="edge2_Node000001_Node000003" class="edge">
<title>Node3&#45;&gt;Node1</title>
<g id="a_edge2_Node000001_Node000003"><a xlink:title=" ">
<path fill="none" stroke="#9a32cd" stroke-dasharray="5,2" d="M177.45,-71.2C173.69,-60.78 168.11,-48.31 160.5,-38.75 155.03,-31.87 147.43,-25.85 140.54,-21.22"/>
<polygon fill="#9a32cd" stroke="#9a32cd" points="174.02,-71.99 180.46,-80.4 180.68,-69.81 174.02,-71.99"/>
</a>
</g>
<text text-anchor="middle" x="215.98" y="-54.75" font-family="Helvetica,sans-Serif" font-size="10.00" fill="grey"> logErrorCallback</text>
<text text-anchor="middle" x="215.98" y="-42" font-family="Helvetica,sans-Serif" font-size="10.00" fill="grey">logInfoCallback</text>
</g>
<!-- Node4 -->
<g id="Node000004" class="node">
<title>Node4</title>
<g id="a_Node000004"><a xlink:title=" ">
<polygon fill="white" stroke="#666666" points="235.38,-173.5 131.62,-173.5 131.62,-140 235.38,-140 235.38,-173.5"/>
<text text-anchor="start" x="139.62" y="-160" font-family="Helvetica,sans-Serif" font-size="10.00">std::basic_string&lt;</text>
<text text-anchor="middle" x="183.5" y="-147.25" font-family="Helvetica,sans-Serif" font-size="10.00"> Char &gt;</text>
</a>
</g>
</g>
<!-- Node4&#45;&gt;Node3 -->
<g id="edge3_Node000003_Node000004" class="edge">
<title>Node4&#45;&gt;Node3</title>
<g id="a_edge3_Node000003_Node000004"><a xlink:title=" ">
<path fill="none" stroke="#63b8ff" d="M183.5,-128.48C183.5,-119.52 183.5,-110.14 183.5,-103.37"/>
<polygon fill="#63b8ff" stroke="#63b8ff" points="180,-128.24 183.5,-138.24 187,-128.24 180,-128.24"/>
</a>
</g>
</g>
</g>
</svg>
