<?xml version="1.0" encoding="UTF-8" standalone="no"?>
<!DOCTYPE svg PUBLIC "-//W3C//DTD SVG 1.1//EN"
 "http://www.w3.org/Graphics/SVG/1.1/DTD/svg11.dtd">
<!-- Generated by graphviz version 2.43.0 (0)
 -->
<!-- Title: YoloImageOperator Pages: 1 -->
<svg width="452pt" height="50pt"
 viewBox="0.00 0.00 452.00 50.00" xmlns="http://www.w3.org/2000/svg" xmlns:xlink="http://www.w3.org/1999/xlink">
<g id="graph0" class="graph" transform="scale(1 1) rotate(0) translate(4 46)">
<title>YoloImageOperator</title>
<!-- Node1 -->
<g id="node1" class="node">
<title>Node1</title>
<g id="a_node1"><a xlink:title=" ">
<polygon fill="#bfbfbf" stroke="black" points="334,-11.5 334,-30.5 444,-30.5 444,-11.5 334,-11.5"/>
<text text-anchor="middle" x="389" y="-18.5" font-family="Helvetica,sans-Serif" font-size="10.00">YoloImageOperator</text>
</a>
</g>
</g>
<!-- Node2 -->
<g id="node2" class="node">
<title>Node2</title>
<g id="a_node2"><a xlink:href="classOperator.html" target="_top" xlink:title=" ">
<polygon fill="none" stroke="black" points="119,-0.5 119,-41.5 298,-41.5 298,-0.5 119,-0.5"/>
<text text-anchor="start" x="127" y="-29.5" font-family="Helvetica,sans-Serif" font-size="10.00">Operator&lt; FloatTensorFormat</text>
<text text-anchor="start" x="127" y="-18.5" font-family="Helvetica,sans-Serif" font-size="10.00">::ImageRGB255Float, FloatTensor</text>
<text text-anchor="middle" x="208.5" y="-7.5" font-family="Helvetica,sans-Serif" font-size="10.00">Format::YoloImageRGBFloat &gt;</text>
</a>
</g>
</g>
<!-- Node2&#45;&gt;Node1 -->
<g id="edge1" class="edge">
<title>Node2&#45;&gt;Node1</title>
<path fill="none" stroke="midnightblue" d="M308.4,-21C317.03,-21 325.54,-21 333.61,-21"/>
<polygon fill="midnightblue" stroke="midnightblue" points="308.23,-17.5 298.23,-21 308.23,-24.5 308.23,-17.5"/>
</g>
<!-- Node3 -->
<g id="node3" class="node">
<title>Node3</title>
<g id="a_node3"><a xlink:href="classOperatorBase.html" target="_top" xlink:title=" ">
<polygon fill="none" stroke="black" points="0,-11.5 0,-30.5 83,-30.5 83,-11.5 0,-11.5"/>
<text text-anchor="middle" x="41.5" y="-18.5" font-family="Helvetica,sans-Serif" font-size="10.00">OperatorBase</text>
</a>
</g>
</g>
<!-- Node3&#45;&gt;Node2 -->
<g id="edge2" class="edge">
<title>Node3&#45;&gt;Node2</title>
<path fill="none" stroke="midnightblue" d="M93.29,-21C101.42,-21 110.03,-21 118.74,-21"/>
<polygon fill="midnightblue" stroke="midnightblue" points="93.29,-17.5 83.29,-21 93.29,-24.5 93.29,-17.5"/>
</g>
</g>
</svg>
