<?xml version="1.0" encoding="UTF-8" standalone="no"?>
<!DOCTYPE svg PUBLIC "-//W3C//DTD SVG 1.1//EN"
 "http://www.w3.org/Graphics/SVG/1.1/DTD/svg11.dtd">
<!-- Generated by graphviz version 12.2.1 (20241206.2353)
 -->
<!-- Title: RelativeDepthPostOperator Pages: 1 -->
<svg width="454pt" height="52pt"
 viewBox="0.00 0.00 453.50 52.00" xmlns="http://www.w3.org/2000/svg" xmlns:xlink="http://www.w3.org/1999/xlink">
<g id="graph0" class="graph" transform="scale(1 1) rotate(0) translate(4 48)">
<title>RelativeDepthPostOperator</title>
<!-- Node1 -->
<g id="Node000001" class="node">
<title>Node1</title>
<g id="a_Node000001"><a xlink:title="rescales values from [min, max] to [0, 1]">
<polygon fill="#999999" stroke="#666666" points="445.5,-32 309.5,-32 309.5,-12 445.5,-12 445.5,-32"/>
<text text-anchor="middle" x="377.5" y="-18.5" font-family="Helvetica,sans-Serif" font-size="10.00">RelativeDepthPostOperator</text>
</a>
</g>
</g>
<!-- Node2 -->
<g id="Node000002" class="node">
<title>Node2</title>
<g id="a_Node000002"><a xlink:href="classOperator.html" target="_top" xlink:title=" ">
<polygon fill="white" stroke="#666666" points="273.5,-44 112,-44 112,0 273.5,0 273.5,-44"/>
<text text-anchor="start" x="120" y="-30.5" font-family="Helvetica,sans-Serif" font-size="10.00">Operator&lt; FloatTensorFormat</text>
<text text-anchor="start" x="120" y="-18.5" font-family="Helvetica,sans-Serif" font-size="10.00">::RawRelativeDepth, FloatTensor</text>
<text text-anchor="middle" x="192.75" y="-6.5" font-family="Helvetica,sans-Serif" font-size="10.00">Format::RelativeDepth &gt;</text>
</a>
</g>
</g>
<!-- Node2&#45;&gt;Node1 -->
<g id="edge1_Node000001_Node000002" class="edge">
<title>Node2&#45;&gt;Node1</title>
<g id="a_edge1_Node000001_Node000002"><a xlink:title=" ">
<path fill="none" stroke="#63b8ff" d="M285.29,-22C293.37,-22 301.44,-22 309.25,-22"/>
<polygon fill="#63b8ff" stroke="#63b8ff" points="285.42,-18.5 275.42,-22 285.42,-25.5 285.42,-18.5"/>
</a>
</g>
</g>
<!-- Node3 -->
<g id="Node000003" class="node">
<title>Node3</title>
<g id="a_Node000003"><a xlink:href="classOperatorBase.html" target="_top" xlink:title=" ">
<polygon fill="white" stroke="#666666" points="76,-32 0,-32 0,-12 76,-12 76,-32"/>
<text text-anchor="middle" x="38" y="-18.5" font-family="Helvetica,sans-Serif" font-size="10.00">OperatorBase</text>
</a>
</g>
</g>
<!-- Node3&#45;&gt;Node2 -->
<g id="edge2_Node000002_Node000003" class="edge">
<title>Node3&#45;&gt;Node2</title>
<g id="a_edge2_Node000002_Node000003"><a xlink:title=" ">
<path fill="none" stroke="#63b8ff" d="M87.66,-22C95.35,-22 103.47,-22 111.65,-22"/>
<polygon fill="#63b8ff" stroke="#63b8ff" points="87.88,-18.5 77.88,-22 87.88,-25.5 87.88,-18.5"/>
</a>
</g>
</g>
</g>
</svg>
