<?xml version="1.0" encoding="UTF-8" standalone="no"?>
<!DOCTYPE svg PUBLIC "-//W3C//DTD SVG 1.1//EN"
 "http://www.w3.org/Graphics/SVG/1.1/DTD/svg11.dtd">
<!-- Generated by graphviz version 2.43.0 (0)
 -->
<!-- Title: OperatorBase Pages: 1 -->
<svg width="492pt" height="208pt"
 viewBox="0.00 0.00 492.00 208.00" xmlns="http://www.w3.org/2000/svg" xmlns:xlink="http://www.w3.org/1999/xlink">
<g id="graph0" class="graph" transform="scale(1 1) rotate(0) translate(4 204)">
<title>OperatorBase</title>
<!-- Node1 -->
<g id="node1" class="node">
<title>Node1</title>
<g id="a_node1"><a xlink:title=" ">
<polygon fill="#bfbfbf" stroke="black" points="0,-79.5 0,-98.5 83,-98.5 83,-79.5 0,-79.5"/>
<text text-anchor="middle" x="41.5" y="-86.5" font-family="Helvetica,sans-Serif" font-size="10.00">OperatorBase</text>
</a>
</g>
</g>
<!-- Node2 -->
<g id="node2" class="node">
<title>Node2</title>
<g id="a_node2"><a xlink:href="classOperator.html" target="_top" xlink:title=" ">
<polygon fill="none" stroke="black" points="120.5,-158.5 120.5,-199.5 296.5,-199.5 296.5,-158.5 120.5,-158.5"/>
<text text-anchor="start" x="128.5" y="-187.5" font-family="Helvetica,sans-Serif" font-size="10.00">Operator&lt; FloatTensorFormat</text>
<text text-anchor="start" x="128.5" y="-176.5" font-family="Helvetica,sans-Serif" font-size="10.00">::RawRelativeDepth, FloatTensor</text>
<text text-anchor="middle" x="208.5" y="-165.5" font-family="Helvetica,sans-Serif" font-size="10.00">Format::RelativeDepth &gt;</text>
</a>
</g>
</g>
<!-- Node1&#45;&gt;Node2 -->
<g id="edge1" class="edge">
<title>Node1&#45;&gt;Node2</title>
<path fill="none" stroke="midnightblue" d="M59.98,-105.54C74.74,-118.79 96.95,-137.07 119,-149 125.28,-152.4 132.01,-155.51 138.86,-158.34"/>
<polygon fill="midnightblue" stroke="midnightblue" points="62.33,-102.95 52.59,-98.77 57.6,-108.11 62.33,-102.95"/>
</g>
<!-- Node4 -->
<g id="node4" class="node">
<title>Node4</title>
<g id="a_node4"><a xlink:href="classOperator.html" target="_top" xlink:title=" ">
<polygon fill="none" stroke="black" points="119,-98.5 119,-139.5 298,-139.5 298,-98.5 119,-98.5"/>
<text text-anchor="start" x="127" y="-127.5" font-family="Helvetica,sans-Serif" font-size="10.00">Operator&lt; FloatTensorFormat</text>
<text text-anchor="start" x="127" y="-116.5" font-family="Helvetica,sans-Serif" font-size="10.00">::ImageRGB255Float, FloatTensor</text>
<text text-anchor="middle" x="208.5" y="-105.5" font-family="Helvetica,sans-Serif" font-size="10.00">Format::YoloImageRGBFloat &gt;</text>
</a>
</g>
</g>
<!-- Node1&#45;&gt;Node4 -->
<g id="edge3" class="edge">
<title>Node1&#45;&gt;Node4</title>
<path fill="none" stroke="midnightblue" d="M93.29,-98.24C101.42,-99.71 110.03,-101.28 118.74,-102.86"/>
<polygon fill="midnightblue" stroke="midnightblue" points="93.75,-94.76 83.29,-96.42 92.5,-101.65 93.75,-94.76"/>
</g>
<!-- Node6 -->
<g id="node6" class="node">
<title>Node6</title>
<g id="a_node6"><a xlink:href="classOperator.html" target="_top" xlink:title=" ">
<polygon fill="none" stroke="black" points="119,-38.5 119,-79.5 298,-79.5 298,-38.5 119,-38.5"/>
<text text-anchor="start" x="127" y="-67.5" font-family="Helvetica,sans-Serif" font-size="10.00">Operator&lt; FloatTensorFormat</text>
<text text-anchor="start" x="127" y="-56.5" font-family="Helvetica,sans-Serif" font-size="10.00">::ImageRGB255Float, FloatTensor</text>
<text text-anchor="middle" x="208.5" y="-45.5" font-family="Helvetica,sans-Serif" font-size="10.00">Format::MiDaSImageRGBFloat &gt;</text>
</a>
</g>
</g>
<!-- Node1&#45;&gt;Node6 -->
<g id="edge5" class="edge">
<title>Node1&#45;&gt;Node6</title>
<path fill="none" stroke="midnightblue" d="M93.29,-79.76C101.42,-78.29 110.03,-76.72 118.74,-75.14"/>
<polygon fill="midnightblue" stroke="midnightblue" points="92.5,-76.35 83.29,-81.58 93.75,-83.24 92.5,-76.35"/>
</g>
<!-- Node8 -->
<g id="node8" class="node">
<title>Node8</title>
<g id="a_node8"><a xlink:href="classOperator.html" target="_top" xlink:title=" ">
<polygon fill="none" stroke="black" points="135.5,-0.5 135.5,-19.5 281.5,-19.5 281.5,-0.5 135.5,-0.5"/>
<text text-anchor="middle" x="208.5" y="-7.5" font-family="Helvetica,sans-Serif" font-size="10.00">Operator&lt; Input, Output &gt;</text>
</a>
</g>
</g>
<!-- Node1&#45;&gt;Node8 -->
<g id="edge7" class="edge">
<title>Node1&#45;&gt;Node8</title>
<path fill="none" stroke="midnightblue" d="M59.14,-72.24C73.7,-58.54 96.05,-39.76 119,-29 127.25,-25.13 136.31,-22.04 145.38,-19.57"/>
<polygon fill="midnightblue" stroke="midnightblue" points="56.66,-69.77 51.9,-79.24 61.52,-74.8 56.66,-69.77"/>
</g>
<!-- Node3 -->
<g id="node3" class="node">
<title>Node3</title>
<g id="a_node3"><a xlink:href="classRelativeDepthPostOperator.html" target="_top" xlink:title="rescales values from [min, max] to [0, 1]">
<polygon fill="none" stroke="black" points="334,-169.5 334,-188.5 484,-188.5 484,-169.5 334,-169.5"/>
<text text-anchor="middle" x="409" y="-176.5" font-family="Helvetica,sans-Serif" font-size="10.00">RelativeDepthPostOperator</text>
</a>
</g>
</g>
<!-- Node2&#45;&gt;Node3 -->
<g id="edge2" class="edge">
<title>Node2&#45;&gt;Node3</title>
<path fill="none" stroke="midnightblue" d="M306.78,-179C315.84,-179 324.93,-179 333.74,-179"/>
<polygon fill="midnightblue" stroke="midnightblue" points="306.57,-175.5 296.56,-179 306.56,-182.5 306.57,-175.5"/>
</g>
<!-- Node5 -->
<g id="node5" class="node">
<title>Node5</title>
<g id="a_node5"><a xlink:href="classYoloImageOperator.html" target="_top" xlink:title=" ">
<polygon fill="none" stroke="black" points="354,-109.5 354,-128.5 464,-128.5 464,-109.5 354,-109.5"/>
<text text-anchor="middle" x="409" y="-116.5" font-family="Helvetica,sans-Serif" font-size="10.00">YoloImageOperator</text>
</a>
</g>
</g>
<!-- Node4&#45;&gt;Node5 -->
<g id="edge4" class="edge">
<title>Node4&#45;&gt;Node5</title>
<path fill="none" stroke="midnightblue" d="M308.3,-119C323.99,-119 339.69,-119 353.84,-119"/>
<polygon fill="midnightblue" stroke="midnightblue" points="308.01,-115.5 298.01,-119 308.01,-122.5 308.01,-115.5"/>
</g>
<!-- Node7 -->
<g id="node7" class="node">
<title>Node7</title>
<g id="a_node7"><a xlink:href="classMiDaSImageOperator.html" target="_top" xlink:title=" ">
<polygon fill="none" stroke="black" points="348,-49.5 348,-68.5 470,-68.5 470,-49.5 348,-49.5"/>
<text text-anchor="middle" x="409" y="-56.5" font-family="Helvetica,sans-Serif" font-size="10.00">MiDaSImageOperator</text>
</a>
</g>
</g>
<!-- Node6&#45;&gt;Node7 -->
<g id="edge6" class="edge">
<title>Node6&#45;&gt;Node7</title>
<path fill="none" stroke="midnightblue" d="M308.31,-59C321.81,-59 335.32,-59 347.85,-59"/>
<polygon fill="midnightblue" stroke="midnightblue" points="308.01,-55.5 298.01,-59 308.01,-62.5 308.01,-55.5"/>
</g>
</g>
</svg>
