<?xml version="1.0" encoding="UTF-8" standalone="no"?>
<!DOCTYPE svg PUBLIC "-//W3C//DTD SVG 1.1//EN"
 "http://www.w3.org/Graphics/SVG/1.1/DTD/svg11.dtd">
<!-- Generated by graphviz version 12.2.1 (20241206.2353)
 -->
<!-- Title: OperatorBase Pages: 1 -->
<svg width="457pt" height="214pt"
 viewBox="0.00 0.00 457.25 214.00" xmlns="http://www.w3.org/2000/svg" xmlns:xlink="http://www.w3.org/1999/xlink">
<g id="graph0" class="graph" transform="scale(1 1) rotate(0) translate(4 210)">
<title>OperatorBase</title>
<!-- Node1 -->
<g id="Node000001" class="node">
<title>Node1</title>
<g id="a_Node000001"><a xlink:title=" ">
<polygon fill="#999999" stroke="#666666" points="76,-101 0,-101 0,-81 76,-81 76,-101"/>
<text text-anchor="middle" x="38" y="-87.5" font-family="Helvetica,sans-Serif" font-size="10.00">OperatorBase</text>
</a>
</g>
</g>
<!-- Node2 -->
<g id="Node000002" class="node">
<title>Node2</title>
<g id="a_Node000002"><a xlink:href="classOperator.html" target="_top" xlink:title=" ">
<polygon fill="white" stroke="#666666" points="277.25,-206 112,-206 112,-162 277.25,-162 277.25,-206"/>
<text text-anchor="start" x="120" y="-192.5" font-family="Helvetica,sans-Serif" font-size="10.00">Operator&lt; FloatTensorFormat</text>
<text text-anchor="start" x="120" y="-180.5" font-family="Helvetica,sans-Serif" font-size="10.00">::ImageRGB255Float, FloatTensor</text>
<text text-anchor="middle" x="194.62" y="-168.5" font-family="Helvetica,sans-Serif" font-size="10.00">Format::MiDaSImageRGBFloat &gt;</text>
</a>
</g>
</g>
<!-- Node1&#45;&gt;Node2 -->
<g id="edge1_Node000001_Node000002" class="edge">
<title>Node1&#45;&gt;Node2</title>
<g id="a_edge1_Node000001_Node000002"><a xlink:title=" ">
<path fill="none" stroke="#63b8ff" d="M56.83,-109.2C70.84,-122.7 91.37,-140.81 112,-153 117.22,-156.08 122.8,-158.96 128.51,-161.62"/>
<polygon fill="#63b8ff" stroke="#63b8ff" points="59.66,-107.08 50.08,-102.54 54.74,-112.06 59.66,-107.08"/>
</a>
</g>
</g>
<!-- Node4 -->
<g id="Node000004" class="node">
<title>Node4</title>
<g id="a_Node000004"><a xlink:href="classOperator.html" target="_top" xlink:title=" ">
<polygon fill="white" stroke="#666666" points="275.38,-144 113.88,-144 113.88,-100 275.38,-100 275.38,-144"/>
<text text-anchor="start" x="121.88" y="-130.5" font-family="Helvetica,sans-Serif" font-size="10.00">Operator&lt; FloatTensorFormat</text>
<text text-anchor="start" x="121.88" y="-118.5" font-family="Helvetica,sans-Serif" font-size="10.00">::RawRelativeDepth, FloatTensor</text>
<text text-anchor="middle" x="194.62" y="-106.5" font-family="Helvetica,sans-Serif" font-size="10.00">Format::RelativeDepth &gt;</text>
</a>
</g>
</g>
<!-- Node1&#45;&gt;Node4 -->
<g id="edge3_Node000001_Node000004" class="edge">
<title>Node1&#45;&gt;Node4</title>
<g id="a_edge3_Node000001_Node000004"><a xlink:title=" ">
<path fill="none" stroke="#63b8ff" d="M87.68,-100.76C95.91,-102.41 104.65,-104.16 113.43,-105.92"/>
<polygon fill="#63b8ff" stroke="#63b8ff" points="88.41,-97.34 77.91,-98.8 87.03,-104.2 88.41,-97.34"/>
</a>
</g>
</g>
<!-- Node6 -->
<g id="Node000006" class="node">
<title>Node6</title>
<g id="a_Node000006"><a xlink:href="classOperator.html" target="_top" xlink:title=" ">
<polygon fill="white" stroke="#666666" points="277.25,-82 112,-82 112,-38 277.25,-38 277.25,-82"/>
<text text-anchor="start" x="120" y="-68.5" font-family="Helvetica,sans-Serif" font-size="10.00">Operator&lt; FloatTensorFormat</text>
<text text-anchor="start" x="120" y="-56.5" font-family="Helvetica,sans-Serif" font-size="10.00">::ImageRGB255Float, FloatTensor</text>
<text text-anchor="middle" x="194.62" y="-44.5" font-family="Helvetica,sans-Serif" font-size="10.00">Format::YoloImageRGBFloat &gt;</text>
</a>
</g>
</g>
<!-- Node1&#45;&gt;Node6 -->
<g id="edge5_Node000001_Node000006" class="edge">
<title>Node1&#45;&gt;Node6</title>
<g id="a_edge5_Node000001_Node000006"><a xlink:title=" ">
<path fill="none" stroke="#63b8ff" d="M87.67,-81.24C95.33,-79.71 103.42,-78.08 111.59,-76.45"/>
<polygon fill="#63b8ff" stroke="#63b8ff" points="87.03,-77.8 77.91,-83.2 88.41,-84.66 87.03,-77.8"/>
</a>
</g>
</g>
<!-- Node8 -->
<g id="Node000008" class="node">
<title>Node8</title>
<g id="a_Node000008"><a xlink:href="classOperator.html" target="_top" xlink:title=" ">
<polygon fill="white" stroke="#666666" points="258.88,-20 130.38,-20 130.38,0 258.88,0 258.88,-20"/>
<text text-anchor="middle" x="194.62" y="-6.5" font-family="Helvetica,sans-Serif" font-size="10.00">Operator&lt; Input, Output &gt;</text>
</a>
</g>
</g>
<!-- Node1&#45;&gt;Node8 -->
<g id="edge7_Node000001_Node000008" class="edge">
<title>Node1&#45;&gt;Node8</title>
<g id="a_edge7_Node000001_Node000008"><a xlink:title=" ">
<path fill="none" stroke="#63b8ff" d="M55.44,-72.95C69.22,-58.91 90.11,-40.02 112,-29 118.76,-25.6 126.14,-22.79 133.61,-20.49"/>
<polygon fill="#63b8ff" stroke="#63b8ff" points="53.23,-70.19 48.88,-79.85 58.31,-75.01 53.23,-70.19"/>
</a>
</g>
</g>
<!-- Node3 -->
<g id="Node000003" class="node">
<title>Node3</title>
<g id="a_Node000003"><a xlink:href="classMiDaSImageOperator.html" target="_top" xlink:title=" ">
<polygon fill="white" stroke="#666666" points="436.5,-194 326,-194 326,-174 436.5,-174 436.5,-194"/>
<text text-anchor="middle" x="381.25" y="-180.5" font-family="Helvetica,sans-Serif" font-size="10.00">MiDaSImageOperator</text>
</a>
</g>
</g>
<!-- Node2&#45;&gt;Node3 -->
<g id="edge2_Node000002_Node000003" class="edge">
<title>Node2&#45;&gt;Node3</title>
<g id="a_edge2_Node000002_Node000003"><a xlink:title=" ">
<path fill="none" stroke="#63b8ff" d="M289.17,-184C301.7,-184 314.2,-184 325.74,-184"/>
<polygon fill="#63b8ff" stroke="#63b8ff" points="289.19,-180.5 279.19,-184 289.19,-187.5 289.19,-180.5"/>
</a>
</g>
</g>
<!-- Node5 -->
<g id="Node000005" class="node">
<title>Node5</title>
<g id="a_Node000005"><a xlink:href="classRelativeDepthPostOperator.html" target="_top" xlink:title="rescales values from [min, max] to [0, 1]">
<polygon fill="white" stroke="#666666" points="449.25,-132 313.25,-132 313.25,-112 449.25,-112 449.25,-132"/>
<text text-anchor="middle" x="381.25" y="-118.5" font-family="Helvetica,sans-Serif" font-size="10.00">RelativeDepthPostOperator</text>
</a>
</g>
</g>
<!-- Node4&#45;&gt;Node5 -->
<g id="edge4_Node000004_Node000005" class="edge">
<title>Node4&#45;&gt;Node5</title>
<g id="a_edge4_Node000004_Node000005"><a xlink:title=" ">
<path fill="none" stroke="#63b8ff" d="M287.15,-122C295.81,-122 304.48,-122 312.85,-122"/>
<polygon fill="#63b8ff" stroke="#63b8ff" points="287.31,-118.5 277.31,-122 287.31,-125.5 287.31,-118.5"/>
</a>
</g>
</g>
<!-- Node7 -->
<g id="Node000007" class="node">
<title>Node7</title>
<g id="a_Node000007"><a xlink:href="classYoloImageOperator.html" target="_top" xlink:title=" ">
<polygon fill="white" stroke="#666666" points="430.88,-70 331.62,-70 331.62,-50 430.88,-50 430.88,-70"/>
<text text-anchor="middle" x="381.25" y="-56.5" font-family="Helvetica,sans-Serif" font-size="10.00">YoloImageOperator</text>
</a>
</g>
</g>
<!-- Node6&#45;&gt;Node7 -->
<g id="edge6_Node000006_Node000007" class="edge">
<title>Node6&#45;&gt;Node7</title>
<g id="a_edge6_Node000006_Node000007"><a xlink:title=" ">
<path fill="none" stroke="#63b8ff" d="M288.87,-60C303.53,-60 318.16,-60 331.28,-60"/>
<polygon fill="#63b8ff" stroke="#63b8ff" points="289.19,-56.5 279.19,-60 289.19,-63.5 289.19,-56.5"/>
</a>
</g>
</g>
</g>
</svg>
