<?xml version="1.0" encoding="UTF-8" standalone="no"?>
<!DOCTYPE svg PUBLIC "-//W3C//DTD SVG 1.1//EN"
 "http://www.w3.org/Graphics/SVG/1.1/DTD/svg11.dtd">
<!-- Generated by graphviz version 12.2.1 (20241206.2353)
 -->
<!-- Title: YoloImageOperator Pages: 1 -->
<svg width="421pt" height="52pt"
 viewBox="0.00 0.00 420.50 52.00" xmlns="http://www.w3.org/2000/svg" xmlns:xlink="http://www.w3.org/1999/xlink">
<g id="graph0" class="graph" transform="scale(1 1) rotate(0) translate(4 48)">
<title>YoloImageOperator</title>
<!-- Node1 -->
<g id="Node000001" class="node">
<title>Node1</title>
<g id="a_Node000001"><a xlink:title=" ">
<polygon fill="#999999" stroke="#666666" points="412.5,-32 313.25,-32 313.25,-12 412.5,-12 412.5,-32"/>
<text text-anchor="middle" x="362.88" y="-18.5" font-family="Helvetica,sans-Serif" font-size="10.00">YoloImageOperator</text>
</a>
</g>
</g>
<!-- Node2 -->
<g id="Node000002" class="node">
<title>Node2</title>
<g id="a_Node000002"><a xlink:href="classOperator.html" target="_top" xlink:title=" ">
<polygon fill="white" stroke="#666666" points="277.25,-44 112,-44 112,0 277.25,0 277.25,-44"/>
<text text-anchor="start" x="120" y="-30.5" font-family="Helvetica,sans-Serif" font-size="10.00">Operator&lt; FloatTensorFormat</text>
<text text-anchor="start" x="120" y="-18.5" font-family="Helvetica,sans-Serif" font-size="10.00">::ImageRGB255Float, FloatTensor</text>
<text text-anchor="middle" x="194.62" y="-6.5" font-family="Helvetica,sans-Serif" font-size="10.00">Format::YoloImageRGBFloat &gt;</text>
</a>
</g>
</g>
<!-- Node2&#45;&gt;Node1 -->
<g id="edge1_Node000001_Node000002" class="edge">
<title>Node2&#45;&gt;Node1</title>
<g id="a_edge1_Node000001_Node000002"><a xlink:title=" ">
<path fill="none" stroke="#63b8ff" d="M288.66,-22C296.97,-22 305.14,-22 312.83,-22"/>
<polygon fill="#63b8ff" stroke="#63b8ff" points="288.8,-18.5 278.8,-22 288.8,-25.5 288.8,-18.5"/>
</a>
</g>
</g>
<!-- Node3 -->
<g id="Node000003" class="node">
<title>Node3</title>
<g id="a_Node000003"><a xlink:href="classOperatorBase.html" target="_top" xlink:title=" ">
<polygon fill="white" stroke="#666666" points="76,-32 0,-32 0,-12 76,-12 76,-32"/>
<text text-anchor="middle" x="38" y="-18.5" font-family="Helvetica,sans-Serif" font-size="10.00">OperatorBase</text>
</a>
</g>
</g>
<!-- Node3&#45;&gt;Node2 -->
<g id="edge2_Node000002_Node000003" class="edge">
<title>Node3&#45;&gt;Node2</title>
<g id="a_edge2_Node000002_Node000003"><a xlink:title=" ">
<path fill="none" stroke="#63b8ff" d="M87.94,-22C95.52,-22 103.52,-22 111.59,-22"/>
<polygon fill="#63b8ff" stroke="#63b8ff" points="87.94,-18.5 77.94,-22 87.94,-25.5 87.94,-18.5"/>
</a>
</g>
</g>
</g>
</svg>
