<?xml version="1.0" encoding="UTF-8" standalone="no"?>
<!DOCTYPE svg PUBLIC "-//W3C//DTD SVG 1.1//EN"
 "http://www.w3.org/Graphics/SVG/1.1/DTD/svg11.dtd">
<!-- Generated by graphviz version 12.2.1 (20241206.2353)
 -->
<!-- Title: src/audio/DepthAudioSourceData.cpp Pages: 1 -->
<svg width="344pt" height="168pt"
 viewBox="0.00 0.00 343.50 167.75" xmlns="http://www.w3.org/2000/svg" xmlns:xlink="http://www.w3.org/1999/xlink">
<g id="graph0" class="graph" transform="scale(1 1) rotate(0) translate(4 163.75)">
<title>src/audio/DepthAudioSourceData.cpp</title>
<!-- Node1 -->
<g id="Node000001" class="node">
<title>Node1</title>
<g id="a_Node000001"><a xlink:title=" ">
<polygon fill="#999999" stroke="#666666" points="285.75,-159.75 132.5,-159.75 132.5,-126.25 285.75,-126.25 285.75,-159.75"/>
<text text-anchor="start" x="140.5" y="-146.25" font-family="Helvetica,sans-Serif" font-size="10.00">src/audio/DepthAudioSource</text>
<text text-anchor="middle" x="209.12" y="-133.5" font-family="Helvetica,sans-Serif" font-size="10.00">Data.cpp</text>
</a>
</g>
</g>
<!-- Node2 -->
<g id="Node000002" class="node">
<title>Node2</title>
<g id="a_Node000002"><a xlink:href="DepthAudioSourceData_8hpp.html" target="_top" xlink:title=" ">
<polygon fill="white" stroke="#666666" points="156.25,-90.25 0,-90.25 0,-56.75 156.25,-56.75 156.25,-90.25"/>
<text text-anchor="start" x="8" y="-76.75" font-family="Helvetica,sans-Serif" font-size="10.00">EyeAICore/audio/DepthAudio</text>
<text text-anchor="middle" x="78.12" y="-64" font-family="Helvetica,sans-Serif" font-size="10.00">SourceData.hpp</text>
</a>
</g>
</g>
<!-- Node1&#45;&gt;Node2 -->
<g id="edge1_Node000001_Node000002" class="edge">
<title>Node1&#45;&gt;Node2</title>
<g id="a_edge1_Node000001_Node000002"><a xlink:title=" ">
<path fill="none" stroke="#63b8ff" d="M177.75,-125.83C160.25,-116.82 138.24,-105.48 119.36,-95.75"/>
<polygon fill="#63b8ff" stroke="#63b8ff" points="121.08,-92.7 110.59,-91.23 117.88,-98.92 121.08,-92.7"/>
</a>
</g>
</g>
<!-- Node3 -->
<g id="Node000003" class="node">
<title>Node3</title>
<g id="a_Node000003"><a xlink:title=" ">
<polygon fill="#e0e0e0" stroke="#999999" points="154.5,-20.75 107.75,-20.75 107.75,0 154.5,0 154.5,-20.75"/>
<text text-anchor="middle" x="131.12" y="-7.25" font-family="Helvetica,sans-Serif" font-size="10.00">vector</text>
</a>
</g>
</g>
<!-- Node1&#45;&gt;Node3 -->
<g id="edge5_Node000001_Node000003" class="edge">
<title>Node1&#45;&gt;Node3</title>
<g id="a_edge5_Node000001_Node000003"><a xlink:title=" ">
<path fill="none" stroke="#63b8ff" d="M201.78,-125.85C193.61,-108.37 179.63,-79.9 165.12,-56.75 159.4,-47.62 152.36,-38 146.16,-29.98"/>
<polygon fill="#63b8ff" stroke="#63b8ff" points="149.06,-28 140.12,-22.32 143.57,-32.33 149.06,-28"/>
</a>
</g>
</g>
<!-- Node4 -->
<g id="Node000004" class="node">
<title>Node4</title>
<g id="a_Node000004"><a xlink:title=" ">
<polygon fill="#e0e0e0" stroke="#999999" points="258.5,-83.88 211.75,-83.88 211.75,-63.12 258.5,-63.12 258.5,-83.88"/>
<text text-anchor="middle" x="235.12" y="-70.38" font-family="Helvetica,sans-Serif" font-size="10.00">cmath</text>
</a>
</g>
</g>
<!-- Node1&#45;&gt;Node4 -->
<g id="edge3_Node000001_Node000004" class="edge">
<title>Node1&#45;&gt;Node4</title>
<g id="a_edge3_Node000001_Node000004"><a xlink:title=" ">
<path fill="none" stroke="#63b8ff" d="M215.29,-126C218.87,-116.7 223.42,-104.88 227.26,-94.91"/>
<polygon fill="#63b8ff" stroke="#63b8ff" points="230.47,-96.32 230.8,-85.73 223.94,-93.81 230.47,-96.32"/>
</a>
</g>
</g>
<!-- Node5 -->
<g id="Node000005" class="node">
<title>Node5</title>
<g id="a_Node000005"><a xlink:title=" ">
<polygon fill="#e0e0e0" stroke="#999999" points="335.5,-83.88 276.75,-83.88 276.75,-63.12 335.5,-63.12 335.5,-83.88"/>
<text text-anchor="middle" x="306.12" y="-70.38" font-family="Helvetica,sans-Serif" font-size="10.00">numbers</text>
</a>
</g>
</g>
<!-- Node1&#45;&gt;Node5 -->
<g id="edge4_Node000001_Node000005" class="edge">
<title>Node1&#45;&gt;Node5</title>
<g id="a_edge4_Node000001_Node000005"><a xlink:title=" ">
<path fill="none" stroke="#63b8ff" d="M232.11,-126C247.37,-115.39 267.34,-101.49 282.69,-90.81"/>
<polygon fill="#63b8ff" stroke="#63b8ff" points="284.56,-93.77 290.77,-85.19 280.56,-88.03 284.56,-93.77"/>
</a>
</g>
</g>
<!-- Node2&#45;&gt;Node3 -->
<g id="edge2_Node000002_Node000003" class="edge">
<title>Node2&#45;&gt;Node3</title>
<g id="a_edge2_Node000002_Node000003"><a xlink:title=" ">
<path fill="none" stroke="#63b8ff" d="M92.05,-56.44C99.17,-48.23 107.86,-38.21 115.24,-29.7"/>
<polygon fill="#63b8ff" stroke="#63b8ff" points="117.69,-32.21 121.6,-22.36 112.4,-27.62 117.69,-32.21"/>
</a>
</g>
</g>
</g>
</svg>
