<?xml version="1.0" encoding="UTF-8" standalone="no"?>
<!DOCTYPE svg PUBLIC "-//W3C//DTD SVG 1.1//EN"
 "http://www.w3.org/Graphics/SVG/1.1/DTD/svg11.dtd">
<!-- Generated by graphviz version 12.2.1 (20241206.2353)
 -->
<!-- Title: include/EyeAICore/audio/DepthAudioSourceData.hpp Pages: 1 -->
<svg width="544pt" height="237pt"
 viewBox="0.00 0.00 543.88 237.25" xmlns="http://www.w3.org/2000/svg" xmlns:xlink="http://www.w3.org/1999/xlink">
<g id="graph0" class="graph" transform="scale(1 1) rotate(0) translate(4 233.25)">
<title>include/EyeAICore/audio/DepthAudioSourceData.hpp</title>
<!-- Node1 -->
<g id="Node000001" class="node">
<title>Node1</title>
<g id="a_Node000001"><a xlink:title=" ">
<polygon fill="#999999" stroke="#666666" points="406.88,-229.25 253.62,-229.25 253.62,-195.75 406.88,-195.75 406.88,-229.25"/>
<text text-anchor="start" x="261.62" y="-215.75" font-family="Helvetica,sans-Serif" font-size="10.00">include/EyeAICore/audio</text>
<text text-anchor="middle" x="330.25" y="-203" font-family="Helvetica,sans-Serif" font-size="10.00">/DepthAudioSourceData.hpp</text>
</a>
</g>
</g>
<!-- Node2 -->
<g id="Node000002" class="node">
<title>Node2</title>
<g id="a_Node000002"><a xlink:href="AudioMain_8hpp.html" target="_top" xlink:title=" ">
<polygon fill="white" stroke="#666666" points="254.5,-159.75 120,-159.75 120,-126.25 254.5,-126.25 254.5,-159.75"/>
<text text-anchor="start" x="128" y="-146.25" font-family="Helvetica,sans-Serif" font-size="10.00">include/EyeAICore/audio</text>
<text text-anchor="middle" x="187.25" y="-133.5" font-family="Helvetica,sans-Serif" font-size="10.00">/AudioMain.hpp</text>
</a>
</g>
</g>
<!-- Node1&#45;&gt;Node2 -->
<g id="edge1_Node000001_Node000002" class="edge">
<title>Node1&#45;&gt;Node2</title>
<g id="a_edge1_Node000001_Node000002"><a xlink:title=" ">
<path fill="none" stroke="#63b8ff" d="M285.79,-190.51C264.96,-180.68 240.54,-169.16 221.22,-160.04"/>
<polygon fill="#63b8ff" stroke="#63b8ff" points="284.09,-193.58 294.63,-194.69 287.08,-187.25 284.09,-193.58"/>
</a>
</g>
</g>
<!-- Node4 -->
<g id="Node000004" class="node">
<title>Node4</title>
<g id="a_Node000004"><a xlink:href="SpatialAudio_8cpp.html" target="_top" xlink:title=" ">
<polygon fill="white" stroke="#666666" points="234.75,-20.75 89.75,-20.75 89.75,0 234.75,0 234.75,-20.75"/>
<text text-anchor="middle" x="162.25" y="-7.25" font-family="Helvetica,sans-Serif" font-size="10.00">src/audio/SpatialAudio.cpp</text>
</a>
</g>
</g>
<!-- Node1&#45;&gt;Node4 -->
<g id="edge8_Node000001_Node000004" class="edge">
<title>Node1&#45;&gt;Node4</title>
<g id="a_edge8_Node000001_Node000004"><a xlink:title=" ">
<path fill="none" stroke="#63b8ff" d="M340.51,-184.65C351.44,-151.06 363.6,-93.49 335.25,-56.75 322.54,-40.28 275.74,-28.62 234.01,-21.25"/>
<polygon fill="#63b8ff" stroke="#63b8ff" points="337.23,-183.43 337.26,-194.03 343.84,-185.73 337.23,-183.43"/>
</a>
</g>
</g>
<!-- Node5 -->
<g id="Node000005" class="node">
<title>Node5</title>
<g id="a_Node000005"><a xlink:href="AudioMain_8cpp.html" target="_top" xlink:title=" ">
<polygon fill="white" stroke="#666666" points="325.88,-83.88 190.62,-83.88 190.62,-63.12 325.88,-63.12 325.88,-83.88"/>
<text text-anchor="middle" x="258.25" y="-70.38" font-family="Helvetica,sans-Serif" font-size="10.00">src/audio/AudioMain.cpp</text>
</a>
</g>
</g>
<!-- Node1&#45;&gt;Node5 -->
<g id="edge6_Node000001_Node000005" class="edge">
<title>Node1&#45;&gt;Node5</title>
<g id="a_edge6_Node000001_Node000005"><a xlink:title=" ">
<path fill="none" stroke="#63b8ff" d="M316.59,-185.5C300.43,-154.75 274.33,-105.1 263.36,-84.23"/>
<polygon fill="#63b8ff" stroke="#63b8ff" points="313.4,-186.95 321.15,-194.18 319.59,-183.7 313.4,-186.95"/>
</a>
</g>
</g>
<!-- Node6 -->
<g id="Node000006" class="node">
<title>Node6</title>
<g id="a_Node000006"><a xlink:href="DepthAudioSourceData_8cpp.html" target="_top" xlink:title=" ">
<polygon fill="white" stroke="#666666" points="535.88,-159.75 382.62,-159.75 382.62,-126.25 535.88,-126.25 535.88,-159.75"/>
<text text-anchor="start" x="390.62" y="-146.25" font-family="Helvetica,sans-Serif" font-size="10.00">src/audio/DepthAudioSource</text>
<text text-anchor="middle" x="459.25" y="-133.5" font-family="Helvetica,sans-Serif" font-size="10.00">Data.cpp</text>
</a>
</g>
</g>
<!-- Node1&#45;&gt;Node6 -->
<g id="edge7_Node000001_Node000006" class="edge">
<title>Node1&#45;&gt;Node6</title>
<g id="a_edge7_Node000001_Node000006"><a xlink:title=" ">
<path fill="none" stroke="#63b8ff" d="M371.13,-190.11C389.75,-180.37 411.41,-169.03 428.6,-160.04"/>
<polygon fill="#63b8ff" stroke="#63b8ff" points="369.73,-186.89 362.49,-194.63 372.97,-193.1 369.73,-186.89"/>
</a>
</g>
</g>
<!-- Node3 -->
<g id="Node000003" class="node">
<title>Node3</title>
<g id="a_Node000003"><a xlink:href="SpatialAudio_8hpp.html" target="_top" xlink:title=" ">
<polygon fill="white" stroke="#666666" points="134.5,-90.25 0,-90.25 0,-56.75 134.5,-56.75 134.5,-90.25"/>
<text text-anchor="start" x="8" y="-76.75" font-family="Helvetica,sans-Serif" font-size="10.00">include/EyeAICore/audio</text>
<text text-anchor="middle" x="67.25" y="-64" font-family="Helvetica,sans-Serif" font-size="10.00">/SpatialAudio.hpp</text>
</a>
</g>
</g>
<!-- Node2&#45;&gt;Node3 -->
<g id="edge2_Node000002_Node000003" class="edge">
<title>Node2&#45;&gt;Node3</title>
<g id="a_edge2_Node000002_Node000003"><a xlink:title=" ">
<path fill="none" stroke="#63b8ff" d="M148.74,-120.34C131.53,-110.66 111.6,-99.45 95.76,-90.54"/>
<polygon fill="#63b8ff" stroke="#63b8ff" points="146.76,-123.24 157.19,-125.09 150.19,-117.14 146.76,-123.24"/>
</a>
</g>
</g>
<!-- Node2&#45;&gt;Node4 -->
<g id="edge5_Node000002_Node000004" class="edge">
<title>Node2&#45;&gt;Node4</title>
<g id="a_edge5_Node000002_Node000004"><a xlink:title=" ">
<path fill="none" stroke="#63b8ff" d="M182.07,-114.92C176.48,-85.75 167.89,-40.85 164.13,-21.18"/>
<polygon fill="#63b8ff" stroke="#63b8ff" points="178.58,-115.33 183.9,-124.5 185.46,-114.02 178.58,-115.33"/>
</a>
</g>
</g>
<!-- Node2&#45;&gt;Node5 -->
<g id="edge4_Node000002_Node000005" class="edge">
<title>Node2&#45;&gt;Node5</title>
<g id="a_edge4_Node000002_Node000005"><a xlink:title=" ">
<path fill="none" stroke="#63b8ff" d="M212.19,-118.29C224.46,-106.62 238.58,-93.2 247.92,-84.32"/>
<polygon fill="#63b8ff" stroke="#63b8ff" points="210.01,-115.53 205.17,-124.96 214.83,-120.61 210.01,-115.53"/>
</a>
</g>
</g>
<!-- Node3&#45;&gt;Node4 -->
<g id="edge3_Node000003_Node000004" class="edge">
<title>Node3&#45;&gt;Node4</title>
<g id="a_edge3_Node000003_Node000004"><a xlink:title=" ">
<path fill="none" stroke="#63b8ff" d="M101.57,-50.42C117.12,-40.41 134.73,-29.08 146.95,-21.22"/>
<polygon fill="#63b8ff" stroke="#63b8ff" points="100,-47.27 93.48,-55.62 103.79,-53.15 100,-47.27"/>
</a>
</g>
</g>
</g>
</svg>
