<?xml version="1.0" encoding="UTF-8" standalone="no"?>
<!DOCTYPE svg PUBLIC "-//W3C//DTD SVG 1.1//EN"
 "http://www.w3.org/Graphics/SVG/1.1/DTD/svg11.dtd">
<!-- Generated by graphviz version 12.2.1 (20241206.2353)
 -->
<!-- Title: src/utils/DepthColormap.cpp Pages: 1 -->
<svg width="589pt" height="140pt"
 viewBox="0.00 0.00 589.38 140.00" xmlns="http://www.w3.org/2000/svg" xmlns:xlink="http://www.w3.org/1999/xlink">
<g id="graph0" class="graph" transform="scale(1 1) rotate(0) translate(4 136)">
<title>src/utils/DepthColormap.cpp</title>
<!-- Node1 -->
<g id="Node000001" class="node">
<title>Node1</title>
<g id="a_Node000001"><a xlink:title=" ">
<polygon fill="#999999" stroke="#666666" points="423.75,-132 283.25,-132 283.25,-112 423.75,-112 423.75,-132"/>
<text text-anchor="middle" x="353.5" y="-118.5" font-family="Helvetica,sans-Serif" font-size="10.00">src/utils/DepthColormap.cpp</text>
</a>
</g>
</g>
<!-- Node2 -->
<g id="Node000002" class="node">
<title>Node2</title>
<g id="a_Node000002"><a xlink:href="DepthColormap_8hpp.html" target="_top" xlink:title=" ">
<polygon fill="white" stroke="#666666" points="175,-76 0,-76 0,-56 175,-56 175,-76"/>
<text text-anchor="middle" x="87.5" y="-62.5" font-family="Helvetica,sans-Serif" font-size="10.00">EyeAICore/utils/DepthColormap.hpp</text>
</a>
</g>
</g>
<!-- Node1&#45;&gt;Node2 -->
<g id="edge1_Node000001_Node000002" class="edge">
<title>Node1&#45;&gt;Node2</title>
<g id="a_edge1_Node000001_Node000002"><a xlink:title=" ">
<path fill="none" stroke="#63b8ff" d="M306.86,-111.53C261.89,-102.4 193.72,-88.56 145.32,-78.74"/>
<polygon fill="#63b8ff" stroke="#63b8ff" points="146.06,-75.32 135.57,-76.76 144.67,-82.18 146.06,-75.32"/>
</a>
</g>
</g>
<!-- Node6 -->
<g id="Node000006" class="node">
<title>Node6</title>
<g id="a_Node000006"><a xlink:href="ImageUtils_8hpp.html" target="_top" xlink:title=" ">
<polygon fill="white" stroke="#666666" points="347.5,-76 193.5,-76 193.5,-56 347.5,-56 347.5,-76"/>
<text text-anchor="middle" x="270.5" y="-62.5" font-family="Helvetica,sans-Serif" font-size="10.00">EyeAICore/utils/ImageUtils.hpp</text>
</a>
</g>
</g>
<!-- Node1&#45;&gt;Node6 -->
<g id="edge5_Node000001_Node000006" class="edge">
<title>Node1&#45;&gt;Node6</title>
<g id="a_edge5_Node000001_Node000006"><a xlink:title=" ">
<path fill="none" stroke="#63b8ff" d="M339.04,-111.59C326.74,-103.59 308.82,-91.93 294.39,-82.54"/>
<polygon fill="#63b8ff" stroke="#63b8ff" points="296.63,-79.82 286.34,-77.3 292.81,-85.69 296.63,-79.82"/>
</a>
</g>
</g>
<!-- Node8 -->
<g id="Node000008" class="node">
<title>Node8</title>
<g id="a_Node000008"><a xlink:href="Profiling_8hpp.html" target="_top" xlink:title=" ">
<polygon fill="white" stroke="#666666" points="507.5,-76 365.5,-76 365.5,-56 507.5,-56 507.5,-76"/>
<text text-anchor="middle" x="436.5" y="-62.5" font-family="Helvetica,sans-Serif" font-size="10.00">EyeAICore/utils/Profiling.hpp</text>
</a>
</g>
</g>
<!-- Node1&#45;&gt;Node8 -->
<g id="edge7_Node000001_Node000008" class="edge">
<title>Node1&#45;&gt;Node8</title>
<g id="a_edge7_Node000001_Node000008"><a xlink:title=" ">
<path fill="none" stroke="#63b8ff" d="M367.96,-111.59C380.26,-103.59 398.18,-91.93 412.61,-82.54"/>
<polygon fill="#63b8ff" stroke="#63b8ff" points="414.19,-85.69 420.66,-77.3 410.37,-79.82 414.19,-85.69"/>
</a>
</g>
</g>
<!-- Node12 -->
<g id="Node000012" class="node">
<title>Node12</title>
<g id="a_Node000012"><a xlink:title=" ">
<polygon fill="#e0e0e0" stroke="#999999" points="581.38,-76 525.62,-76 525.62,-56 581.38,-56 581.38,-76"/>
<text text-anchor="middle" x="553.5" y="-62.5" font-family="Helvetica,sans-Serif" font-size="10.00">algorithm</text>
</a>
</g>
</g>
<!-- Node1&#45;&gt;Node12 -->
<g id="edge11_Node000001_Node000012" class="edge">
<title>Node1&#45;&gt;Node12</title>
<g id="a_edge11_Node000001_Node000012"><a xlink:title=" ">
<path fill="none" stroke="#63b8ff" d="M388.34,-111.59C423.53,-102.09 477.8,-87.44 514.43,-77.55"/>
<polygon fill="#63b8ff" stroke="#63b8ff" points="514.99,-81.02 523.74,-75.04 513.17,-74.26 514.99,-81.02"/>
</a>
</g>
</g>
<!-- Node3 -->
<g id="Node000003" class="node">
<title>Node3</title>
<g id="a_Node000003"><a xlink:title=" ">
<polygon fill="#e0e0e0" stroke="#999999" points="51.38,-20 1.62,-20 1.62,0 51.38,0 51.38,-20"/>
<text text-anchor="middle" x="26.5" y="-6.5" font-family="Helvetica,sans-Serif" font-size="10.00">optional</text>
</a>
</g>
</g>
<!-- Node2&#45;&gt;Node3 -->
<g id="edge2_Node000002_Node000003" class="edge">
<title>Node2&#45;&gt;Node3</title>
<g id="a_edge2_Node000002_Node000003"><a xlink:title=" ">
<path fill="none" stroke="#63b8ff" d="M76.87,-55.59C68.22,-47.93 55.77,-36.91 45.42,-27.75"/>
<polygon fill="#63b8ff" stroke="#63b8ff" points="47.94,-25.31 38.14,-21.3 43.3,-30.55 47.94,-25.31"/>
</a>
</g>
</g>
<!-- Node4 -->
<g id="Node000004" class="node">
<title>Node4</title>
<g id="a_Node000004"><a xlink:title=" ">
<polygon fill="#e0e0e0" stroke="#999999" points="106,-20 69,-20 69,0 106,0 106,-20"/>
<text text-anchor="middle" x="87.5" y="-6.5" font-family="Helvetica,sans-Serif" font-size="10.00">span</text>
</a>
</g>
</g>
<!-- Node2&#45;&gt;Node4 -->
<g id="edge3_Node000002_Node000004" class="edge">
<title>Node2&#45;&gt;Node4</title>
<g id="a_edge3_Node000002_Node000004"><a xlink:title=" ">
<path fill="none" stroke="#63b8ff" d="M87.5,-55.59C87.5,-49.01 87.5,-39.96 87.5,-31.73"/>
<polygon fill="#63b8ff" stroke="#63b8ff" points="91,-31.81 87.5,-21.81 84,-31.81 91,-31.81"/>
</a>
</g>
</g>
<!-- Node5 -->
<g id="Node000005" class="node">
<title>Node5</title>
<g id="a_Node000005"><a xlink:title=" ">
<polygon fill="#e0e0e0" stroke="#999999" points="164.5,-20 124.5,-20 124.5,0 164.5,0 164.5,-20"/>
<text text-anchor="middle" x="144.5" y="-6.5" font-family="Helvetica,sans-Serif" font-size="10.00">string</text>
</a>
</g>
</g>
<!-- Node2&#45;&gt;Node5 -->
<g id="edge4_Node000002_Node000005" class="edge">
<title>Node2&#45;&gt;Node5</title>
<g id="a_edge4_Node000002_Node000005"><a xlink:title=" ">
<path fill="none" stroke="#63b8ff" d="M97.43,-55.59C105.44,-48.01 116.92,-37.13 126.53,-28.02"/>
<polygon fill="#63b8ff" stroke="#63b8ff" points="128.73,-30.76 133.59,-21.34 123.92,-25.68 128.73,-30.76"/>
</a>
</g>
</g>
<!-- Node7 -->
<g id="Node000007" class="node">
<title>Node7</title>
<g id="a_Node000007"><a xlink:title=" ">
<polygon fill="#e0e0e0" stroke="#999999" points="293.12,-20 247.88,-20 247.88,0 293.12,0 293.12,-20"/>
<text text-anchor="middle" x="270.5" y="-6.5" font-family="Helvetica,sans-Serif" font-size="10.00">cstdint</text>
</a>
</g>
</g>
<!-- Node6&#45;&gt;Node7 -->
<g id="edge6_Node000006_Node000007" class="edge">
<title>Node6&#45;&gt;Node7</title>
<g id="a_edge6_Node000006_Node000007"><a xlink:title=" ">
<path fill="none" stroke="#63b8ff" d="M270.5,-55.59C270.5,-49.01 270.5,-39.96 270.5,-31.73"/>
<polygon fill="#63b8ff" stroke="#63b8ff" points="274,-31.81 270.5,-21.81 267,-31.81 274,-31.81"/>
</a>
</g>
</g>
<!-- Node9 -->
<g id="Node000009" class="node">
<title>Node9</title>
<g id="a_Node000009"><a xlink:title=" ">
<polygon fill="#e0e0e0" stroke="#999999" points="370.12,-20 324.88,-20 324.88,0 370.12,0 370.12,-20"/>
<text text-anchor="middle" x="347.5" y="-6.5" font-family="Helvetica,sans-Serif" font-size="10.00">chrono</text>
</a>
</g>
</g>
<!-- Node8&#45;&gt;Node9 -->
<g id="edge8_Node000008_Node000009" class="edge">
<title>Node8&#45;&gt;Node9</title>
<g id="a_edge8_Node000008_Node000009"><a xlink:title=" ">
<path fill="none" stroke="#63b8ff" d="M421,-55.59C407.68,-47.51 388.22,-35.71 372.67,-26.27"/>
<polygon fill="#63b8ff" stroke="#63b8ff" points="374.78,-23.46 364.42,-21.26 371.15,-29.44 374.78,-23.46"/>
</a>
</g>
</g>
<!-- Node10 -->
<g id="Node000010" class="node">
<title>Node10</title>
<g id="a_Node000010"><a xlink:title=" ">
<polygon fill="#e0e0e0" stroke="#999999" points="484.62,-20 388.38,-20 388.38,0 484.62,0 484.62,-20"/>
<text text-anchor="middle" x="436.5" y="-6.5" font-family="Helvetica,sans-Serif" font-size="10.00">concurrentqueue.h</text>
</a>
</g>
</g>
<!-- Node8&#45;&gt;Node10 -->
<g id="edge9_Node000008_Node000010" class="edge">
<title>Node8&#45;&gt;Node10</title>
<g id="a_edge9_Node000008_Node000010"><a xlink:title=" ">
<path fill="none" stroke="#63b8ff" d="M436.5,-55.59C436.5,-49.01 436.5,-39.96 436.5,-31.73"/>
<polygon fill="#63b8ff" stroke="#63b8ff" points="440,-31.81 436.5,-21.81 433,-31.81 440,-31.81"/>
</a>
</g>
</g>
<!-- Node11 -->
<g id="Node000011" class="node">
<title>Node11</title>
<g id="a_Node000011"><a xlink:title=" ">
<polygon fill="#e0e0e0" stroke="#999999" points="568.25,-20 502.75,-20 502.75,0 568.25,0 568.25,-20"/>
<text text-anchor="middle" x="535.5" y="-6.5" font-family="Helvetica,sans-Serif" font-size="10.00">string_view</text>
</a>
</g>
</g>
<!-- Node8&#45;&gt;Node11 -->
<g id="edge10_Node000008_Node000011" class="edge">
<title>Node8&#45;&gt;Node11</title>
<g id="a_edge10_Node000008_Node000011"><a xlink:title=" ">
<path fill="none" stroke="#63b8ff" d="M453.74,-55.59C468.84,-47.36 491.03,-35.26 508.48,-25.74"/>
<polygon fill="#63b8ff" stroke="#63b8ff" points="509.69,-29.07 516.79,-21.2 506.34,-22.92 509.69,-29.07"/>
</a>
</g>
</g>
</g>
</svg>
