<?xml version="1.0" encoding="UTF-8" standalone="no"?>
<!DOCTYPE svg PUBLIC "-//W3C//DTD SVG 1.1//EN"
 "http://www.w3.org/Graphics/SVG/1.1/DTD/svg11.dtd">
<!-- Generated by graphviz version 12.2.1 (20241206.2353)
 -->
<!-- Title: src/DepthModel.cpp Pages: 1 -->
<svg width="1041pt" height="320pt"
 viewBox="0.00 0.00 1040.62 320.00" xmlns="http://www.w3.org/2000/svg" xmlns:xlink="http://www.w3.org/1999/xlink">
<g id="graph0" class="graph" transform="scale(1 1) rotate(0) translate(4 316)">
<title>src/DepthModel.cpp</title>
<!-- Node1 -->
<g id="Node000001" class="node">
<title>Node1</title>
<g id="a_Node000001"><a xlink:title=" ">
<polygon fill="#999999" stroke="#666666" points="565.38,-312 461.62,-312 461.62,-292 565.38,-292 565.38,-312"/>
<text text-anchor="middle" x="513.5" y="-298.5" font-family="Helvetica,sans-Serif" font-size="10.00">src/DepthModel.cpp</text>
</a>
</g>
</g>
<!-- Node2 -->
<g id="Node000002" class="node">
<title>Node2</title>
<g id="a_Node000002"><a xlink:href="DepthModel_8hpp.html" target="_top" xlink:title=" ">
<polygon fill="white" stroke="#666666" points="631.62,-256 493.38,-256 493.38,-236 631.62,-236 631.62,-256"/>
<text text-anchor="middle" x="562.5" y="-242.5" font-family="Helvetica,sans-Serif" font-size="10.00">EyeAICore/DepthModel.hpp</text>
</a>
</g>
</g>
<!-- Node1&#45;&gt;Node2 -->
<g id="edge1_Node000001_Node000002" class="edge">
<title>Node1&#45;&gt;Node2</title>
<g id="a_edge1_Node000001_Node000002"><a xlink:title=" ">
<path fill="none" stroke="#63b8ff" d="M522.04,-291.59C528.78,-284.16 538.39,-273.58 546.54,-264.58"/>
<polygon fill="#63b8ff" stroke="#63b8ff" points="548.92,-267.18 553.05,-257.42 543.73,-262.47 548.92,-267.18"/>
</a>
</g>
</g>
<!-- Node3 -->
<g id="Node000003" class="node">
<title>Node3</title>
<g id="a_Node000003"><a xlink:href="TfLiteRuntime_8hpp.html" target="_top" xlink:title=" ">
<polygon fill="white" stroke="#666666" points="599,-200 430,-200 430,-180 599,-180 599,-200"/>
<text text-anchor="middle" x="514.5" y="-186.5" font-family="Helvetica,sans-Serif" font-size="10.00">EyeAICore/tflite/TfLiteRuntime.hpp</text>
</a>
</g>
</g>
<!-- Node1&#45;&gt;Node3 -->
<g id="edge31_Node000001_Node000003" class="edge">
<title>Node1&#45;&gt;Node3</title>
<g id="a_edge31_Node000001_Node000003"><a xlink:title=" ">
<path fill="none" stroke="#63b8ff" d="M504.56,-291.6C493.91,-279.21 478.27,-256.58 484.5,-236 487.38,-226.5 492.99,-217.18 498.59,-209.5"/>
<polygon fill="#63b8ff" stroke="#63b8ff" points="501.33,-211.69 504.78,-201.67 495.83,-207.35 501.33,-211.69"/>
</a>
</g>
</g>
<!-- Node4 -->
<g id="Node000004" class="node">
<title>Node4</title>
<g id="a_Node000004"><a xlink:href="Operators_8hpp.html" target="_top" xlink:title=" ">
<polygon fill="white" stroke="#666666" points="222.75,-82 94.25,-82 94.25,-62 222.75,-62 222.75,-82"/>
<text text-anchor="middle" x="158.5" y="-68.5" font-family="Helvetica,sans-Serif" font-size="10.00">EyeAICore/Operators.hpp</text>
</a>
</g>
</g>
<!-- Node1&#45;&gt;Node4 -->
<g id="edge30_Node000001_Node000004" class="edge">
<title>Node1&#45;&gt;Node4</title>
<g id="a_edge30_Node000001_Node000004"><a xlink:title=" ">
<path fill="none" stroke="#63b8ff" d="M482.54,-291.53C422.8,-272.02 289.91,-222.48 203.5,-144 187.5,-129.47 174.96,-108 167.22,-92.47"/>
<polygon fill="#63b8ff" stroke="#63b8ff" points="170.55,-91.32 163.11,-83.77 164.22,-94.31 170.55,-91.32"/>
</a>
</g>
</g>
<!-- Node20 -->
<g id="Node000020" class="node">
<title>Node20</title>
<g id="a_Node000020"><a xlink:href="Profiling_8hpp.html" target="_top" xlink:title=" ">
<polygon fill="white" stroke="#666666" points="941.5,-256 799.5,-256 799.5,-236 941.5,-236 941.5,-256"/>
<text text-anchor="middle" x="870.5" y="-242.5" font-family="Helvetica,sans-Serif" font-size="10.00">EyeAICore/utils/Profiling.hpp</text>
</a>
</g>
</g>
<!-- Node1&#45;&gt;Node20 -->
<g id="edge32_Node000001_Node000020" class="edge">
<title>Node1&#45;&gt;Node20</title>
<g id="a_edge32_Node000001_Node000020"><a xlink:title=" ">
<path fill="none" stroke="#63b8ff" d="M565.79,-293.09C626.7,-283.88 727.75,-268.59 796.64,-258.17"/>
<polygon fill="#63b8ff" stroke="#63b8ff" points="796.98,-261.66 806.34,-256.7 795.93,-254.74 796.98,-261.66"/>
</a>
</g>
</g>
<!-- Node2&#45;&gt;Node3 -->
<g id="edge2_Node000002_Node000003" class="edge">
<title>Node2&#45;&gt;Node3</title>
<g id="a_edge2_Node000002_Node000003"><a xlink:title=" ">
<path fill="none" stroke="#63b8ff" d="M554.14,-235.59C547.6,-228.24 538.32,-217.8 530.38,-208.87"/>
<polygon fill="#63b8ff" stroke="#63b8ff" points="533.03,-206.58 523.77,-201.43 527.8,-211.23 533.03,-206.58"/>
</a>
</g>
</g>
<!-- Node3&#45;&gt;Node4 -->
<g id="edge3_Node000003_Node000004" class="edge">
<title>Node3&#45;&gt;Node4</title>
<g id="a_edge3_Node000003_Node000004"><a xlink:title=" ">
<path fill="none" stroke="#63b8ff" d="M429.56,-187.76C372.48,-183.98 296.94,-173.16 236.5,-144 210.72,-131.56 187.34,-107.84 173.04,-91.25"/>
<polygon fill="#63b8ff" stroke="#63b8ff" points="175.78,-89.07 166.69,-83.61 170.39,-93.54 175.78,-89.07"/>
</a>
</g>
</g>
<!-- Node7 -->
<g id="Node000007" class="node">
<title>Node7</title>
<g id="a_Node000007"><a xlink:title=" ">
<polygon fill="#e0e0e0" stroke="#999999" points="638.12,-20 586.88,-20 586.88,0 638.12,0 638.12,-20"/>
<text text-anchor="middle" x="612.5" y="-6.5" font-family="Helvetica,sans-Serif" font-size="10.00">memory</text>
</a>
</g>
</g>
<!-- Node3&#45;&gt;Node7 -->
<g id="edge26_Node000003_Node000007" class="edge">
<title>Node3&#45;&gt;Node7</title>
<g id="a_edge26_Node000003_Node000007"><a xlink:title=" ">
<path fill="none" stroke="#63b8ff" d="M585.38,-179.55C640.45,-168.07 713.35,-142.89 749.5,-88 757.32,-76.12 757.84,-67.52 749.5,-56 726.88,-24.76 681.86,-14.82 649.6,-11.86"/>
<polygon fill="#63b8ff" stroke="#63b8ff" points="650.09,-8.39 639.86,-11.17 649.59,-15.37 650.09,-8.39"/>
</a>
</g>
</g>
<!-- Node9 -->
<g id="Node000009" class="node">
<title>Node9</title>
<g id="a_Node000009"><a xlink:title=" ">
<polygon fill="#e0e0e0" stroke="#999999" points="37,-20 0,-20 0,0 37,0 37,-20"/>
<text text-anchor="middle" x="18.5" y="-6.5" font-family="Helvetica,sans-Serif" font-size="10.00">span</text>
</a>
</g>
</g>
<!-- Node3&#45;&gt;Node9 -->
<g id="edge27_Node000003_Node000009" class="edge">
<title>Node3&#45;&gt;Node9</title>
<g id="a_edge27_Node000003_Node000009"><a xlink:title=" ">
<path fill="none" stroke="#63b8ff" d="M429.53,-181.67C309.37,-169.54 98.49,-141.17 45.5,-88 30.45,-72.89 23.76,-48.93 20.81,-31.74"/>
<polygon fill="#63b8ff" stroke="#63b8ff" points="24.28,-31.34 19.43,-21.92 17.35,-32.31 24.28,-31.34"/>
</a>
</g>
</g>
<!-- Node10 -->
<g id="Node000010" class="node">
<title>Node10</title>
<g id="a_Node000010"><a xlink:title=" ">
<polygon fill="#e0e0e0" stroke="#999999" points="342.5,-20 302.5,-20 302.5,0 342.5,0 342.5,-20"/>
<text text-anchor="middle" x="322.5" y="-6.5" font-family="Helvetica,sans-Serif" font-size="10.00">string</text>
</a>
</g>
</g>
<!-- Node3&#45;&gt;Node10 -->
<g id="edge28_Node000003_Node000010" class="edge">
<title>Node3&#45;&gt;Node10</title>
<g id="a_edge28_Node000003_Node000010"><a xlink:title=" ">
<path fill="none" stroke="#63b8ff" d="M461.91,-179.6C412.43,-167.66 341.08,-141.75 307.5,-88 296.59,-70.54 303.79,-46.86 311.52,-30.39"/>
<polygon fill="#63b8ff" stroke="#63b8ff" points="314.56,-32.14 316.04,-21.65 308.34,-28.92 314.56,-32.14"/>
</a>
</g>
</g>
<!-- Node12 -->
<g id="Node000012" class="node">
<title>Node12</title>
<g id="a_Node000012"><a xlink:href="TfLiteUtils_8hpp.html" target="_top" xlink:title=" ">
<polygon fill="white" stroke="#666666" points="518.38,-144 438.62,-144 438.62,-124 518.38,-124 518.38,-144"/>
<text text-anchor="middle" x="478.5" y="-130.5" font-family="Helvetica,sans-Serif" font-size="10.00">TfLiteUtils.hpp</text>
</a>
</g>
</g>
<!-- Node3&#45;&gt;Node12 -->
<g id="edge11_Node000003_Node000012" class="edge">
<title>Node3&#45;&gt;Node12</title>
<g id="a_edge11_Node000003_Node000012"><a xlink:title=" ">
<path fill="none" stroke="#63b8ff" d="M508.23,-179.59C503.48,-172.47 496.8,-162.45 490.98,-153.72"/>
<polygon fill="#63b8ff" stroke="#63b8ff" points="494,-151.94 485.54,-145.56 488.17,-155.82 494,-151.94"/>
</a>
</g>
</g>
<!-- Node17 -->
<g id="Node000017" class="node">
<title>Node17</title>
<g id="a_Node000017"><a xlink:title=" ">
<polygon fill="#e0e0e0" stroke="#999999" points="862.25,-82 796.75,-82 796.75,-62 862.25,-62 862.25,-82"/>
<text text-anchor="middle" x="829.5" y="-68.5" font-family="Helvetica,sans-Serif" font-size="10.00">string_view</text>
</a>
</g>
</g>
<!-- Node3&#45;&gt;Node17 -->
<g id="edge29_Node000003_Node000017" class="edge">
<title>Node3&#45;&gt;Node17</title>
<g id="a_edge29_Node000003_Node000017"><a xlink:title=" ">
<path fill="none" stroke="#63b8ff" d="M599.37,-182.13C666.21,-175.37 752.88,-163.25 782.5,-144 801.33,-131.76 814.37,-109.04 821.85,-92.59"/>
<polygon fill="#63b8ff" stroke="#63b8ff" points="824.9,-94.38 825.56,-83.81 818.45,-91.66 824.9,-94.38"/>
</a>
</g>
</g>
<!-- Node18 -->
<g id="Node000018" class="node">
<title>Node18</title>
<g id="a_Node000018"><a xlink:title=" ">
<polygon fill="#e0e0e0" stroke="#999999" points="600.12,-88 506.88,-88 506.88,-56 600.12,-56 600.12,-88"/>
<text text-anchor="start" x="514.88" y="-74.5" font-family="Helvetica,sans-Serif" font-size="10.00">tensorflow/lite/c/c</text>
<text text-anchor="middle" x="553.5" y="-62.5" font-family="Helvetica,sans-Serif" font-size="10.00">_api.h</text>
</a>
</g>
</g>
<!-- Node3&#45;&gt;Node18 -->
<g id="edge24_Node000003_Node000018" class="edge">
<title>Node3&#45;&gt;Node18</title>
<g id="a_edge24_Node000003_Node000018"><a xlink:title=" ">
<path fill="none" stroke="#63b8ff" d="M517.69,-179.51C523.53,-162.15 536.11,-124.72 544.69,-99.19"/>
<polygon fill="#63b8ff" stroke="#63b8ff" points="547.97,-100.44 547.84,-89.85 541.33,-98.21 547.97,-100.44"/>
</a>
</g>
</g>
<!-- Node19 -->
<g id="Node000019" class="node">
<title>Node19</title>
<g id="a_Node000019"><a xlink:title=" ">
<polygon fill="#e0e0e0" stroke="#999999" points="740.38,-88 618.62,-88 618.62,-56 740.38,-56 740.38,-88"/>
<text text-anchor="start" x="626.62" y="-74.5" font-family="Helvetica,sans-Serif" font-size="10.00">tensorflow/lite/delegates</text>
<text text-anchor="middle" x="679.5" y="-62.5" font-family="Helvetica,sans-Serif" font-size="10.00">/gpu/delegate.h</text>
</a>
</g>
</g>
<!-- Node3&#45;&gt;Node19 -->
<g id="edge25_Node000003_Node000019" class="edge">
<title>Node3&#45;&gt;Node19</title>
<g id="a_edge25_Node000003_Node000019"><a xlink:title=" ">
<path fill="none" stroke="#63b8ff" d="M528,-179.51C554.14,-161.13 612.27,-120.26 648.44,-94.83"/>
<polygon fill="#63b8ff" stroke="#63b8ff" points="650.17,-97.9 656.34,-89.28 646.14,-92.17 650.17,-97.9"/>
</a>
</g>
</g>
<!-- Node5 -->
<g id="Node000005" class="node">
<title>Node5</title>
<g id="a_Node000005"><a xlink:title=" ">
<polygon fill="#e0e0e0" stroke="#999999" points="92.38,-20 54.62,-20 54.62,0 92.38,0 92.38,-20"/>
<text text-anchor="middle" x="73.5" y="-6.5" font-family="Helvetica,sans-Serif" font-size="10.00">array</text>
</a>
</g>
</g>
<!-- Node4&#45;&gt;Node5 -->
<g id="edge4_Node000004_Node000005" class="edge">
<title>Node4&#45;&gt;Node5</title>
<g id="a_edge4_Node000004_Node000005"><a xlink:title=" ">
<path fill="none" stroke="#63b8ff" d="M145.22,-61.62C131.99,-52.29 111.46,-37.79 95.74,-26.7"/>
<polygon fill="#63b8ff" stroke="#63b8ff" points="98.11,-24.09 87.92,-21.18 94.08,-29.81 98.11,-24.09"/>
</a>
</g>
</g>
<!-- Node6 -->
<g id="Node000006" class="node">
<title>Node6</title>
<g id="a_Node000006"><a xlink:title=" ">
<polygon fill="#e0e0e0" stroke="#999999" points="216.12,-20 170.88,-20 170.88,0 216.12,0 216.12,-20"/>
<text text-anchor="middle" x="193.5" y="-6.5" font-family="Helvetica,sans-Serif" font-size="10.00">cstdint</text>
</a>
</g>
</g>
<!-- Node4&#45;&gt;Node6 -->
<g id="edge5_Node000004_Node000006" class="edge">
<title>Node4&#45;&gt;Node6</title>
<g id="a_edge5_Node000004_Node000006"><a xlink:title=" ">
<path fill="none" stroke="#63b8ff" d="M163.97,-61.62C168.93,-53.12 176.39,-40.33 182.57,-29.74"/>
<polygon fill="#63b8ff" stroke="#63b8ff" points="185.41,-31.82 187.42,-21.42 179.36,-28.29 185.41,-31.82"/>
</a>
</g>
</g>
<!-- Node4&#45;&gt;Node7 -->
<g id="edge6_Node000004_Node000007" class="edge">
<title>Node4&#45;&gt;Node7</title>
<g id="a_edge6_Node000004_Node000007"><a xlink:title=" ">
<path fill="none" stroke="#63b8ff" d="M223.16,-64.18C318.77,-53.91 494.46,-34.37 575.76,-20.05"/>
<polygon fill="#63b8ff" stroke="#63b8ff" points="575.9,-23.58 585.1,-18.34 574.64,-16.7 575.9,-23.58"/>
</a>
</g>
</g>
<!-- Node8 -->
<g id="Node000008" class="node">
<title>Node8</title>
<g id="a_Node000008"><a xlink:title=" ">
<polygon fill="#e0e0e0" stroke="#999999" points="284.38,-20 234.62,-20 234.62,0 284.38,0 284.38,-20"/>
<text text-anchor="middle" x="259.5" y="-6.5" font-family="Helvetica,sans-Serif" font-size="10.00">optional</text>
</a>
</g>
</g>
<!-- Node4&#45;&gt;Node8 -->
<g id="edge7_Node000004_Node000008" class="edge">
<title>Node4&#45;&gt;Node8</title>
<g id="a_edge7_Node000004_Node000008"><a xlink:title=" ">
<path fill="none" stroke="#63b8ff" d="M174.28,-61.62C190.29,-52.11 215.32,-37.24 234.12,-26.08"/>
<polygon fill="#63b8ff" stroke="#63b8ff" points="235.72,-29.2 242.53,-21.08 232.14,-23.18 235.72,-29.2"/>
</a>
</g>
</g>
<!-- Node4&#45;&gt;Node9 -->
<g id="edge8_Node000004_Node000009" class="edge">
<title>Node4&#45;&gt;Node9</title>
<g id="a_edge8_Node000004_Node000009"><a xlink:title=" ">
<path fill="none" stroke="#63b8ff" d="M136.62,-61.62C112.67,-51.36 74.14,-34.85 47.64,-23.49"/>
<polygon fill="#63b8ff" stroke="#63b8ff" points="49.05,-20.29 38.48,-19.56 46.29,-26.72 49.05,-20.29"/>
</a>
</g>
</g>
<!-- Node4&#45;&gt;Node10 -->
<g id="edge9_Node000004_Node000010" class="edge">
<title>Node4&#45;&gt;Node10</title>
<g id="a_edge9_Node000004_Node000010"><a xlink:title=" ">
<path fill="none" stroke="#63b8ff" d="M184.12,-61.62C213.17,-51 260.5,-33.68 291.58,-22.31"/>
<polygon fill="#63b8ff" stroke="#63b8ff" points="292.62,-25.66 300.8,-18.94 290.21,-19.09 292.62,-25.66"/>
</a>
</g>
</g>
<!-- Node11 -->
<g id="Node000011" class="node">
<title>Node11</title>
<g id="a_Node000011"><a xlink:title=" ">
<polygon fill="#e0e0e0" stroke="#999999" points="153,-20 110,-20 110,0 153,0 153,-20"/>
<text text-anchor="middle" x="131.5" y="-6.5" font-family="Helvetica,sans-Serif" font-size="10.00">vector</text>
</a>
</g>
</g>
<!-- Node4&#45;&gt;Node11 -->
<g id="edge10_Node000004_Node000011" class="edge">
<title>Node4&#45;&gt;Node11</title>
<g id="a_edge10_Node000004_Node000011"><a xlink:title=" ">
<path fill="none" stroke="#63b8ff" d="M154.28,-61.62C150.53,-53.3 144.94,-40.86 140.23,-30.4"/>
<polygon fill="#63b8ff" stroke="#63b8ff" points="143.52,-29.18 136.22,-21.49 137.13,-32.05 143.52,-29.18"/>
</a>
</g>
</g>
<!-- Node12&#45;&gt;Node4 -->
<g id="edge12_Node000012_Node000004" class="edge">
<title>Node12&#45;&gt;Node4</title>
<g id="a_edge12_Node000012_Node000004"><a xlink:title=" ">
<path fill="none" stroke="#63b8ff" d="M438.3,-125.46C383.43,-115.17 284.58,-96.64 220.27,-84.58"/>
<polygon fill="#63b8ff" stroke="#63b8ff" points="221.03,-81.16 210.56,-82.76 219.74,-88.04 221.03,-81.16"/>
</a>
</g>
</g>
<!-- Node12&#45;&gt;Node7 -->
<g id="edge18_Node000012_Node000007" class="edge">
<title>Node12&#45;&gt;Node7</title>
<g id="a_edge18_Node000012_Node000007"><a xlink:title=" ">
<path fill="none" stroke="#63b8ff" d="M478.2,-123.71C478.19,-107.87 480.43,-75.46 497.5,-56 508.18,-43.81 546.36,-30.33 575.83,-21.33"/>
<polygon fill="#63b8ff" stroke="#63b8ff" points="576.58,-24.75 585.17,-18.54 574.58,-18.04 576.58,-24.75"/>
</a>
</g>
</g>
<!-- Node12&#45;&gt;Node8 -->
<g id="edge19_Node000012_Node000008" class="edge">
<title>Node12&#45;&gt;Node8</title>
<g id="a_edge19_Node000012_Node000008"><a xlink:title=" ">
<path fill="none" stroke="#63b8ff" d="M438.25,-130.77C401.11,-126.91 346.04,-116.42 307.5,-88 287.94,-73.58 274.52,-48.57 266.94,-30.97"/>
<polygon fill="#63b8ff" stroke="#63b8ff" points="270.25,-29.82 263.28,-21.84 263.75,-32.42 270.25,-29.82"/>
</a>
</g>
</g>
<!-- Node12&#45;&gt;Node9 -->
<g id="edge20_Node000012_Node000009" class="edge">
<title>Node12&#45;&gt;Node9</title>
<g id="a_edge20_Node000012_Node000009"><a xlink:title=" ">
<path fill="none" stroke="#63b8ff" d="M438.38,-132.05C350.93,-129.41 146.12,-119.9 85.5,-88 60.58,-74.89 40.78,-48.38 29.35,-30.16"/>
<polygon fill="#63b8ff" stroke="#63b8ff" points="32.38,-28.42 24.25,-21.62 26.37,-32 32.38,-28.42"/>
</a>
</g>
</g>
<!-- Node13 -->
<g id="Node000013" class="node">
<title>Node13</title>
<g id="a_Node000013"><a xlink:href="Errors_8hpp.html" target="_top" xlink:title=" ">
<polygon fill="white" stroke="#666666" points="450,-82 317,-82 317,-62 450,-62 450,-82"/>
<text text-anchor="middle" x="383.5" y="-68.5" font-family="Helvetica,sans-Serif" font-size="10.00">EyeAICore/utils/Errors.hpp</text>
</a>
</g>
</g>
<!-- Node12&#45;&gt;Node13 -->
<g id="edge13_Node000012_Node000013" class="edge">
<title>Node12&#45;&gt;Node13</title>
<g id="a_edge13_Node000012_Node000013"><a xlink:title=" ">
<path fill="none" stroke="#63b8ff" d="M463.66,-123.62C448.74,-114.2 425.49,-99.52 407.86,-88.39"/>
<polygon fill="#63b8ff" stroke="#63b8ff" points="409.84,-85.5 399.52,-83.12 406.11,-91.42 409.84,-85.5"/>
</a>
</g>
</g>
<!-- Node12&#45;&gt;Node17 -->
<g id="edge21_Node000012_Node000017" class="edge">
<title>Node12&#45;&gt;Node17</title>
<g id="a_edge21_Node000012_Node000017"><a xlink:title=" ">
<path fill="none" stroke="#63b8ff" d="M518.49,-126.63C571.4,-118.13 667.55,-102.49 749.5,-88 761.08,-85.95 773.59,-83.65 785.2,-81.48"/>
<polygon fill="#63b8ff" stroke="#63b8ff" points="785.78,-84.93 794.96,-79.64 784.48,-78.05 785.78,-84.93"/>
</a>
</g>
</g>
<!-- Node12&#45;&gt;Node18 -->
<g id="edge22_Node000012_Node000018" class="edge">
<title>Node12&#45;&gt;Node18</title>
<g id="a_edge22_Node000012_Node000018"><a xlink:title=" ">
<path fill="none" stroke="#63b8ff" d="M490.22,-123.62C499.61,-116.11 513.18,-105.26 525.34,-95.52"/>
<polygon fill="#63b8ff" stroke="#63b8ff" points="527.48,-98.3 533.1,-89.32 523.11,-92.83 527.48,-98.3"/>
</a>
</g>
</g>
<!-- Node12&#45;&gt;Node19 -->
<g id="edge23_Node000012_Node000019" class="edge">
<title>Node12&#45;&gt;Node19</title>
<g id="a_edge23_Node000012_Node000019"><a xlink:title=" ">
<path fill="none" stroke="#63b8ff" d="M509.91,-123.62C538.42,-115.11 581.33,-102.31 616.85,-91.7"/>
<polygon fill="#63b8ff" stroke="#63b8ff" points="617.58,-95.14 626.16,-88.92 615.57,-88.43 617.58,-95.14"/>
</a>
</g>
</g>
<!-- Node13&#45;&gt;Node10 -->
<g id="edge15_Node000013_Node000010" class="edge">
<title>Node13&#45;&gt;Node10</title>
<g id="a_edge15_Node000013_Node000010"><a xlink:title=" ">
<path fill="none" stroke="#63b8ff" d="M373.97,-61.62C364.87,-52.68 350.96,-38.99 339.89,-28.1"/>
<polygon fill="#63b8ff" stroke="#63b8ff" points="342.43,-25.69 332.84,-21.17 337.52,-30.68 342.43,-25.69"/>
</a>
</g>
</g>
<!-- Node14 -->
<g id="Node000014" class="node">
<title>Node14</title>
<g id="a_Node000014"><a xlink:title=" ">
<polygon fill="#e0e0e0" stroke="#999999" points="468.38,-20 424.62,-20 424.62,0 468.38,0 468.38,-20"/>
<text text-anchor="middle" x="446.5" y="-6.5" font-family="Helvetica,sans-Serif" font-size="10.00">format</text>
</a>
</g>
</g>
<!-- Node13&#45;&gt;Node14 -->
<g id="edge14_Node000013_Node000014" class="edge">
<title>Node13&#45;&gt;Node14</title>
<g id="a_edge14_Node000013_Node000014"><a xlink:title=" ">
<path fill="none" stroke="#63b8ff" d="M393.34,-61.62C402.83,-52.59 417.4,-38.72 428.88,-27.78"/>
<polygon fill="#63b8ff" stroke="#63b8ff" points="431.01,-30.59 435.84,-21.16 426.18,-25.52 431.01,-30.59"/>
</a>
</g>
</g>
<!-- Node15 -->
<g id="Node000015" class="node">
<title>Node15</title>
<g id="a_Node000015"><a xlink:title=" ">
<polygon fill="#e0e0e0" stroke="#999999" points="568.88,-20 486.12,-20 486.12,0 568.88,0 568.88,-20"/>
<text text-anchor="middle" x="527.5" y="-6.5" font-family="Helvetica,sans-Serif" font-size="10.00">tl/expected.hpp</text>
</a>
</g>
</g>
<!-- Node13&#45;&gt;Node15 -->
<g id="edge16_Node000013_Node000015" class="edge">
<title>Node13&#45;&gt;Node15</title>
<g id="a_edge16_Node000013_Node000015"><a xlink:title=" ">
<path fill="none" stroke="#63b8ff" d="M406,-61.62C429.78,-51.72 467.51,-35.99 494.62,-24.7"/>
<polygon fill="#63b8ff" stroke="#63b8ff" points="495.88,-27.97 503.76,-20.89 493.18,-21.51 495.88,-27.97"/>
</a>
</g>
</g>
<!-- Node16 -->
<g id="Node000016" class="node">
<title>Node16</title>
<g id="a_Node000016"><a xlink:title=" ">
<polygon fill="#e0e0e0" stroke="#999999" points="406.12,-20 360.88,-20 360.88,0 406.12,0 406.12,-20"/>
<text text-anchor="middle" x="383.5" y="-6.5" font-family="Helvetica,sans-Serif" font-size="10.00">variant</text>
</a>
</g>
</g>
<!-- Node13&#45;&gt;Node16 -->
<g id="edge17_Node000013_Node000016" class="edge">
<title>Node13&#45;&gt;Node16</title>
<g id="a_edge17_Node000013_Node000016"><a xlink:title=" ">
<path fill="none" stroke="#63b8ff" d="M383.5,-61.62C383.5,-53.56 383.5,-41.65 383.5,-31.41"/>
<polygon fill="#63b8ff" stroke="#63b8ff" points="387,-31.63 383.5,-21.63 380,-31.63 387,-31.63"/>
</a>
</g>
</g>
<!-- Node20&#45;&gt;Node17 -->
<g id="edge35_Node000020_Node000017" class="edge">
<title>Node20&#45;&gt;Node17</title>
<g id="a_edge35_Node000020_Node000017"><a xlink:title=" ">
<path fill="none" stroke="#63b8ff" d="M868.24,-235.51C861.78,-208.43 843.17,-130.36 834.31,-93.17"/>
<polygon fill="#63b8ff" stroke="#63b8ff" points="837.78,-92.64 832.06,-83.73 830.97,-94.26 837.78,-92.64"/>
</a>
</g>
</g>
<!-- Node21 -->
<g id="Node000021" class="node">
<title>Node21</title>
<g id="a_Node000021"><a xlink:title=" ">
<polygon fill="#e0e0e0" stroke="#999999" points="918.12,-200 872.88,-200 872.88,-180 918.12,-180 918.12,-200"/>
<text text-anchor="middle" x="895.5" y="-186.5" font-family="Helvetica,sans-Serif" font-size="10.00">chrono</text>
</a>
</g>
</g>
<!-- Node20&#45;&gt;Node21 -->
<g id="edge33_Node000020_Node000021" class="edge">
<title>Node20&#45;&gt;Node21</title>
<g id="a_edge33_Node000020_Node000021"><a xlink:title=" ">
<path fill="none" stroke="#63b8ff" d="M874.85,-235.59C878.05,-228.7 882.49,-219.1 886.44,-210.57"/>
<polygon fill="#63b8ff" stroke="#63b8ff" points="889.53,-212.22 890.56,-201.67 883.18,-209.28 889.53,-212.22"/>
</a>
</g>
</g>
<!-- Node22 -->
<g id="Node000022" class="node">
<title>Node22</title>
<g id="a_Node000022"><a xlink:title=" ">
<polygon fill="#e0e0e0" stroke="#999999" points="1032.62,-200 936.38,-200 936.38,-180 1032.62,-180 1032.62,-200"/>
<text text-anchor="middle" x="984.5" y="-186.5" font-family="Helvetica,sans-Serif" font-size="10.00">concurrentqueue.h</text>
</a>
</g>
</g>
<!-- Node20&#45;&gt;Node22 -->
<g id="edge34_Node000020_Node000022" class="edge">
<title>Node20&#45;&gt;Node22</title>
<g id="a_edge34_Node000020_Node000022"><a xlink:title=" ">
<path fill="none" stroke="#63b8ff" d="M890.36,-235.59C907.99,-227.24 934.01,-214.92 954.23,-205.34"/>
<polygon fill="#63b8ff" stroke="#63b8ff" points="955.58,-208.57 963.12,-201.13 952.58,-202.25 955.58,-208.57"/>
</a>
</g>
</g>
</g>
</svg>
