<?xml version="1.0" encoding="UTF-8" standalone="no"?>
<!DOCTYPE svg PUBLIC "-//W3C//DTD SVG 1.1//EN"
 "http://www.w3.org/Graphics/SVG/1.1/DTD/svg11.dtd">
<!-- Generated by graphviz version 12.2.1 (20241206.2353)
 -->
<!-- Title: include/EyeAICore/audio/DepthAudioSourceData.hpp Pages: 1 -->
<svg width="522pt" height="232pt"
 viewBox="0.00 0.00 522.00 232.00" xmlns="http://www.w3.org/2000/svg" xmlns:xlink="http://www.w3.org/1999/xlink">
<g id="graph0" class="graph" transform="scale(1 1) rotate(0) translate(4 228)">
<title>include/EyeAICore/audio/DepthAudioSourceData.hpp</title>
<!-- Node1 -->
<g id="Node000001" class="node">
<title>Node1</title>
<g id="a_Node000001"><a xlink:title=" ">
<polygon fill="#999999" stroke="#666666" points="379.25,-224 238.75,-224 238.75,-192 379.25,-192 379.25,-224"/>
<text text-anchor="start" x="246.75" y="-210.5" font-family="Helvetica,sans-Serif" font-size="10.00">include/EyeAICore/audio</text>
<text text-anchor="middle" x="309" y="-198.5" font-family="Helvetica,sans-Serif" font-size="10.00">/DepthAudioSourceData.hpp</text>
</a>
</g>
</g>
<!-- Node2 -->
<g id="Node000002" class="node">
<title>Node2</title>
<g id="a_Node000002"><a xlink:href="AudioMain_8hpp.html" target="_top" xlink:title=" ">
<polygon fill="white" stroke="#666666" points="236,-156 112,-156 112,-124 236,-124 236,-156"/>
<text text-anchor="start" x="120" y="-142.5" font-family="Helvetica,sans-Serif" font-size="10.00">include/EyeAICore/audio</text>
<text text-anchor="middle" x="174" y="-130.5" font-family="Helvetica,sans-Serif" font-size="10.00">/AudioMain.hpp</text>
</a>
</g>
</g>
<!-- Node1&#45;&gt;Node2 -->
<g id="edge1_Node000001_Node000002" class="edge">
<title>Node1&#45;&gt;Node2</title>
<g id="a_edge1_Node000001_Node000002"><a xlink:title=" ">
<path fill="none" stroke="#63b8ff" d="M267.01,-186.47C247.13,-176.75 223.78,-165.34 205.45,-156.38"/>
<polygon fill="#63b8ff" stroke="#63b8ff" points="265.47,-189.61 275.99,-190.86 268.54,-183.32 265.47,-189.61"/>
</a>
</g>
</g>
<!-- Node4 -->
<g id="Node000004" class="node">
<title>Node4</title>
<g id="a_Node000004"><a xlink:href="SpatialAudio_8cpp.html" target="_top" xlink:title=" ">
<polygon fill="white" stroke="#666666" points="218.12,-20 85.88,-20 85.88,0 218.12,0 218.12,-20"/>
<text text-anchor="middle" x="152" y="-6.5" font-family="Helvetica,sans-Serif" font-size="10.00">src/audio/SpatialAudio.cpp</text>
</a>
</g>
</g>
<!-- Node1&#45;&gt;Node4 -->
<g id="edge8_Node000001_Node000004" class="edge">
<title>Node1&#45;&gt;Node4</title>
<g id="a_edge8_Node000001_Node000004"><a xlink:title=" ">
<path fill="none" stroke="#63b8ff" d="M318.68,-180.95C328.99,-148.25 340.39,-92.1 313,-56 300.76,-39.87 254.06,-27.96 214.08,-20.46"/>
<polygon fill="#63b8ff" stroke="#63b8ff" points="315.36,-179.82 315.49,-190.42 322,-182.06 315.36,-179.82"/>
</a>
</g>
</g>
<!-- Node5 -->
<g id="Node000005" class="node">
<title>Node5</title>
<g id="a_Node000005"><a xlink:href="AudioMain_8cpp.html" target="_top" xlink:title=" ">
<polygon fill="white" stroke="#666666" points="303.62,-82 180.38,-82 180.38,-62 303.62,-62 303.62,-82"/>
<text text-anchor="middle" x="242" y="-68.5" font-family="Helvetica,sans-Serif" font-size="10.00">src/audio/AudioMain.cpp</text>
</a>
</g>
</g>
<!-- Node1&#45;&gt;Node5 -->
<g id="edge6_Node000001_Node000005" class="edge">
<title>Node1&#45;&gt;Node5</title>
<g id="a_edge6_Node000001_Node000005"><a xlink:title=" ">
<path fill="none" stroke="#63b8ff" d="M296.21,-181.41C281.09,-151.18 256.71,-102.42 246.61,-82.22"/>
<polygon fill="#63b8ff" stroke="#63b8ff" points="293.03,-182.9 300.64,-190.27 299.3,-179.77 293.03,-182.9"/>
</a>
</g>
</g>
<!-- Node6 -->
<g id="Node000006" class="node">
<title>Node6</title>
<g id="a_Node000006"><a xlink:href="AudioSourceData_8cpp.html" target="_top" xlink:title=" ">
<polygon fill="white" stroke="#666666" points="514,-150 360,-150 360,-130 514,-130 514,-150"/>
<text text-anchor="middle" x="437" y="-136.5" font-family="Helvetica,sans-Serif" font-size="10.00">src/audio/AudioSourceData.cpp</text>
</a>
</g>
</g>
<!-- Node1&#45;&gt;Node6 -->
<g id="edge7_Node000001_Node000006" class="edge">
<title>Node1&#45;&gt;Node6</title>
<g id="a_edge7_Node000001_Node000006"><a xlink:title=" ">
<path fill="none" stroke="#63b8ff" d="M348.98,-186.39C372.28,-174.37 400.55,-159.79 418.65,-150.46"/>
<polygon fill="#63b8ff" stroke="#63b8ff" points="347.64,-183.14 340.36,-190.83 350.85,-189.36 347.64,-183.14"/>
</a>
</g>
</g>
<!-- Node3 -->
<g id="Node000003" class="node">
<title>Node3</title>
<g id="a_Node000003"><a xlink:href="SpatialAudio_8hpp.html" target="_top" xlink:title=" ">
<polygon fill="white" stroke="#666666" points="124,-88 0,-88 0,-56 124,-56 124,-88"/>
<text text-anchor="start" x="8" y="-74.5" font-family="Helvetica,sans-Serif" font-size="10.00">include/EyeAICore/audio</text>
<text text-anchor="middle" x="62" y="-62.5" font-family="Helvetica,sans-Serif" font-size="10.00">/SpatialAudio.hpp</text>
</a>
</g>
</g>
<!-- Node2&#45;&gt;Node3 -->
<g id="edge2_Node000002_Node000003" class="edge">
<title>Node2&#45;&gt;Node3</title>
<g id="a_edge2_Node000002_Node000003"><a xlink:title=" ">
<path fill="none" stroke="#63b8ff" d="M138.02,-117.8C121.78,-108.23 102.95,-97.13 88.09,-88.38"/>
<polygon fill="#63b8ff" stroke="#63b8ff" points="136.04,-120.7 146.44,-122.76 139.6,-114.67 136.04,-120.7"/>
</a>
</g>
</g>
<!-- Node2&#45;&gt;Node4 -->
<g id="edge5_Node000002_Node000004" class="edge">
<title>Node2&#45;&gt;Node4</title>
<g id="a_edge5_Node000002_Node000004"><a xlink:title=" ">
<path fill="none" stroke="#63b8ff" d="M169.41,-112.31C164.47,-83.57 156.88,-39.42 153.6,-20.33"/>
<polygon fill="#63b8ff" stroke="#63b8ff" points="165.95,-112.81 171.09,-122.07 172.85,-111.62 165.95,-112.81"/>
</a>
</g>
</g>
<!-- Node2&#45;&gt;Node5 -->
<g id="edge4_Node000002_Node000005" class="edge">
<title>Node2&#45;&gt;Node5</title>
<g id="a_edge4_Node000002_Node000005"><a xlink:title=" ">
<path fill="none" stroke="#63b8ff" d="M198,-115.71C209.85,-104.2 223.49,-90.97 232.4,-82.32"/>
<polygon fill="#63b8ff" stroke="#63b8ff" points="195.6,-113.16 190.86,-122.64 200.47,-118.18 195.6,-113.16"/>
</a>
</g>
</g>
<!-- Node3&#45;&gt;Node4 -->
<g id="edge3_Node000003_Node000004" class="edge">
<title>Node3&#45;&gt;Node4</title>
<g id="a_edge3_Node000003_Node000004"><a xlink:title=" ">
<path fill="none" stroke="#63b8ff" d="M94.6,-49.27C109.47,-39.35 126.31,-28.12 137.89,-20.41"/>
<polygon fill="#63b8ff" stroke="#63b8ff" points="92.82,-46.25 86.44,-54.71 96.7,-52.07 92.82,-46.25"/>
</a>
</g>
</g>
</g>
</svg>
