<?xml version="1.0" encoding="UTF-8" standalone="no"?>
<!DOCTYPE svg PUBLIC "-//W3C//DTD SVG 1.1//EN"
 "http://www.w3.org/Graphics/SVG/1.1/DTD/svg11.dtd">
<!-- Generated by graphviz version 2.43.0 (0)
 -->
<!-- Title: src/DepthModel.cpp Pages: 1 -->
<svg width="1117pt" height="319pt"
 viewBox="0.00 0.00 1116.50 319.00" xmlns="http://www.w3.org/2000/svg" xmlns:xlink="http://www.w3.org/1999/xlink">
<g id="graph0" class="graph" transform="scale(1 1) rotate(0) translate(4 315)">
<title>src/DepthModel.cpp</title>
<!-- Node1 -->
<g id="node1" class="node">
<title>Node1</title>
<g id="a_node1"><a xlink:title=" ">
<polygon fill="#bfbfbf" stroke="black" points="494.5,-291.5 494.5,-310.5 607.5,-310.5 607.5,-291.5 494.5,-291.5"/>
<text text-anchor="middle" x="551" y="-298.5" font-family="Helvetica,sans-Serif" font-size="10.00">src/DepthModel.cpp</text>
</a>
</g>
</g>
<!-- Node2 -->
<g id="node2" class="node">
<title>Node2</title>
<g id="a_node2"><a xlink:href="DepthModel_8hpp.html" target="_top" xlink:title=" ">
<polygon fill="none" stroke="black" points="528,-235.5 528,-254.5 678,-254.5 678,-235.5 528,-235.5"/>
<text text-anchor="middle" x="603" y="-242.5" font-family="Helvetica,sans-Serif" font-size="10.00">EyeAICore/DepthModel.hpp</text>
</a>
</g>
</g>
<!-- Node1&#45;&gt;Node2 -->
<g id="edge1" class="edge">
<title>Node1&#45;&gt;Node2</title>
<path fill="none" stroke="midnightblue" d="M559.59,-291.08C567.16,-283.22 578.38,-271.57 587.51,-262.08"/>
<polygon fill="midnightblue" stroke="midnightblue" points="590.16,-264.38 594.57,-254.75 585.12,-259.53 590.16,-264.38"/>
</g>
<!-- Node3 -->
<g id="node3" class="node">
<title>Node3</title>
<g id="a_node3"><a xlink:href="TfLiteRuntime_8hpp.html" target="_top" xlink:title=" ">
<polygon fill="none" stroke="black" points="459.5,-179.5 459.5,-198.5 644.5,-198.5 644.5,-179.5 459.5,-179.5"/>
<text text-anchor="middle" x="552" y="-186.5" font-family="Helvetica,sans-Serif" font-size="10.00">EyeAICore/tflite/TfLiteRuntime.hpp</text>
</a>
</g>
</g>
<!-- Node1&#45;&gt;Node3 -->
<g id="edge31" class="edge">
<title>Node1&#45;&gt;Node3</title>
<path fill="none" stroke="midnightblue" d="M541.56,-291.09C529.82,-278.87 512.11,-256.04 519,-235 522.49,-224.34 529.57,-214.12 536.29,-206.12"/>
<polygon fill="midnightblue" stroke="midnightblue" points="538.9,-208.44 542.98,-198.66 533.7,-203.76 538.9,-208.44"/>
</g>
<!-- Node4 -->
<g id="node4" class="node">
<title>Node4</title>
<g id="a_node4"><a xlink:href="Operators_8hpp.html" target="_top" xlink:title=" ">
<polygon fill="none" stroke="black" points="108.5,-62 108.5,-81 247.5,-81 247.5,-62 108.5,-62"/>
<text text-anchor="middle" x="178" y="-69" font-family="Helvetica,sans-Serif" font-size="10.00">EyeAICore/Operators.hpp</text>
</a>
</g>
</g>
<!-- Node1&#45;&gt;Node4 -->
<g id="edge30" class="edge">
<title>Node1&#45;&gt;Node4</title>
<path fill="none" stroke="midnightblue" d="M522.37,-291.48C462.46,-272.58 321.69,-222.43 228,-143 210.54,-128.2 196.13,-105.99 187.34,-90.47"/>
<polygon fill="midnightblue" stroke="midnightblue" points="190.25,-88.5 182.4,-81.38 184.1,-91.84 190.25,-88.5"/>
</g>
<!-- Node20 -->
<g id="node20" class="node">
<title>Node20</title>
<g id="a_node20"><a xlink:href="Profiling_8hpp.html" target="_top" xlink:title=" ">
<polygon fill="none" stroke="black" points="854.5,-235.5 854.5,-254.5 1009.5,-254.5 1009.5,-235.5 854.5,-235.5"/>
<text text-anchor="middle" x="932" y="-242.5" font-family="Helvetica,sans-Serif" font-size="10.00">EyeAICore/utils/Profiling.hpp</text>
</a>
</g>
</g>
<!-- Node1&#45;&gt;Node20 -->
<g id="edge32" class="edge">
<title>Node1&#45;&gt;Node20</title>
<path fill="none" stroke="midnightblue" d="M607.63,-291.97C675.34,-282.38 788.67,-266.31 861.86,-255.94"/>
<polygon fill="midnightblue" stroke="midnightblue" points="862.5,-259.38 871.91,-254.52 861.52,-252.45 862.5,-259.38"/>
</g>
<!-- Node2&#45;&gt;Node3 -->
<g id="edge2" class="edge">
<title>Node2&#45;&gt;Node3</title>
<path fill="none" stroke="midnightblue" d="M594.58,-235.08C587.15,-227.22 576.15,-215.57 567.19,-206.08"/>
<polygon fill="midnightblue" stroke="midnightblue" points="569.68,-203.62 560.26,-198.75 564.59,-208.42 569.68,-203.62"/>
</g>
<!-- Node3&#45;&gt;Node4 -->
<g id="edge3" class="edge">
<title>Node3&#45;&gt;Node4</title>
<path fill="none" stroke="midnightblue" d="M459.22,-186.28C400.42,-182.18 324.05,-171.17 262,-143 233.95,-130.27 207.8,-105.47 192.36,-88.94"/>
<polygon fill="midnightblue" stroke="midnightblue" points="194.61,-86.22 185.3,-81.16 189.43,-90.92 194.61,-86.22"/>
</g>
<!-- Node7 -->
<g id="node7" class="node">
<title>Node7</title>
<g id="a_node7"><a xlink:title=" ">
<polygon fill="none" stroke="#bfbfbf" points="636,-0.5 636,-19.5 694,-19.5 694,-0.5 636,-0.5"/>
<text text-anchor="middle" x="665" y="-7.5" font-family="Helvetica,sans-Serif" font-size="10.00">memory</text>
</a>
</g>
</g>
<!-- Node3&#45;&gt;Node7 -->
<g id="edge26" class="edge">
<title>Node3&#45;&gt;Node7</title>
<path fill="none" stroke="midnightblue" d="M636.08,-179.49C695.53,-168.59 771.3,-143.72 810,-87 838.69,-44.96 756.3,-24.55 704.19,-16.08"/>
<polygon fill="midnightblue" stroke="midnightblue" points="704.63,-12.6 694.21,-14.54 703.56,-19.52 704.63,-12.6"/>
</g>
<!-- Node9 -->
<g id="node9" class="node">
<title>Node9</title>
<g id="a_node9"><a xlink:title=" ">
<polygon fill="none" stroke="#bfbfbf" points="0,-0.5 0,-19.5 40,-19.5 40,-0.5 0,-0.5"/>
<text text-anchor="middle" x="20" y="-7.5" font-family="Helvetica,sans-Serif" font-size="10.00">span</text>
</a>
</g>
</g>
<!-- Node3&#45;&gt;Node9 -->
<g id="edge27" class="edge">
<title>Node3&#45;&gt;Node9</title>
<path fill="none" stroke="midnightblue" d="M459.34,-180.08C332.8,-167.47 114.88,-138.81 56,-87 38.83,-71.89 29.19,-46.81 24.3,-29.62"/>
<polygon fill="midnightblue" stroke="midnightblue" points="27.61,-28.46 21.74,-19.65 20.83,-30.2 27.61,-28.46"/>
</g>
<!-- Node10 -->
<g id="node10" class="node">
<title>Node10</title>
<g id="a_node10"><a xlink:title=" ">
<polygon fill="none" stroke="#bfbfbf" points="326,-0.5 326,-19.5 370,-19.5 370,-0.5 326,-0.5"/>
<text text-anchor="middle" x="348" y="-7.5" font-family="Helvetica,sans-Serif" font-size="10.00">string</text>
</a>
</g>
</g>
<!-- Node3&#45;&gt;Node10 -->
<g id="edge28" class="edge">
<title>Node3&#45;&gt;Node10</title>
<path fill="none" stroke="midnightblue" d="M495.97,-179.42C443.73,-168.13 368.66,-142.72 333,-87 321.71,-69.36 329.7,-45.07 337.7,-28.74"/>
<polygon fill="midnightblue" stroke="midnightblue" points="340.88,-30.2 342.5,-19.73 334.71,-26.91 340.88,-30.2"/>
</g>
<!-- Node12 -->
<g id="node12" class="node">
<title>Node12</title>
<g id="a_node12"><a xlink:href="TfLiteUtils_8hpp.html" target="_top" xlink:title=" ">
<polygon fill="none" stroke="black" points="470,-123.5 470,-142.5 558,-142.5 558,-123.5 470,-123.5"/>
<text text-anchor="middle" x="514" y="-130.5" font-family="Helvetica,sans-Serif" font-size="10.00">TfLiteUtils.hpp</text>
</a>
</g>
</g>
<!-- Node3&#45;&gt;Node12 -->
<g id="edge11" class="edge">
<title>Node3&#45;&gt;Node12</title>
<path fill="none" stroke="midnightblue" d="M545.73,-179.08C540.36,-171.46 532.48,-160.26 525.92,-150.94"/>
<polygon fill="midnightblue" stroke="midnightblue" points="528.78,-148.91 520.16,-142.75 523.05,-152.94 528.78,-148.91"/>
</g>
<!-- Node17 -->
<g id="node17" class="node">
<title>Node17</title>
<g id="a_node17"><a xlink:title=" ">
<polygon fill="none" stroke="#bfbfbf" points="857.5,-62 857.5,-81 930.5,-81 930.5,-62 857.5,-62"/>
<text text-anchor="middle" x="894" y="-69" font-family="Helvetica,sans-Serif" font-size="10.00">string_view</text>
</a>
</g>
</g>
<!-- Node3&#45;&gt;Node17 -->
<g id="edge29" class="edge">
<title>Node3&#45;&gt;Node17</title>
<path fill="none" stroke="midnightblue" d="M644.62,-181.44C716.95,-174.9 810.46,-162.91 843,-143 863.28,-130.6 877.89,-106.81 886.15,-90.31"/>
<polygon fill="midnightblue" stroke="midnightblue" points="889.37,-91.69 890.46,-81.16 883.03,-88.71 889.37,-91.69"/>
</g>
<!-- Node18 -->
<g id="node18" class="node">
<title>Node18</title>
<g id="a_node18"><a xlink:title=" ">
<polygon fill="none" stroke="#bfbfbf" points="542.5,-56.5 542.5,-86.5 645.5,-86.5 645.5,-56.5 542.5,-56.5"/>
<text text-anchor="start" x="550.5" y="-74.5" font-family="Helvetica,sans-Serif" font-size="10.00">tensorflow/lite/c/c</text>
<text text-anchor="middle" x="594" y="-63.5" font-family="Helvetica,sans-Serif" font-size="10.00">_api.h</text>
</a>
</g>
</g>
<!-- Node3&#45;&gt;Node18 -->
<g id="edge24" class="edge">
<title>Node3&#45;&gt;Node18</title>
<path fill="none" stroke="midnightblue" d="M555.16,-179.32C561.52,-161.81 576.09,-121.75 585.47,-95.97"/>
<polygon fill="midnightblue" stroke="midnightblue" points="588.76,-97.14 588.89,-86.55 582.19,-94.75 588.76,-97.14"/>
</g>
<!-- Node19 -->
<g id="node19" class="node">
<title>Node19</title>
<g id="a_node19"><a xlink:title=" ">
<polygon fill="none" stroke="#bfbfbf" points="663.5,-56.5 663.5,-86.5 800.5,-86.5 800.5,-56.5 663.5,-56.5"/>
<text text-anchor="start" x="671.5" y="-74.5" font-family="Helvetica,sans-Serif" font-size="10.00">tensorflow/lite/delegates</text>
<text text-anchor="middle" x="732" y="-63.5" font-family="Helvetica,sans-Serif" font-size="10.00">/gpu/delegate.h</text>
</a>
</g>
</g>
<!-- Node3&#45;&gt;Node19 -->
<g id="edge25" class="edge">
<title>Node3&#45;&gt;Node19</title>
<path fill="none" stroke="midnightblue" d="M565.53,-179.32C594.26,-160.88 661.98,-117.43 701.63,-91.99"/>
<polygon fill="midnightblue" stroke="midnightblue" points="703.59,-94.89 710.11,-86.55 699.8,-89 703.59,-94.89"/>
</g>
<!-- Node5 -->
<g id="node5" class="node">
<title>Node5</title>
<g id="a_node5"><a xlink:title=" ">
<polygon fill="none" stroke="#bfbfbf" points="58,-0.5 58,-19.5 100,-19.5 100,-0.5 58,-0.5"/>
<text text-anchor="middle" x="79" y="-7.5" font-family="Helvetica,sans-Serif" font-size="10.00">array</text>
</a>
</g>
</g>
<!-- Node4&#45;&gt;Node5 -->
<g id="edge4" class="edge">
<title>Node4&#45;&gt;Node5</title>
<path fill="none" stroke="midnightblue" d="M163.82,-61.98C147.64,-52.25 120.97,-36.23 101.86,-24.74"/>
<polygon fill="midnightblue" stroke="midnightblue" points="103.53,-21.66 93.16,-19.51 99.93,-27.66 103.53,-21.66"/>
</g>
<!-- Node6 -->
<g id="node6" class="node">
<title>Node6</title>
<g id="a_node6"><a xlink:title=" ">
<polygon fill="none" stroke="#bfbfbf" points="184,-0.5 184,-19.5 234,-19.5 234,-0.5 184,-0.5"/>
<text text-anchor="middle" x="209" y="-7.5" font-family="Helvetica,sans-Serif" font-size="10.00">cstdint</text>
</a>
</g>
</g>
<!-- Node4&#45;&gt;Node6 -->
<g id="edge5" class="edge">
<title>Node4&#45;&gt;Node6</title>
<path fill="none" stroke="midnightblue" d="M182.44,-61.98C186.95,-53.32 194.07,-39.65 199.81,-28.65"/>
<polygon fill="midnightblue" stroke="midnightblue" points="203.05,-29.99 204.57,-19.51 196.84,-26.76 203.05,-29.99"/>
</g>
<!-- Node4&#45;&gt;Node7 -->
<g id="edge6" class="edge">
<title>Node4&#45;&gt;Node7</title>
<path fill="none" stroke="midnightblue" d="M247.7,-63.7C350.86,-53.46 540.35,-33.97 625.73,-20"/>
<polygon fill="midnightblue" stroke="midnightblue" points="626.34,-23.45 635.61,-18.33 625.17,-16.55 626.34,-23.45"/>
</g>
<!-- Node8 -->
<g id="node8" class="node">
<title>Node8</title>
<g id="a_node8"><a xlink:title=" ">
<polygon fill="none" stroke="#bfbfbf" points="252,-0.5 252,-19.5 308,-19.5 308,-0.5 252,-0.5"/>
<text text-anchor="middle" x="280" y="-7.5" font-family="Helvetica,sans-Serif" font-size="10.00">optional</text>
</a>
</g>
</g>
<!-- Node4&#45;&gt;Node8 -->
<g id="edge7" class="edge">
<title>Node4&#45;&gt;Node8</title>
<path fill="none" stroke="midnightblue" d="M192.61,-61.98C209.35,-52.21 237,-36.08 256.72,-24.58"/>
<polygon fill="midnightblue" stroke="midnightblue" points="258.54,-27.57 265.41,-19.51 255.01,-21.52 258.54,-27.57"/>
</g>
<!-- Node4&#45;&gt;Node9 -->
<g id="edge8" class="edge">
<title>Node4&#45;&gt;Node9</title>
<path fill="none" stroke="midnightblue" d="M155.36,-61.98C127.61,-51.52 80.5,-33.78 49.82,-22.23"/>
<polygon fill="midnightblue" stroke="midnightblue" points="50.69,-18.82 40.09,-18.57 48.22,-25.37 50.69,-18.82"/>
</g>
<!-- Node4&#45;&gt;Node10 -->
<g id="edge9" class="edge">
<title>Node4&#45;&gt;Node10</title>
<path fill="none" stroke="midnightblue" d="M202.36,-61.98C232.31,-51.49 283.23,-33.67 316.23,-22.12"/>
<polygon fill="midnightblue" stroke="midnightblue" points="317.57,-25.36 325.85,-18.75 315.26,-18.75 317.57,-25.36"/>
</g>
<!-- Node11 -->
<g id="node11" class="node">
<title>Node11</title>
<g id="a_node11"><a xlink:title=" ">
<polygon fill="none" stroke="#bfbfbf" points="118.5,-0.5 118.5,-19.5 165.5,-19.5 165.5,-0.5 118.5,-0.5"/>
<text text-anchor="middle" x="142" y="-7.5" font-family="Helvetica,sans-Serif" font-size="10.00">vector</text>
</a>
</g>
</g>
<!-- Node4&#45;&gt;Node11 -->
<g id="edge10" class="edge">
<title>Node4&#45;&gt;Node11</title>
<path fill="none" stroke="midnightblue" d="M172.84,-61.98C167.55,-53.23 159.16,-39.37 152.47,-28.31"/>
<polygon fill="midnightblue" stroke="midnightblue" points="155.32,-26.25 147.15,-19.51 149.33,-29.88 155.32,-26.25"/>
</g>
<!-- Node12&#45;&gt;Node4 -->
<g id="edge12" class="edge">
<title>Node12&#45;&gt;Node4</title>
<path fill="none" stroke="midnightblue" d="M469.73,-124.16C409.73,-113.53 302.47,-94.54 236.07,-82.78"/>
<polygon fill="midnightblue" stroke="midnightblue" points="236.63,-79.33 226.18,-81.03 235.41,-86.22 236.63,-79.33"/>
</g>
<!-- Node12&#45;&gt;Node7 -->
<g id="edge18" class="edge">
<title>Node12&#45;&gt;Node7</title>
<path fill="none" stroke="midnightblue" d="M513.78,-123.24C513.89,-107.66 516.36,-74.99 534,-56 540.53,-48.97 589.78,-33.23 625.98,-22.37"/>
<polygon fill="midnightblue" stroke="midnightblue" points="627.21,-25.65 635.79,-19.44 625.21,-18.94 627.21,-25.65"/>
</g>
<!-- Node12&#45;&gt;Node8 -->
<g id="edge19" class="edge">
<title>Node12&#45;&gt;Node8</title>
<path fill="none" stroke="midnightblue" d="M469.88,-129.69C430.86,-125.74 373.94,-115.18 333,-87 311.73,-72.36 296.3,-46.21 287.74,-28.73"/>
<polygon fill="midnightblue" stroke="midnightblue" points="290.89,-27.19 283.51,-19.59 284.54,-30.14 290.89,-27.19"/>
</g>
<!-- Node12&#45;&gt;Node9 -->
<g id="edge20" class="edge">
<title>Node12&#45;&gt;Node9</title>
<path fill="none" stroke="midnightblue" d="M469.76,-130.79C376.71,-127.68 164,-117.37 99,-87 70.81,-73.83 46.4,-46.48 32.45,-28.44"/>
<polygon fill="midnightblue" stroke="midnightblue" points="34.92,-25.9 26.14,-19.98 29.31,-30.08 34.92,-25.9"/>
</g>
<!-- Node13 -->
<g id="node13" class="node">
<title>Node13</title>
<g id="a_node13"><a xlink:href="Errors_8hpp.html" target="_top" xlink:title=" ">
<polygon fill="none" stroke="black" points="342.5,-62 342.5,-81 485.5,-81 485.5,-62 342.5,-62"/>
<text text-anchor="middle" x="414" y="-69" font-family="Helvetica,sans-Serif" font-size="10.00">EyeAICore/utils/Errors.hpp</text>
</a>
</g>
</g>
<!-- Node12&#45;&gt;Node13 -->
<g id="edge13" class="edge">
<title>Node12&#45;&gt;Node13</title>
<path fill="none" stroke="midnightblue" d="M499.67,-123.48C483.34,-113.75 456.4,-97.73 437.09,-86.24"/>
<polygon fill="midnightblue" stroke="midnightblue" points="438.68,-83.11 428.3,-81.01 435.11,-89.13 438.68,-83.11"/>
</g>
<!-- Node12&#45;&gt;Node17 -->
<g id="edge21" class="edge">
<title>Node12&#45;&gt;Node17</title>
<path fill="none" stroke="midnightblue" d="M558.17,-125.57C616.06,-117.07 720.72,-101.49 810,-87 822.1,-85.04 835.16,-82.83 847.29,-80.73"/>
<polygon fill="midnightblue" stroke="midnightblue" points="847.97,-84.17 857.23,-79.01 846.78,-77.27 847.97,-84.17"/>
</g>
<!-- Node12&#45;&gt;Node18 -->
<g id="edge22" class="edge">
<title>Node12&#45;&gt;Node18</title>
<path fill="none" stroke="midnightblue" d="M525.46,-123.48C536.2,-115.49 552.65,-103.25 566.75,-92.77"/>
<polygon fill="midnightblue" stroke="midnightblue" points="569.21,-95.3 575.15,-86.52 565.03,-89.68 569.21,-95.3"/>
</g>
<!-- Node12&#45;&gt;Node19 -->
<g id="edge23" class="edge">
<title>Node12&#45;&gt;Node19</title>
<path fill="none" stroke="midnightblue" d="M545.23,-123.48C577.86,-114.57 629.89,-100.37 670.76,-89.22"/>
<polygon fill="midnightblue" stroke="midnightblue" points="671.9,-92.53 680.62,-86.52 670.05,-85.78 671.9,-92.53"/>
</g>
<!-- Node13&#45;&gt;Node10 -->
<g id="edge15" class="edge">
<title>Node13&#45;&gt;Node10</title>
<path fill="none" stroke="midnightblue" d="M404.54,-61.98C394.25,-52.7 377.58,-37.67 365.01,-26.33"/>
<polygon fill="midnightblue" stroke="midnightblue" points="367.21,-23.61 357.44,-19.51 362.52,-28.8 367.21,-23.61"/>
</g>
<!-- Node14 -->
<g id="node14" class="node">
<title>Node14</title>
<g id="a_node14"><a xlink:title=" ">
<polygon fill="none" stroke="#bfbfbf" points="458,-0.5 458,-19.5 508,-19.5 508,-0.5 458,-0.5"/>
<text text-anchor="middle" x="483" y="-7.5" font-family="Helvetica,sans-Serif" font-size="10.00">format</text>
</a>
</g>
</g>
<!-- Node13&#45;&gt;Node14 -->
<g id="edge14" class="edge">
<title>Node13&#45;&gt;Node14</title>
<path fill="none" stroke="midnightblue" d="M423.89,-61.98C434.65,-52.7 452.07,-37.67 465.22,-26.33"/>
<polygon fill="midnightblue" stroke="midnightblue" points="467.84,-28.69 473.13,-19.51 463.27,-23.39 467.84,-28.69"/>
</g>
<!-- Node15 -->
<g id="node15" class="node">
<title>Node15</title>
<g id="a_node15"><a xlink:title=" ">
<polygon fill="none" stroke="#bfbfbf" points="526,-0.5 526,-19.5 618,-19.5 618,-0.5 526,-0.5"/>
<text text-anchor="middle" x="572" y="-7.5" font-family="Helvetica,sans-Serif" font-size="10.00">tl/expected.hpp</text>
</a>
</g>
</g>
<!-- Node13&#45;&gt;Node15 -->
<g id="edge16" class="edge">
<title>Node13&#45;&gt;Node15</title>
<path fill="none" stroke="midnightblue" d="M436.64,-61.98C463.74,-51.77 509.31,-34.61 540,-23.05"/>
<polygon fill="midnightblue" stroke="midnightblue" points="541.28,-26.31 549.4,-19.51 538.81,-19.76 541.28,-26.31"/>
</g>
<!-- Node16 -->
<g id="node16" class="node">
<title>Node16</title>
<g id="a_node16"><a xlink:title=" ">
<polygon fill="none" stroke="#bfbfbf" points="388.5,-0.5 388.5,-19.5 439.5,-19.5 439.5,-0.5 388.5,-0.5"/>
<text text-anchor="middle" x="414" y="-7.5" font-family="Helvetica,sans-Serif" font-size="10.00">variant</text>
</a>
</g>
</g>
<!-- Node13&#45;&gt;Node16 -->
<g id="edge17" class="edge">
<title>Node13&#45;&gt;Node16</title>
<path fill="none" stroke="midnightblue" d="M414,-61.98C414,-53.58 414,-40.48 414,-29.66"/>
<polygon fill="midnightblue" stroke="midnightblue" points="417.5,-29.51 414,-19.51 410.5,-29.51 417.5,-29.51"/>
</g>
<!-- Node20&#45;&gt;Node17 -->
<g id="edge35" class="edge">
<title>Node20&#45;&gt;Node17</title>
<path fill="none" stroke="midnightblue" d="M930.06,-235.26C924.14,-208.54 906.19,-127.52 898.07,-90.86"/>
<polygon fill="midnightblue" stroke="midnightblue" points="901.47,-90.03 895.89,-81.02 894.63,-91.54 901.47,-90.03"/>
</g>
<!-- Node21 -->
<g id="node21" class="node">
<title>Node21</title>
<g id="a_node21"><a xlink:title=" ">
<polygon fill="none" stroke="#bfbfbf" points="933,-179.5 933,-198.5 983,-198.5 983,-179.5 933,-179.5"/>
<text text-anchor="middle" x="958" y="-186.5" font-family="Helvetica,sans-Serif" font-size="10.00">chrono</text>
</a>
</g>
</g>
<!-- Node20&#45;&gt;Node21 -->
<g id="edge33" class="edge">
<title>Node20&#45;&gt;Node21</title>
<path fill="none" stroke="midnightblue" d="M936.29,-235.08C939.85,-227.69 945.02,-216.95 949.42,-207.81"/>
<polygon fill="midnightblue" stroke="midnightblue" points="952.6,-209.28 953.79,-198.75 946.29,-206.24 952.6,-209.28"/>
</g>
<!-- Node22 -->
<g id="node22" class="node">
<title>Node22</title>
<g id="a_node22"><a xlink:title=" ">
<polygon fill="none" stroke="#bfbfbf" points="1001.5,-179.5 1001.5,-198.5 1108.5,-198.5 1108.5,-179.5 1001.5,-179.5"/>
<text text-anchor="middle" x="1055" y="-186.5" font-family="Helvetica,sans-Serif" font-size="10.00">concurrentqueue.h</text>
</a>
</g>
</g>
<!-- Node20&#45;&gt;Node22 -->
<g id="edge34" class="edge">
<title>Node20&#45;&gt;Node22</title>
<path fill="none" stroke="midnightblue" d="M951.49,-235.44C971.64,-226.6 1003.32,-212.69 1026.33,-202.59"/>
<polygon fill="midnightblue" stroke="midnightblue" points="1027.85,-205.74 1035.6,-198.52 1025.04,-199.33 1027.85,-205.74"/>
</g>
</g>
</svg>
