<?xml version="1.0" encoding="UTF-8" standalone="no"?>
<!DOCTYPE svg PUBLIC "-//W3C//DTD SVG 1.1//EN"
 "http://www.w3.org/Graphics/SVG/1.1/DTD/svg11.dtd">
<!-- Generated by graphviz version 12.2.1 (20241206.2353)
 -->
<!-- Title: include/EyeAICore/utils/DepthColormap.hpp Pages: 1 -->
<svg width="171pt" height="96pt"
 viewBox="0.00 0.00 170.88 96.00" xmlns="http://www.w3.org/2000/svg" xmlns:xlink="http://www.w3.org/1999/xlink">
<g id="graph0" class="graph" transform="scale(1 1) rotate(0) translate(4 92)">
<title>include/EyeAICore/utils/DepthColormap.hpp</title>
<!-- Node1 -->
<g id="Node000001" class="node">
<title>Node1</title>
<g id="a_Node000001"><a xlink:title=" ">
<polygon fill="#999999" stroke="#666666" points="145.25,-88 26.5,-88 26.5,-56 145.25,-56 145.25,-88"/>
<text text-anchor="start" x="34.5" y="-74.5" font-family="Helvetica,sans-Serif" font-size="10.00">include/EyeAICore/utils</text>
<text text-anchor="middle" x="85.88" y="-62.5" font-family="Helvetica,sans-Serif" font-size="10.00">/DepthColormap.hpp</text>
</a>
</g>
</g>
<!-- Node2 -->
<g id="Node000002" class="node">
<title>Node2</title>
<g id="a_Node000002"><a xlink:title=" ">
<polygon fill="#e0e0e0" stroke="#999999" points="49.75,-20 0,-20 0,0 49.75,0 49.75,-20"/>
<text text-anchor="middle" x="24.88" y="-6.5" font-family="Helvetica,sans-Serif" font-size="10.00">optional</text>
</a>
</g>
</g>
<!-- Node1&#45;&gt;Node2 -->
<g id="edge1_Node000001_Node000002" class="edge">
<title>Node1&#45;&gt;Node2</title>
<g id="a_edge1_Node000001_Node000002"><a xlink:title=" ">
<path fill="none" stroke="#63b8ff" d="M70.17,-55.55C61.69,-47.22 51.21,-36.91 42.47,-28.3"/>
<polygon fill="#63b8ff" stroke="#63b8ff" points="45.1,-25.99 35.52,-21.47 40.19,-30.98 45.1,-25.99"/>
</a>
</g>
</g>
<!-- Node3 -->
<g id="Node000003" class="node">
<title>Node3</title>
<g id="a_Node000003"><a xlink:title=" ">
<polygon fill="#e0e0e0" stroke="#999999" points="104.38,-20 67.38,-20 67.38,0 104.38,0 104.38,-20"/>
<text text-anchor="middle" x="85.88" y="-6.5" font-family="Helvetica,sans-Serif" font-size="10.00">span</text>
</a>
</g>
</g>
<!-- Node1&#45;&gt;Node3 -->
<g id="edge2_Node000001_Node000003" class="edge">
<title>Node1&#45;&gt;Node3</title>
<g id="a_edge2_Node000001_Node000003"><a xlink:title=" ">
<path fill="none" stroke="#63b8ff" d="M85.88,-55.55C85.88,-48.34 85.88,-39.66 85.88,-31.88"/>
<polygon fill="#63b8ff" stroke="#63b8ff" points="89.38,-31.92 85.88,-21.92 82.38,-31.92 89.38,-31.92"/>
</a>
</g>
</g>
<!-- Node4 -->
<g id="Node000004" class="node">
<title>Node4</title>
<g id="a_Node000004"><a xlink:title=" ">
<polygon fill="#e0e0e0" stroke="#999999" points="162.88,-20 122.88,-20 122.88,0 162.88,0 162.88,-20"/>
<text text-anchor="middle" x="142.88" y="-6.5" font-family="Helvetica,sans-Serif" font-size="10.00">string</text>
</a>
</g>
</g>
<!-- Node1&#45;&gt;Node4 -->
<g id="edge3_Node000001_Node000004" class="edge">
<title>Node1&#45;&gt;Node4</title>
<g id="a_edge3_Node000001_Node000004"><a xlink:title=" ">
<path fill="none" stroke="#63b8ff" d="M100.55,-55.55C108.39,-47.3 118.06,-37.12 126.18,-28.57"/>
<polygon fill="#63b8ff" stroke="#63b8ff" points="128.54,-31.17 132.89,-21.51 123.47,-26.34 128.54,-31.17"/>
</a>
</g>
</g>
</g>
</svg>
