<?xml version="1.0" encoding="UTF-8" standalone="no"?>
<!DOCTYPE svg PUBLIC "-//W3C//DTD SVG 1.1//EN"
 "http://www.w3.org/Graphics/SVG/1.1/DTD/svg11.dtd">
<!-- Generated by graphviz version 12.2.1 (20241206.2353)
 -->
<!-- Title: src/DepthModel.cpp Pages: 1 -->
<!--zoomable 320 -->

<svg id="main" version="1.1" xmlns="http://www.w3.org/2000/svg" xmlns:xlink="http://www.w3.org/1999/xlink" xml:space="preserve" onload="init(evt)">

<style type="text/css"><![CDATA[
.node, .edge {opacity: 0.7;}
.node.selected, .edge.selected {opacity: 1;}
.edge:hover path { stroke: red; }
.edge:hover polygon { stroke: red; fill: red; }
]]></style>

<defs>
  <circle id="rim" cx="0" cy="0" r="7"/>
  <circle id="rim2" cx="0" cy="0" r="3.5"/>
  <g id="zoomPlus">
    <use xlink:href="#rim" fill="#404040"><set attributeName="fill" to="#808080" begin="zoomplus.mouseover" end="zoomplus.mouseout"/></use>
    <path d="M-4,0h8M0,-4v8" fill="none" stroke="white" stroke-width="1.5" pointer-events="none"/>
  </g>
  <g id="zoomMin">
    <use xlink:href="#rim" fill="#404040"><set attributeName="fill" to="#808080" begin="zoomminus.mouseover" end="zoomminus.mouseout"/></use>
    <path d="M-4,0h8" fill="none" stroke="white" stroke-width="1.5" pointer-events="none"/>
  </g>
  <g id="arrowUp" transform="translate(30 24)">
    <use xlink:href="#rim"/>
    <path pointer-events="none" fill="none" stroke="white" stroke-width="1.5" d="M0,-3.0v7 M-2.5,-0.5L0,-3.0L2.5,-0.5"/>
  </g>
  <g id="arrowRight" transform="rotate(90) translate(36 -43)">
    <use xlink:href="#rim"/>
    <path pointer-events="none" fill="none" stroke="white" stroke-width="1.5" d="M0,-3.0v7 M-2.5,-0.5L0,-3.0L2.5,-0.5"/>
  </g>
  <g id="arrowDown" transform="rotate(180) translate(-30 -48)">
    <use xlink:href="#rim"/>
    <path pointer-events="none" fill="none" stroke="white" stroke-width="1.5" d="M0,-3.0v7 M-2.5,-0.5L0,-3.0L2.5,-0.5"/>
  </g>
  <g id="arrowLeft" transform="rotate(270) translate(-36 17)">
    <use xlink:href="#rim"/>
    <path pointer-events="none" fill="none" stroke="white" stroke-width="1.5" d="M0,-3.0v7 M-2.5,-0.5L0,-3.0L2.5,-0.5"/>
  </g>
  <g id="resetDef">
    <use xlink:href="#rim2" fill="#404040"><set attributeName="fill" to="#808080" begin="reset.mouseover" end="reset.mouseout"/></use>
  </g>
</defs>
<script type="application/ecmascript">
var viewWidth = 1038;
var viewHeight = 320;
var sectionId = 'dynsection-0';
</script>
<script type="application/ecmascript" xlink:href="svg.min.js"/>
<svg id="graph" class="graph">
<g id="viewport">
<title>src/DepthModel.cpp</title>
<!-- Node1 -->
<g id="Node000001" class="node">
<title>Node1</title>
<g id="a_Node000001"><a xlink:title=" ">
<polygon fill="#999999" stroke="#666666" points="348.12,-312 244.38,-312 244.38,-292 348.12,-292 348.12,-312"/>
<text text-anchor="middle" x="296.25" y="-298.5" font-family="Helvetica,sans-Serif" font-size="10.00">src/DepthModel.cpp</text>
</a>
</g>
</g>
<!-- Node2 -->
<g id="Node000002" class="node">
<title>Node2</title>
<g id="a_Node000002"><a xlink:href="DepthModel_8hpp.html" target="_top" xlink:title=" ">
<polygon fill="white" stroke="#666666" points="317.38,-256 179.12,-256 179.12,-236 317.38,-236 317.38,-256"/>
<text text-anchor="middle" x="248.25" y="-242.5" font-family="Helvetica,sans-Serif" font-size="10.00">EyeAICore/DepthModel.hpp</text>
</a>
</g>
</g>
<!-- Node1&#45;&gt;Node2 -->
<g id="edge1_Node000001_Node000002" class="edge">
<title>Node1&#45;&gt;Node2</title>
<g id="a_edge1_Node000001_Node000002"><a xlink:title=" ">
<path fill="none" stroke="#63b8ff" d="M287.89,-291.59C281.35,-284.24 272.07,-273.8 264.13,-264.87"/>
<polygon fill="#63b8ff" stroke="#63b8ff" points="266.78,-262.58 257.52,-257.43 261.55,-267.23 266.78,-262.58"/>
</a>
</g>
</g>
<!-- Node9 -->
<g id="Node000009" class="node">
<title>Node9</title>
<g id="a_Node000009"><a xlink:href="TfLiteRuntime_8hpp.html" target="_top" xlink:title=" ">
<polygon fill="white" stroke="#666666" points="429.75,-200 260.75,-200 260.75,-180 429.75,-180 429.75,-200"/>
<text text-anchor="middle" x="345.25" y="-186.5" font-family="Helvetica,sans-Serif" font-size="10.00">EyeAICore/tflite/TfLiteRuntime.hpp</text>
</a>
</g>
</g>
<!-- Node1&#45;&gt;Node9 -->
<g id="edge31_Node000001_Node000009" class="edge">
<title>Node1&#45;&gt;Node9</title>
<g id="a_edge31_Node000001_Node000009"><a xlink:title=" ">
<path fill="none" stroke="#63b8ff" d="M303.83,-291.5C310.53,-282.73 320.14,-269.11 326.25,-256 332.95,-241.63 337.86,-224.35 341.02,-211.23"/>
<polygon fill="#63b8ff" stroke="#63b8ff" points="344.4,-212.14 343.17,-201.62 337.57,-210.61 344.4,-212.14"/>
</a>
</g>
</g>
<!-- Node19 -->
<g id="Node000019" class="node">
<title>Node19</title>
<g id="a_Node000019"><a xlink:href="Operators_8hpp.html" target="_top" xlink:title=" ">
<polygon fill="white" stroke="#666666" points="128.5,-144 0,-144 0,-124 128.5,-124 128.5,-144"/>
<text text-anchor="middle" x="64.25" y="-130.5" font-family="Helvetica,sans-Serif" font-size="10.00">EyeAICore/Operators.hpp</text>
</a>
</g>
</g>
<!-- Node1&#45;&gt;Node19 -->
<g id="edge29_Node000001_Node000019" class="edge">
<title>Node1&#45;&gt;Node19</title>
<g id="a_edge29_Node000001_Node000019"><a xlink:title=" ">
<path fill="none" stroke="#63b8ff" d="M253.46,-291.53C227.82,-284.49 195.41,-273.11 170.25,-256 129.05,-227.98 93.79,-180.24 76.2,-153.88"/>
<polygon fill="#63b8ff" stroke="#63b8ff" points="79.19,-152.05 70.8,-145.58 73.32,-155.87 79.19,-152.05"/>
</a>
</g>
</g>
<!-- Node20 -->
<g id="Node000020" class="node">
<title>Node20</title>
<g id="a_Node000020"><a xlink:href="Profiling_8hpp.html" target="_top" xlink:title=" ">
<polygon fill="white" stroke="#666666" points="938.25,-256 796.25,-256 796.25,-236 938.25,-236 938.25,-256"/>
<text text-anchor="middle" x="867.25" y="-242.5" font-family="Helvetica,sans-Serif" font-size="10.00">EyeAICore/utils/Profiling.hpp</text>
</a>
</g>
</g>
<!-- Node1&#45;&gt;Node20 -->
<g id="edge32_Node000001_Node000020" class="edge">
<title>Node1&#45;&gt;Node20</title>
<g id="a_edge32_Node000001_Node000020"><a xlink:title=" ">
<path fill="none" stroke="#63b8ff" d="M348.44,-296.06C447.92,-286.66 665.39,-266.09 784.76,-254.8"/>
<polygon fill="#63b8ff" stroke="#63b8ff" points="784.87,-258.31 794.5,-253.88 784.21,-251.34 784.87,-258.31"/>
</a>
</g>
</g>
<!-- Node3 -->
<g id="Node000003" class="node">
<title>Node3</title>
<g id="a_Node000003"><a xlink:href="TensorBuffer_8hpp.html" target="_top" xlink:title=" ">
<polygon fill="white" stroke="#666666" points="204.5,-82 64,-82 64,-62 204.5,-62 204.5,-82"/>
<text text-anchor="middle" x="134.25" y="-68.5" font-family="Helvetica,sans-Serif" font-size="10.00">EyeAICore/TensorBuffer.hpp</text>
</a>
</g>
</g>
<!-- Node2&#45;&gt;Node3 -->
<g id="edge2_Node000002_Node000003" class="edge">
<title>Node2&#45;&gt;Node3</title>
<g id="a_edge2_Node000002_Node000003"><a xlink:title=" ">
<path fill="none" stroke="#63b8ff" d="M241.96,-235.51C223.78,-208.07 170.91,-128.31 146.67,-91.73"/>
<polygon fill="#63b8ff" stroke="#63b8ff" points="149.66,-89.92 141.22,-83.51 143.83,-93.78 149.66,-89.92"/>
</a>
</g>
</g>
<!-- Node2&#45;&gt;Node9 -->
<g id="edge8_Node000002_Node000009" class="edge">
<title>Node2&#45;&gt;Node9</title>
<g id="a_edge8_Node000002_Node000009"><a xlink:title=" ">
<path fill="none" stroke="#63b8ff" d="M265.15,-235.59C279.8,-227.44 301.27,-215.48 318.3,-206"/>
<polygon fill="#63b8ff" stroke="#63b8ff" points="319.86,-209.14 326.9,-201.22 316.46,-203.02 319.86,-209.14"/>
</a>
</g>
</g>
<!-- Node4 -->
<g id="Node000004" class="node">
<title>Node4</title>
<g id="a_Node000004"><a xlink:title=" ">
<polygon fill="#e0e0e0" stroke="#999999" points="104.88,-20 59.62,-20 59.62,0 104.88,0 104.88,-20"/>
<text text-anchor="middle" x="82.25" y="-6.5" font-family="Helvetica,sans-Serif" font-size="10.00">cstdint</text>
</a>
</g>
</g>
<!-- Node3&#45;&gt;Node4 -->
<g id="edge3_Node000003_Node000004" class="edge">
<title>Node3&#45;&gt;Node4</title>
<g id="a_edge3_Node000003_Node000004"><a xlink:title=" ">
<path fill="none" stroke="#63b8ff" d="M126.12,-61.62C118.53,-52.86 106.98,-39.53 97.63,-28.75"/>
<polygon fill="#63b8ff" stroke="#63b8ff" points="100.33,-26.52 91.14,-21.26 95.04,-31.11 100.33,-26.52"/>
</a>
</g>
</g>
<!-- Node5 -->
<g id="Node000005" class="node">
<title>Node5</title>
<g id="a_Node000005"><a xlink:title=" ">
<polygon fill="#e0e0e0" stroke="#999999" points="309.88,-20 258.62,-20 258.62,0 309.88,0 309.88,-20"/>
<text text-anchor="middle" x="284.25" y="-6.5" font-family="Helvetica,sans-Serif" font-size="10.00">memory</text>
</a>
</g>
</g>
<!-- Node3&#45;&gt;Node5 -->
<g id="edge4_Node000003_Node000005" class="edge">
<title>Node3&#45;&gt;Node5</title>
<g id="a_edge4_Node000003_Node000005"><a xlink:title=" ">
<path fill="none" stroke="#63b8ff" d="M157.69,-61.62C182.57,-51.67 222.11,-35.85 250.38,-24.55"/>
<polygon fill="#63b8ff" stroke="#63b8ff" points="251.59,-27.83 259.57,-20.87 248.99,-21.34 251.59,-27.83"/>
</a>
</g>
</g>
<!-- Node6 -->
<g id="Node000006" class="node">
<title>Node6</title>
<g id="a_Node000006"><a xlink:title=" ">
<polygon fill="#e0e0e0" stroke="#999999" points="240.75,-20 203.75,-20 203.75,0 240.75,0 240.75,-20"/>
<text text-anchor="middle" x="222.25" y="-6.5" font-family="Helvetica,sans-Serif" font-size="10.00">span</text>
</a>
</g>
</g>
<!-- Node3&#45;&gt;Node6 -->
<g id="edge5_Node000003_Node000006" class="edge">
<title>Node3&#45;&gt;Node6</title>
<g id="a_edge5_Node000003_Node000006"><a xlink:title=" ">
<path fill="none" stroke="#63b8ff" d="M148,-61.62C161.69,-52.29 182.95,-37.79 199.22,-26.7"/>
<polygon fill="#63b8ff" stroke="#63b8ff" points="201.06,-29.69 207.35,-21.16 197.11,-23.9 201.06,-29.69"/>
</a>
</g>
</g>
<!-- Node7 -->
<g id="Node000007" class="node">
<title>Node7</title>
<g id="a_Node000007"><a xlink:title=" ">
<polygon fill="#e0e0e0" stroke="#999999" points="471.88,-20 426.62,-20 426.62,0 471.88,0 471.88,-20"/>
<text text-anchor="middle" x="449.25" y="-6.5" font-family="Helvetica,sans-Serif" font-size="10.00">variant</text>
</a>
</g>
</g>
<!-- Node3&#45;&gt;Node7 -->
<g id="edge6_Node000003_Node000007" class="edge">
<title>Node3&#45;&gt;Node7</title>
<g id="a_edge6_Node000003_Node000007"><a xlink:title=" ">
<path fill="none" stroke="#63b8ff" d="M183.82,-61.56C248.35,-49.27 359.48,-28.1 415.25,-17.48"/>
<polygon fill="#63b8ff" stroke="#63b8ff" points="415.62,-20.97 424.78,-15.66 414.31,-14.09 415.62,-20.97"/>
</a>
</g>
</g>
<!-- Node8 -->
<g id="Node000008" class="node">
<title>Node8</title>
<g id="a_Node000008"><a xlink:title=" ">
<polygon fill="#e0e0e0" stroke="#999999" points="165.75,-20 122.75,-20 122.75,0 165.75,0 165.75,-20"/>
<text text-anchor="middle" x="144.25" y="-6.5" font-family="Helvetica,sans-Serif" font-size="10.00">vector</text>
</a>
</g>
</g>
<!-- Node3&#45;&gt;Node8 -->
<g id="edge7_Node000003_Node000008" class="edge">
<title>Node3&#45;&gt;Node8</title>
<g id="a_edge7_Node000003_Node000008"><a xlink:title=" ">
<path fill="none" stroke="#63b8ff" d="M135.81,-61.62C137.16,-53.56 139.14,-41.65 140.85,-31.41"/>
<polygon fill="#63b8ff" stroke="#63b8ff" points="144.29,-32.05 142.48,-21.61 137.39,-30.89 144.29,-32.05"/>
</a>
</g>
</g>
<!-- Node9&#45;&gt;Node3 -->
<g id="edge9_Node000009_Node000003" class="edge">
<title>Node9&#45;&gt;Node3</title>
<g id="a_edge9_Node000009_Node000003"><a xlink:title=" ">
<path fill="none" stroke="#63b8ff" d="M307.59,-179.54C281.47,-172.06 246.45,-160.19 218.25,-144 192.26,-129.08 166.57,-105.77 150.58,-89.96"/>
<polygon fill="#63b8ff" stroke="#63b8ff" points="153.33,-87.78 143.81,-83.13 148.36,-92.7 153.33,-87.78"/>
</a>
</g>
</g>
<!-- Node9&#45;&gt;Node5 -->
<g id="edge25_Node000009_Node000005" class="edge">
<title>Node9&#45;&gt;Node5</title>
<g id="a_edge25_Node000009_Node000005"><a xlink:title=" ">
<path fill="none" stroke="#63b8ff" d="M338.14,-179.61C325.63,-162.48 299.98,-124.55 289.25,-88 283.77,-69.34 282.9,-47.08 283.17,-31.3"/>
<polygon fill="#63b8ff" stroke="#63b8ff" points="286.65,-31.87 283.51,-21.75 279.66,-31.61 286.65,-31.87"/>
</a>
</g>
</g>
<!-- Node9&#45;&gt;Node6 -->
<g id="edge26_Node000009_Node000006" class="edge">
<title>Node9&#45;&gt;Node6</title>
<g id="a_edge26_Node000009_Node000006"><a xlink:title=" ">
<path fill="none" stroke="#63b8ff" d="M334.47,-179.67C324.83,-171.01 310.65,-157.46 300.25,-144 271.18,-106.38 244.9,-56.93 231.53,-30.19"/>
<polygon fill="#63b8ff" stroke="#63b8ff" points="234.85,-29 227.29,-21.57 228.57,-32.09 234.85,-29"/>
</a>
</g>
</g>
<!-- Node10 -->
<g id="Node000010" class="node">
<title>Node10</title>
<g id="a_Node000010"><a xlink:href="TfLiteUtils_8hpp.html" target="_top" xlink:title=" ">
<polygon fill="white" stroke="#666666" points="528.12,-144 448.38,-144 448.38,-124 528.12,-124 528.12,-144"/>
<text text-anchor="middle" x="488.25" y="-130.5" font-family="Helvetica,sans-Serif" font-size="10.00">TfLiteUtils.hpp</text>
</a>
</g>
</g>
<!-- Node9&#45;&gt;Node10 -->
<g id="edge10_Node000009_Node000010" class="edge">
<title>Node9&#45;&gt;Node10</title>
<g id="a_edge10_Node000009_Node000010"><a xlink:title=" ">
<path fill="none" stroke="#63b8ff" d="M370.16,-179.59C392.98,-170.97 427.03,-158.12 452.71,-148.42"/>
<polygon fill="#63b8ff" stroke="#63b8ff" points="453.61,-151.82 461.73,-145.01 451.14,-145.27 453.61,-151.82"/>
</a>
</g>
</g>
<!-- Node13 -->
<g id="Node000013" class="node">
<title>Node13</title>
<g id="a_Node000013"><a xlink:title=" ">
<polygon fill="#e0e0e0" stroke="#999999" points="870.25,-20 830.25,-20 830.25,0 870.25,0 870.25,-20"/>
<text text-anchor="middle" x="850.25" y="-6.5" font-family="Helvetica,sans-Serif" font-size="10.00">string</text>
</a>
</g>
</g>
<!-- Node9&#45;&gt;Node13 -->
<g id="edge27_Node000009_Node000013" class="edge">
<title>Node9&#45;&gt;Node13</title>
<g id="a_edge27_Node000009_Node000013"><a xlink:title=" ">
<path fill="none" stroke="#63b8ff" d="M430.16,-187.2C575.01,-182.12 860.12,-162.64 920.25,-88 929.17,-76.92 927.07,-68.48 920.25,-56 911.84,-40.59 895.64,-29.67 880.95,-22.45"/>
<polygon fill="#63b8ff" stroke="#63b8ff" points="882.58,-19.35 872.02,-18.46 879.72,-25.74 882.58,-19.35"/>
</a>
</g>
</g>
<!-- Node16 -->
<g id="Node000016" class="node">
<title>Node16</title>
<g id="a_Node000016"><a xlink:title=" ">
<polygon fill="#e0e0e0" stroke="#999999" points="911,-82 845.5,-82 845.5,-62 911,-62 911,-82"/>
<text text-anchor="middle" x="878.25" y="-68.5" font-family="Helvetica,sans-Serif" font-size="10.00">string_view</text>
</a>
</g>
</g>
<!-- Node9&#45;&gt;Node16 -->
<g id="edge28_Node000009_Node000016" class="edge">
<title>Node9&#45;&gt;Node16</title>
<g id="a_edge28_Node000009_Node000016"><a xlink:title=" ">
<path fill="none" stroke="#63b8ff" d="M406.46,-179.55C500.09,-164.39 684.05,-131.84 836.25,-88 838.37,-87.39 840.54,-86.73 842.72,-86.04"/>
<polygon fill="#63b8ff" stroke="#63b8ff" points="843.74,-89.39 852.11,-82.89 841.51,-82.75 843.74,-89.39"/>
</a>
</g>
</g>
<!-- Node17 -->
<g id="Node000017" class="node">
<title>Node17</title>
<g id="a_Node000017"><a xlink:title=" ">
<polygon fill="#e0e0e0" stroke="#999999" points="391.88,-88 298.62,-88 298.62,-56 391.88,-56 391.88,-88"/>
<text text-anchor="start" x="306.62" y="-74.5" font-family="Helvetica,sans-Serif" font-size="10.00">tensorflow/lite/c/c</text>
<text text-anchor="middle" x="345.25" y="-62.5" font-family="Helvetica,sans-Serif" font-size="10.00">_api.h</text>
</a>
</g>
</g>
<!-- Node9&#45;&gt;Node17 -->
<g id="edge23_Node000009_Node000017" class="edge">
<title>Node9&#45;&gt;Node17</title>
<g id="a_edge23_Node000009_Node000017"><a xlink:title=" ">
<path fill="none" stroke="#63b8ff" d="M345.25,-179.51C345.25,-162.3 345.25,-125.39 345.25,-99.88"/>
<polygon fill="#63b8ff" stroke="#63b8ff" points="348.75,-99.93 345.25,-89.93 341.75,-99.93 348.75,-99.93"/>
</a>
</g>
</g>
<!-- Node18 -->
<g id="Node000018" class="node">
<title>Node18</title>
<g id="a_Node000018"><a xlink:title=" ">
<polygon fill="#e0e0e0" stroke="#999999" points="827.12,-88 705.38,-88 705.38,-56 827.12,-56 827.12,-88"/>
<text text-anchor="start" x="713.38" y="-74.5" font-family="Helvetica,sans-Serif" font-size="10.00">tensorflow/lite/delegates</text>
<text text-anchor="middle" x="766.25" y="-62.5" font-family="Helvetica,sans-Serif" font-size="10.00">/gpu/delegate.h</text>
</a>
</g>
</g>
<!-- Node9&#45;&gt;Node18 -->
<g id="edge24_Node000009_Node000018" class="edge">
<title>Node9&#45;&gt;Node18</title>
<g id="a_edge24_Node000009_Node000018"><a xlink:title=" ">
<path fill="none" stroke="#63b8ff" d="M389.7,-179.51C428.76,-170.96 487.03,-157.65 537.25,-144 596.37,-127.93 663.22,-106.86 709.36,-91.86"/>
<polygon fill="#63b8ff" stroke="#63b8ff" points="710.18,-95.28 718.6,-88.85 708.01,-88.62 710.18,-95.28"/>
</a>
</g>
</g>
<!-- Node10&#45;&gt;Node3 -->
<g id="edge11_Node000010_Node000003" class="edge">
<title>Node10&#45;&gt;Node3</title>
<g id="a_edge11_Node000010_Node000003"><a xlink:title=" ">
<path fill="none" stroke="#63b8ff" d="M447.99,-126.18C387.95,-116 274.26,-96.73 201.48,-84.4"/>
<polygon fill="#63b8ff" stroke="#63b8ff" points="202.1,-80.95 191.66,-82.73 200.93,-87.85 202.1,-80.95"/>
</a>
</g>
</g>
<!-- Node10&#45;&gt;Node5 -->
<g id="edge17_Node000010_Node000005" class="edge">
<title>Node10&#45;&gt;Node5</title>
<g id="a_edge17_Node000010_Node000005"><a xlink:title=" ">
<path fill="none" stroke="#63b8ff" d="M494.25,-123.53C503.43,-107.7 518.3,-75.7 502.25,-56 479.86,-28.52 377.61,-17.31 321.46,-13.17"/>
<polygon fill="#63b8ff" stroke="#63b8ff" points="321.95,-9.7 311.73,-12.5 321.46,-16.68 321.95,-9.7"/>
</a>
</g>
</g>
<!-- Node10&#45;&gt;Node6 -->
<g id="edge19_Node000010_Node000006" class="edge">
<title>Node10&#45;&gt;Node6</title>
<g id="a_edge19_Node000010_Node000006"><a xlink:title=" ">
<path fill="none" stroke="#63b8ff" d="M488.96,-123.57C489.61,-107.21 488.37,-73.65 469.25,-56 399.09,8.78 349.16,-39.93 252.13,-20.2"/>
<polygon fill="#63b8ff" stroke="#63b8ff" points="253.02,-16.81 242.5,-18.02 251.48,-23.64 253.02,-16.81"/>
</a>
</g>
</g>
<!-- Node11 -->
<g id="Node000011" class="node">
<title>Node11</title>
<g id="a_Node000011"><a xlink:href="Errors_8hpp.html" target="_top" xlink:title=" ">
<polygon fill="white" stroke="#666666" points="687.75,-82 554.75,-82 554.75,-62 687.75,-62 687.75,-82"/>
<text text-anchor="middle" x="621.25" y="-68.5" font-family="Helvetica,sans-Serif" font-size="10.00">EyeAICore/utils/Errors.hpp</text>
</a>
</g>
</g>
<!-- Node10&#45;&gt;Node11 -->
<g id="edge12_Node000010_Node000011" class="edge">
<title>Node10&#45;&gt;Node11</title>
<g id="a_edge12_Node000010_Node000011"><a xlink:title=" ">
<path fill="none" stroke="#63b8ff" d="M509.03,-123.62C530.8,-113.81 565.23,-98.27 590.21,-87"/>
<polygon fill="#63b8ff" stroke="#63b8ff" points="591.56,-90.23 599.24,-82.93 588.68,-83.85 591.56,-90.23"/>
</a>
</g>
</g>
<!-- Node15 -->
<g id="Node000015" class="node">
<title>Node15</title>
<g id="a_Node000015"><a xlink:title=" ">
<polygon fill="#e0e0e0" stroke="#999999" points="460.12,-82 410.38,-82 410.38,-62 460.12,-62 460.12,-82"/>
<text text-anchor="middle" x="435.25" y="-68.5" font-family="Helvetica,sans-Serif" font-size="10.00">optional</text>
</a>
</g>
</g>
<!-- Node10&#45;&gt;Node15 -->
<g id="edge18_Node000010_Node000015" class="edge">
<title>Node10&#45;&gt;Node15</title>
<g id="a_edge18_Node000010_Node000015"><a xlink:title=" ">
<path fill="none" stroke="#63b8ff" d="M479.97,-123.62C472.14,-114.77 460.21,-101.26 450.64,-90.43"/>
<polygon fill="#63b8ff" stroke="#63b8ff" points="453.55,-88.42 444.3,-83.25 448.3,-93.06 453.55,-88.42"/>
</a>
</g>
</g>
<!-- Node10&#45;&gt;Node16 -->
<g id="edge20_Node000010_Node000016" class="edge">
<title>Node10&#45;&gt;Node16</title>
<g id="a_edge20_Node000010_Node000016"><a xlink:title=" ">
<path fill="none" stroke="#63b8ff" d="M528.42,-130.61C593.73,-126.11 726.67,-114.33 836.25,-88 838.7,-87.41 841.2,-86.73 843.7,-85.99"/>
<polygon fill="#63b8ff" stroke="#63b8ff" points="844.67,-89.36 853.09,-82.94 842.5,-82.7 844.67,-89.36"/>
</a>
</g>
</g>
<!-- Node10&#45;&gt;Node17 -->
<g id="edge21_Node000010_Node000017" class="edge">
<title>Node10&#45;&gt;Node17</title>
<g id="a_edge21_Node000010_Node000017"><a xlink:title=" ">
<path fill="none" stroke="#63b8ff" d="M465.91,-123.62C446.32,-115.41 417.19,-103.18 392.46,-92.81"/>
<polygon fill="#63b8ff" stroke="#63b8ff" points="394.14,-89.72 383.56,-89.08 391.43,-96.17 394.14,-89.72"/>
</a>
</g>
</g>
<!-- Node10&#45;&gt;Node18 -->
<g id="edge22_Node000010_Node000018" class="edge">
<title>Node10&#45;&gt;Node18</title>
<g id="a_edge22_Node000010_Node000018"><a xlink:title=" ">
<path fill="none" stroke="#63b8ff" d="M528.32,-124.4C568.1,-115.85 631.11,-102.3 694.02,-88.7"/>
<polygon fill="#63b8ff" stroke="#63b8ff" points="694.41,-92.19 703.45,-86.66 692.93,-85.35 694.41,-92.19"/>
</a>
</g>
</g>
<!-- Node11&#45;&gt;Node7 -->
<g id="edge16_Node000011_Node000007" class="edge">
<title>Node11&#45;&gt;Node7</title>
<g id="a_edge16_Node000011_Node000007"><a xlink:title=" ">
<path fill="none" stroke="#63b8ff" d="M594.38,-61.62C564.37,-51.16 515.76,-34.2 483.16,-22.83"/>
<polygon fill="#63b8ff" stroke="#63b8ff" points="484.38,-19.55 473.79,-19.56 482.08,-26.16 484.38,-19.55"/>
</a>
</g>
</g>
<!-- Node12 -->
<g id="Node000012" class="node">
<title>Node12</title>
<g id="a_Node000012"><a xlink:title=" ">
<polygon fill="#e0e0e0" stroke="#999999" points="683.12,-20 639.38,-20 639.38,0 683.12,0 683.12,-20"/>
<text text-anchor="middle" x="661.25" y="-6.5" font-family="Helvetica,sans-Serif" font-size="10.00">format</text>
</a>
</g>
</g>
<!-- Node11&#45;&gt;Node12 -->
<g id="edge13_Node000011_Node000012" class="edge">
<title>Node11&#45;&gt;Node12</title>
<g id="a_edge13_Node000011_Node000012"><a xlink:title=" ">
<path fill="none" stroke="#63b8ff" d="M627.5,-61.62C633.23,-53.03 641.87,-40.07 648.98,-29.41"/>
<polygon fill="#63b8ff" stroke="#63b8ff" points="651.7,-31.63 654.34,-21.37 645.88,-27.75 651.7,-31.63"/>
</a>
</g>
</g>
<!-- Node11&#45;&gt;Node13 -->
<g id="edge14_Node000011_Node000013" class="edge">
<title>Node11&#45;&gt;Node13</title>
<g id="a_edge14_Node000011_Node000013"><a xlink:title=" ">
<path fill="none" stroke="#63b8ff" d="M657.28,-61.56C701.72,-49.92 776.55,-30.31 818.78,-19.24"/>
<polygon fill="#63b8ff" stroke="#63b8ff" points="819.53,-22.67 828.31,-16.75 817.75,-15.9 819.53,-22.67"/>
</a>
</g>
</g>
<!-- Node14 -->
<g id="Node000014" class="node">
<title>Node14</title>
<g id="a_Node000014"><a xlink:title=" ">
<polygon fill="#e0e0e0" stroke="#999999" points="621.62,-20 538.88,-20 538.88,0 621.62,0 621.62,-20"/>
<text text-anchor="middle" x="580.25" y="-6.5" font-family="Helvetica,sans-Serif" font-size="10.00">tl/expected.hpp</text>
</a>
</g>
</g>
<!-- Node11&#45;&gt;Node14 -->
<g id="edge15_Node000011_Node000014" class="edge">
<title>Node11&#45;&gt;Node14</title>
<g id="a_edge15_Node000011_Node000014"><a xlink:title=" ">
<path fill="none" stroke="#63b8ff" d="M614.84,-61.62C608.97,-53.03 600.11,-40.07 592.83,-29.41"/>
<polygon fill="#63b8ff" stroke="#63b8ff" points="595.86,-27.64 587.33,-21.36 590.08,-31.59 595.86,-27.64"/>
</a>
</g>
</g>
<!-- Node19&#45;&gt;Node3 -->
<g id="edge30_Node000019_Node000003" class="edge">
<title>Node19&#45;&gt;Node3</title>
<g id="a_edge30_Node000019_Node000003"><a xlink:title=" ">
<path fill="none" stroke="#63b8ff" d="M75.19,-123.62C85.83,-114.5 102.23,-100.45 115.05,-89.46"/>
<polygon fill="#63b8ff" stroke="#63b8ff" points="117.15,-92.26 122.47,-83.1 112.6,-86.95 117.15,-92.26"/>
</a>
</g>
</g>
<!-- Node20&#45;&gt;Node16 -->
<g id="edge35_Node000020_Node000016" class="edge">
<title>Node20&#45;&gt;Node16</title>
<g id="a_edge35_Node000020_Node000016"><a xlink:title=" ">
<path fill="none" stroke="#63b8ff" d="M865.65,-235.73C864.17,-226.65 862.07,-212.43 861.25,-200 858.73,-162.02 867.17,-118.08 873.05,-93.11"/>
<polygon fill="#63b8ff" stroke="#63b8ff" points="876.38,-94.22 875.38,-83.67 869.58,-92.54 876.38,-94.22"/>
</a>
</g>
</g>
<!-- Node21 -->
<g id="Node000021" class="node">
<title>Node21</title>
<g id="a_Node000021"><a xlink:title=" ">
<polygon fill="#e0e0e0" stroke="#999999" points="915.88,-200 870.62,-200 870.62,-180 915.88,-180 915.88,-200"/>
<text text-anchor="middle" x="893.25" y="-186.5" font-family="Helvetica,sans-Serif" font-size="10.00">chrono</text>
</a>
</g>
</g>
<!-- Node20&#45;&gt;Node21 -->
<g id="edge33_Node000020_Node000021" class="edge">
<title>Node20&#45;&gt;Node21</title>
<g id="a_edge33_Node000020_Node000021"><a xlink:title=" ">
<path fill="none" stroke="#63b8ff" d="M871.78,-235.59C875.1,-228.7 879.72,-219.1 883.83,-210.57"/>
<polygon fill="#63b8ff" stroke="#63b8ff" points="886.93,-212.19 888.12,-201.66 880.62,-209.15 886.93,-212.19"/>
</a>
</g>
</g>
<!-- Node22 -->
<g id="Node000022" class="node">
<title>Node22</title>
<g id="a_Node000022"><a xlink:title=" ">
<polygon fill="#e0e0e0" stroke="#999999" points="1030.38,-200 934.12,-200 934.12,-180 1030.38,-180 1030.38,-200"/>
<text text-anchor="middle" x="982.25" y="-186.5" font-family="Helvetica,sans-Serif" font-size="10.00">concurrentqueue.h</text>
</a>
</g>
</g>
<!-- Node20&#45;&gt;Node22 -->
<g id="edge34_Node000020_Node000022" class="edge">
<title>Node20&#45;&gt;Node22</title>
<g id="a_edge34_Node000020_Node000022"><a xlink:title=" ">
<path fill="none" stroke="#63b8ff" d="M887.28,-235.59C905.06,-227.24 931.32,-214.92 951.71,-205.34"/>
<polygon fill="#63b8ff" stroke="#63b8ff" points="953.13,-208.54 960.69,-201.12 950.15,-202.21 953.13,-208.54"/>
</a>
</g>
</g>
</g>
</svg>

<g id="navigator" transform="translate(0 0)" fill="#404254">
  <rect fill="#f2f5e9" fill-opacity="0.5" stroke="#606060" stroke-width=".5" x="0" y="0" width="60" height="60"/>
  <use id="zoomplus" xlink:href="#zoomPlus" x="17" y="9" onmousedown="handleZoom(evt,'in')"/>
  <use id="zoomminus" xlink:href="#zoomMin" x="42" y="9" onmousedown="handleZoom(evt,'out')"/>
  <use id="reset" xlink:href="#resetDef" x="30" y="36" onmousedown="handleReset()"/>
   <use id="arrowup" xlink:href="#arrowUp" x="0" y="0" onmousedown="handlePan(0,-1)"/>
  <use id="arrowright" xlink:href="#arrowRight" x="0" y="0" onmousedown="handlePan(1,0)"/>
  <use id="arrowdown" xlink:href="#arrowDown" x="0" y="0" onmousedown="handlePan(0,1)"/>
  <use id="arrowleft" xlink:href="#arrowLeft" x="0" y="0" onmousedown="handlePan(-1,0)"/>
</g>
<svg viewBox="0 0 15 15" width="100%" height="30px" preserveAspectRatio="xMaxYMin meet">
 <g id="arrow_out" transform="scale(0.3 0.3)">
  <a xlink:href="DepthModel_8cpp__incl_org.svg" target="_base">
   <rect id="button" ry="5" rx="5" y="6" x="6" height="38" width="38"
        fill="#f2f5e9" fill-opacity="0.5" stroke="#606060" stroke-width="1.0"/>
   <path id="arrow"
     d="M 11.500037,31.436501 C 11.940474,20.09759 22.043105,11.32322 32.158766,21.979434 L 37.068811,17.246167 C 37.068811,17.246167 37.088388,32 37.088388,32 L 22.160133,31.978069 C 22.160133,31.978069 26.997745,27.140456 26.997745,27.140456 C 18.528582,18.264221 13.291696,25.230495 11.500037,31.436501 z"
     style="fill:#404040;"/>
  </a>
 </g>
</svg>

<style type='text/css'>
<![CDATA[
[data-mouse-over-selected='false'] { opacity: 0.7; }
[data-mouse-over-selected='true']  { opacity: 1.0; }
]]>
</style>
<script type="application/ecmascript"><![CDATA[
document.addEventListener('DOMContentLoaded', (event) => {
  highlightEdges();
  highlightAdjacentNodes();
});
]]></script>
</svg>
