<?xml version="1.0" encoding="UTF-8" standalone="no"?>
<!DOCTYPE svg PUBLIC "-//W3C//DTD SVG 1.1//EN"
 "http://www.w3.org/Graphics/SVG/1.1/DTD/svg11.dtd">
<!-- Generated by graphviz version 12.2.1 (20241206.2353)
 -->
<!-- Title: src/DepthModel.cpp Pages: 1 -->
<!--zoomable 382 -->

<svg id="main" version="1.1" xmlns="http://www.w3.org/2000/svg" xmlns:xlink="http://www.w3.org/1999/xlink" xml:space="preserve" onload="init(evt)">

<style type="text/css"><![CDATA[
.node, .edge {opacity: 0.7;}
.node.selected, .edge.selected {opacity: 1;}
.edge:hover path { stroke: red; }
.edge:hover polygon { stroke: red; fill: red; }
]]></style>

<defs>
  <circle id="rim" cx="0" cy="0" r="7"/>
  <circle id="rim2" cx="0" cy="0" r="3.5"/>
  <g id="zoomPlus">
    <use xlink:href="#rim" fill="#404040"><set attributeName="fill" to="#808080" begin="zoomplus.mouseover" end="zoomplus.mouseout"/></use>
    <path d="M-4,0h8M0,-4v8" fill="none" stroke="white" stroke-width="1.5" pointer-events="none"/>
  </g>
  <g id="zoomMin">
    <use xlink:href="#rim" fill="#404040"><set attributeName="fill" to="#808080" begin="zoomminus.mouseover" end="zoomminus.mouseout"/></use>
    <path d="M-4,0h8" fill="none" stroke="white" stroke-width="1.5" pointer-events="none"/>
  </g>
  <g id="arrowUp" transform="translate(30 24)">
    <use xlink:href="#rim"/>
    <path pointer-events="none" fill="none" stroke="white" stroke-width="1.5" d="M0,-3.0v7 M-2.5,-0.5L0,-3.0L2.5,-0.5"/>
  </g>
  <g id="arrowRight" transform="rotate(90) translate(36 -43)">
    <use xlink:href="#rim"/>
    <path pointer-events="none" fill="none" stroke="white" stroke-width="1.5" d="M0,-3.0v7 M-2.5,-0.5L0,-3.0L2.5,-0.5"/>
  </g>
  <g id="arrowDown" transform="rotate(180) translate(-30 -48)">
    <use xlink:href="#rim"/>
    <path pointer-events="none" fill="none" stroke="white" stroke-width="1.5" d="M0,-3.0v7 M-2.5,-0.5L0,-3.0L2.5,-0.5"/>
  </g>
  <g id="arrowLeft" transform="rotate(270) translate(-36 17)">
    <use xlink:href="#rim"/>
    <path pointer-events="none" fill="none" stroke="white" stroke-width="1.5" d="M0,-3.0v7 M-2.5,-0.5L0,-3.0L2.5,-0.5"/>
  </g>
  <g id="resetDef">
    <use xlink:href="#rim2" fill="#404040"><set attributeName="fill" to="#808080" begin="reset.mouseover" end="reset.mouseout"/></use>
  </g>
</defs>
<script type="application/ecmascript">
var viewWidth = 975;
var viewHeight = 382;
var sectionId = 'dynsection-0';
</script>
<script type="application/ecmascript" xlink:href="svg.min.js"/>
<svg id="graph" class="graph">
<g id="viewport">
<title>src/DepthModel.cpp</title>
<!-- Node1 -->
<g id="Node000001" class="node">
<title>Node1</title>
<g id="a_Node000001"><a xlink:title=" ">
<polygon fill="#999999" stroke="#666666" points="418.58,-374 305.83,-374 305.83,-353.25 418.58,-353.25 418.58,-374"/>
<text text-anchor="middle" x="362.21" y="-360.5" font-family="Helvetica,sans-Serif" font-size="10.00">src/DepthModel.cpp</text>
</a>
</g>
</g>
<!-- Node2 -->
<g id="Node000002" class="node">
<title>Node2</title>
<g id="a_Node000002"><a xlink:href="DepthModel_8hpp.html" target="_top" xlink:title=" ">
<polygon fill="white" stroke="#666666" points="359.96,-260.5 210.46,-260.5 210.46,-239.75 359.96,-239.75 359.96,-260.5"/>
<text text-anchor="middle" x="285.21" y="-247" font-family="Helvetica,sans-Serif" font-size="10.00">EyeAICore/DepthModel.hpp</text>
</a>
</g>
</g>
<!-- Node1&#45;&gt;Node2 -->
<g id="edge1_Node000001_Node000002" class="edge">
<title>Node1&#45;&gt;Node2</title>
<g id="a_edge1_Node000001_Node000002"><a xlink:title=" ">
<path fill="none" stroke="#63b8ff" d="M355.64,-353.12C342.98,-334.78 314.95,-294.2 298.33,-270.12"/>
<polygon fill="#63b8ff" stroke="#63b8ff" points="301.4,-268.41 292.83,-262.17 295.64,-272.39 301.4,-268.41"/>
</a>
</g>
</g>
<!-- Node9 -->
<g id="Node000009" class="node">
<title>Node9</title>
<g id="a_Node000009"><a xlink:href="TfLiteRuntime_8hpp.html" target="_top" xlink:title=" ">
<polygon fill="white" stroke="#666666" points="436.58,-203.75 251.83,-203.75 251.83,-183 436.58,-183 436.58,-203.75"/>
<text text-anchor="middle" x="344.21" y="-190.25" font-family="Helvetica,sans-Serif" font-size="10.00">EyeAICore/tflite/TfLiteRuntime.hpp</text>
</a>
</g>
</g>
<!-- Node1&#45;&gt;Node9 -->
<g id="edge35_Node000001_Node000009" class="edge">
<title>Node1&#45;&gt;Node9</title>
<g id="a_edge35_Node000001_Node000009"><a xlink:title=" ">
<path fill="none" stroke="#63b8ff" d="M364.75,-352.87C369.8,-331.82 379.75,-280.72 369.21,-239.75 366.87,-230.65 362.27,-221.42 357.65,-213.68"/>
<polygon fill="#63b8ff" stroke="#63b8ff" points="360.72,-211.98 352.37,-205.47 354.84,-215.78 360.72,-211.98"/>
</a>
</g>
</g>
<!-- Node19 -->
<g id="Node000019" class="node">
<title>Node19</title>
<g id="a_Node000019"><a xlink:href="Operators_8hpp.html" target="_top" xlink:title=" ">
<polygon fill="white" stroke="#666666" points="171.33,-317.25 33.08,-317.25 33.08,-296.5 171.33,-296.5 171.33,-317.25"/>
<text text-anchor="middle" x="102.21" y="-303.75" font-family="Helvetica,sans-Serif" font-size="10.00">EyeAICore/Operators.hpp</text>
</a>
</g>
</g>
<!-- Node1&#45;&gt;Node19 -->
<g id="edge29_Node000001_Node000019" class="edge">
<title>Node1&#45;&gt;Node19</title>
<g id="a_edge29_Node000001_Node000019"><a xlink:title=" ">
<path fill="none" stroke="#63b8ff" d="M315.42,-352.77C271.93,-343.62 207,-329.94 160.23,-320.09"/>
<polygon fill="#63b8ff" stroke="#63b8ff" points="161.04,-316.69 150.53,-318.05 159.6,-323.54 161.04,-316.69"/>
</a>
</g>
</g>
<!-- Node21 -->
<g id="Node000021" class="node">
<title>Node21</title>
<g id="a_Node000021"><a xlink:href="Profiling_8hpp.html" target="_top" xlink:title=" ">
<polygon fill="white" stroke="#666666" points="868.21,-317.25 714.21,-317.25 714.21,-296.5 868.21,-296.5 868.21,-317.25"/>
<text text-anchor="middle" x="791.21" y="-303.75" font-family="Helvetica,sans-Serif" font-size="10.00">EyeAICore/utils/Profiling.hpp</text>
</a>
</g>
</g>
<!-- Node1&#45;&gt;Node21 -->
<g id="edge36_Node000001_Node000021" class="edge">
<title>Node1&#45;&gt;Node21</title>
<g id="a_edge36_Node000001_Node000021"><a xlink:title=" ">
<path fill="none" stroke="#63b8ff" d="M418.73,-355.41C491.13,-346.17 617.42,-330.05 702.64,-319.18"/>
<polygon fill="#63b8ff" stroke="#63b8ff" points="702.88,-322.68 712.36,-317.94 702,-315.73 702.88,-322.68"/>
</a>
</g>
</g>
<!-- Node3 -->
<g id="Node000003" class="node">
<title>Node3</title>
<g id="a_Node000003"><a xlink:href="TensorBuffer_8hpp.html" target="_top" xlink:title=" ">
<polygon fill="white" stroke="#666666" points="199.33,-83.88 49.08,-83.88 49.08,-63.12 199.33,-63.12 199.33,-83.88"/>
<text text-anchor="middle" x="124.21" y="-70.38" font-family="Helvetica,sans-Serif" font-size="10.00">EyeAICore/TensorBuffer.hpp</text>
</a>
</g>
</g>
<!-- Node2&#45;&gt;Node3 -->
<g id="edge2_Node000002_Node000003" class="edge">
<title>Node2&#45;&gt;Node3</title>
<g id="a_edge2_Node000002_Node000003"><a xlink:title=" ">
<path fill="none" stroke="#63b8ff" d="M274.28,-239.45C254.63,-221.84 212.37,-183.05 180.21,-147 164.72,-129.64 148.65,-108.46 137.72,-93.48"/>
<polygon fill="#63b8ff" stroke="#63b8ff" points="140.62,-91.52 131.93,-85.45 134.94,-95.61 140.62,-91.52"/>
</a>
</g>
</g>
<!-- Node2&#45;&gt;Node9 -->
<g id="edge8_Node000002_Node000009" class="edge">
<title>Node2&#45;&gt;Node9</title>
<g id="a_edge8_Node000002_Node000009"><a xlink:title=" ">
<path fill="none" stroke="#63b8ff" d="M295.75,-239.34C303.98,-231.71 315.61,-220.92 325.41,-211.82"/>
<polygon fill="#63b8ff" stroke="#63b8ff" points="327.69,-214.48 332.64,-205.11 322.93,-209.34 327.69,-214.48"/>
</a>
</g>
</g>
<!-- Node4 -->
<g id="Node000004" class="node">
<title>Node4</title>
<g id="a_Node000004"><a xlink:title=" ">
<polygon fill="#e0e0e0" stroke="#999999" points="149.71,-20.75 100.71,-20.75 100.71,0 149.71,0 149.71,-20.75"/>
<text text-anchor="middle" x="125.21" y="-7.25" font-family="Helvetica,sans-Serif" font-size="10.00">cstdint</text>
</a>
</g>
</g>
<!-- Node3&#45;&gt;Node4 -->
<g id="edge3_Node000003_Node000004" class="edge">
<title>Node3&#45;&gt;Node4</title>
<g id="a_edge3_Node000003_Node000004"><a xlink:title=" ">
<path fill="none" stroke="#63b8ff" d="M124.37,-62.68C124.5,-54.52 124.7,-42.63 124.86,-32.35"/>
<polygon fill="#63b8ff" stroke="#63b8ff" points="128.36,-32.54 125.03,-22.48 121.36,-32.42 128.36,-32.54"/>
</a>
</g>
</g>
<!-- Node5 -->
<g id="Node000005" class="node">
<title>Node5</title>
<g id="a_Node000005"><a xlink:title=" ">
<polygon fill="#e0e0e0" stroke="#999999" points="225.83,-20.75 168.58,-20.75 168.58,0 225.83,0 225.83,-20.75"/>
<text text-anchor="middle" x="197.21" y="-7.25" font-family="Helvetica,sans-Serif" font-size="10.00">memory</text>
</a>
</g>
</g>
<!-- Node3&#45;&gt;Node5 -->
<g id="edge4_Node000003_Node000005" class="edge">
<title>Node3&#45;&gt;Node5</title>
<g id="a_edge4_Node000003_Node000005"><a xlink:title=" ">
<path fill="none" stroke="#63b8ff" d="M135.94,-62.68C147.07,-53.36 164.03,-39.16 177.28,-28.06"/>
<polygon fill="#63b8ff" stroke="#63b8ff" points="179.17,-31.05 184.59,-21.94 174.67,-25.68 179.17,-31.05"/>
</a>
</g>
</g>
<!-- Node6 -->
<g id="Node000006" class="node">
<title>Node6</title>
<g id="a_Node000006"><a xlink:title=" ">
<polygon fill="#e0e0e0" stroke="#999999" points="284.83,-20.75 245.58,-20.75 245.58,0 284.83,0 284.83,-20.75"/>
<text text-anchor="middle" x="265.21" y="-7.25" font-family="Helvetica,sans-Serif" font-size="10.00">span</text>
</a>
</g>
</g>
<!-- Node3&#45;&gt;Node6 -->
<g id="edge5_Node000003_Node000006" class="edge">
<title>Node3&#45;&gt;Node6</title>
<g id="a_edge5_Node000003_Node000006"><a xlink:title=" ">
<path fill="none" stroke="#63b8ff" d="M146.86,-62.68C170.7,-52.34 208.36,-36.02 234.78,-24.56"/>
<polygon fill="#63b8ff" stroke="#63b8ff" points="236.17,-27.78 243.95,-20.59 233.39,-21.35 236.17,-27.78"/>
</a>
</g>
</g>
<!-- Node7 -->
<g id="Node000007" class="node">
<title>Node7</title>
<g id="a_Node000007"><a xlink:title=" ">
<polygon fill="#e0e0e0" stroke="#999999" points="472.46,-20.75 421.96,-20.75 421.96,0 472.46,0 472.46,-20.75"/>
<text text-anchor="middle" x="447.21" y="-7.25" font-family="Helvetica,sans-Serif" font-size="10.00">variant</text>
</a>
</g>
</g>
<!-- Node3&#45;&gt;Node7 -->
<g id="edge6_Node000003_Node000007" class="edge">
<title>Node3&#45;&gt;Node7</title>
<g id="a_edge6_Node000003_Node000007"><a xlink:title=" ">
<path fill="none" stroke="#63b8ff" d="M176.1,-62.68C241.84,-50.24 353.44,-29.12 410.79,-18.27"/>
<polygon fill="#63b8ff" stroke="#63b8ff" points="411.18,-21.76 420.35,-16.46 409.88,-14.88 411.18,-21.76"/>
</a>
</g>
</g>
<!-- Node8 -->
<g id="Node000008" class="node">
<title>Node8</title>
<g id="a_Node000008"><a xlink:title=" ">
<polygon fill="#e0e0e0" stroke="#999999" points="82.58,-20.75 35.83,-20.75 35.83,0 82.58,0 82.58,-20.75"/>
<text text-anchor="middle" x="59.21" y="-7.25" font-family="Helvetica,sans-Serif" font-size="10.00">vector</text>
</a>
</g>
</g>
<!-- Node3&#45;&gt;Node8 -->
<g id="edge7_Node000003_Node000008" class="edge">
<title>Node3&#45;&gt;Node8</title>
<g id="a_edge7_Node000003_Node000008"><a xlink:title=" ">
<path fill="none" stroke="#63b8ff" d="M113.76,-62.68C104.04,-53.54 89.33,-39.7 77.63,-28.7"/>
<polygon fill="#63b8ff" stroke="#63b8ff" points="80.2,-26.31 70.51,-22.01 75.4,-31.41 80.2,-26.31"/>
</a>
</g>
</g>
<!-- Node9&#45;&gt;Node3 -->
<g id="edge9_Node000009_Node000003" class="edge">
<title>Node9&#45;&gt;Node3</title>
<g id="a_edge9_Node000009_Node000003"><a xlink:title=" ">
<path fill="none" stroke="#63b8ff" d="M304.57,-182.57C277.76,-175.01 242.11,-163.11 213.21,-147 185.93,-131.8 158.7,-108.04 141.68,-91.9"/>
<polygon fill="#63b8ff" stroke="#63b8ff" points="144.47,-89.73 134.85,-85.29 139.61,-94.76 144.47,-89.73"/>
</a>
</g>
</g>
<!-- Node9&#45;&gt;Node5 -->
<g id="edge25_Node000009_Node000005" class="edge">
<title>Node9&#45;&gt;Node5</title>
<g id="a_edge25_Node000009_Node000005"><a xlink:title=" ">
<path fill="none" stroke="#63b8ff" d="M333.52,-182.71C323.89,-173.8 309.55,-160.03 298.21,-147 263.84,-107.51 228.34,-57.23 209.97,-30.35"/>
<polygon fill="#63b8ff" stroke="#63b8ff" points="212.96,-28.52 204.45,-22.21 207.17,-32.45 212.96,-28.52"/>
</a>
</g>
</g>
<!-- Node9&#45;&gt;Node6 -->
<g id="edge26_Node000009_Node000006" class="edge">
<title>Node9&#45;&gt;Node6</title>
<g id="a_edge26_Node000009_Node000006"><a xlink:title=" ">
<path fill="none" stroke="#63b8ff" d="M337.22,-182.74C324.8,-165.19 298.84,-126.48 284.21,-90.25 276.52,-71.2 271.42,-48.26 268.46,-32.04"/>
<polygon fill="#63b8ff" stroke="#63b8ff" points="271.99,-31.89 266.86,-22.62 265.09,-33.06 271.99,-31.89"/>
</a>
</g>
</g>
<!-- Node10 -->
<g id="Node000010" class="node">
<title>Node10</title>
<g id="a_Node000010"><a xlink:href="TfLiteUtils_8hpp.html" target="_top" xlink:title=" ">
<polygon fill="white" stroke="#666666" points="522.83,-147 435.58,-147 435.58,-126.25 522.83,-126.25 522.83,-147"/>
<text text-anchor="middle" x="479.21" y="-133.5" font-family="Helvetica,sans-Serif" font-size="10.00">TfLiteUtils.hpp</text>
</a>
</g>
</g>
<!-- Node9&#45;&gt;Node10 -->
<g id="edge10_Node000009_Node000010" class="edge">
<title>Node9&#45;&gt;Node10</title>
<g id="a_edge10_Node000009_Node000010"><a xlink:title=" ">
<path fill="none" stroke="#63b8ff" d="M368.34,-182.59C389.65,-173.94 420.96,-161.25 444.87,-151.55"/>
<polygon fill="#63b8ff" stroke="#63b8ff" points="445.93,-154.9 453.88,-147.9 443.3,-148.41 445.93,-154.9"/>
</a>
</g>
</g>
<!-- Node13 -->
<g id="Node000013" class="node">
<title>Node13</title>
<g id="a_Node000013"><a xlink:title=" ">
<polygon fill="#e0e0e0" stroke="#999999" points="915.08,-20.75 871.33,-20.75 871.33,0 915.08,0 915.08,-20.75"/>
<text text-anchor="middle" x="893.21" y="-7.25" font-family="Helvetica,sans-Serif" font-size="10.00">string</text>
</a>
</g>
</g>
<!-- Node9&#45;&gt;Node13 -->
<g id="edge27_Node000009_Node000013" class="edge">
<title>Node9&#45;&gt;Node13</title>
<g id="a_edge27_Node000009_Node000013"><a xlink:title=" ">
<path fill="none" stroke="#63b8ff" d="M436.94,-191.32C592.57,-187.34 895.66,-169.36 960.21,-90.25 969.62,-78.71 967.18,-69.9 960.21,-56.75 952.7,-42.61 938.61,-32.07 925.27,-24.72"/>
<polygon fill="#63b8ff" stroke="#63b8ff" points="927.2,-21.77 916.69,-20.4 924.05,-28.02 927.2,-21.77"/>
</a>
</g>
</g>
<!-- Node16 -->
<g id="Node000016" class="node">
<title>Node16</title>
<g id="a_Node000016"><a xlink:title=" ">
<polygon fill="#e0e0e0" stroke="#999999" points="951.33,-83.88 879.08,-83.88 879.08,-63.12 951.33,-63.12 951.33,-83.88"/>
<text text-anchor="middle" x="915.21" y="-70.38" font-family="Helvetica,sans-Serif" font-size="10.00">string_view</text>
</a>
</g>
</g>
<!-- Node9&#45;&gt;Node16 -->
<g id="edge28_Node000009_Node000016" class="edge">
<title>Node9&#45;&gt;Node16</title>
<g id="a_edge28_Node000009_Node000016"><a xlink:title=" ">
<path fill="none" stroke="#63b8ff" d="M410.78,-182.51C511.12,-166.95 706.68,-133.93 869.21,-90.25 871.99,-89.5 874.85,-88.67 877.71,-87.8"/>
<polygon fill="#63b8ff" stroke="#63b8ff" points="878.75,-91.14 887.2,-84.74 876.61,-84.48 878.75,-91.14"/>
</a>
</g>
</g>
<!-- Node17 -->
<g id="Node000017" class="node">
<title>Node17</title>
<g id="a_Node000017"><a xlink:title=" ">
<polygon fill="#e0e0e0" stroke="#999999" points="395.33,-90.25 293.08,-90.25 293.08,-56.75 395.33,-56.75 395.33,-90.25"/>
<text text-anchor="start" x="301.08" y="-76.75" font-family="Helvetica,sans-Serif" font-size="10.00">tensorflow/lite/c/c</text>
<text text-anchor="middle" x="344.21" y="-64" font-family="Helvetica,sans-Serif" font-size="10.00">_api.h</text>
</a>
</g>
</g>
<!-- Node9&#45;&gt;Node17 -->
<g id="edge23_Node000009_Node000017" class="edge">
<title>Node9&#45;&gt;Node17</title>
<g id="a_edge23_Node000009_Node000017"><a xlink:title=" ">
<path fill="none" stroke="#63b8ff" d="M344.21,-182.73C344.21,-165.26 344.21,-127.8 344.21,-101.89"/>
<polygon fill="#63b8ff" stroke="#63b8ff" points="347.71,-102.08 344.21,-92.08 340.71,-102.08 347.71,-102.08"/>
</a>
</g>
</g>
<!-- Node18 -->
<g id="Node000018" class="node">
<title>Node18</title>
<g id="a_Node000018"><a xlink:title=" ">
<polygon fill="#e0e0e0" stroke="#999999" points="860.58,-90.25 723.83,-90.25 723.83,-56.75 860.58,-56.75 860.58,-90.25"/>
<text text-anchor="start" x="731.83" y="-76.75" font-family="Helvetica,sans-Serif" font-size="10.00">tensorflow/lite/delegates</text>
<text text-anchor="middle" x="792.21" y="-64" font-family="Helvetica,sans-Serif" font-size="10.00">/gpu/delegate.h</text>
</a>
</g>
</g>
<!-- Node9&#45;&gt;Node18 -->
<g id="edge24_Node000009_Node000018" class="edge">
<title>Node9&#45;&gt;Node18</title>
<g id="a_edge24_Node000009_Node000018"><a xlink:title=" ">
<path fill="none" stroke="#63b8ff" d="M386.87,-182.53C425.05,-173.61 482.49,-159.93 532.21,-147 598.15,-129.85 673.07,-108.79 725.48,-93.8"/>
<polygon fill="#63b8ff" stroke="#63b8ff" points="726.21,-97.23 734.86,-91.11 724.28,-90.5 726.21,-97.23"/>
</a>
</g>
</g>
<!-- Node10&#45;&gt;Node3 -->
<g id="edge11_Node000010_Node000003" class="edge">
<title>Node10&#45;&gt;Node3</title>
<g id="a_edge11_Node000010_Node000003"><a xlink:title=" ">
<path fill="none" stroke="#63b8ff" d="M435.32,-128.07C374.57,-117.61 264.26,-98.61 192.63,-86.28"/>
<polygon fill="#63b8ff" stroke="#63b8ff" points="193.43,-82.87 182.98,-84.62 192.24,-89.77 193.43,-82.87"/>
</a>
</g>
</g>
<!-- Node10&#45;&gt;Node5 -->
<g id="edge17_Node000010_Node000005" class="edge">
<title>Node10&#45;&gt;Node5</title>
<g id="a_edge17_Node000010_Node000005"><a xlink:title=" ">
<path fill="none" stroke="#63b8ff" d="M471.2,-125.86C455.38,-106.81 420.28,-65.76 404.21,-56.75 340.59,-21.09 313.17,-36.15 237.2,-20.79"/>
<polygon fill="#63b8ff" stroke="#63b8ff" points="238.14,-17.42 227.63,-18.74 236.67,-24.26 238.14,-17.42"/>
</a>
</g>
</g>
<!-- Node10&#45;&gt;Node6 -->
<g id="edge19_Node000010_Node000006" class="edge">
<title>Node10&#45;&gt;Node6</title>
<g id="a_edge19_Node000010_Node000006"><a xlink:title=" ">
<path fill="none" stroke="#63b8ff" d="M490.04,-126C506.54,-110.19 534.24,-78.34 516.21,-56.75 488.53,-23.62 357.38,-14.63 296.45,-12.23"/>
<polygon fill="#63b8ff" stroke="#63b8ff" points="296.89,-8.75 286.77,-11.89 296.64,-15.74 296.89,-8.75"/>
</a>
</g>
</g>
<!-- Node11 -->
<g id="Node000011" class="node">
<title>Node11</title>
<g id="a_Node000011"><a xlink:href="Errors_8hpp.html" target="_top" xlink:title=" ">
<polygon fill="white" stroke="#666666" points="705.58,-83.88 562.83,-83.88 562.83,-63.12 705.58,-63.12 705.58,-83.88"/>
<text text-anchor="middle" x="634.21" y="-70.38" font-family="Helvetica,sans-Serif" font-size="10.00">EyeAICore/utils/Errors.hpp</text>
</a>
</g>
</g>
<!-- Node10&#45;&gt;Node11 -->
<g id="edge12_Node000010_Node000011" class="edge">
<title>Node10&#45;&gt;Node11</title>
<g id="a_edge12_Node000010_Node000011"><a xlink:title=" ">
<path fill="none" stroke="#63b8ff" d="M504.11,-125.8C529.76,-115.69 569.96,-99.84 598.88,-88.43"/>
<polygon fill="#63b8ff" stroke="#63b8ff" points="599.94,-91.78 607.96,-84.85 597.37,-85.26 599.94,-91.78"/>
</a>
</g>
</g>
<!-- Node15 -->
<g id="Node000015" class="node">
<title>Node15</title>
<g id="a_Node000015"><a xlink:title=" ">
<polygon fill="#e0e0e0" stroke="#999999" points="507.08,-83.88 451.33,-83.88 451.33,-63.12 507.08,-63.12 507.08,-83.88"/>
<text text-anchor="middle" x="479.21" y="-70.38" font-family="Helvetica,sans-Serif" font-size="10.00">optional</text>
</a>
</g>
</g>
<!-- Node10&#45;&gt;Node15 -->
<g id="edge18_Node000010_Node000015" class="edge">
<title>Node10&#45;&gt;Node15</title>
<g id="a_edge18_Node000010_Node000015"><a xlink:title=" ">
<path fill="none" stroke="#63b8ff" d="M479.21,-125.8C479.21,-117.65 479.21,-105.76 479.21,-95.48"/>
<polygon fill="#63b8ff" stroke="#63b8ff" points="482.71,-95.61 479.21,-85.61 475.71,-95.61 482.71,-95.61"/>
</a>
</g>
</g>
<!-- Node10&#45;&gt;Node16 -->
<g id="edge20_Node000010_Node000016" class="edge">
<title>Node10&#45;&gt;Node16</title>
<g id="a_edge20_Node000010_Node000016"><a xlink:title=" ">
<path fill="none" stroke="#63b8ff" d="M523.3,-133.57C596.11,-129.5 745.72,-118.23 869.21,-90.25 872.37,-89.53 875.62,-88.68 878.86,-87.74"/>
<polygon fill="#63b8ff" stroke="#63b8ff" points="879.77,-91.12 888.25,-84.77 877.66,-84.45 879.77,-91.12"/>
</a>
</g>
</g>
<!-- Node10&#45;&gt;Node17 -->
<g id="edge21_Node000010_Node000017" class="edge">
<title>Node10&#45;&gt;Node17</title>
<g id="a_edge21_Node000010_Node000017"><a xlink:title=" ">
<path fill="none" stroke="#63b8ff" d="M457.52,-125.8C439.5,-117.65 413.24,-105.76 390.54,-95.48"/>
<polygon fill="#63b8ff" stroke="#63b8ff" points="392,-92.3 381.44,-91.36 389.11,-98.67 392,-92.3"/>
</a>
</g>
</g>
<!-- Node10&#45;&gt;Node18 -->
<g id="edge22_Node000010_Node000018" class="edge">
<title>Node10&#45;&gt;Node18</title>
<g id="a_edge22_Node000010_Node000018"><a xlink:title=" ">
<path fill="none" stroke="#63b8ff" d="M522.97,-127.29C567.88,-118.71 640.07,-104.85 712.57,-90.56"/>
<polygon fill="#63b8ff" stroke="#63b8ff" points="713.11,-94.02 722.24,-88.65 711.76,-87.16 713.11,-94.02"/>
</a>
</g>
</g>
<!-- Node11&#45;&gt;Node7 -->
<g id="edge16_Node000011_Node000007" class="edge">
<title>Node11&#45;&gt;Node7</title>
<g id="a_edge16_Node000011_Node000007"><a xlink:title=" ">
<path fill="none" stroke="#63b8ff" d="M604.16,-62.68C571.28,-51.93 518.56,-34.7 483.42,-23.21"/>
<polygon fill="#63b8ff" stroke="#63b8ff" points="484.7,-19.95 474.11,-20.17 482.53,-26.6 484.7,-19.95"/>
</a>
</g>
</g>
<!-- Node12 -->
<g id="Node000012" class="node">
<title>Node12</title>
<g id="a_Node000012"><a xlink:title=" ">
<polygon fill="#e0e0e0" stroke="#999999" points="614.71,-20.75 565.71,-20.75 565.71,0 614.71,0 614.71,-20.75"/>
<text text-anchor="middle" x="590.21" y="-7.25" font-family="Helvetica,sans-Serif" font-size="10.00">format</text>
</a>
</g>
</g>
<!-- Node11&#45;&gt;Node12 -->
<g id="edge13_Node000011_Node000012" class="edge">
<title>Node11&#45;&gt;Node12</title>
<g id="a_edge13_Node000011_Node000012"><a xlink:title=" ">
<path fill="none" stroke="#63b8ff" d="M627.14,-62.68C620.81,-53.89 611.37,-40.78 603.62,-30.01"/>
<polygon fill="#63b8ff" stroke="#63b8ff" points="606.68,-28.27 598,-22.2 601,-32.36 606.68,-28.27"/>
</a>
</g>
</g>
<!-- Node11&#45;&gt;Node13 -->
<g id="edge14_Node000011_Node000013" class="edge">
<title>Node11&#45;&gt;Node13</title>
<g id="a_edge14_Node000011_Node000013"><a xlink:title=" ">
<path fill="none" stroke="#63b8ff" d="M675.82,-62.68C726.97,-50.61 812.75,-30.36 859.81,-19.26"/>
<polygon fill="#63b8ff" stroke="#63b8ff" points="860.49,-22.69 869.42,-16.99 858.88,-15.88 860.49,-22.69"/>
</a>
</g>
</g>
<!-- Node14 -->
<g id="Node000014" class="node">
<title>Node14</title>
<g id="a_Node000014"><a xlink:title=" ">
<polygon fill="#e0e0e0" stroke="#999999" points="724.08,-20.75 632.33,-20.75 632.33,0 724.08,0 724.08,-20.75"/>
<text text-anchor="middle" x="678.21" y="-7.25" font-family="Helvetica,sans-Serif" font-size="10.00">tl/expected.hpp</text>
</a>
</g>
</g>
<!-- Node11&#45;&gt;Node14 -->
<g id="edge15_Node000011_Node000014" class="edge">
<title>Node11&#45;&gt;Node14</title>
<g id="a_edge15_Node000011_Node000014"><a xlink:title=" ">
<path fill="none" stroke="#63b8ff" d="M641.28,-62.68C647.6,-53.89 657.04,-40.78 664.79,-30.01"/>
<polygon fill="#63b8ff" stroke="#63b8ff" points="667.41,-32.36 670.42,-22.2 661.73,-28.27 667.41,-32.36"/>
</a>
</g>
</g>
<!-- Node19&#45;&gt;Node3 -->
<g id="edge30_Node000019_Node000003" class="edge">
<title>Node19&#45;&gt;Node3</title>
<g id="a_edge30_Node000019_Node000003"><a xlink:title=" ">
<path fill="none" stroke="#63b8ff" d="M54.85,-296.05C35.39,-289.43 14.75,-278.48 3.21,-260.5 -1.77,-252.74 0.34,-248.52 3.21,-239.75 23.44,-177.88 76.61,-119.99 105.26,-92.03"/>
<polygon fill="#63b8ff" stroke="#63b8ff" points="107.4,-94.83 112.21,-85.39 102.57,-89.77 107.4,-94.83"/>
</a>
</g>
</g>
<!-- Node20 -->
<g id="Node000020" class="node">
<title>Node20</title>
<g id="a_Node000020"><a xlink:href="MetricDepthModel_8hpp.html" target="_top" xlink:title=" ">
<polygon fill="white" stroke="#666666" points="192.33,-260.5 12.08,-260.5 12.08,-239.75 192.33,-239.75 192.33,-260.5"/>
<text text-anchor="middle" x="102.21" y="-247" font-family="Helvetica,sans-Serif" font-size="10.00">EyeAICore/MetricDepthModel.hpp</text>
</a>
</g>
</g>
<!-- Node19&#45;&gt;Node20 -->
<g id="edge31_Node000019_Node000020" class="edge">
<title>Node19&#45;&gt;Node20</title>
<g id="a_edge31_Node000019_Node000020"><a xlink:title=" ">
<path fill="none" stroke="#63b8ff" d="M102.21,-296.09C102.21,-289.47 102.21,-280.47 102.21,-272.27"/>
<polygon fill="#63b8ff" stroke="#63b8ff" points="105.71,-272.34 102.21,-262.34 98.71,-272.34 105.71,-272.34"/>
</a>
</g>
</g>
<!-- Node20&#45;&gt;Node3 -->
<g id="edge32_Node000020_Node000003" class="edge">
<title>Node20&#45;&gt;Node3</title>
<g id="a_edge32_Node000020_Node000003"><a xlink:title=" ">
<path fill="none" stroke="#63b8ff" d="M103.42,-239.49C106.87,-212.12 116.78,-133.47 121.56,-95.51"/>
<polygon fill="#63b8ff" stroke="#63b8ff" points="125,-96.18 122.78,-85.82 118.06,-95.31 125,-96.18"/>
</a>
</g>
</g>
<!-- Node20&#45;&gt;Node5 -->
<g id="edge34_Node000020_Node000005" class="edge">
<title>Node20&#45;&gt;Node5</title>
<g id="a_edge34_Node000020_Node000005"><a xlink:title=" ">
<path fill="none" stroke="#63b8ff" d="M93.38,-239.3C67.36,-209.12 -4.5,-116.21 40.21,-56.75 43.83,-51.93 111.94,-33.48 157.25,-21.65"/>
<polygon fill="#63b8ff" stroke="#63b8ff" points="157.97,-25.08 166.76,-19.17 156.2,-18.3 157.97,-25.08"/>
</a>
</g>
</g>
<!-- Node20&#45;&gt;Node9 -->
<g id="edge33_Node000020_Node000009" class="edge">
<title>Node20&#45;&gt;Node9</title>
<g id="a_edge33_Node000020_Node000009"><a xlink:title=" ">
<path fill="none" stroke="#63b8ff" d="M145.75,-239.27C186.06,-230.15 246.15,-216.56 289.65,-206.72"/>
<polygon fill="#63b8ff" stroke="#63b8ff" points="290.15,-210.19 299.13,-204.57 288.6,-203.37 290.15,-210.19"/>
</a>
</g>
</g>
<!-- Node21&#45;&gt;Node16 -->
<g id="edge39_Node000021_Node000016" class="edge">
<title>Node21&#45;&gt;Node16</title>
<g id="a_edge39_Node000021_Node000016"><a xlink:title=" ">
<path fill="none" stroke="#63b8ff" d="M796.38,-296.23C815.05,-261.39 879.23,-141.64 904.68,-94.14"/>
<polygon fill="#63b8ff" stroke="#63b8ff" points="907.66,-95.99 909.3,-85.52 901.49,-92.68 907.66,-95.99"/>
</a>
</g>
</g>
<!-- Node22 -->
<g id="Node000022" class="node">
<title>Node22</title>
<g id="a_Node000022"><a xlink:title=" ">
<polygon fill="#e0e0e0" stroke="#999999" points="909.71,-260.5 860.71,-260.5 860.71,-239.75 909.71,-239.75 909.71,-260.5"/>
<text text-anchor="middle" x="885.21" y="-247" font-family="Helvetica,sans-Serif" font-size="10.00">chrono</text>
</a>
</g>
</g>
<!-- Node21&#45;&gt;Node22 -->
<g id="edge37_Node000021_Node000022" class="edge">
<title>Node21&#45;&gt;Node22</title>
<g id="a_edge37_Node000021_Node000022"><a xlink:title=" ">
<path fill="none" stroke="#63b8ff" d="M808.01,-296.09C822.18,-287.83 842.7,-275.88 859.02,-266.38"/>
<polygon fill="#63b8ff" stroke="#63b8ff" points="860.36,-269.65 867.24,-261.59 856.84,-263.6 860.36,-269.65"/>
</a>
</g>
</g>
<!-- Node23 -->
<g id="Node000023" class="node">
<title>Node23</title>
<g id="a_Node000023"><a xlink:title=" ">
<polygon fill="#e0e0e0" stroke="#999999" points="804.58,-260.5 697.83,-260.5 697.83,-239.75 804.58,-239.75 804.58,-260.5"/>
<text text-anchor="middle" x="751.21" y="-247" font-family="Helvetica,sans-Serif" font-size="10.00">concurrentqueue.h</text>
</a>
</g>
</g>
<!-- Node21&#45;&gt;Node23 -->
<g id="edge38_Node000021_Node000023" class="edge">
<title>Node21&#45;&gt;Node23</title>
<g id="a_edge38_Node000021_Node000023"><a xlink:title=" ">
<path fill="none" stroke="#63b8ff" d="M784.06,-296.09C778.77,-288.85 771.4,-278.76 764.98,-269.97"/>
<polygon fill="#63b8ff" stroke="#63b8ff" points="767.91,-268.06 759.19,-262.05 762.26,-272.19 767.91,-268.06"/>
</a>
</g>
</g>
</g>
</svg>

<g id="navigator" transform="translate(0 0)" fill="#404254">
  <rect fill="#f2f5e9" fill-opacity="0.5" stroke="#606060" stroke-width=".5" x="0" y="0" width="60" height="60"/>
  <use id="zoomplus" xlink:href="#zoomPlus" x="17" y="9" onmousedown="handleZoom(evt,'in')"/>
  <use id="zoomminus" xlink:href="#zoomMin" x="42" y="9" onmousedown="handleZoom(evt,'out')"/>
  <use id="reset" xlink:href="#resetDef" x="30" y="36" onmousedown="handleReset()"/>
   <use id="arrowup" xlink:href="#arrowUp" x="0" y="0" onmousedown="handlePan(0,-1)"/>
  <use id="arrowright" xlink:href="#arrowRight" x="0" y="0" onmousedown="handlePan(1,0)"/>
  <use id="arrowdown" xlink:href="#arrowDown" x="0" y="0" onmousedown="handlePan(0,1)"/>
  <use id="arrowleft" xlink:href="#arrowLeft" x="0" y="0" onmousedown="handlePan(-1,0)"/>
</g>
<svg viewBox="0 0 15 15" width="100%" height="30px" preserveAspectRatio="xMaxYMin meet">
 <g id="arrow_out" transform="scale(0.3 0.3)">
  <a xlink:href="DepthModel_8cpp__incl_org.svg" target="_base">
   <rect id="button" ry="5" rx="5" y="6" x="6" height="38" width="38"
        fill="#f2f5e9" fill-opacity="0.5" stroke="#606060" stroke-width="1.0"/>
   <path id="arrow"
     d="M 11.500037,31.436501 C 11.940474,20.09759 22.043105,11.32322 32.158766,21.979434 L 37.068811,17.246167 C 37.068811,17.246167 37.088388,32 37.088388,32 L 22.160133,31.978069 C 22.160133,31.978069 26.997745,27.140456 26.997745,27.140456 C 18.528582,18.264221 13.291696,25.230495 11.500037,31.436501 z"
     style="fill:#404040;"/>
  </a>
 </g>
</svg>

<style type='text/css'>
<![CDATA[
[data-mouse-over-selected='false'] { opacity: 0.7; }
[data-mouse-over-selected='true']  { opacity: 1.0; }
]]>
</style>
<script type="application/ecmascript"><![CDATA[
document.addEventListener('DOMContentLoaded', (event) => {
  highlightEdges();
  highlightAdjacentNodes();
});
]]></script>
</svg>
