<?xml version="1.0" encoding="UTF-8" standalone="no"?>
<!DOCTYPE svg PUBLIC "-//W3C//DTD SVG 1.1//EN"
 "http://www.w3.org/Graphics/SVG/1.1/DTD/svg11.dtd">
<!-- Generated by graphviz version 2.43.0 (0)
 -->
<!-- Title: include/EyeAICore Pages: 1 -->
<svg width="124pt" height="255pt"
 viewBox="0.00 0.00 124.00 255.00" xmlns="http://www.w3.org/2000/svg" xmlns:xlink="http://www.w3.org/1999/xlink">
<g id="graph0" class="graph" transform="scale(1 1) rotate(0) translate(4 251)">
<title>include/EyeAICore</title>
<g id="clust1" class="cluster">
<title>clusterdir_d44c64559bbebec7f509842c48db8b23</title>
<g id="a_clust1"><a xlink:href="dir_d44c64559bbebec7f509842c48db8b23.html" target="_top" xlink:title="include">
<polygon fill="#ddddee" stroke="black" points="8,-8 8,-239 108,-239 108,-8 8,-8"/>
<text text-anchor="middle" x="58" y="-227" font-family="Helvetica,sans-Serif" font-size="10.00">include</text>
</a>
</g>
</g>
<g id="clust2" class="cluster">
<title>clusterdir_9ab333535af8b1758ac51ea22e1f79b9</title>
<g id="a_clust2"><a xlink:href="dir_9ab333535af8b1758ac51ea22e1f79b9.html" target="_top">
<polygon fill="#eeeeff" stroke="black" points="16,-16 16,-212 100,-212 100,-16 16,-16"/>
</a>
</g>
</g>
<!-- dir_9ab333535af8b1758ac51ea22e1f79b9 -->
<g id="node1" class="node">
<title>dir_9ab333535af8b1758ac51ea22e1f79b9</title>
<text text-anchor="middle" x="58" y="-183.5" font-family="Helvetica,sans-Serif" font-size="10.00">EyeAICore</text>
</g>
<!-- dir_b5d5df606cceeb8b893d52fdbaac0d98 -->
<g id="node2" class="node">
<title>dir_b5d5df606cceeb8b893d52fdbaac0d98</title>
<g id="a_node2"><a xlink:href="dir_b5d5df606cceeb8b893d52fdbaac0d98.html" target="_top" xlink:title="tflite">
<polygon fill="white" stroke="black" points="85,-132 31,-132 31,-96 85,-96 85,-132"/>
<text text-anchor="middle" x="58" y="-111.5" font-family="Helvetica,sans-Serif" font-size="10.00">tflite</text>
</a>
</g>
</g>
<!-- dir_9ab333535af8b1758ac51ea22e1f79b9&#45;&gt;dir_b5d5df606cceeb8b893d52fdbaac0d98 -->
<g id="edge2" class="edge">
<title>dir_9ab333535af8b1758ac51ea22e1f79b9&#45;&gt;dir_b5d5df606cceeb8b893d52fdbaac0d98</title>
<path fill="none" stroke="black" d="M58,-167.7C58,-159.98 58,-150.71 58,-142.11"/>
<polygon fill="black" stroke="black" points="61.5,-142.1 58,-132.1 54.5,-142.1 61.5,-142.1"/>
<g id="a_edge2&#45;headlabel"><a xlink:href="dir_000001_000002.html" target="_top" xlink:title="2">
<text text-anchor="middle" x="64.34" y="-143.2" font-family="Helvetica,sans-Serif" font-size="10.00">2</text>
</a>
</g>
</g>
<!-- dir_3724ba0f015b02c1ddc9c16614c59c8a -->
<g id="node3" class="node">
<title>dir_3724ba0f015b02c1ddc9c16614c59c8a</title>
<g id="a_node3"><a xlink:href="dir_3724ba0f015b02c1ddc9c16614c59c8a.html" target="_top" xlink:title="utils">
<polygon fill="white" stroke="black" points="85,-60 31,-60 31,-24 85,-24 85,-60"/>
<text text-anchor="middle" x="58" y="-39.5" font-family="Helvetica,sans-Serif" font-size="10.00">utils</text>
</a>
</g>
</g>
<!-- dir_b5d5df606cceeb8b893d52fdbaac0d98&#45;&gt;dir_3724ba0f015b02c1ddc9c16614c59c8a -->
<g id="edge1" class="edge">
<title>dir_b5d5df606cceeb8b893d52fdbaac0d98&#45;&gt;dir_3724ba0f015b02c1ddc9c16614c59c8a</title>
<path fill="none" stroke="black" d="M58,-95.7C58,-87.98 58,-78.71 58,-70.11"/>
<polygon fill="black" stroke="black" points="61.5,-70.1 58,-60.1 54.5,-70.1 61.5,-70.1"/>
<g id="a_edge1&#45;headlabel"><a xlink:href="dir_000002_000003.html" target="_top" xlink:title="1">
<text text-anchor="middle" x="64.34" y="-71.2" font-family="Helvetica,sans-Serif" font-size="10.00">1</text>
</a>
</g>
</g>
</g>
</svg>
