<?xml version="1.0" encoding="UTF-8" standalone="no"?>
<!DOCTYPE svg PUBLIC "-//W3C//DTD SVG 1.1//EN"
 "http://www.w3.org/Graphics/SVG/1.1/DTD/svg11.dtd">
<!-- Generated by graphviz version 12.2.1 (20241206.2353)
 -->
<!-- Title: include/EyeAICore/utils/Errors.hpp Pages: 1 -->
<svg width="297pt" height="98pt"
 viewBox="0.00 0.00 296.75 98.25" xmlns="http://www.w3.org/2000/svg" xmlns:xlink="http://www.w3.org/1999/xlink">
<g id="graph0" class="graph" transform="scale(1 1) rotate(0) translate(4 94.25)">
<title>include/EyeAICore/utils/Errors.hpp</title>
<!-- Node1 -->
<g id="Node000001" class="node">
<title>Node1</title>
<g id="a_Node000001"><a xlink:title=" ">
<polygon fill="#999999" stroke="#666666" points="195.75,-90.25 67.25,-90.25 67.25,-56.75 195.75,-56.75 195.75,-90.25"/>
<text text-anchor="start" x="75.25" y="-76.75" font-family="Helvetica,sans-Serif" font-size="10.00">include/EyeAICore/utils</text>
<text text-anchor="middle" x="131.5" y="-64" font-family="Helvetica,sans-Serif" font-size="10.00">/Errors.hpp</text>
</a>
</g>
</g>
<!-- Node2 -->
<g id="Node000002" class="node">
<title>Node2</title>
<g id="a_Node000002"><a xlink:title=" ">
<polygon fill="#e0e0e0" stroke="#999999" points="49,-20.75 0,-20.75 0,0 49,0 49,-20.75"/>
<text text-anchor="middle" x="24.5" y="-7.25" font-family="Helvetica,sans-Serif" font-size="10.00">format</text>
</a>
</g>
</g>
<!-- Node1&#45;&gt;Node2 -->
<g id="edge1_Node000001_Node000002" class="edge">
<title>Node1&#45;&gt;Node2</title>
<g id="a_edge1_Node000001_Node000002"><a xlink:title=" ">
<path fill="none" stroke="#63b8ff" d="M103.11,-56.28C87.06,-47.11 67.11,-35.72 51.33,-26.7"/>
<polygon fill="#63b8ff" stroke="#63b8ff" points="53.37,-23.84 42.95,-21.92 49.9,-29.92 53.37,-23.84"/>
</a>
</g>
</g>
<!-- Node3 -->
<g id="Node000003" class="node">
<title>Node3</title>
<g id="a_Node000003"><a xlink:title=" ">
<polygon fill="#e0e0e0" stroke="#999999" points="110.38,-20.75 66.62,-20.75 66.62,0 110.38,0 110.38,-20.75"/>
<text text-anchor="middle" x="88.5" y="-7.25" font-family="Helvetica,sans-Serif" font-size="10.00">string</text>
</a>
</g>
</g>
<!-- Node1&#45;&gt;Node3 -->
<g id="edge2_Node000001_Node000003" class="edge">
<title>Node1&#45;&gt;Node3</title>
<g id="a_edge2_Node000001_Node000003"><a xlink:title=" ">
<path fill="none" stroke="#63b8ff" d="M120.2,-56.44C114.61,-48.49 107.82,-38.84 101.97,-30.52"/>
<polygon fill="#63b8ff" stroke="#63b8ff" points="104.91,-28.62 96.29,-22.45 99.19,-32.65 104.91,-28.62"/>
</a>
</g>
</g>
<!-- Node4 -->
<g id="Node000004" class="node">
<title>Node4</title>
<g id="a_Node000004"><a xlink:title=" ">
<polygon fill="#e0e0e0" stroke="#999999" points="220.38,-20.75 128.62,-20.75 128.62,0 220.38,0 220.38,-20.75"/>
<text text-anchor="middle" x="174.5" y="-7.25" font-family="Helvetica,sans-Serif" font-size="10.00">tl/expected.hpp</text>
</a>
</g>
</g>
<!-- Node1&#45;&gt;Node4 -->
<g id="edge3_Node000001_Node000004" class="edge">
<title>Node1&#45;&gt;Node4</title>
<g id="a_edge3_Node000001_Node000004"><a xlink:title=" ">
<path fill="none" stroke="#63b8ff" d="M142.8,-56.44C148.39,-48.49 155.18,-38.84 161.03,-30.52"/>
<polygon fill="#63b8ff" stroke="#63b8ff" points="163.81,-32.65 166.71,-22.45 158.09,-28.62 163.81,-32.65"/>
</a>
</g>
</g>
<!-- Node5 -->
<g id="Node000005" class="node">
<title>Node5</title>
<g id="a_Node000005"><a xlink:title=" ">
<polygon fill="#e0e0e0" stroke="#999999" points="288.75,-20.75 238.25,-20.75 238.25,0 288.75,0 288.75,-20.75"/>
<text text-anchor="middle" x="263.5" y="-7.25" font-family="Helvetica,sans-Serif" font-size="10.00">variant</text>
</a>
</g>
</g>
<!-- Node1&#45;&gt;Node5 -->
<g id="edge4_Node000001_Node000005" class="edge">
<title>Node1&#45;&gt;Node5</title>
<g id="a_edge4_Node000001_Node000005"><a xlink:title=" ">
<path fill="none" stroke="#63b8ff" d="M166.53,-56.28C186.89,-46.85 212.34,-35.06 232.06,-25.93"/>
<polygon fill="#63b8ff" stroke="#63b8ff" points="233.38,-29.18 240.98,-21.8 230.44,-22.83 233.38,-29.18"/>
</a>
</g>
</g>
</g>
</svg>
