<?xml version="1.0" encoding="UTF-8" standalone="no"?>
<!DOCTYPE svg PUBLIC "-//W3C//DTD SVG 1.1//EN"
 "http://www.w3.org/Graphics/SVG/1.1/DTD/svg11.dtd">
<!-- Generated by graphviz version 12.2.1 (20241206.2353)
 -->
<!-- Title: include/EyeAICore/utils/Errors.hpp Pages: 1 -->
<!--zoomable 436 -->

<svg id="main" version="1.1" xmlns="http://www.w3.org/2000/svg" xmlns:xlink="http://www.w3.org/1999/xlink" xml:space="preserve" onload="init(evt)">

<style type="text/css"><![CDATA[
.node, .edge {opacity: 0.7;}
.node.selected, .edge.selected {opacity: 1;}
.edge:hover path { stroke: red; }
.edge:hover polygon { stroke: red; fill: red; }
]]></style>

<defs>
  <circle id="rim" cx="0" cy="0" r="7"/>
  <circle id="rim2" cx="0" cy="0" r="3.5"/>
  <g id="zoomPlus">
    <use xlink:href="#rim" fill="#404040"><set attributeName="fill" to="#808080" begin="zoomplus.mouseover" end="zoomplus.mouseout"/></use>
    <path d="M-4,0h8M0,-4v8" fill="none" stroke="white" stroke-width="1.5" pointer-events="none"/>
  </g>
  <g id="zoomMin">
    <use xlink:href="#rim" fill="#404040"><set attributeName="fill" to="#808080" begin="zoomminus.mouseover" end="zoomminus.mouseout"/></use>
    <path d="M-4,0h8" fill="none" stroke="white" stroke-width="1.5" pointer-events="none"/>
  </g>
  <g id="arrowUp" transform="translate(30 24)">
    <use xlink:href="#rim"/>
    <path pointer-events="none" fill="none" stroke="white" stroke-width="1.5" d="M0,-3.0v7 M-2.5,-0.5L0,-3.0L2.5,-0.5"/>
  </g>
  <g id="arrowRight" transform="rotate(90) translate(36 -43)">
    <use xlink:href="#rim"/>
    <path pointer-events="none" fill="none" stroke="white" stroke-width="1.5" d="M0,-3.0v7 M-2.5,-0.5L0,-3.0L2.5,-0.5"/>
  </g>
  <g id="arrowDown" transform="rotate(180) translate(-30 -48)">
    <use xlink:href="#rim"/>
    <path pointer-events="none" fill="none" stroke="white" stroke-width="1.5" d="M0,-3.0v7 M-2.5,-0.5L0,-3.0L2.5,-0.5"/>
  </g>
  <g id="arrowLeft" transform="rotate(270) translate(-36 17)">
    <use xlink:href="#rim"/>
    <path pointer-events="none" fill="none" stroke="white" stroke-width="1.5" d="M0,-3.0v7 M-2.5,-0.5L0,-3.0L2.5,-0.5"/>
  </g>
  <g id="resetDef">
    <use xlink:href="#rim2" fill="#404040"><set attributeName="fill" to="#808080" begin="reset.mouseover" end="reset.mouseout"/></use>
  </g>
</defs>
<script type="application/ecmascript">
var viewWidth = 995;
var viewHeight = 436;
var sectionId = 'dynsection-1';
</script>
<script type="application/ecmascript" xlink:href="svg.min.js"/>
<svg id="graph" class="graph">
<g id="viewport">
<title>include/EyeAICore/utils/Errors.hpp</title>
<!-- Node1 -->
<g id="Node000001" class="node">
<title>Node1</title>
<g id="a_Node000001"><a xlink:title=" ">
<polygon fill="#999999" stroke="#666666" points="708,-428 589.25,-428 589.25,-396 708,-396 708,-428"/>
<text text-anchor="start" x="597.25" y="-414.5" font-family="Helvetica,sans-Serif" font-size="10.00">include/EyeAICore/utils</text>
<text text-anchor="middle" x="648.62" y="-402.5" font-family="Helvetica,sans-Serif" font-size="10.00">/Errors.hpp</text>
</a>
</g>
</g>
<!-- Node2 -->
<g id="Node000002" class="node">
<title>Node2</title>
<g id="a_Node000002"><a xlink:href="TfLiteUtils_8hpp.html" target="_top" xlink:title=" ">
<polygon fill="white" stroke="#666666" points="708.38,-360 588.88,-360 588.88,-328 708.38,-328 708.38,-360"/>
<text text-anchor="start" x="596.88" y="-346.5" font-family="Helvetica,sans-Serif" font-size="10.00">include/EyeAICore/tflite</text>
<text text-anchor="middle" x="648.62" y="-334.5" font-family="Helvetica,sans-Serif" font-size="10.00">/TfLiteUtils.hpp</text>
</a>
</g>
</g>
<!-- Node1&#45;&gt;Node2 -->
<g id="edge1_Node000001_Node000002" class="edge">
<title>Node1&#45;&gt;Node2</title>
<g id="a_edge1_Node000001_Node000002"><a xlink:title=" ">
<path fill="none" stroke="#63b8ff" d="M648.62,-384.31C648.62,-376.12 648.62,-367.38 648.62,-360.22"/>
<polygon fill="#63b8ff" stroke="#63b8ff" points="645.13,-384.18 648.63,-394.18 652.13,-384.18 645.13,-384.18"/>
</a>
</g>
</g>
<!-- Node3 -->
<g id="Node000003" class="node">
<title>Node3</title>
<g id="a_Node000003"><a xlink:href="Rel2AbsDepthModel_8hpp.html" target="_top" xlink:title=" ">
<polygon fill="white" stroke="#666666" points="240.75,-224 102.5,-224 102.5,-192 240.75,-192 240.75,-224"/>
<text text-anchor="start" x="110.5" y="-210.5" font-family="Helvetica,sans-Serif" font-size="10.00">include/EyeAICore/Rel2Abs</text>
<text text-anchor="middle" x="171.62" y="-198.5" font-family="Helvetica,sans-Serif" font-size="10.00">DepthModel.hpp</text>
</a>
</g>
</g>
<!-- Node2&#45;&gt;Node3 -->
<g id="edge2_Node000002_Node000003" class="edge">
<title>Node2&#45;&gt;Node3</title>
<g id="a_edge2_Node000002_Node000003"><a xlink:title=" ">
<path fill="none" stroke="#63b8ff" d="M583.03,-324.57C488.27,-297.95 314.77,-249.21 226.44,-224.4"/>
<polygon fill="#63b8ff" stroke="#63b8ff" points="581.88,-327.88 592.45,-327.22 583.77,-321.14 581.88,-327.88"/>
</a>
</g>
</g>
<!-- Node7 -->
<g id="Node000007" class="node">
<title>Node7</title>
<g id="a_Node000007"><a xlink:href="TfLiteRuntime_8hpp.html" target="_top" xlink:title=" ">
<polygon fill="white" stroke="#666666" points="664.38,-292 544.88,-292 544.88,-260 664.38,-260 664.38,-292"/>
<text text-anchor="start" x="552.88" y="-278.5" font-family="Helvetica,sans-Serif" font-size="10.00">include/EyeAICore/tflite</text>
<text text-anchor="middle" x="604.62" y="-266.5" font-family="Helvetica,sans-Serif" font-size="10.00">/TfLiteRuntime.hpp</text>
</a>
</g>
</g>
<!-- Node2&#45;&gt;Node7 -->
<g id="edge6_Node000002_Node000007" class="edge">
<title>Node2&#45;&gt;Node7</title>
<g id="a_edge6_Node000002_Node000007"><a xlink:title=" ">
<path fill="none" stroke="#63b8ff" d="M632.16,-318.3C626.32,-309.55 619.93,-299.96 614.77,-292.22"/>
<polygon fill="#63b8ff" stroke="#63b8ff" points="629.12,-320.05 637.58,-326.43 634.95,-316.17 629.12,-320.05"/>
</a>
</g>
</g>
<!-- Node17 -->
<g id="Node000017" class="node">
<title>Node17</title>
<g id="a_Node000017"><a xlink:href="TfLiteRuntime_8cpp.html" target="_top" xlink:title=" ">
<polygon fill="white" stroke="#666666" points="986.88,-218 852.38,-218 852.38,-198 986.88,-198 986.88,-218"/>
<text text-anchor="middle" x="919.62" y="-204.5" font-family="Helvetica,sans-Serif" font-size="10.00">src/tflite/TfLiteRuntime.cpp</text>
</a>
</g>
</g>
<!-- Node2&#45;&gt;Node17 -->
<g id="edge26_Node000002_Node000017" class="edge">
<title>Node2&#45;&gt;Node17</title>
<g id="a_edge26_Node000002_Node000017"><a xlink:title=" ">
<path fill="none" stroke="#63b8ff" d="M661.64,-317.63C672.53,-298.93 689.78,-274.34 711.62,-260 725.22,-251.07 817.43,-230.52 874.42,-218.4"/>
<polygon fill="#63b8ff" stroke="#63b8ff" points="658.65,-315.81 656.86,-326.25 664.77,-319.2 658.65,-315.81"/>
</a>
</g>
</g>
<!-- Node18 -->
<g id="Node000018" class="node">
<title>Node18</title>
<g id="a_Node000018"><a xlink:href="TfLiteUtils_8cpp.html" target="_top" xlink:title=" ">
<polygon fill="white" stroke="#666666" points="838.62,-286 720.62,-286 720.62,-266 838.62,-266 838.62,-286"/>
<text text-anchor="middle" x="779.62" y="-272.5" font-family="Helvetica,sans-Serif" font-size="10.00">src/tflite/TfLiteUtils.cpp</text>
</a>
</g>
</g>
<!-- Node2&#45;&gt;Node18 -->
<g id="edge27_Node000002_Node000018" class="edge">
<title>Node2&#45;&gt;Node18</title>
<g id="a_edge27_Node000002_Node000018"><a xlink:title=" ">
<path fill="none" stroke="#63b8ff" d="M689.54,-322.39C713.39,-310.37 742.32,-295.79 760.85,-286.46"/>
<polygon fill="#63b8ff" stroke="#63b8ff" points="688.05,-319.22 680.69,-326.84 691.2,-325.47 688.05,-319.22"/>
</a>
</g>
</g>
<!-- Node4 -->
<g id="Node000004" class="node">
<title>Node4</title>
<g id="a_Node000004"><a xlink:href="MetricDepthModel_8cpp.html" target="_top" xlink:title=" ">
<polygon fill="white" stroke="#666666" points="402,-150 271.25,-150 271.25,-130 402,-130 402,-150"/>
<text text-anchor="middle" x="336.62" y="-136.5" font-family="Helvetica,sans-Serif" font-size="10.00">src/MetricDepthModel.cpp</text>
</a>
</g>
</g>
<!-- Node3&#45;&gt;Node4 -->
<g id="edge3_Node000003_Node000004" class="edge">
<title>Node3&#45;&gt;Node4</title>
<g id="a_edge3_Node000003_Node000004"><a xlink:title=" ">
<path fill="none" stroke="#63b8ff" d="M220.75,-187.35C251.23,-175.16 289.01,-160.05 312.97,-150.46"/>
<polygon fill="#63b8ff" stroke="#63b8ff" points="219.7,-184 211.72,-190.96 222.3,-190.5 219.7,-184"/>
</a>
</g>
</g>
<!-- Node5 -->
<g id="Node000005" class="node">
<title>Node5</title>
<g id="a_Node000005"><a xlink:href="Operators_8cpp.html" target="_top" xlink:title=" ">
<polygon fill="white" stroke="#666666" points="253.62,-150 159.62,-150 159.62,-130 253.62,-130 253.62,-150"/>
<text text-anchor="middle" x="206.62" y="-136.5" font-family="Helvetica,sans-Serif" font-size="10.00">src/Operators.cpp</text>
</a>
</g>
</g>
<!-- Node3&#45;&gt;Node5 -->
<g id="edge4_Node000003_Node000005" class="edge">
<title>Node3&#45;&gt;Node5</title>
<g id="a_edge4_Node000003_Node000005"><a xlink:title=" ">
<path fill="none" stroke="#63b8ff" d="M185.05,-181.68C190.89,-170.68 197.37,-158.46 201.68,-150.32"/>
<polygon fill="#63b8ff" stroke="#63b8ff" points="182.04,-179.88 180.45,-190.36 188.23,-183.16 182.04,-179.88"/>
</a>
</g>
</g>
<!-- Node6 -->
<g id="Node000006" class="node">
<title>Node6</title>
<g id="a_Node000006"><a xlink:href="Rel2AbsDepthModel_8cpp.html" target="_top" xlink:title=" ">
<polygon fill="white" stroke="#666666" points="141.25,-150 0,-150 0,-130 141.25,-130 141.25,-150"/>
<text text-anchor="middle" x="70.62" y="-136.5" font-family="Helvetica,sans-Serif" font-size="10.00">src/Rel2AbsDepthModel.cpp</text>
</a>
</g>
</g>
<!-- Node3&#45;&gt;Node6 -->
<g id="edge5_Node000003_Node000006" class="edge">
<title>Node3&#45;&gt;Node6</title>
<g id="a_edge5_Node000003_Node000006"><a xlink:title=" ">
<path fill="none" stroke="#63b8ff" d="M138.34,-185.25C120.3,-173.46 98.94,-159.5 85.1,-150.46"/>
<polygon fill="#63b8ff" stroke="#63b8ff" points="136.39,-188.16 146.68,-190.7 140.22,-182.3 136.39,-188.16"/>
</a>
</g>
</g>
<!-- Node7&#45;&gt;Node3 -->
<g id="edge13_Node000007_Node000003" class="edge">
<title>Node7&#45;&gt;Node3</title>
<g id="a_edge13_Node000007_Node000003"><a xlink:title=" ">
<path fill="none" stroke="#63b8ff" d="M533.35,-265.77C461.56,-256.23 347.69,-240.46 249.62,-224 246.77,-223.52 243.86,-223.02 240.92,-222.5"/>
<polygon fill="#63b8ff" stroke="#63b8ff" points="532.63,-269.2 543,-267.05 533.55,-262.26 532.63,-269.2"/>
</a>
</g>
</g>
<!-- Node8 -->
<g id="Node000008" class="node">
<title>Node8</title>
<g id="a_Node000008"><a xlink:href="DepthModel_8hpp.html" target="_top" xlink:title=" ">
<polygon fill="white" stroke="#666666" points="576.62,-218 404.62,-218 404.62,-198 576.62,-198 576.62,-218"/>
<text text-anchor="middle" x="490.62" y="-204.5" font-family="Helvetica,sans-Serif" font-size="10.00">include/EyeAICore/DepthModel.hpp</text>
</a>
</g>
</g>
<!-- Node7&#45;&gt;Node8 -->
<g id="edge7_Node000007_Node000008" class="edge">
<title>Node7&#45;&gt;Node8</title>
<g id="a_edge7_Node000007_Node000008"><a xlink:title=" ">
<path fill="none" stroke="#63b8ff" d="M568.18,-253.9C547.59,-241.98 522.87,-227.67 506.97,-218.46"/>
<polygon fill="#63b8ff" stroke="#63b8ff" points="566.18,-256.79 576.59,-258.77 569.69,-250.73 566.18,-256.79"/>
</a>
</g>
</g>
<!-- Node9 -->
<g id="Node000009" class="node">
<title>Node9</title>
<g id="a_Node000009"><a xlink:href="DepthModel_8cpp.html" target="_top" xlink:title=" ">
<polygon fill="white" stroke="#666666" points="546.5,-150 442.75,-150 442.75,-130 546.5,-130 546.5,-150"/>
<text text-anchor="middle" x="494.62" y="-136.5" font-family="Helvetica,sans-Serif" font-size="10.00">src/DepthModel.cpp</text>
</a>
</g>
</g>
<!-- Node7&#45;&gt;Node9 -->
<g id="edge23_Node000007_Node000009" class="edge">
<title>Node7&#45;&gt;Node9</title>
<g id="a_edge23_Node000007_Node000009"><a xlink:title=" ">
<path fill="none" stroke="#63b8ff" d="M603.98,-248.25C602.32,-230.73 597.73,-208.17 585.62,-192 570.43,-171.7 544.64,-158.35 524.39,-150.42"/>
<polygon fill="#63b8ff" stroke="#63b8ff" points="600.48,-248.42 604.62,-258.18 607.47,-247.97 600.48,-248.42"/>
</a>
</g>
</g>
<!-- Node10 -->
<g id="Node000010" class="node">
<title>Node10</title>
<g id="a_Node000010"><a xlink:href="MetricDepthModel_8hpp.html" target="_top" xlink:title=" ">
<polygon fill="white" stroke="#666666" points="386.5,-224 258.75,-224 258.75,-192 386.5,-192 386.5,-224"/>
<text text-anchor="start" x="266.75" y="-210.5" font-family="Helvetica,sans-Serif" font-size="10.00">include/EyeAICore/Metric</text>
<text text-anchor="middle" x="322.62" y="-198.5" font-family="Helvetica,sans-Serif" font-size="10.00">DepthModel.hpp</text>
</a>
</g>
</g>
<!-- Node7&#45;&gt;Node10 -->
<g id="edge10_Node000007_Node000010" class="edge">
<title>Node7&#45;&gt;Node10</title>
<g id="a_edge10_Node000007_Node000010"><a xlink:title=" ">
<path fill="none" stroke="#63b8ff" d="M533.29,-258.3C488.14,-247.74 430.26,-234.19 386.6,-223.97"/>
<polygon fill="#63b8ff" stroke="#63b8ff" points="532.47,-261.71 543,-260.58 534.06,-254.89 532.47,-261.71"/>
</a>
</g>
</g>
<!-- Node11 -->
<g id="Node000011" class="node">
<title>Node11</title>
<g id="a_Node000011"><a xlink:href="YoloModel_8hpp.html" target="_top" xlink:title=" ">
<polygon fill="white" stroke="#666666" points="796.88,-218 632.38,-218 632.38,-198 796.88,-198 796.88,-218"/>
<text text-anchor="middle" x="714.62" y="-204.5" font-family="Helvetica,sans-Serif" font-size="10.00">include/EyeAICore/YoloModel.hpp</text>
</a>
</g>
</g>
<!-- Node7&#45;&gt;Node11 -->
<g id="edge14_Node000007_Node000011" class="edge">
<title>Node7&#45;&gt;Node11</title>
<g id="a_edge14_Node000007_Node000011"><a xlink:title=" ">
<path fill="none" stroke="#63b8ff" d="M640.06,-253.74C659.87,-241.85 683.58,-227.63 698.86,-218.46"/>
<polygon fill="#63b8ff" stroke="#63b8ff" points="638.49,-250.6 631.71,-258.75 642.09,-256.6 638.49,-250.6"/>
</a>
</g>
</g>
<!-- Node16 -->
<g id="Node000016" class="node">
<title>Node16</title>
<g id="a_Node000016"><a xlink:href="YoloModel_8cpp.html" target="_top" xlink:title=" ">
<polygon fill="white" stroke="#666666" points="928.75,-150 832.5,-150 832.5,-130 928.75,-130 928.75,-150"/>
<text text-anchor="middle" x="880.62" y="-136.5" font-family="Helvetica,sans-Serif" font-size="10.00">src/YoloModel.cpp</text>
</a>
</g>
</g>
<!-- Node7&#45;&gt;Node16 -->
<g id="edge24_Node000007_Node000016" class="edge">
<title>Node7&#45;&gt;Node16</title>
<g id="a_edge24_Node000007_Node000016"><a xlink:title=" ">
<path fill="none" stroke="#63b8ff" d="M675.95,-259.03C729.05,-246.79 794.24,-230.86 805.62,-224 837.56,-204.76 863.78,-167.69 874.89,-150.36"/>
<polygon fill="#63b8ff" stroke="#63b8ff" points="675.26,-255.6 666.3,-261.25 676.83,-262.42 675.26,-255.6"/>
</a>
</g>
</g>
<!-- Node7&#45;&gt;Node17 -->
<g id="edge25_Node000007_Node000017" class="edge">
<title>Node7&#45;&gt;Node17</title>
<g id="a_edge25_Node000007_Node000017"><a xlink:title=" ">
<path fill="none" stroke="#63b8ff" d="M675.7,-260.11C736.68,-247.33 822.71,-229.31 874.63,-218.43"/>
<polygon fill="#63b8ff" stroke="#63b8ff" points="675.17,-256.64 666.1,-262.12 676.6,-263.49 675.17,-256.64"/>
</a>
</g>
</g>
<!-- Node8&#45;&gt;Node4 -->
<g id="edge9_Node000008_Node000004" class="edge">
<title>Node8&#45;&gt;Node4</title>
<g id="a_edge9_Node000008_Node000004"><a xlink:title=" ">
<path fill="none" stroke="#63b8ff" d="M458.22,-193.11C428.31,-180.29 384.7,-161.61 358.65,-150.44"/>
<polygon fill="#63b8ff" stroke="#63b8ff" points="456.6,-196.23 467.17,-196.95 459.36,-189.79 456.6,-196.23"/>
</a>
</g>
</g>
<!-- Node8&#45;&gt;Node9 -->
<g id="edge8_Node000008_Node000009" class="edge">
<title>Node8&#45;&gt;Node9</title>
<g id="a_edge8_Node000008_Node000009"><a xlink:title=" ">
<path fill="none" stroke="#63b8ff" d="M491.88,-186.28C492.61,-174.27 493.49,-159.74 494.05,-150.44"/>
<polygon fill="#63b8ff" stroke="#63b8ff" points="488.4,-185.84 491.29,-196.03 495.39,-186.26 488.4,-185.84"/>
</a>
</g>
</g>
<!-- Node10&#45;&gt;Node4 -->
<g id="edge11_Node000010_Node000004" class="edge">
<title>Node10&#45;&gt;Node4</title>
<g id="a_edge11_Node000010_Node000004"><a xlink:title=" ">
<path fill="none" stroke="#63b8ff" d="M328.21,-180.66C330.49,-169.92 332.97,-158.21 334.65,-150.32"/>
<polygon fill="#63b8ff" stroke="#63b8ff" points="324.84,-179.7 326.19,-190.21 331.69,-181.16 324.84,-179.7"/>
</a>
</g>
</g>
<!-- Node10&#45;&gt;Node5 -->
<g id="edge12_Node000010_Node000005" class="edge">
<title>Node10&#45;&gt;Node5</title>
<g id="a_edge12_Node000010_Node000005"><a xlink:title=" ">
<path fill="none" stroke="#63b8ff" d="M285.54,-185.9C264.59,-173.98 239.44,-159.67 223.25,-150.46"/>
<polygon fill="#63b8ff" stroke="#63b8ff" points="283.69,-188.87 294.11,-190.78 287.15,-182.79 283.69,-188.87"/>
</a>
</g>
</g>
<!-- Node12 -->
<g id="Node000012" class="node">
<title>Node12</title>
<g id="a_Node000012"><a xlink:href="ObjectTracker_8hpp.html" target="_top" xlink:title=" ">
<polygon fill="white" stroke="#666666" points="776.25,-156 647,-156 647,-124 776.25,-124 776.25,-156"/>
<text text-anchor="start" x="655" y="-142.5" font-family="Helvetica,sans-Serif" font-size="10.00">include/EyeAICore/Object</text>
<text text-anchor="middle" x="711.62" y="-130.5" font-family="Helvetica,sans-Serif" font-size="10.00">Tracker.hpp</text>
</a>
</g>
</g>
<!-- Node11&#45;&gt;Node12 -->
<g id="edge15_Node000011_Node000012" class="edge">
<title>Node11&#45;&gt;Node12</title>
<g id="a_edge15_Node000011_Node000012"><a xlink:title=" ">
<path fill="none" stroke="#63b8ff" d="M713.68,-186.1C713.24,-176.43 712.72,-165.16 712.32,-156.3"/>
<polygon fill="#63b8ff" stroke="#63b8ff" points="710.18,-186.2 714.13,-196.03 717.17,-185.88 710.18,-186.2"/>
</a>
</g>
</g>
<!-- Node13 -->
<g id="Node000013" class="node">
<title>Node13</title>
<g id="a_Node000013"><a xlink:href="SpatialAudio_8hpp.html" target="_top" xlink:title=" ">
<polygon fill="white" stroke="#666666" points="862.62,-88 738.62,-88 738.62,-56 862.62,-56 862.62,-88"/>
<text text-anchor="start" x="746.62" y="-74.5" font-family="Helvetica,sans-Serif" font-size="10.00">include/EyeAICore/audio</text>
<text text-anchor="middle" x="800.62" y="-62.5" font-family="Helvetica,sans-Serif" font-size="10.00">/SpatialAudio.hpp</text>
</a>
</g>
</g>
<!-- Node11&#45;&gt;Node13 -->
<g id="edge19_Node000011_Node000013" class="edge">
<title>Node11&#45;&gt;Node13</title>
<g id="a_edge19_Node000011_Node000013"><a xlink:title=" ">
<path fill="none" stroke="#63b8ff" d="M745.12,-192.2C759.62,-183.62 775.88,-171.43 785.62,-156 798.76,-135.2 801.12,-105.96 801.18,-88.31"/>
<polygon fill="#63b8ff" stroke="#63b8ff" points="743.83,-188.92 736.79,-196.83 747.23,-195.04 743.83,-188.92"/>
</a>
</g>
</g>
<!-- Node14 -->
<g id="Node000014" class="node">
<title>Node14</title>
<g id="a_Node000014"><a xlink:href="SpatialAudio_8cpp.html" target="_top" xlink:title=" ">
<polygon fill="white" stroke="#666666" points="756.75,-20 624.5,-20 624.5,0 756.75,0 756.75,-20"/>
<text text-anchor="middle" x="690.62" y="-6.5" font-family="Helvetica,sans-Serif" font-size="10.00">src/audio/SpatialAudio.cpp</text>
</a>
</g>
</g>
<!-- Node11&#45;&gt;Node14 -->
<g id="edge22_Node000011_Node000014" class="edge">
<title>Node11&#45;&gt;Node14</title>
<g id="a_edge22_Node000011_Node000014"><a xlink:title=" ">
<path fill="none" stroke="#63b8ff" d="M680.79,-192.77C663.66,-184.18 643.58,-171.82 629.62,-156 607.77,-131.23 606.44,-120.32 599.62,-88 596.69,-74.08 592.12,-68.08 599.62,-56 610.78,-38.03 631.48,-27.02 650.31,-20.39"/>
<polygon fill="#63b8ff" stroke="#63b8ff" points="679.1,-195.84 689.64,-196.98 682.11,-189.52 679.1,-195.84"/>
</a>
</g>
</g>
<!-- Node15 -->
<g id="Node000015" class="node">
<title>Node15</title>
<g id="a_Node000015"><a xlink:href="ObjectTracker_8cpp.html" target="_top" xlink:title=" ">
<polygon fill="white" stroke="#666666" points="721,-82 608.25,-82 608.25,-62 721,-62 721,-82"/>
<text text-anchor="middle" x="664.62" y="-68.5" font-family="Helvetica,sans-Serif" font-size="10.00">src/ObjectTracker.cpp</text>
</a>
</g>
</g>
<!-- Node11&#45;&gt;Node15 -->
<g id="edge20_Node000011_Node000015" class="edge">
<title>Node11&#45;&gt;Node15</title>
<g id="a_edge20_Node000011_Node000015"><a xlink:title=" ">
<path fill="none" stroke="#63b8ff" d="M678.82,-192.73C663.2,-184.49 646.46,-172.45 637.62,-156 624.22,-131.04 644.8,-98.26 656.88,-82.4"/>
<polygon fill="#63b8ff" stroke="#63b8ff" points="676.94,-195.71 687.46,-196.94 680,-189.41 676.94,-195.71"/>
</a>
</g>
</g>
<!-- Node11&#45;&gt;Node16 -->
<g id="edge21_Node000011_Node000016" class="edge">
<title>Node11&#45;&gt;Node16</title>
<g id="a_edge21_Node000011_Node000016"><a xlink:title=" ">
<path fill="none" stroke="#63b8ff" d="M748.71,-193.45C780.97,-180.62 828.55,-161.7 856.89,-150.44"/>
<polygon fill="#63b8ff" stroke="#63b8ff" points="747.81,-190.04 739.82,-196.98 750.4,-196.54 747.81,-190.04"/>
</a>
</g>
</g>
<!-- Node12&#45;&gt;Node13 -->
<g id="edge16_Node000012_Node000013" class="edge">
<title>Node12&#45;&gt;Node13</title>
<g id="a_edge16_Node000012_Node000013"><a xlink:title=" ">
<path fill="none" stroke="#63b8ff" d="M741.46,-116.87C754.04,-107.55 768.38,-96.91 779.79,-88.45"/>
<polygon fill="#63b8ff" stroke="#63b8ff" points="739.43,-114.02 733.48,-122.79 743.6,-119.65 739.43,-114.02"/>
</a>
</g>
</g>
<!-- Node12&#45;&gt;Node15 -->
<g id="edge18_Node000012_Node000015" class="edge">
<title>Node12&#45;&gt;Node15</title>
<g id="a_edge18_Node000012_Node000015"><a xlink:title=" ">
<path fill="none" stroke="#63b8ff" d="M694.08,-114.36C686.12,-103.18 677.18,-90.63 671.26,-82.32"/>
<polygon fill="#63b8ff" stroke="#63b8ff" points="691.19,-116.34 699.85,-122.46 696.9,-112.28 691.19,-116.34"/>
</a>
</g>
</g>
<!-- Node13&#45;&gt;Node14 -->
<g id="edge17_Node000013_Node000014" class="edge">
<title>Node13&#45;&gt;Node14</title>
<g id="a_edge17_Node000013_Node000014"><a xlink:title=" ">
<path fill="none" stroke="#63b8ff" d="M762.34,-50.12C743.78,-39.99 722.42,-28.34 707.87,-20.41"/>
<polygon fill="#63b8ff" stroke="#63b8ff" points="760.51,-53.11 770.97,-54.82 763.87,-46.96 760.51,-53.11"/>
</a>
</g>
</g>
</g>
</svg>

<g id="navigator" transform="translate(0 0)" fill="#404254">
  <rect fill="#f2f5e9" fill-opacity="0.5" stroke="#606060" stroke-width=".5" x="0" y="0" width="60" height="60"/>
  <use id="zoomplus" xlink:href="#zoomPlus" x="17" y="9" onmousedown="handleZoom(evt,'in')"/>
  <use id="zoomminus" xlink:href="#zoomMin" x="42" y="9" onmousedown="handleZoom(evt,'out')"/>
  <use id="reset" xlink:href="#resetDef" x="30" y="36" onmousedown="handleReset()"/>
   <use id="arrowup" xlink:href="#arrowUp" x="0" y="0" onmousedown="handlePan(0,-1)"/>
  <use id="arrowright" xlink:href="#arrowRight" x="0" y="0" onmousedown="handlePan(1,0)"/>
  <use id="arrowdown" xlink:href="#arrowDown" x="0" y="0" onmousedown="handlePan(0,1)"/>
  <use id="arrowleft" xlink:href="#arrowLeft" x="0" y="0" onmousedown="handlePan(-1,0)"/>
</g>
<svg viewBox="0 0 15 15" width="100%" height="30px" preserveAspectRatio="xMaxYMin meet">
 <g id="arrow_out" transform="scale(0.3 0.3)">
  <a xlink:href="Errors_8hpp__dep__incl_org.svg" target="_base">
   <rect id="button" ry="5" rx="5" y="6" x="6" height="38" width="38"
        fill="#f2f5e9" fill-opacity="0.5" stroke="#606060" stroke-width="1.0"/>
   <path id="arrow"
     d="M 11.500037,31.436501 C 11.940474,20.09759 22.043105,11.32322 32.158766,21.979434 L 37.068811,17.246167 C 37.068811,17.246167 37.088388,32 37.088388,32 L 22.160133,31.978069 C 22.160133,31.978069 26.997745,27.140456 26.997745,27.140456 C 18.528582,18.264221 13.291696,25.230495 11.500037,31.436501 z"
     style="fill:#404040;"/>
  </a>
 </g>
</svg>

<style type='text/css'>
<![CDATA[
[data-mouse-over-selected='false'] { opacity: 0.7; }
[data-mouse-over-selected='true']  { opacity: 1.0; }
]]>
</style>
<script type="application/ecmascript"><![CDATA[
document.addEventListener('DOMContentLoaded', (event) => {
  highlightEdges();
  highlightAdjacentNodes();
});
]]></script>
</svg>
