<?xml version="1.0" encoding="UTF-8" standalone="no"?>
<!DOCTYPE svg PUBLIC "-//W3C//DTD SVG 1.1//EN"
 "http://www.w3.org/Graphics/SVG/1.1/DTD/svg11.dtd">
<!-- Generated by graphviz version 12.2.1 (20241206.2353)
 -->
<!-- Title: include/EyeAICore/utils/Errors.hpp Pages: 1 -->
<svg width="638pt" height="288pt"
 viewBox="0.00 0.00 638.00 288.00" xmlns="http://www.w3.org/2000/svg" xmlns:xlink="http://www.w3.org/1999/xlink">
<g id="graph0" class="graph" transform="scale(1 1) rotate(0) translate(4 284)">
<title>include/EyeAICore/utils/Errors.hpp</title>
<!-- Node1 -->
<g id="Node000001" class="node">
<title>Node1</title>
<g id="a_Node000001"><a xlink:title=" ">
<polygon fill="#999999" stroke="#666666" points="543.38,-280 424.62,-280 424.62,-248 543.38,-248 543.38,-280"/>
<text text-anchor="start" x="432.62" y="-266.5" font-family="Helvetica,sans-Serif" font-size="10.00">include/EyeAICore/utils</text>
<text text-anchor="middle" x="484" y="-254.5" font-family="Helvetica,sans-Serif" font-size="10.00">/Errors.hpp</text>
</a>
</g>
</g>
<!-- Node2 -->
<g id="Node000002" class="node">
<title>Node2</title>
<g id="a_Node000002"><a xlink:href="TfLiteUtils_8hpp.html" target="_top" xlink:title=" ">
<polygon fill="white" stroke="#666666" points="543.75,-212 424.25,-212 424.25,-180 543.75,-180 543.75,-212"/>
<text text-anchor="start" x="432.25" y="-198.5" font-family="Helvetica,sans-Serif" font-size="10.00">include/EyeAICore/tflite</text>
<text text-anchor="middle" x="484" y="-186.5" font-family="Helvetica,sans-Serif" font-size="10.00">/TfLiteUtils.hpp</text>
</a>
</g>
</g>
<!-- Node1&#45;&gt;Node2 -->
<g id="edge1_Node000001_Node000002" class="edge">
<title>Node1&#45;&gt;Node2</title>
<g id="a_edge1_Node000001_Node000002"><a xlink:title=" ">
<path fill="none" stroke="#63b8ff" d="M484,-236.31C484,-228.12 484,-219.38 484,-212.22"/>
<polygon fill="#63b8ff" stroke="#63b8ff" points="480.5,-236.18 484,-246.18 487.5,-236.18 480.5,-236.18"/>
</a>
</g>
</g>
<!-- Node3 -->
<g id="Node000003" class="node">
<title>Node3</title>
<g id="a_Node000003"><a xlink:href="TfLiteRuntime_8hpp.html" target="_top" xlink:title=" ">
<polygon fill="white" stroke="#666666" points="424.75,-144 305.25,-144 305.25,-112 424.75,-112 424.75,-144"/>
<text text-anchor="start" x="313.25" y="-130.5" font-family="Helvetica,sans-Serif" font-size="10.00">include/EyeAICore/tflite</text>
<text text-anchor="middle" x="365" y="-118.5" font-family="Helvetica,sans-Serif" font-size="10.00">/TfLiteRuntime.hpp</text>
</a>
</g>
</g>
<!-- Node2&#45;&gt;Node3 -->
<g id="edge2_Node000002_Node000003" class="edge">
<title>Node2&#45;&gt;Node3</title>
<g id="a_edge2_Node000002_Node000003"><a xlink:title=" ">
<path fill="none" stroke="#63b8ff" d="M446.26,-174.07C428.89,-164.44 408.66,-153.21 392.73,-144.38"/>
<polygon fill="#63b8ff" stroke="#63b8ff" points="444.33,-177 454.78,-178.79 447.73,-170.88 444.33,-177"/>
</a>
</g>
</g>
<!-- Node8 -->
<g id="Node000008" class="node">
<title>Node8</title>
<g id="a_Node000008"><a xlink:href="TfLiteRuntime_8cpp.html" target="_top" xlink:title=" ">
<polygon fill="white" stroke="#666666" points="582.25,-76 447.75,-76 447.75,-56 582.25,-56 582.25,-76"/>
<text text-anchor="middle" x="515" y="-62.5" font-family="Helvetica,sans-Serif" font-size="10.00">src/tflite/TfLiteRuntime.cpp</text>
</a>
</g>
</g>
<!-- Node2&#45;&gt;Node8 -->
<g id="edge10_Node000002_Node000008" class="edge">
<title>Node2&#45;&gt;Node8</title>
<g id="a_edge10_Node000002_Node000008"><a xlink:title=" ">
<path fill="none" stroke="#63b8ff" d="M489.76,-168.76C493.41,-152.41 498.31,-130.94 503,-112 506.07,-99.6 509.92,-85.36 512.42,-76.28"/>
<polygon fill="#63b8ff" stroke="#63b8ff" points="486.41,-167.67 487.67,-178.19 493.25,-169.18 486.41,-167.67"/>
</a>
</g>
</g>
<!-- Node9 -->
<g id="Node000009" class="node">
<title>Node9</title>
<g id="a_Node000009"><a xlink:href="TfLiteUtils_8cpp.html" target="_top" xlink:title=" ">
<polygon fill="white" stroke="#666666" points="630,-138 512,-138 512,-118 630,-118 630,-138"/>
<text text-anchor="middle" x="571" y="-124.5" font-family="Helvetica,sans-Serif" font-size="10.00">src/tflite/TfLiteUtils.cpp</text>
</a>
</g>
</g>
<!-- Node2&#45;&gt;Node9 -->
<g id="edge11_Node000002_Node000009" class="edge">
<title>Node2&#45;&gt;Node9</title>
<g id="a_edge11_Node000002_Node000009"><a xlink:title=" ">
<path fill="none" stroke="#63b8ff" d="M512.95,-173.04C528.51,-161.24 546.88,-147.3 558.72,-138.32"/>
<polygon fill="#63b8ff" stroke="#63b8ff" points="511.24,-169.95 505.38,-178.78 515.47,-175.52 511.24,-169.95"/>
</a>
</g>
</g>
<!-- Node4 -->
<g id="Node000004" class="node">
<title>Node4</title>
<g id="a_Node000004"><a xlink:href="DepthModel_8hpp.html" target="_top" xlink:title=" ">
<polygon fill="white" stroke="#666666" points="172,-76 0,-76 0,-56 172,-56 172,-76"/>
<text text-anchor="middle" x="86" y="-62.5" font-family="Helvetica,sans-Serif" font-size="10.00">include/EyeAICore/DepthModel.hpp</text>
</a>
</g>
</g>
<!-- Node3&#45;&gt;Node4 -->
<g id="edge3_Node000003_Node000004" class="edge">
<title>Node3&#45;&gt;Node4</title>
<g id="a_edge3_Node000003_Node000004"><a xlink:title=" ">
<path fill="none" stroke="#63b8ff" d="M293.73,-111.67C242.14,-100.58 174.02,-85.93 130.11,-76.49"/>
<polygon fill="#63b8ff" stroke="#63b8ff" points="292.81,-115.06 303.32,-113.74 294.28,-108.21 292.81,-115.06"/>
</a>
</g>
</g>
<!-- Node5 -->
<g id="Node000005" class="node">
<title>Node5</title>
<g id="a_Node000005"><a xlink:href="DepthModel_8cpp.html" target="_top" xlink:title=" ">
<polygon fill="white" stroke="#666666" points="220.88,-20 117.12,-20 117.12,0 220.88,0 220.88,-20"/>
<text text-anchor="middle" x="169" y="-6.5" font-family="Helvetica,sans-Serif" font-size="10.00">src/DepthModel.cpp</text>
</a>
</g>
</g>
<!-- Node3&#45;&gt;Node5 -->
<g id="edge7_Node000003_Node000005" class="edge">
<title>Node3&#45;&gt;Node5</title>
<g id="a_edge7_Node000003_Node000005"><a xlink:title=" ">
<path fill="none" stroke="#63b8ff" d="M293.78,-111.13C268.61,-103.27 241.09,-91.96 219,-76 198,-60.83 181.59,-34.37 173.85,-20.35"/>
<polygon fill="#63b8ff" stroke="#63b8ff" points="292.74,-114.47 303.32,-113.96 294.73,-107.76 292.74,-114.47"/>
</a>
</g>
</g>
<!-- Node6 -->
<g id="Node000006" class="node">
<title>Node6</title>
<g id="a_Node000006"><a xlink:href="YoloModel_8hpp.html" target="_top" xlink:title=" ">
<polygon fill="white" stroke="#666666" points="392.25,-76 227.75,-76 227.75,-56 392.25,-56 392.25,-76"/>
<text text-anchor="middle" x="310" y="-62.5" font-family="Helvetica,sans-Serif" font-size="10.00">include/EyeAICore/YoloModel.hpp</text>
</a>
</g>
</g>
<!-- Node3&#45;&gt;Node6 -->
<g id="edge5_Node000003_Node000006" class="edge">
<title>Node3&#45;&gt;Node6</title>
<g id="a_edge5_Node000003_Node000006"><a xlink:title=" ">
<path fill="none" stroke="#63b8ff" d="M343.25,-103.27C334.63,-93.87 325.22,-83.61 318.62,-76.41"/>
<polygon fill="#63b8ff" stroke="#63b8ff" points="340.48,-105.43 349.81,-110.43 345.64,-100.7 340.48,-105.43"/>
</a>
</g>
</g>
<!-- Node7 -->
<g id="Node000007" class="node">
<title>Node7</title>
<g id="a_Node000007"><a xlink:href="YoloModel_8cpp.html" target="_top" xlink:title=" ">
<polygon fill="white" stroke="#666666" points="388.12,-20 291.88,-20 291.88,0 388.12,0 388.12,-20"/>
<text text-anchor="middle" x="340" y="-6.5" font-family="Helvetica,sans-Serif" font-size="10.00">src/YoloModel.cpp</text>
</a>
</g>
</g>
<!-- Node3&#45;&gt;Node7 -->
<g id="edge8_Node000003_Node000007" class="edge">
<title>Node3&#45;&gt;Node7</title>
<g id="a_edge8_Node000003_Node000007"><a xlink:title=" ">
<path fill="none" stroke="#63b8ff" d="M388.99,-103.33C399.98,-89.53 408.97,-71.79 401,-56 392.75,-39.67 375.48,-27.81 361.41,-20.37"/>
<polygon fill="#63b8ff" stroke="#63b8ff" points="386.56,-100.79 382.63,-110.63 391.84,-105.39 386.56,-100.79"/>
</a>
</g>
</g>
<!-- Node3&#45;&gt;Node8 -->
<g id="edge9_Node000003_Node000008" class="edge">
<title>Node3&#45;&gt;Node8</title>
<g id="a_edge9_Node000003_Node000008"><a xlink:title=" ">
<path fill="none" stroke="#63b8ff" d="M414.07,-107.37C440.07,-96.97 470.81,-84.67 491.48,-76.41"/>
<polygon fill="#63b8ff" stroke="#63b8ff" points="413.02,-104.02 405.03,-110.99 415.62,-110.52 413.02,-104.02"/>
</a>
</g>
</g>
<!-- Node4&#45;&gt;Node5 -->
<g id="edge4_Node000004_Node000005" class="edge">
<title>Node4&#45;&gt;Node5</title>
<g id="a_edge4_Node000004_Node000005"><a xlink:title=" ">
<path fill="none" stroke="#63b8ff" d="M109.76,-49.54C124.17,-40.17 142.09,-28.51 154.43,-20.48"/>
<polygon fill="#63b8ff" stroke="#63b8ff" points="108.2,-46.38 101.73,-54.77 112.02,-52.25 108.2,-46.38"/>
</a>
</g>
</g>
<!-- Node6&#45;&gt;Node7 -->
<g id="edge6_Node000006_Node000007" class="edge">
<title>Node6&#45;&gt;Node7</title>
<g id="a_edge6_Node000006_Node000007"><a xlink:title=" ">
<path fill="none" stroke="#63b8ff" d="M320.79,-45.58C325.57,-36.97 330.98,-27.24 334.83,-20.3"/>
<polygon fill="#63b8ff" stroke="#63b8ff" points="317.76,-43.83 315.96,-54.27 323.88,-47.23 317.76,-43.83"/>
</a>
</g>
</g>
</g>
</svg>
