<?xml version="1.0" encoding="UTF-8" standalone="no"?>
<!DOCTYPE svg PUBLIC "-//W3C//DTD SVG 1.1//EN"
 "http://www.w3.org/Graphics/SVG/1.1/DTD/svg11.dtd">
<!-- Generated by graphviz version 12.2.1 (20241206.2353)
 -->
<!-- Title: src/MetricDepthModel.cpp Pages: 1 -->
<!--zoomable 320 -->

<svg id="main" version="1.1" xmlns="http://www.w3.org/2000/svg" xmlns:xlink="http://www.w3.org/1999/xlink" xml:space="preserve" onload="init(evt)">

<style type="text/css"><![CDATA[
.node, .edge {opacity: 0.7;}
.node.selected, .edge.selected {opacity: 1;}
.edge:hover path { stroke: red; }
.edge:hover polygon { stroke: red; fill: red; }
]]></style>

<defs>
  <circle id="rim" cx="0" cy="0" r="7"/>
  <circle id="rim2" cx="0" cy="0" r="3.5"/>
  <g id="zoomPlus">
    <use xlink:href="#rim" fill="#404040"><set attributeName="fill" to="#808080" begin="zoomplus.mouseover" end="zoomplus.mouseout"/></use>
    <path d="M-4,0h8M0,-4v8" fill="none" stroke="white" stroke-width="1.5" pointer-events="none"/>
  </g>
  <g id="zoomMin">
    <use xlink:href="#rim" fill="#404040"><set attributeName="fill" to="#808080" begin="zoomminus.mouseover" end="zoomminus.mouseout"/></use>
    <path d="M-4,0h8" fill="none" stroke="white" stroke-width="1.5" pointer-events="none"/>
  </g>
  <g id="arrowUp" transform="translate(30 24)">
    <use xlink:href="#rim"/>
    <path pointer-events="none" fill="none" stroke="white" stroke-width="1.5" d="M0,-3.0v7 M-2.5,-0.5L0,-3.0L2.5,-0.5"/>
  </g>
  <g id="arrowRight" transform="rotate(90) translate(36 -43)">
    <use xlink:href="#rim"/>
    <path pointer-events="none" fill="none" stroke="white" stroke-width="1.5" d="M0,-3.0v7 M-2.5,-0.5L0,-3.0L2.5,-0.5"/>
  </g>
  <g id="arrowDown" transform="rotate(180) translate(-30 -48)">
    <use xlink:href="#rim"/>
    <path pointer-events="none" fill="none" stroke="white" stroke-width="1.5" d="M0,-3.0v7 M-2.5,-0.5L0,-3.0L2.5,-0.5"/>
  </g>
  <g id="arrowLeft" transform="rotate(270) translate(-36 17)">
    <use xlink:href="#rim"/>
    <path pointer-events="none" fill="none" stroke="white" stroke-width="1.5" d="M0,-3.0v7 M-2.5,-0.5L0,-3.0L2.5,-0.5"/>
  </g>
  <g id="resetDef">
    <use xlink:href="#rim2" fill="#404040"><set attributeName="fill" to="#808080" begin="reset.mouseover" end="reset.mouseout"/></use>
  </g>
</defs>
<script type="application/ecmascript">
var viewWidth = 1286;
var viewHeight = 320;
var sectionId = 'dynsection-0';
</script>
<script type="application/ecmascript" xlink:href="svg.min.js"/>
<svg id="graph" class="graph">
<g id="viewport">
<title>src/MetricDepthModel.cpp</title>
<!-- Node1 -->
<g id="Node000001" class="node">
<title>Node1</title>
<g id="a_Node000001"><a xlink:title=" ">
<polygon fill="#999999" stroke="#666666" points="390,-312 259.25,-312 259.25,-292 390,-292 390,-312"/>
<text text-anchor="middle" x="324.62" y="-298.5" font-family="Helvetica,sans-Serif" font-size="10.00">src/MetricDepthModel.cpp</text>
</a>
</g>
</g>
<!-- Node2 -->
<g id="Node000002" class="node">
<title>Node2</title>
<g id="a_Node000002"><a xlink:href="MetricDepthModel_8hpp.html" target="_top" xlink:title=" ">
<polygon fill="white" stroke="#666666" points="165.25,-256 0,-256 0,-236 165.25,-236 165.25,-256"/>
<text text-anchor="middle" x="82.62" y="-242.5" font-family="Helvetica,sans-Serif" font-size="10.00">EyeAICore/MetricDepthModel.hpp</text>
</a>
</g>
</g>
<!-- Node1&#45;&gt;Node2 -->
<g id="edge1_Node000001_Node000002" class="edge">
<title>Node1&#45;&gt;Node2</title>
<g id="a_edge1_Node000001_Node000002"><a xlink:title=" ">
<path fill="none" stroke="#63b8ff" d="M282.19,-291.53C241.54,-282.46 180.04,-268.74 136.07,-258.93"/>
<polygon fill="#63b8ff" stroke="#63b8ff" points="137.01,-255.55 126.48,-256.79 135.48,-262.38 137.01,-255.55"/>
</a>
</g>
</g>
<!-- Node19 -->
<g id="Node000019" class="node">
<title>Node19</title>
<g id="a_Node000019"><a xlink:href="DepthModel_8hpp.html" target="_top" xlink:title=" ">
<polygon fill="white" stroke="#666666" points="568.75,-256 430.5,-256 430.5,-236 568.75,-236 568.75,-256"/>
<text text-anchor="middle" x="499.62" y="-242.5" font-family="Helvetica,sans-Serif" font-size="10.00">EyeAICore/DepthModel.hpp</text>
</a>
</g>
</g>
<!-- Node1&#45;&gt;Node19 -->
<g id="edge30_Node000001_Node000019" class="edge">
<title>Node1&#45;&gt;Node19</title>
<g id="a_edge30_Node000001_Node000019"><a xlink:title=" ">
<path fill="none" stroke="#63b8ff" d="M355.11,-291.59C383.66,-282.78 426.57,-269.54 458.22,-259.78"/>
<polygon fill="#63b8ff" stroke="#63b8ff" points="458.93,-263.22 467.46,-256.93 456.87,-256.53 458.93,-263.22"/>
</a>
</g>
</g>
<!-- Node20 -->
<g id="Node000020" class="node">
<title>Node20</title>
<g id="a_Node000020"><a xlink:href="Operators_8hpp.html" target="_top" xlink:title=" ">
<polygon fill="white" stroke="#666666" points="265.88,-144 137.38,-144 137.38,-124 265.88,-124 265.88,-144"/>
<text text-anchor="middle" x="201.62" y="-130.5" font-family="Helvetica,sans-Serif" font-size="10.00">EyeAICore/Operators.hpp</text>
</a>
</g>
</g>
<!-- Node1&#45;&gt;Node20 -->
<g id="edge33_Node000001_Node000020" class="edge">
<title>Node1&#45;&gt;Node20</title>
<g id="a_edge33_Node000001_Node000020"><a xlink:title=" ">
<path fill="none" stroke="#63b8ff" d="M284.82,-291.63C264.83,-284.93 241.88,-273.84 227.62,-256 204.45,-226.99 200.72,-182.01 200.74,-155.84"/>
<polygon fill="#63b8ff" stroke="#63b8ff" points="204.23,-155.94 200.96,-145.87 197.24,-155.79 204.23,-155.94"/>
</a>
</g>
</g>
<!-- Node21 -->
<g id="Node000021" class="node">
<title>Node21</title>
<g id="a_Node000021"><a xlink:href="Rel2AbsDepthModel_8hpp.html" target="_top" xlink:title=" ">
<polygon fill="white" stroke="#666666" points="412.5,-256 236.75,-256 236.75,-236 412.5,-236 412.5,-256"/>
<text text-anchor="middle" x="324.62" y="-242.5" font-family="Helvetica,sans-Serif" font-size="10.00">EyeAICore/Rel2AbsDepthModel.hpp</text>
</a>
</g>
</g>
<!-- Node1&#45;&gt;Node21 -->
<g id="edge35_Node000001_Node000021" class="edge">
<title>Node1&#45;&gt;Node21</title>
<g id="a_edge35_Node000001_Node000021"><a xlink:title=" ">
<path fill="none" stroke="#63b8ff" d="M324.62,-291.59C324.62,-285.01 324.62,-275.96 324.62,-267.73"/>
<polygon fill="#63b8ff" stroke="#63b8ff" points="328.13,-267.81 324.63,-257.81 321.13,-267.81 328.13,-267.81"/>
</a>
</g>
</g>
<!-- Node22 -->
<g id="Node000022" class="node">
<title>Node22</title>
<g id="a_Node000022"><a xlink:href="Profiling_8hpp.html" target="_top" xlink:title=" ">
<polygon fill="white" stroke="#666666" points="1186.62,-256 1044.62,-256 1044.62,-236 1186.62,-236 1186.62,-256"/>
<text text-anchor="middle" x="1115.62" y="-242.5" font-family="Helvetica,sans-Serif" font-size="10.00">EyeAICore/utils/Profiling.hpp</text>
</a>
</g>
</g>
<!-- Node1&#45;&gt;Node22 -->
<g id="edge40_Node000001_Node000022" class="edge">
<title>Node1&#45;&gt;Node22</title>
<g id="a_edge40_Node000001_Node000022"><a xlink:title=" ">
<path fill="none" stroke="#63b8ff" d="M390.37,-296.51C534,-286.71 875.57,-263.39 1033.25,-252.62"/>
<polygon fill="#63b8ff" stroke="#63b8ff" points="1033.03,-256.15 1042.77,-251.97 1032.56,-249.16 1033.03,-256.15"/>
</a>
</g>
</g>
<!-- Node3 -->
<g id="Node000003" class="node">
<title>Node3</title>
<g id="a_Node000003"><a xlink:href="TensorBuffer_8hpp.html" target="_top" xlink:title=" ">
<polygon fill="white" stroke="#666666" points="400.88,-82 260.38,-82 260.38,-62 400.88,-62 400.88,-82"/>
<text text-anchor="middle" x="330.62" y="-68.5" font-family="Helvetica,sans-Serif" font-size="10.00">EyeAICore/TensorBuffer.hpp</text>
</a>
</g>
</g>
<!-- Node2&#45;&gt;Node3 -->
<g id="edge2_Node000002_Node000003" class="edge">
<title>Node2&#45;&gt;Node3</title>
<g id="a_edge2_Node000002_Node000003"><a xlink:title=" ">
<path fill="none" stroke="#63b8ff" d="M83.31,-235.82C85.5,-213.22 94.38,-154.48 128.62,-124 161.34,-94.87 208.32,-81.89 248.73,-76.3"/>
<polygon fill="#63b8ff" stroke="#63b8ff" points="248.95,-79.8 258.44,-75.09 248.08,-72.85 248.95,-79.8"/>
</a>
</g>
</g>
<!-- Node5 -->
<g id="Node000005" class="node">
<title>Node5</title>
<g id="a_Node000005"><a xlink:title=" ">
<polygon fill="#e0e0e0" stroke="#999999" points="258.25,-20 207,-20 207,0 258.25,0 258.25,-20"/>
<text text-anchor="middle" x="232.62" y="-6.5" font-family="Helvetica,sans-Serif" font-size="10.00">memory</text>
</a>
</g>
</g>
<!-- Node2&#45;&gt;Node5 -->
<g id="edge29_Node000002_Node000005" class="edge">
<title>Node2&#45;&gt;Node5</title>
<g id="a_edge29_Node000002_Node000005"><a xlink:title=" ">
<path fill="none" stroke="#63b8ff" d="M82.02,-235.68C80.6,-205.44 80.31,-108.95 129.62,-56 147.18,-37.15 174.01,-25.78 195.89,-19.18"/>
<polygon fill="#63b8ff" stroke="#63b8ff" points="196.65,-22.6 205.35,-16.56 194.77,-15.86 196.65,-22.6"/>
</a>
</g>
</g>
<!-- Node9 -->
<g id="Node000009" class="node">
<title>Node9</title>
<g id="a_Node000009"><a xlink:href="TfLiteRuntime_8hpp.html" target="_top" xlink:title=" ">
<polygon fill="white" stroke="#666666" points="584.12,-200 415.12,-200 415.12,-180 584.12,-180 584.12,-200"/>
<text text-anchor="middle" x="499.62" y="-186.5" font-family="Helvetica,sans-Serif" font-size="10.00">EyeAICore/tflite/TfLiteRuntime.hpp</text>
</a>
</g>
</g>
<!-- Node2&#45;&gt;Node9 -->
<g id="edge8_Node000002_Node000009" class="edge">
<title>Node2&#45;&gt;Node9</title>
<g id="a_edge8_Node000002_Node000009"><a xlink:title=" ">
<path fill="none" stroke="#63b8ff" d="M155.74,-235.53C228.32,-226.13 339.45,-211.74 415.62,-201.88"/>
<polygon fill="#63b8ff" stroke="#63b8ff" points="415.63,-205.41 425.09,-200.65 414.73,-198.46 415.63,-205.41"/>
</a>
</g>
</g>
<!-- Node4 -->
<g id="Node000004" class="node">
<title>Node4</title>
<g id="a_Node000004"><a xlink:title=" ">
<polygon fill="#e0e0e0" stroke="#999999" points="326.25,-20 281,-20 281,0 326.25,0 326.25,-20"/>
<text text-anchor="middle" x="303.62" y="-6.5" font-family="Helvetica,sans-Serif" font-size="10.00">cstdint</text>
</a>
</g>
</g>
<!-- Node3&#45;&gt;Node4 -->
<g id="edge3_Node000003_Node000004" class="edge">
<title>Node3&#45;&gt;Node4</title>
<g id="a_edge3_Node000003_Node000004"><a xlink:title=" ">
<path fill="none" stroke="#63b8ff" d="M326.41,-61.62C322.66,-53.3 317.06,-40.86 312.36,-30.4"/>
<polygon fill="#63b8ff" stroke="#63b8ff" points="315.64,-29.18 308.35,-21.49 309.26,-32.05 315.64,-29.18"/>
</a>
</g>
</g>
<!-- Node3&#45;&gt;Node5 -->
<g id="edge4_Node000003_Node000005" class="edge">
<title>Node3&#45;&gt;Node5</title>
<g id="a_edge4_Node000003_Node000005"><a xlink:title=" ">
<path fill="none" stroke="#63b8ff" d="M315.31,-61.62C299.85,-52.16 275.71,-37.38 257.5,-26.23"/>
<polygon fill="#63b8ff" stroke="#63b8ff" points="259.48,-23.34 249.12,-21.1 255.82,-29.31 259.48,-23.34"/>
</a>
</g>
</g>
<!-- Node6 -->
<g id="Node000006" class="node">
<title>Node6</title>
<g id="a_Node000006"><a xlink:title=" ">
<polygon fill="#e0e0e0" stroke="#999999" points="447.12,-20 410.12,-20 410.12,0 447.12,0 447.12,-20"/>
<text text-anchor="middle" x="428.62" y="-6.5" font-family="Helvetica,sans-Serif" font-size="10.00">span</text>
</a>
</g>
</g>
<!-- Node3&#45;&gt;Node6 -->
<g id="edge5_Node000003_Node000006" class="edge">
<title>Node3&#45;&gt;Node6</title>
<g id="a_edge5_Node000003_Node000006"><a xlink:title=" ">
<path fill="none" stroke="#63b8ff" d="M345.94,-61.62C361.4,-52.16 385.54,-37.38 403.75,-26.23"/>
<polygon fill="#63b8ff" stroke="#63b8ff" points="405.43,-29.31 412.13,-21.1 401.77,-23.34 405.43,-29.31"/>
</a>
</g>
</g>
<!-- Node7 -->
<g id="Node000007" class="node">
<title>Node7</title>
<g id="a_Node000007"><a xlink:title=" ">
<polygon fill="#e0e0e0" stroke="#999999" points="658.25,-20 613,-20 613,0 658.25,0 658.25,-20"/>
<text text-anchor="middle" x="635.62" y="-6.5" font-family="Helvetica,sans-Serif" font-size="10.00">variant</text>
</a>
</g>
</g>
<!-- Node3&#45;&gt;Node7 -->
<g id="edge6_Node000003_Node000007" class="edge">
<title>Node3&#45;&gt;Node7</title>
<g id="a_edge6_Node000003_Node000007"><a xlink:title=" ">
<path fill="none" stroke="#63b8ff" d="M378.62,-61.56C440.66,-49.35 547.18,-28.4 601.55,-17.7"/>
<polygon fill="#63b8ff" stroke="#63b8ff" points="602.01,-21.18 611.15,-15.82 600.66,-14.31 602.01,-21.18"/>
</a>
</g>
</g>
<!-- Node8 -->
<g id="Node000008" class="node">
<title>Node8</title>
<g id="a_Node000008"><a xlink:title=" ">
<polygon fill="#e0e0e0" stroke="#999999" points="387.12,-20 344.12,-20 344.12,0 387.12,0 387.12,-20"/>
<text text-anchor="middle" x="365.62" y="-6.5" font-family="Helvetica,sans-Serif" font-size="10.00">vector</text>
</a>
</g>
</g>
<!-- Node3&#45;&gt;Node8 -->
<g id="edge7_Node000003_Node000008" class="edge">
<title>Node3&#45;&gt;Node8</title>
<g id="a_edge7_Node000003_Node000008"><a xlink:title=" ">
<path fill="none" stroke="#63b8ff" d="M336.09,-61.62C341.05,-53.12 348.51,-40.33 354.69,-29.74"/>
<polygon fill="#63b8ff" stroke="#63b8ff" points="357.53,-31.82 359.55,-21.42 351.48,-28.29 357.53,-31.82"/>
</a>
</g>
</g>
<!-- Node9&#45;&gt;Node3 -->
<g id="edge9_Node000009_Node000003" class="edge">
<title>Node9&#45;&gt;Node3</title>
<g id="a_edge9_Node000009_Node000003"><a xlink:title=" ">
<path fill="none" stroke="#63b8ff" d="M485.22,-179.64C471.4,-170.61 449.99,-156.52 431.62,-144 404.36,-125.4 373.35,-103.49 352.97,-88.98"/>
<polygon fill="#63b8ff" stroke="#63b8ff" points="355.02,-86.14 344.85,-83.19 350.96,-91.84 355.02,-86.14"/>
</a>
</g>
</g>
<!-- Node9&#45;&gt;Node5 -->
<g id="edge25_Node000009_Node000005" class="edge">
<title>Node9&#45;&gt;Node5</title>
<g id="a_edge25_Node000009_Node000005"><a xlink:title=" ">
<path fill="none" stroke="#63b8ff" d="M435.46,-179.52C378.95,-167.79 298.53,-142.24 251.62,-88 238.13,-72.4 233.92,-48.69 232.76,-31.7"/>
<polygon fill="#63b8ff" stroke="#63b8ff" points="236.26,-31.65 232.4,-21.78 229.26,-31.9 236.26,-31.65"/>
</a>
</g>
</g>
<!-- Node9&#45;&gt;Node6 -->
<g id="edge26_Node000009_Node000006" class="edge">
<title>Node9&#45;&gt;Node6</title>
<g id="a_edge26_Node000009_Node000006"><a xlink:title=" ">
<path fill="none" stroke="#63b8ff" d="M493.83,-179.59C483.29,-162.13 460.85,-123.27 447.62,-88 440.61,-69.28 435.44,-47.03 432.28,-31.27"/>
<polygon fill="#63b8ff" stroke="#63b8ff" points="435.77,-30.87 430.46,-21.7 428.89,-32.18 435.77,-30.87"/>
</a>
</g>
</g>
<!-- Node10 -->
<g id="Node000010" class="node">
<title>Node10</title>
<g id="a_Node000010"><a xlink:href="TfLiteUtils_8hpp.html" target="_top" xlink:title=" ">
<polygon fill="white" stroke="#666666" points="748.5,-144 668.75,-144 668.75,-124 748.5,-124 748.5,-144"/>
<text text-anchor="middle" x="708.62" y="-130.5" font-family="Helvetica,sans-Serif" font-size="10.00">TfLiteUtils.hpp</text>
</a>
</g>
</g>
<!-- Node9&#45;&gt;Node10 -->
<g id="edge10_Node000009_Node000010" class="edge">
<title>Node9&#45;&gt;Node10</title>
<g id="a_edge10_Node000009_Node000010"><a xlink:title=" ">
<path fill="none" stroke="#63b8ff" d="M536.03,-179.59C570.73,-170.63 623.18,-157.08 661.15,-147.27"/>
<polygon fill="#63b8ff" stroke="#63b8ff" points="661.66,-150.75 670.47,-144.86 659.91,-143.97 661.66,-150.75"/>
</a>
</g>
</g>
<!-- Node13 -->
<g id="Node000013" class="node">
<title>Node13</title>
<g id="a_Node000013"><a xlink:title=" ">
<polygon fill="#e0e0e0" stroke="#999999" points="1029.62,-20 989.62,-20 989.62,0 1029.62,0 1029.62,-20"/>
<text text-anchor="middle" x="1009.62" y="-6.5" font-family="Helvetica,sans-Serif" font-size="10.00">string</text>
</a>
</g>
</g>
<!-- Node9&#45;&gt;Node13 -->
<g id="edge27_Node000009_Node000013" class="edge">
<title>Node9&#45;&gt;Node13</title>
<g id="a_edge27_Node000009_Node000013"><a xlink:title=" ">
<path fill="none" stroke="#63b8ff" d="M584.37,-183.12C710.59,-172.54 939.09,-145.78 994.62,-88 1008.91,-73.14 1011.55,-48.94 1011.32,-31.63"/>
<polygon fill="#63b8ff" stroke="#63b8ff" points="1014.82,-31.57 1010.82,-21.76 1007.83,-31.92 1014.82,-31.57"/>
</a>
</g>
</g>
<!-- Node16 -->
<g id="Node000016" class="node">
<title>Node16</title>
<g id="a_Node000016"><a xlink:title=" ">
<polygon fill="#e0e0e0" stroke="#999999" points="1107.38,-82 1041.88,-82 1041.88,-62 1107.38,-62 1107.38,-82"/>
<text text-anchor="middle" x="1074.62" y="-68.5" font-family="Helvetica,sans-Serif" font-size="10.00">string_view</text>
</a>
</g>
</g>
<!-- Node9&#45;&gt;Node16 -->
<g id="edge28_Node000009_Node000016" class="edge">
<title>Node9&#45;&gt;Node16</title>
<g id="a_edge28_Node000009_Node000016"><a xlink:title=" ">
<path fill="none" stroke="#63b8ff" d="M584.56,-185.8C724.18,-179.94 990.51,-166.02 1027.62,-144 1047.04,-132.48 1060.02,-109.43 1067.33,-92.71"/>
<polygon fill="#63b8ff" stroke="#63b8ff" points="1070.44,-94.35 1070.93,-83.77 1063.95,-91.74 1070.44,-94.35"/>
</a>
</g>
</g>
<!-- Node17 -->
<g id="Node000017" class="node">
<title>Node17</title>
<g id="a_Node000017"><a xlink:title=" ">
<polygon fill="#e0e0e0" stroke="#999999" points="550.25,-88 457,-88 457,-56 550.25,-56 550.25,-88"/>
<text text-anchor="start" x="465" y="-74.5" font-family="Helvetica,sans-Serif" font-size="10.00">tensorflow/lite/c/c</text>
<text text-anchor="middle" x="503.62" y="-62.5" font-family="Helvetica,sans-Serif" font-size="10.00">_api.h</text>
</a>
</g>
</g>
<!-- Node9&#45;&gt;Node17 -->
<g id="edge23_Node000009_Node000017" class="edge">
<title>Node9&#45;&gt;Node17</title>
<g id="a_edge23_Node000009_Node000017"><a xlink:title=" ">
<path fill="none" stroke="#63b8ff" d="M499.95,-179.51C500.55,-162.3 501.82,-125.39 502.7,-99.88"/>
<polygon fill="#63b8ff" stroke="#63b8ff" points="506.19,-100.04 503.04,-89.93 499.2,-99.8 506.19,-100.04"/>
</a>
</g>
</g>
<!-- Node18 -->
<g id="Node000018" class="node">
<title>Node18</title>
<g id="a_Node000018"><a xlink:title=" ">
<polygon fill="#e0e0e0" stroke="#999999" points="690.5,-88 568.75,-88 568.75,-56 690.5,-56 690.5,-88"/>
<text text-anchor="start" x="576.75" y="-74.5" font-family="Helvetica,sans-Serif" font-size="10.00">tensorflow/lite/delegates</text>
<text text-anchor="middle" x="629.62" y="-62.5" font-family="Helvetica,sans-Serif" font-size="10.00">/gpu/delegate.h</text>
</a>
</g>
</g>
<!-- Node9&#45;&gt;Node18 -->
<g id="edge24_Node000009_Node000018" class="edge">
<title>Node9&#45;&gt;Node18</title>
<g id="a_edge24_Node000009_Node000018"><a xlink:title=" ">
<path fill="none" stroke="#63b8ff" d="M510.26,-179.51C530.6,-161.36 575.49,-121.3 604.06,-95.82"/>
<polygon fill="#63b8ff" stroke="#63b8ff" points="606.09,-98.69 611.22,-89.42 601.43,-93.47 606.09,-98.69"/>
</a>
</g>
</g>
<!-- Node10&#45;&gt;Node3 -->
<g id="edge11_Node000010_Node000003" class="edge">
<title>Node10&#45;&gt;Node3</title>
<g id="a_edge11_Node000010_Node000003"><a xlink:title=" ">
<path fill="none" stroke="#63b8ff" d="M668.53,-126.64C605.06,-116.56 480.56,-96.8 401.69,-84.28"/>
<polygon fill="#63b8ff" stroke="#63b8ff" points="402.32,-80.84 391.89,-82.72 401.22,-87.75 402.32,-80.84"/>
</a>
</g>
</g>
<!-- Node10&#45;&gt;Node5 -->
<g id="edge17_Node000010_Node000005" class="edge">
<title>Node10&#45;&gt;Node5</title>
<g id="a_edge17_Node000010_Node000005"><a xlink:title=" ">
<path fill="none" stroke="#63b8ff" d="M710.85,-123.57C714.1,-107.23 717.9,-73.69 699.62,-56 665.34,-22.81 318.77,-27.38 271.62,-20 270.96,-19.9 270.29,-19.79 269.61,-19.67"/>
<polygon fill="#63b8ff" stroke="#63b8ff" points="270.51,-16.28 260.02,-17.81 269.17,-23.15 270.51,-16.28"/>
</a>
</g>
</g>
<!-- Node10&#45;&gt;Node6 -->
<g id="edge19_Node000010_Node000006" class="edge">
<title>Node10&#45;&gt;Node6</title>
<g id="a_edge19_Node000010_Node000006"><a xlink:title=" ">
<path fill="none" stroke="#63b8ff" d="M716.64,-123.55C729.04,-107.77 749.73,-75.82 732.62,-56 714.8,-35.34 531.27,-18.96 458.3,-13.21"/>
<polygon fill="#63b8ff" stroke="#63b8ff" points="458.94,-9.75 448.7,-12.47 458.4,-16.73 458.94,-9.75"/>
</a>
</g>
</g>
<!-- Node11 -->
<g id="Node000011" class="node">
<title>Node11</title>
<g id="a_Node000011"><a xlink:href="Errors_8hpp.html" target="_top" xlink:title=" ">
<polygon fill="white" stroke="#666666" points="985.12,-82 852.12,-82 852.12,-62 985.12,-62 985.12,-82"/>
<text text-anchor="middle" x="918.62" y="-68.5" font-family="Helvetica,sans-Serif" font-size="10.00">EyeAICore/utils/Errors.hpp</text>
</a>
</g>
</g>
<!-- Node10&#45;&gt;Node11 -->
<g id="edge12_Node000010_Node000011" class="edge">
<title>Node10&#45;&gt;Node11</title>
<g id="a_edge12_Node000010_Node000011"><a xlink:title=" ">
<path fill="none" stroke="#63b8ff" d="M741.44,-123.62C777.32,-113.37 834.99,-96.9 874.74,-85.54"/>
<polygon fill="#63b8ff" stroke="#63b8ff" points="875.59,-88.94 884.24,-82.82 873.66,-82.21 875.59,-88.94"/>
</a>
</g>
</g>
<!-- Node15 -->
<g id="Node000015" class="node">
<title>Node15</title>
<g id="a_Node000015"><a xlink:title=" ">
<polygon fill="#e0e0e0" stroke="#999999" points="834.5,-82 784.75,-82 784.75,-62 834.5,-62 834.5,-82"/>
<text text-anchor="middle" x="809.62" y="-68.5" font-family="Helvetica,sans-Serif" font-size="10.00">optional</text>
</a>
</g>
</g>
<!-- Node10&#45;&gt;Node15 -->
<g id="edge18_Node000010_Node000015" class="edge">
<title>Node10&#45;&gt;Node15</title>
<g id="a_edge18_Node000010_Node000015"><a xlink:title=" ">
<path fill="none" stroke="#63b8ff" d="M724.41,-123.62C740.42,-114.11 765.45,-99.24 784.25,-88.08"/>
<polygon fill="#63b8ff" stroke="#63b8ff" points="785.84,-91.2 792.65,-83.08 782.27,-85.18 785.84,-91.2"/>
</a>
</g>
</g>
<!-- Node10&#45;&gt;Node16 -->
<g id="edge20_Node000010_Node000016" class="edge">
<title>Node10&#45;&gt;Node16</title>
<g id="a_edge20_Node000010_Node000016"><a xlink:title=" ">
<path fill="none" stroke="#63b8ff" d="M748.95,-127.04C804.38,-118.75 907.2,-103.07 994.62,-88 1006.22,-86 1018.73,-83.72 1030.34,-81.54"/>
<polygon fill="#63b8ff" stroke="#63b8ff" points="1030.92,-85 1040.09,-79.7 1029.62,-78.12 1030.92,-85"/>
</a>
</g>
</g>
<!-- Node10&#45;&gt;Node17 -->
<g id="edge21_Node000010_Node000017" class="edge">
<title>Node10&#45;&gt;Node17</title>
<g id="a_edge21_Node000010_Node000017"><a xlink:title=" ">
<path fill="none" stroke="#63b8ff" d="M676.59,-123.62C645.85,-114.63 598.7,-100.83 561.39,-89.91"/>
<polygon fill="#63b8ff" stroke="#63b8ff" points="562.69,-86.64 552.11,-87.19 560.72,-93.36 562.69,-86.64"/>
</a>
</g>
</g>
<!-- Node10&#45;&gt;Node18 -->
<g id="edge22_Node000010_Node000018" class="edge">
<title>Node10&#45;&gt;Node18</title>
<g id="a_edge22_Node000010_Node000018"><a xlink:title=" ">
<path fill="none" stroke="#63b8ff" d="M696.28,-123.62C686.29,-116.04 671.82,-105.05 658.91,-95.24"/>
<polygon fill="#63b8ff" stroke="#63b8ff" points="661.15,-92.55 651.07,-89.29 656.92,-98.12 661.15,-92.55"/>
</a>
</g>
</g>
<!-- Node11&#45;&gt;Node7 -->
<g id="edge16_Node000011_Node000007" class="edge">
<title>Node11&#45;&gt;Node7</title>
<g id="a_edge16_Node000011_Node000007"><a xlink:title=" ">
<path fill="none" stroke="#63b8ff" d="M874.09,-61.56C817.49,-49.56 720.98,-29.1 669.82,-18.25"/>
<polygon fill="#63b8ff" stroke="#63b8ff" points="670.72,-14.86 660.21,-16.21 669.27,-21.71 670.72,-14.86"/>
</a>
</g>
</g>
<!-- Node12 -->
<g id="Node000012" class="node">
<title>Node12</title>
<g id="a_Node000012"><a xlink:title=" ">
<polygon fill="#e0e0e0" stroke="#999999" points="863.5,-20 819.75,-20 819.75,0 863.5,0 863.5,-20"/>
<text text-anchor="middle" x="841.62" y="-6.5" font-family="Helvetica,sans-Serif" font-size="10.00">format</text>
</a>
</g>
</g>
<!-- Node11&#45;&gt;Node12 -->
<g id="edge13_Node000011_Node000012" class="edge">
<title>Node11&#45;&gt;Node12</title>
<g id="a_edge13_Node000011_Node000012"><a xlink:title=" ">
<path fill="none" stroke="#63b8ff" d="M906.59,-61.62C894.84,-52.47 876.71,-38.34 862.58,-27.33"/>
<polygon fill="#63b8ff" stroke="#63b8ff" points="864.8,-24.63 854.77,-21.24 860.5,-30.15 864.8,-24.63"/>
</a>
</g>
</g>
<!-- Node11&#45;&gt;Node13 -->
<g id="edge14_Node000011_Node000013" class="edge">
<title>Node11&#45;&gt;Node13</title>
<g id="a_edge14_Node000011_Node000013"><a xlink:title=" ">
<path fill="none" stroke="#63b8ff" d="M932.84,-61.62C947.13,-52.2 969.41,-37.52 986.29,-26.39"/>
<polygon fill="#63b8ff" stroke="#63b8ff" points="987.82,-29.57 994.24,-21.14 983.97,-23.72 987.82,-29.57"/>
</a>
</g>
</g>
<!-- Node14 -->
<g id="Node000014" class="node">
<title>Node14</title>
<g id="a_Node000014"><a xlink:title=" ">
<polygon fill="#e0e0e0" stroke="#999999" points="964,-20 881.25,-20 881.25,0 964,0 964,-20"/>
<text text-anchor="middle" x="922.62" y="-6.5" font-family="Helvetica,sans-Serif" font-size="10.00">tl/expected.hpp</text>
</a>
</g>
</g>
<!-- Node11&#45;&gt;Node14 -->
<g id="edge15_Node000011_Node000014" class="edge">
<title>Node11&#45;&gt;Node14</title>
<g id="a_edge15_Node000011_Node000014"><a xlink:title=" ">
<path fill="none" stroke="#63b8ff" d="M919.25,-61.62C919.79,-53.56 920.58,-41.65 921.26,-31.41"/>
<polygon fill="#63b8ff" stroke="#63b8ff" points="924.74,-31.83 921.92,-21.62 917.76,-31.37 924.74,-31.83"/>
</a>
</g>
</g>
<!-- Node19&#45;&gt;Node3 -->
<g id="edge31_Node000019_Node000003" class="edge">
<title>Node19&#45;&gt;Node3</title>
<g id="a_edge31_Node000019_Node000003"><a xlink:title=" ">
<path fill="none" stroke="#63b8ff" d="M469.77,-235.62C450.11,-228.31 424.75,-216.59 406.62,-200 372.94,-169.17 349.4,-119.95 338.15,-92.72"/>
<polygon fill="#63b8ff" stroke="#63b8ff" points="341.48,-91.62 334.53,-83.62 334.97,-94.2 341.48,-91.62"/>
</a>
</g>
</g>
<!-- Node19&#45;&gt;Node9 -->
<g id="edge32_Node000019_Node000009" class="edge">
<title>Node19&#45;&gt;Node9</title>
<g id="a_edge32_Node000019_Node000009"><a xlink:title=" ">
<path fill="none" stroke="#63b8ff" d="M499.62,-235.59C499.62,-229.01 499.62,-219.96 499.62,-211.73"/>
<polygon fill="#63b8ff" stroke="#63b8ff" points="503.13,-211.81 499.63,-201.81 496.13,-211.81 503.13,-211.81"/>
</a>
</g>
</g>
<!-- Node20&#45;&gt;Node3 -->
<g id="edge34_Node000020_Node000003" class="edge">
<title>Node20&#45;&gt;Node3</title>
<g id="a_edge34_Node000020_Node000003"><a xlink:title=" ">
<path fill="none" stroke="#63b8ff" d="M221.78,-123.62C242.8,-113.85 275.99,-98.41 300.2,-87.15"/>
<polygon fill="#63b8ff" stroke="#63b8ff" points="301.65,-90.34 309.24,-82.95 298.69,-83.99 301.65,-90.34"/>
</a>
</g>
</g>
<!-- Node21&#45;&gt;Node3 -->
<g id="edge36_Node000021_Node000003" class="edge">
<title>Node21&#45;&gt;Node3</title>
<g id="a_edge36_Node000021_Node000003"><a xlink:title=" ">
<path fill="none" stroke="#63b8ff" d="M324.96,-235.51C325.9,-208.54 328.6,-131.04 329.9,-93.65"/>
<polygon fill="#63b8ff" stroke="#63b8ff" points="333.4,-93.88 330.25,-83.77 326.4,-93.64 333.4,-93.88"/>
</a>
</g>
</g>
<!-- Node21&#45;&gt;Node5 -->
<g id="edge39_Node000021_Node000005" class="edge">
<title>Node21&#45;&gt;Node5</title>
<g id="a_edge39_Node000021_Node000005"><a xlink:title=" ">
<path fill="none" stroke="#63b8ff" d="M277.81,-235.56C230.82,-223.33 160.91,-196.95 128.62,-144 100.75,-98.28 165.61,-50.09 205.06,-26.23"/>
<polygon fill="#63b8ff" stroke="#63b8ff" points="206.78,-29.28 213.63,-21.2 203.24,-23.24 206.78,-29.28"/>
</a>
</g>
</g>
<!-- Node21&#45;&gt;Node9 -->
<g id="edge37_Node000021_Node000009" class="edge">
<title>Node21&#45;&gt;Node9</title>
<g id="a_edge37_Node000021_Node000009"><a xlink:title=" ">
<path fill="none" stroke="#63b8ff" d="M355.11,-235.59C383.66,-226.78 426.57,-213.54 458.22,-203.78"/>
<polygon fill="#63b8ff" stroke="#63b8ff" points="458.93,-207.22 467.46,-200.93 456.87,-200.53 458.93,-207.22"/>
</a>
</g>
</g>
<!-- Node21&#45;&gt;Node10 -->
<g id="edge38_Node000021_Node000010" class="edge">
<title>Node21&#45;&gt;Node10</title>
<g id="a_edge38_Node000021_Node000010"><a xlink:title=" ">
<path fill="none" stroke="#63b8ff" d="M398.8,-235.54C465.65,-226.47 558.64,-212.38 593.62,-200 627.94,-187.86 663.9,-165.79 686.28,-150.77"/>
<polygon fill="#63b8ff" stroke="#63b8ff" points="688.03,-153.82 694.31,-145.28 684.08,-148.04 688.03,-153.82"/>
</a>
</g>
</g>
<!-- Node22&#45;&gt;Node16 -->
<g id="edge43_Node000022_Node000016" class="edge">
<title>Node22&#45;&gt;Node16</title>
<g id="a_edge43_Node000022_Node000016"><a xlink:title=" ">
<path fill="none" stroke="#63b8ff" d="M1113.36,-235.51C1106.91,-208.43 1088.3,-130.36 1079.43,-93.17"/>
<polygon fill="#63b8ff" stroke="#63b8ff" points="1082.91,-92.64 1077.18,-83.73 1076.1,-94.26 1082.91,-92.64"/>
</a>
</g>
</g>
<!-- Node23 -->
<g id="Node000023" class="node">
<title>Node23</title>
<g id="a_Node000023"><a xlink:title=" ">
<polygon fill="#e0e0e0" stroke="#999999" points="1163.25,-200 1118,-200 1118,-180 1163.25,-180 1163.25,-200"/>
<text text-anchor="middle" x="1140.62" y="-186.5" font-family="Helvetica,sans-Serif" font-size="10.00">chrono</text>
</a>
</g>
</g>
<!-- Node22&#45;&gt;Node23 -->
<g id="edge41_Node000022_Node000023" class="edge">
<title>Node22&#45;&gt;Node23</title>
<g id="a_edge41_Node000022_Node000023"><a xlink:title=" ">
<path fill="none" stroke="#63b8ff" d="M1119.98,-235.59C1123.17,-228.7 1127.61,-219.1 1131.56,-210.57"/>
<polygon fill="#63b8ff" stroke="#63b8ff" points="1134.66,-212.22 1135.68,-201.67 1128.31,-209.28 1134.66,-212.22"/>
</a>
</g>
</g>
<!-- Node24 -->
<g id="Node000024" class="node">
<title>Node24</title>
<g id="a_Node000024"><a xlink:title=" ">
<polygon fill="#e0e0e0" stroke="#999999" points="1277.75,-200 1181.5,-200 1181.5,-180 1277.75,-180 1277.75,-200"/>
<text text-anchor="middle" x="1229.62" y="-186.5" font-family="Helvetica,sans-Serif" font-size="10.00">concurrentqueue.h</text>
</a>
</g>
</g>
<!-- Node22&#45;&gt;Node24 -->
<g id="edge42_Node000022_Node000024" class="edge">
<title>Node22&#45;&gt;Node24</title>
<g id="a_edge42_Node000022_Node000024"><a xlink:title=" ">
<path fill="none" stroke="#63b8ff" d="M1135.48,-235.59C1153.11,-227.24 1179.13,-214.92 1199.35,-205.34"/>
<polygon fill="#63b8ff" stroke="#63b8ff" points="1200.71,-208.57 1208.24,-201.13 1197.71,-202.25 1200.71,-208.57"/>
</a>
</g>
</g>
</g>
</svg>

<g id="navigator" transform="translate(0 0)" fill="#404254">
  <rect fill="#f2f5e9" fill-opacity="0.5" stroke="#606060" stroke-width=".5" x="0" y="0" width="60" height="60"/>
  <use id="zoomplus" xlink:href="#zoomPlus" x="17" y="9" onmousedown="handleZoom(evt,'in')"/>
  <use id="zoomminus" xlink:href="#zoomMin" x="42" y="9" onmousedown="handleZoom(evt,'out')"/>
  <use id="reset" xlink:href="#resetDef" x="30" y="36" onmousedown="handleReset()"/>
   <use id="arrowup" xlink:href="#arrowUp" x="0" y="0" onmousedown="handlePan(0,-1)"/>
  <use id="arrowright" xlink:href="#arrowRight" x="0" y="0" onmousedown="handlePan(1,0)"/>
  <use id="arrowdown" xlink:href="#arrowDown" x="0" y="0" onmousedown="handlePan(0,1)"/>
  <use id="arrowleft" xlink:href="#arrowLeft" x="0" y="0" onmousedown="handlePan(-1,0)"/>
</g>
<svg viewBox="0 0 15 15" width="100%" height="30px" preserveAspectRatio="xMaxYMin meet">
 <g id="arrow_out" transform="scale(0.3 0.3)">
  <a xlink:href="MetricDepthModel_8cpp__incl_org.svg" target="_base">
   <rect id="button" ry="5" rx="5" y="6" x="6" height="38" width="38"
        fill="#f2f5e9" fill-opacity="0.5" stroke="#606060" stroke-width="1.0"/>
   <path id="arrow"
     d="M 11.500037,31.436501 C 11.940474,20.09759 22.043105,11.32322 32.158766,21.979434 L 37.068811,17.246167 C 37.068811,17.246167 37.088388,32 37.088388,32 L 22.160133,31.978069 C 22.160133,31.978069 26.997745,27.140456 26.997745,27.140456 C 18.528582,18.264221 13.291696,25.230495 11.500037,31.436501 z"
     style="fill:#404040;"/>
  </a>
 </g>
</svg>

<style type='text/css'>
<![CDATA[
[data-mouse-over-selected='false'] { opacity: 0.7; }
[data-mouse-over-selected='true']  { opacity: 1.0; }
]]>
</style>
<script type="application/ecmascript"><![CDATA[
document.addEventListener('DOMContentLoaded', (event) => {
  highlightEdges();
  highlightAdjacentNodes();
});
]]></script>
</svg>
