<?xml version="1.0" encoding="UTF-8" standalone="no"?>
<!DOCTYPE svg PUBLIC "-//W3C//DTD SVG 1.1//EN"
 "http://www.w3.org/Graphics/SVG/1.1/DTD/svg11.dtd">
<!-- Generated by graphviz version 12.2.1 (20241206.2353)
 -->
<!-- Title: include/EyeAICore/MetricDepthModel.hpp Pages: 1 -->
<svg width="523pt" height="155pt"
 viewBox="0.00 0.00 522.50 155.00" xmlns="http://www.w3.org/2000/svg" xmlns:xlink="http://www.w3.org/1999/xlink">
<g id="graph0" class="graph" transform="scale(1 1) rotate(0) translate(4 151)">
<title>include/EyeAICore/MetricDepthModel.hpp</title>
<!-- Node1 -->
<g id="Node000001" class="node">
<title>Node1</title>
<g id="a_Node000001"><a xlink:title=" ">
<polygon fill="#999999" stroke="#666666" points="318.88,-147 180.62,-147 180.62,-113.5 318.88,-113.5 318.88,-147"/>
<text text-anchor="start" x="188.62" y="-133.5" font-family="Helvetica,sans-Serif" font-size="10.00">include/EyeAICore/Metric</text>
<text text-anchor="middle" x="249.75" y="-120.75" font-family="Helvetica,sans-Serif" font-size="10.00">DepthModel.hpp</text>
</a>
</g>
</g>
<!-- Node2 -->
<g id="Node000002" class="node">
<title>Node2</title>
<g id="a_Node000002"><a xlink:href="Operators_8hpp.html" target="_top" xlink:title=" ">
<polygon fill="white" stroke="#666666" points="338,-77.5 161.5,-77.5 161.5,-56.75 338,-56.75 338,-77.5"/>
<text text-anchor="middle" x="249.75" y="-64" font-family="Helvetica,sans-Serif" font-size="10.00">include/EyeAICore/Operators.hpp</text>
</a>
</g>
</g>
<!-- Node1&#45;&gt;Node2 -->
<g id="edge1_Node000001_Node000002" class="edge">
<title>Node1&#45;&gt;Node2</title>
<g id="a_edge1_Node000001_Node000002"><a xlink:title=" ">
<path fill="none" stroke="#63b8ff" d="M249.75,-101.69C249.75,-93.21 249.75,-84.42 249.75,-77.97"/>
<polygon fill="#63b8ff" stroke="#63b8ff" points="246.25,-101.68 249.75,-111.68 253.25,-101.68 246.25,-101.68"/>
</a>
</g>
</g>
<!-- Node4 -->
<g id="Node000004" class="node">
<title>Node4</title>
<g id="a_Node000004"><a xlink:href="MetricDepthModel_8cpp.html" target="_top" xlink:title=" ">
<polygon fill="white" stroke="#666666" points="143.5,-20.75 0,-20.75 0,0 143.5,0 143.5,-20.75"/>
<text text-anchor="middle" x="71.75" y="-7.25" font-family="Helvetica,sans-Serif" font-size="10.00">src/MetricDepthModel.cpp</text>
</a>
</g>
</g>
<!-- Node1&#45;&gt;Node4 -->
<g id="edge6_Node000001_Node000004" class="edge">
<title>Node1&#45;&gt;Node4</title>
<g id="a_edge6_Node000001_Node000004"><a xlink:title=" ">
<path fill="none" stroke="#63b8ff" d="M205.41,-107.9C188.51,-99.17 169.33,-88.54 152.75,-77.5 125.85,-59.59 97.2,-34.62 82.24,-21.06"/>
<polygon fill="#63b8ff" stroke="#63b8ff" points="203.75,-110.99 214.25,-112.39 206.92,-104.74 203.75,-110.99"/>
</a>
</g>
</g>
<!-- Node5 -->
<g id="Node000005" class="node">
<title>Node5</title>
<g id="a_Node000005"><a xlink:href="Operators_8cpp.html" target="_top" xlink:title=" ">
<polygon fill="white" stroke="#666666" points="514.5,-20.75 413,-20.75 413,0 514.5,0 514.5,-20.75"/>
<text text-anchor="middle" x="463.75" y="-7.25" font-family="Helvetica,sans-Serif" font-size="10.00">src/Operators.cpp</text>
</a>
</g>
</g>
<!-- Node1&#45;&gt;Node5 -->
<g id="edge7_Node000001_Node000005" class="edge">
<title>Node1&#45;&gt;Node5</title>
<g id="a_edge7_Node000001_Node000005"><a xlink:title=" ">
<path fill="none" stroke="#63b8ff" d="M290.29,-107.9C307.72,-98.65 328.29,-87.64 346.75,-77.5 382.54,-57.84 424.07,-34.16 446.77,-21.14"/>
<polygon fill="#63b8ff" stroke="#63b8ff" points="288.97,-104.64 281.77,-112.42 292.25,-110.83 288.97,-104.64"/>
</a>
</g>
</g>
<!-- Node3 -->
<g id="Node000003" class="node">
<title>Node3</title>
<g id="a_Node000003"><a xlink:href="DepthModel_8cpp.html" target="_top" xlink:title=" ">
<polygon fill="white" stroke="#666666" points="274.12,-20.75 161.38,-20.75 161.38,0 274.12,0 274.12,-20.75"/>
<text text-anchor="middle" x="217.75" y="-7.25" font-family="Helvetica,sans-Serif" font-size="10.00">src/DepthModel.cpp</text>
</a>
</g>
</g>
<!-- Node2&#45;&gt;Node3 -->
<g id="edge2_Node000002_Node000003" class="edge">
<title>Node2&#45;&gt;Node3</title>
<g id="a_edge2_Node000002_Node000003"><a xlink:title=" ">
<path fill="none" stroke="#63b8ff" d="M238.34,-46.6C233.28,-37.95 227.55,-28.14 223.42,-21.08"/>
<polygon fill="#63b8ff" stroke="#63b8ff" points="235.2,-48.16 243.27,-55.03 241.24,-44.63 235.2,-48.16"/>
</a>
</g>
</g>
<!-- Node2&#45;&gt;Node4 -->
<g id="edge3_Node000002_Node000004" class="edge">
<title>Node2&#45;&gt;Node4</title>
<g id="a_edge3_Node000002_Node000004"><a xlink:title=" ">
<path fill="none" stroke="#63b8ff" d="M207.17,-53.03C175.33,-43.24 132.5,-30.06 103.6,-21.17"/>
<polygon fill="#63b8ff" stroke="#63b8ff" points="205.89,-56.3 216.48,-55.89 207.95,-49.61 205.89,-56.3"/>
</a>
</g>
</g>
<!-- Node2&#45;&gt;Node5 -->
<g id="edge4_Node000002_Node000005" class="edge">
<title>Node2&#45;&gt;Node5</title>
<g id="a_edge4_Node000002_Node000005"><a xlink:title=" ">
<path fill="none" stroke="#63b8ff" d="M298.95,-53.54C337.41,-43.7 390.11,-30.22 425.46,-21.17"/>
<polygon fill="#63b8ff" stroke="#63b8ff" points="298.3,-50.09 289.48,-55.96 300.03,-56.87 298.3,-50.09"/>
</a>
</g>
</g>
<!-- Node6 -->
<g id="Node000006" class="node">
<title>Node6</title>
<g id="a_Node000006"><a xlink:href="YoloModel_8cpp.html" target="_top" xlink:title=" ">
<polygon fill="white" stroke="#666666" points="395.25,-20.75 292.25,-20.75 292.25,0 395.25,0 395.25,-20.75"/>
<text text-anchor="middle" x="343.75" y="-7.25" font-family="Helvetica,sans-Serif" font-size="10.00">src/YoloModel.cpp</text>
</a>
</g>
</g>
<!-- Node2&#45;&gt;Node6 -->
<g id="edge5_Node000002_Node000006" class="edge">
<title>Node2&#45;&gt;Node6</title>
<g id="a_edge5_Node000002_Node000006"><a xlink:title=" ">
<path fill="none" stroke="#63b8ff" d="M276.1,-50.78C292.45,-41.25 312.96,-29.31 327.09,-21.08"/>
<polygon fill="#63b8ff" stroke="#63b8ff" points="274.74,-47.52 267.86,-55.58 278.27,-53.57 274.74,-47.52"/>
</a>
</g>
</g>
</g>
</svg>
