<?xml version="1.0" encoding="UTF-8" standalone="no"?>
<!DOCTYPE svg PUBLIC "-//W3C//DTD SVG 1.1//EN"
 "http://www.w3.org/Graphics/SVG/1.1/DTD/svg11.dtd">
<!-- Generated by graphviz version 12.2.1 (20241206.2353)
 -->
<!-- Title: src/MetricDepthModel.cpp Pages: 1 -->
<svg width="1226pt" height="382pt"
 viewBox="0.00 0.00 1225.50 382.00" xmlns="http://www.w3.org/2000/svg" xmlns:xlink="http://www.w3.org/1999/xlink">
<g id="graph0" class="graph" transform="scale(1 1) rotate(0) translate(4 378)">
<title>src/MetricDepthModel.cpp</title>
<!-- Node1 -->
<g id="Node000001" class="node">
<title>Node1</title>
<g id="a_Node000001"><a xlink:title=" ">
<polygon fill="#999999" stroke="#666666" points="330.88,-374 187.38,-374 187.38,-353.25 330.88,-353.25 330.88,-374"/>
<text text-anchor="middle" x="259.12" y="-360.5" font-family="Helvetica,sans-Serif" font-size="10.00">src/MetricDepthModel.cpp</text>
</a>
</g>
</g>
<!-- Node2 -->
<g id="Node000002" class="node">
<title>Node2</title>
<g id="a_Node000002"><a xlink:href="MetricDepthModel_8hpp.html" target="_top" xlink:title=" ">
<polygon fill="white" stroke="#666666" points="180.25,-260.5 0,-260.5 0,-239.75 180.25,-239.75 180.25,-260.5"/>
<text text-anchor="middle" x="90.12" y="-247" font-family="Helvetica,sans-Serif" font-size="10.00">EyeAICore/MetricDepthModel.hpp</text>
</a>
</g>
</g>
<!-- Node1&#45;&gt;Node2 -->
<g id="edge1_Node000001_Node000002" class="edge">
<title>Node1&#45;&gt;Node2</title>
<g id="a_edge1_Node000001_Node000002"><a xlink:title=" ">
<path fill="none" stroke="#63b8ff" d="M206.35,-352.77C181.22,-346.03 151.96,-334.99 130.12,-317.25 115.17,-305.1 104.41,-285.77 97.84,-271.14"/>
<polygon fill="#63b8ff" stroke="#63b8ff" points="101.13,-269.93 94.05,-262.04 94.66,-272.62 101.13,-269.93"/>
</a>
</g>
</g>
<!-- Node19 -->
<g id="Node000019" class="node">
<title>Node19</title>
<g id="a_Node000019"><a xlink:href="DepthModel_8hpp.html" target="_top" xlink:title=" ">
<polygon fill="white" stroke="#666666" points="385.88,-260.5 236.38,-260.5 236.38,-239.75 385.88,-239.75 385.88,-260.5"/>
<text text-anchor="middle" x="311.12" y="-247" font-family="Helvetica,sans-Serif" font-size="10.00">EyeAICore/DepthModel.hpp</text>
</a>
</g>
</g>
<!-- Node1&#45;&gt;Node19 -->
<g id="edge30_Node000001_Node000019" class="edge">
<title>Node1&#45;&gt;Node19</title>
<g id="a_edge30_Node000001_Node000019"><a xlink:title=" ">
<path fill="none" stroke="#63b8ff" d="M265.65,-352.81C271.47,-343.8 280,-329.97 286.12,-317.25 293.31,-302.35 299.85,-284.82 304.45,-271.55"/>
<polygon fill="#63b8ff" stroke="#63b8ff" points="307.72,-272.79 307.59,-262.2 301.09,-270.56 307.72,-272.79"/>
</a>
</g>
</g>
<!-- Node20 -->
<g id="Node000020" class="node">
<title>Node20</title>
<g id="a_Node000020"><a xlink:href="Operators_8hpp.html" target="_top" xlink:title=" ">
<polygon fill="white" stroke="#666666" points="277.25,-317.25 139,-317.25 139,-296.5 277.25,-296.5 277.25,-317.25"/>
<text text-anchor="middle" x="208.12" y="-303.75" font-family="Helvetica,sans-Serif" font-size="10.00">EyeAICore/Operators.hpp</text>
</a>
</g>
</g>
<!-- Node1&#45;&gt;Node20 -->
<g id="edge33_Node000001_Node000020" class="edge">
<title>Node1&#45;&gt;Node20</title>
<g id="a_edge33_Node000001_Node000020"><a xlink:title=" ">
<path fill="none" stroke="#63b8ff" d="M250.01,-352.84C243.04,-345.36 233.26,-334.86 224.89,-325.88"/>
<polygon fill="#63b8ff" stroke="#63b8ff" points="227.57,-323.62 218.2,-318.69 222.45,-328.39 227.57,-323.62"/>
</a>
</g>
</g>
<!-- Node21 -->
<g id="Node000021" class="node">
<title>Node21</title>
<g id="a_Node000021"><a xlink:href="Profiling_8hpp.html" target="_top" xlink:title=" ">
<polygon fill="white" stroke="#666666" points="1118.12,-317.25 964.12,-317.25 964.12,-296.5 1118.12,-296.5 1118.12,-317.25"/>
<text text-anchor="middle" x="1041.12" y="-303.75" font-family="Helvetica,sans-Serif" font-size="10.00">EyeAICore/utils/Profiling.hpp</text>
</a>
</g>
</g>
<!-- Node1&#45;&gt;Node21 -->
<g id="edge36_Node000001_Node000021" class="edge">
<title>Node1&#45;&gt;Node21</title>
<g id="a_edge36_Node000001_Node000021"><a xlink:title=" ">
<path fill="none" stroke="#63b8ff" d="M331.29,-357.57C474.88,-347.52 795.96,-325.04 952.25,-314.1"/>
<polygon fill="#63b8ff" stroke="#63b8ff" points="952.43,-317.59 962.16,-313.4 951.94,-310.61 952.43,-317.59"/>
</a>
</g>
</g>
<!-- Node3 -->
<g id="Node000003" class="node">
<title>Node3</title>
<g id="a_Node000003"><a xlink:href="TensorBuffer_8hpp.html" target="_top" xlink:title=" ">
<polygon fill="white" stroke="#666666" points="288.25,-83.88 138,-83.88 138,-63.12 288.25,-63.12 288.25,-83.88"/>
<text text-anchor="middle" x="213.12" y="-70.38" font-family="Helvetica,sans-Serif" font-size="10.00">EyeAICore/TensorBuffer.hpp</text>
</a>
</g>
</g>
<!-- Node2&#45;&gt;Node3 -->
<g id="edge2_Node000002_Node000003" class="edge">
<title>Node2&#45;&gt;Node3</title>
<g id="a_edge2_Node000002_Node000003"><a xlink:title=" ">
<path fill="none" stroke="#63b8ff" d="M96.91,-239.49C116.52,-211.65 173.52,-130.72 199.7,-93.56"/>
<polygon fill="#63b8ff" stroke="#63b8ff" points="202.44,-95.75 205.33,-85.56 196.71,-91.72 202.44,-95.75"/>
</a>
</g>
</g>
<!-- Node5 -->
<g id="Node000005" class="node">
<title>Node5</title>
<g id="a_Node000005"><a xlink:title=" ">
<polygon fill="#e0e0e0" stroke="#999999" points="140.75,-20.75 83.5,-20.75 83.5,0 140.75,0 140.75,-20.75"/>
<text text-anchor="middle" x="112.12" y="-7.25" font-family="Helvetica,sans-Serif" font-size="10.00">memory</text>
</a>
</g>
</g>
<!-- Node2&#45;&gt;Node5 -->
<g id="edge29_Node000002_Node000005" class="edge">
<title>Node2&#45;&gt;Node5</title>
<g id="a_edge29_Node000002_Node000005"><a xlink:title=" ">
<path fill="none" stroke="#63b8ff" d="M91.01,-239.51C94.27,-204.34 105.57,-82.17 110.17,-32.56"/>
<polygon fill="#63b8ff" stroke="#63b8ff" points="113.65,-32.9 111.08,-22.62 106.68,-32.25 113.65,-32.9"/>
</a>
</g>
</g>
<!-- Node9 -->
<g id="Node000009" class="node">
<title>Node9</title>
<g id="a_Node000009"><a xlink:href="TfLiteRuntime_8hpp.html" target="_top" xlink:title=" ">
<polygon fill="white" stroke="#666666" points="468.5,-203.75 283.75,-203.75 283.75,-183 468.5,-183 468.5,-203.75"/>
<text text-anchor="middle" x="376.12" y="-190.25" font-family="Helvetica,sans-Serif" font-size="10.00">EyeAICore/tflite/TfLiteRuntime.hpp</text>
</a>
</g>
</g>
<!-- Node2&#45;&gt;Node9 -->
<g id="edge8_Node000002_Node000009" class="edge">
<title>Node2&#45;&gt;Node9</title>
<g id="a_edge8_Node000002_Node000009"><a xlink:title=" ">
<path fill="none" stroke="#63b8ff" d="M141.59,-239.27C189.83,-230.04 262.06,-216.21 313.6,-206.34"/>
<polygon fill="#63b8ff" stroke="#63b8ff" points="313.95,-209.84 323.11,-204.52 312.63,-202.97 313.95,-209.84"/>
</a>
</g>
</g>
<!-- Node4 -->
<g id="Node000004" class="node">
<title>Node4</title>
<g id="a_Node000004"><a xlink:title=" ">
<polygon fill="#e0e0e0" stroke="#999999" points="276.62,-20.75 227.62,-20.75 227.62,0 276.62,0 276.62,-20.75"/>
<text text-anchor="middle" x="252.12" y="-7.25" font-family="Helvetica,sans-Serif" font-size="10.00">cstdint</text>
</a>
</g>
</g>
<!-- Node3&#45;&gt;Node4 -->
<g id="edge3_Node000003_Node000004" class="edge">
<title>Node3&#45;&gt;Node4</title>
<g id="a_edge3_Node000003_Node000004"><a xlink:title=" ">
<path fill="none" stroke="#63b8ff" d="M219.39,-62.68C224.88,-54.07 233.02,-41.31 239.81,-30.67"/>
<polygon fill="#63b8ff" stroke="#63b8ff" points="242.76,-32.56 245.19,-22.25 236.86,-28.79 242.76,-32.56"/>
</a>
</g>
</g>
<!-- Node3&#45;&gt;Node5 -->
<g id="edge4_Node000003_Node000005" class="edge">
<title>Node3&#45;&gt;Node5</title>
<g id="a_edge4_Node000003_Node000005"><a xlink:title=" ">
<path fill="none" stroke="#63b8ff" d="M196.9,-62.68C180.99,-53.05 156.51,-38.23 137.93,-26.99"/>
<polygon fill="#63b8ff" stroke="#63b8ff" points="139.97,-24.14 129.61,-21.96 136.35,-30.13 139.97,-24.14"/>
</a>
</g>
</g>
<!-- Node6 -->
<g id="Node000006" class="node">
<title>Node6</title>
<g id="a_Node000006"><a xlink:title=" ">
<polygon fill="#e0e0e0" stroke="#999999" points="335.75,-20.75 296.5,-20.75 296.5,0 335.75,0 335.75,-20.75"/>
<text text-anchor="middle" x="316.12" y="-7.25" font-family="Helvetica,sans-Serif" font-size="10.00">span</text>
</a>
</g>
</g>
<!-- Node3&#45;&gt;Node6 -->
<g id="edge5_Node000003_Node000006" class="edge">
<title>Node3&#45;&gt;Node6</title>
<g id="a_edge5_Node000003_Node000006"><a xlink:title=" ">
<path fill="none" stroke="#63b8ff" d="M229.67,-62.68C245.89,-53.05 270.86,-38.23 289.81,-26.99"/>
<polygon fill="#63b8ff" stroke="#63b8ff" points="291.5,-30.06 298.32,-21.94 287.93,-24.04 291.5,-30.06"/>
</a>
</g>
</g>
<!-- Node7 -->
<g id="Node000007" class="node">
<title>Node7</title>
<g id="a_Node000007"><a xlink:title=" ">
<polygon fill="#e0e0e0" stroke="#999999" points="529.38,-20.75 478.88,-20.75 478.88,0 529.38,0 529.38,-20.75"/>
<text text-anchor="middle" x="504.12" y="-7.25" font-family="Helvetica,sans-Serif" font-size="10.00">variant</text>
</a>
</g>
</g>
<!-- Node3&#45;&gt;Node7 -->
<g id="edge6_Node000003_Node000007" class="edge">
<title>Node3&#45;&gt;Node7</title>
<g id="a_edge6_Node000003_Node000007"><a xlink:title=" ">
<path fill="none" stroke="#63b8ff" d="M259.88,-62.68C317.68,-50.54 414.86,-30.13 467.53,-19.06"/>
<polygon fill="#63b8ff" stroke="#63b8ff" points="468.13,-22.51 477.2,-17.03 466.69,-15.66 468.13,-22.51"/>
</a>
</g>
</g>
<!-- Node8 -->
<g id="Node000008" class="node">
<title>Node8</title>
<g id="a_Node000008"><a xlink:title=" ">
<polygon fill="#e0e0e0" stroke="#999999" points="209.5,-20.75 162.75,-20.75 162.75,0 209.5,0 209.5,-20.75"/>
<text text-anchor="middle" x="186.12" y="-7.25" font-family="Helvetica,sans-Serif" font-size="10.00">vector</text>
</a>
</g>
</g>
<!-- Node3&#45;&gt;Node8 -->
<g id="edge7_Node000003_Node000008" class="edge">
<title>Node3&#45;&gt;Node8</title>
<g id="a_edge7_Node000003_Node000008"><a xlink:title=" ">
<path fill="none" stroke="#63b8ff" d="M208.79,-62.68C205.06,-54.25 199.58,-41.84 194.94,-31.34"/>
<polygon fill="#63b8ff" stroke="#63b8ff" points="198.22,-30.09 190.97,-22.35 191.81,-32.92 198.22,-30.09"/>
</a>
</g>
</g>
<!-- Node9&#45;&gt;Node3 -->
<g id="edge9_Node000009_Node000003" class="edge">
<title>Node9&#45;&gt;Node3</title>
<g id="a_edge9_Node000009_Node000003"><a xlink:title=" ">
<path fill="none" stroke="#63b8ff" d="M360.81,-182.55C346.91,-173.54 325.91,-159.7 308.12,-147 282.39,-128.62 253.62,-106.42 234.55,-91.47"/>
<polygon fill="#63b8ff" stroke="#63b8ff" points="236.75,-88.75 226.73,-85.31 232.42,-94.25 236.75,-88.75"/>
</a>
</g>
</g>
<!-- Node9&#45;&gt;Node5 -->
<g id="edge25_Node000009_Node000005" class="edge">
<title>Node9&#45;&gt;Node5</title>
<g id="a_edge25_Node000009_Node000005"><a xlink:title=" ">
<path fill="none" stroke="#63b8ff" d="M310.44,-182.55C253.96,-170.59 174.62,-144.76 129.12,-90.25 115.68,-74.15 112.15,-49.89 111.53,-32.54"/>
<polygon fill="#63b8ff" stroke="#63b8ff" points="115.03,-32.6 111.51,-22.61 108.03,-32.62 115.03,-32.6"/>
</a>
</g>
</g>
<!-- Node9&#45;&gt;Node6 -->
<g id="edge26_Node000009_Node000006" class="edge">
<title>Node9&#45;&gt;Node6</title>
<g id="a_edge26_Node000009_Node000006"><a xlink:title=" ">
<path fill="none" stroke="#63b8ff" d="M371.68,-182.69C363.58,-164.75 346.23,-125.01 335.12,-90.25 328.91,-70.79 323.64,-48.06 320.24,-32.02"/>
<polygon fill="#63b8ff" stroke="#63b8ff" points="323.76,-31.79 318.32,-22.7 316.91,-33.2 323.76,-31.79"/>
</a>
</g>
</g>
<!-- Node10 -->
<g id="Node000010" class="node">
<title>Node10</title>
<g id="a_Node000010"><a xlink:href="TfLiteUtils_8hpp.html" target="_top" xlink:title=" ">
<polygon fill="white" stroke="#666666" points="589.75,-147 502.5,-147 502.5,-126.25 589.75,-126.25 589.75,-147"/>
<text text-anchor="middle" x="546.12" y="-133.5" font-family="Helvetica,sans-Serif" font-size="10.00">TfLiteUtils.hpp</text>
</a>
</g>
</g>
<!-- Node9&#45;&gt;Node10 -->
<g id="edge10_Node000009_Node000010" class="edge">
<title>Node9&#45;&gt;Node10</title>
<g id="a_edge10_Node000009_Node000010"><a xlink:title=" ">
<path fill="none" stroke="#63b8ff" d="M406.52,-182.59C433.99,-173.74 474.66,-160.64 505.03,-150.86"/>
<polygon fill="#63b8ff" stroke="#63b8ff" points="505.82,-154.28 514.27,-147.88 503.68,-147.62 505.82,-154.28"/>
</a>
</g>
</g>
<!-- Node13 -->
<g id="Node000013" class="node">
<title>Node13</title>
<g id="a_Node000013"><a xlink:title=" ">
<polygon fill="#e0e0e0" stroke="#999999" points="927,-20.75 883.25,-20.75 883.25,0 927,0 927,-20.75"/>
<text text-anchor="middle" x="905.12" y="-7.25" font-family="Helvetica,sans-Serif" font-size="10.00">string</text>
</a>
</g>
</g>
<!-- Node9&#45;&gt;Node13 -->
<g id="edge27_Node000009_Node000013" class="edge">
<title>Node9&#45;&gt;Node13</title>
<g id="a_edge27_Node000009_Node000013"><a xlink:title=" ">
<path fill="none" stroke="#63b8ff" d="M468.95,-188.93C609.19,-181.53 864.64,-158.77 920.12,-90.25 933.71,-73.47 925.37,-48.13 916.66,-30.73"/>
<polygon fill="#63b8ff" stroke="#63b8ff" points="919.97,-29.49 912.11,-22.39 913.83,-32.84 919.97,-29.49"/>
</a>
</g>
</g>
<!-- Node16 -->
<g id="Node000016" class="node">
<title>Node16</title>
<g id="a_Node000016"><a xlink:title=" ">
<polygon fill="#e0e0e0" stroke="#999999" points="1039.25,-83.88 967,-83.88 967,-63.12 1039.25,-63.12 1039.25,-83.88"/>
<text text-anchor="middle" x="1003.12" y="-70.38" font-family="Helvetica,sans-Serif" font-size="10.00">string_view</text>
</a>
</g>
</g>
<!-- Node9&#45;&gt;Node16 -->
<g id="edge28_Node000009_Node000016" class="edge">
<title>Node9&#45;&gt;Node16</title>
<g id="a_edge28_Node000009_Node000016"><a xlink:title=" ">
<path fill="none" stroke="#63b8ff" d="M468.88,-189.43C621.37,-183.94 912.29,-170.53 953.12,-147 973.45,-135.29 987.37,-111.58 995.26,-94.46"/>
<polygon fill="#63b8ff" stroke="#63b8ff" points="998.28,-96.31 998.99,-85.74 991.84,-93.56 998.28,-96.31"/>
</a>
</g>
</g>
<!-- Node17 -->
<g id="Node000017" class="node">
<title>Node17</title>
<g id="a_Node000017"><a xlink:title=" ">
<polygon fill="#e0e0e0" stroke="#999999" points="911.25,-90.25 809,-90.25 809,-56.75 911.25,-56.75 911.25,-90.25"/>
<text text-anchor="start" x="817" y="-76.75" font-family="Helvetica,sans-Serif" font-size="10.00">tensorflow/lite/c/c</text>
<text text-anchor="middle" x="860.12" y="-64" font-family="Helvetica,sans-Serif" font-size="10.00">_api.h</text>
</a>
</g>
</g>
<!-- Node9&#45;&gt;Node17 -->
<g id="edge23_Node000009_Node000017" class="edge">
<title>Node9&#45;&gt;Node17</title>
<g id="a_edge23_Node000009_Node000017"><a xlink:title=" ">
<path fill="none" stroke="#63b8ff" d="M429.98,-182.52C475.29,-173.96 541.69,-160.8 599.12,-147 667.64,-130.53 745.37,-108.51 798.05,-93.07"/>
<polygon fill="#63b8ff" stroke="#63b8ff" points="798.84,-96.48 807.45,-90.3 796.87,-89.77 798.84,-96.48"/>
</a>
</g>
</g>
<!-- Node18 -->
<g id="Node000018" class="node">
<title>Node18</title>
<g id="a_Node000018"><a xlink:title=" ">
<polygon fill="#e0e0e0" stroke="#999999" points="480.5,-90.25 343.75,-90.25 343.75,-56.75 480.5,-56.75 480.5,-90.25"/>
<text text-anchor="start" x="351.75" y="-76.75" font-family="Helvetica,sans-Serif" font-size="10.00">tensorflow/lite/delegates</text>
<text text-anchor="middle" x="412.12" y="-64" font-family="Helvetica,sans-Serif" font-size="10.00">/gpu/delegate.h</text>
</a>
</g>
</g>
<!-- Node9&#45;&gt;Node18 -->
<g id="edge24_Node000009_Node000018" class="edge">
<title>Node9&#45;&gt;Node18</title>
<g id="a_edge24_Node000009_Node000018"><a xlink:title=" ">
<path fill="none" stroke="#63b8ff" d="M379.07,-182.73C384.43,-165.18 395.95,-127.46 403.87,-101.53"/>
<polygon fill="#63b8ff" stroke="#63b8ff" points="407.2,-102.6 406.78,-92.01 400.51,-100.56 407.2,-102.6"/>
</a>
</g>
</g>
<!-- Node10&#45;&gt;Node3 -->
<g id="edge11_Node000010_Node000003" class="edge">
<title>Node10&#45;&gt;Node3</title>
<g id="a_edge11_Node000010_Node000003"><a xlink:title=" ">
<path fill="none" stroke="#63b8ff" d="M502.25,-127.57C444.9,-117.04 344,-98.52 277.86,-86.38"/>
<polygon fill="#63b8ff" stroke="#63b8ff" points="278.7,-82.98 268.23,-84.62 277.44,-89.86 278.7,-82.98"/>
</a>
</g>
</g>
<!-- Node10&#45;&gt;Node5 -->
<g id="edge17_Node000010_Node000005" class="edge">
<title>Node10&#45;&gt;Node5</title>
<g id="a_edge17_Node000010_Node000005"><a xlink:title=" ">
<path fill="none" stroke="#63b8ff" d="M540.56,-126.03C529.25,-106.88 503.44,-65.06 489.12,-56.75 424.37,-19.16 228,-32.92 154.12,-20.75 153.46,-20.64 152.78,-20.53 152.11,-20.41"/>
<polygon fill="#63b8ff" stroke="#63b8ff" points="152.93,-17 142.45,-18.55 151.6,-23.88 152.93,-17"/>
</a>
</g>
</g>
<!-- Node10&#45;&gt;Node6 -->
<g id="edge19_Node000010_Node000006" class="edge">
<title>Node10&#45;&gt;Node6</title>
<g id="a_edge19_Node000010_Node000006"><a xlink:title=" ">
<path fill="none" stroke="#63b8ff" d="M546.13,-125.75C545.57,-108.99 541.89,-75.02 522.12,-56.75 496.98,-33.51 398.64,-20.01 347.47,-14.42"/>
<polygon fill="#63b8ff" stroke="#63b8ff" points="347.95,-10.95 337.64,-13.39 347.21,-17.91 347.95,-10.95"/>
</a>
</g>
</g>
<!-- Node11 -->
<g id="Node000011" class="node">
<title>Node11</title>
<g id="a_Node000011"><a xlink:href="Errors_8hpp.html" target="_top" xlink:title=" ">
<polygon fill="white" stroke="#666666" points="790.5,-83.88 647.75,-83.88 647.75,-63.12 790.5,-63.12 790.5,-83.88"/>
<text text-anchor="middle" x="719.12" y="-70.38" font-family="Helvetica,sans-Serif" font-size="10.00">EyeAICore/utils/Errors.hpp</text>
</a>
</g>
</g>
<!-- Node10&#45;&gt;Node11 -->
<g id="edge12_Node000010_Node000011" class="edge">
<title>Node10&#45;&gt;Node11</title>
<g id="a_edge12_Node000010_Node000011"><a xlink:title=" ">
<path fill="none" stroke="#63b8ff" d="M573.92,-125.8C602.8,-115.6 648.21,-99.56 680.55,-88.13"/>
<polygon fill="#63b8ff" stroke="#63b8ff" points="681.71,-91.43 689.97,-84.8 679.38,-84.83 681.71,-91.43"/>
</a>
</g>
</g>
<!-- Node15 -->
<g id="Node000015" class="node">
<title>Node15</title>
<g id="a_Node000015"><a xlink:title=" ">
<polygon fill="#e0e0e0" stroke="#999999" points="630,-83.88 574.25,-83.88 574.25,-63.12 630,-63.12 630,-83.88"/>
<text text-anchor="middle" x="602.12" y="-70.38" font-family="Helvetica,sans-Serif" font-size="10.00">optional</text>
</a>
</g>
</g>
<!-- Node10&#45;&gt;Node15 -->
<g id="edge18_Node000010_Node000015" class="edge">
<title>Node10&#45;&gt;Node15</title>
<g id="a_edge18_Node000010_Node000015"><a xlink:title=" ">
<path fill="none" stroke="#63b8ff" d="M555.12,-125.8C563.33,-116.84 575.68,-103.37 585.65,-92.48"/>
<polygon fill="#63b8ff" stroke="#63b8ff" points="588.14,-94.95 592.31,-85.21 582.98,-90.22 588.14,-94.95"/>
</a>
</g>
</g>
<!-- Node10&#45;&gt;Node16 -->
<g id="edge20_Node000010_Node000016" class="edge">
<title>Node10&#45;&gt;Node16</title>
<g id="a_edge20_Node000010_Node000016"><a xlink:title=" ">
<path fill="none" stroke="#63b8ff" d="M590.02,-131.26C660.02,-124.08 801.2,-108.73 920.12,-90.25 931.65,-88.46 944.02,-86.26 955.6,-84.08"/>
<polygon fill="#63b8ff" stroke="#63b8ff" points="956.2,-87.53 965.37,-82.21 954.89,-80.66 956.2,-87.53"/>
</a>
</g>
</g>
<!-- Node10&#45;&gt;Node17 -->
<g id="edge21_Node000010_Node000017" class="edge">
<title>Node10&#45;&gt;Node17</title>
<g id="a_edge21_Node000010_Node000017"><a xlink:title=" ">
<path fill="none" stroke="#63b8ff" d="M590.2,-128.75C638.56,-120.98 718.71,-107.44 797.5,-90.5"/>
<polygon fill="#63b8ff" stroke="#63b8ff" points="798.1,-93.96 807.13,-88.41 796.61,-87.12 798.1,-93.96"/>
</a>
</g>
</g>
<!-- Node10&#45;&gt;Node18 -->
<g id="edge22_Node000010_Node000018" class="edge">
<title>Node10&#45;&gt;Node18</title>
<g id="a_edge22_Node000010_Node000018"><a xlink:title=" ">
<path fill="none" stroke="#63b8ff" d="M524.6,-125.8C506.71,-117.65 480.65,-105.76 458.11,-95.48"/>
<polygon fill="#63b8ff" stroke="#63b8ff" points="459.64,-92.33 449.09,-91.36 456.74,-98.7 459.64,-92.33"/>
</a>
</g>
</g>
<!-- Node11&#45;&gt;Node7 -->
<g id="edge16_Node000011_Node000007" class="edge">
<title>Node11&#45;&gt;Node7</title>
<g id="a_edge16_Node000011_Node000007"><a xlink:title=" ">
<path fill="none" stroke="#63b8ff" d="M684.58,-62.68C645.17,-51.47 580.99,-33.23 540.74,-21.78"/>
<polygon fill="#63b8ff" stroke="#63b8ff" points="541.84,-18.46 531.27,-19.09 539.93,-25.19 541.84,-18.46"/>
</a>
</g>
</g>
<!-- Node12 -->
<g id="Node000012" class="node">
<title>Node12</title>
<g id="a_Node000012"><a xlink:title=" ">
<polygon fill="#e0e0e0" stroke="#999999" points="688.62,-20.75 639.62,-20.75 639.62,0 688.62,0 688.62,-20.75"/>
<text text-anchor="middle" x="664.12" y="-7.25" font-family="Helvetica,sans-Serif" font-size="10.00">format</text>
</a>
</g>
</g>
<!-- Node11&#45;&gt;Node12 -->
<g id="edge13_Node000011_Node000012" class="edge">
<title>Node11&#45;&gt;Node12</title>
<g id="a_edge13_Node000011_Node000012"><a xlink:title=" ">
<path fill="none" stroke="#63b8ff" d="M710.29,-62.68C702.22,-53.72 690.1,-40.24 680.3,-29.35"/>
<polygon fill="#63b8ff" stroke="#63b8ff" points="683.06,-27.19 673.77,-22.1 677.86,-31.87 683.06,-27.19"/>
</a>
</g>
</g>
<!-- Node11&#45;&gt;Node13 -->
<g id="edge14_Node000011_Node000013" class="edge">
<title>Node11&#45;&gt;Node13</title>
<g id="a_edge14_Node000011_Node000013"><a xlink:title=" ">
<path fill="none" stroke="#63b8ff" d="M749.01,-62.68C782.74,-51.59 837.44,-33.62 872.32,-22.15"/>
<polygon fill="#63b8ff" stroke="#63b8ff" points="873.06,-25.6 881.46,-19.15 870.87,-18.95 873.06,-25.6"/>
</a>
</g>
</g>
<!-- Node14 -->
<g id="Node000014" class="node">
<title>Node14</title>
<g id="a_Node000014"><a xlink:title=" ">
<polygon fill="#e0e0e0" stroke="#999999" points="798,-20.75 706.25,-20.75 706.25,0 798,0 798,-20.75"/>
<text text-anchor="middle" x="752.12" y="-7.25" font-family="Helvetica,sans-Serif" font-size="10.00">tl/expected.hpp</text>
</a>
</g>
</g>
<!-- Node11&#45;&gt;Node14 -->
<g id="edge15_Node000011_Node000014" class="edge">
<title>Node11&#45;&gt;Node14</title>
<g id="a_edge15_Node000011_Node000014"><a xlink:title=" ">
<path fill="none" stroke="#63b8ff" d="M724.43,-62.68C729.02,-54.16 735.82,-41.58 741.53,-31.01"/>
<polygon fill="#63b8ff" stroke="#63b8ff" points="744.56,-32.76 746.23,-22.3 738.4,-29.44 744.56,-32.76"/>
</a>
</g>
</g>
<!-- Node19&#45;&gt;Node3 -->
<g id="edge31_Node000019_Node000003" class="edge">
<title>Node19&#45;&gt;Node3</title>
<g id="a_edge31_Node000019_Node000003"><a xlink:title=" ">
<path fill="none" stroke="#63b8ff" d="M302.45,-239.51C294.7,-230.63 283.34,-216.88 275.12,-203.75 252.23,-167.16 231.9,-120.82 221.17,-94.74"/>
<polygon fill="#63b8ff" stroke="#63b8ff" points="224.5,-93.65 217.51,-85.69 218.01,-96.28 224.5,-93.65"/>
</a>
</g>
</g>
<!-- Node19&#45;&gt;Node9 -->
<g id="edge32_Node000019_Node000009" class="edge">
<title>Node19&#45;&gt;Node9</title>
<g id="a_edge32_Node000019_Node000009"><a xlink:title=" ">
<path fill="none" stroke="#63b8ff" d="M322.75,-239.34C331.99,-231.55 345.14,-220.47 356.07,-211.26"/>
<polygon fill="#63b8ff" stroke="#63b8ff" points="358.05,-214.17 363.45,-205.05 353.54,-208.82 358.05,-214.17"/>
</a>
</g>
</g>
<!-- Node20&#45;&gt;Node2 -->
<g id="edge35_Node000020_Node000002" class="edge">
<title>Node20&#45;&gt;Node2</title>
<g id="a_edge35_Node000020_Node000002"><a xlink:title=" ">
<path fill="none" stroke="#63b8ff" d="M187.03,-296.09C168.74,-287.6 142.02,-275.2 121.27,-265.58"/>
<polygon fill="#63b8ff" stroke="#63b8ff" points="122.96,-262.5 112.41,-261.47 120.01,-268.85 122.96,-262.5"/>
</a>
</g>
</g>
<!-- Node20&#45;&gt;Node3 -->
<g id="edge34_Node000020_Node000003" class="edge">
<title>Node20&#45;&gt;Node3</title>
<g id="a_edge34_Node000020_Node000003"><a xlink:title=" ">
<path fill="none" stroke="#63b8ff" d="M208.33,-296.23C209.08,-261.76 211.62,-144.16 212.67,-95.67"/>
<polygon fill="#63b8ff" stroke="#63b8ff" points="216.17,-95.78 212.88,-85.7 209.17,-95.62 216.17,-95.78"/>
</a>
</g>
</g>
<!-- Node21&#45;&gt;Node16 -->
<g id="edge39_Node000021_Node000016" class="edge">
<title>Node21&#45;&gt;Node16</title>
<g id="a_edge39_Node000021_Node000016"><a xlink:title=" ">
<path fill="none" stroke="#63b8ff" d="M1039.54,-296.23C1033.87,-261.68 1014.48,-143.65 1006.55,-95.36"/>
<polygon fill="#63b8ff" stroke="#63b8ff" points="1010.04,-94.98 1004.96,-85.68 1003.13,-96.12 1010.04,-94.98"/>
</a>
</g>
</g>
<!-- Node22 -->
<g id="Node000022" class="node">
<title>Node22</title>
<g id="a_Node000022"><a xlink:title=" ">
<polygon fill="#e0e0e0" stroke="#999999" points="1092.62,-260.5 1043.62,-260.5 1043.62,-239.75 1092.62,-239.75 1092.62,-260.5"/>
<text text-anchor="middle" x="1068.12" y="-247" font-family="Helvetica,sans-Serif" font-size="10.00">chrono</text>
</a>
</g>
</g>
<!-- Node21&#45;&gt;Node22 -->
<g id="edge37_Node000021_Node000022" class="edge">
<title>Node21&#45;&gt;Node22</title>
<g id="a_edge37_Node000021_Node000022"><a xlink:title=" ">
<path fill="none" stroke="#63b8ff" d="M1045.95,-296.09C1049.37,-289.16 1054.07,-279.62 1058.27,-271.11"/>
<polygon fill="#63b8ff" stroke="#63b8ff" points="1061.39,-272.7 1062.67,-262.19 1055.11,-269.61 1061.39,-272.7"/>
</a>
</g>
</g>
<!-- Node23 -->
<g id="Node000023" class="node">
<title>Node23</title>
<g id="a_Node000023"><a xlink:title=" ">
<polygon fill="#e0e0e0" stroke="#999999" points="1217.5,-260.5 1110.75,-260.5 1110.75,-239.75 1217.5,-239.75 1217.5,-260.5"/>
<text text-anchor="middle" x="1164.12" y="-247" font-family="Helvetica,sans-Serif" font-size="10.00">concurrentqueue.h</text>
</a>
</g>
</g>
<!-- Node21&#45;&gt;Node23 -->
<g id="edge38_Node000021_Node000023" class="edge">
<title>Node21&#45;&gt;Node23</title>
<g id="a_edge38_Node000021_Node000023"><a xlink:title=" ">
<path fill="none" stroke="#63b8ff" d="M1063.11,-296.09C1082.27,-287.56 1110.29,-275.09 1131.96,-265.44"/>
<polygon fill="#63b8ff" stroke="#63b8ff" points="1133.23,-268.71 1140.94,-261.44 1130.38,-262.31 1133.23,-268.71"/>
</a>
</g>
</g>
</g>
</svg>
