<?xml version="1.0" encoding="UTF-8" standalone="no"?>
<!DOCTYPE svg PUBLIC "-//W3C//DTD SVG 1.1//EN"
 "http://www.w3.org/Graphics/SVG/1.1/DTD/svg11.dtd">
<!-- Generated by graphviz version 12.2.1 (20241206.2353)
 -->
<!-- Title: include/EyeAICore/MetricDepthModel.hpp Pages: 1 -->
<svg width="1024pt" height="281pt"
 viewBox="0.00 0.00 1023.51 281.25" xmlns="http://www.w3.org/2000/svg" xmlns:xlink="http://www.w3.org/1999/xlink">
<g id="graph0" class="graph" transform="scale(1 1) rotate(0) translate(4 277.25)">
<title>include/EyeAICore/MetricDepthModel.hpp</title>
<!-- Node1 -->
<g id="Node000001" class="node">
<title>Node1</title>
<g id="a_Node000001"><a xlink:title=" ">
<polygon fill="#999999" stroke="#666666" points="138.25,-273.25 0,-273.25 0,-239.75 138.25,-239.75 138.25,-273.25"/>
<text text-anchor="start" x="8" y="-259.75" font-family="Helvetica,sans-Serif" font-size="10.00">include/EyeAICore/Metric</text>
<text text-anchor="middle" x="69.12" y="-247" font-family="Helvetica,sans-Serif" font-size="10.00">DepthModel.hpp</text>
</a>
</g>
</g>
<!-- Node2 -->
<g id="Node000002" class="node">
<title>Node2</title>
<g id="a_Node000002"><a xlink:href="TensorBuffer_8hpp.html" target="_top" xlink:title=" ">
<polygon fill="white" stroke="#666666" points="285.25,-83.88 135,-83.88 135,-63.12 285.25,-63.12 285.25,-83.88"/>
<text text-anchor="middle" x="210.12" y="-70.38" font-family="Helvetica,sans-Serif" font-size="10.00">EyeAICore/TensorBuffer.hpp</text>
</a>
</g>
</g>
<!-- Node1&#45;&gt;Node2 -->
<g id="edge1_Node000001_Node000002" class="edge">
<title>Node1&#45;&gt;Node2</title>
<g id="a_edge1_Node000001_Node000002"><a xlink:title=" ">
<path fill="none" stroke="#63b8ff" d="M81.64,-239.44C107.76,-205.91 167.96,-128.63 195.67,-93.05"/>
<polygon fill="#63b8ff" stroke="#63b8ff" points="198.26,-95.43 201.65,-85.39 192.74,-91.12 198.26,-95.43"/>
</a>
</g>
</g>
<!-- Node4 -->
<g id="Node000004" class="node">
<title>Node4</title>
<g id="a_Node000004"><a xlink:title=" ">
<polygon fill="#e0e0e0" stroke="#999999" points="137.75,-20.75 80.5,-20.75 80.5,0 137.75,0 137.75,-20.75"/>
<text text-anchor="middle" x="109.12" y="-7.25" font-family="Helvetica,sans-Serif" font-size="10.00">memory</text>
</a>
</g>
</g>
<!-- Node1&#45;&gt;Node4 -->
<g id="edge28_Node000001_Node000004" class="edge">
<title>Node1&#45;&gt;Node4</title>
<g id="a_edge28_Node000001_Node000004"><a xlink:title=" ">
<path fill="none" stroke="#63b8ff" d="M71.75,-239.48C78.74,-196.83 97.81,-80.46 105.67,-32.49"/>
<polygon fill="#63b8ff" stroke="#63b8ff" points="109.12,-33.05 107.28,-22.62 102.21,-31.92 109.12,-33.05"/>
</a>
</g>
</g>
<!-- Node8 -->
<g id="Node000008" class="node">
<title>Node8</title>
<g id="a_Node000008"><a xlink:href="TfLiteRuntime_8hpp.html" target="_top" xlink:title=" ">
<polygon fill="white" stroke="#666666" points="612.5,-203.75 427.75,-203.75 427.75,-183 612.5,-183 612.5,-203.75"/>
<text text-anchor="middle" x="520.12" y="-190.25" font-family="Helvetica,sans-Serif" font-size="10.00">EyeAICore/tflite/TfLiteRuntime.hpp</text>
</a>
</g>
</g>
<!-- Node1&#45;&gt;Node8 -->
<g id="edge7_Node000001_Node000008" class="edge">
<title>Node1&#45;&gt;Node8</title>
<g id="a_edge7_Node000001_Node000008"><a xlink:title=" ">
<path fill="none" stroke="#63b8ff" d="M138.61,-246.08C218.77,-235.22 350.53,-217.36 436.31,-205.73"/>
<polygon fill="#63b8ff" stroke="#63b8ff" points="436.64,-209.22 446.08,-204.41 435.7,-202.29 436.64,-209.22"/>
</a>
</g>
</g>
<!-- Node3 -->
<g id="Node000003" class="node">
<title>Node3</title>
<g id="a_Node000003"><a xlink:title=" ">
<polygon fill="#e0e0e0" stroke="#999999" points="208.62,-20.75 159.62,-20.75 159.62,0 208.62,0 208.62,-20.75"/>
<text text-anchor="middle" x="184.12" y="-7.25" font-family="Helvetica,sans-Serif" font-size="10.00">cstdint</text>
</a>
</g>
</g>
<!-- Node2&#45;&gt;Node3 -->
<g id="edge2_Node000002_Node000003" class="edge">
<title>Node2&#45;&gt;Node3</title>
<g id="a_edge2_Node000002_Node000003"><a xlink:title=" ">
<path fill="none" stroke="#63b8ff" d="M205.95,-62.68C202.36,-54.25 197.09,-41.84 192.62,-31.34"/>
<polygon fill="#63b8ff" stroke="#63b8ff" points="195.93,-30.19 188.8,-22.36 189.49,-32.93 195.93,-30.19"/>
</a>
</g>
</g>
<!-- Node2&#45;&gt;Node4 -->
<g id="edge3_Node000002_Node000004" class="edge">
<title>Node2&#45;&gt;Node4</title>
<g id="a_edge3_Node000002_Node000004"><a xlink:title=" ">
<path fill="none" stroke="#63b8ff" d="M193.9,-62.68C177.99,-53.05 153.51,-38.23 134.93,-26.99"/>
<polygon fill="#63b8ff" stroke="#63b8ff" points="136.97,-24.14 126.61,-21.96 133.35,-30.13 136.97,-24.14"/>
</a>
</g>
</g>
<!-- Node5 -->
<g id="Node000005" class="node">
<title>Node5</title>
<g id="a_Node000005"><a xlink:title=" ">
<polygon fill="#e0e0e0" stroke="#999999" points="332.75,-20.75 293.5,-20.75 293.5,0 332.75,0 332.75,-20.75"/>
<text text-anchor="middle" x="313.12" y="-7.25" font-family="Helvetica,sans-Serif" font-size="10.00">span</text>
</a>
</g>
</g>
<!-- Node2&#45;&gt;Node5 -->
<g id="edge4_Node000002_Node000005" class="edge">
<title>Node2&#45;&gt;Node5</title>
<g id="a_edge4_Node000002_Node000005"><a xlink:title=" ">
<path fill="none" stroke="#63b8ff" d="M226.67,-62.68C242.89,-53.05 267.86,-38.23 286.81,-26.99"/>
<polygon fill="#63b8ff" stroke="#63b8ff" points="288.5,-30.06 295.32,-21.94 284.93,-24.04 288.5,-30.06"/>
</a>
</g>
</g>
<!-- Node6 -->
<g id="Node000006" class="node">
<title>Node6</title>
<g id="a_Node000006"><a xlink:title=" ">
<polygon fill="#e0e0e0" stroke="#999999" points="423.38,-20.75 372.88,-20.75 372.88,0 423.38,0 423.38,-20.75"/>
<text text-anchor="middle" x="398.12" y="-7.25" font-family="Helvetica,sans-Serif" font-size="10.00">variant</text>
</a>
</g>
</g>
<!-- Node2&#45;&gt;Node6 -->
<g id="edge5_Node000002_Node000006" class="edge">
<title>Node2&#45;&gt;Node6</title>
<g id="a_edge5_Node000002_Node000006"><a xlink:title=" ">
<path fill="none" stroke="#63b8ff" d="M240.33,-62.68C273.39,-51.93 326.39,-34.7 361.72,-23.21"/>
<polygon fill="#63b8ff" stroke="#63b8ff" points="362.66,-26.59 371.08,-20.17 360.49,-19.93 362.66,-26.59"/>
</a>
</g>
</g>
<!-- Node7 -->
<g id="Node000007" class="node">
<title>Node7</title>
<g id="a_Node000007"><a xlink:title=" ">
<polygon fill="#e0e0e0" stroke="#999999" points="273.5,-20.75 226.75,-20.75 226.75,0 273.5,0 273.5,-20.75"/>
<text text-anchor="middle" x="250.12" y="-7.25" font-family="Helvetica,sans-Serif" font-size="10.00">vector</text>
</a>
</g>
</g>
<!-- Node2&#45;&gt;Node7 -->
<g id="edge6_Node000002_Node000007" class="edge">
<title>Node2&#45;&gt;Node7</title>
<g id="a_edge6_Node000002_Node000007"><a xlink:title=" ">
<path fill="none" stroke="#63b8ff" d="M216.55,-62.68C222.24,-53.98 230.71,-41.05 237.71,-30.34"/>
<polygon fill="#63b8ff" stroke="#63b8ff" points="240.47,-32.52 243.02,-22.24 234.61,-28.69 240.47,-32.52"/>
</a>
</g>
</g>
<!-- Node8&#45;&gt;Node2 -->
<g id="edge8_Node000008_Node000002" class="edge">
<title>Node8&#45;&gt;Node2</title>
<g id="a_edge8_Node000008_Node000002"><a xlink:title=" ">
<path fill="none" stroke="#63b8ff" d="M427.45,-183.44C386.65,-176.99 339.02,-165.93 299.12,-147 270.61,-133.47 243.31,-108.93 226.64,-92.18"/>
<polygon fill="#63b8ff" stroke="#63b8ff" points="229.46,-90.07 219.99,-85.32 224.43,-94.94 229.46,-90.07"/>
</a>
</g>
</g>
<!-- Node8&#45;&gt;Node4 -->
<g id="edge24_Node000008_Node000004" class="edge">
<title>Node8&#45;&gt;Node4</title>
<g id="a_edge24_Node000008_Node000004"><a xlink:title=" ">
<path fill="none" stroke="#63b8ff" d="M439.53,-182.56C336.27,-168.19 165.84,-137.87 126.12,-90.25 112.69,-74.14 109.15,-49.89 108.54,-32.53"/>
<polygon fill="#63b8ff" stroke="#63b8ff" points="112.04,-32.6 108.51,-22.61 105.04,-32.61 112.04,-32.6"/>
</a>
</g>
</g>
<!-- Node8&#45;&gt;Node5 -->
<g id="edge25_Node000008_Node000005" class="edge">
<title>Node8&#45;&gt;Node5</title>
<g id="a_edge25_Node000008_Node000005"><a xlink:title=" ">
<path fill="none" stroke="#63b8ff" d="M499.31,-182.52C467.21,-166.57 404.95,-132.57 363.12,-90.25 345.74,-72.66 331.31,-48.02 322.5,-30.98"/>
<polygon fill="#63b8ff" stroke="#63b8ff" points="325.81,-29.77 318.22,-22.39 319.54,-32.9 325.81,-29.77"/>
</a>
</g>
</g>
<!-- Node9 -->
<g id="Node000009" class="node">
<title>Node9</title>
<g id="a_Node000009"><a xlink:href="TfLiteUtils_8hpp.html" target="_top" xlink:title=" ">
<polygon fill="white" stroke="#666666" points="563.75,-147 476.5,-147 476.5,-126.25 563.75,-126.25 563.75,-147"/>
<text text-anchor="middle" x="520.12" y="-133.5" font-family="Helvetica,sans-Serif" font-size="10.00">TfLiteUtils.hpp</text>
</a>
</g>
</g>
<!-- Node8&#45;&gt;Node9 -->
<g id="edge9_Node000008_Node000009" class="edge">
<title>Node8&#45;&gt;Node9</title>
<g id="a_edge9_Node000008_Node000009"><a xlink:title=" ">
<path fill="none" stroke="#63b8ff" d="M520.12,-182.59C520.12,-175.97 520.12,-166.97 520.12,-158.77"/>
<polygon fill="#63b8ff" stroke="#63b8ff" points="523.63,-158.84 520.13,-148.84 516.63,-158.84 523.63,-158.84"/>
</a>
</g>
</g>
<!-- Node12 -->
<g id="Node000012" class="node">
<title>Node12</title>
<g id="a_Node000012"><a xlink:title=" ">
<polygon fill="#e0e0e0" stroke="#999999" points="860,-20.75 816.25,-20.75 816.25,0 860,0 860,-20.75"/>
<text text-anchor="middle" x="838.12" y="-7.25" font-family="Helvetica,sans-Serif" font-size="10.00">string</text>
</a>
</g>
</g>
<!-- Node8&#45;&gt;Node12 -->
<g id="edge26_Node000008_Node000012" class="edge">
<title>Node8&#45;&gt;Node12</title>
<g id="a_edge26_Node000008_Node000012"><a xlink:title=" ">
<path fill="none" stroke="#63b8ff" d="M612.84,-186.48C740.01,-176.25 958.42,-150.23 1007.12,-90.25 1046.45,-41.83 930.87,-21.62 871.27,-14.58"/>
<polygon fill="#63b8ff" stroke="#63b8ff" points="871.99,-11.14 861.66,-13.51 871.21,-18.09 871.99,-11.14"/>
</a>
</g>
</g>
<!-- Node15 -->
<g id="Node000015" class="node">
<title>Node15</title>
<g id="a_Node000015"><a xlink:title=" ">
<polygon fill="#e0e0e0" stroke="#999999" points="723.25,-83.88 651,-83.88 651,-63.12 723.25,-63.12 723.25,-83.88"/>
<text text-anchor="middle" x="687.12" y="-70.38" font-family="Helvetica,sans-Serif" font-size="10.00">string_view</text>
</a>
</g>
</g>
<!-- Node8&#45;&gt;Node15 -->
<g id="edge27_Node000008_Node000015" class="edge">
<title>Node8&#45;&gt;Node15</title>
<g id="a_edge27_Node000008_Node000015"><a xlink:title=" ">
<path fill="none" stroke="#63b8ff" d="M534.08,-182.53C562.88,-162.2 629.17,-115.41 664.3,-90.61"/>
<polygon fill="#63b8ff" stroke="#63b8ff" points="665.94,-93.74 672.09,-85.11 661.91,-88.02 665.94,-93.74"/>
</a>
</g>
</g>
<!-- Node16 -->
<g id="Node000016" class="node">
<title>Node16</title>
<g id="a_Node000016"><a xlink:title=" ">
<polygon fill="#e0e0e0" stroke="#999999" points="843.25,-90.25 741,-90.25 741,-56.75 843.25,-56.75 843.25,-90.25"/>
<text text-anchor="start" x="749" y="-76.75" font-family="Helvetica,sans-Serif" font-size="10.00">tensorflow/lite/c/c</text>
<text text-anchor="middle" x="792.12" y="-64" font-family="Helvetica,sans-Serif" font-size="10.00">_api.h</text>
</a>
</g>
</g>
<!-- Node8&#45;&gt;Node16 -->
<g id="edge22_Node000008_Node000016" class="edge">
<title>Node8&#45;&gt;Node16</title>
<g id="a_edge22_Node000008_Node000016"><a xlink:title=" ">
<path fill="none" stroke="#63b8ff" d="M542.85,-182.53C587.05,-163.37 685.46,-120.73 744.55,-95.12"/>
<polygon fill="#63b8ff" stroke="#63b8ff" points="745.57,-98.49 753.36,-91.3 742.79,-92.07 745.57,-98.49"/>
</a>
</g>
</g>
<!-- Node17 -->
<g id="Node000017" class="node">
<title>Node17</title>
<g id="a_Node000017"><a xlink:title=" ">
<polygon fill="#e0e0e0" stroke="#999999" points="998.5,-90.25 861.75,-90.25 861.75,-56.75 998.5,-56.75 998.5,-90.25"/>
<text text-anchor="start" x="869.75" y="-76.75" font-family="Helvetica,sans-Serif" font-size="10.00">tensorflow/lite/delegates</text>
<text text-anchor="middle" x="930.12" y="-64" font-family="Helvetica,sans-Serif" font-size="10.00">/gpu/delegate.h</text>
</a>
</g>
</g>
<!-- Node8&#45;&gt;Node17 -->
<g id="edge23_Node000008_Node000017" class="edge">
<title>Node8&#45;&gt;Node17</title>
<g id="a_edge23_Node000008_Node000017"><a xlink:title=" ">
<path fill="none" stroke="#63b8ff" d="M554.38,-182.53C622.11,-163.05 774.27,-119.31 862.78,-93.86"/>
<polygon fill="#63b8ff" stroke="#63b8ff" points="863.68,-97.24 872.33,-91.12 861.75,-90.52 863.68,-97.24"/>
</a>
</g>
</g>
<!-- Node9&#45;&gt;Node2 -->
<g id="edge10_Node000009_Node000002" class="edge">
<title>Node9&#45;&gt;Node2</title>
<g id="a_edge10_Node000009_Node000002"><a xlink:title=" ">
<path fill="none" stroke="#63b8ff" d="M476.04,-126.93C422.41,-116.36 331.58,-98.45 271.23,-86.55"/>
<polygon fill="#63b8ff" stroke="#63b8ff" points="271.93,-83.12 261.44,-84.62 270.58,-89.99 271.93,-83.12"/>
</a>
</g>
</g>
<!-- Node9&#45;&gt;Node4 -->
<g id="edge16_Node000009_Node000004" class="edge">
<title>Node9&#45;&gt;Node4</title>
<g id="a_edge16_Node000009_Node000004"><a xlink:title=" ">
<path fill="none" stroke="#63b8ff" d="M480.39,-125.82C448.74,-117.58 403.53,-104.83 365.12,-90.25 332.5,-77.87 327.01,-68.41 294.12,-56.75 280.53,-51.93 199.59,-32.62 149.38,-20.8"/>
<polygon fill="#63b8ff" stroke="#63b8ff" points="150.26,-17.41 139.72,-18.53 148.66,-24.22 150.26,-17.41"/>
</a>
</g>
</g>
<!-- Node9&#45;&gt;Node5 -->
<g id="edge18_Node000009_Node000005" class="edge">
<title>Node9&#45;&gt;Node5</title>
<g id="a_edge18_Node000009_Node000005"><a xlink:title=" ">
<path fill="none" stroke="#63b8ff" d="M488.97,-125.91C465.8,-118 433.87,-105.65 408.12,-90.25 400.05,-85.42 358.42,-50.16 333.02,-28.45"/>
<polygon fill="#63b8ff" stroke="#63b8ff" points="335.52,-25.98 325.64,-22.13 330.96,-31.3 335.52,-25.98"/>
</a>
</g>
</g>
<!-- Node10 -->
<g id="Node000010" class="node">
<title>Node10</title>
<g id="a_Node000010"><a xlink:href="Errors_8hpp.html" target="_top" xlink:title=" ">
<polygon fill="white" stroke="#666666" points="559.5,-83.88 416.75,-83.88 416.75,-63.12 559.5,-63.12 559.5,-83.88"/>
<text text-anchor="middle" x="488.12" y="-70.38" font-family="Helvetica,sans-Serif" font-size="10.00">EyeAICore/utils/Errors.hpp</text>
</a>
</g>
</g>
<!-- Node9&#45;&gt;Node10 -->
<g id="edge11_Node000009_Node000010" class="edge">
<title>Node9&#45;&gt;Node10</title>
<g id="a_edge11_Node000009_Node000010"><a xlink:title=" ">
<path fill="none" stroke="#63b8ff" d="M514.98,-125.8C510.53,-117.29 503.94,-104.7 498.4,-94.13"/>
<polygon fill="#63b8ff" stroke="#63b8ff" points="501.59,-92.67 493.85,-85.44 495.39,-95.92 501.59,-92.67"/>
</a>
</g>
</g>
<!-- Node14 -->
<g id="Node000014" class="node">
<title>Node14</title>
<g id="a_Node000014"><a xlink:title=" ">
<polygon fill="#e0e0e0" stroke="#999999" points="633,-83.88 577.25,-83.88 577.25,-63.12 633,-63.12 633,-83.88"/>
<text text-anchor="middle" x="605.12" y="-70.38" font-family="Helvetica,sans-Serif" font-size="10.00">optional</text>
</a>
</g>
</g>
<!-- Node9&#45;&gt;Node14 -->
<g id="edge17_Node000009_Node000014" class="edge">
<title>Node9&#45;&gt;Node14</title>
<g id="a_edge17_Node000009_Node000014"><a xlink:title=" ">
<path fill="none" stroke="#63b8ff" d="M533.78,-125.8C546.92,-116.36 567.01,-101.91 582.53,-90.75"/>
<polygon fill="#63b8ff" stroke="#63b8ff" points="584.2,-93.86 590.27,-85.18 580.11,-88.18 584.2,-93.86"/>
</a>
</g>
</g>
<!-- Node9&#45;&gt;Node15 -->
<g id="edge19_Node000009_Node000015" class="edge">
<title>Node9&#45;&gt;Node15</title>
<g id="a_edge19_Node000009_Node000015"><a xlink:title=" ">
<path fill="none" stroke="#63b8ff" d="M546.96,-125.8C574.83,-115.6 618.67,-99.56 649.89,-88.13"/>
<polygon fill="#63b8ff" stroke="#63b8ff" points="650.75,-91.54 658.94,-84.82 648.35,-84.97 650.75,-91.54"/>
</a>
</g>
</g>
<!-- Node9&#45;&gt;Node16 -->
<g id="edge20_Node000009_Node000016" class="edge">
<title>Node9&#45;&gt;Node16</title>
<g id="a_edge20_Node000009_Node000016"><a xlink:title=" ">
<path fill="none" stroke="#63b8ff" d="M564.11,-126.82C604.73,-118.56 667,-105.55 729.86,-90.73"/>
<polygon fill="#63b8ff" stroke="#63b8ff" points="730.38,-94.21 739.3,-88.49 728.77,-87.4 730.38,-94.21"/>
</a>
</g>
</g>
<!-- Node9&#45;&gt;Node17 -->
<g id="edge21_Node000009_Node000017" class="edge">
<title>Node9&#45;&gt;Node17</title>
<g id="a_edge21_Node000009_Node000017"><a xlink:title=" ">
<path fill="none" stroke="#63b8ff" d="M564.03,-130.52C625.59,-123.18 741.3,-108.65 850.08,-90.53"/>
<polygon fill="#63b8ff" stroke="#63b8ff" points="850.49,-94.01 859.77,-88.9 849.33,-87.11 850.49,-94.01"/>
</a>
</g>
</g>
<!-- Node10&#45;&gt;Node6 -->
<g id="edge15_Node000010_Node000006" class="edge">
<title>Node10&#45;&gt;Node6</title>
<g id="a_edge15_Node000010_Node000006"><a xlink:title=" ">
<path fill="none" stroke="#63b8ff" d="M473.66,-62.68C459.76,-53.23 438.48,-38.78 422.05,-27.62"/>
<polygon fill="#63b8ff" stroke="#63b8ff" points="424.04,-24.74 413.8,-22.02 420.11,-30.54 424.04,-24.74"/>
</a>
</g>
</g>
<!-- Node11 -->
<g id="Node000011" class="node">
<title>Node11</title>
<g id="a_Node000011"><a xlink:title=" ">
<polygon fill="#e0e0e0" stroke="#999999" points="501.62,-20.75 452.62,-20.75 452.62,0 501.62,0 501.62,-20.75"/>
<text text-anchor="middle" x="477.12" y="-7.25" font-family="Helvetica,sans-Serif" font-size="10.00">format</text>
</a>
</g>
</g>
<!-- Node10&#45;&gt;Node11 -->
<g id="edge12_Node000010_Node000011" class="edge">
<title>Node10&#45;&gt;Node11</title>
<g id="a_edge12_Node000010_Node000011"><a xlink:title=" ">
<path fill="none" stroke="#63b8ff" d="M486.36,-62.68C484.87,-54.43 482.7,-42.37 480.84,-32.01"/>
<polygon fill="#63b8ff" stroke="#63b8ff" points="484.34,-31.68 479.12,-22.46 477.45,-32.92 484.34,-31.68"/>
</a>
</g>
</g>
<!-- Node10&#45;&gt;Node12 -->
<g id="edge13_Node000010_Node000012" class="edge">
<title>Node10&#45;&gt;Node12</title>
<g id="a_edge13_Node000010_Node000012"><a xlink:title=" ">
<path fill="none" stroke="#63b8ff" d="M536.74,-62.7C547.09,-60.68 557.96,-58.6 568.12,-56.75 653.19,-41.23 753.7,-24.86 804.75,-16.68"/>
<polygon fill="#63b8ff" stroke="#63b8ff" points="805.22,-20.15 814.54,-15.11 804.12,-13.23 805.22,-20.15"/>
</a>
</g>
</g>
<!-- Node13 -->
<g id="Node000013" class="node">
<title>Node13</title>
<g id="a_Node000013"><a xlink:title=" ">
<polygon fill="#e0e0e0" stroke="#999999" points="611,-20.75 519.25,-20.75 519.25,0 611,0 611,-20.75"/>
<text text-anchor="middle" x="565.12" y="-7.25" font-family="Helvetica,sans-Serif" font-size="10.00">tl/expected.hpp</text>
</a>
</g>
</g>
<!-- Node10&#45;&gt;Node13 -->
<g id="edge14_Node000010_Node000013" class="edge">
<title>Node10&#45;&gt;Node13</title>
<g id="a_edge14_Node000010_Node000013"><a xlink:title=" ">
<path fill="none" stroke="#63b8ff" d="M500.5,-62.68C512.17,-53.41 529.92,-39.33 543.86,-28.26"/>
<polygon fill="#63b8ff" stroke="#63b8ff" points="545.94,-31.07 551.6,-22.11 541.59,-25.59 545.94,-31.07"/>
</a>
</g>
</g>
</g>
</svg>
