<?xml version="1.0" encoding="UTF-8" standalone="no"?>
<!DOCTYPE svg PUBLIC "-//W3C//DTD SVG 1.1//EN"
 "http://www.w3.org/Graphics/SVG/1.1/DTD/svg11.dtd">
<!-- Generated by graphviz version 12.2.1 (20241206.2353)
 -->
<!-- Title: include/EyeAICore/MetricDepthModel.hpp Pages: 1 -->
<svg width="963pt" height="276pt"
 viewBox="0.00 0.00 962.65 276.00" xmlns="http://www.w3.org/2000/svg" xmlns:xlink="http://www.w3.org/1999/xlink">
<g id="graph0" class="graph" transform="scale(1 1) rotate(0) translate(4 272)">
<title>include/EyeAICore/MetricDepthModel.hpp</title>
<!-- Node1 -->
<g id="Node000001" class="node">
<title>Node1</title>
<g id="a_Node000001"><a xlink:title=" ">
<polygon fill="#999999" stroke="#666666" points="127.75,-268 0,-268 0,-236 127.75,-236 127.75,-268"/>
<text text-anchor="start" x="8" y="-254.5" font-family="Helvetica,sans-Serif" font-size="10.00">include/EyeAICore/Metric</text>
<text text-anchor="middle" x="63.88" y="-242.5" font-family="Helvetica,sans-Serif" font-size="10.00">DepthModel.hpp</text>
</a>
</g>
</g>
<!-- Node2 -->
<g id="Node000002" class="node">
<title>Node2</title>
<g id="a_Node000002"><a xlink:href="TensorBuffer_8hpp.html" target="_top" xlink:title=" ">
<polygon fill="white" stroke="#666666" points="270.12,-82 129.62,-82 129.62,-62 270.12,-62 270.12,-82"/>
<text text-anchor="middle" x="199.88" y="-68.5" font-family="Helvetica,sans-Serif" font-size="10.00">EyeAICore/TensorBuffer.hpp</text>
</a>
</g>
</g>
<!-- Node1&#45;&gt;Node2 -->
<g id="edge1_Node000001_Node000002" class="edge">
<title>Node1&#45;&gt;Node2</title>
<g id="a_edge1_Node000001_Node000002"><a xlink:title=" ">
<path fill="none" stroke="#63b8ff" d="M75.71,-235.52C100.76,-202.72 159.08,-126.4 185.91,-91.28"/>
<polygon fill="#63b8ff" stroke="#63b8ff" points="188.66,-93.44 191.95,-83.37 183.1,-89.19 188.66,-93.44"/>
</a>
</g>
</g>
<!-- Node4 -->
<g id="Node000004" class="node">
<title>Node4</title>
<g id="a_Node000004"><a xlink:title=" ">
<polygon fill="#e0e0e0" stroke="#999999" points="130.5,-20 79.25,-20 79.25,0 130.5,0 130.5,-20"/>
<text text-anchor="middle" x="104.88" y="-6.5" font-family="Helvetica,sans-Serif" font-size="10.00">memory</text>
</a>
</g>
</g>
<!-- Node1&#45;&gt;Node4 -->
<g id="edge28_Node000001_Node000004" class="edge">
<title>Node1&#45;&gt;Node4</title>
<g id="a_edge28_Node000001_Node000004"><a xlink:title=" ">
<path fill="none" stroke="#63b8ff" d="M66.5,-235.62C73.63,-193.92 93.31,-78.68 101.37,-31.52"/>
<polygon fill="#63b8ff" stroke="#63b8ff" points="104.78,-32.31 103.02,-21.87 97.88,-31.14 104.78,-32.31"/>
</a>
</g>
</g>
<!-- Node8 -->
<g id="Node000008" class="node">
<title>Node8</title>
<g id="a_Node000008"><a xlink:href="TfLiteRuntime_8hpp.html" target="_top" xlink:title=" ">
<polygon fill="white" stroke="#666666" points="582.38,-200 413.38,-200 413.38,-180 582.38,-180 582.38,-200"/>
<text text-anchor="middle" x="497.88" y="-186.5" font-family="Helvetica,sans-Serif" font-size="10.00">EyeAICore/tflite/TfLiteRuntime.hpp</text>
</a>
</g>
</g>
<!-- Node1&#45;&gt;Node8 -->
<g id="edge7_Node000001_Node000008" class="edge">
<title>Node1&#45;&gt;Node8</title>
<g id="a_edge7_Node000001_Node000008"><a xlink:title=" ">
<path fill="none" stroke="#63b8ff" d="M127.91,-242.15C205.01,-231.49 334.52,-213.58 418.05,-202.04"/>
<polygon fill="#63b8ff" stroke="#63b8ff" points="418.35,-205.53 427.77,-200.69 417.39,-198.59 418.35,-205.53"/>
</a>
</g>
</g>
<!-- Node3 -->
<g id="Node000003" class="node">
<title>Node3</title>
<g id="a_Node000003"><a xlink:title=" ">
<polygon fill="#e0e0e0" stroke="#999999" points="198.5,-20 153.25,-20 153.25,0 198.5,0 198.5,-20"/>
<text text-anchor="middle" x="175.88" y="-6.5" font-family="Helvetica,sans-Serif" font-size="10.00">cstdint</text>
</a>
</g>
</g>
<!-- Node2&#45;&gt;Node3 -->
<g id="edge2_Node000002_Node000003" class="edge">
<title>Node2&#45;&gt;Node3</title>
<g id="a_edge2_Node000002_Node000003"><a xlink:title=" ">
<path fill="none" stroke="#63b8ff" d="M196.12,-61.62C192.83,-53.39 187.93,-41.13 183.77,-30.74"/>
<polygon fill="#63b8ff" stroke="#63b8ff" points="187.05,-29.5 180.08,-21.52 180.55,-32.1 187.05,-29.5"/>
</a>
</g>
</g>
<!-- Node2&#45;&gt;Node4 -->
<g id="edge3_Node000002_Node000004" class="edge">
<title>Node2&#45;&gt;Node4</title>
<g id="a_edge3_Node000002_Node000004"><a xlink:title=" ">
<path fill="none" stroke="#63b8ff" d="M185.03,-61.62C170.11,-52.2 146.86,-37.52 129.24,-26.39"/>
<polygon fill="#63b8ff" stroke="#63b8ff" points="131.22,-23.5 120.89,-21.12 127.48,-29.42 131.22,-23.5"/>
</a>
</g>
</g>
<!-- Node5 -->
<g id="Node000005" class="node">
<title>Node5</title>
<g id="a_Node000005"><a xlink:title=" ">
<polygon fill="#e0e0e0" stroke="#999999" points="316.38,-20 279.38,-20 279.38,0 316.38,0 316.38,-20"/>
<text text-anchor="middle" x="297.88" y="-6.5" font-family="Helvetica,sans-Serif" font-size="10.00">span</text>
</a>
</g>
</g>
<!-- Node2&#45;&gt;Node5 -->
<g id="edge4_Node000002_Node000005" class="edge">
<title>Node2&#45;&gt;Node5</title>
<g id="a_edge4_Node000002_Node000005"><a xlink:title=" ">
<path fill="none" stroke="#63b8ff" d="M215.19,-61.62C230.65,-52.16 254.79,-37.38 273,-26.23"/>
<polygon fill="#63b8ff" stroke="#63b8ff" points="274.68,-29.31 281.38,-21.1 271.02,-23.34 274.68,-29.31"/>
</a>
</g>
</g>
<!-- Node6 -->
<g id="Node000006" class="node">
<title>Node6</title>
<g id="a_Node000006"><a xlink:title=" ">
<polygon fill="#e0e0e0" stroke="#999999" points="403.5,-20 358.25,-20 358.25,0 403.5,0 403.5,-20"/>
<text text-anchor="middle" x="380.88" y="-6.5" font-family="Helvetica,sans-Serif" font-size="10.00">variant</text>
</a>
</g>
</g>
<!-- Node2&#45;&gt;Node6 -->
<g id="edge5_Node000002_Node000006" class="edge">
<title>Node2&#45;&gt;Node6</title>
<g id="a_edge5_Node000002_Node000006"><a xlink:title=" ">
<path fill="none" stroke="#63b8ff" d="M228.16,-61.62C260.31,-50.96 312.79,-33.57 347.08,-22.2"/>
<polygon fill="#63b8ff" stroke="#63b8ff" points="348.12,-25.54 356.51,-19.08 345.92,-18.9 348.12,-25.54"/>
</a>
</g>
</g>
<!-- Node7 -->
<g id="Node000007" class="node">
<title>Node7</title>
<g id="a_Node000007"><a xlink:title=" ">
<polygon fill="#e0e0e0" stroke="#999999" points="259.38,-20 216.38,-20 216.38,0 259.38,0 259.38,-20"/>
<text text-anchor="middle" x="237.88" y="-6.5" font-family="Helvetica,sans-Serif" font-size="10.00">vector</text>
</a>
</g>
</g>
<!-- Node2&#45;&gt;Node7 -->
<g id="edge6_Node000002_Node000007" class="edge">
<title>Node2&#45;&gt;Node7</title>
<g id="a_edge6_Node000002_Node000007"><a xlink:title=" ">
<path fill="none" stroke="#63b8ff" d="M205.81,-61.62C211.2,-53.12 219.3,-40.33 226.01,-29.74"/>
<polygon fill="#63b8ff" stroke="#63b8ff" points="228.9,-31.71 231.29,-21.39 222.99,-27.97 228.9,-31.71"/>
</a>
</g>
</g>
<!-- Node8&#45;&gt;Node2 -->
<g id="edge8_Node000008_Node000002" class="edge">
<title>Node8&#45;&gt;Node2</title>
<g id="a_edge8_Node000008_Node000002"><a xlink:title=" ">
<path fill="none" stroke="#63b8ff" d="M412.93,-180.93C372.33,-174.67 323.96,-163.58 283.88,-144 256.66,-130.7 230.92,-106.62 215.28,-90.23"/>
<polygon fill="#63b8ff" stroke="#63b8ff" points="218.07,-88.1 208.71,-83.14 212.94,-92.86 218.07,-88.1"/>
</a>
</g>
</g>
<!-- Node8&#45;&gt;Node4 -->
<g id="edge24_Node000008_Node000004" class="edge">
<title>Node8&#45;&gt;Node4</title>
<g id="a_edge24_Node000008_Node000004"><a xlink:title=" ">
<path fill="none" stroke="#63b8ff" d="M424.39,-179.55C325.86,-165.25 158.88,-134.71 120.88,-88 108.03,-72.22 104.72,-48.72 104.19,-31.84"/>
<polygon fill="#63b8ff" stroke="#63b8ff" points="107.69,-31.97 104.22,-21.96 100.69,-31.95 107.69,-31.97"/>
</a>
</g>
</g>
<!-- Node8&#45;&gt;Node5 -->
<g id="edge25_Node000008_Node000005" class="edge">
<title>Node8&#45;&gt;Node5</title>
<g id="a_edge25_Node000008_Node000005"><a xlink:title=" ">
<path fill="none" stroke="#63b8ff" d="M479.06,-179.56C448.8,-163.72 388.6,-129.41 347.88,-88 330.98,-70.83 316.61,-47.09 307.67,-30.53"/>
<polygon fill="#63b8ff" stroke="#63b8ff" points="310.81,-28.98 303.08,-21.72 304.6,-32.21 310.81,-28.98"/>
</a>
</g>
</g>
<!-- Node9 -->
<g id="Node000009" class="node">
<title>Node9</title>
<g id="a_Node000009"><a xlink:href="TfLiteUtils_8hpp.html" target="_top" xlink:title=" ">
<polygon fill="white" stroke="#666666" points="537.75,-144 458,-144 458,-124 537.75,-124 537.75,-144"/>
<text text-anchor="middle" x="497.88" y="-130.5" font-family="Helvetica,sans-Serif" font-size="10.00">TfLiteUtils.hpp</text>
</a>
</g>
</g>
<!-- Node8&#45;&gt;Node9 -->
<g id="edge9_Node000008_Node000009" class="edge">
<title>Node8&#45;&gt;Node9</title>
<g id="a_edge9_Node000008_Node000009"><a xlink:title=" ">
<path fill="none" stroke="#63b8ff" d="M497.88,-179.59C497.88,-173.01 497.88,-163.96 497.88,-155.73"/>
<polygon fill="#63b8ff" stroke="#63b8ff" points="501.38,-155.81 497.88,-145.81 494.38,-155.81 501.38,-155.81"/>
</a>
</g>
</g>
<!-- Node12 -->
<g id="Node000012" class="node">
<title>Node12</title>
<g id="a_Node000012"><a xlink:title=" ">
<polygon fill="#e0e0e0" stroke="#999999" points="810.88,-20 770.88,-20 770.88,0 810.88,0 810.88,-20"/>
<text text-anchor="middle" x="790.88" y="-6.5" font-family="Helvetica,sans-Serif" font-size="10.00">string</text>
</a>
</g>
</g>
<!-- Node8&#45;&gt;Node12 -->
<g id="edge26_Node000008_Node000012" class="edge">
<title>Node8&#45;&gt;Node12</title>
<g id="a_edge26_Node000008_Node000012"><a xlink:title=" ">
<path fill="none" stroke="#63b8ff" d="M582.69,-182.29C699.92,-171.05 902.14,-143.92 946.88,-88 983,-42.85 877.84,-22.17 822.52,-14.61"/>
<polygon fill="#63b8ff" stroke="#63b8ff" points="823.08,-11.15 812.72,-13.34 822.19,-18.09 823.08,-11.15"/>
</a>
</g>
</g>
<!-- Node15 -->
<g id="Node000015" class="node">
<title>Node15</title>
<g id="a_Node000015"><a xlink:title=" ">
<polygon fill="#e0e0e0" stroke="#999999" points="686.62,-82 621.12,-82 621.12,-62 686.62,-62 686.62,-82"/>
<text text-anchor="middle" x="653.88" y="-68.5" font-family="Helvetica,sans-Serif" font-size="10.00">string_view</text>
</a>
</g>
</g>
<!-- Node8&#45;&gt;Node15 -->
<g id="edge27_Node000008_Node000015" class="edge">
<title>Node8&#45;&gt;Node15</title>
<g id="a_edge27_Node000008_Node000015"><a xlink:title=" ">
<path fill="none" stroke="#63b8ff" d="M510.64,-179.51C537.4,-159.61 599.6,-113.36 632.53,-88.87"/>
<polygon fill="#63b8ff" stroke="#63b8ff" points="634.22,-91.98 640.15,-83.2 630.04,-86.36 634.22,-91.98"/>
</a>
</g>
</g>
<!-- Node16 -->
<g id="Node000016" class="node">
<title>Node16</title>
<g id="a_Node000016"><a xlink:title=" ">
<polygon fill="#e0e0e0" stroke="#999999" points="797.5,-88 704.25,-88 704.25,-56 797.5,-56 797.5,-88"/>
<text text-anchor="start" x="712.25" y="-74.5" font-family="Helvetica,sans-Serif" font-size="10.00">tensorflow/lite/c/c</text>
<text text-anchor="middle" x="750.88" y="-62.5" font-family="Helvetica,sans-Serif" font-size="10.00">_api.h</text>
</a>
</g>
</g>
<!-- Node8&#45;&gt;Node16 -->
<g id="edge22_Node000008_Node000016" class="edge">
<title>Node8&#45;&gt;Node16</title>
<g id="a_edge22_Node000008_Node000016"><a xlink:title=" ">
<path fill="none" stroke="#63b8ff" d="M518.58,-179.51C559.6,-160.7 651.99,-118.34 707.09,-93.07"/>
<polygon fill="#63b8ff" stroke="#63b8ff" points="708.25,-96.39 715.88,-89.04 705.33,-90.03 708.25,-96.39"/>
</a>
</g>
</g>
<!-- Node17 -->
<g id="Node000017" class="node">
<title>Node17</title>
<g id="a_Node000017"><a xlink:title=" ">
<polygon fill="#e0e0e0" stroke="#999999" points="937.75,-88 816,-88 816,-56 937.75,-56 937.75,-88"/>
<text text-anchor="start" x="824" y="-74.5" font-family="Helvetica,sans-Serif" font-size="10.00">tensorflow/lite/delegates</text>
<text text-anchor="middle" x="876.88" y="-62.5" font-family="Helvetica,sans-Serif" font-size="10.00">/gpu/delegate.h</text>
</a>
</g>
</g>
<!-- Node8&#45;&gt;Node17 -->
<g id="edge23_Node000008_Node000017" class="edge">
<title>Node8&#45;&gt;Node17</title>
<g id="a_edge23_Node000008_Node000017"><a xlink:title=" ">
<path fill="none" stroke="#63b8ff" d="M528.89,-179.51C591.43,-160.37 733.66,-116.83 815.61,-91.75"/>
<polygon fill="#63b8ff" stroke="#63b8ff" points="816.53,-95.13 825.07,-88.86 814.48,-88.44 816.53,-95.13"/>
</a>
</g>
</g>
<!-- Node9&#45;&gt;Node2 -->
<g id="edge10_Node000009_Node000002" class="edge">
<title>Node9&#45;&gt;Node2</title>
<g id="a_edge10_Node000009_Node000002"><a xlink:title=" ">
<path fill="none" stroke="#63b8ff" d="M457.69,-124.91C406.27,-114.56 316.84,-96.55 258,-84.7"/>
<polygon fill="#63b8ff" stroke="#63b8ff" points="259,-81.33 248.51,-82.79 257.62,-88.2 259,-81.33"/>
</a>
</g>
</g>
<!-- Node9&#45;&gt;Node4 -->
<g id="edge16_Node000009_Node000004" class="edge">
<title>Node9&#45;&gt;Node4</title>
<g id="a_edge16_Node000009_Node000004"><a xlink:title=" ">
<path fill="none" stroke="#63b8ff" d="M462.16,-123.53C431.92,-115.18 387.59,-102.16 349.88,-88 317.47,-75.83 311.53,-67.49 278.88,-56 253.81,-47.18 185.11,-30.19 141.91,-19.79"/>
<polygon fill="#63b8ff" stroke="#63b8ff" points="143,-16.45 132.46,-17.53 141.36,-23.26 143,-16.45"/>
</a>
</g>
</g>
<!-- Node9&#45;&gt;Node5 -->
<g id="edge18_Node000009_Node000005" class="edge">
<title>Node9&#45;&gt;Node5</title>
<g id="a_edge18_Node000009_Node000005"><a xlink:title=" ">
<path fill="none" stroke="#63b8ff" d="M470.11,-123.5C448.33,-115.49 417.67,-102.96 392.88,-88 377.38,-78.65 340.38,-47.59 317.4,-27.9"/>
<polygon fill="#63b8ff" stroke="#63b8ff" points="319.8,-25.35 309.94,-21.48 315.23,-30.65 319.8,-25.35"/>
</a>
</g>
</g>
<!-- Node10 -->
<g id="Node000010" class="node">
<title>Node10</title>
<g id="a_Node000010"><a xlink:href="Errors_8hpp.html" target="_top" xlink:title=" ">
<polygon fill="white" stroke="#666666" points="535.38,-82 402.38,-82 402.38,-62 535.38,-62 535.38,-82"/>
<text text-anchor="middle" x="468.88" y="-68.5" font-family="Helvetica,sans-Serif" font-size="10.00">EyeAICore/utils/Errors.hpp</text>
</a>
</g>
</g>
<!-- Node9&#45;&gt;Node10 -->
<g id="edge11_Node000009_Node000010" class="edge">
<title>Node9&#45;&gt;Node10</title>
<g id="a_edge11_Node000009_Node000010"><a xlink:title=" ">
<path fill="none" stroke="#63b8ff" d="M493.34,-123.62C489.32,-115.3 483.31,-102.86 478.25,-92.4"/>
<polygon fill="#63b8ff" stroke="#63b8ff" points="481.44,-90.96 473.94,-83.48 475.14,-94 481.44,-90.96"/>
</a>
</g>
</g>
<!-- Node14 -->
<g id="Node000014" class="node">
<title>Node14</title>
<g id="a_Node000014"><a xlink:title=" ">
<polygon fill="#e0e0e0" stroke="#999999" points="602.75,-82 553,-82 553,-62 602.75,-62 602.75,-82"/>
<text text-anchor="middle" x="577.88" y="-68.5" font-family="Helvetica,sans-Serif" font-size="10.00">optional</text>
</a>
</g>
</g>
<!-- Node9&#45;&gt;Node14 -->
<g id="edge17_Node000009_Node000014" class="edge">
<title>Node9&#45;&gt;Node14</title>
<g id="a_edge17_Node000009_Node000014"><a xlink:title=" ">
<path fill="none" stroke="#63b8ff" d="M510.38,-123.62C522.7,-114.38 541.79,-100.07 556.52,-89.01"/>
<polygon fill="#63b8ff" stroke="#63b8ff" points="558.35,-92.02 564.25,-83.22 554.15,-86.42 558.35,-92.02"/>
</a>
</g>
</g>
<!-- Node9&#45;&gt;Node15 -->
<g id="edge19_Node000009_Node000015" class="edge">
<title>Node9&#45;&gt;Node15</title>
<g id="a_edge19_Node000009_Node000015"><a xlink:title=" ">
<path fill="none" stroke="#63b8ff" d="M522.25,-123.62C548.16,-113.66 589.37,-97.81 618.78,-86.5"/>
<polygon fill="#63b8ff" stroke="#63b8ff" points="619.92,-89.81 628,-82.95 617.41,-83.27 619.92,-89.81"/>
</a>
</g>
</g>
<!-- Node9&#45;&gt;Node16 -->
<g id="edge20_Node000009_Node000016" class="edge">
<title>Node9&#45;&gt;Node16</title>
<g id="a_edge20_Node000009_Node000016"><a xlink:title=" ">
<path fill="none" stroke="#63b8ff" d="M538.19,-124.37C575.94,-116.17 634.17,-103.22 692.85,-88.71"/>
<polygon fill="#63b8ff" stroke="#63b8ff" points="693.48,-92.16 702.34,-86.35 691.79,-85.36 693.48,-92.16"/>
</a>
</g>
</g>
<!-- Node9&#45;&gt;Node17 -->
<g id="edge21_Node000009_Node000017" class="edge">
<title>Node9&#45;&gt;Node17</title>
<g id="a_edge21_Node000009_Node000017"><a xlink:title=" ">
<path fill="none" stroke="#63b8ff" d="M538.01,-128.02C595.01,-120.76 702.9,-106.33 804.73,-88.31"/>
<polygon fill="#63b8ff" stroke="#63b8ff" points="805.12,-91.8 814.35,-86.6 803.89,-84.91 805.12,-91.8"/>
</a>
</g>
</g>
<!-- Node10&#45;&gt;Node6 -->
<g id="edge15_Node000010_Node000006" class="edge">
<title>Node10&#45;&gt;Node6</title>
<g id="a_edge15_Node000010_Node000006"><a xlink:title=" ">
<path fill="none" stroke="#63b8ff" d="M455.12,-61.62C441.43,-52.29 420.17,-37.79 403.9,-26.7"/>
<polygon fill="#63b8ff" stroke="#63b8ff" points="406.01,-23.9 395.78,-21.16 402.07,-29.69 406.01,-23.9"/>
</a>
</g>
</g>
<!-- Node11 -->
<g id="Node000011" class="node">
<title>Node11</title>
<g id="a_Node000011"><a xlink:title=" ">
<polygon fill="#e0e0e0" stroke="#999999" points="477.75,-20 434,-20 434,0 477.75,0 477.75,-20"/>
<text text-anchor="middle" x="455.88" y="-6.5" font-family="Helvetica,sans-Serif" font-size="10.00">format</text>
</a>
</g>
</g>
<!-- Node10&#45;&gt;Node11 -->
<g id="edge12_Node000010_Node000011" class="edge">
<title>Node10&#45;&gt;Node11</title>
<g id="a_edge12_Node000010_Node000011"><a xlink:title=" ">
<path fill="none" stroke="#63b8ff" d="M466.84,-61.62C465.08,-53.48 462.46,-41.39 460.22,-31.07"/>
<polygon fill="#63b8ff" stroke="#63b8ff" points="463.71,-30.62 458.17,-21.59 456.87,-32.11 463.71,-30.62"/>
</a>
</g>
</g>
<!-- Node10&#45;&gt;Node12 -->
<g id="edge13_Node000010_Node000012" class="edge">
<title>Node10&#45;&gt;Node12</title>
<g id="a_edge13_Node000010_Node000012"><a xlink:title=" ">
<path fill="none" stroke="#63b8ff" d="M515.66,-61.51C525,-59.66 534.75,-57.74 543.88,-56 621.27,-41.21 712.52,-24.87 759.47,-16.54"/>
<polygon fill="#63b8ff" stroke="#63b8ff" points="759.96,-20.01 769.19,-14.82 758.73,-13.12 759.96,-20.01"/>
</a>
</g>
</g>
<!-- Node13 -->
<g id="Node000013" class="node">
<title>Node13</title>
<g id="a_Node000013"><a xlink:title=" ">
<polygon fill="#e0e0e0" stroke="#999999" points="578.25,-20 495.5,-20 495.5,0 578.25,0 578.25,-20"/>
<text text-anchor="middle" x="536.88" y="-6.5" font-family="Helvetica,sans-Serif" font-size="10.00">tl/expected.hpp</text>
</a>
</g>
</g>
<!-- Node10&#45;&gt;Node13 -->
<g id="edge14_Node000010_Node000013" class="edge">
<title>Node10&#45;&gt;Node13</title>
<g id="a_edge14_Node000010_Node000013"><a xlink:title=" ">
<path fill="none" stroke="#63b8ff" d="M479.5,-61.62C489.84,-52.5 505.77,-38.45 518.22,-27.46"/>
<polygon fill="#63b8ff" stroke="#63b8ff" points="520.23,-30.35 525.41,-21.11 515.6,-25.11 520.23,-30.35"/>
</a>
</g>
</g>
</g>
</svg>
