<?xml version="1.0" encoding="UTF-8" standalone="no"?>
<!DOCTYPE svg PUBLIC "-//W3C//DTD SVG 1.1//EN"
 "http://www.w3.org/Graphics/SVG/1.1/DTD/svg11.dtd">
<!-- Generated by graphviz version 2.43.0 (0)
 -->
<!-- Title: include/EyeAICore/utils/MutexGuard.hpp Pages: 1 -->
<svg width="137pt" height="95pt"
 viewBox="0.00 0.00 137.00 95.00" xmlns="http://www.w3.org/2000/svg" xmlns:xlink="http://www.w3.org/1999/xlink">
<g id="graph0" class="graph" transform="scale(1 1) rotate(0) translate(4 91)">
<title>include/EyeAICore/utils/MutexGuard.hpp</title>
<!-- Node1 -->
<g id="node1" class="node">
<title>Node1</title>
<g id="a_node1"><a xlink:title=" ">
<polygon fill="#bfbfbf" stroke="black" points="0,-56.5 0,-86.5 129,-86.5 129,-56.5 0,-56.5"/>
<text text-anchor="start" x="8" y="-74.5" font-family="Helvetica,sans-Serif" font-size="10.00">include/EyeAICore/utils</text>
<text text-anchor="middle" x="64.5" y="-63.5" font-family="Helvetica,sans-Serif" font-size="10.00">/MutexGuard.hpp</text>
</a>
</g>
</g>
<!-- Node2 -->
<g id="node2" class="node">
<title>Node2</title>
<g id="a_node2"><a xlink:title=" ">
<polygon fill="none" stroke="#bfbfbf" points="8.5,-0.5 8.5,-19.5 56.5,-19.5 56.5,-0.5 8.5,-0.5"/>
<text text-anchor="middle" x="32.5" y="-7.5" font-family="Helvetica,sans-Serif" font-size="10.00">mutex</text>
</a>
</g>
</g>
<!-- Node1&#45;&gt;Node2 -->
<g id="edge1" class="edge">
<title>Node1&#45;&gt;Node2</title>
<path fill="none" stroke="midnightblue" d="M56.92,-56.4C52.46,-48.11 46.78,-37.55 42.02,-28.71"/>
<polygon fill="midnightblue" stroke="midnightblue" points="44.98,-26.81 37.16,-19.66 38.81,-30.12 44.98,-26.81"/>
</g>
<!-- Node3 -->
<g id="node3" class="node">
<title>Node3</title>
<g id="a_node3"><a xlink:title=" ">
<polygon fill="none" stroke="#bfbfbf" points="75,-0.5 75,-19.5 120,-19.5 120,-0.5 75,-0.5"/>
<text text-anchor="middle" x="97.5" y="-7.5" font-family="Helvetica,sans-Serif" font-size="10.00">utility</text>
</a>
</g>
</g>
<!-- Node1&#45;&gt;Node3 -->
<g id="edge2" class="edge">
<title>Node1&#45;&gt;Node3</title>
<path fill="none" stroke="midnightblue" d="M72.32,-56.4C76.97,-48.02 82.9,-37.33 87.84,-28.42"/>
<polygon fill="midnightblue" stroke="midnightblue" points="90.91,-30.1 92.7,-19.66 84.79,-26.71 90.91,-30.1"/>
</g>
</g>
</svg>
