<?xml version="1.0" encoding="UTF-8" standalone="no"?>
<!DOCTYPE svg PUBLIC "-//W3C//DTD SVG 1.1//EN"
 "http://www.w3.org/Graphics/SVG/1.1/DTD/svg11.dtd">
<!-- Generated by graphviz version 12.2.1 (20241206.2353)
 -->
<!-- Title: include/EyeAICore/utils/MutexGuard.hpp Pages: 1 -->
<svg width="127pt" height="96pt"
 viewBox="0.00 0.00 126.75 96.00" xmlns="http://www.w3.org/2000/svg" xmlns:xlink="http://www.w3.org/1999/xlink">
<g id="graph0" class="graph" transform="scale(1 1) rotate(0) translate(4 92)">
<title>include/EyeAICore/utils/MutexGuard.hpp</title>
<!-- Node1 -->
<g id="Node000001" class="node">
<title>Node1</title>
<g id="a_Node000001"><a xlink:title=" ">
<polygon fill="#999999" stroke="#666666" points="118.75,-88 0,-88 0,-56 118.75,-56 118.75,-88"/>
<text text-anchor="start" x="8" y="-74.5" font-family="Helvetica,sans-Serif" font-size="10.00">include/EyeAICore/utils</text>
<text text-anchor="middle" x="59.38" y="-62.5" font-family="Helvetica,sans-Serif" font-size="10.00">/MutexGuard.hpp</text>
</a>
</g>
</g>
<!-- Node2 -->
<g id="Node000002" class="node">
<title>Node2</title>
<g id="a_Node000002"><a xlink:title=" ">
<polygon fill="#e0e0e0" stroke="#999999" points="51.88,-20 8.88,-20 8.88,0 51.88,0 51.88,-20"/>
<text text-anchor="middle" x="30.38" y="-6.5" font-family="Helvetica,sans-Serif" font-size="10.00">mutex</text>
</a>
</g>
</g>
<!-- Node1&#45;&gt;Node2 -->
<g id="edge1_Node000001_Node000002" class="edge">
<title>Node1&#45;&gt;Node2</title>
<g id="a_edge1_Node000001_Node000002"><a xlink:title=" ">
<path fill="none" stroke="#63b8ff" d="M51.91,-55.55C48.26,-48 43.82,-38.82 39.93,-30.77"/>
<polygon fill="#63b8ff" stroke="#63b8ff" points="43.08,-29.25 35.58,-21.77 36.78,-32.3 43.08,-29.25"/>
</a>
</g>
</g>
<!-- Node3 -->
<g id="Node000003" class="node">
<title>Node3</title>
<g id="a_Node000003"><a xlink:title=" ">
<polygon fill="#e0e0e0" stroke="#999999" points="109,-20 69.75,-20 69.75,0 109,0 109,-20"/>
<text text-anchor="middle" x="89.38" y="-6.5" font-family="Helvetica,sans-Serif" font-size="10.00">utility</text>
</a>
</g>
</g>
<!-- Node1&#45;&gt;Node3 -->
<g id="edge2_Node000001_Node000003" class="edge">
<title>Node1&#45;&gt;Node3</title>
<g id="a_edge2_Node000001_Node000003"><a xlink:title=" ">
<path fill="none" stroke="#63b8ff" d="M67.1,-55.55C70.92,-47.91 75.57,-38.61 79.63,-30.49"/>
<polygon fill="#63b8ff" stroke="#63b8ff" points="82.65,-32.27 83.99,-21.76 76.39,-29.14 82.65,-32.27"/>
</a>
</g>
</g>
</g>
</svg>
