<?xml version="1.0" encoding="UTF-8" standalone="no"?>
<!DOCTYPE svg PUBLIC "-//W3C//DTD SVG 1.1//EN"
 "http://www.w3.org/Graphics/SVG/1.1/DTD/svg11.dtd">
<!-- Generated by graphviz version 12.2.1 (20241206.2353)
 -->
<!-- Title: include/EyeAICore/utils/MutexGuard.hpp Pages: 1 -->
<svg width="137pt" height="98pt"
 viewBox="0.00 0.00 136.50 98.25" xmlns="http://www.w3.org/2000/svg" xmlns:xlink="http://www.w3.org/1999/xlink">
<g id="graph0" class="graph" transform="scale(1 1) rotate(0) translate(4 94.25)">
<title>include/EyeAICore/utils/MutexGuard.hpp</title>
<!-- Node1 -->
<g id="Node000001" class="node">
<title>Node1</title>
<g id="a_Node000001"><a xlink:title=" ">
<polygon fill="#999999" stroke="#666666" points="128.5,-90.25 0,-90.25 0,-56.75 128.5,-56.75 128.5,-90.25"/>
<text text-anchor="start" x="8" y="-76.75" font-family="Helvetica,sans-Serif" font-size="10.00">include/EyeAICore/utils</text>
<text text-anchor="middle" x="64.25" y="-64" font-family="Helvetica,sans-Serif" font-size="10.00">/MutexGuard.hpp</text>
</a>
</g>
</g>
<!-- Node2 -->
<g id="Node000002" class="node">
<title>Node2</title>
<g id="a_Node000002"><a xlink:title=" ">
<polygon fill="#e0e0e0" stroke="#999999" points="56,-20.75 8.5,-20.75 8.5,0 56,0 56,-20.75"/>
<text text-anchor="middle" x="32.25" y="-7.25" font-family="Helvetica,sans-Serif" font-size="10.00">mutex</text>
</a>
</g>
</g>
<!-- Node1&#45;&gt;Node2 -->
<g id="edge1_Node000001_Node000002" class="edge">
<title>Node1&#45;&gt;Node2</title>
<g id="a_edge1_Node000001_Node000002"><a xlink:title=" ">
<path fill="none" stroke="#63b8ff" d="M55.84,-56.44C51.82,-48.76 46.96,-39.48 42.7,-31.34"/>
<polygon fill="#63b8ff" stroke="#63b8ff" points="45.84,-29.79 38.1,-22.56 39.64,-33.04 45.84,-29.79"/>
</a>
</g>
</g>
<!-- Node3 -->
<g id="Node000003" class="node">
<title>Node3</title>
<g id="a_Node000003"><a xlink:title=" ">
<polygon fill="#e0e0e0" stroke="#999999" points="118.5,-20.75 74,-20.75 74,0 118.5,0 118.5,-20.75"/>
<text text-anchor="middle" x="96.25" y="-7.25" font-family="Helvetica,sans-Serif" font-size="10.00">utility</text>
</a>
</g>
</g>
<!-- Node1&#45;&gt;Node3 -->
<g id="edge2_Node000001_Node000003" class="edge">
<title>Node1&#45;&gt;Node3</title>
<g id="a_edge2_Node000001_Node000003"><a xlink:title=" ">
<path fill="none" stroke="#63b8ff" d="M72.66,-56.44C76.68,-48.76 81.54,-39.48 85.8,-31.34"/>
<polygon fill="#63b8ff" stroke="#63b8ff" points="88.86,-33.04 90.4,-22.56 82.66,-29.79 88.86,-33.04"/>
</a>
</g>
</g>
</g>
</svg>
