<?xml version="1.0" encoding="UTF-8" standalone="no"?>
<!DOCTYPE svg PUBLIC "-//W3C//DTD SVG 1.1//EN"
 "http://www.w3.org/Graphics/SVG/1.1/DTD/svg11.dtd">
<!-- Generated by graphviz version 12.2.1 (20241206.2353)
 -->
<!-- Title: include/EyeAICore/ObjectTracker.hpp Pages: 1 -->
<svg width="932pt" height="338pt"
 viewBox="0.00 0.00 931.73 338.00" xmlns="http://www.w3.org/2000/svg" xmlns:xlink="http://www.w3.org/1999/xlink">
<g id="graph0" class="graph" transform="scale(1 1) rotate(0) translate(4 334)">
<title>include/EyeAICore/ObjectTracker.hpp</title>
<!-- Node1 -->
<g id="Node000001" class="node">
<title>Node1</title>
<g id="a_Node000001"><a xlink:title=" ">
<polygon fill="#999999" stroke="#666666" points="366,-330 227,-330 227,-296.5 366,-296.5 366,-330"/>
<text text-anchor="start" x="235" y="-316.5" font-family="Helvetica,sans-Serif" font-size="10.00">include/EyeAICore/Object</text>
<text text-anchor="middle" x="296.5" y="-303.75" font-family="Helvetica,sans-Serif" font-size="10.00">Tracker.hpp</text>
</a>
</g>
</g>
<!-- Node2 -->
<g id="Node000002" class="node">
<title>Node2</title>
<g id="a_Node000002"><a xlink:title=" ">
<polygon fill="#e0e0e0" stroke="#999999" points="131.25,-260.5 23.75,-260.5 23.75,-239.75 131.25,-239.75 131.25,-260.5"/>
<text text-anchor="middle" x="77.5" y="-247" font-family="Helvetica,sans-Serif" font-size="10.00">ByteTrack/Object.h</text>
</a>
</g>
</g>
<!-- Node1&#45;&gt;Node2 -->
<g id="edge1_Node000001_Node000002" class="edge">
<title>Node1&#45;&gt;Node2</title>
<g id="a_edge1_Node000001_Node000002"><a xlink:title=" ">
<path fill="none" stroke="#63b8ff" d="M238.39,-296.03C202.41,-285.99 156.86,-273.28 123.42,-263.94"/>
<polygon fill="#63b8ff" stroke="#63b8ff" points="124.61,-260.64 114.03,-261.32 122.72,-267.38 124.61,-260.64"/>
</a>
</g>
</g>
<!-- Node3 -->
<g id="Node000003" class="node">
<title>Node3</title>
<g id="a_Node000003"><a xlink:href="YoloModel_8hpp.html" target="_top" xlink:title=" ">
<polygon fill="white" stroke="#666666" points="289.38,-260.5 149.62,-260.5 149.62,-239.75 289.38,-239.75 289.38,-260.5"/>
<text text-anchor="middle" x="219.5" y="-247" font-family="Helvetica,sans-Serif" font-size="10.00">EyeAICore/YoloModel.hpp</text>
</a>
</g>
</g>
<!-- Node1&#45;&gt;Node3 -->
<g id="edge2_Node000001_Node000003" class="edge">
<title>Node1&#45;&gt;Node3</title>
<g id="a_edge2_Node000001_Node000003"><a xlink:title=" ">
<path fill="none" stroke="#63b8ff" d="M276.27,-296.19C265.38,-287.55 251.95,-276.88 240.89,-268.1"/>
<polygon fill="#63b8ff" stroke="#63b8ff" points="243.09,-265.38 233.08,-261.91 238.74,-270.87 243.09,-265.38"/>
</a>
</g>
</g>
<!-- Node20 -->
<g id="Node000020" class="node">
<title>Node20</title>
<g id="a_Node000020"><a xlink:title=" ">
<polygon fill="#e0e0e0" stroke="#999999" points="441.38,-260.5 307.62,-260.5 307.62,-239.75 441.38,-239.75 441.38,-260.5"/>
<text text-anchor="middle" x="374.5" y="-247" font-family="Helvetica,sans-Serif" font-size="10.00">ByteTrack/BYTETracker.h</text>
</a>
</g>
</g>
<!-- Node1&#45;&gt;Node20 -->
<g id="edge30_Node000001_Node000020" class="edge">
<title>Node1&#45;&gt;Node20</title>
<g id="a_edge30_Node000001_Node000020"><a xlink:title=" ">
<path fill="none" stroke="#63b8ff" d="M316.99,-296.19C328.14,-287.46 341.9,-276.67 353.17,-267.84"/>
<polygon fill="#63b8ff" stroke="#63b8ff" points="355.04,-270.82 360.75,-261.9 350.72,-265.31 355.04,-270.82"/>
</a>
</g>
</g>
<!-- Node21 -->
<g id="Node000021" class="node">
<title>Node21</title>
<g id="a_Node000021"><a xlink:title=" ">
<polygon fill="#e0e0e0" stroke="#999999" points="508,-260.5 459,-260.5 459,-239.75 508,-239.75 508,-260.5"/>
<text text-anchor="middle" x="483.5" y="-247" font-family="Helvetica,sans-Serif" font-size="10.00">chrono</text>
</a>
</g>
</g>
<!-- Node1&#45;&gt;Node21 -->
<g id="edge31_Node000001_Node000021" class="edge">
<title>Node1&#45;&gt;Node21</title>
<g id="a_edge31_Node000001_Node000021"><a xlink:title=" ">
<path fill="none" stroke="#63b8ff" d="M346.12,-296.03C378.12,-285.57 418.99,-272.21 447.8,-262.79"/>
<polygon fill="#63b8ff" stroke="#63b8ff" points="448.74,-266.17 457.15,-259.74 446.56,-259.52 448.74,-266.17"/>
</a>
</g>
</g>
<!-- Node4 -->
<g id="Node000004" class="node">
<title>Node4</title>
<g id="a_Node000004"><a xlink:href="TensorBuffer_8hpp.html" target="_top" xlink:title=" ">
<polygon fill="white" stroke="#666666" points="193.62,-83.88 43.38,-83.88 43.38,-63.12 193.62,-63.12 193.62,-83.88"/>
<text text-anchor="middle" x="118.5" y="-70.38" font-family="Helvetica,sans-Serif" font-size="10.00">EyeAICore/TensorBuffer.hpp</text>
</a>
</g>
</g>
<!-- Node3&#45;&gt;Node4 -->
<g id="edge3_Node000003_Node000004" class="edge">
<title>Node3&#45;&gt;Node4</title>
<g id="a_edge3_Node000003_Node000004"><a xlink:title=" ">
<path fill="none" stroke="#63b8ff" d="M213.93,-239.49C197.89,-211.77 151.42,-131.41 129.8,-94.04"/>
<polygon fill="#63b8ff" stroke="#63b8ff" points="132.98,-92.54 124.94,-85.63 126.92,-96.04 132.98,-92.54"/>
</a>
</g>
</g>
<!-- Node10 -->
<g id="Node000010" class="node">
<title>Node10</title>
<g id="a_Node000010"><a xlink:href="TfLiteRuntime_8hpp.html" target="_top" xlink:title=" ">
<polygon fill="white" stroke="#666666" points="520.88,-203.75 336.12,-203.75 336.12,-183 520.88,-183 520.88,-203.75"/>
<text text-anchor="middle" x="428.5" y="-190.25" font-family="Helvetica,sans-Serif" font-size="10.00">EyeAICore/tflite/TfLiteRuntime.hpp</text>
</a>
</g>
</g>
<!-- Node3&#45;&gt;Node10 -->
<g id="edge9_Node000003_Node000010" class="edge">
<title>Node3&#45;&gt;Node10</title>
<g id="a_edge9_Node000003_Node000010"><a xlink:title=" ">
<path fill="none" stroke="#63b8ff" d="M256.87,-239.34C291.38,-230.29 342.85,-216.81 380.42,-206.97"/>
<polygon fill="#63b8ff" stroke="#63b8ff" points="380.86,-210.47 389.64,-204.55 379.08,-203.7 380.86,-210.47"/>
</a>
</g>
</g>
<!-- Node5 -->
<g id="Node000005" class="node">
<title>Node5</title>
<g id="a_Node000005"><a xlink:title=" ">
<polygon fill="#e0e0e0" stroke="#999999" points="49,-20.75 0,-20.75 0,0 49,0 49,-20.75"/>
<text text-anchor="middle" x="24.5" y="-7.25" font-family="Helvetica,sans-Serif" font-size="10.00">cstdint</text>
</a>
</g>
</g>
<!-- Node4&#45;&gt;Node5 -->
<g id="edge4_Node000004_Node000005" class="edge">
<title>Node4&#45;&gt;Node5</title>
<g id="a_edge4_Node000004_Node000005"><a xlink:title=" ">
<path fill="none" stroke="#63b8ff" d="M103.4,-62.68C88.73,-53.14 66.23,-38.51 49,-27.31"/>
<polygon fill="#63b8ff" stroke="#63b8ff" points="51.13,-24.51 40.83,-22 47.31,-30.38 51.13,-24.51"/>
</a>
</g>
</g>
<!-- Node6 -->
<g id="Node000006" class="node">
<title>Node6</title>
<g id="a_Node000006"><a xlink:title=" ">
<polygon fill="#e0e0e0" stroke="#999999" points="124.12,-20.75 66.88,-20.75 66.88,0 124.12,0 124.12,-20.75"/>
<text text-anchor="middle" x="95.5" y="-7.25" font-family="Helvetica,sans-Serif" font-size="10.00">memory</text>
</a>
</g>
</g>
<!-- Node4&#45;&gt;Node6 -->
<g id="edge5_Node000004_Node000006" class="edge">
<title>Node4&#45;&gt;Node6</title>
<g id="a_edge5_Node000004_Node000006"><a xlink:title=" ">
<path fill="none" stroke="#63b8ff" d="M114.8,-62.68C111.67,-54.34 107.06,-42.11 103.14,-31.68"/>
<polygon fill="#63b8ff" stroke="#63b8ff" points="106.44,-30.51 99.64,-22.39 99.89,-32.98 106.44,-30.51"/>
</a>
</g>
</g>
<!-- Node7 -->
<g id="Node000007" class="node">
<title>Node7</title>
<g id="a_Node000007"><a xlink:title=" ">
<polygon fill="#e0e0e0" stroke="#999999" points="246.12,-20.75 206.88,-20.75 206.88,0 246.12,0 246.12,-20.75"/>
<text text-anchor="middle" x="226.5" y="-7.25" font-family="Helvetica,sans-Serif" font-size="10.00">span</text>
</a>
</g>
</g>
<!-- Node4&#45;&gt;Node7 -->
<g id="edge6_Node000004_Node000007" class="edge">
<title>Node4&#45;&gt;Node7</title>
<g id="a_edge6_Node000004_Node000007"><a xlink:title=" ">
<path fill="none" stroke="#63b8ff" d="M135.85,-62.68C152.94,-53.01 179.28,-38.1 199.18,-26.84"/>
<polygon fill="#63b8ff" stroke="#63b8ff" points="200.89,-29.89 207.87,-21.92 197.45,-23.8 200.89,-29.89"/>
</a>
</g>
</g>
<!-- Node8 -->
<g id="Node000008" class="node">
<title>Node8</title>
<g id="a_Node000008"><a xlink:title=" ">
<polygon fill="#e0e0e0" stroke="#999999" points="336.75,-20.75 286.25,-20.75 286.25,0 336.75,0 336.75,-20.75"/>
<text text-anchor="middle" x="311.5" y="-7.25" font-family="Helvetica,sans-Serif" font-size="10.00">variant</text>
</a>
</g>
</g>
<!-- Node4&#45;&gt;Node8 -->
<g id="edge7_Node000004_Node000008" class="edge">
<title>Node4&#45;&gt;Node8</title>
<g id="a_edge7_Node000004_Node000008"><a xlink:title=" ">
<path fill="none" stroke="#63b8ff" d="M149.51,-62.68C183.79,-51.82 238.95,-34.35 275.21,-22.87"/>
<polygon fill="#63b8ff" stroke="#63b8ff" points="275.9,-26.32 284.37,-19.97 273.78,-19.65 275.9,-26.32"/>
</a>
</g>
</g>
<!-- Node9 -->
<g id="Node000009" class="node">
<title>Node9</title>
<g id="a_Node000009"><a xlink:title=" ">
<polygon fill="#e0e0e0" stroke="#999999" points="188.88,-20.75 142.12,-20.75 142.12,0 188.88,0 188.88,-20.75"/>
<text text-anchor="middle" x="165.5" y="-7.25" font-family="Helvetica,sans-Serif" font-size="10.00">vector</text>
</a>
</g>
</g>
<!-- Node4&#45;&gt;Node9 -->
<g id="edge8_Node000004_Node000009" class="edge">
<title>Node4&#45;&gt;Node9</title>
<g id="a_edge8_Node000004_Node000009"><a xlink:title=" ">
<path fill="none" stroke="#63b8ff" d="M126.05,-62.68C132.81,-53.89 142.89,-40.78 151.17,-30.01"/>
<polygon fill="#63b8ff" stroke="#63b8ff" points="153.88,-32.23 157.2,-22.17 148.33,-27.96 153.88,-32.23"/>
</a>
</g>
</g>
<!-- Node10&#45;&gt;Node4 -->
<g id="edge10_Node000010_Node000004" class="edge">
<title>Node10&#45;&gt;Node4</title>
<g id="a_edge10_Node000010_Node000004"><a xlink:title=" ">
<path fill="none" stroke="#63b8ff" d="M335.82,-183.44C295.02,-176.99 247.4,-165.93 207.5,-147 178.98,-133.47 151.68,-108.93 135.01,-92.18"/>
<polygon fill="#63b8ff" stroke="#63b8ff" points="137.84,-90.07 128.37,-85.32 132.81,-94.94 137.84,-90.07"/>
</a>
</g>
</g>
<!-- Node10&#45;&gt;Node6 -->
<g id="edge26_Node000010_Node000006" class="edge">
<title>Node10&#45;&gt;Node6</title>
<g id="a_edge26_Node000010_Node000006"><a xlink:title=" ">
<path fill="none" stroke="#63b8ff" d="M336.74,-182.51C231.14,-168.92 67.92,-140.26 34.5,-90.25 26.23,-77.87 27.82,-70.05 34.5,-56.75 40.78,-44.25 52.31,-34.33 63.67,-26.99"/>
<polygon fill="#63b8ff" stroke="#63b8ff" points="65.34,-30.07 72.17,-21.97 61.78,-24.04 65.34,-30.07"/>
</a>
</g>
</g>
<!-- Node10&#45;&gt;Node7 -->
<g id="edge27_Node000010_Node000007" class="edge">
<title>Node10&#45;&gt;Node7</title>
<g id="a_edge27_Node000010_Node000007"><a xlink:title=" ">
<path fill="none" stroke="#63b8ff" d="M407.82,-182.6C375.94,-166.75 314.25,-132.88 273.5,-90.25 256.86,-72.84 243.48,-48.49 235.32,-31.47"/>
<polygon fill="#63b8ff" stroke="#63b8ff" points="238.51,-30.04 231.16,-22.41 232.15,-32.96 238.51,-30.04"/>
</a>
</g>
</g>
<!-- Node11 -->
<g id="Node000011" class="node">
<title>Node11</title>
<g id="a_Node000011"><a xlink:href="TfLiteUtils_8hpp.html" target="_top" xlink:title=" ">
<polygon fill="white" stroke="#666666" points="472.12,-147 384.88,-147 384.88,-126.25 472.12,-126.25 472.12,-147"/>
<text text-anchor="middle" x="428.5" y="-133.5" font-family="Helvetica,sans-Serif" font-size="10.00">TfLiteUtils.hpp</text>
</a>
</g>
</g>
<!-- Node10&#45;&gt;Node11 -->
<g id="edge11_Node000010_Node000011" class="edge">
<title>Node10&#45;&gt;Node11</title>
<g id="a_edge11_Node000010_Node000011"><a xlink:title=" ">
<path fill="none" stroke="#63b8ff" d="M428.5,-182.59C428.5,-175.97 428.5,-166.97 428.5,-158.77"/>
<polygon fill="#63b8ff" stroke="#63b8ff" points="432,-158.84 428.5,-148.84 425,-158.84 432,-158.84"/>
</a>
</g>
</g>
<!-- Node14 -->
<g id="Node000014" class="node">
<title>Node14</title>
<g id="a_Node000014"><a xlink:title=" ">
<polygon fill="#e0e0e0" stroke="#999999" points="773.38,-20.75 729.62,-20.75 729.62,0 773.38,0 773.38,-20.75"/>
<text text-anchor="middle" x="751.5" y="-7.25" font-family="Helvetica,sans-Serif" font-size="10.00">string</text>
</a>
</g>
</g>
<!-- Node10&#45;&gt;Node14 -->
<g id="edge28_Node000010_Node000014" class="edge">
<title>Node10&#45;&gt;Node14</title>
<g id="a_edge28_Node000010_Node000014"><a xlink:title=" ">
<path fill="none" stroke="#63b8ff" d="M521.21,-186.48C648.39,-176.25 866.79,-150.23 915.5,-90.25 953.6,-43.33 843.16,-22.49 784.91,-14.95"/>
<polygon fill="#63b8ff" stroke="#63b8ff" points="785.54,-11.5 775.19,-13.76 784.69,-18.45 785.54,-11.5"/>
</a>
</g>
</g>
<!-- Node17 -->
<g id="Node000017" class="node">
<title>Node17</title>
<g id="a_Node000017"><a xlink:title=" ">
<polygon fill="#e0e0e0" stroke="#999999" points="631.62,-83.88 559.38,-83.88 559.38,-63.12 631.62,-63.12 631.62,-83.88"/>
<text text-anchor="middle" x="595.5" y="-70.38" font-family="Helvetica,sans-Serif" font-size="10.00">string_view</text>
</a>
</g>
</g>
<!-- Node10&#45;&gt;Node17 -->
<g id="edge29_Node000010_Node000017" class="edge">
<title>Node10&#45;&gt;Node17</title>
<g id="a_edge29_Node000010_Node000017"><a xlink:title=" ">
<path fill="none" stroke="#63b8ff" d="M442.45,-182.53C471.26,-162.2 537.55,-115.41 572.68,-90.61"/>
<polygon fill="#63b8ff" stroke="#63b8ff" points="574.32,-93.74 580.47,-85.11 570.28,-88.02 574.32,-93.74"/>
</a>
</g>
</g>
<!-- Node18 -->
<g id="Node000018" class="node">
<title>Node18</title>
<g id="a_Node000018"><a xlink:title=" ">
<polygon fill="#e0e0e0" stroke="#999999" points="751.62,-90.25 649.38,-90.25 649.38,-56.75 751.62,-56.75 751.62,-90.25"/>
<text text-anchor="start" x="657.38" y="-76.75" font-family="Helvetica,sans-Serif" font-size="10.00">tensorflow/lite/c/c</text>
<text text-anchor="middle" x="700.5" y="-64" font-family="Helvetica,sans-Serif" font-size="10.00">_api.h</text>
</a>
</g>
</g>
<!-- Node10&#45;&gt;Node18 -->
<g id="edge24_Node000010_Node000018" class="edge">
<title>Node10&#45;&gt;Node18</title>
<g id="a_edge24_Node000010_Node000018"><a xlink:title=" ">
<path fill="none" stroke="#63b8ff" d="M451.22,-182.53C495.43,-163.37 593.83,-120.73 652.92,-95.12"/>
<polygon fill="#63b8ff" stroke="#63b8ff" points="653.95,-98.49 661.73,-91.3 651.16,-92.07 653.95,-98.49"/>
</a>
</g>
</g>
<!-- Node19 -->
<g id="Node000019" class="node">
<title>Node19</title>
<g id="a_Node000019"><a xlink:title=" ">
<polygon fill="#e0e0e0" stroke="#999999" points="906.88,-90.25 770.12,-90.25 770.12,-56.75 906.88,-56.75 906.88,-90.25"/>
<text text-anchor="start" x="778.12" y="-76.75" font-family="Helvetica,sans-Serif" font-size="10.00">tensorflow/lite/delegates</text>
<text text-anchor="middle" x="838.5" y="-64" font-family="Helvetica,sans-Serif" font-size="10.00">/gpu/delegate.h</text>
</a>
</g>
</g>
<!-- Node10&#45;&gt;Node19 -->
<g id="edge25_Node000010_Node000019" class="edge">
<title>Node10&#45;&gt;Node19</title>
<g id="a_edge25_Node000010_Node000019"><a xlink:title=" ">
<path fill="none" stroke="#63b8ff" d="M462.75,-182.53C530.49,-163.05 682.65,-119.31 771.16,-93.86"/>
<polygon fill="#63b8ff" stroke="#63b8ff" points="772.06,-97.24 780.7,-91.12 770.12,-90.52 772.06,-97.24"/>
</a>
</g>
</g>
<!-- Node11&#45;&gt;Node4 -->
<g id="edge12_Node000011_Node000004" class="edge">
<title>Node11&#45;&gt;Node4</title>
<g id="a_edge12_Node000011_Node000004"><a xlink:title=" ">
<path fill="none" stroke="#63b8ff" d="M384.41,-126.93C330.79,-116.36 239.96,-98.45 179.61,-86.55"/>
<polygon fill="#63b8ff" stroke="#63b8ff" points="180.31,-83.12 169.82,-84.62 178.95,-89.99 180.31,-83.12"/>
</a>
</g>
</g>
<!-- Node11&#45;&gt;Node6 -->
<g id="edge18_Node000011_Node000006" class="edge">
<title>Node11&#45;&gt;Node6</title>
<g id="a_edge18_Node000011_Node000006"><a xlink:title=" ">
<path fill="none" stroke="#63b8ff" d="M388.76,-125.82C357.11,-117.58 311.9,-104.83 273.5,-90.25 240.88,-77.87 234.35,-71.01 202.5,-56.75 178.35,-45.94 150.86,-34.29 129.8,-25.51"/>
<polygon fill="#63b8ff" stroke="#63b8ff" points="131.39,-22.38 120.81,-21.78 128.71,-28.85 131.39,-22.38"/>
</a>
</g>
</g>
<!-- Node11&#45;&gt;Node7 -->
<g id="edge20_Node000011_Node000007" class="edge">
<title>Node11&#45;&gt;Node7</title>
<g id="a_edge20_Node000011_Node000007"><a xlink:title=" ">
<path fill="none" stroke="#63b8ff" d="M396.25,-125.78C373.1,-117.96 341.68,-105.77 316.5,-90.25 301.42,-80.96 266.5,-49.05 244.86,-28.78"/>
<polygon fill="#63b8ff" stroke="#63b8ff" points="247.54,-26.5 237.86,-22.19 242.74,-31.59 247.54,-26.5"/>
</a>
</g>
</g>
<!-- Node12 -->
<g id="Node000012" class="node">
<title>Node12</title>
<g id="a_Node000012"><a xlink:href="Errors_8hpp.html" target="_top" xlink:title=" ">
<polygon fill="white" stroke="#666666" points="467.88,-83.88 325.12,-83.88 325.12,-63.12 467.88,-63.12 467.88,-83.88"/>
<text text-anchor="middle" x="396.5" y="-70.38" font-family="Helvetica,sans-Serif" font-size="10.00">EyeAICore/utils/Errors.hpp</text>
</a>
</g>
</g>
<!-- Node11&#45;&gt;Node12 -->
<g id="edge13_Node000011_Node000012" class="edge">
<title>Node11&#45;&gt;Node12</title>
<g id="a_edge13_Node000011_Node000012"><a xlink:title=" ">
<path fill="none" stroke="#63b8ff" d="M423.36,-125.8C418.9,-117.29 412.31,-104.7 406.78,-94.13"/>
<polygon fill="#63b8ff" stroke="#63b8ff" points="409.96,-92.67 402.23,-85.44 403.76,-95.92 409.96,-92.67"/>
</a>
</g>
</g>
<!-- Node16 -->
<g id="Node000016" class="node">
<title>Node16</title>
<g id="a_Node000016"><a xlink:title=" ">
<polygon fill="#e0e0e0" stroke="#999999" points="541.38,-83.88 485.62,-83.88 485.62,-63.12 541.38,-63.12 541.38,-83.88"/>
<text text-anchor="middle" x="513.5" y="-70.38" font-family="Helvetica,sans-Serif" font-size="10.00">optional</text>
</a>
</g>
</g>
<!-- Node11&#45;&gt;Node16 -->
<g id="edge19_Node000011_Node000016" class="edge">
<title>Node11&#45;&gt;Node16</title>
<g id="a_edge19_Node000011_Node000016"><a xlink:title=" ">
<path fill="none" stroke="#63b8ff" d="M442.16,-125.8C455.29,-116.36 475.39,-101.91 490.91,-90.75"/>
<polygon fill="#63b8ff" stroke="#63b8ff" points="492.57,-93.86 498.65,-85.18 488.49,-88.18 492.57,-93.86"/>
</a>
</g>
</g>
<!-- Node11&#45;&gt;Node17 -->
<g id="edge21_Node000011_Node000017" class="edge">
<title>Node11&#45;&gt;Node17</title>
<g id="a_edge21_Node000011_Node000017"><a xlink:title=" ">
<path fill="none" stroke="#63b8ff" d="M455.33,-125.8C483.21,-115.6 527.04,-99.56 558.26,-88.13"/>
<polygon fill="#63b8ff" stroke="#63b8ff" points="559.13,-91.54 567.31,-84.82 556.72,-84.97 559.13,-91.54"/>
</a>
</g>
</g>
<!-- Node11&#45;&gt;Node18 -->
<g id="edge22_Node000011_Node000018" class="edge">
<title>Node11&#45;&gt;Node18</title>
<g id="a_edge22_Node000011_Node000018"><a xlink:title=" ">
<path fill="none" stroke="#63b8ff" d="M472.48,-126.82C513.1,-118.56 575.37,-105.55 638.24,-90.73"/>
<polygon fill="#63b8ff" stroke="#63b8ff" points="638.76,-94.21 647.68,-88.49 637.14,-87.4 638.76,-94.21"/>
</a>
</g>
</g>
<!-- Node11&#45;&gt;Node19 -->
<g id="edge23_Node000011_Node000019" class="edge">
<title>Node11&#45;&gt;Node19</title>
<g id="a_edge23_Node000011_Node000019"><a xlink:title=" ">
<path fill="none" stroke="#63b8ff" d="M472.41,-130.52C533.96,-123.18 649.67,-108.65 758.46,-90.53"/>
<polygon fill="#63b8ff" stroke="#63b8ff" points="758.87,-94.01 768.15,-88.9 757.71,-87.11 758.87,-94.01"/>
</a>
</g>
</g>
<!-- Node12&#45;&gt;Node8 -->
<g id="edge17_Node000012_Node000008" class="edge">
<title>Node12&#45;&gt;Node8</title>
<g id="a_edge17_Node000012_Node000008"><a xlink:title=" ">
<path fill="none" stroke="#63b8ff" d="M382.84,-62.68C369.71,-53.23 349.61,-38.78 334.09,-27.62"/>
<polygon fill="#63b8ff" stroke="#63b8ff" points="336.51,-25.05 326.35,-22.06 332.43,-30.74 336.51,-25.05"/>
</a>
</g>
</g>
<!-- Node13 -->
<g id="Node000013" class="node">
<title>Node13</title>
<g id="a_Node000013"><a xlink:title=" ">
<polygon fill="#e0e0e0" stroke="#999999" points="415,-20.75 366,-20.75 366,0 415,0 415,-20.75"/>
<text text-anchor="middle" x="390.5" y="-7.25" font-family="Helvetica,sans-Serif" font-size="10.00">format</text>
</a>
</g>
</g>
<!-- Node12&#45;&gt;Node13 -->
<g id="edge14_Node000012_Node000013" class="edge">
<title>Node12&#45;&gt;Node13</title>
<g id="a_edge14_Node000012_Node000013"><a xlink:title=" ">
<path fill="none" stroke="#63b8ff" d="M395.54,-62.68C394.74,-54.52 393.57,-42.63 392.56,-32.35"/>
<polygon fill="#63b8ff" stroke="#63b8ff" points="396.05,-32.09 391.59,-22.48 389.08,-32.77 396.05,-32.09"/>
</a>
</g>
</g>
<!-- Node12&#45;&gt;Node14 -->
<g id="edge15_Node000012_Node000014" class="edge">
<title>Node12&#45;&gt;Node14</title>
<g id="a_edge15_Node000012_Node000014"><a xlink:title=" ">
<path fill="none" stroke="#63b8ff" d="M445.11,-62.68C455.46,-60.66 466.33,-58.59 476.5,-56.75 563.52,-41.01 666.45,-24.62 718.22,-16.53"/>
<polygon fill="#63b8ff" stroke="#63b8ff" points="718.52,-20.02 727.86,-15.02 717.44,-13.11 718.52,-20.02"/>
</a>
</g>
</g>
<!-- Node15 -->
<g id="Node000015" class="node">
<title>Node15</title>
<g id="a_Node000015"><a xlink:title=" ">
<polygon fill="#e0e0e0" stroke="#999999" points="524.38,-20.75 432.62,-20.75 432.62,0 524.38,0 524.38,-20.75"/>
<text text-anchor="middle" x="478.5" y="-7.25" font-family="Helvetica,sans-Serif" font-size="10.00">tl/expected.hpp</text>
</a>
</g>
</g>
<!-- Node12&#45;&gt;Node15 -->
<g id="edge16_Node000012_Node000015" class="edge">
<title>Node12&#45;&gt;Node15</title>
<g id="a_edge16_Node000012_Node000015"><a xlink:title=" ">
<path fill="none" stroke="#63b8ff" d="M409.67,-62.68C422.23,-53.32 441.37,-39.05 456.28,-27.94"/>
<polygon fill="#63b8ff" stroke="#63b8ff" points="458.22,-30.86 464.14,-22.08 454.04,-25.25 458.22,-30.86"/>
</a>
</g>
</g>
</g>
</svg>
