<?xml version="1.0" encoding="UTF-8" standalone="no"?>
<!DOCTYPE svg PUBLIC "-//W3C//DTD SVG 1.1//EN"
 "http://www.w3.org/Graphics/SVG/1.1/DTD/svg11.dtd">
<!-- Generated by graphviz version 12.2.1 (20241206.2353)
 -->
<!-- Title: include/EyeAICore/audio/ObjectAudioSourceData.hpp Pages: 1 -->
<svg width="354pt" height="237pt"
 viewBox="0.00 0.00 354.07 237.25" xmlns="http://www.w3.org/2000/svg" xmlns:xlink="http://www.w3.org/1999/xlink">
<g id="graph0" class="graph" transform="scale(1 1) rotate(0) translate(4 233.25)">
<title>include/EyeAICore/audio/ObjectAudioSourceData.hpp</title>
<!-- Node1 -->
<g id="Node000001" class="node">
<title>Node1</title>
<g id="a_Node000001"><a xlink:title=" ">
<polygon fill="#999999" stroke="#666666" points="336,-229.25 180.5,-229.25 180.5,-195.75 336,-195.75 336,-229.25"/>
<text text-anchor="start" x="188.5" y="-215.75" font-family="Helvetica,sans-Serif" font-size="10.00">include/EyeAICore/audio</text>
<text text-anchor="middle" x="258.25" y="-203" font-family="Helvetica,sans-Serif" font-size="10.00">/ObjectAudioSourceData.hpp</text>
</a>
</g>
</g>
<!-- Node2 -->
<g id="Node000002" class="node">
<title>Node2</title>
<g id="a_Node000002"><a xlink:href="AudioMain_8hpp.html" target="_top" xlink:title=" ">
<polygon fill="white" stroke="#666666" points="230.5,-159.75 96,-159.75 96,-126.25 230.5,-126.25 230.5,-159.75"/>
<text text-anchor="start" x="104" y="-146.25" font-family="Helvetica,sans-Serif" font-size="10.00">include/EyeAICore/audio</text>
<text text-anchor="middle" x="163.25" y="-133.5" font-family="Helvetica,sans-Serif" font-size="10.00">/AudioMain.hpp</text>
</a>
</g>
</g>
<!-- Node1&#45;&gt;Node2 -->
<g id="edge1_Node000001_Node000002" class="edge">
<title>Node1&#45;&gt;Node2</title>
<g id="a_edge1_Node000001_Node000002"><a xlink:title=" ">
<path fill="none" stroke="#63b8ff" d="M226.46,-188.91C213.18,-179.48 198.06,-168.73 185.93,-160.12"/>
<polygon fill="#63b8ff" stroke="#63b8ff" points="224.32,-191.69 234.5,-194.63 228.38,-185.98 224.32,-191.69"/>
</a>
</g>
</g>
<!-- Node4 -->
<g id="Node000004" class="node">
<title>Node4</title>
<g id="a_Node000004"><a xlink:href="SpatialAudio_8cpp.html" target="_top" xlink:title=" ">
<polygon fill="white" stroke="#666666" points="234.75,-20.75 89.75,-20.75 89.75,0 234.75,0 234.75,-20.75"/>
<text text-anchor="middle" x="162.25" y="-7.25" font-family="Helvetica,sans-Serif" font-size="10.00">src/audio/SpatialAudio.cpp</text>
</a>
</g>
</g>
<!-- Node1&#45;&gt;Node4 -->
<g id="edge7_Node000001_Node000004" class="edge">
<title>Node1&#45;&gt;Node4</title>
<g id="a_edge7_Node000001_Node000004"><a xlink:title=" ">
<path fill="none" stroke="#63b8ff" d="M285.52,-187.9C318.98,-156.08 367.53,-98.58 335.25,-56.75 322.54,-40.28 275.74,-28.62 234.01,-21.25"/>
<polygon fill="#63b8ff" stroke="#63b8ff" points="283.47,-185.03 278.5,-194.39 288.22,-190.17 283.47,-185.03"/>
</a>
</g>
</g>
<!-- Node5 -->
<g id="Node000005" class="node">
<title>Node5</title>
<g id="a_Node000005"><a xlink:href="AudioMain_8cpp.html" target="_top" xlink:title=" ">
<polygon fill="white" stroke="#666666" points="325.88,-83.88 190.62,-83.88 190.62,-63.12 325.88,-63.12 325.88,-83.88"/>
<text text-anchor="middle" x="258.25" y="-70.38" font-family="Helvetica,sans-Serif" font-size="10.00">src/audio/AudioMain.cpp</text>
</a>
</g>
</g>
<!-- Node1&#45;&gt;Node5 -->
<g id="edge6_Node000001_Node000005" class="edge">
<title>Node1&#45;&gt;Node5</title>
<g id="a_edge6_Node000001_Node000005"><a xlink:title=" ">
<path fill="none" stroke="#63b8ff" d="M258.25,-184.29C258.25,-153.45 258.25,-104.82 258.25,-84.23"/>
<polygon fill="#63b8ff" stroke="#63b8ff" points="254.75,-184 258.25,-194 261.75,-184 254.75,-184"/>
</a>
</g>
</g>
<!-- Node3 -->
<g id="Node000003" class="node">
<title>Node3</title>
<g id="a_Node000003"><a xlink:href="SpatialAudio_8hpp.html" target="_top" xlink:title=" ">
<polygon fill="white" stroke="#666666" points="134.5,-90.25 0,-90.25 0,-56.75 134.5,-56.75 134.5,-90.25"/>
<text text-anchor="start" x="8" y="-76.75" font-family="Helvetica,sans-Serif" font-size="10.00">include/EyeAICore/audio</text>
<text text-anchor="middle" x="67.25" y="-64" font-family="Helvetica,sans-Serif" font-size="10.00">/SpatialAudio.hpp</text>
</a>
</g>
</g>
<!-- Node2&#45;&gt;Node3 -->
<g id="edge2_Node000002_Node000003" class="edge">
<title>Node2&#45;&gt;Node3</title>
<g id="a_edge2_Node000002_Node000003"><a xlink:title=" ">
<path fill="none" stroke="#63b8ff" d="M131.13,-119.41C117.71,-109.98 102.42,-99.23 90.17,-90.62"/>
<polygon fill="#63b8ff" stroke="#63b8ff" points="129.07,-122.24 139.26,-125.13 133.09,-116.52 129.07,-122.24"/>
</a>
</g>
</g>
<!-- Node2&#45;&gt;Node4 -->
<g id="edge5_Node000002_Node000004" class="edge">
<title>Node2&#45;&gt;Node4</title>
<g id="a_edge5_Node000002_Node000004"><a xlink:title=" ">
<path fill="none" stroke="#63b8ff" d="M163.04,-114.53C162.82,-85.35 162.47,-40.76 162.33,-21.18"/>
<polygon fill="#63b8ff" stroke="#63b8ff" points="159.54,-114.5 163.12,-124.47 166.54,-114.44 159.54,-114.5"/>
</a>
</g>
</g>
<!-- Node2&#45;&gt;Node5 -->
<g id="edge4_Node000002_Node000005" class="edge">
<title>Node2&#45;&gt;Node5</title>
<g id="a_edge4_Node000002_Node000005"><a xlink:title=" ">
<path fill="none" stroke="#63b8ff" d="M194.74,-119.62C211.58,-107.66 231.45,-93.54 244.43,-84.32"/>
<polygon fill="#63b8ff" stroke="#63b8ff" points="193.12,-116.48 187,-125.13 197.18,-122.19 193.12,-116.48"/>
</a>
</g>
</g>
<!-- Node3&#45;&gt;Node4 -->
<g id="edge3_Node000003_Node000004" class="edge">
<title>Node3&#45;&gt;Node4</title>
<g id="a_edge3_Node000003_Node000004"><a xlink:title=" ">
<path fill="none" stroke="#63b8ff" d="M101.57,-50.42C117.12,-40.41 134.73,-29.08 146.95,-21.22"/>
<polygon fill="#63b8ff" stroke="#63b8ff" points="100,-47.27 93.48,-55.62 103.79,-53.15 100,-47.27"/>
</a>
</g>
</g>
</g>
</svg>
