<?xml version="1.0" encoding="UTF-8" standalone="no"?>
<!DOCTYPE svg PUBLIC "-//W3C//DTD SVG 1.1//EN"
 "http://www.w3.org/Graphics/SVG/1.1/DTD/svg11.dtd">
<!-- Generated by graphviz version 12.2.1 (20241206.2353)
 -->
<!-- Title: include/EyeAICore/audio/ObjectAudioSourceData.hpp Pages: 1 -->
<svg width="331pt" height="232pt"
 viewBox="0.00 0.00 331.48 232.00" xmlns="http://www.w3.org/2000/svg" xmlns:xlink="http://www.w3.org/1999/xlink">
<g id="graph0" class="graph" transform="scale(1 1) rotate(0) translate(4 228)">
<title>include/EyeAICore/audio/ObjectAudioSourceData.hpp</title>
<!-- Node1 -->
<g id="Node000001" class="node">
<title>Node1</title>
<g id="a_Node000001"><a xlink:title=" ">
<polygon fill="#999999" stroke="#666666" points="313.38,-224 170.62,-224 170.62,-192 313.38,-192 313.38,-224"/>
<text text-anchor="start" x="178.62" y="-210.5" font-family="Helvetica,sans-Serif" font-size="10.00">include/EyeAICore/audio</text>
<text text-anchor="middle" x="242" y="-198.5" font-family="Helvetica,sans-Serif" font-size="10.00">/ObjectAudioSourceData.hpp</text>
</a>
</g>
</g>
<!-- Node2 -->
<g id="Node000002" class="node">
<title>Node2</title>
<g id="a_Node000002"><a xlink:href="AudioMain_8hpp.html" target="_top" xlink:title=" ">
<polygon fill="white" stroke="#666666" points="214,-156 90,-156 90,-124 214,-124 214,-156"/>
<text text-anchor="start" x="98" y="-142.5" font-family="Helvetica,sans-Serif" font-size="10.00">include/EyeAICore/audio</text>
<text text-anchor="middle" x="152" y="-130.5" font-family="Helvetica,sans-Serif" font-size="10.00">/AudioMain.hpp</text>
</a>
</g>
</g>
<!-- Node1&#45;&gt;Node2 -->
<g id="edge1_Node000001_Node000002" class="edge">
<title>Node1&#45;&gt;Node2</title>
<g id="a_edge1_Node000001_Node000002"><a xlink:title=" ">
<path fill="none" stroke="#63b8ff" d="M212.2,-185.15C199.39,-175.75 184.72,-165 173.07,-156.45"/>
<polygon fill="#63b8ff" stroke="#63b8ff" points="209.77,-187.71 219.91,-190.8 213.91,-182.06 209.77,-187.71"/>
</a>
</g>
</g>
<!-- Node4 -->
<g id="Node000004" class="node">
<title>Node4</title>
<g id="a_Node000004"><a xlink:href="SpatialAudio_8cpp.html" target="_top" xlink:title=" ">
<polygon fill="white" stroke="#666666" points="218.12,-20 85.88,-20 85.88,0 218.12,0 218.12,-20"/>
<text text-anchor="middle" x="152" y="-6.5" font-family="Helvetica,sans-Serif" font-size="10.00">src/audio/SpatialAudio.cpp</text>
</a>
</g>
</g>
<!-- Node1&#45;&gt;Node4 -->
<g id="edge7_Node000001_Node000004" class="edge">
<title>Node1&#45;&gt;Node4</title>
<g id="a_edge7_Node000001_Node000004"><a xlink:title=" ">
<path fill="none" stroke="#63b8ff" d="M267.36,-184.01C298.58,-152.92 343.86,-96.67 313,-56 300.76,-39.87 254.06,-27.96 214.08,-20.46"/>
<polygon fill="#63b8ff" stroke="#63b8ff" points="265.24,-181.19 260.49,-190.66 270.11,-186.23 265.24,-181.19"/>
</a>
</g>
</g>
<!-- Node5 -->
<g id="Node000005" class="node">
<title>Node5</title>
<g id="a_Node000005"><a xlink:href="AudioMain_8cpp.html" target="_top" xlink:title=" ">
<polygon fill="white" stroke="#666666" points="303.62,-82 180.38,-82 180.38,-62 303.62,-62 303.62,-82"/>
<text text-anchor="middle" x="242" y="-68.5" font-family="Helvetica,sans-Serif" font-size="10.00">src/audio/AudioMain.cpp</text>
</a>
</g>
</g>
<!-- Node1&#45;&gt;Node5 -->
<g id="edge6_Node000001_Node000005" class="edge">
<title>Node1&#45;&gt;Node5</title>
<g id="a_edge6_Node000001_Node000005"><a xlink:title=" ">
<path fill="none" stroke="#63b8ff" d="M242,-180.21C242,-149.9 242,-102.16 242,-82.22"/>
<polygon fill="#63b8ff" stroke="#63b8ff" points="238.5,-180.11 242,-190.11 245.5,-180.11 238.5,-180.11"/>
</a>
</g>
</g>
<!-- Node3 -->
<g id="Node000003" class="node">
<title>Node3</title>
<g id="a_Node000003"><a xlink:href="SpatialAudio_8hpp.html" target="_top" xlink:title=" ">
<polygon fill="white" stroke="#666666" points="124,-88 0,-88 0,-56 124,-56 124,-88"/>
<text text-anchor="start" x="8" y="-74.5" font-family="Helvetica,sans-Serif" font-size="10.00">include/EyeAICore/audio</text>
<text text-anchor="middle" x="62" y="-62.5" font-family="Helvetica,sans-Serif" font-size="10.00">/SpatialAudio.hpp</text>
</a>
</g>
</g>
<!-- Node2&#45;&gt;Node3 -->
<g id="edge2_Node000002_Node000003" class="edge">
<title>Node2&#45;&gt;Node3</title>
<g id="a_edge2_Node000002_Node000003"><a xlink:title=" ">
<path fill="none" stroke="#63b8ff" d="M122.2,-117.15C109.39,-107.75 94.72,-97 83.07,-88.45"/>
<polygon fill="#63b8ff" stroke="#63b8ff" points="119.77,-119.71 129.91,-122.8 123.91,-114.06 119.77,-119.71"/>
</a>
</g>
</g>
<!-- Node2&#45;&gt;Node4 -->
<g id="edge5_Node000002_Node000004" class="edge">
<title>Node2&#45;&gt;Node4</title>
<g id="a_edge5_Node000002_Node000004"><a xlink:title=" ">
<path fill="none" stroke="#63b8ff" d="M152,-112.31C152,-83.57 152,-39.42 152,-20.33"/>
<polygon fill="#63b8ff" stroke="#63b8ff" points="148.5,-112.05 152,-122.05 155.5,-112.05 148.5,-112.05"/>
</a>
</g>
</g>
<!-- Node2&#45;&gt;Node5 -->
<g id="edge4_Node000002_Node000005" class="edge">
<title>Node2&#45;&gt;Node5</title>
<g id="a_edge4_Node000002_Node000005"><a xlink:title=" ">
<path fill="none" stroke="#63b8ff" d="M181.94,-117.04C198.04,-105.24 217.04,-91.3 229.3,-82.32"/>
<polygon fill="#63b8ff" stroke="#63b8ff" points="180.09,-114.06 174.09,-122.8 184.23,-119.71 180.09,-114.06"/>
</a>
</g>
</g>
<!-- Node3&#45;&gt;Node4 -->
<g id="edge3_Node000003_Node000004" class="edge">
<title>Node3&#45;&gt;Node4</title>
<g id="a_edge3_Node000003_Node000004"><a xlink:title=" ">
<path fill="none" stroke="#63b8ff" d="M94.6,-49.27C109.47,-39.35 126.31,-28.12 137.89,-20.41"/>
<polygon fill="#63b8ff" stroke="#63b8ff" points="92.82,-46.25 86.44,-54.71 96.7,-52.07 92.82,-46.25"/>
</a>
</g>
</g>
</g>
</svg>
