<?xml version="1.0" encoding="UTF-8" standalone="no"?>
<!DOCTYPE svg PUBLIC "-//W3C//DTD SVG 1.1//EN"
 "http://www.w3.org/Graphics/SVG/1.1/DTD/svg11.dtd">
<!-- Generated by graphviz version 12.2.1 (20241206.2353)
 -->
<!-- Title: src/ObjectTracker.cpp Pages: 1 -->
<svg width="990pt" height="382pt"
 viewBox="0.00 0.00 990.00 382.00" xmlns="http://www.w3.org/2000/svg" xmlns:xlink="http://www.w3.org/1999/xlink">
<g id="graph0" class="graph" transform="scale(1 1) rotate(0) translate(4 378)">
<title>src/ObjectTracker.cpp</title>
<!-- Node1 -->
<g id="Node000001" class="node">
<title>Node1</title>
<g id="a_Node000001"><a xlink:title=" ">
<polygon fill="#999999" stroke="#666666" points="603,-374 484.25,-374 484.25,-353.25 603,-353.25 603,-374"/>
<text text-anchor="middle" x="543.62" y="-360.5" font-family="Helvetica,sans-Serif" font-size="10.00">src/ObjectTracker.cpp</text>
</a>
</g>
</g>
<!-- Node2 -->
<g id="Node000002" class="node">
<title>Node2</title>
<g id="a_Node000002"><a xlink:title=" ">
<polygon fill="#e0e0e0" stroke="#999999" points="462.88,-317.25 418.38,-317.25 418.38,-296.5 462.88,-296.5 462.88,-317.25"/>
<text text-anchor="middle" x="440.62" y="-303.75" font-family="Helvetica,sans-Serif" font-size="10.00">utility</text>
</a>
</g>
</g>
<!-- Node1&#45;&gt;Node2 -->
<g id="edge1_Node000001_Node000002" class="edge">
<title>Node1&#45;&gt;Node2</title>
<g id="a_edge1_Node000001_Node000002"><a xlink:title=" ">
<path fill="none" stroke="#63b8ff" d="M525.21,-352.84C509.54,-344.51 486.78,-332.41 468.81,-322.86"/>
<polygon fill="#63b8ff" stroke="#63b8ff" points="470.69,-319.89 460.22,-318.29 467.4,-326.07 470.69,-319.89"/>
</a>
</g>
</g>
<!-- Node3 -->
<g id="Node000003" class="node">
<title>Node3</title>
<g id="a_Node000003"><a xlink:href="ObjectTracker_8hpp.html" target="_top" xlink:title=" ">
<polygon fill="white" stroke="#666666" points="674.38,-317.25 518.88,-317.25 518.88,-296.5 674.38,-296.5 674.38,-317.25"/>
<text text-anchor="middle" x="596.62" y="-303.75" font-family="Helvetica,sans-Serif" font-size="10.00">EyeAICore/ObjectTracker.hpp</text>
</a>
</g>
</g>
<!-- Node1&#45;&gt;Node3 -->
<g id="edge2_Node000001_Node000003" class="edge">
<title>Node1&#45;&gt;Node3</title>
<g id="a_edge2_Node000001_Node000003"><a xlink:title=" ">
<path fill="none" stroke="#63b8ff" d="M553.1,-352.84C560.41,-345.28 570.72,-334.64 579.47,-325.6"/>
<polygon fill="#63b8ff" stroke="#63b8ff" points="581.74,-328.29 586.18,-318.67 576.71,-323.42 581.74,-328.29"/>
</a>
</g>
</g>
<!-- Node5 -->
<g id="Node000005" class="node">
<title>Node5</title>
<g id="a_Node000005"><a xlink:href="YoloModel_8hpp.html" target="_top" xlink:title=" ">
<polygon fill="white" stroke="#666666" points="474.5,-260.5 334.75,-260.5 334.75,-239.75 474.5,-239.75 474.5,-260.5"/>
<text text-anchor="middle" x="404.62" y="-247" font-family="Helvetica,sans-Serif" font-size="10.00">EyeAICore/YoloModel.hpp</text>
</a>
</g>
</g>
<!-- Node1&#45;&gt;Node5 -->
<g id="edge34_Node000001_Node000005" class="edge">
<title>Node1&#45;&gt;Node5</title>
<g id="a_edge34_Node000001_Node000005"><a xlink:title=" ">
<path fill="none" stroke="#63b8ff" d="M534.25,-353.17C520.87,-339.89 495.32,-315.24 471.62,-296.5 458.41,-286.05 442.87,-275.43 430.09,-267.1"/>
<polygon fill="#63b8ff" stroke="#63b8ff" points="432.1,-264.23 421.79,-261.77 428.31,-270.12 432.1,-264.23"/>
</a>
</g>
</g>
<!-- Node24 -->
<g id="Node000024" class="node">
<title>Node24</title>
<g id="a_Node000024"><a xlink:href="Profiling_8hpp.html" target="_top" xlink:title=" ">
<polygon fill="white" stroke="#666666" points="897.62,-317.25 743.62,-317.25 743.62,-296.5 897.62,-296.5 897.62,-317.25"/>
<text text-anchor="middle" x="820.62" y="-303.75" font-family="Helvetica,sans-Serif" font-size="10.00">EyeAICore/utils/Profiling.hpp</text>
</a>
</g>
</g>
<!-- Node1&#45;&gt;Node24 -->
<g id="edge35_Node000001_Node000024" class="edge">
<title>Node1&#45;&gt;Node24</title>
<g id="a_edge35_Node000001_Node000024"><a xlink:title=" ">
<path fill="none" stroke="#63b8ff" d="M593.47,-352.77C640,-343.58 709.56,-329.83 759.44,-319.97"/>
<polygon fill="#63b8ff" stroke="#63b8ff" points="760.1,-323.41 769.23,-318.03 758.74,-316.54 760.1,-323.41"/>
</a>
</g>
</g>
<!-- Node4 -->
<g id="Node000004" class="node">
<title>Node4</title>
<g id="a_Node000004"><a xlink:title=" ">
<polygon fill="#e0e0e0" stroke="#999999" points="600.38,-260.5 492.88,-260.5 492.88,-239.75 600.38,-239.75 600.38,-260.5"/>
<text text-anchor="middle" x="546.62" y="-247" font-family="Helvetica,sans-Serif" font-size="10.00">ByteTrack/Object.h</text>
</a>
</g>
</g>
<!-- Node3&#45;&gt;Node4 -->
<g id="edge3_Node000003_Node000004" class="edge">
<title>Node3&#45;&gt;Node4</title>
<g id="a_edge3_Node000003_Node000004"><a xlink:title=" ">
<path fill="none" stroke="#63b8ff" d="M587.69,-296.09C580.86,-288.61 571.26,-278.11 563.07,-269.13"/>
<polygon fill="#63b8ff" stroke="#63b8ff" points="565.84,-266.97 556.51,-261.95 560.67,-271.69 565.84,-266.97"/>
</a>
</g>
</g>
<!-- Node3&#45;&gt;Node5 -->
<g id="edge4_Node000003_Node000005" class="edge">
<title>Node3&#45;&gt;Node5</title>
<g id="a_edge4_Node000003_Node000005"><a xlink:title=" ">
<path fill="none" stroke="#63b8ff" d="M562.3,-296.09C530.86,-287.12 484.12,-273.79 449.69,-263.98"/>
<polygon fill="#63b8ff" stroke="#63b8ff" points="451.01,-260.71 440.43,-261.34 449.09,-267.44 451.01,-260.71"/>
</a>
</g>
</g>
<!-- Node22 -->
<g id="Node000022" class="node">
<title>Node22</title>
<g id="a_Node000022"><a xlink:title=" ">
<polygon fill="#e0e0e0" stroke="#999999" points="752.5,-260.5 618.75,-260.5 618.75,-239.75 752.5,-239.75 752.5,-260.5"/>
<text text-anchor="middle" x="685.62" y="-247" font-family="Helvetica,sans-Serif" font-size="10.00">ByteTrack/BYTETracker.h</text>
</a>
</g>
</g>
<!-- Node3&#45;&gt;Node22 -->
<g id="edge32_Node000003_Node000022" class="edge">
<title>Node3&#45;&gt;Node22</title>
<g id="a_edge32_Node000003_Node000022"><a xlink:title=" ">
<path fill="none" stroke="#63b8ff" d="M612.54,-296.09C625.83,-287.91 645.01,-276.11 660.39,-266.65"/>
<polygon fill="#63b8ff" stroke="#63b8ff" points="661.88,-269.84 668.56,-261.62 658.21,-263.88 661.88,-269.84"/>
</a>
</g>
</g>
<!-- Node23 -->
<g id="Node000023" class="node">
<title>Node23</title>
<g id="a_Node000023"><a xlink:title=" ">
<polygon fill="#e0e0e0" stroke="#999999" points="819.12,-260.5 770.12,-260.5 770.12,-239.75 819.12,-239.75 819.12,-260.5"/>
<text text-anchor="middle" x="794.62" y="-247" font-family="Helvetica,sans-Serif" font-size="10.00">chrono</text>
</a>
</g>
</g>
<!-- Node3&#45;&gt;Node23 -->
<g id="edge33_Node000003_Node000023" class="edge">
<title>Node3&#45;&gt;Node23</title>
<g id="a_edge33_Node000003_Node000023"><a xlink:title=" ">
<path fill="none" stroke="#63b8ff" d="M632.7,-296.05C663.79,-287.56 710.17,-274.84 758.72,-261.3"/>
<polygon fill="#63b8ff" stroke="#63b8ff" points="759.62,-264.68 768.31,-258.62 757.73,-257.94 759.62,-264.68"/>
</a>
</g>
</g>
<!-- Node6 -->
<g id="Node000006" class="node">
<title>Node6</title>
<g id="a_Node000006"><a xlink:href="TensorBuffer_8hpp.html" target="_top" xlink:title=" ">
<polygon fill="white" stroke="#666666" points="206.75,-83.88 56.5,-83.88 56.5,-63.12 206.75,-63.12 206.75,-83.88"/>
<text text-anchor="middle" x="131.62" y="-70.38" font-family="Helvetica,sans-Serif" font-size="10.00">EyeAICore/TensorBuffer.hpp</text>
</a>
</g>
</g>
<!-- Node5&#45;&gt;Node6 -->
<g id="edge5_Node000005_Node000006" class="edge">
<title>Node5&#45;&gt;Node6</title>
<g id="a_edge5_Node000005_Node000006"><a xlink:title=" ">
<path fill="none" stroke="#63b8ff" d="M370.78,-239.33C324.89,-224.82 242.08,-194.14 184.62,-147 166.6,-132.22 151.56,-109.97 142.15,-94.03"/>
<polygon fill="#63b8ff" stroke="#63b8ff" points="145.29,-92.46 137.33,-85.48 139.2,-95.91 145.29,-92.46"/>
</a>
</g>
</g>
<!-- Node12 -->
<g id="Node000012" class="node">
<title>Node12</title>
<g id="a_Node000012"><a xlink:href="TfLiteRuntime_8hpp.html" target="_top" xlink:title=" ">
<polygon fill="white" stroke="#666666" points="517,-203.75 332.25,-203.75 332.25,-183 517,-183 517,-203.75"/>
<text text-anchor="middle" x="424.62" y="-190.25" font-family="Helvetica,sans-Serif" font-size="10.00">EyeAICore/tflite/TfLiteRuntime.hpp</text>
</a>
</g>
</g>
<!-- Node5&#45;&gt;Node12 -->
<g id="edge11_Node000005_Node000012" class="edge">
<title>Node5&#45;&gt;Node12</title>
<g id="a_edge11_Node000005_Node000012"><a xlink:title=" ">
<path fill="none" stroke="#63b8ff" d="M408.2,-239.34C410.7,-232.49 414.14,-223.09 417.22,-214.65"/>
<polygon fill="#63b8ff" stroke="#63b8ff" points="420.42,-216.09 420.56,-205.5 413.84,-213.69 420.42,-216.09"/>
</a>
</g>
</g>
<!-- Node7 -->
<g id="Node000007" class="node">
<title>Node7</title>
<g id="a_Node000007"><a xlink:title=" ">
<polygon fill="#e0e0e0" stroke="#999999" points="128.12,-20.75 79.12,-20.75 79.12,0 128.12,0 128.12,-20.75"/>
<text text-anchor="middle" x="103.62" y="-7.25" font-family="Helvetica,sans-Serif" font-size="10.00">cstdint</text>
</a>
</g>
</g>
<!-- Node6&#45;&gt;Node7 -->
<g id="edge6_Node000006_Node000007" class="edge">
<title>Node6&#45;&gt;Node7</title>
<g id="a_edge6_Node000006_Node000007"><a xlink:title=" ">
<path fill="none" stroke="#63b8ff" d="M127.13,-62.68C123.27,-54.25 117.58,-41.84 112.77,-31.34"/>
<polygon fill="#63b8ff" stroke="#63b8ff" points="116,-29.98 108.65,-22.35 109.63,-32.9 116,-29.98"/>
</a>
</g>
</g>
<!-- Node8 -->
<g id="Node000008" class="node">
<title>Node8</title>
<g id="a_Node000008"><a xlink:title=" ">
<polygon fill="#e0e0e0" stroke="#999999" points="57.25,-20.75 0,-20.75 0,0 57.25,0 57.25,-20.75"/>
<text text-anchor="middle" x="28.62" y="-7.25" font-family="Helvetica,sans-Serif" font-size="10.00">memory</text>
</a>
</g>
</g>
<!-- Node6&#45;&gt;Node8 -->
<g id="edge7_Node000006_Node000008" class="edge">
<title>Node6&#45;&gt;Node8</title>
<g id="a_edge7_Node000006_Node000008"><a xlink:title=" ">
<path fill="none" stroke="#63b8ff" d="M115.08,-62.68C98.86,-53.05 73.89,-38.23 54.94,-26.99"/>
<polygon fill="#63b8ff" stroke="#63b8ff" points="56.82,-24.04 46.43,-21.94 53.25,-30.06 56.82,-24.04"/>
</a>
</g>
</g>
<!-- Node9 -->
<g id="Node000009" class="node">
<title>Node9</title>
<g id="a_Node000009"><a xlink:title=" ">
<polygon fill="#e0e0e0" stroke="#999999" points="254.25,-20.75 215,-20.75 215,0 254.25,0 254.25,-20.75"/>
<text text-anchor="middle" x="234.62" y="-7.25" font-family="Helvetica,sans-Serif" font-size="10.00">span</text>
</a>
</g>
</g>
<!-- Node6&#45;&gt;Node9 -->
<g id="edge8_Node000006_Node000009" class="edge">
<title>Node6&#45;&gt;Node9</title>
<g id="a_edge8_Node000006_Node000009"><a xlink:title=" ">
<path fill="none" stroke="#63b8ff" d="M148.17,-62.68C164.39,-53.05 189.36,-38.23 208.31,-26.99"/>
<polygon fill="#63b8ff" stroke="#63b8ff" points="210,-30.06 216.82,-21.94 206.43,-24.04 210,-30.06"/>
</a>
</g>
</g>
<!-- Node10 -->
<g id="Node000010" class="node">
<title>Node10</title>
<g id="a_Node000010"><a xlink:title=" ">
<polygon fill="#e0e0e0" stroke="#999999" points="362.88,-20.75 312.38,-20.75 312.38,0 362.88,0 362.88,-20.75"/>
<text text-anchor="middle" x="337.62" y="-7.25" font-family="Helvetica,sans-Serif" font-size="10.00">variant</text>
</a>
</g>
</g>
<!-- Node6&#45;&gt;Node10 -->
<g id="edge9_Node000006_Node000010" class="edge">
<title>Node6&#45;&gt;Node10</title>
<g id="a_edge9_Node000006_Node000010"><a xlink:title=" ">
<path fill="none" stroke="#63b8ff" d="M164.72,-62.68C202.09,-51.59 262.7,-33.61 301.34,-22.14"/>
<polygon fill="#63b8ff" stroke="#63b8ff" points="302.05,-25.58 310.64,-19.38 300.06,-18.87 302.05,-25.58"/>
</a>
</g>
</g>
<!-- Node11 -->
<g id="Node000011" class="node">
<title>Node11</title>
<g id="a_Node000011"><a xlink:title=" ">
<polygon fill="#e0e0e0" stroke="#999999" points="193,-20.75 146.25,-20.75 146.25,0 193,0 193,-20.75"/>
<text text-anchor="middle" x="169.62" y="-7.25" font-family="Helvetica,sans-Serif" font-size="10.00">vector</text>
</a>
</g>
</g>
<!-- Node6&#45;&gt;Node11 -->
<g id="edge10_Node000006_Node000011" class="edge">
<title>Node6&#45;&gt;Node11</title>
<g id="a_edge10_Node000006_Node000011"><a xlink:title=" ">
<path fill="none" stroke="#63b8ff" d="M137.73,-62.68C143.08,-54.07 151.01,-41.31 157.63,-30.67"/>
<polygon fill="#63b8ff" stroke="#63b8ff" points="160.55,-32.6 162.86,-22.26 154.61,-28.9 160.55,-32.6"/>
</a>
</g>
</g>
<!-- Node12&#45;&gt;Node6 -->
<g id="edge12_Node000012_Node000006" class="edge">
<title>Node12&#45;&gt;Node6</title>
<g id="a_edge12_Node000012_Node000006"><a xlink:title=" ">
<path fill="none" stroke="#63b8ff" d="M339.81,-182.54C301.98,-175.91 257.68,-164.96 220.62,-147 192.22,-133.24 164.89,-108.75 148.19,-92.08"/>
<polygon fill="#63b8ff" stroke="#63b8ff" points="151.01,-89.97 141.52,-85.25 146,-94.86 151.01,-89.97"/>
</a>
</g>
</g>
<!-- Node12&#45;&gt;Node8 -->
<g id="edge28_Node000012_Node000008" class="edge">
<title>Node12&#45;&gt;Node8</title>
<g id="a_edge28_Node000012_Node000008"><a xlink:title=" ">
<path fill="none" stroke="#63b8ff" d="M333.27,-182.51C227.02,-168.86 61.66,-140.06 26.62,-90.25 14.83,-73.48 17.51,-49.36 21.77,-32.21"/>
<polygon fill="#63b8ff" stroke="#63b8ff" points="25.13,-33.2 24.55,-22.62 18.41,-31.25 25.13,-33.2"/>
</a>
</g>
</g>
<!-- Node12&#45;&gt;Node9 -->
<g id="edge29_Node000012_Node000009" class="edge">
<title>Node12&#45;&gt;Node9</title>
<g id="a_edge29_Node000012_Node000009"><a xlink:title=" ">
<path fill="none" stroke="#63b8ff" d="M394.21,-182.57C355.47,-168.47 289.29,-138.71 253.62,-90.25 241.13,-73.27 236.75,-49.18 235.27,-32.1"/>
<polygon fill="#63b8ff" stroke="#63b8ff" points="238.79,-32.4 234.72,-22.62 231.8,-32.81 238.79,-32.4"/>
</a>
</g>
</g>
<!-- Node13 -->
<g id="Node000013" class="node">
<title>Node13</title>
<g id="a_Node000013"><a xlink:href="TfLiteUtils_8hpp.html" target="_top" xlink:title=" ">
<polygon fill="white" stroke="#666666" points="468.25,-147 381,-147 381,-126.25 468.25,-126.25 468.25,-147"/>
<text text-anchor="middle" x="424.62" y="-133.5" font-family="Helvetica,sans-Serif" font-size="10.00">TfLiteUtils.hpp</text>
</a>
</g>
</g>
<!-- Node12&#45;&gt;Node13 -->
<g id="edge13_Node000012_Node000013" class="edge">
<title>Node12&#45;&gt;Node13</title>
<g id="a_edge13_Node000012_Node000013"><a xlink:title=" ">
<path fill="none" stroke="#63b8ff" d="M424.62,-182.59C424.62,-175.97 424.62,-166.97 424.62,-158.77"/>
<polygon fill="#63b8ff" stroke="#63b8ff" points="428.13,-158.84 424.63,-148.84 421.13,-158.84 428.13,-158.84"/>
</a>
</g>
</g>
<!-- Node16 -->
<g id="Node000016" class="node">
<title>Node16</title>
<g id="a_Node000016"><a xlink:title=" ">
<polygon fill="#e0e0e0" stroke="#999999" points="777.5,-20.75 733.75,-20.75 733.75,0 777.5,0 777.5,-20.75"/>
<text text-anchor="middle" x="755.62" y="-7.25" font-family="Helvetica,sans-Serif" font-size="10.00">string</text>
</a>
</g>
</g>
<!-- Node12&#45;&gt;Node16 -->
<g id="edge30_Node000012_Node000016" class="edge">
<title>Node12&#45;&gt;Node16</title>
<g id="a_edge30_Node000012_Node000016"><a xlink:title=" ">
<path fill="none" stroke="#63b8ff" d="M517.25,-185.73C640.12,-174.76 846.87,-148.03 892.62,-90.25 901.87,-78.58 901.34,-68.82 892.62,-56.75 869.17,-24.28 821.58,-14.67 789.15,-12.03"/>
<polygon fill="#63b8ff" stroke="#63b8ff" points="789.67,-8.55 779.47,-11.43 789.24,-15.54 789.67,-8.55"/>
</a>
</g>
</g>
<!-- Node19 -->
<g id="Node000019" class="node">
<title>Node19</title>
<g id="a_Node000019"><a xlink:title=" ">
<polygon fill="#e0e0e0" stroke="#999999" points="883.75,-83.88 811.5,-83.88 811.5,-63.12 883.75,-63.12 883.75,-83.88"/>
<text text-anchor="middle" x="847.62" y="-70.38" font-family="Helvetica,sans-Serif" font-size="10.00">string_view</text>
</a>
</g>
</g>
<!-- Node12&#45;&gt;Node19 -->
<g id="edge31_Node000012_Node000019" class="edge">
<title>Node12&#45;&gt;Node19</title>
<g id="a_edge31_Node000012_Node000019"><a xlink:title=" ">
<path fill="none" stroke="#63b8ff" d="M464.22,-182.56C533.16,-165.26 679.57,-127.63 801.62,-90.25 804.14,-89.48 806.73,-88.66 809.34,-87.82"/>
<polygon fill="#63b8ff" stroke="#63b8ff" points="810.16,-91.23 818.55,-84.77 807.96,-84.59 810.16,-91.23"/>
</a>
</g>
</g>
<!-- Node20 -->
<g id="Node000020" class="node">
<title>Node20</title>
<g id="a_Node000020"><a xlink:title=" ">
<polygon fill="#e0e0e0" stroke="#999999" points="637.75,-90.25 535.5,-90.25 535.5,-56.75 637.75,-56.75 637.75,-90.25"/>
<text text-anchor="start" x="543.5" y="-76.75" font-family="Helvetica,sans-Serif" font-size="10.00">tensorflow/lite/c/c</text>
<text text-anchor="middle" x="586.62" y="-64" font-family="Helvetica,sans-Serif" font-size="10.00">_api.h</text>
</a>
</g>
</g>
<!-- Node12&#45;&gt;Node20 -->
<g id="edge26_Node000012_Node000020" class="edge">
<title>Node12&#45;&gt;Node20</title>
<g id="a_edge26_Node000012_Node000020"><a xlink:title=" ">
<path fill="none" stroke="#63b8ff" d="M438.16,-182.53C463.78,-163.89 519.96,-123.01 555.4,-97.22"/>
<polygon fill="#63b8ff" stroke="#63b8ff" points="557.11,-100.3 563.14,-91.59 552.99,-94.64 557.11,-100.3"/>
</a>
</g>
</g>
<!-- Node21 -->
<g id="Node000021" class="node">
<title>Node21</title>
<g id="a_Node000021"><a xlink:title=" ">
<polygon fill="#e0e0e0" stroke="#999999" points="793,-90.25 656.25,-90.25 656.25,-56.75 793,-56.75 793,-90.25"/>
<text text-anchor="start" x="664.25" y="-76.75" font-family="Helvetica,sans-Serif" font-size="10.00">tensorflow/lite/delegates</text>
<text text-anchor="middle" x="724.62" y="-64" font-family="Helvetica,sans-Serif" font-size="10.00">/gpu/delegate.h</text>
</a>
</g>
</g>
<!-- Node12&#45;&gt;Node21 -->
<g id="edge27_Node000012_Node000021" class="edge">
<title>Node12&#45;&gt;Node21</title>
<g id="a_edge27_Node000012_Node000021"><a xlink:title=" ">
<path fill="none" stroke="#63b8ff" d="M449.69,-182.53C498.64,-163.29 607.87,-120.37 672.96,-94.8"/>
<polygon fill="#63b8ff" stroke="#63b8ff" points="673.96,-98.17 681.99,-91.25 671.4,-91.65 673.96,-98.17"/>
</a>
</g>
</g>
<!-- Node13&#45;&gt;Node6 -->
<g id="edge14_Node000013_Node000006" class="edge">
<title>Node13&#45;&gt;Node6</title>
<g id="a_edge14_Node000013_Node000006"><a xlink:title=" ">
<path fill="none" stroke="#63b8ff" d="M380.76,-126.47C329.98,-115.88 246.14,-98.39 189.91,-86.66"/>
<polygon fill="#63b8ff" stroke="#63b8ff" points="190.69,-83.25 180.19,-84.63 189.26,-90.1 190.69,-83.25"/>
</a>
</g>
</g>
<!-- Node13&#45;&gt;Node8 -->
<g id="edge20_Node000013_Node000008" class="edge">
<title>Node13&#45;&gt;Node8</title>
<g id="a_edge20_Node000013_Node000008"><a xlink:title=" ">
<path fill="none" stroke="#63b8ff" d="M380.84,-136.39C292.24,-137 96.02,-133.3 47.62,-90.25 31.54,-75.94 27.89,-50.61 27.56,-32.51"/>
<polygon fill="#63b8ff" stroke="#63b8ff" points="31.06,-32.69 27.73,-22.63 24.06,-32.57 31.06,-32.69"/>
</a>
</g>
</g>
<!-- Node13&#45;&gt;Node9 -->
<g id="edge22_Node000013_Node000009" class="edge">
<title>Node13&#45;&gt;Node9</title>
<g id="a_edge22_Node000013_Node000009"><a xlink:title=" ">
<path fill="none" stroke="#63b8ff" d="M411.3,-125.78C399.22,-116.75 380.98,-102.9 365.62,-90.25 348.25,-75.93 346.36,-69.24 327.62,-56.75 307.89,-43.58 283.76,-31.92 265.03,-23.72"/>
<polygon fill="#63b8ff" stroke="#63b8ff" points="266.66,-20.61 256.09,-19.9 263.91,-27.05 266.66,-20.61"/>
</a>
</g>
</g>
<!-- Node14 -->
<g id="Node000014" class="node">
<title>Node14</title>
<g id="a_Node000014"><a xlink:href="Errors_8hpp.html" target="_top" xlink:title=" ">
<polygon fill="white" stroke="#666666" points="517,-83.88 374.25,-83.88 374.25,-63.12 517,-63.12 517,-83.88"/>
<text text-anchor="middle" x="445.62" y="-70.38" font-family="Helvetica,sans-Serif" font-size="10.00">EyeAICore/utils/Errors.hpp</text>
</a>
</g>
</g>
<!-- Node13&#45;&gt;Node14 -->
<g id="edge15_Node000013_Node000014" class="edge">
<title>Node13&#45;&gt;Node14</title>
<g id="a_edge15_Node000013_Node000014"><a xlink:title=" ">
<path fill="none" stroke="#63b8ff" d="M428,-125.8C430.86,-117.47 435.07,-105.23 438.65,-94.8"/>
<polygon fill="#63b8ff" stroke="#63b8ff" points="441.9,-96.12 441.84,-85.53 435.28,-93.85 441.9,-96.12"/>
</a>
</g>
</g>
<!-- Node18 -->
<g id="Node000018" class="node">
<title>Node18</title>
<g id="a_Node000018"><a xlink:title=" ">
<polygon fill="#e0e0e0" stroke="#999999" points="318.5,-83.88 262.75,-83.88 262.75,-63.12 318.5,-63.12 318.5,-83.88"/>
<text text-anchor="middle" x="290.62" y="-70.38" font-family="Helvetica,sans-Serif" font-size="10.00">optional</text>
</a>
</g>
</g>
<!-- Node13&#45;&gt;Node18 -->
<g id="edge21_Node000013_Node000018" class="edge">
<title>Node13&#45;&gt;Node18</title>
<g id="a_edge21_Node000013_Node000018"><a xlink:title=" ">
<path fill="none" stroke="#63b8ff" d="M403.1,-125.8C381.31,-115.87 347.39,-100.39 322.49,-89.04"/>
<polygon fill="#63b8ff" stroke="#63b8ff" points="324.03,-85.89 313.48,-84.92 321.12,-92.26 324.03,-85.89"/>
</a>
</g>
</g>
<!-- Node13&#45;&gt;Node19 -->
<g id="edge23_Node000013_Node000019" class="edge">
<title>Node13&#45;&gt;Node19</title>
<g id="a_edge23_Node000013_Node000019"><a xlink:title=" ">
<path fill="none" stroke="#63b8ff" d="M468.68,-133.33C539.57,-128.97 683.06,-117.37 801.62,-90.25 804.79,-89.53 808.04,-88.67 811.28,-87.72"/>
<polygon fill="#63b8ff" stroke="#63b8ff" points="812.19,-91.11 820.67,-84.75 810.08,-84.43 812.19,-91.11"/>
</a>
</g>
</g>
<!-- Node13&#45;&gt;Node20 -->
<g id="edge24_Node000013_Node000020" class="edge">
<title>Node13&#45;&gt;Node20</title>
<g id="a_edge24_Node000013_Node000020"><a xlink:title=" ">
<path fill="none" stroke="#63b8ff" d="M450.65,-125.8C472.76,-117.46 505.22,-105.22 532.87,-94.78"/>
<polygon fill="#63b8ff" stroke="#63b8ff" points="534.06,-98.07 542.18,-91.27 531.59,-91.52 534.06,-98.07"/>
</a>
</g>
</g>
<!-- Node13&#45;&gt;Node21 -->
<g id="edge25_Node000013_Node000021" class="edge">
<title>Node13&#45;&gt;Node21</title>
<g id="a_edge25_Node000013_Node000021"><a xlink:title=" ">
<path fill="none" stroke="#63b8ff" d="M468.57,-126.67C514.72,-117.27 588.31,-102.27 644.77,-90.77"/>
<polygon fill="#63b8ff" stroke="#63b8ff" points="645.24,-94.25 654.34,-88.82 643.84,-87.39 645.24,-94.25"/>
</a>
</g>
</g>
<!-- Node14&#45;&gt;Node10 -->
<g id="edge19_Node000014_Node000010" class="edge">
<title>Node14&#45;&gt;Node10</title>
<g id="a_edge19_Node000014_Node000010"><a xlink:title=" ">
<path fill="none" stroke="#63b8ff" d="M428.27,-62.68C411.19,-53.01 384.84,-38.1 364.94,-26.84"/>
<polygon fill="#63b8ff" stroke="#63b8ff" points="366.68,-23.8 356.25,-21.92 363.23,-29.89 366.68,-23.8"/>
</a>
</g>
</g>
<!-- Node15 -->
<g id="Node000015" class="node">
<title>Node15</title>
<g id="a_Node000015"><a xlink:title=" ">
<polygon fill="#e0e0e0" stroke="#999999" points="450.12,-20.75 401.12,-20.75 401.12,0 450.12,0 450.12,-20.75"/>
<text text-anchor="middle" x="425.62" y="-7.25" font-family="Helvetica,sans-Serif" font-size="10.00">format</text>
</a>
</g>
</g>
<!-- Node14&#45;&gt;Node15 -->
<g id="edge16_Node000014_Node000015" class="edge">
<title>Node14&#45;&gt;Node15</title>
<g id="a_edge16_Node000014_Node000015"><a xlink:title=" ">
<path fill="none" stroke="#63b8ff" d="M442.41,-62.68C439.68,-54.34 435.68,-42.11 432.27,-31.68"/>
<polygon fill="#63b8ff" stroke="#63b8ff" points="435.67,-30.82 429.24,-22.41 429.02,-33 435.67,-30.82"/>
</a>
</g>
</g>
<!-- Node14&#45;&gt;Node16 -->
<g id="edge17_Node000014_Node000016" class="edge">
<title>Node14&#45;&gt;Node16</title>
<g id="a_edge17_Node000014_Node000016"><a xlink:title=" ">
<path fill="none" stroke="#63b8ff" d="M495.43,-62.68C559.21,-50.1 667.99,-28.66 722.47,-17.91"/>
<polygon fill="#63b8ff" stroke="#63b8ff" points="722.93,-21.39 732.06,-16.02 721.57,-14.52 722.93,-21.39"/>
</a>
</g>
</g>
<!-- Node17 -->
<g id="Node000017" class="node">
<title>Node17</title>
<g id="a_Node000017"><a xlink:title=" ">
<polygon fill="#e0e0e0" stroke="#999999" points="559.5,-20.75 467.75,-20.75 467.75,0 559.5,0 559.5,-20.75"/>
<text text-anchor="middle" x="513.62" y="-7.25" font-family="Helvetica,sans-Serif" font-size="10.00">tl/expected.hpp</text>
</a>
</g>
</g>
<!-- Node14&#45;&gt;Node17 -->
<g id="edge18_Node000014_Node000017" class="edge">
<title>Node14&#45;&gt;Node17</title>
<g id="a_edge18_Node000014_Node000017"><a xlink:title=" ">
<path fill="none" stroke="#63b8ff" d="M456.55,-62.68C466.82,-53.45 482.41,-39.43 494.71,-28.38"/>
<polygon fill="#63b8ff" stroke="#63b8ff" points="496.73,-31.27 501.83,-21.98 492.05,-26.06 496.73,-31.27"/>
</a>
</g>
</g>
<!-- Node24&#45;&gt;Node19 -->
<g id="edge38_Node000024_Node000019" class="edge">
<title>Node24&#45;&gt;Node19</title>
<g id="a_edge38_Node000024_Node000019"><a xlink:title=" ">
<path fill="none" stroke="#63b8ff" d="M822.55,-296.17C824.31,-287.01 826.91,-272.86 828.62,-260.5 836.91,-200.92 843.16,-130.13 845.97,-95.58"/>
<polygon fill="#63b8ff" stroke="#63b8ff" points="849.45,-95.97 846.76,-85.72 842.48,-95.41 849.45,-95.97"/>
</a>
</g>
</g>
<!-- Node24&#45;&gt;Node23 -->
<g id="edge36_Node000024_Node000023" class="edge">
<title>Node24&#45;&gt;Node23</title>
<g id="a_edge36_Node000024_Node000023"><a xlink:title=" ">
<path fill="none" stroke="#63b8ff" d="M815.98,-296.09C812.69,-289.16 808.16,-279.62 804.12,-271.11"/>
<polygon fill="#63b8ff" stroke="#63b8ff" points="807.33,-269.73 799.88,-262.2 801.01,-272.73 807.33,-269.73"/>
</a>
</g>
</g>
<!-- Node25 -->
<g id="Node000025" class="node">
<title>Node25</title>
<g id="a_Node000025"><a xlink:title=" ">
<polygon fill="#e0e0e0" stroke="#999999" points="982,-260.5 875.25,-260.5 875.25,-239.75 982,-239.75 982,-260.5"/>
<text text-anchor="middle" x="928.62" y="-247" font-family="Helvetica,sans-Serif" font-size="10.00">concurrentqueue.h</text>
</a>
</g>
</g>
<!-- Node24&#45;&gt;Node25 -->
<g id="edge37_Node000024_Node000025" class="edge">
<title>Node24&#45;&gt;Node25</title>
<g id="a_edge37_Node000024_Node000025"><a xlink:title=" ">
<path fill="none" stroke="#63b8ff" d="M839.93,-296.09C856.44,-287.72 880.46,-275.54 899.33,-265.97"/>
<polygon fill="#63b8ff" stroke="#63b8ff" points="900.8,-269.16 908.13,-261.51 897.63,-262.91 900.8,-269.16"/>
</a>
</g>
</g>
</g>
</svg>
