<?xml version="1.0" encoding="UTF-8" standalone="no"?>
<!DOCTYPE svg PUBLIC "-//W3C//DTD SVG 1.1//EN"
 "http://www.w3.org/Graphics/SVG/1.1/DTD/svg11.dtd">
<!-- Generated by graphviz version 12.2.1 (20241206.2353)
 -->
<!-- Title: src/ObjectTracker.cpp Pages: 1 -->
<svg width="964pt" height="376pt"
 viewBox="0.00 0.00 963.75 376.00" xmlns="http://www.w3.org/2000/svg" xmlns:xlink="http://www.w3.org/1999/xlink">
<g id="graph0" class="graph" transform="scale(1 1) rotate(0) translate(4 372)">
<title>src/ObjectTracker.cpp</title>
<!-- Node1 -->
<g id="Node000001" class="node">
<title>Node1</title>
<g id="a_Node000001"><a xlink:title=" ">
<polygon fill="#999999" stroke="#666666" points="529,-368 416.25,-368 416.25,-348 529,-348 529,-368"/>
<text text-anchor="middle" x="472.62" y="-354.5" font-family="Helvetica,sans-Serif" font-size="10.00">src/ObjectTracker.cpp</text>
</a>
</g>
</g>
<!-- Node2 -->
<g id="Node000002" class="node">
<title>Node2</title>
<g id="a_Node000002"><a xlink:href="ObjectTracker_8hpp.html" target="_top" xlink:title=" ">
<polygon fill="white" stroke="#666666" points="421.25,-312 274,-312 274,-292 421.25,-292 421.25,-312"/>
<text text-anchor="middle" x="347.62" y="-298.5" font-family="Helvetica,sans-Serif" font-size="10.00">EyeAICore/ObjectTracker.hpp</text>
</a>
</g>
</g>
<!-- Node1&#45;&gt;Node2 -->
<g id="edge1_Node000001_Node000002" class="edge">
<title>Node1&#45;&gt;Node2</title>
<g id="a_edge1_Node000001_Node000002"><a xlink:title=" ">
<path fill="none" stroke="#63b8ff" d="M450.85,-347.59C431.26,-339.13 402.2,-326.58 379.9,-316.94"/>
<polygon fill="#63b8ff" stroke="#63b8ff" points="381.53,-313.83 370.96,-313.08 378.75,-320.26 381.53,-313.83"/>
</a>
</g>
</g>
<!-- Node4 -->
<g id="Node000004" class="node">
<title>Node4</title>
<g id="a_Node000004"><a xlink:href="YoloModel_8hpp.html" target="_top" xlink:title=" ">
<polygon fill="white" stroke="#666666" points="538,-256 407.25,-256 407.25,-236 538,-236 538,-256"/>
<text text-anchor="middle" x="472.62" y="-242.5" font-family="Helvetica,sans-Serif" font-size="10.00">EyeAICore/YoloModel.hpp</text>
</a>
</g>
</g>
<!-- Node1&#45;&gt;Node4 -->
<g id="edge32_Node000001_Node000004" class="edge">
<title>Node1&#45;&gt;Node4</title>
<g id="a_edge32_Node000001_Node000004"><a xlink:title=" ">
<path fill="none" stroke="#63b8ff" d="M472.62,-347.62C472.62,-330.01 472.62,-291.59 472.62,-267.65"/>
<polygon fill="#63b8ff" stroke="#63b8ff" points="476.13,-267.87 472.63,-257.87 469.13,-267.87 476.13,-267.87"/>
</a>
</g>
</g>
<!-- Node22 -->
<g id="Node000022" class="node">
<title>Node22</title>
<g id="a_Node000022"><a xlink:href="Profiling_8hpp.html" target="_top" xlink:title=" ">
<polygon fill="white" stroke="#666666" points="863.62,-312 721.62,-312 721.62,-292 863.62,-292 863.62,-312"/>
<text text-anchor="middle" x="792.62" y="-298.5" font-family="Helvetica,sans-Serif" font-size="10.00">EyeAICore/utils/Profiling.hpp</text>
</a>
</g>
</g>
<!-- Node1&#45;&gt;Node22 -->
<g id="edge33_Node000001_Node000022" class="edge">
<title>Node1&#45;&gt;Node22</title>
<g id="a_edge33_Node000001_Node000022"><a xlink:title=" ">
<path fill="none" stroke="#63b8ff" d="M528.73,-347.53C583.51,-338.29 666.92,-324.21 725.27,-314.37"/>
<polygon fill="#63b8ff" stroke="#63b8ff" points="725.81,-317.82 735.09,-312.71 724.65,-310.92 725.81,-317.82"/>
</a>
</g>
</g>
<!-- Node3 -->
<g id="Node000003" class="node">
<title>Node3</title>
<g id="a_Node000003"><a xlink:title=" ">
<polygon fill="#e0e0e0" stroke="#999999" points="240,-256 139.25,-256 139.25,-236 240,-236 240,-256"/>
<text text-anchor="middle" x="189.62" y="-242.5" font-family="Helvetica,sans-Serif" font-size="10.00">ByteTrack/Object.h</text>
</a>
</g>
</g>
<!-- Node2&#45;&gt;Node3 -->
<g id="edge2_Node000002_Node000003" class="edge">
<title>Node2&#45;&gt;Node3</title>
<g id="a_edge2_Node000002_Node000003"><a xlink:title=" ">
<path fill="none" stroke="#63b8ff" d="M320.1,-291.59C294.66,-282.9 256.59,-269.89 228.13,-260.16"/>
<polygon fill="#63b8ff" stroke="#63b8ff" points="229.39,-256.89 218.79,-256.97 227.12,-263.52 229.39,-256.89"/>
</a>
</g>
</g>
<!-- Node2&#45;&gt;Node4 -->
<g id="edge3_Node000002_Node000004" class="edge">
<title>Node2&#45;&gt;Node4</title>
<g id="a_edge3_Node000002_Node000004"><a xlink:title=" ">
<path fill="none" stroke="#63b8ff" d="M369.4,-291.59C388.99,-283.13 418.05,-270.58 440.35,-260.94"/>
<polygon fill="#63b8ff" stroke="#63b8ff" points="441.5,-264.26 449.29,-257.08 438.72,-257.83 441.5,-264.26"/>
</a>
</g>
</g>
<!-- Node21 -->
<g id="Node000021" class="node">
<title>Node21</title>
<g id="a_Node000021"><a xlink:title=" ">
<polygon fill="#e0e0e0" stroke="#999999" points="389.38,-256 257.88,-256 257.88,-236 389.38,-236 389.38,-256"/>
<text text-anchor="middle" x="323.62" y="-242.5" font-family="Helvetica,sans-Serif" font-size="10.00">ByteTrack/BYTETracker.h</text>
</a>
</g>
</g>
<!-- Node2&#45;&gt;Node21 -->
<g id="edge31_Node000002_Node000021" class="edge">
<title>Node2&#45;&gt;Node21</title>
<g id="a_edge31_Node000002_Node000021"><a xlink:title=" ">
<path fill="none" stroke="#63b8ff" d="M343.44,-291.59C340.38,-284.7 336.11,-275.1 332.32,-266.57"/>
<polygon fill="#63b8ff" stroke="#63b8ff" points="335.63,-265.4 328.37,-257.68 329.24,-268.24 335.63,-265.4"/>
</a>
</g>
</g>
<!-- Node5 -->
<g id="Node000005" class="node">
<title>Node5</title>
<g id="a_Node000005"><a xlink:href="TensorBuffer_8hpp.html" target="_top" xlink:title=" ">
<polygon fill="white" stroke="#666666" points="193.88,-82 53.38,-82 53.38,-62 193.88,-62 193.88,-82"/>
<text text-anchor="middle" x="123.62" y="-68.5" font-family="Helvetica,sans-Serif" font-size="10.00">EyeAICore/TensorBuffer.hpp</text>
</a>
</g>
</g>
<!-- Node4&#45;&gt;Node5 -->
<g id="edge4_Node000004_Node000005" class="edge">
<title>Node4&#45;&gt;Node5</title>
<g id="a_edge4_Node000004_Node000005"><a xlink:title=" ">
<path fill="none" stroke="#63b8ff" d="M408.24,-235.54C343.42,-223.38 243.18,-197.16 172.62,-144 154.72,-130.51 141,-108.52 132.7,-92.59"/>
<polygon fill="#63b8ff" stroke="#63b8ff" points="135.84,-91.05 128.29,-83.62 129.56,-94.14 135.84,-91.05"/>
</a>
</g>
</g>
<!-- Node11 -->
<g id="Node000011" class="node">
<title>Node11</title>
<g id="a_Node000011"><a xlink:href="TfLiteRuntime_8hpp.html" target="_top" xlink:title=" ">
<polygon fill="white" stroke="#666666" points="557.12,-200 388.12,-200 388.12,-180 557.12,-180 557.12,-200"/>
<text text-anchor="middle" x="472.62" y="-186.5" font-family="Helvetica,sans-Serif" font-size="10.00">EyeAICore/tflite/TfLiteRuntime.hpp</text>
</a>
</g>
</g>
<!-- Node4&#45;&gt;Node11 -->
<g id="edge10_Node000004_Node000011" class="edge">
<title>Node4&#45;&gt;Node11</title>
<g id="a_edge10_Node000004_Node000011"><a xlink:title=" ">
<path fill="none" stroke="#63b8ff" d="M472.62,-235.59C472.62,-229.01 472.62,-219.96 472.62,-211.73"/>
<polygon fill="#63b8ff" stroke="#63b8ff" points="476.13,-211.81 472.63,-201.81 469.13,-211.81 476.13,-211.81"/>
</a>
</g>
</g>
<!-- Node6 -->
<g id="Node000006" class="node">
<title>Node6</title>
<g id="a_Node000006"><a xlink:title=" ">
<polygon fill="#e0e0e0" stroke="#999999" points="119.25,-20 74,-20 74,0 119.25,0 119.25,-20"/>
<text text-anchor="middle" x="96.62" y="-6.5" font-family="Helvetica,sans-Serif" font-size="10.00">cstdint</text>
</a>
</g>
</g>
<!-- Node5&#45;&gt;Node6 -->
<g id="edge5_Node000005_Node000006" class="edge">
<title>Node5&#45;&gt;Node6</title>
<g id="a_edge5_Node000005_Node000006"><a xlink:title=" ">
<path fill="none" stroke="#63b8ff" d="M119.41,-61.62C115.66,-53.3 110.06,-40.86 105.36,-30.4"/>
<polygon fill="#63b8ff" stroke="#63b8ff" points="108.64,-29.18 101.35,-21.49 102.26,-32.05 108.64,-29.18"/>
</a>
</g>
</g>
<!-- Node7 -->
<g id="Node000007" class="node">
<title>Node7</title>
<g id="a_Node000007"><a xlink:title=" ">
<polygon fill="#e0e0e0" stroke="#999999" points="51.25,-20 0,-20 0,0 51.25,0 51.25,-20"/>
<text text-anchor="middle" x="25.62" y="-6.5" font-family="Helvetica,sans-Serif" font-size="10.00">memory</text>
</a>
</g>
</g>
<!-- Node5&#45;&gt;Node7 -->
<g id="edge6_Node000005_Node000007" class="edge">
<title>Node5&#45;&gt;Node7</title>
<g id="a_edge6_Node000005_Node000007"><a xlink:title=" ">
<path fill="none" stroke="#63b8ff" d="M108.31,-61.62C92.85,-52.16 68.71,-37.38 50.5,-26.23"/>
<polygon fill="#63b8ff" stroke="#63b8ff" points="52.48,-23.34 42.12,-21.1 48.82,-29.31 52.48,-23.34"/>
</a>
</g>
</g>
<!-- Node8 -->
<g id="Node000008" class="node">
<title>Node8</title>
<g id="a_Node000008"><a xlink:title=" ">
<polygon fill="#e0e0e0" stroke="#999999" points="240.12,-20 203.12,-20 203.12,0 240.12,0 240.12,-20"/>
<text text-anchor="middle" x="221.62" y="-6.5" font-family="Helvetica,sans-Serif" font-size="10.00">span</text>
</a>
</g>
</g>
<!-- Node5&#45;&gt;Node8 -->
<g id="edge7_Node000005_Node000008" class="edge">
<title>Node5&#45;&gt;Node8</title>
<g id="a_edge7_Node000005_Node000008"><a xlink:title=" ">
<path fill="none" stroke="#63b8ff" d="M138.94,-61.62C154.4,-52.16 178.54,-37.38 196.75,-26.23"/>
<polygon fill="#63b8ff" stroke="#63b8ff" points="198.43,-29.31 205.13,-21.1 194.77,-23.34 198.43,-29.31"/>
</a>
</g>
</g>
<!-- Node9 -->
<g id="Node000009" class="node">
<title>Node9</title>
<g id="a_Node000009"><a xlink:title=" ">
<polygon fill="#e0e0e0" stroke="#999999" points="342.25,-20 297,-20 297,0 342.25,0 342.25,-20"/>
<text text-anchor="middle" x="319.62" y="-6.5" font-family="Helvetica,sans-Serif" font-size="10.00">variant</text>
</a>
</g>
</g>
<!-- Node5&#45;&gt;Node9 -->
<g id="edge8_Node000005_Node000009" class="edge">
<title>Node5&#45;&gt;Node9</title>
<g id="a_edge8_Node000005_Node000009"><a xlink:title=" ">
<path fill="none" stroke="#63b8ff" d="M154.25,-61.62C189.96,-50.69 248.81,-32.68 285.83,-21.35"/>
<polygon fill="#63b8ff" stroke="#63b8ff" points="286.58,-24.78 295.12,-18.5 284.53,-18.08 286.58,-24.78"/>
</a>
</g>
</g>
<!-- Node10 -->
<g id="Node000010" class="node">
<title>Node10</title>
<g id="a_Node000010"><a xlink:title=" ">
<polygon fill="#e0e0e0" stroke="#999999" points="180.12,-20 137.12,-20 137.12,0 180.12,0 180.12,-20"/>
<text text-anchor="middle" x="158.62" y="-6.5" font-family="Helvetica,sans-Serif" font-size="10.00">vector</text>
</a>
</g>
</g>
<!-- Node5&#45;&gt;Node10 -->
<g id="edge9_Node000005_Node000010" class="edge">
<title>Node5&#45;&gt;Node10</title>
<g id="a_edge9_Node000005_Node000010"><a xlink:title=" ">
<path fill="none" stroke="#63b8ff" d="M129.09,-61.62C134.05,-53.12 141.51,-40.33 147.69,-29.74"/>
<polygon fill="#63b8ff" stroke="#63b8ff" points="150.53,-31.82 152.55,-21.42 144.48,-28.29 150.53,-31.82"/>
</a>
</g>
</g>
<!-- Node11&#45;&gt;Node5 -->
<g id="edge11_Node000011_Node000005" class="edge">
<title>Node11&#45;&gt;Node5</title>
<g id="a_edge11_Node000011_Node000005"><a xlink:title=" ">
<path fill="none" stroke="#63b8ff" d="M387.77,-186.01C334.02,-181.4 264.23,-170.3 207.62,-144 180.3,-131.3 154.75,-107.29 139.17,-90.73"/>
<polygon fill="#63b8ff" stroke="#63b8ff" points="141.93,-88.56 132.6,-83.53 136.76,-93.28 141.93,-88.56"/>
</a>
</g>
</g>
<!-- Node11&#45;&gt;Node7 -->
<g id="edge27_Node000011_Node000007" class="edge">
<title>Node11&#45;&gt;Node7</title>
<g id="a_edge27_Node000011_Node000007"><a xlink:title=" ">
<path fill="none" stroke="#63b8ff" d="M387.73,-183.17C269.34,-172.96 64.51,-147.04 23.62,-88 12.11,-71.37 14.9,-47.5 19.11,-30.76"/>
<polygon fill="#63b8ff" stroke="#63b8ff" points="22.38,-32.07 21.82,-21.49 15.66,-30.11 22.38,-32.07"/>
</a>
</g>
</g>
<!-- Node11&#45;&gt;Node8 -->
<g id="edge28_Node000011_Node000008" class="edge">
<title>Node11&#45;&gt;Node8</title>
<g id="a_edge28_Node000011_Node000008"><a xlink:title=" ">
<path fill="none" stroke="#63b8ff" d="M417.6,-179.53C364.51,-167.49 285.75,-141.46 240.62,-88 227.39,-72.32 223.13,-48.81 221.87,-31.89"/>
<polygon fill="#63b8ff" stroke="#63b8ff" points="225.37,-31.84 221.46,-21.99 218.38,-32.13 225.37,-31.84"/>
</a>
</g>
</g>
<!-- Node12 -->
<g id="Node000012" class="node">
<title>Node12</title>
<g id="a_Node000012"><a xlink:href="TfLiteUtils_8hpp.html" target="_top" xlink:title=" ">
<polygon fill="white" stroke="#666666" points="462.5,-144 382.75,-144 382.75,-124 462.5,-124 462.5,-144"/>
<text text-anchor="middle" x="422.62" y="-130.5" font-family="Helvetica,sans-Serif" font-size="10.00">TfLiteUtils.hpp</text>
</a>
</g>
</g>
<!-- Node11&#45;&gt;Node12 -->
<g id="edge12_Node000011_Node000012" class="edge">
<title>Node11&#45;&gt;Node12</title>
<g id="a_edge12_Node000011_Node000012"><a xlink:title=" ">
<path fill="none" stroke="#63b8ff" d="M463.92,-179.59C457.03,-172.16 447.23,-161.58 438.91,-152.58"/>
<polygon fill="#63b8ff" stroke="#63b8ff" points="441.63,-150.37 432.26,-145.41 436.49,-155.12 441.63,-150.37"/>
</a>
</g>
</g>
<!-- Node15 -->
<g id="Node000015" class="node">
<title>Node15</title>
<g id="a_Node000015"><a xlink:title=" ">
<polygon fill="#e0e0e0" stroke="#999999" points="727.62,-20 687.62,-20 687.62,0 727.62,0 727.62,-20"/>
<text text-anchor="middle" x="707.62" y="-6.5" font-family="Helvetica,sans-Serif" font-size="10.00">string</text>
</a>
</g>
</g>
<!-- Node11&#45;&gt;Node15 -->
<g id="edge29_Node000011_Node000015" class="edge">
<title>Node11&#45;&gt;Node15</title>
<g id="a_edge29_Node000011_Node000015"><a xlink:title=" ">
<path fill="none" stroke="#63b8ff" d="M542.66,-179.55C637.47,-165.15 798.82,-134.4 833.62,-88 842.16,-76.62 841.82,-67.63 833.62,-56 812.36,-25.83 768.95,-15.77 739.08,-12.49"/>
<polygon fill="#63b8ff" stroke="#63b8ff" points="739.76,-9.04 729.49,-11.64 739.14,-16.01 739.76,-9.04"/>
</a>
</g>
</g>
<!-- Node18 -->
<g id="Node000018" class="node">
<title>Node18</title>
<g id="a_Node000018"><a xlink:title=" ">
<polygon fill="#e0e0e0" stroke="#999999" points="824.38,-82 758.88,-82 758.88,-62 824.38,-62 824.38,-82"/>
<text text-anchor="middle" x="791.62" y="-68.5" font-family="Helvetica,sans-Serif" font-size="10.00">string_view</text>
</a>
</g>
</g>
<!-- Node11&#45;&gt;Node18 -->
<g id="edge30_Node000011_Node000018" class="edge">
<title>Node11&#45;&gt;Node18</title>
<g id="a_edge30_Node000011_Node000018"><a xlink:title=" ">
<path fill="none" stroke="#63b8ff" d="M498.73,-179.51C555.42,-158.89 689.9,-109.99 755.03,-86.31"/>
<polygon fill="#63b8ff" stroke="#63b8ff" points="755.98,-89.69 764.18,-82.98 753.59,-83.11 755.98,-89.69"/>
</a>
</g>
</g>
<!-- Node19 -->
<g id="Node000019" class="node">
<title>Node19</title>
<g id="a_Node000019"><a xlink:title=" ">
<polygon fill="#e0e0e0" stroke="#999999" points="600.25,-88 507,-88 507,-56 600.25,-56 600.25,-88"/>
<text text-anchor="start" x="515" y="-74.5" font-family="Helvetica,sans-Serif" font-size="10.00">tensorflow/lite/c/c</text>
<text text-anchor="middle" x="553.62" y="-62.5" font-family="Helvetica,sans-Serif" font-size="10.00">_api.h</text>
</a>
</g>
</g>
<!-- Node11&#45;&gt;Node19 -->
<g id="edge25_Node000011_Node000019" class="edge">
<title>Node11&#45;&gt;Node19</title>
<g id="a_edge25_Node000011_Node000019"><a xlink:title=" ">
<path fill="none" stroke="#63b8ff" d="M479.25,-179.51C491.6,-161.83 518.46,-123.36 536.29,-97.82"/>
<polygon fill="#63b8ff" stroke="#63b8ff" points="539.14,-99.86 542,-89.65 533.4,-95.85 539.14,-99.86"/>
</a>
</g>
</g>
<!-- Node20 -->
<g id="Node000020" class="node">
<title>Node20</title>
<g id="a_Node000020"><a xlink:title=" ">
<polygon fill="#e0e0e0" stroke="#999999" points="740.5,-88 618.75,-88 618.75,-56 740.5,-56 740.5,-88"/>
<text text-anchor="start" x="626.75" y="-74.5" font-family="Helvetica,sans-Serif" font-size="10.00">tensorflow/lite/delegates</text>
<text text-anchor="middle" x="679.62" y="-62.5" font-family="Helvetica,sans-Serif" font-size="10.00">/gpu/delegate.h</text>
</a>
</g>
</g>
<!-- Node11&#45;&gt;Node20 -->
<g id="edge26_Node000011_Node000020" class="edge">
<title>Node11&#45;&gt;Node20</title>
<g id="a_edge26_Node000011_Node000020"><a xlink:title=" ">
<path fill="none" stroke="#63b8ff" d="M489.56,-179.51C522.71,-160.93 596.84,-119.39 642.1,-94.03"/>
<polygon fill="#63b8ff" stroke="#63b8ff" points="643.79,-97.1 650.8,-89.15 640.37,-90.99 643.79,-97.1"/>
</a>
</g>
</g>
<!-- Node12&#45;&gt;Node5 -->
<g id="edge13_Node000012_Node000005" class="edge">
<title>Node12&#45;&gt;Node5</title>
<g id="a_edge13_Node000012_Node000005"><a xlink:title=" ">
<path fill="none" stroke="#63b8ff" d="M382.3,-124.91C330.71,-114.56 240.98,-96.55 181.95,-84.7"/>
<polygon fill="#63b8ff" stroke="#63b8ff" points="182.91,-81.33 172.42,-82.79 181.53,-88.19 182.91,-81.33"/>
</a>
</g>
</g>
<!-- Node12&#45;&gt;Node7 -->
<g id="edge19_Node000012_Node000007" class="edge">
<title>Node12&#45;&gt;Node7</title>
<g id="a_edge19_Node000012_Node000007"><a xlink:title=" ">
<path fill="none" stroke="#63b8ff" d="M382.41,-133.77C295.49,-134.59 93.96,-131.6 44.62,-88 28.85,-74.06 25.14,-49.31 24.71,-31.63"/>
<polygon fill="#63b8ff" stroke="#63b8ff" points="28.21,-31.82 24.83,-21.77 21.21,-31.73 28.21,-31.82"/>
</a>
</g>
</g>
<!-- Node12&#45;&gt;Node8 -->
<g id="edge21_Node000012_Node000008" class="edge">
<title>Node12&#45;&gt;Node8</title>
<g id="a_edge21_Node000012_Node000008"><a xlink:title=" ">
<path fill="none" stroke="#63b8ff" d="M404.91,-123.6C389.17,-115 365.76,-101.58 346.62,-88 328.62,-75.22 326.99,-68.26 308.62,-56 290.12,-43.65 267.8,-32.17 250.41,-23.89"/>
<polygon fill="#63b8ff" stroke="#63b8ff" points="252.2,-20.87 241.66,-19.82 249.25,-27.21 252.2,-20.87"/>
</a>
</g>
</g>
<!-- Node13 -->
<g id="Node000013" class="node">
<title>Node13</title>
<g id="a_Node000013"><a xlink:href="Errors_8hpp.html" target="_top" xlink:title=" ">
<polygon fill="white" stroke="#666666" points="489.12,-82 356.12,-82 356.12,-62 489.12,-62 489.12,-82"/>
<text text-anchor="middle" x="422.62" y="-68.5" font-family="Helvetica,sans-Serif" font-size="10.00">EyeAICore/utils/Errors.hpp</text>
</a>
</g>
</g>
<!-- Node12&#45;&gt;Node13 -->
<g id="edge14_Node000012_Node000013" class="edge">
<title>Node12&#45;&gt;Node13</title>
<g id="a_edge14_Node000012_Node000013"><a xlink:title=" ">
<path fill="none" stroke="#63b8ff" d="M422.62,-123.62C422.62,-115.56 422.62,-103.65 422.62,-93.41"/>
<polygon fill="#63b8ff" stroke="#63b8ff" points="426.13,-93.63 422.63,-83.63 419.13,-93.63 426.13,-93.63"/>
</a>
</g>
</g>
<!-- Node17 -->
<g id="Node000017" class="node">
<title>Node17</title>
<g id="a_Node000017"><a xlink:title=" ">
<polygon fill="#e0e0e0" stroke="#999999" points="299.5,-82 249.75,-82 249.75,-62 299.5,-62 299.5,-82"/>
<text text-anchor="middle" x="274.62" y="-68.5" font-family="Helvetica,sans-Serif" font-size="10.00">optional</text>
</a>
</g>
</g>
<!-- Node12&#45;&gt;Node17 -->
<g id="edge20_Node000012_Node000017" class="edge">
<title>Node12&#45;&gt;Node17</title>
<g id="a_edge20_Node000012_Node000017"><a xlink:title=" ">
<path fill="none" stroke="#63b8ff" d="M399.5,-123.62C374.95,-113.67 335.93,-97.85 308.05,-86.55"/>
<polygon fill="#63b8ff" stroke="#63b8ff" points="309.57,-83.39 298.99,-82.88 306.94,-89.88 309.57,-83.39"/>
</a>
</g>
</g>
<!-- Node12&#45;&gt;Node18 -->
<g id="edge22_Node000012_Node000018" class="edge">
<title>Node12&#45;&gt;Node18</title>
<g id="a_edge22_Node000012_Node000018"><a xlink:title=" ">
<path fill="none" stroke="#63b8ff" d="M462.89,-130.15C525.11,-125.14 648.04,-112.85 749.62,-88 752.07,-87.4 754.57,-86.71 757.07,-85.97"/>
<polygon fill="#63b8ff" stroke="#63b8ff" points="758.04,-89.34 766.46,-82.9 755.87,-82.68 758.04,-89.34"/>
</a>
</g>
</g>
<!-- Node12&#45;&gt;Node19 -->
<g id="edge23_Node000012_Node000019" class="edge">
<title>Node12&#45;&gt;Node19</title>
<g id="a_edge23_Node000012_Node000019"><a xlink:title=" ">
<path fill="none" stroke="#63b8ff" d="M443.09,-123.62C460.8,-115.52 487.01,-103.51 509.47,-93.23"/>
<polygon fill="#63b8ff" stroke="#63b8ff" points="510.79,-96.47 518.43,-89.12 507.88,-90.1 510.79,-96.47"/>
</a>
</g>
</g>
<!-- Node12&#45;&gt;Node20 -->
<g id="edge24_Node000012_Node000020" class="edge">
<title>Node12&#45;&gt;Node20</title>
<g id="a_edge24_Node000012_Node000020"><a xlink:title=" ">
<path fill="none" stroke="#63b8ff" d="M462.78,-123.62C501.47,-114.59 560.86,-100.73 607.71,-89.79"/>
<polygon fill="#63b8ff" stroke="#63b8ff" points="608.3,-93.25 617.25,-87.56 606.71,-86.43 608.3,-93.25"/>
</a>
</g>
</g>
<!-- Node13&#45;&gt;Node9 -->
<g id="edge18_Node000013_Node000009" class="edge">
<title>Node13&#45;&gt;Node9</title>
<g id="a_edge18_Node000013_Node000009"><a xlink:title=" ">
<path fill="none" stroke="#63b8ff" d="M406.53,-61.62C390.2,-52.11 364.68,-37.24 345.5,-26.08"/>
<polygon fill="#63b8ff" stroke="#63b8ff" points="347.32,-23.08 336.91,-21.07 343.79,-29.13 347.32,-23.08"/>
</a>
</g>
</g>
<!-- Node14 -->
<g id="Node000014" class="node">
<title>Node14</title>
<g id="a_Node000014"><a xlink:title=" ">
<polygon fill="#e0e0e0" stroke="#999999" points="424.5,-20 380.75,-20 380.75,0 424.5,0 424.5,-20"/>
<text text-anchor="middle" x="402.62" y="-6.5" font-family="Helvetica,sans-Serif" font-size="10.00">format</text>
</a>
</g>
</g>
<!-- Node13&#45;&gt;Node14 -->
<g id="edge15_Node000013_Node000014" class="edge">
<title>Node13&#45;&gt;Node14</title>
<g id="a_edge15_Node000013_Node000014"><a xlink:title=" ">
<path fill="none" stroke="#63b8ff" d="M419.5,-61.62C416.75,-53.39 412.67,-41.13 409.2,-30.74"/>
<polygon fill="#63b8ff" stroke="#63b8ff" points="412.62,-29.93 406.14,-21.55 405.98,-32.14 412.62,-29.93"/>
</a>
</g>
</g>
<!-- Node13&#45;&gt;Node15 -->
<g id="edge16_Node000013_Node000015" class="edge">
<title>Node13&#45;&gt;Node15</title>
<g id="a_edge16_Node000013_Node000015"><a xlink:title=" ">
<path fill="none" stroke="#63b8ff" d="M467.47,-61.56C525.52,-49.34 625.23,-28.35 675.97,-17.66"/>
<polygon fill="#63b8ff" stroke="#63b8ff" points="676.63,-21.1 685.7,-15.62 675.19,-14.25 676.63,-21.1"/>
</a>
</g>
</g>
<!-- Node16 -->
<g id="Node000016" class="node">
<title>Node16</title>
<g id="a_Node000016"><a xlink:title=" ">
<polygon fill="#e0e0e0" stroke="#999999" points="525,-20 442.25,-20 442.25,0 525,0 525,-20"/>
<text text-anchor="middle" x="483.62" y="-6.5" font-family="Helvetica,sans-Serif" font-size="10.00">tl/expected.hpp</text>
</a>
</g>
</g>
<!-- Node13&#45;&gt;Node16 -->
<g id="edge17_Node000013_Node000016" class="edge">
<title>Node13&#45;&gt;Node16</title>
<g id="a_edge17_Node000013_Node000016"><a xlink:title=" ">
<path fill="none" stroke="#63b8ff" d="M432.16,-61.62C441.25,-52.68 455.17,-38.99 466.24,-28.1"/>
<polygon fill="#63b8ff" stroke="#63b8ff" points="468.61,-30.68 473.28,-21.17 463.7,-25.69 468.61,-30.68"/>
</a>
</g>
</g>
<!-- Node22&#45;&gt;Node18 -->
<g id="edge36_Node000022_Node000018" class="edge">
<title>Node22&#45;&gt;Node18</title>
<g id="a_edge36_Node000022_Node000018"><a xlink:title=" ">
<path fill="none" stroke="#63b8ff" d="M791.02,-291.73C789.54,-282.65 787.45,-268.43 786.62,-256 782.71,-196.95 787.13,-126.98 789.84,-93.22"/>
<polygon fill="#63b8ff" stroke="#63b8ff" points="793.29,-93.92 790.64,-83.66 786.32,-93.33 793.29,-93.92"/>
</a>
</g>
</g>
<!-- Node23 -->
<g id="Node000023" class="node">
<title>Node23</title>
<g id="a_Node000023"><a xlink:title=" ">
<polygon fill="#e0e0e0" stroke="#999999" points="841.25,-256 796,-256 796,-236 841.25,-236 841.25,-256"/>
<text text-anchor="middle" x="818.62" y="-242.5" font-family="Helvetica,sans-Serif" font-size="10.00">chrono</text>
</a>
</g>
</g>
<!-- Node22&#45;&gt;Node23 -->
<g id="edge34_Node000022_Node000023" class="edge">
<title>Node22&#45;&gt;Node23</title>
<g id="a_edge34_Node000022_Node000023"><a xlink:title=" ">
<path fill="none" stroke="#63b8ff" d="M797.15,-291.59C800.47,-284.7 805.09,-275.1 809.2,-266.57"/>
<polygon fill="#63b8ff" stroke="#63b8ff" points="812.31,-268.19 813.49,-257.66 806,-265.15 812.31,-268.19"/>
</a>
</g>
</g>
<!-- Node24 -->
<g id="Node000024" class="node">
<title>Node24</title>
<g id="a_Node000024"><a xlink:title=" ">
<polygon fill="#e0e0e0" stroke="#999999" points="955.75,-256 859.5,-256 859.5,-236 955.75,-236 955.75,-256"/>
<text text-anchor="middle" x="907.62" y="-242.5" font-family="Helvetica,sans-Serif" font-size="10.00">concurrentqueue.h</text>
</a>
</g>
</g>
<!-- Node22&#45;&gt;Node24 -->
<g id="edge35_Node000022_Node000024" class="edge">
<title>Node22&#45;&gt;Node24</title>
<g id="a_edge35_Node000022_Node000024"><a xlink:title=" ">
<path fill="none" stroke="#63b8ff" d="M812.66,-291.59C830.44,-283.24 856.69,-270.92 877.09,-261.34"/>
<polygon fill="#63b8ff" stroke="#63b8ff" points="878.5,-264.54 886.07,-257.12 875.53,-258.21 878.5,-264.54"/>
</a>
</g>
</g>
</g>
</svg>
