<?xml version="1.0" encoding="UTF-8" standalone="no"?>
<!DOCTYPE svg PUBLIC "-//W3C//DTD SVG 1.1//EN"
 "http://www.w3.org/Graphics/SVG/1.1/DTD/svg11.dtd">
<!-- Generated by graphviz version 12.2.1 (20241206.2353)
 -->
<!-- Title: include/EyeAICore/ObjectTracker.hpp Pages: 1 -->
<svg width="267pt" height="164pt"
 viewBox="0.00 0.00 266.50 164.00" xmlns="http://www.w3.org/2000/svg" xmlns:xlink="http://www.w3.org/1999/xlink">
<g id="graph0" class="graph" transform="scale(1 1) rotate(0) translate(4 160)">
<title>include/EyeAICore/ObjectTracker.hpp</title>
<!-- Node1 -->
<g id="Node000001" class="node">
<title>Node1</title>
<g id="a_Node000001"><a xlink:title=" ">
<polygon fill="#999999" stroke="#666666" points="198.75,-156 69.5,-156 69.5,-124 198.75,-124 198.75,-156"/>
<text text-anchor="start" x="77.5" y="-142.5" font-family="Helvetica,sans-Serif" font-size="10.00">include/EyeAICore/Object</text>
<text text-anchor="middle" x="134.12" y="-130.5" font-family="Helvetica,sans-Serif" font-size="10.00">Tracker.hpp</text>
</a>
</g>
</g>
<!-- Node2 -->
<g id="Node000002" class="node">
<title>Node2</title>
<g id="a_Node000002"><a xlink:href="SpatialAudio_8hpp.html" target="_top" xlink:title=" ">
<polygon fill="white" stroke="#666666" points="128.12,-88 4.12,-88 4.12,-56 128.12,-56 128.12,-88"/>
<text text-anchor="start" x="12.12" y="-74.5" font-family="Helvetica,sans-Serif" font-size="10.00">include/EyeAICore/audio</text>
<text text-anchor="middle" x="66.12" y="-62.5" font-family="Helvetica,sans-Serif" font-size="10.00">/SpatialAudio.hpp</text>
</a>
</g>
</g>
<!-- Node1&#45;&gt;Node2 -->
<g id="edge1_Node000001_Node000002" class="edge">
<title>Node1&#45;&gt;Node2</title>
<g id="a_edge1_Node000001_Node000002"><a xlink:title=" ">
<path fill="none" stroke="#63b8ff" d="M110.13,-115.71C100.73,-106.59 90.21,-96.37 81.81,-88.22"/>
<polygon fill="#63b8ff" stroke="#63b8ff" points="107.65,-118.18 117.27,-122.64 112.53,-113.16 107.65,-118.18"/>
</a>
</g>
</g>
<!-- Node4 -->
<g id="Node000004" class="node">
<title>Node4</title>
<g id="a_Node000004"><a xlink:href="ObjectTracker_8cpp.html" target="_top" xlink:title=" ">
<polygon fill="white" stroke="#666666" points="258.5,-82 145.75,-82 145.75,-62 258.5,-62 258.5,-82"/>
<text text-anchor="middle" x="202.12" y="-68.5" font-family="Helvetica,sans-Serif" font-size="10.00">src/ObjectTracker.cpp</text>
</a>
</g>
</g>
<!-- Node1&#45;&gt;Node4 -->
<g id="edge3_Node000001_Node000004" class="edge">
<title>Node1&#45;&gt;Node4</title>
<g id="a_edge3_Node000001_Node000004"><a xlink:title=" ">
<path fill="none" stroke="#63b8ff" d="M158.12,-115.71C169.98,-104.2 183.62,-90.97 192.53,-82.32"/>
<polygon fill="#63b8ff" stroke="#63b8ff" points="155.72,-113.16 150.98,-122.64 160.6,-118.18 155.72,-113.16"/>
</a>
</g>
</g>
<!-- Node3 -->
<g id="Node000003" class="node">
<title>Node3</title>
<g id="a_Node000003"><a xlink:href="SpatialAudio_8cpp.html" target="_top" xlink:title=" ">
<polygon fill="white" stroke="#666666" points="132.25,-20 0,-20 0,0 132.25,0 132.25,-20"/>
<text text-anchor="middle" x="66.12" y="-6.5" font-family="Helvetica,sans-Serif" font-size="10.00">src/audio/SpatialAudio.cpp</text>
</a>
</g>
</g>
<!-- Node2&#45;&gt;Node3 -->
<g id="edge2_Node000002_Node000003" class="edge">
<title>Node2&#45;&gt;Node3</title>
<g id="a_edge2_Node000002_Node000003"><a xlink:title=" ">
<path fill="none" stroke="#63b8ff" d="M66.12,-44.08C66.12,-35.6 66.12,-26.8 66.12,-20.41"/>
<polygon fill="#63b8ff" stroke="#63b8ff" points="62.63,-44.03 66.13,-54.03 69.63,-44.03 62.63,-44.03"/>
</a>
</g>
</g>
</g>
</svg>
