<?xml version="1.0" encoding="UTF-8" standalone="no"?>
<!DOCTYPE svg PUBLIC "-//W3C//DTD SVG 1.1//EN"
 "http://www.w3.org/Graphics/SVG/1.1/DTD/svg11.dtd">
<!-- Generated by graphviz version 12.2.1 (20241206.2353)
 -->
<!-- Title: src/Operators.cpp Pages: 1 -->
<svg width="683pt" height="140pt"
 viewBox="0.00 0.00 682.62 140.00" xmlns="http://www.w3.org/2000/svg" xmlns:xlink="http://www.w3.org/1999/xlink">
<g id="graph0" class="graph" transform="scale(1 1) rotate(0) translate(4 136)">
<title>src/Operators.cpp</title>
<!-- Node1 -->
<g id="Node000001" class="node">
<title>Node1</title>
<g id="a_Node000001"><a xlink:title=" ">
<polygon fill="#999999" stroke="#666666" points="544.88,-132 450.88,-132 450.88,-112 544.88,-112 544.88,-132"/>
<text text-anchor="middle" x="497.88" y="-118.5" font-family="Helvetica,sans-Serif" font-size="10.00">src/Operators.cpp</text>
</a>
</g>
</g>
<!-- Node2 -->
<g id="Node000002" class="node">
<title>Node2</title>
<g id="a_Node000002"><a xlink:href="Operators_8hpp.html" target="_top" xlink:title=" ">
<polygon fill="white" stroke="#666666" points="309.12,-76 180.62,-76 180.62,-56 309.12,-56 309.12,-76"/>
<text text-anchor="middle" x="244.88" y="-62.5" font-family="Helvetica,sans-Serif" font-size="10.00">EyeAICore/Operators.hpp</text>
</a>
</g>
</g>
<!-- Node1&#45;&gt;Node2 -->
<g id="edge1_Node000001_Node000002" class="edge">
<title>Node1&#45;&gt;Node2</title>
<g id="a_edge1_Node000001_Node000002"><a xlink:title=" ">
<path fill="none" stroke="#63b8ff" d="M453.52,-111.53C410.84,-102.42 346.18,-88.62 300.16,-78.8"/>
<polygon fill="#63b8ff" stroke="#63b8ff" points="301.17,-75.44 290.66,-76.77 299.71,-82.28 301.17,-75.44"/>
</a>
</g>
</g>
<!-- Node10 -->
<g id="Node000010" class="node">
<title>Node10</title>
<g id="a_Node000010"><a xlink:href="Profiling_8hpp.html" target="_top" xlink:title=" ">
<polygon fill="white" stroke="#666666" points="568.88,-76 426.88,-76 426.88,-56 568.88,-56 568.88,-76"/>
<text text-anchor="middle" x="497.88" y="-62.5" font-family="Helvetica,sans-Serif" font-size="10.00">EyeAICore/utils/Profiling.hpp</text>
</a>
</g>
</g>
<!-- Node1&#45;&gt;Node10 -->
<g id="edge9_Node000001_Node000010" class="edge">
<title>Node1&#45;&gt;Node10</title>
<g id="a_edge9_Node000001_Node000010"><a xlink:title=" ">
<path fill="none" stroke="#63b8ff" d="M497.88,-111.59C497.88,-105.01 497.88,-95.96 497.88,-87.73"/>
<polygon fill="#63b8ff" stroke="#63b8ff" points="501.38,-87.81 497.88,-77.81 494.38,-87.81 501.38,-87.81"/>
</a>
</g>
</g>
<!-- Node14 -->
<g id="Node000014" class="node">
<title>Node14</title>
<g id="a_Node000014"><a xlink:title=" ">
<polygon fill="#e0e0e0" stroke="#999999" points="642.75,-76 587,-76 587,-56 642.75,-56 642.75,-76"/>
<text text-anchor="middle" x="614.88" y="-62.5" font-family="Helvetica,sans-Serif" font-size="10.00">algorithm</text>
</a>
</g>
</g>
<!-- Node1&#45;&gt;Node14 -->
<g id="edge13_Node000001_Node000014" class="edge">
<title>Node1&#45;&gt;Node14</title>
<g id="a_edge13_Node000001_Node000014"><a xlink:title=" ">
<path fill="none" stroke="#63b8ff" d="M518.25,-111.59C536.43,-103.21 563.3,-90.8 584.09,-81.21"/>
<polygon fill="#63b8ff" stroke="#63b8ff" points="585.35,-84.48 592.96,-77.11 582.42,-78.13 585.35,-84.48"/>
</a>
</g>
</g>
<!-- Node3 -->
<g id="Node000003" class="node">
<title>Node3</title>
<g id="a_Node000003"><a xlink:title=" ">
<polygon fill="#e0e0e0" stroke="#999999" points="37.75,-20 0,-20 0,0 37.75,0 37.75,-20"/>
<text text-anchor="middle" x="18.88" y="-6.5" font-family="Helvetica,sans-Serif" font-size="10.00">array</text>
</a>
</g>
</g>
<!-- Node2&#45;&gt;Node3 -->
<g id="edge2_Node000002_Node000003" class="edge">
<title>Node2&#45;&gt;Node3</title>
<g id="a_edge2_Node000002_Node000003"><a xlink:title=" ">
<path fill="none" stroke="#63b8ff" d="M197.78,-55.51C159.92,-47.61 105.17,-35.58 48.97,-20.39"/>
<polygon fill="#63b8ff" stroke="#63b8ff" points="50.12,-17.08 39.55,-17.82 48.27,-23.83 50.12,-17.08"/>
</a>
</g>
</g>
<!-- Node4 -->
<g id="Node000004" class="node">
<title>Node4</title>
<g id="a_Node000004"><a xlink:title=" ">
<polygon fill="#e0e0e0" stroke="#999999" points="101.5,-20 56.25,-20 56.25,0 101.5,0 101.5,-20"/>
<text text-anchor="middle" x="78.88" y="-6.5" font-family="Helvetica,sans-Serif" font-size="10.00">cstdint</text>
</a>
</g>
</g>
<!-- Node2&#45;&gt;Node4 -->
<g id="edge3_Node000002_Node000004" class="edge">
<title>Node2&#45;&gt;Node4</title>
<g id="a_edge3_Node000002_Node000004"><a xlink:title=" ">
<path fill="none" stroke="#63b8ff" d="M215.96,-55.59C187.21,-46.24 143.14,-31.9 112.76,-22.02"/>
<polygon fill="#63b8ff" stroke="#63b8ff" points="113.88,-18.71 103.29,-18.94 111.72,-25.36 113.88,-18.71"/>
</a>
</g>
</g>
<!-- Node5 -->
<g id="Node000005" class="node">
<title>Node5</title>
<g id="a_Node000005"><a xlink:title=" ">
<polygon fill="#e0e0e0" stroke="#999999" points="170.5,-20 119.25,-20 119.25,0 170.5,0 170.5,-20"/>
<text text-anchor="middle" x="144.88" y="-6.5" font-family="Helvetica,sans-Serif" font-size="10.00">memory</text>
</a>
</g>
</g>
<!-- Node2&#45;&gt;Node5 -->
<g id="edge4_Node000002_Node000005" class="edge">
<title>Node2&#45;&gt;Node5</title>
<g id="a_edge4_Node000002_Node000005"><a xlink:title=" ">
<path fill="none" stroke="#63b8ff" d="M227.46,-55.59C212.21,-47.36 189.8,-35.26 172.17,-25.74"/>
<polygon fill="#63b8ff" stroke="#63b8ff" points="174.22,-22.87 163.76,-21.2 170.9,-29.03 174.22,-22.87"/>
</a>
</g>
</g>
<!-- Node6 -->
<g id="Node000006" class="node">
<title>Node6</title>
<g id="a_Node000006"><a xlink:title=" ">
<polygon fill="#e0e0e0" stroke="#999999" points="238.75,-20 189,-20 189,0 238.75,0 238.75,-20"/>
<text text-anchor="middle" x="213.88" y="-6.5" font-family="Helvetica,sans-Serif" font-size="10.00">optional</text>
</a>
</g>
</g>
<!-- Node2&#45;&gt;Node6 -->
<g id="edge5_Node000002_Node000006" class="edge">
<title>Node2&#45;&gt;Node6</title>
<g id="a_edge5_Node000002_Node000006"><a xlink:title=" ">
<path fill="none" stroke="#63b8ff" d="M239.48,-55.59C235.43,-48.55 229.76,-38.67 224.78,-30"/>
<polygon fill="#63b8ff" stroke="#63b8ff" points="227.98,-28.54 219.97,-21.61 221.91,-32.03 227.98,-28.54"/>
</a>
</g>
</g>
<!-- Node7 -->
<g id="Node000007" class="node">
<title>Node7</title>
<g id="a_Node000007"><a xlink:title=" ">
<polygon fill="#e0e0e0" stroke="#999999" points="293.38,-20 256.38,-20 256.38,0 293.38,0 293.38,-20"/>
<text text-anchor="middle" x="274.88" y="-6.5" font-family="Helvetica,sans-Serif" font-size="10.00">span</text>
</a>
</g>
</g>
<!-- Node2&#45;&gt;Node7 -->
<g id="edge6_Node000002_Node000007" class="edge">
<title>Node2&#45;&gt;Node7</title>
<g id="a_edge6_Node000002_Node000007"><a xlink:title=" ">
<path fill="none" stroke="#63b8ff" d="M250.1,-55.59C253.97,-48.63 259.38,-38.89 264.16,-30.29"/>
<polygon fill="#63b8ff" stroke="#63b8ff" points="267.18,-32.06 268.97,-21.62 261.06,-28.66 267.18,-32.06"/>
</a>
</g>
</g>
<!-- Node8 -->
<g id="Node000008" class="node">
<title>Node8</title>
<g id="a_Node000008"><a xlink:title=" ">
<polygon fill="#e0e0e0" stroke="#999999" points="351.88,-20 311.88,-20 311.88,0 351.88,0 351.88,-20"/>
<text text-anchor="middle" x="331.88" y="-6.5" font-family="Helvetica,sans-Serif" font-size="10.00">string</text>
</a>
</g>
</g>
<!-- Node2&#45;&gt;Node8 -->
<g id="edge7_Node000002_Node000008" class="edge">
<title>Node2&#45;&gt;Node8</title>
<g id="a_edge7_Node000002_Node000008"><a xlink:title=" ">
<path fill="none" stroke="#63b8ff" d="M260.03,-55.59C272.92,-47.59 291.71,-35.93 306.83,-26.54"/>
<polygon fill="#63b8ff" stroke="#63b8ff" points="308.67,-29.53 315.32,-21.28 304.97,-23.58 308.67,-29.53"/>
</a>
</g>
</g>
<!-- Node9 -->
<g id="Node000009" class="node">
<title>Node9</title>
<g id="a_Node000009"><a xlink:title=" ">
<polygon fill="#e0e0e0" stroke="#999999" points="413.38,-20 370.38,-20 370.38,0 413.38,0 413.38,-20"/>
<text text-anchor="middle" x="391.88" y="-6.5" font-family="Helvetica,sans-Serif" font-size="10.00">vector</text>
</a>
</g>
</g>
<!-- Node2&#45;&gt;Node9 -->
<g id="edge8_Node000002_Node000009" class="edge">
<title>Node2&#45;&gt;Node9</title>
<g id="a_edge8_Node000002_Node000009"><a xlink:title=" ">
<path fill="none" stroke="#63b8ff" d="M270.48,-55.59C295.1,-46.55 332.41,-32.85 359.16,-23.02"/>
<polygon fill="#63b8ff" stroke="#63b8ff" points="360.32,-26.32 368.5,-19.59 357.9,-19.75 360.32,-26.32"/>
</a>
</g>
</g>
<!-- Node11 -->
<g id="Node000011" class="node">
<title>Node11</title>
<g id="a_Node000011"><a xlink:title=" ">
<polygon fill="#e0e0e0" stroke="#999999" points="476.5,-20 431.25,-20 431.25,0 476.5,0 476.5,-20"/>
<text text-anchor="middle" x="453.88" y="-6.5" font-family="Helvetica,sans-Serif" font-size="10.00">chrono</text>
</a>
</g>
</g>
<!-- Node10&#45;&gt;Node11 -->
<g id="edge10_Node000010_Node000011" class="edge">
<title>Node10&#45;&gt;Node11</title>
<g id="a_edge10_Node000010_Node000011"><a xlink:title=" ">
<path fill="none" stroke="#63b8ff" d="M490.21,-55.59C484.28,-48.32 475.89,-38.02 468.66,-29.15"/>
<polygon fill="#63b8ff" stroke="#63b8ff" points="471.44,-27.01 462.41,-21.47 466.01,-31.43 471.44,-27.01"/>
</a>
</g>
</g>
<!-- Node12 -->
<g id="Node000012" class="node">
<title>Node12</title>
<g id="a_Node000012"><a xlink:title=" ">
<polygon fill="#e0e0e0" stroke="#999999" points="591,-20 494.75,-20 494.75,0 591,0 591,-20"/>
<text text-anchor="middle" x="542.88" y="-6.5" font-family="Helvetica,sans-Serif" font-size="10.00">concurrentqueue.h</text>
</a>
</g>
</g>
<!-- Node10&#45;&gt;Node12 -->
<g id="edge11_Node000010_Node000012" class="edge">
<title>Node10&#45;&gt;Node12</title>
<g id="a_edge11_Node000010_Node000012"><a xlink:title=" ">
<path fill="none" stroke="#63b8ff" d="M505.71,-55.59C511.84,-48.24 520.55,-37.8 527.99,-28.87"/>
<polygon fill="#63b8ff" stroke="#63b8ff" points="530.44,-31.38 534.16,-21.46 525.07,-26.9 530.44,-31.38"/>
</a>
</g>
</g>
<!-- Node13 -->
<g id="Node000013" class="node">
<title>Node13</title>
<g id="a_Node000013"><a xlink:title=" ">
<polygon fill="#e0e0e0" stroke="#999999" points="674.62,-20 609.12,-20 609.12,0 674.62,0 674.62,-20"/>
<text text-anchor="middle" x="641.88" y="-6.5" font-family="Helvetica,sans-Serif" font-size="10.00">string_view</text>
</a>
</g>
</g>
<!-- Node10&#45;&gt;Node13 -->
<g id="edge12_Node000010_Node000013" class="edge">
<title>Node10&#45;&gt;Node13</title>
<g id="a_edge12_Node000010_Node000013"><a xlink:title=" ">
<path fill="none" stroke="#63b8ff" d="M522.96,-55.59C545.94,-46.97 580.23,-34.12 606.09,-24.42"/>
<polygon fill="#63b8ff" stroke="#63b8ff" points="607.04,-27.8 615.18,-21.01 604.59,-21.25 607.04,-27.8"/>
</a>
</g>
</g>
</g>
</svg>
