<?xml version="1.0" encoding="UTF-8" standalone="no"?>
<!DOCTYPE svg PUBLIC "-//W3C//DTD SVG 1.1//EN"
 "http://www.w3.org/Graphics/SVG/1.1/DTD/svg11.dtd">
<!-- Generated by graphviz version 12.2.1 (20241206.2353)
 -->
<!-- Title: include/EyeAICore/Operators.hpp Pages: 1 -->
<!--zoomable 325 -->

<svg id="main" version="1.1" xmlns="http://www.w3.org/2000/svg" xmlns:xlink="http://www.w3.org/1999/xlink" xml:space="preserve" onload="init(evt)">

<style type="text/css"><![CDATA[
.node, .edge {opacity: 0.7;}
.node.selected, .edge.selected {opacity: 1;}
.edge:hover path { stroke: red; }
.edge:hover polygon { stroke: red; fill: red; }
]]></style>

<defs>
  <circle id="rim" cx="0" cy="0" r="7"/>
  <circle id="rim2" cx="0" cy="0" r="3.5"/>
  <g id="zoomPlus">
    <use xlink:href="#rim" fill="#404040"><set attributeName="fill" to="#808080" begin="zoomplus.mouseover" end="zoomplus.mouseout"/></use>
    <path d="M-4,0h8M0,-4v8" fill="none" stroke="white" stroke-width="1.5" pointer-events="none"/>
  </g>
  <g id="zoomMin">
    <use xlink:href="#rim" fill="#404040"><set attributeName="fill" to="#808080" begin="zoomminus.mouseover" end="zoomminus.mouseout"/></use>
    <path d="M-4,0h8" fill="none" stroke="white" stroke-width="1.5" pointer-events="none"/>
  </g>
  <g id="arrowUp" transform="translate(30 24)">
    <use xlink:href="#rim"/>
    <path pointer-events="none" fill="none" stroke="white" stroke-width="1.5" d="M0,-3.0v7 M-2.5,-0.5L0,-3.0L2.5,-0.5"/>
  </g>
  <g id="arrowRight" transform="rotate(90) translate(36 -43)">
    <use xlink:href="#rim"/>
    <path pointer-events="none" fill="none" stroke="white" stroke-width="1.5" d="M0,-3.0v7 M-2.5,-0.5L0,-3.0L2.5,-0.5"/>
  </g>
  <g id="arrowDown" transform="rotate(180) translate(-30 -48)">
    <use xlink:href="#rim"/>
    <path pointer-events="none" fill="none" stroke="white" stroke-width="1.5" d="M0,-3.0v7 M-2.5,-0.5L0,-3.0L2.5,-0.5"/>
  </g>
  <g id="arrowLeft" transform="rotate(270) translate(-36 17)">
    <use xlink:href="#rim"/>
    <path pointer-events="none" fill="none" stroke="white" stroke-width="1.5" d="M0,-3.0v7 M-2.5,-0.5L0,-3.0L2.5,-0.5"/>
  </g>
  <g id="resetDef">
    <use xlink:href="#rim2" fill="#404040"><set attributeName="fill" to="#808080" begin="reset.mouseover" end="reset.mouseout"/></use>
  </g>
</defs>
<script type="application/ecmascript">
var viewWidth = 977;
var viewHeight = 325;
var sectionId = 'dynsection-0';
</script>
<script type="application/ecmascript" xlink:href="svg.min.js"/>
<svg id="graph" class="graph">
<g id="viewport">
<title>include/EyeAICore/Operators.hpp</title>
<!-- Node1 -->
<g id="Node000001" class="node">
<title>Node1</title>
<g id="a_Node000001"><a xlink:title=" ">
<polygon fill="#999999" stroke="#666666" points="200.01,-317.25 23.51,-317.25 23.51,-296.5 200.01,-296.5 200.01,-317.25"/>
<text text-anchor="middle" x="111.76" y="-303.75" font-family="Helvetica,sans-Serif" font-size="10.00">include/EyeAICore/Operators.hpp</text>
</a>
</g>
</g>
<!-- Node2 -->
<g id="Node000002" class="node">
<title>Node2</title>
<g id="a_Node000002"><a xlink:href="TensorBuffer_8hpp.html" target="_top" xlink:title=" ">
<polygon fill="white" stroke="#666666" points="171.89,-83.88 21.64,-83.88 21.64,-63.12 171.89,-63.12 171.89,-83.88"/>
<text text-anchor="middle" x="96.76" y="-70.38" font-family="Helvetica,sans-Serif" font-size="10.00">EyeAICore/TensorBuffer.hpp</text>
</a>
</g>
</g>
<!-- Node1&#45;&gt;Node2 -->
<g id="edge1_Node000001_Node000002" class="edge">
<title>Node1&#45;&gt;Node2</title>
<g id="a_edge1_Node000001_Node000002"><a xlink:title=" ">
<path fill="none" stroke="#63b8ff" d="M99.34,-296.22C89.77,-287.93 77.26,-275.04 71.76,-260.5 50.03,-202.99 73.91,-129.22 87.97,-94.4"/>
<polygon fill="#63b8ff" stroke="#63b8ff" points="91.04,-96.13 91.7,-85.55 84.59,-93.41 91.04,-96.13"/>
</a>
</g>
</g>
<!-- Node8 -->
<g id="Node000008" class="node">
<title>Node8</title>
<g id="a_Node000008"><a xlink:href="MetricDepthModel_8hpp.html" target="_top" xlink:title=" ">
<polygon fill="white" stroke="#666666" points="260.89,-260.5 80.64,-260.5 80.64,-239.75 260.89,-239.75 260.89,-260.5"/>
<text text-anchor="middle" x="170.76" y="-247" font-family="Helvetica,sans-Serif" font-size="10.00">EyeAICore/MetricDepthModel.hpp</text>
</a>
</g>
</g>
<!-- Node1&#45;&gt;Node8 -->
<g id="edge7_Node000001_Node000008" class="edge">
<title>Node1&#45;&gt;Node8</title>
<g id="a_edge7_Node000001_Node000008"><a xlink:title=" ">
<path fill="none" stroke="#63b8ff" d="M122.31,-296.09C130.53,-288.46 142.16,-277.67 151.96,-268.57"/>
<polygon fill="#63b8ff" stroke="#63b8ff" points="154.25,-271.23 159.2,-261.86 149.48,-266.09 154.25,-271.23"/>
</a>
</g>
</g>
<!-- Node3 -->
<g id="Node000003" class="node">
<title>Node3</title>
<g id="a_Node000003"><a xlink:title=" ">
<polygon fill="#e0e0e0" stroke="#999999" points="63.26,-20.75 14.26,-20.75 14.26,0 63.26,0 63.26,-20.75"/>
<text text-anchor="middle" x="38.76" y="-7.25" font-family="Helvetica,sans-Serif" font-size="10.00">cstdint</text>
</a>
</g>
</g>
<!-- Node2&#45;&gt;Node3 -->
<g id="edge2_Node000002_Node000003" class="edge">
<title>Node2&#45;&gt;Node3</title>
<g id="a_edge2_Node000002_Node000003"><a xlink:title=" ">
<path fill="none" stroke="#63b8ff" d="M87.44,-62.68C78.85,-53.63 65.9,-39.97 55.51,-29.03"/>
<polygon fill="#63b8ff" stroke="#63b8ff" points="58.33,-26.91 48.91,-22.07 53.25,-31.73 58.33,-26.91"/>
</a>
</g>
</g>
<!-- Node4 -->
<g id="Node000004" class="node">
<title>Node4</title>
<g id="a_Node000004"><a xlink:title=" ">
<polygon fill="#e0e0e0" stroke="#999999" points="212.39,-20.75 155.14,-20.75 155.14,0 212.39,0 212.39,-20.75"/>
<text text-anchor="middle" x="183.76" y="-7.25" font-family="Helvetica,sans-Serif" font-size="10.00">memory</text>
</a>
</g>
</g>
<!-- Node2&#45;&gt;Node4 -->
<g id="edge3_Node000002_Node000004" class="edge">
<title>Node2&#45;&gt;Node4</title>
<g id="a_edge3_Node000002_Node000004"><a xlink:title=" ">
<path fill="none" stroke="#63b8ff" d="M110.74,-62.68C124.18,-53.23 144.75,-38.78 160.64,-27.62"/>
<polygon fill="#63b8ff" stroke="#63b8ff" points="162.41,-30.65 168.58,-22.04 158.39,-24.93 162.41,-30.65"/>
</a>
</g>
</g>
<!-- Node5 -->
<g id="Node000005" class="node">
<title>Node5</title>
<g id="a_Node000005"><a xlink:title=" ">
<polygon fill="#e0e0e0" stroke="#999999" points="540.39,-20.75 501.14,-20.75 501.14,0 540.39,0 540.39,-20.75"/>
<text text-anchor="middle" x="520.76" y="-7.25" font-family="Helvetica,sans-Serif" font-size="10.00">span</text>
</a>
</g>
</g>
<!-- Node2&#45;&gt;Node5 -->
<g id="edge4_Node000002_Node000005" class="edge">
<title>Node2&#45;&gt;Node5</title>
<g id="a_edge4_Node000002_Node000005"><a xlink:title=" ">
<path fill="none" stroke="#63b8ff" d="M164.88,-62.68C258.08,-49.24 421.5,-25.69 489.6,-15.87"/>
<polygon fill="#63b8ff" stroke="#63b8ff" points="489.9,-19.36 499.3,-14.47 488.9,-12.43 489.9,-19.36"/>
</a>
</g>
</g>
<!-- Node6 -->
<g id="Node000006" class="node">
<title>Node6</title>
<g id="a_Node000006"><a xlink:title=" ">
<polygon fill="#e0e0e0" stroke="#999999" points="668.01,-20.75 617.51,-20.75 617.51,0 668.01,0 668.01,-20.75"/>
<text text-anchor="middle" x="642.76" y="-7.25" font-family="Helvetica,sans-Serif" font-size="10.00">variant</text>
</a>
</g>
</g>
<!-- Node2&#45;&gt;Node6 -->
<g id="edge5_Node000002_Node000006" class="edge">
<title>Node2&#45;&gt;Node6</title>
<g id="a_edge5_Node000002_Node000006"><a xlink:title=" ">
<path fill="none" stroke="#63b8ff" d="M170.92,-62.66C186.71,-60.64 203.28,-58.58 218.76,-56.75 293.53,-47.92 517.15,-24.48 605.89,-15.22"/>
<polygon fill="#63b8ff" stroke="#63b8ff" points="606.15,-18.71 615.74,-14.19 605.43,-11.75 606.15,-18.71"/>
</a>
</g>
</g>
<!-- Node7 -->
<g id="Node000007" class="node">
<title>Node7</title>
<g id="a_Node000007"><a xlink:title=" ">
<polygon fill="#e0e0e0" stroke="#999999" points="128.14,-20.75 81.39,-20.75 81.39,0 128.14,0 128.14,-20.75"/>
<text text-anchor="middle" x="104.76" y="-7.25" font-family="Helvetica,sans-Serif" font-size="10.00">vector</text>
</a>
</g>
</g>
<!-- Node2&#45;&gt;Node7 -->
<g id="edge6_Node000002_Node000007" class="edge">
<title>Node2&#45;&gt;Node7</title>
<g id="a_edge6_Node000002_Node000007"><a xlink:title=" ">
<path fill="none" stroke="#63b8ff" d="M98.05,-62.68C99.11,-54.52 100.67,-42.63 102.02,-32.35"/>
<polygon fill="#63b8ff" stroke="#63b8ff" points="105.48,-32.84 103.31,-22.47 98.54,-31.93 105.48,-32.84"/>
</a>
</g>
</g>
<!-- Node8&#45;&gt;Node2 -->
<g id="edge8_Node000008_Node000002" class="edge">
<title>Node8&#45;&gt;Node2</title>
<g id="a_edge8_Node000008_Node000002"><a xlink:title=" ">
<path fill="none" stroke="#63b8ff" d="M166.68,-239.49C154.98,-211.88 121.17,-132.1 105.25,-94.53"/>
<polygon fill="#63b8ff" stroke="#63b8ff" points="108.64,-93.56 101.51,-85.72 102.19,-96.29 108.64,-93.56"/>
</a>
</g>
</g>
<!-- Node8&#45;&gt;Node4 -->
<g id="edge30_Node000008_Node000004" class="edge">
<title>Node8&#45;&gt;Node4</title>
<g id="a_edge30_Node000008_Node000004"><a xlink:title=" ">
<path fill="none" stroke="#63b8ff" d="M151.17,-239.29C97.85,-211.26 -42.31,-128.35 12.76,-56.75 20.83,-46.26 95.49,-29.34 143.46,-19.39"/>
<polygon fill="#63b8ff" stroke="#63b8ff" points="144.15,-22.82 153.24,-17.39 142.74,-15.97 144.15,-22.82"/>
</a>
</g>
</g>
<!-- Node9 -->
<g id="Node000009" class="node">
<title>Node9</title>
<g id="a_Node000009"><a xlink:href="TfLiteRuntime_8hpp.html" target="_top" xlink:title=" ">
<polygon fill="white" stroke="#666666" points="507.14,-203.75 322.39,-203.75 322.39,-183 507.14,-183 507.14,-203.75"/>
<text text-anchor="middle" x="414.76" y="-190.25" font-family="Helvetica,sans-Serif" font-size="10.00">EyeAICore/tflite/TfLiteRuntime.hpp</text>
</a>
</g>
</g>
<!-- Node8&#45;&gt;Node9 -->
<g id="edge9_Node000008_Node000009" class="edge">
<title>Node8&#45;&gt;Node9</title>
<g id="a_edge9_Node000008_Node000009"><a xlink:title=" ">
<path fill="none" stroke="#63b8ff" d="M214.67,-239.27C255.31,-230.15 315.9,-216.56 359.75,-206.72"/>
<polygon fill="#63b8ff" stroke="#63b8ff" points="360.33,-210.18 369.32,-204.57 358.8,-203.35 360.33,-210.18"/>
</a>
</g>
</g>
<!-- Node9&#45;&gt;Node2 -->
<g id="edge10_Node000009_Node000002" class="edge">
<title>Node9&#45;&gt;Node2</title>
<g id="a_edge10_Node000009_Node000002"><a xlink:title=" ">
<path fill="none" stroke="#63b8ff" d="M322.1,-184.42C279.09,-178.15 228.21,-166.97 185.76,-147 157.2,-133.57 129.91,-109 113.25,-92.22"/>
<polygon fill="#63b8ff" stroke="#63b8ff" points="116.08,-90.11 106.61,-85.35 111.04,-94.97 116.08,-90.11"/>
</a>
</g>
</g>
<!-- Node9&#45;&gt;Node4 -->
<g id="edge26_Node000009_Node000004" class="edge">
<title>Node9&#45;&gt;Node4</title>
<g id="a_edge26_Node000009_Node000004"><a xlink:title=" ">
<path fill="none" stroke="#63b8ff" d="M381.01,-182.51C338.16,-168.43 264.34,-138.78 218.76,-90.25 203.25,-73.74 193.85,-49.21 188.76,-31.9"/>
<polygon fill="#63b8ff" stroke="#63b8ff" points="192.2,-31.24 186.23,-22.49 185.44,-33.05 192.2,-31.24"/>
</a>
</g>
</g>
<!-- Node9&#45;&gt;Node5 -->
<g id="edge27_Node000009_Node000005" class="edge">
<title>Node9&#45;&gt;Node5</title>
<g id="a_edge27_Node000009_Node000005"><a xlink:title=" ">
<path fill="none" stroke="#63b8ff" d="M471.67,-182.55C554.9,-166.87 703.27,-133.5 733.76,-90.25 742.34,-78.08 743.13,-68.32 733.76,-56.75 722.32,-42.62 607.86,-24.11 551.62,-15.78"/>
<polygon fill="#63b8ff" stroke="#63b8ff" points="552.46,-12.36 542.06,-14.38 551.45,-19.29 552.46,-12.36"/>
</a>
</g>
</g>
<!-- Node10 -->
<g id="Node000010" class="node">
<title>Node10</title>
<g id="a_Node000010"><a xlink:href="TfLiteUtils_8hpp.html" target="_top" xlink:title=" ">
<polygon fill="white" stroke="#666666" points="530.39,-147 443.14,-147 443.14,-126.25 530.39,-126.25 530.39,-147"/>
<text text-anchor="middle" x="486.76" y="-133.5" font-family="Helvetica,sans-Serif" font-size="10.00">TfLiteUtils.hpp</text>
</a>
</g>
</g>
<!-- Node9&#45;&gt;Node10 -->
<g id="edge11_Node000009_Node000010" class="edge">
<title>Node9&#45;&gt;Node10</title>
<g id="a_edge11_Node000009_Node000010"><a xlink:title=" ">
<path fill="none" stroke="#63b8ff" d="M427.63,-182.59C437.97,-174.72 452.73,-163.5 464.91,-154.24"/>
<polygon fill="#63b8ff" stroke="#63b8ff" points="466.95,-157.08 472.8,-148.24 462.72,-151.51 466.95,-157.08"/>
</a>
</g>
</g>
<!-- Node13 -->
<g id="Node000013" class="node">
<title>Node13</title>
<g id="a_Node000013"><a xlink:title=" ">
<polygon fill="#e0e0e0" stroke="#999999" points="968.64,-20.75 924.89,-20.75 924.89,0 968.64,0 968.64,-20.75"/>
<text text-anchor="middle" x="946.76" y="-7.25" font-family="Helvetica,sans-Serif" font-size="10.00">string</text>
</a>
</g>
</g>
<!-- Node9&#45;&gt;Node13 -->
<g id="edge28_Node000009_Node000013" class="edge">
<title>Node9&#45;&gt;Node13</title>
<g id="a_edge28_Node000009_Node000013"><a xlink:title=" ">
<path fill="none" stroke="#63b8ff" d="M507.52,-186.41C640.03,-175.9 873.93,-149.34 931.76,-90.25 946.51,-75.18 949.07,-50.38 948.69,-32.61"/>
<polygon fill="#63b8ff" stroke="#63b8ff" points="952.19,-32.44 948.12,-22.66 945.2,-32.85 952.19,-32.44"/>
</a>
</g>
</g>
<!-- Node16 -->
<g id="Node000016" class="node">
<title>Node16</title>
<g id="a_Node000016"><a xlink:title=" ">
<polygon fill="#e0e0e0" stroke="#999999" points="454.89,-83.88 382.64,-83.88 382.64,-63.12 454.89,-63.12 454.89,-83.88"/>
<text text-anchor="middle" x="418.76" y="-70.38" font-family="Helvetica,sans-Serif" font-size="10.00">string_view</text>
</a>
</g>
</g>
<!-- Node9&#45;&gt;Node16 -->
<g id="edge29_Node000009_Node000016" class="edge">
<title>Node9&#45;&gt;Node16</title>
<g id="a_edge29_Node000009_Node000016"><a xlink:title=" ">
<path fill="none" stroke="#63b8ff" d="M415.09,-182.73C415.73,-163.82 417.17,-121.48 418.04,-95.72"/>
<polygon fill="#63b8ff" stroke="#63b8ff" points="421.54,-95.91 418.38,-85.79 414.54,-95.67 421.54,-95.91"/>
</a>
</g>
</g>
<!-- Node17 -->
<g id="Node000017" class="node">
<title>Node17</title>
<g id="a_Node000017"><a xlink:title=" ">
<polygon fill="#e0e0e0" stroke="#999999" points="724.89,-90.25 622.64,-90.25 622.64,-56.75 724.89,-56.75 724.89,-90.25"/>
<text text-anchor="start" x="630.64" y="-76.75" font-family="Helvetica,sans-Serif" font-size="10.00">tensorflow/lite/c/c</text>
<text text-anchor="middle" x="673.76" y="-64" font-family="Helvetica,sans-Serif" font-size="10.00">_api.h</text>
</a>
</g>
</g>
<!-- Node9&#45;&gt;Node17 -->
<g id="edge24_Node000009_Node000017" class="edge">
<title>Node9&#45;&gt;Node17</title>
<g id="a_edge24_Node000009_Node000017"><a xlink:title=" ">
<path fill="none" stroke="#63b8ff" d="M445.83,-182.52C471.43,-174.06 508.49,-161.04 539.76,-147 573.57,-131.82 610.5,-111.54 637.02,-96.29"/>
<polygon fill="#63b8ff" stroke="#63b8ff" points="638.44,-99.51 645.34,-91.47 634.93,-93.46 638.44,-99.51"/>
</a>
</g>
</g>
<!-- Node18 -->
<g id="Node000018" class="node">
<title>Node18</title>
<g id="a_Node000018"><a xlink:title=" ">
<polygon fill="#e0e0e0" stroke="#999999" points="364.14,-90.25 227.39,-90.25 227.39,-56.75 364.14,-56.75 364.14,-90.25"/>
<text text-anchor="start" x="235.39" y="-76.75" font-family="Helvetica,sans-Serif" font-size="10.00">tensorflow/lite/delegates</text>
<text text-anchor="middle" x="295.76" y="-64" font-family="Helvetica,sans-Serif" font-size="10.00">/gpu/delegate.h</text>
</a>
</g>
</g>
<!-- Node9&#45;&gt;Node18 -->
<g id="edge25_Node000009_Node000018" class="edge">
<title>Node9&#45;&gt;Node18</title>
<g id="a_edge25_Node000009_Node000018"><a xlink:title=" ">
<path fill="none" stroke="#63b8ff" d="M405.02,-182.73C386.59,-164.47 346.11,-124.37 319.93,-98.44"/>
<polygon fill="#63b8ff" stroke="#63b8ff" points="322.62,-96.18 313.06,-91.63 317.7,-101.16 322.62,-96.18"/>
</a>
</g>
</g>
<!-- Node10&#45;&gt;Node2 -->
<g id="edge12_Node000010_Node000002" class="edge">
<title>Node10&#45;&gt;Node2</title>
<g id="a_edge12_Node000010_Node000002"><a xlink:title=" ">
<path fill="none" stroke="#63b8ff" d="M442.78,-128.73C376.67,-118.37 250.87,-98.65 170.55,-86.06"/>
<polygon fill="#63b8ff" stroke="#63b8ff" points="171.44,-82.66 161.02,-84.57 170.36,-89.58 171.44,-82.66"/>
</a>
</g>
</g>
<!-- Node10&#45;&gt;Node4 -->
<g id="edge18_Node000010_Node000004" class="edge">
<title>Node10&#45;&gt;Node4</title>
<g id="a_edge18_Node000010_Node000004"><a xlink:title=" ">
<path fill="none" stroke="#63b8ff" d="M487.01,-125.91C486.87,-109.09 483.96,-74.6 463.76,-56.75 428.88,-25.92 292.8,-15.88 224.03,-12.74"/>
<polygon fill="#63b8ff" stroke="#63b8ff" points="224.45,-9.25 214.31,-12.32 224.15,-16.24 224.45,-9.25"/>
</a>
</g>
</g>
<!-- Node10&#45;&gt;Node5 -->
<g id="edge20_Node000010_Node000005" class="edge">
<title>Node10&#45;&gt;Node5</title>
<g id="a_edge20_Node000010_Node000005"><a xlink:title=" ">
<path fill="none" stroke="#63b8ff" d="M489.43,-125.88C494.94,-105.73 507.69,-59.15 515.11,-32.01"/>
<polygon fill="#63b8ff" stroke="#63b8ff" points="518.44,-33.11 517.71,-22.54 511.69,-31.26 518.44,-33.11"/>
</a>
</g>
</g>
<!-- Node11 -->
<g id="Node000011" class="node">
<title>Node11</title>
<g id="a_Node000011"><a xlink:href="Errors_8hpp.html" target="_top" xlink:title=" ">
<polygon fill="white" stroke="#666666" points="923.14,-83.88 780.39,-83.88 780.39,-63.12 923.14,-63.12 923.14,-83.88"/>
<text text-anchor="middle" x="851.76" y="-70.38" font-family="Helvetica,sans-Serif" font-size="10.00">EyeAICore/utils/Errors.hpp</text>
</a>
</g>
</g>
<!-- Node10&#45;&gt;Node11 -->
<g id="edge13_Node000010_Node000011" class="edge">
<title>Node10&#45;&gt;Node11</title>
<g id="a_edge13_Node000010_Node000011"><a xlink:title=" ">
<path fill="none" stroke="#63b8ff" d="M530.79,-128.25C593.19,-117.8 707.99,-98.58 782.04,-86.18"/>
<polygon fill="#63b8ff" stroke="#63b8ff" points="782.33,-89.68 791.62,-84.57 781.17,-82.77 782.33,-89.68"/>
</a>
</g>
</g>
<!-- Node15 -->
<g id="Node000015" class="node">
<title>Node15</title>
<g id="a_Node000015"><a xlink:title=" ">
<polygon fill="#e0e0e0" stroke="#999999" points="604.64,-83.88 548.89,-83.88 548.89,-63.12 604.64,-63.12 604.64,-83.88"/>
<text text-anchor="middle" x="576.76" y="-70.38" font-family="Helvetica,sans-Serif" font-size="10.00">optional</text>
</a>
</g>
</g>
<!-- Node10&#45;&gt;Node15 -->
<g id="edge19_Node000010_Node000015" class="edge">
<title>Node10&#45;&gt;Node15</title>
<g id="a_edge19_Node000010_Node000015"><a xlink:title=" ">
<path fill="none" stroke="#63b8ff" d="M501.22,-125.8C515.13,-116.36 536.41,-101.91 552.84,-90.75"/>
<polygon fill="#63b8ff" stroke="#63b8ff" points="554.78,-93.66 561.09,-85.15 550.85,-87.87 554.78,-93.66"/>
</a>
</g>
</g>
<!-- Node10&#45;&gt;Node16 -->
<g id="edge21_Node000010_Node000016" class="edge">
<title>Node10&#45;&gt;Node16</title>
<g id="a_edge21_Node000010_Node000016"><a xlink:title=" ">
<path fill="none" stroke="#63b8ff" d="M475.84,-125.8C465.56,-116.57 449.97,-102.56 437.68,-91.51"/>
<polygon fill="#63b8ff" stroke="#63b8ff" points="440.34,-89.19 430.56,-85.11 435.66,-94.39 440.34,-89.19"/>
</a>
</g>
</g>
<!-- Node10&#45;&gt;Node17 -->
<g id="edge22_Node000010_Node000017" class="edge">
<title>Node10&#45;&gt;Node17</title>
<g id="a_edge22_Node000010_Node000017"><a xlink:title=" ">
<path fill="none" stroke="#63b8ff" d="M516.81,-125.8C542.78,-117.31 581.12,-104.78 613.4,-94.23"/>
<polygon fill="#63b8ff" stroke="#63b8ff" points="614.24,-97.64 622.66,-91.21 612.06,-90.99 614.24,-97.64"/>
</a>
</g>
</g>
<!-- Node10&#45;&gt;Node18 -->
<g id="edge23_Node000010_Node000018" class="edge">
<title>Node10&#45;&gt;Node18</title>
<g id="a_edge23_Node000010_Node000018"><a xlink:title=" ">
<path fill="none" stroke="#63b8ff" d="M456.07,-125.8C429.55,-117.31 390.39,-104.78 357.41,-94.23"/>
<polygon fill="#63b8ff" stroke="#63b8ff" points="358.52,-90.91 347.93,-91.2 356.39,-97.58 358.52,-90.91"/>
</a>
</g>
</g>
<!-- Node11&#45;&gt;Node6 -->
<g id="edge17_Node000011_Node000006" class="edge">
<title>Node11&#45;&gt;Node6</title>
<g id="a_edge17_Node000011_Node000006"><a xlink:title=" ">
<path fill="none" stroke="#63b8ff" d="M818.18,-62.68C780.16,-51.56 718.43,-33.51 679.25,-22.05"/>
<polygon fill="#63b8ff" stroke="#63b8ff" points="680.39,-18.73 669.81,-19.28 678.42,-25.45 680.39,-18.73"/>
</a>
</g>
</g>
<!-- Node12 -->
<g id="Node000012" class="node">
<title>Node12</title>
<g id="a_Node000012"><a xlink:title=" ">
<polygon fill="#e0e0e0" stroke="#999999" points="791.26,-20.75 742.26,-20.75 742.26,0 791.26,0 791.26,-20.75"/>
<text text-anchor="middle" x="766.76" y="-7.25" font-family="Helvetica,sans-Serif" font-size="10.00">format</text>
</a>
</g>
</g>
<!-- Node11&#45;&gt;Node12 -->
<g id="edge14_Node000011_Node000012" class="edge">
<title>Node11&#45;&gt;Node12</title>
<g id="a_edge14_Node000011_Node000012"><a xlink:title=" ">
<path fill="none" stroke="#63b8ff" d="M838.1,-62.68C824.97,-53.23 804.87,-38.78 789.35,-27.62"/>
<polygon fill="#63b8ff" stroke="#63b8ff" points="791.78,-25.05 781.61,-22.06 787.69,-30.74 791.78,-25.05"/>
</a>
</g>
</g>
<!-- Node11&#45;&gt;Node13 -->
<g id="edge15_Node000011_Node000013" class="edge">
<title>Node11&#45;&gt;Node13</title>
<g id="a_edge15_Node000011_Node000013"><a xlink:title=" ">
<path fill="none" stroke="#63b8ff" d="M867.02,-62.68C881.84,-53.14 904.59,-38.51 922,-27.31"/>
<polygon fill="#63b8ff" stroke="#63b8ff" points="923.75,-30.34 930.26,-21.99 919.96,-24.46 923.75,-30.34"/>
</a>
</g>
</g>
<!-- Node14 -->
<g id="Node000014" class="node">
<title>Node14</title>
<g id="a_Node000014"><a xlink:title=" ">
<polygon fill="#e0e0e0" stroke="#999999" points="900.64,-20.75 808.89,-20.75 808.89,0 900.64,0 900.64,-20.75"/>
<text text-anchor="middle" x="854.76" y="-7.25" font-family="Helvetica,sans-Serif" font-size="10.00">tl/expected.hpp</text>
</a>
</g>
</g>
<!-- Node11&#45;&gt;Node14 -->
<g id="edge16_Node000011_Node000014" class="edge">
<title>Node11&#45;&gt;Node14</title>
<g id="a_edge16_Node000011_Node000014"><a xlink:title=" ">
<path fill="none" stroke="#63b8ff" d="M852.24,-62.68C852.64,-54.52 853.23,-42.63 853.73,-32.35"/>
<polygon fill="#63b8ff" stroke="#63b8ff" points="857.22,-32.64 854.22,-22.48 850.23,-32.3 857.22,-32.64"/>
</a>
</g>
</g>
</g>
</svg>

<g id="navigator" transform="translate(0 0)" fill="#404254">
  <rect fill="#f2f5e9" fill-opacity="0.5" stroke="#606060" stroke-width=".5" x="0" y="0" width="60" height="60"/>
  <use id="zoomplus" xlink:href="#zoomPlus" x="17" y="9" onmousedown="handleZoom(evt,'in')"/>
  <use id="zoomminus" xlink:href="#zoomMin" x="42" y="9" onmousedown="handleZoom(evt,'out')"/>
  <use id="reset" xlink:href="#resetDef" x="30" y="36" onmousedown="handleReset()"/>
   <use id="arrowup" xlink:href="#arrowUp" x="0" y="0" onmousedown="handlePan(0,-1)"/>
  <use id="arrowright" xlink:href="#arrowRight" x="0" y="0" onmousedown="handlePan(1,0)"/>
  <use id="arrowdown" xlink:href="#arrowDown" x="0" y="0" onmousedown="handlePan(0,1)"/>
  <use id="arrowleft" xlink:href="#arrowLeft" x="0" y="0" onmousedown="handlePan(-1,0)"/>
</g>
<svg viewBox="0 0 15 15" width="100%" height="30px" preserveAspectRatio="xMaxYMin meet">
 <g id="arrow_out" transform="scale(0.3 0.3)">
  <a xlink:href="Operators_8hpp__incl_org.svg" target="_base">
   <rect id="button" ry="5" rx="5" y="6" x="6" height="38" width="38"
        fill="#f2f5e9" fill-opacity="0.5" stroke="#606060" stroke-width="1.0"/>
   <path id="arrow"
     d="M 11.500037,31.436501 C 11.940474,20.09759 22.043105,11.32322 32.158766,21.979434 L 37.068811,17.246167 C 37.068811,17.246167 37.088388,32 37.088388,32 L 22.160133,31.978069 C 22.160133,31.978069 26.997745,27.140456 26.997745,27.140456 C 18.528582,18.264221 13.291696,25.230495 11.500037,31.436501 z"
     style="fill:#404040;"/>
  </a>
 </g>
</svg>

<style type='text/css'>
<![CDATA[
[data-mouse-over-selected='false'] { opacity: 0.7; }
[data-mouse-over-selected='true']  { opacity: 1.0; }
]]>
</style>
<script type="application/ecmascript"><![CDATA[
document.addEventListener('DOMContentLoaded', (event) => {
  highlightEdges();
  highlightAdjacentNodes();
});
]]></script>
</svg>
