<?xml version="1.0" encoding="UTF-8" standalone="no"?>
<!DOCTYPE svg PUBLIC "-//W3C//DTD SVG 1.1//EN"
 "http://www.w3.org/Graphics/SVG/1.1/DTD/svg11.dtd">
<!-- Generated by graphviz version 12.2.1 (20241206.2353)
 -->
<!-- Title: include/EyeAICore/Operators.hpp Pages: 1 -->
<svg width="421pt" height="84pt"
 viewBox="0.00 0.00 421.38 84.00" xmlns="http://www.w3.org/2000/svg" xmlns:xlink="http://www.w3.org/1999/xlink">
<g id="graph0" class="graph" transform="scale(1 1) rotate(0) translate(4 80)">
<title>include/EyeAICore/Operators.hpp</title>
<!-- Node1 -->
<g id="Node000001" class="node">
<title>Node1</title>
<g id="a_Node000001"><a xlink:title=" ">
<polygon fill="#999999" stroke="#666666" points="295,-76 132.75,-76 132.75,-56 295,-56 295,-76"/>
<text text-anchor="middle" x="213.88" y="-62.5" font-family="Helvetica,sans-Serif" font-size="10.00">include/EyeAICore/Operators.hpp</text>
</a>
</g>
</g>
<!-- Node2 -->
<g id="Node000002" class="node">
<title>Node2</title>
<g id="a_Node000002"><a xlink:title=" ">
<polygon fill="#e0e0e0" stroke="#999999" points="37.75,-20 0,-20 0,0 37.75,0 37.75,-20"/>
<text text-anchor="middle" x="18.88" y="-6.5" font-family="Helvetica,sans-Serif" font-size="10.00">array</text>
</a>
</g>
</g>
<!-- Node1&#45;&gt;Node2 -->
<g id="edge1_Node000001_Node000002" class="edge">
<title>Node1&#45;&gt;Node2</title>
<g id="a_edge1_Node000001_Node000002"><a xlink:title=" ">
<path fill="none" stroke="#63b8ff" d="M176.92,-55.58C145.3,-47.41 98.34,-34.98 49.01,-20.53"/>
<polygon fill="#63b8ff" stroke="#63b8ff" points="50.15,-17.22 39.57,-17.75 48.17,-23.93 50.15,-17.22"/>
</a>
</g>
</g>
<!-- Node3 -->
<g id="Node000003" class="node">
<title>Node3</title>
<g id="a_Node000003"><a xlink:title=" ">
<polygon fill="#e0e0e0" stroke="#999999" points="101.5,-20 56.25,-20 56.25,0 101.5,0 101.5,-20"/>
<text text-anchor="middle" x="78.88" y="-6.5" font-family="Helvetica,sans-Serif" font-size="10.00">cstdint</text>
</a>
</g>
</g>
<!-- Node1&#45;&gt;Node3 -->
<g id="edge2_Node000001_Node000003" class="edge">
<title>Node1&#45;&gt;Node3</title>
<g id="a_edge2_Node000001_Node000003"><a xlink:title=" ">
<path fill="none" stroke="#63b8ff" d="M190.36,-55.59C168.74,-46.95 136.46,-34.03 112.19,-24.33"/>
<polygon fill="#63b8ff" stroke="#63b8ff" points="113.66,-21.14 103.08,-20.68 111.06,-27.64 113.66,-21.14"/>
</a>
</g>
</g>
<!-- Node4 -->
<g id="Node000004" class="node">
<title>Node4</title>
<g id="a_Node000004"><a xlink:title=" ">
<polygon fill="#e0e0e0" stroke="#999999" points="170.5,-20 119.25,-20 119.25,0 170.5,0 170.5,-20"/>
<text text-anchor="middle" x="144.88" y="-6.5" font-family="Helvetica,sans-Serif" font-size="10.00">memory</text>
</a>
</g>
</g>
<!-- Node1&#45;&gt;Node4 -->
<g id="edge3_Node000001_Node000004" class="edge">
<title>Node1&#45;&gt;Node4</title>
<g id="a_edge3_Node000001_Node000004"><a xlink:title=" ">
<path fill="none" stroke="#63b8ff" d="M201.86,-55.59C191.86,-47.77 177.41,-36.46 165.57,-27.19"/>
<polygon fill="#63b8ff" stroke="#63b8ff" points="167.98,-24.64 157.95,-21.23 163.67,-30.15 167.98,-24.64"/>
</a>
</g>
</g>
<!-- Node5 -->
<g id="Node000005" class="node">
<title>Node5</title>
<g id="a_Node000005"><a xlink:title=" ">
<polygon fill="#e0e0e0" stroke="#999999" points="238.75,-20 189,-20 189,0 238.75,0 238.75,-20"/>
<text text-anchor="middle" x="213.88" y="-6.5" font-family="Helvetica,sans-Serif" font-size="10.00">optional</text>
</a>
</g>
</g>
<!-- Node1&#45;&gt;Node5 -->
<g id="edge4_Node000001_Node000005" class="edge">
<title>Node1&#45;&gt;Node5</title>
<g id="a_edge4_Node000001_Node000005"><a xlink:title=" ">
<path fill="none" stroke="#63b8ff" d="M213.88,-55.59C213.88,-49.01 213.88,-39.96 213.88,-31.73"/>
<polygon fill="#63b8ff" stroke="#63b8ff" points="217.38,-31.81 213.88,-21.81 210.38,-31.81 217.38,-31.81"/>
</a>
</g>
</g>
<!-- Node6 -->
<g id="Node000006" class="node">
<title>Node6</title>
<g id="a_Node000006"><a xlink:title=" ">
<polygon fill="#e0e0e0" stroke="#999999" points="293.38,-20 256.38,-20 256.38,0 293.38,0 293.38,-20"/>
<text text-anchor="middle" x="274.88" y="-6.5" font-family="Helvetica,sans-Serif" font-size="10.00">span</text>
</a>
</g>
</g>
<!-- Node1&#45;&gt;Node6 -->
<g id="edge5_Node000001_Node000006" class="edge">
<title>Node1&#45;&gt;Node6</title>
<g id="a_edge5_Node000001_Node000006"><a xlink:title=" ">
<path fill="none" stroke="#63b8ff" d="M224.5,-55.59C233.16,-47.93 245.61,-36.91 255.96,-27.75"/>
<polygon fill="#63b8ff" stroke="#63b8ff" points="258.07,-30.55 263.24,-21.3 253.43,-25.31 258.07,-30.55"/>
</a>
</g>
</g>
<!-- Node7 -->
<g id="Node000007" class="node">
<title>Node7</title>
<g id="a_Node000007"><a xlink:title=" ">
<polygon fill="#e0e0e0" stroke="#999999" points="351.88,-20 311.88,-20 311.88,0 351.88,0 351.88,-20"/>
<text text-anchor="middle" x="331.88" y="-6.5" font-family="Helvetica,sans-Serif" font-size="10.00">string</text>
</a>
</g>
</g>
<!-- Node1&#45;&gt;Node7 -->
<g id="edge6_Node000001_Node000007" class="edge">
<title>Node1&#45;&gt;Node7</title>
<g id="a_edge6_Node000001_Node000007"><a xlink:title=" ">
<path fill="none" stroke="#63b8ff" d="M234.43,-55.59C252.87,-47.15 280.19,-34.65 301.22,-25.03"/>
<polygon fill="#63b8ff" stroke="#63b8ff" points="302.54,-28.27 310.18,-20.93 299.63,-21.91 302.54,-28.27"/>
</a>
</g>
</g>
<!-- Node8 -->
<g id="Node000008" class="node">
<title>Node8</title>
<g id="a_Node000008"><a xlink:title=" ">
<polygon fill="#e0e0e0" stroke="#999999" points="413.38,-20 370.38,-20 370.38,0 413.38,0 413.38,-20"/>
<text text-anchor="middle" x="391.88" y="-6.5" font-family="Helvetica,sans-Serif" font-size="10.00">vector</text>
</a>
</g>
</g>
<!-- Node1&#45;&gt;Node8 -->
<g id="edge7_Node000001_Node000008" class="edge">
<title>Node1&#45;&gt;Node8</title>
<g id="a_edge7_Node000001_Node000008"><a xlink:title=" ">
<path fill="none" stroke="#63b8ff" d="M244.88,-55.59C276.87,-45.89 326.56,-30.82 359.16,-20.93"/>
<polygon fill="#63b8ff" stroke="#63b8ff" points="359.92,-24.35 368.47,-18.1 357.89,-17.65 359.92,-24.35"/>
</a>
</g>
</g>
</g>
</svg>
