<?xml version="1.0" encoding="UTF-8" standalone="no"?>
<!DOCTYPE svg PUBLIC "-//W3C//DTD SVG 1.1//EN"
 "http://www.w3.org/Graphics/SVG/1.1/DTD/svg11.dtd">
<!-- Generated by graphviz version 12.2.1 (20241206.2353)
 -->
<!-- Title: include/EyeAICore/Operators.hpp Pages: 1 -->
<svg width="523pt" height="86pt"
 viewBox="0.00 0.00 522.88 85.50" xmlns="http://www.w3.org/2000/svg" xmlns:xlink="http://www.w3.org/1999/xlink">
<g id="graph0" class="graph" transform="scale(1 1) rotate(0) translate(4 81.5)">
<title>include/EyeAICore/Operators.hpp</title>
<!-- Node1 -->
<g id="Node000001" class="node">
<title>Node1</title>
<g id="a_Node000001"><a xlink:title=" ">
<polygon fill="#999999" stroke="#666666" points="360.62,-77.5 184.12,-77.5 184.12,-56.75 360.62,-56.75 360.62,-77.5"/>
<text text-anchor="middle" x="272.38" y="-64" font-family="Helvetica,sans-Serif" font-size="10.00">include/EyeAICore/Operators.hpp</text>
</a>
</g>
</g>
<!-- Node2 -->
<g id="Node000002" class="node">
<title>Node2</title>
<g id="a_Node000002"><a xlink:href="DepthModel_8cpp.html" target="_top" xlink:title=" ">
<polygon fill="white" stroke="#666666" points="112.75,-20.75 0,-20.75 0,0 112.75,0 112.75,-20.75"/>
<text text-anchor="middle" x="56.38" y="-7.25" font-family="Helvetica,sans-Serif" font-size="10.00">src/DepthModel.cpp</text>
</a>
</g>
</g>
<!-- Node1&#45;&gt;Node2 -->
<g id="edge1_Node000001_Node000002" class="edge">
<title>Node1&#45;&gt;Node2</title>
<g id="a_edge1_Node000001_Node000002"><a xlink:title=" ">
<path fill="none" stroke="#63b8ff" d="M222.71,-53.54C183.89,-43.7 130.7,-30.22 95.02,-21.17"/>
<polygon fill="#63b8ff" stroke="#63b8ff" points="221.74,-56.9 232.29,-55.96 223.46,-50.12 221.74,-56.9"/>
</a>
</g>
</g>
<!-- Node3 -->
<g id="Node000003" class="node">
<title>Node3</title>
<g id="a_Node000003"><a xlink:href="MetricDepthModel_8cpp.html" target="_top" xlink:title=" ">
<polygon fill="white" stroke="#666666" points="274.12,-20.75 130.62,-20.75 130.62,0 274.12,0 274.12,-20.75"/>
<text text-anchor="middle" x="202.38" y="-7.25" font-family="Helvetica,sans-Serif" font-size="10.00">src/MetricDepthModel.cpp</text>
</a>
</g>
</g>
<!-- Node1&#45;&gt;Node3 -->
<g id="edge2_Node000001_Node000003" class="edge">
<title>Node1&#45;&gt;Node3</title>
<g id="a_edge2_Node000001_Node000003"><a xlink:title=" ">
<path fill="none" stroke="#63b8ff" d="M251.01,-49.41C239.14,-40.13 224.8,-28.92 214.78,-21.08"/>
<polygon fill="#63b8ff" stroke="#63b8ff" points="248.64,-52 258.67,-55.4 252.95,-46.49 248.64,-52"/>
</a>
</g>
</g>
<!-- Node4 -->
<g id="Node000004" class="node">
<title>Node4</title>
<g id="a_Node000004"><a xlink:href="Operators_8cpp.html" target="_top" xlink:title=" ">
<polygon fill="white" stroke="#666666" points="394.12,-20.75 292.62,-20.75 292.62,0 394.12,0 394.12,-20.75"/>
<text text-anchor="middle" x="343.38" y="-7.25" font-family="Helvetica,sans-Serif" font-size="10.00">src/Operators.cpp</text>
</a>
</g>
</g>
<!-- Node1&#45;&gt;Node4 -->
<g id="edge3_Node000001_Node000004" class="edge">
<title>Node1&#45;&gt;Node4</title>
<g id="a_edge3_Node000001_Node000004"><a xlink:title=" ">
<path fill="none" stroke="#63b8ff" d="M294.05,-49.41C306.08,-40.13 320.63,-28.92 330.79,-21.08"/>
<polygon fill="#63b8ff" stroke="#63b8ff" points="292.05,-46.53 286.27,-55.41 296.32,-52.08 292.05,-46.53"/>
</a>
</g>
</g>
<!-- Node5 -->
<g id="Node000005" class="node">
<title>Node5</title>
<g id="a_Node000005"><a xlink:href="YoloModel_8cpp.html" target="_top" xlink:title=" ">
<polygon fill="white" stroke="#666666" points="514.88,-20.75 411.88,-20.75 411.88,0 514.88,0 514.88,-20.75"/>
<text text-anchor="middle" x="463.38" y="-7.25" font-family="Helvetica,sans-Serif" font-size="10.00">src/YoloModel.cpp</text>
</a>
</g>
</g>
<!-- Node1&#45;&gt;Node5 -->
<g id="edge4_Node000001_Node000005" class="edge">
<title>Node1&#45;&gt;Node5</title>
<g id="a_edge4_Node000001_Node000005"><a xlink:title=" ">
<path fill="none" stroke="#63b8ff" d="M317.18,-53.28C351.42,-43.47 397.92,-30.14 429.2,-21.17"/>
<polygon fill="#63b8ff" stroke="#63b8ff" points="316.63,-49.8 307.98,-55.92 318.55,-56.53 316.63,-49.8"/>
</a>
</g>
</g>
</g>
</svg>
