<?xml version="1.0" encoding="UTF-8" standalone="no"?>
<!DOCTYPE svg PUBLIC "-//W3C//DTD SVG 1.1//EN"
 "http://www.w3.org/Graphics/SVG/1.1/DTD/svg11.dtd">
<!-- Generated by graphviz version 12.2.1 (20241206.2353)
 -->
<!-- Title: include/EyeAICore/Operators.hpp Pages: 1 -->
<svg width="486pt" height="84pt"
 viewBox="0.00 0.00 486.00 84.00" xmlns="http://www.w3.org/2000/svg" xmlns:xlink="http://www.w3.org/1999/xlink">
<g id="graph0" class="graph" transform="scale(1 1) rotate(0) translate(4 80)">
<title>include/EyeAICore/Operators.hpp</title>
<!-- Node1 -->
<g id="Node000001" class="node">
<title>Node1</title>
<g id="a_Node000001"><a xlink:title=" ">
<polygon fill="#999999" stroke="#666666" points="333,-76 170.75,-76 170.75,-56 333,-56 333,-76"/>
<text text-anchor="middle" x="251.88" y="-62.5" font-family="Helvetica,sans-Serif" font-size="10.00">include/EyeAICore/Operators.hpp</text>
</a>
</g>
</g>
<!-- Node2 -->
<g id="Node000002" class="node">
<title>Node2</title>
<g id="a_Node000002"><a xlink:href="DepthModel_8cpp.html" target="_top" xlink:title=" ">
<polygon fill="white" stroke="#666666" points="103.75,-20 0,-20 0,0 103.75,0 103.75,-20"/>
<text text-anchor="middle" x="51.88" y="-6.5" font-family="Helvetica,sans-Serif" font-size="10.00">src/DepthModel.cpp</text>
</a>
</g>
</g>
<!-- Node1&#45;&gt;Node2 -->
<g id="edge1_Node000001_Node000002" class="edge">
<title>Node1&#45;&gt;Node2</title>
<g id="a_edge1_Node000001_Node000002"><a xlink:title=" ">
<path fill="none" stroke="#63b8ff" d="M206.27,-52.69C170.05,-42.91 120.14,-29.43 86.98,-20.48"/>
<polygon fill="#63b8ff" stroke="#63b8ff" points="205.01,-55.97 215.58,-55.2 206.83,-49.21 205.01,-55.97"/>
</a>
</g>
</g>
<!-- Node3 -->
<g id="Node000003" class="node">
<title>Node3</title>
<g id="a_Node000003"><a xlink:href="MetricDepthModel_8cpp.html" target="_top" xlink:title=" ">
<polygon fill="white" stroke="#666666" points="252.25,-20 121.5,-20 121.5,0 252.25,0 252.25,-20"/>
<text text-anchor="middle" x="186.88" y="-6.5" font-family="Helvetica,sans-Serif" font-size="10.00">src/MetricDepthModel.cpp</text>
</a>
</g>
</g>
<!-- Node1&#45;&gt;Node3 -->
<g id="edge2_Node000001_Node000003" class="edge">
<title>Node1&#45;&gt;Node3</title>
<g id="a_edge2_Node000001_Node000003"><a xlink:title=" ">
<path fill="none" stroke="#63b8ff" d="M231.9,-48.4C220.78,-39.17 207.35,-28.01 198.07,-20.3"/>
<polygon fill="#63b8ff" stroke="#63b8ff" points="229.46,-50.93 239.39,-54.63 233.93,-45.54 229.46,-50.93"/>
</a>
</g>
</g>
<!-- Node4 -->
<g id="Node000004" class="node">
<title>Node4</title>
<g id="a_Node000004"><a xlink:href="Operators_8cpp.html" target="_top" xlink:title=" ">
<polygon fill="white" stroke="#666666" points="363.88,-20 269.88,-20 269.88,0 363.88,0 363.88,-20"/>
<text text-anchor="middle" x="316.88" y="-6.5" font-family="Helvetica,sans-Serif" font-size="10.00">src/Operators.cpp</text>
</a>
</g>
</g>
<!-- Node1&#45;&gt;Node4 -->
<g id="edge3_Node000001_Node000004" class="edge">
<title>Node1&#45;&gt;Node4</title>
<g id="a_edge3_Node000001_Node000004"><a xlink:title=" ">
<path fill="none" stroke="#63b8ff" d="M271.85,-48.4C282.97,-39.17 296.4,-28.01 305.68,-20.3"/>
<polygon fill="#63b8ff" stroke="#63b8ff" points="269.82,-45.54 264.36,-54.63 274.29,-50.93 269.82,-45.54"/>
</a>
</g>
</g>
<!-- Node5 -->
<g id="Node000005" class="node">
<title>Node5</title>
<g id="a_Node000005"><a xlink:href="YoloModel_8cpp.html" target="_top" xlink:title=" ">
<polygon fill="white" stroke="#666666" points="478,-20 381.75,-20 381.75,0 478,0 478,-20"/>
<text text-anchor="middle" x="429.88" y="-6.5" font-family="Helvetica,sans-Serif" font-size="10.00">src/YoloModel.cpp</text>
</a>
</g>
</g>
<!-- Node1&#45;&gt;Node5 -->
<g id="edge4_Node000001_Node000005" class="edge">
<title>Node1&#45;&gt;Node5</title>
<g id="a_edge4_Node000001_Node000005"><a xlink:title=" ">
<path fill="none" stroke="#63b8ff" d="M293.72,-52.31C325.85,-42.56 369.5,-29.32 398.63,-20.48"/>
<polygon fill="#63b8ff" stroke="#63b8ff" points="292.88,-48.9 284.33,-55.15 294.91,-55.6 292.88,-48.9"/>
</a>
</g>
</g>
</g>
</svg>
