<?xml version="1.0" encoding="UTF-8" standalone="no"?>
<!DOCTYPE svg PUBLIC "-//W3C//DTD SVG 1.1//EN"
 "http://www.w3.org/Graphics/SVG/1.1/DTD/svg11.dtd">
<!-- Generated by graphviz version 12.2.1 (20241206.2353)
 -->
<!-- Title: include/EyeAICore/Operators.hpp Pages: 1 -->
<svg width="754pt" height="276pt"
 viewBox="0.00 0.00 753.56 276.00" xmlns="http://www.w3.org/2000/svg" xmlns:xlink="http://www.w3.org/1999/xlink">
<g id="graph0" class="graph" transform="scale(1 1) rotate(0) translate(4 272)">
<title>include/EyeAICore/Operators.hpp</title>
<!-- Node1 -->
<g id="Node000001" class="node">
<title>Node1</title>
<g id="a_Node000001"><a xlink:title=" ">
<polygon fill="#999999" stroke="#666666" points="572.68,-268 410.43,-268 410.43,-248 572.68,-248 572.68,-268"/>
<text text-anchor="middle" x="491.56" y="-254.5" font-family="Helvetica,sans-Serif" font-size="10.00">include/EyeAICore/Operators.hpp</text>
</a>
</g>
</g>
<!-- Node2 -->
<g id="Node000002" class="node">
<title>Node2</title>
<g id="a_Node000002"><a xlink:href="TfLiteRuntime_8hpp.html" target="_top" xlink:title=" ">
<polygon fill="white" stroke="#666666" points="417.31,-144 297.81,-144 297.81,-112 417.31,-112 417.31,-144"/>
<text text-anchor="start" x="305.81" y="-130.5" font-family="Helvetica,sans-Serif" font-size="10.00">include/EyeAICore/tflite</text>
<text text-anchor="middle" x="357.56" y="-118.5" font-family="Helvetica,sans-Serif" font-size="10.00">/TfLiteRuntime.hpp</text>
</a>
</g>
</g>
<!-- Node1&#45;&gt;Node2 -->
<g id="edge1_Node000001_Node000002" class="edge">
<title>Node1&#45;&gt;Node2</title>
<g id="a_edge1_Node000001_Node000002"><a xlink:title=" ">
<path fill="none" stroke="#63b8ff" d="M429.56,-243.95C410.87,-237.23 391.83,-227.13 378.56,-212 361.9,-193 358.11,-162.63 357.44,-144.37"/>
<polygon fill="#63b8ff" stroke="#63b8ff" points="428.44,-247.27 439.04,-247.06 430.63,-240.62 428.44,-247.27"/>
</a>
</g>
</g>
<!-- Node4 -->
<g id="Node000004" class="node">
<title>Node4</title>
<g id="a_Node000004"><a xlink:href="DepthModel_8cpp.html" target="_top" xlink:title=" ">
<polygon fill="white" stroke="#666666" points="409.43,-20 305.68,-20 305.68,0 409.43,0 409.43,-20"/>
<text text-anchor="middle" x="357.56" y="-6.5" font-family="Helvetica,sans-Serif" font-size="10.00">src/DepthModel.cpp</text>
</a>
</g>
</g>
<!-- Node1&#45;&gt;Node4 -->
<g id="edge13_Node000001_Node000004" class="edge">
<title>Node1&#45;&gt;Node4</title>
<g id="a_edge13_Node000001_Node000004"><a xlink:title=" ">
<path fill="none" stroke="#63b8ff" d="M513.24,-240.82C558.69,-204.98 655.68,-117.27 604.56,-56 580.27,-26.88 474.89,-16.56 409.87,-12.93"/>
<polygon fill="#63b8ff" stroke="#63b8ff" points="511.37,-237.84 505.59,-246.72 515.65,-243.38 511.37,-237.84"/>
</a>
</g>
</g>
<!-- Node6 -->
<g id="Node000006" class="node">
<title>Node6</title>
<g id="a_Node000006"><a xlink:href="YoloModel_8cpp.html" target="_top" xlink:title=" ">
<polygon fill="white" stroke="#666666" points="143.68,-20 47.43,-20 47.43,0 143.68,0 143.68,-20"/>
<text text-anchor="middle" x="95.56" y="-6.5" font-family="Helvetica,sans-Serif" font-size="10.00">src/YoloModel.cpp</text>
</a>
</g>
</g>
<!-- Node1&#45;&gt;Node6 -->
<g id="edge15_Node000001_Node000006" class="edge">
<title>Node1&#45;&gt;Node6</title>
<g id="a_edge15_Node000001_Node000006"><a xlink:title=" ">
<path fill="none" stroke="#63b8ff" d="M399.02,-252.81C284.24,-242.05 92.92,-204.6 4.56,-76 -13.2,-50.16 27.67,-31.05 60.26,-20.47"/>
<polygon fill="#63b8ff" stroke="#63b8ff" points="398.45,-256.28 408.72,-253.67 399.07,-249.31 398.45,-256.28"/>
</a>
</g>
</g>
<!-- Node8 -->
<g id="Node000008" class="node">
<title>Node8</title>
<g id="a_Node000008"><a xlink:href="TfLiteUtils_8hpp.html" target="_top" xlink:title=" ">
<polygon fill="white" stroke="#666666" points="507.31,-212 387.81,-212 387.81,-180 507.31,-180 507.31,-212"/>
<text text-anchor="start" x="395.81" y="-198.5" font-family="Helvetica,sans-Serif" font-size="10.00">include/EyeAICore/tflite</text>
<text text-anchor="middle" x="447.56" y="-186.5" font-family="Helvetica,sans-Serif" font-size="10.00">/TfLiteUtils.hpp</text>
</a>
</g>
</g>
<!-- Node1&#45;&gt;Node8 -->
<g id="edge9_Node000001_Node000008" class="edge">
<title>Node1&#45;&gt;Node8</title>
<g id="a_edge9_Node000001_Node000008"><a xlink:title=" ">
<path fill="none" stroke="#63b8ff" d="M478.03,-238.55C471.82,-230.08 464.55,-220.16 458.66,-212.14"/>
<polygon fill="#63b8ff" stroke="#63b8ff" points="475.05,-240.41 483.79,-246.4 480.7,-236.27 475.05,-240.41"/>
</a>
</g>
</g>
<!-- Node9 -->
<g id="Node000009" class="node">
<title>Node9</title>
<g id="a_Node000009"><a xlink:href="TfLiteUtils_8cpp.html" target="_top" xlink:title=" ">
<polygon fill="white" stroke="#666666" points="594.56,-138 476.56,-138 476.56,-118 594.56,-118 594.56,-138"/>
<text text-anchor="middle" x="535.56" y="-124.5" font-family="Helvetica,sans-Serif" font-size="10.00">src/tflite/TfLiteUtils.cpp</text>
</a>
</g>
</g>
<!-- Node1&#45;&gt;Node9 -->
<g id="edge16_Node000001_Node000009" class="edge">
<title>Node1&#45;&gt;Node9</title>
<g id="a_edge16_Node000001_Node000009"><a xlink:title=" ">
<path fill="none" stroke="#63b8ff" d="M503.6,-238.14C508.18,-230.3 513.13,-220.95 516.56,-212 526.4,-186.33 531.97,-154.14 534.28,-138.46"/>
<polygon fill="#63b8ff" stroke="#63b8ff" points="500.76,-236.08 498.53,-246.43 506.73,-239.73 500.76,-236.08"/>
</a>
</g>
</g>
<!-- Node10 -->
<g id="Node000010" class="node">
<title>Node10</title>
<g id="a_Node000010"><a xlink:href="Operators_8cpp.html" target="_top" xlink:title=" ">
<polygon fill="white" stroke="#666666" points="745.56,-206 651.56,-206 651.56,-186 745.56,-186 745.56,-206"/>
<text text-anchor="middle" x="698.56" y="-192.5" font-family="Helvetica,sans-Serif" font-size="10.00">src/Operators.cpp</text>
</a>
</g>
</g>
<!-- Node1&#45;&gt;Node10 -->
<g id="edge14_Node000001_Node000010" class="edge">
<title>Node1&#45;&gt;Node10</title>
<g id="a_edge14_Node000001_Node000010"><a xlink:title=" ">
<path fill="none" stroke="#63b8ff" d="M534.94,-244.43C574.08,-233.08 630.77,-216.65 666.1,-206.41"/>
<polygon fill="#63b8ff" stroke="#63b8ff" points="533.99,-241.06 525.36,-247.2 535.94,-247.78 533.99,-241.06"/>
</a>
</g>
</g>
<!-- Node3 -->
<g id="Node000003" class="node">
<title>Node3</title>
<g id="a_Node000003"><a xlink:href="DepthModel_8hpp.html" target="_top" xlink:title=" ">
<polygon fill="white" stroke="#666666" points="443.56,-76 271.56,-76 271.56,-56 443.56,-56 443.56,-76"/>
<text text-anchor="middle" x="357.56" y="-62.5" font-family="Helvetica,sans-Serif" font-size="10.00">include/EyeAICore/DepthModel.hpp</text>
</a>
</g>
</g>
<!-- Node2&#45;&gt;Node3 -->
<g id="edge2_Node000002_Node000003" class="edge">
<title>Node2&#45;&gt;Node3</title>
<g id="a_edge2_Node000002_Node000003"><a xlink:title=" ">
<path fill="none" stroke="#63b8ff" d="M357.56,-100.08C357.56,-91.6 357.56,-82.8 357.56,-76.41"/>
<polygon fill="#63b8ff" stroke="#63b8ff" points="354.06,-100.03 357.56,-110.03 361.06,-100.03 354.06,-100.03"/>
</a>
</g>
</g>
<!-- Node2&#45;&gt;Node4 -->
<g id="edge6_Node000002_Node000004" class="edge">
<title>Node2&#45;&gt;Node4</title>
<g id="a_edge6_Node000002_Node000004"><a xlink:title=" ">
<path fill="none" stroke="#63b8ff" d="M297.31,-107.22C270.98,-95.07 248.84,-77.68 262.56,-56 273.98,-37.96 294.8,-27.01 314.05,-20.44"/>
<polygon fill="#63b8ff" stroke="#63b8ff" points="295.59,-110.28 306.16,-111.01 298.35,-103.85 295.59,-110.28"/>
</a>
</g>
</g>
<!-- Node5 -->
<g id="Node000005" class="node">
<title>Node5</title>
<g id="a_Node000005"><a xlink:href="YoloModel_8hpp.html" target="_top" xlink:title=" ">
<polygon fill="white" stroke="#666666" points="177.81,-76 13.31,-76 13.31,-56 177.81,-56 177.81,-76"/>
<text text-anchor="middle" x="95.56" y="-62.5" font-family="Helvetica,sans-Serif" font-size="10.00">include/EyeAICore/YoloModel.hpp</text>
</a>
</g>
</g>
<!-- Node2&#45;&gt;Node5 -->
<g id="edge4_Node000002_Node000005" class="edge">
<title>Node2&#45;&gt;Node5</title>
<g id="a_edge4_Node000002_Node000005"><a xlink:title=" ">
<path fill="none" stroke="#63b8ff" d="M286.53,-110.73C238.64,-99.77 177.12,-85.68 137.03,-76.5"/>
<polygon fill="#63b8ff" stroke="#63b8ff" points="285.45,-114.08 295.98,-112.9 287.01,-107.25 285.45,-114.08"/>
</a>
</g>
</g>
<!-- Node2&#45;&gt;Node6 -->
<g id="edge7_Node000002_Node000006" class="edge">
<title>Node2&#45;&gt;Node6</title>
<g id="a_edge7_Node000002_Node000006"><a xlink:title=" ">
<path fill="none" stroke="#63b8ff" d="M312.58,-107.09C255.46,-81.8 159.23,-39.19 116.77,-20.39"/>
<polygon fill="#63b8ff" stroke="#63b8ff" points="310.82,-110.14 321.38,-110.98 313.66,-103.73 310.82,-110.14"/>
</a>
</g>
</g>
<!-- Node7 -->
<g id="Node000007" class="node">
<title>Node7</title>
<g id="a_Node000007"><a xlink:href="TfLiteRuntime_8cpp.html" target="_top" xlink:title=" ">
<polygon fill="white" stroke="#666666" points="595.81,-76 461.31,-76 461.31,-56 595.81,-56 595.81,-76"/>
<text text-anchor="middle" x="528.56" y="-62.5" font-family="Helvetica,sans-Serif" font-size="10.00">src/tflite/TfLiteRuntime.cpp</text>
</a>
</g>
</g>
<!-- Node2&#45;&gt;Node7 -->
<g id="edge8_Node000002_Node000007" class="edge">
<title>Node2&#45;&gt;Node7</title>
<g id="a_edge8_Node000002_Node000007"><a xlink:title=" ">
<path fill="none" stroke="#63b8ff" d="M412.28,-107.8C442.07,-97.35 477.61,-84.88 501.5,-76.5"/>
<polygon fill="#63b8ff" stroke="#63b8ff" points="411.3,-104.43 403.02,-111.05 413.62,-111.04 411.3,-104.43"/>
</a>
</g>
</g>
<!-- Node3&#45;&gt;Node4 -->
<g id="edge3_Node000003_Node000004" class="edge">
<title>Node3&#45;&gt;Node4</title>
<g id="a_edge3_Node000003_Node000004"><a xlink:title=" ">
<path fill="none" stroke="#63b8ff" d="M357.56,-44.13C357.56,-35.9 357.56,-26.85 357.56,-20.3"/>
<polygon fill="#63b8ff" stroke="#63b8ff" points="354.06,-44.08 357.56,-54.08 361.06,-44.08 354.06,-44.08"/>
</a>
</g>
</g>
<!-- Node5&#45;&gt;Node6 -->
<g id="edge5_Node000005_Node000006" class="edge">
<title>Node5&#45;&gt;Node6</title>
<g id="a_edge5_Node000005_Node000006"><a xlink:title=" ">
<path fill="none" stroke="#63b8ff" d="M95.56,-44.13C95.56,-35.9 95.56,-26.85 95.56,-20.3"/>
<polygon fill="#63b8ff" stroke="#63b8ff" points="92.06,-44.08 95.56,-54.08 99.06,-44.08 92.06,-44.08"/>
</a>
</g>
</g>
<!-- Node8&#45;&gt;Node2 -->
<g id="edge10_Node000008_Node000002" class="edge">
<title>Node8&#45;&gt;Node2</title>
<g id="a_edge10_Node000008_Node000002"><a xlink:title=" ">
<path fill="none" stroke="#63b8ff" d="M417.76,-173.15C404.95,-163.75 390.28,-153 378.63,-144.45"/>
<polygon fill="#63b8ff" stroke="#63b8ff" points="415.33,-175.71 425.47,-178.8 419.47,-170.06 415.33,-175.71"/>
</a>
</g>
</g>
<!-- Node8&#45;&gt;Node7 -->
<g id="edge11_Node000008_Node000007" class="edge">
<title>Node8&#45;&gt;Node7</title>
<g id="a_edge11_Node000008_Node000007"><a xlink:title=" ">
<path fill="none" stroke="#63b8ff" d="M449.28,-168.4C451.48,-151.12 456.43,-128.78 467.56,-112 477.96,-96.32 495.78,-84.12 509.48,-76.4"/>
<polygon fill="#63b8ff" stroke="#63b8ff" points="445.82,-167.87 448.3,-178.17 452.78,-168.57 445.82,-167.87"/>
</a>
</g>
</g>
<!-- Node8&#45;&gt;Node9 -->
<g id="edge12_Node000008_Node000009" class="edge">
<title>Node8&#45;&gt;Node9</title>
<g id="a_edge12_Node000008_Node000009"><a xlink:title=" ">
<path fill="none" stroke="#63b8ff" d="M476.84,-173.04C492.58,-161.24 511.16,-147.3 523.14,-138.32"/>
<polygon fill="#63b8ff" stroke="#63b8ff" points="475.08,-169.98 469.18,-178.78 479.28,-175.58 475.08,-169.98"/>
</a>
</g>
</g>
</g>
</svg>
