<?xml version="1.0" encoding="UTF-8" standalone="no"?>
<!DOCTYPE svg PUBLIC "-//W3C//DTD SVG 1.1//EN"
 "http://www.w3.org/Graphics/SVG/1.1/DTD/svg11.dtd">
<!-- Generated by graphviz version 12.2.1 (20241206.2353)
 -->
<!-- Title: src/Operators.cpp Pages: 1 -->
<svg width="1049pt" height="320pt"
 viewBox="0.00 0.00 1048.62 320.00" xmlns="http://www.w3.org/2000/svg" xmlns:xlink="http://www.w3.org/1999/xlink">
<g id="graph0" class="graph" transform="scale(1 1) rotate(0) translate(4 316)">
<title>src/Operators.cpp</title>
<!-- Node1 -->
<g id="Node000001" class="node">
<title>Node1</title>
<g id="a_Node000001"><a xlink:title=" ">
<polygon fill="#999999" stroke="#666666" points="584.25,-312 490.25,-312 490.25,-292 584.25,-292 584.25,-312"/>
<text text-anchor="middle" x="537.25" y="-298.5" font-family="Helvetica,sans-Serif" font-size="10.00">src/Operators.cpp</text>
</a>
</g>
</g>
<!-- Node2 -->
<g id="Node000002" class="node">
<title>Node2</title>
<g id="a_Node000002"><a xlink:href="Operators_8hpp.html" target="_top" xlink:title=" ">
<polygon fill="white" stroke="#666666" points="128.5,-144 0,-144 0,-124 128.5,-124 128.5,-144"/>
<text text-anchor="middle" x="64.25" y="-130.5" font-family="Helvetica,sans-Serif" font-size="10.00">EyeAICore/Operators.hpp</text>
</a>
</g>
</g>
<!-- Node1&#45;&gt;Node2 -->
<g id="edge1_Node000001_Node000002" class="edge">
<title>Node1&#45;&gt;Node2</title>
<g id="a_edge1_Node000001_Node000002"><a xlink:title=" ">
<path fill="none" stroke="#63b8ff" d="M489.84,-299.45C403.13,-295.92 222.88,-285.22 168.25,-256 124.04,-232.36 90.36,-181.67 74.42,-153.99"/>
<polygon fill="#63b8ff" stroke="#63b8ff" points="77.69,-152.66 69.76,-145.63 71.57,-156.07 77.69,-152.66"/>
</a>
</g>
</g>
<!-- Node9 -->
<g id="Node000009" class="node">
<title>Node9</title>
<g id="a_Node000009"><a xlink:href="MetricDepthModel_8hpp.html" target="_top" xlink:title=" ">
<polygon fill="white" stroke="#666666" points="342.88,-256 177.62,-256 177.62,-236 342.88,-236 342.88,-256"/>
<text text-anchor="middle" x="260.25" y="-242.5" font-family="Helvetica,sans-Serif" font-size="10.00">EyeAICore/MetricDepthModel.hpp</text>
</a>
</g>
</g>
<!-- Node1&#45;&gt;Node9 -->
<g id="edge8_Node000001_Node000009" class="edge">
<title>Node1&#45;&gt;Node9</title>
<g id="a_edge8_Node000001_Node000009"><a xlink:title=" ">
<path fill="none" stroke="#63b8ff" d="M489.95,-291.78C442.97,-282.62 370.8,-268.55 319.91,-258.63"/>
<polygon fill="#63b8ff" stroke="#63b8ff" points="320.72,-255.22 310.24,-256.75 319.39,-262.09 320.72,-255.22"/>
</a>
</g>
</g>
<!-- Node20 -->
<g id="Node000020" class="node">
<title>Node20</title>
<g id="a_Node000020"><a xlink:href="Rel2AbsDepthModel_8hpp.html" target="_top" xlink:title=" ">
<polygon fill="white" stroke="#666666" points="625.12,-256 449.38,-256 449.38,-236 625.12,-236 625.12,-256"/>
<text text-anchor="middle" x="537.25" y="-242.5" font-family="Helvetica,sans-Serif" font-size="10.00">EyeAICore/Rel2AbsDepthModel.hpp</text>
</a>
</g>
</g>
<!-- Node1&#45;&gt;Node20 -->
<g id="edge32_Node000001_Node000020" class="edge">
<title>Node1&#45;&gt;Node20</title>
<g id="a_edge32_Node000001_Node000020"><a xlink:title=" ">
<path fill="none" stroke="#63b8ff" d="M537.25,-291.59C537.25,-285.01 537.25,-275.96 537.25,-267.73"/>
<polygon fill="#63b8ff" stroke="#63b8ff" points="540.75,-267.81 537.25,-257.81 533.75,-267.81 540.75,-267.81"/>
</a>
</g>
</g>
<!-- Node21 -->
<g id="Node000021" class="node">
<title>Node21</title>
<g id="a_Node000021"><a xlink:href="Profiling_8hpp.html" target="_top" xlink:title=" ">
<polygon fill="white" stroke="#666666" points="895.25,-256 753.25,-256 753.25,-236 895.25,-236 895.25,-256"/>
<text text-anchor="middle" x="824.25" y="-242.5" font-family="Helvetica,sans-Serif" font-size="10.00">EyeAICore/utils/Profiling.hpp</text>
</a>
</g>
</g>
<!-- Node1&#45;&gt;Node21 -->
<g id="edge37_Node000001_Node000021" class="edge">
<title>Node1&#45;&gt;Node21</title>
<g id="a_edge37_Node000001_Node000021"><a xlink:title=" ">
<path fill="none" stroke="#63b8ff" d="M584.64,-292.08C633.4,-282.91 709.54,-268.58 762.87,-258.55"/>
<polygon fill="#63b8ff" stroke="#63b8ff" points="763.22,-262.04 772.4,-256.76 761.93,-255.17 763.22,-262.04"/>
</a>
</g>
</g>
<!-- Node24 -->
<g id="Node000024" class="node">
<title>Node24</title>
<g id="a_Node000024"><a xlink:title=" ">
<polygon fill="#e0e0e0" stroke="#999999" points="969.12,-256 913.38,-256 913.38,-236 969.12,-236 969.12,-256"/>
<text text-anchor="middle" x="941.25" y="-242.5" font-family="Helvetica,sans-Serif" font-size="10.00">algorithm</text>
</a>
</g>
</g>
<!-- Node1&#45;&gt;Node24 -->
<g id="edge41_Node000001_Node000024" class="edge">
<title>Node1&#45;&gt;Node24</title>
<g id="a_edge41_Node000001_Node000024"><a xlink:title=" ">
<path fill="none" stroke="#63b8ff" d="M584.73,-296.96C652.82,-290.78 782.28,-277.58 901.87,-256.24"/>
<polygon fill="#63b8ff" stroke="#63b8ff" points="902.34,-259.72 911.55,-254.49 901.09,-252.83 902.34,-259.72"/>
</a>
</g>
</g>
<!-- Node3 -->
<g id="Node000003" class="node">
<title>Node3</title>
<g id="a_Node000003"><a xlink:href="TensorBuffer_8hpp.html" target="_top" xlink:title=" ">
<polygon fill="white" stroke="#666666" points="204.5,-82 64,-82 64,-62 204.5,-62 204.5,-82"/>
<text text-anchor="middle" x="134.25" y="-68.5" font-family="Helvetica,sans-Serif" font-size="10.00">EyeAICore/TensorBuffer.hpp</text>
</a>
</g>
</g>
<!-- Node2&#45;&gt;Node3 -->
<g id="edge2_Node000002_Node000003" class="edge">
<title>Node2&#45;&gt;Node3</title>
<g id="a_edge2_Node000002_Node000003"><a xlink:title=" ">
<path fill="none" stroke="#63b8ff" d="M75.19,-123.62C85.83,-114.5 102.23,-100.45 115.05,-89.46"/>
<polygon fill="#63b8ff" stroke="#63b8ff" points="117.15,-92.26 122.47,-83.1 112.6,-86.95 117.15,-92.26"/>
</a>
</g>
</g>
<!-- Node4 -->
<g id="Node000004" class="node">
<title>Node4</title>
<g id="a_Node000004"><a xlink:title=" ">
<polygon fill="#e0e0e0" stroke="#999999" points="125.88,-20 80.62,-20 80.62,0 125.88,0 125.88,-20"/>
<text text-anchor="middle" x="103.25" y="-6.5" font-family="Helvetica,sans-Serif" font-size="10.00">cstdint</text>
</a>
</g>
</g>
<!-- Node3&#45;&gt;Node4 -->
<g id="edge3_Node000003_Node000004" class="edge">
<title>Node3&#45;&gt;Node4</title>
<g id="a_edge3_Node000003_Node000004"><a xlink:title=" ">
<path fill="none" stroke="#63b8ff" d="M129.41,-61.62C125.06,-53.21 118.54,-40.6 113.1,-30.07"/>
<polygon fill="#63b8ff" stroke="#63b8ff" points="116.35,-28.74 108.65,-21.46 110.13,-31.95 116.35,-28.74"/>
</a>
</g>
</g>
<!-- Node5 -->
<g id="Node000005" class="node">
<title>Node5</title>
<g id="a_Node000005"><a xlink:title=" ">
<polygon fill="#e0e0e0" stroke="#999999" points="345.88,-20 294.62,-20 294.62,0 345.88,0 345.88,-20"/>
<text text-anchor="middle" x="320.25" y="-6.5" font-family="Helvetica,sans-Serif" font-size="10.00">memory</text>
</a>
</g>
</g>
<!-- Node3&#45;&gt;Node5 -->
<g id="edge4_Node000003_Node000005" class="edge">
<title>Node3&#45;&gt;Node5</title>
<g id="a_edge4_Node000003_Node000005"><a xlink:title=" ">
<path fill="none" stroke="#63b8ff" d="M163.31,-61.62C195.77,-51.16 248.35,-34.19 283.6,-22.82"/>
<polygon fill="#63b8ff" stroke="#63b8ff" points="284.5,-26.21 292.95,-19.81 282.36,-19.55 284.5,-26.21"/>
</a>
</g>
</g>
<!-- Node6 -->
<g id="Node000006" class="node">
<title>Node6</title>
<g id="a_Node000006"><a xlink:title=" ">
<polygon fill="#e0e0e0" stroke="#999999" points="276.75,-20 239.75,-20 239.75,0 276.75,0 276.75,-20"/>
<text text-anchor="middle" x="258.25" y="-6.5" font-family="Helvetica,sans-Serif" font-size="10.00">span</text>
</a>
</g>
</g>
<!-- Node3&#45;&gt;Node6 -->
<g id="edge5_Node000003_Node000006" class="edge">
<title>Node3&#45;&gt;Node6</title>
<g id="a_edge5_Node000003_Node000006"><a xlink:title=" ">
<path fill="none" stroke="#63b8ff" d="M153.62,-61.62C173.85,-51.84 205.81,-36.37 229.09,-25.11"/>
<polygon fill="#63b8ff" stroke="#63b8ff" points="230.58,-28.28 238.05,-20.77 227.53,-21.98 230.58,-28.28"/>
</a>
</g>
</g>
<!-- Node7 -->
<g id="Node000007" class="node">
<title>Node7</title>
<g id="a_Node000007"><a xlink:title=" ">
<polygon fill="#e0e0e0" stroke="#999999" points="614.88,-20 569.62,-20 569.62,0 614.88,0 614.88,-20"/>
<text text-anchor="middle" x="592.25" y="-6.5" font-family="Helvetica,sans-Serif" font-size="10.00">variant</text>
</a>
</g>
</g>
<!-- Node3&#45;&gt;Node7 -->
<g id="edge6_Node000003_Node000007" class="edge">
<title>Node3&#45;&gt;Node7</title>
<g id="a_edge6_Node000003_Node000007"><a xlink:title=" ">
<path fill="none" stroke="#63b8ff" d="M204.81,-61.76C304.84,-48.65 484,-25.18 558.41,-15.43"/>
<polygon fill="#63b8ff" stroke="#63b8ff" points="558.46,-18.96 567.92,-14.19 557.55,-12.02 558.46,-18.96"/>
</a>
</g>
</g>
<!-- Node8 -->
<g id="Node000008" class="node">
<title>Node8</title>
<g id="a_Node000008"><a xlink:title=" ">
<polygon fill="#e0e0e0" stroke="#999999" points="186.75,-20 143.75,-20 143.75,0 186.75,0 186.75,-20"/>
<text text-anchor="middle" x="165.25" y="-6.5" font-family="Helvetica,sans-Serif" font-size="10.00">vector</text>
</a>
</g>
</g>
<!-- Node3&#45;&gt;Node8 -->
<g id="edge7_Node000003_Node000008" class="edge">
<title>Node3&#45;&gt;Node8</title>
<g id="a_edge7_Node000003_Node000008"><a xlink:title=" ">
<path fill="none" stroke="#63b8ff" d="M139.09,-61.62C143.44,-53.21 149.96,-40.6 155.4,-30.07"/>
<polygon fill="#63b8ff" stroke="#63b8ff" points="158.37,-31.95 159.85,-21.46 152.15,-28.74 158.37,-31.95"/>
</a>
</g>
</g>
<!-- Node9&#45;&gt;Node3 -->
<g id="edge9_Node000009_Node000003" class="edge">
<title>Node9&#45;&gt;Node3</title>
<g id="a_edge9_Node000009_Node000003"><a xlink:title=" ">
<path fill="none" stroke="#63b8ff" d="M233.23,-235.51C215.96,-228.2 194.26,-216.53 180.25,-200 153.68,-168.65 141.93,-120.71 137.16,-93.58"/>
<polygon fill="#63b8ff" stroke="#63b8ff" points="140.65,-93.23 135.63,-83.9 133.74,-94.33 140.65,-93.23"/>
</a>
</g>
</g>
<!-- Node9&#45;&gt;Node5 -->
<g id="edge31_Node000009_Node000005" class="edge">
<title>Node9&#45;&gt;Node5</title>
<g id="a_edge31_Node000009_Node000005"><a xlink:title=" ">
<path fill="none" stroke="#63b8ff" d="M262.68,-235.54C271.59,-200.77 302.66,-79.61 315.07,-31.21"/>
<polygon fill="#63b8ff" stroke="#63b8ff" points="318.39,-32.35 317.48,-21.79 311.61,-30.61 318.39,-32.35"/>
</a>
</g>
</g>
<!-- Node10 -->
<g id="Node000010" class="node">
<title>Node10</title>
<g id="a_Node000010"><a xlink:href="TfLiteRuntime_8hpp.html" target="_top" xlink:title=" ">
<polygon fill="white" stroke="#666666" points="506.75,-200 337.75,-200 337.75,-180 506.75,-180 506.75,-200"/>
<text text-anchor="middle" x="422.25" y="-186.5" font-family="Helvetica,sans-Serif" font-size="10.00">EyeAICore/tflite/TfLiteRuntime.hpp</text>
</a>
</g>
</g>
<!-- Node9&#45;&gt;Node10 -->
<g id="edge10_Node000009_Node000010" class="edge">
<title>Node9&#45;&gt;Node10</title>
<g id="a_edge10_Node000009_Node000010"><a xlink:title=" ">
<path fill="none" stroke="#63b8ff" d="M288.47,-235.59C314.67,-226.86 353.93,-213.77 383.15,-204.03"/>
<polygon fill="#63b8ff" stroke="#63b8ff" points="384,-207.44 392.38,-200.96 381.78,-200.8 384,-207.44"/>
</a>
</g>
</g>
<!-- Node10&#45;&gt;Node3 -->
<g id="edge11_Node000010_Node000003" class="edge">
<title>Node10&#45;&gt;Node3</title>
<g id="a_edge11_Node000010_Node000003"><a xlink:title=" ">
<path fill="none" stroke="#63b8ff" d="M393.28,-179.55C367.18,-170.86 327.86,-157.34 294.25,-144 248.32,-125.77 196.18,-102.05 164.25,-87.17"/>
<polygon fill="#63b8ff" stroke="#63b8ff" points="166.15,-84.2 155.61,-83.13 163.18,-90.54 166.15,-84.2"/>
</a>
</g>
</g>
<!-- Node10&#45;&gt;Node5 -->
<g id="edge27_Node000010_Node000005" class="edge">
<title>Node10&#45;&gt;Node5</title>
<g id="a_edge27_Node000010_Node000005"><a xlink:title=" ">
<path fill="none" stroke="#63b8ff" d="M408.95,-179.63C387.45,-163.65 345.62,-128.83 327.25,-88 319.17,-70.03 318.05,-47.36 318.57,-31.28"/>
<polygon fill="#63b8ff" stroke="#63b8ff" points="322.05,-31.72 319.15,-21.53 315.06,-31.3 322.05,-31.72"/>
</a>
</g>
</g>
<!-- Node10&#45;&gt;Node6 -->
<g id="edge28_Node000010_Node000006" class="edge">
<title>Node10&#45;&gt;Node6</title>
<g id="a_edge28_Node000010_Node000006"><a xlink:title=" ">
<path fill="none" stroke="#63b8ff" d="M400.86,-179.6C384.6,-171.73 362.36,-159.32 346.25,-144 310.28,-109.78 281.53,-58.26 267.53,-30.45"/>
<polygon fill="#63b8ff" stroke="#63b8ff" points="270.82,-29.21 263.27,-21.77 264.53,-32.29 270.82,-29.21"/>
</a>
</g>
</g>
<!-- Node11 -->
<g id="Node000011" class="node">
<title>Node11</title>
<g id="a_Node000011"><a xlink:href="TfLiteUtils_8hpp.html" target="_top" xlink:title=" ">
<polygon fill="white" stroke="#666666" points="606.12,-144 526.38,-144 526.38,-124 606.12,-124 606.12,-144"/>
<text text-anchor="middle" x="566.25" y="-130.5" font-family="Helvetica,sans-Serif" font-size="10.00">TfLiteUtils.hpp</text>
</a>
</g>
</g>
<!-- Node10&#45;&gt;Node11 -->
<g id="edge12_Node000010_Node000011" class="edge">
<title>Node10&#45;&gt;Node11</title>
<g id="a_edge12_Node000010_Node000011"><a xlink:title=" ">
<path fill="none" stroke="#63b8ff" d="M447.33,-179.59C470.32,-170.97 504.6,-158.12 530.46,-148.42"/>
<polygon fill="#63b8ff" stroke="#63b8ff" points="531.42,-151.8 539.55,-145.01 528.96,-145.25 531.42,-151.8"/>
</a>
</g>
</g>
<!-- Node14 -->
<g id="Node000014" class="node">
<title>Node14</title>
<g id="a_Node000014"><a xlink:title=" ">
<polygon fill="#e0e0e0" stroke="#999999" points="820.25,-20 780.25,-20 780.25,0 820.25,0 820.25,-20"/>
<text text-anchor="middle" x="800.25" y="-6.5" font-family="Helvetica,sans-Serif" font-size="10.00">string</text>
</a>
</g>
</g>
<!-- Node10&#45;&gt;Node14 -->
<g id="edge29_Node000010_Node000014" class="edge">
<title>Node10&#45;&gt;Node14</title>
<g id="a_edge29_Node000010_Node000014"><a xlink:title=" ">
<path fill="none" stroke="#63b8ff" d="M479.5,-179.53C518.49,-172.15 570.87,-160.39 615.25,-144 665.97,-125.27 679.62,-119.94 723.25,-88 747.19,-70.48 770.72,-45.5 785.34,-28.79"/>
<polygon fill="#63b8ff" stroke="#63b8ff" points="787.65,-31.48 791.51,-21.61 782.34,-26.92 787.65,-31.48"/>
</a>
</g>
</g>
<!-- Node17 -->
<g id="Node000017" class="node">
<title>Node17</title>
<g id="a_Node000017"><a xlink:title=" ">
<polygon fill="#e0e0e0" stroke="#999999" points="836,-82 770.5,-82 770.5,-62 836,-62 836,-82"/>
<text text-anchor="middle" x="803.25" y="-68.5" font-family="Helvetica,sans-Serif" font-size="10.00">string_view</text>
</a>
</g>
</g>
<!-- Node10&#45;&gt;Node17 -->
<g id="edge30_Node000010_Node000017" class="edge">
<title>Node10&#45;&gt;Node17</title>
<g id="a_edge30_Node000010_Node000017"><a xlink:title=" ">
<path fill="none" stroke="#63b8ff" d="M507.25,-185.48C592.25,-180.58 715.97,-169.25 756.25,-144 775.28,-132.07 788.28,-109.29 795.7,-92.74"/>
<polygon fill="#63b8ff" stroke="#63b8ff" points="798.77,-94.47 799.37,-83.89 792.31,-91.79 798.77,-94.47"/>
</a>
</g>
</g>
<!-- Node18 -->
<g id="Node000018" class="node">
<title>Node18</title>
<g id="a_Node000018"><a xlink:title=" ">
<polygon fill="#e0e0e0" stroke="#999999" points="429.88,-88 336.62,-88 336.62,-56 429.88,-56 429.88,-88"/>
<text text-anchor="start" x="344.62" y="-74.5" font-family="Helvetica,sans-Serif" font-size="10.00">tensorflow/lite/c/c</text>
<text text-anchor="middle" x="383.25" y="-62.5" font-family="Helvetica,sans-Serif" font-size="10.00">_api.h</text>
</a>
</g>
</g>
<!-- Node10&#45;&gt;Node18 -->
<g id="edge25_Node000010_Node000018" class="edge">
<title>Node10&#45;&gt;Node18</title>
<g id="a_edge25_Node000010_Node000018"><a xlink:title=" ">
<path fill="none" stroke="#63b8ff" d="M419.06,-179.51C413.22,-162.15 400.64,-124.72 392.06,-99.19"/>
<polygon fill="#63b8ff" stroke="#63b8ff" points="395.42,-98.21 388.91,-89.85 388.78,-100.44 395.42,-98.21"/>
</a>
</g>
</g>
<!-- Node19 -->
<g id="Node000019" class="node">
<title>Node19</title>
<g id="a_Node000019"><a xlink:title=" ">
<polygon fill="#e0e0e0" stroke="#999999" points="570.12,-88 448.38,-88 448.38,-56 570.12,-56 570.12,-88"/>
<text text-anchor="start" x="456.38" y="-74.5" font-family="Helvetica,sans-Serif" font-size="10.00">tensorflow/lite/delegates</text>
<text text-anchor="middle" x="509.25" y="-62.5" font-family="Helvetica,sans-Serif" font-size="10.00">/gpu/delegate.h</text>
</a>
</g>
</g>
<!-- Node10&#45;&gt;Node19 -->
<g id="edge26_Node000010_Node000019" class="edge">
<title>Node10&#45;&gt;Node19</title>
<g id="a_edge26_Node000010_Node000019"><a xlink:title=" ">
<path fill="none" stroke="#63b8ff" d="M429.37,-179.51C442.68,-161.75 471.74,-123.02 490.89,-97.48"/>
<polygon fill="#63b8ff" stroke="#63b8ff" points="493.58,-99.72 496.78,-89.62 487.98,-95.52 493.58,-99.72"/>
</a>
</g>
</g>
<!-- Node11&#45;&gt;Node3 -->
<g id="edge13_Node000011_Node000003" class="edge">
<title>Node11&#45;&gt;Node3</title>
<g id="a_edge13_Node000011_Node000003"><a xlink:title=" ">
<path fill="none" stroke="#63b8ff" d="M526,-127.41C454.92,-117.54 305.97,-96.85 213.6,-84.02"/>
<polygon fill="#63b8ff" stroke="#63b8ff" points="214.23,-80.57 203.84,-82.67 213.27,-87.51 214.23,-80.57"/>
</a>
</g>
</g>
<!-- Node11&#45;&gt;Node5 -->
<g id="edge19_Node000011_Node000005" class="edge">
<title>Node11&#45;&gt;Node5</title>
<g id="a_edge19_Node000011_Node000005"><a xlink:title=" ">
<path fill="none" stroke="#63b8ff" d="M579.23,-123.56C598.63,-108.34 631,-77.87 612.25,-56 579.83,-18.2 428.58,-11.85 357.43,-10.99"/>
<polygon fill="#63b8ff" stroke="#63b8ff" points="357.87,-7.5 347.84,-10.91 357.81,-14.5 357.87,-7.5"/>
</a>
</g>
</g>
<!-- Node11&#45;&gt;Node6 -->
<g id="edge21_Node000011_Node000006" class="edge">
<title>Node11&#45;&gt;Node6</title>
<g id="a_edge21_Node000011_Node000006"><a xlink:title=" ">
<path fill="none" stroke="#63b8ff" d="M572.09,-123.63C581.21,-107.67 596.14,-75.09 579.25,-56 537.67,-9.02 366.6,-32.05 287.91,-19.85"/>
<polygon fill="#63b8ff" stroke="#63b8ff" points="288.96,-16.49 278.48,-18.06 287.66,-23.36 288.96,-16.49"/>
</a>
</g>
</g>
<!-- Node12 -->
<g id="Node000012" class="node">
<title>Node12</title>
<g id="a_Node000012"><a xlink:href="Errors_8hpp.html" target="_top" xlink:title=" ">
<polygon fill="white" stroke="#666666" points="1025.75,-82 892.75,-82 892.75,-62 1025.75,-62 1025.75,-82"/>
<text text-anchor="middle" x="959.25" y="-68.5" font-family="Helvetica,sans-Serif" font-size="10.00">EyeAICore/utils/Errors.hpp</text>
</a>
</g>
</g>
<!-- Node11&#45;&gt;Node12 -->
<g id="edge14_Node000011_Node000012" class="edge">
<title>Node11&#45;&gt;Node12</title>
<g id="a_edge14_Node000011_Node000012"><a xlink:title=" ">
<path fill="none" stroke="#63b8ff" d="M606.46,-126.86C672.14,-116.83 803.36,-96.8 885.94,-84.19"/>
<polygon fill="#63b8ff" stroke="#63b8ff" points="886.4,-87.66 895.76,-82.69 885.34,-80.74 886.4,-87.66"/>
</a>
</g>
</g>
<!-- Node16 -->
<g id="Node000016" class="node">
<title>Node16</title>
<g id="a_Node000016"><a xlink:title=" ">
<polygon fill="#e0e0e0" stroke="#999999" points="714.12,-82 664.38,-82 664.38,-62 714.12,-62 714.12,-82"/>
<text text-anchor="middle" x="689.25" y="-68.5" font-family="Helvetica,sans-Serif" font-size="10.00">optional</text>
</a>
</g>
</g>
<!-- Node11&#45;&gt;Node16 -->
<g id="edge20_Node000011_Node000016" class="edge">
<title>Node11&#45;&gt;Node16</title>
<g id="a_edge20_Node000011_Node000016"><a xlink:title=" ">
<path fill="none" stroke="#63b8ff" d="M585.47,-123.62C605.42,-113.89 636.87,-98.55 659.92,-87.31"/>
<polygon fill="#63b8ff" stroke="#63b8ff" points="661.35,-90.5 668.81,-82.97 658.28,-84.21 661.35,-90.5"/>
</a>
</g>
</g>
<!-- Node11&#45;&gt;Node17 -->
<g id="edge22_Node000011_Node000017" class="edge">
<title>Node11&#45;&gt;Node17</title>
<g id="a_edge22_Node000011_Node000017"><a xlink:title=" ">
<path fill="none" stroke="#63b8ff" d="M603.54,-123.56C645.63,-112.9 714.06,-95.58 758.87,-84.24"/>
<polygon fill="#63b8ff" stroke="#63b8ff" points="759.7,-87.64 768.53,-81.79 757.98,-80.85 759.7,-87.64"/>
</a>
</g>
</g>
<!-- Node11&#45;&gt;Node18 -->
<g id="edge23_Node000011_Node000018" class="edge">
<title>Node11&#45;&gt;Node18</title>
<g id="a_edge23_Node000011_Node000018"><a xlink:title=" ">
<path fill="none" stroke="#63b8ff" d="M537.66,-123.62C511.83,-115.16 473.03,-102.44 440.79,-91.87"/>
<polygon fill="#63b8ff" stroke="#63b8ff" points="442.17,-88.63 431.58,-88.85 439.99,-95.29 442.17,-88.63"/>
</a>
</g>
</g>
<!-- Node11&#45;&gt;Node19 -->
<g id="edge24_Node000011_Node000019" class="edge">
<title>Node11&#45;&gt;Node19</title>
<g id="a_edge24_Node000011_Node000019"><a xlink:title=" ">
<path fill="none" stroke="#63b8ff" d="M557.34,-123.62C550.44,-116.36 540.56,-105.96 531.55,-96.48"/>
<polygon fill="#63b8ff" stroke="#63b8ff" points="534.1,-94.08 524.68,-89.24 529.03,-98.9 534.1,-94.08"/>
</a>
</g>
</g>
<!-- Node12&#45;&gt;Node7 -->
<g id="edge18_Node000012_Node000007" class="edge">
<title>Node12&#45;&gt;Node7</title>
<g id="a_edge18_Node000012_Node000007"><a xlink:title=" ">
<path fill="none" stroke="#63b8ff" d="M909.17,-61.51C898.95,-59.63 888.26,-57.71 878.25,-56 787.51,-40.46 680.22,-24.12 626.51,-16.08"/>
<polygon fill="#63b8ff" stroke="#63b8ff" points="627.17,-12.64 616.77,-14.63 626.14,-19.57 627.17,-12.64"/>
</a>
</g>
</g>
<!-- Node13 -->
<g id="Node000013" class="node">
<title>Node13</title>
<g id="a_Node000013"><a xlink:title=" ">
<polygon fill="#e0e0e0" stroke="#999999" points="940.12,-20 896.38,-20 896.38,0 940.12,0 940.12,-20"/>
<text text-anchor="middle" x="918.25" y="-6.5" font-family="Helvetica,sans-Serif" font-size="10.00">format</text>
</a>
</g>
</g>
<!-- Node12&#45;&gt;Node13 -->
<g id="edge15_Node000012_Node000013" class="edge">
<title>Node12&#45;&gt;Node13</title>
<g id="a_edge15_Node000012_Node000013"><a xlink:title=" ">
<path fill="none" stroke="#63b8ff" d="M952.84,-61.62C946.97,-53.03 938.11,-40.07 930.83,-29.41"/>
<polygon fill="#63b8ff" stroke="#63b8ff" points="933.86,-27.64 925.33,-21.36 928.08,-31.59 933.86,-27.64"/>
</a>
</g>
</g>
<!-- Node12&#45;&gt;Node14 -->
<g id="edge16_Node000012_Node000014" class="edge">
<title>Node12&#45;&gt;Node14</title>
<g id="a_edge16_Node000012_Node000014"><a xlink:title=" ">
<path fill="none" stroke="#63b8ff" d="M934.41,-61.62C906.53,-51.1 861.26,-34.02 831.13,-22.65"/>
<polygon fill="#63b8ff" stroke="#63b8ff" points="832.4,-19.39 821.8,-19.13 829.92,-25.94 832.4,-19.39"/>
</a>
</g>
</g>
<!-- Node15 -->
<g id="Node000015" class="node">
<title>Node15</title>
<g id="a_Node000015"><a xlink:title=" ">
<polygon fill="#e0e0e0" stroke="#999999" points="1040.62,-20 957.88,-20 957.88,0 1040.62,0 1040.62,-20"/>
<text text-anchor="middle" x="999.25" y="-6.5" font-family="Helvetica,sans-Serif" font-size="10.00">tl/expected.hpp</text>
</a>
</g>
</g>
<!-- Node12&#45;&gt;Node15 -->
<g id="edge17_Node000012_Node000015" class="edge">
<title>Node12&#45;&gt;Node15</title>
<g id="a_edge17_Node000012_Node000015"><a xlink:title=" ">
<path fill="none" stroke="#63b8ff" d="M965.5,-61.62C971.23,-53.03 979.87,-40.07 986.98,-29.41"/>
<polygon fill="#63b8ff" stroke="#63b8ff" points="989.7,-31.63 992.34,-21.37 983.88,-27.75 989.7,-31.63"/>
</a>
</g>
</g>
<!-- Node20&#45;&gt;Node3 -->
<g id="edge33_Node000020_Node000003" class="edge">
<title>Node20&#45;&gt;Node3</title>
<g id="a_edge33_Node000020_Node000003"><a xlink:title=" ">
<path fill="none" stroke="#63b8ff" d="M462.1,-235.51C421.66,-228.75 371.53,-217.64 329.25,-200 259.68,-170.98 187.93,-116.8 154.14,-89.55"/>
<polygon fill="#63b8ff" stroke="#63b8ff" points="156.42,-86.89 146.46,-83.27 151.99,-92.31 156.42,-86.89"/>
</a>
</g>
</g>
<!-- Node20&#45;&gt;Node5 -->
<g id="edge36_Node000020_Node000005" class="edge">
<title>Node20&#45;&gt;Node5</title>
<g id="a_edge36_Node000020_Node000005"><a xlink:title=" ">
<path fill="none" stroke="#63b8ff" d="M585.2,-235.53C691.42,-212.59 930.63,-149.01 845.25,-56 828.73,-38 474.08,-18.7 357.22,-12.81"/>
<polygon fill="#63b8ff" stroke="#63b8ff" points="357.72,-9.33 347.56,-12.33 357.37,-16.32 357.72,-9.33"/>
</a>
</g>
</g>
<!-- Node20&#45;&gt;Node10 -->
<g id="edge34_Node000020_Node000010" class="edge">
<title>Node20&#45;&gt;Node10</title>
<g id="a_edge34_Node000020_Node000010"><a xlink:title=" ">
<path fill="none" stroke="#63b8ff" d="M517.22,-235.59C499.44,-227.24 473.18,-214.92 452.79,-205.34"/>
<polygon fill="#63b8ff" stroke="#63b8ff" points="454.35,-202.21 443.81,-201.12 451.37,-208.54 454.35,-202.21"/>
</a>
</g>
</g>
<!-- Node20&#45;&gt;Node11 -->
<g id="edge35_Node000020_Node000011" class="edge">
<title>Node20&#45;&gt;Node11</title>
<g id="a_edge35_Node000020_Node000011"><a xlink:title=" ">
<path fill="none" stroke="#63b8ff" d="M539.72,-235.62C544.39,-217.92 554.59,-179.24 560.89,-155.32"/>
<polygon fill="#63b8ff" stroke="#63b8ff" points="564.23,-156.38 563.4,-145.82 557.46,-154.6 564.23,-156.38"/>
</a>
</g>
</g>
<!-- Node21&#45;&gt;Node17 -->
<g id="edge40_Node000021_Node000017" class="edge">
<title>Node21&#45;&gt;Node17</title>
<g id="a_edge40_Node000021_Node000017"><a xlink:title=" ">
<path fill="none" stroke="#63b8ff" d="M823.09,-235.51C819.8,-208.54 810.34,-131.04 805.77,-93.65"/>
<polygon fill="#63b8ff" stroke="#63b8ff" points="809.25,-93.26 804.56,-83.76 802.3,-94.11 809.25,-93.26"/>
</a>
</g>
</g>
<!-- Node22 -->
<g id="Node000022" class="node">
<title>Node22</title>
<g id="a_Node000022"><a xlink:title=" ">
<polygon fill="#e0e0e0" stroke="#999999" points="1011.88,-200 966.62,-200 966.62,-180 1011.88,-180 1011.88,-200"/>
<text text-anchor="middle" x="989.25" y="-186.5" font-family="Helvetica,sans-Serif" font-size="10.00">chrono</text>
</a>
</g>
</g>
<!-- Node21&#45;&gt;Node22 -->
<g id="edge38_Node000021_Node000022" class="edge">
<title>Node21&#45;&gt;Node22</title>
<g id="a_edge38_Node000021_Node000022"><a xlink:title=" ">
<path fill="none" stroke="#63b8ff" d="M852.99,-235.59C881.48,-226.27 925.12,-211.99 955.31,-202.11"/>
<polygon fill="#63b8ff" stroke="#63b8ff" points="956.3,-205.47 964.72,-199.03 954.12,-198.81 956.3,-205.47"/>
</a>
</g>
</g>
<!-- Node23 -->
<g id="Node000023" class="node">
<title>Node23</title>
<g id="a_Node000023"><a xlink:title=" ">
<polygon fill="#e0e0e0" stroke="#999999" points="948.38,-200 852.12,-200 852.12,-180 948.38,-180 948.38,-200"/>
<text text-anchor="middle" x="900.25" y="-186.5" font-family="Helvetica,sans-Serif" font-size="10.00">concurrentqueue.h</text>
</a>
</g>
</g>
<!-- Node21&#45;&gt;Node23 -->
<g id="edge39_Node000021_Node000023" class="edge">
<title>Node21&#45;&gt;Node23</title>
<g id="a_edge39_Node000021_Node000023"><a xlink:title=" ">
<path fill="none" stroke="#63b8ff" d="M837.49,-235.59C848.54,-227.74 864.53,-216.38 877.61,-207.09"/>
<polygon fill="#63b8ff" stroke="#63b8ff" points="879.55,-210 885.67,-201.36 875.5,-204.3 879.55,-210"/>
</a>
</g>
</g>
</g>
</svg>
