<?xml version="1.0" encoding="UTF-8" standalone="no"?>
<!DOCTYPE svg PUBLIC "-//W3C//DTD SVG 1.1//EN"
 "http://www.w3.org/Graphics/SVG/1.1/DTD/svg11.dtd">
<!-- Generated by graphviz version 2.43.0 (0)
 -->
<!-- Title: include/EyeAICore/Operators.hpp Pages: 1 -->
<svg width="809pt" height="274pt"
 viewBox="0.00 0.00 808.91 274.00" xmlns="http://www.w3.org/2000/svg" xmlns:xlink="http://www.w3.org/1999/xlink">
<g id="graph0" class="graph" transform="scale(1 1) rotate(0) translate(4 270)">
<title>include/EyeAICore/Operators.hpp</title>
<!-- Node1 -->
<g id="node1" class="node">
<title>Node1</title>
<g id="a_node1"><a xlink:title=" ">
<polygon fill="#bfbfbf" stroke="black" points="438.41,-246.5 438.41,-265.5 615.41,-265.5 615.41,-246.5 438.41,-246.5"/>
<text text-anchor="middle" x="526.91" y="-253.5" font-family="Helvetica,sans-Serif" font-size="10.00">include/EyeAICore/Operators.hpp</text>
</a>
</g>
</g>
<!-- Node2 -->
<g id="node2" class="node">
<title>Node2</title>
<g id="a_node2"><a xlink:href="TfLiteRuntime_8hpp.html" target="_top" xlink:title=" ">
<polygon fill="none" stroke="black" points="316.41,-112.5 316.41,-142.5 447.41,-142.5 447.41,-112.5 316.41,-112.5"/>
<text text-anchor="start" x="324.41" y="-130.5" font-family="Helvetica,sans-Serif" font-size="10.00">include/EyeAICore/tflite</text>
<text text-anchor="middle" x="381.91" y="-119.5" font-family="Helvetica,sans-Serif" font-size="10.00">/TfLiteRuntime.hpp</text>
</a>
</g>
</g>
<!-- Node1&#45;&gt;Node2 -->
<g id="edge1" class="edge">
<title>Node1&#45;&gt;Node2</title>
<path fill="none" stroke="midnightblue" d="M462.83,-243.56C441.89,-236.92 420.13,-226.46 404.91,-210 387.64,-191.32 383.21,-160.67 382.15,-142.76"/>
<polygon fill="midnightblue" stroke="midnightblue" points="462.11,-246.99 472.69,-246.43 464.07,-240.27 462.11,-246.99"/>
</g>
<!-- Node4 -->
<g id="node4" class="node">
<title>Node4</title>
<g id="a_node4"><a xlink:href="DepthModel_8cpp.html" target="_top" xlink:title=" ">
<polygon fill="none" stroke="black" points="325.41,-0.5 325.41,-19.5 438.41,-19.5 438.41,-0.5 325.41,-0.5"/>
<text text-anchor="middle" x="381.91" y="-7.5" font-family="Helvetica,sans-Serif" font-size="10.00">src/DepthModel.cpp</text>
</a>
</g>
</g>
<!-- Node1&#45;&gt;Node4 -->
<g id="edge13" class="edge">
<title>Node1&#45;&gt;Node4</title>
<path fill="none" stroke="midnightblue" d="M548.21,-240.79C596.56,-206.83 706.43,-119.14 652.91,-56 626.01,-24.26 509.86,-14.88 438.64,-12.13"/>
<polygon fill="midnightblue" stroke="midnightblue" points="546.19,-237.92 539.95,-246.48 550.17,-243.69 546.19,-237.92"/>
</g>
<!-- Node6 -->
<g id="node6" class="node">
<title>Node6</title>
<g id="a_node6"><a xlink:href="YoloModel_8cpp.html" target="_top" xlink:title=" ">
<polygon fill="none" stroke="black" points="51.91,-0.5 51.91,-19.5 155.91,-19.5 155.91,-0.5 51.91,-0.5"/>
<text text-anchor="middle" x="103.91" y="-7.5" font-family="Helvetica,sans-Serif" font-size="10.00">src/YoloModel.cpp</text>
</a>
</g>
</g>
<!-- Node1&#45;&gt;Node6 -->
<g id="edge16" class="edge">
<title>Node1&#45;&gt;Node6</title>
<path fill="none" stroke="midnightblue" d="M428.1,-253.42C305.41,-245.48 100.66,-211.3 4.91,-76 -14.51,-48.56 31.26,-29.66 66.87,-19.58"/>
<polygon fill="midnightblue" stroke="midnightblue" points="428.05,-256.92 438.24,-254.03 428.47,-249.93 428.05,-256.92"/>
</g>
<!-- Node8 -->
<g id="node8" class="node">
<title>Node8</title>
<g id="a_node8"><a xlink:href="TfLiteUtils_8hpp.html" target="_top" xlink:title=" ">
<polygon fill="none" stroke="black" points="414.41,-179.5 414.41,-209.5 545.41,-209.5 545.41,-179.5 414.41,-179.5"/>
<text text-anchor="start" x="422.41" y="-197.5" font-family="Helvetica,sans-Serif" font-size="10.00">include/EyeAICore/tflite</text>
<text text-anchor="middle" x="479.91" y="-186.5" font-family="Helvetica,sans-Serif" font-size="10.00">/TfLiteUtils.hpp</text>
</a>
</g>
</g>
<!-- Node1&#45;&gt;Node8 -->
<g id="edge9" class="edge">
<title>Node1&#45;&gt;Node8</title>
<path fill="none" stroke="midnightblue" d="M513.9,-238.53C506.7,-229.42 497.85,-218.21 490.99,-209.52"/>
<polygon fill="midnightblue" stroke="midnightblue" points="511.23,-240.8 520.18,-246.48 516.73,-236.46 511.23,-240.8"/>
</g>
<!-- Node9 -->
<g id="node9" class="node">
<title>Node9</title>
<g id="a_node9"><a xlink:href="TfLiteUtils_8cpp.html" target="_top" xlink:title=" ">
<polygon fill="none" stroke="black" points="508.91,-118 508.91,-137 638.91,-137 638.91,-118 508.91,-118"/>
<text text-anchor="middle" x="573.91" y="-125" font-family="Helvetica,sans-Serif" font-size="10.00">src/tflite/TfLiteUtils.cpp</text>
</a>
</g>
</g>
<!-- Node1&#45;&gt;Node9 -->
<g id="edge15" class="edge">
<title>Node1&#45;&gt;Node9</title>
<path fill="none" stroke="midnightblue" d="M539.17,-238.25C544.67,-230.07 550.82,-219.88 554.91,-210 565.37,-184.77 570.71,-152.64 572.82,-137.36"/>
<polygon fill="midnightblue" stroke="midnightblue" points="536.26,-236.3 533.39,-246.5 542,-240.32 536.26,-236.3"/>
</g>
<!-- Node10 -->
<g id="node10" class="node">
<title>Node10</title>
<g id="a_node10"><a xlink:href="Operators_8cpp.html" target="_top" xlink:title=" ">
<polygon fill="none" stroke="black" points="698.91,-185 698.91,-204 800.91,-204 800.91,-185 698.91,-185"/>
<text text-anchor="middle" x="749.91" y="-192" font-family="Helvetica,sans-Serif" font-size="10.00">src/Operators.cpp</text>
</a>
</g>
</g>
<!-- Node1&#45;&gt;Node10 -->
<g id="edge14" class="edge">
<title>Node1&#45;&gt;Node10</title>
<path fill="none" stroke="midnightblue" d="M568.53,-243.9C611.84,-232.34 678.72,-214.5 718.02,-204.01"/>
<polygon fill="midnightblue" stroke="midnightblue" points="567.62,-240.52 558.86,-246.48 569.43,-247.28 567.62,-240.52"/>
</g>
<!-- Node3 -->
<g id="node3" class="node">
<title>Node3</title>
<g id="a_node3"><a xlink:href="DepthModel_8hpp.html" target="_top" xlink:title=" ">
<polygon fill="none" stroke="black" points="287.91,-56.5 287.91,-75.5 475.91,-75.5 475.91,-56.5 287.91,-56.5"/>
<text text-anchor="middle" x="381.91" y="-63.5" font-family="Helvetica,sans-Serif" font-size="10.00">include/EyeAICore/DepthModel.hpp</text>
</a>
</g>
</g>
<!-- Node2&#45;&gt;Node3 -->
<g id="edge2" class="edge">
<title>Node2&#45;&gt;Node3</title>
<path fill="none" stroke="midnightblue" d="M381.91,-102.29C381.91,-92.86 381.91,-82.65 381.91,-75.66"/>
<polygon fill="midnightblue" stroke="midnightblue" points="378.41,-102.4 381.91,-112.4 385.41,-102.4 378.41,-102.4"/>
</g>
<!-- Node2&#45;&gt;Node4 -->
<g id="edge6" class="edge">
<title>Node2&#45;&gt;Node4</title>
<path fill="none" stroke="midnightblue" d="M319.43,-108.82C289.71,-97 263.65,-79.32 278.91,-56 291.36,-36.98 313.81,-25.95 334.58,-19.58"/>
<polygon fill="midnightblue" stroke="midnightblue" points="318.56,-112.23 329.15,-112.45 321.01,-105.67 318.56,-112.23"/>
</g>
<!-- Node5 -->
<g id="node5" class="node">
<title>Node5</title>
<g id="a_node5"><a xlink:href="YoloModel_8hpp.html" target="_top" xlink:title=" ">
<polygon fill="none" stroke="black" points="14.41,-56.5 14.41,-75.5 193.41,-75.5 193.41,-56.5 14.41,-56.5"/>
<text text-anchor="middle" x="103.91" y="-63.5" font-family="Helvetica,sans-Serif" font-size="10.00">include/EyeAICore/YoloModel.hpp</text>
</a>
</g>
</g>
<!-- Node2&#45;&gt;Node5 -->
<g id="edge4" class="edge">
<title>Node2&#45;&gt;Node5</title>
<path fill="none" stroke="midnightblue" d="M306.43,-110.34C253.9,-99.1 185.96,-84.56 143.66,-75.51"/>
<polygon fill="midnightblue" stroke="midnightblue" points="305.87,-113.8 316.38,-112.47 307.34,-106.96 305.87,-113.8"/>
</g>
<!-- Node2&#45;&gt;Node6 -->
<g id="edge8" class="edge">
<title>Node2&#45;&gt;Node6</title>
<path fill="none" stroke="midnightblue" d="M338.77,-108.58C278,-83.33 169.57,-38.28 124.47,-19.54"/>
<polygon fill="midnightblue" stroke="midnightblue" points="337.52,-111.85 348.1,-112.45 340.21,-105.38 337.52,-111.85"/>
</g>
<!-- Node7 -->
<g id="node7" class="node">
<title>Node7</title>
<g id="a_node7"><a xlink:href="TfLiteRuntime_8cpp.html" target="_top" xlink:title=" ">
<polygon fill="none" stroke="black" points="494.41,-56.5 494.41,-75.5 643.41,-75.5 643.41,-56.5 494.41,-56.5"/>
<text text-anchor="middle" x="568.91" y="-63.5" font-family="Helvetica,sans-Serif" font-size="10.00">src/tflite/TfLiteRuntime.cpp</text>
</a>
</g>
</g>
<!-- Node2&#45;&gt;Node7 -->
<g id="edge7" class="edge">
<title>Node2&#45;&gt;Node7</title>
<path fill="none" stroke="midnightblue" d="M435.78,-109.36C470.57,-98.29 514.33,-84.37 541.97,-75.57"/>
<polygon fill="midnightblue" stroke="midnightblue" points="434.7,-106.03 426.23,-112.4 436.82,-112.7 434.7,-106.03"/>
</g>
<!-- Node3&#45;&gt;Node4 -->
<g id="edge3" class="edge">
<title>Node3&#45;&gt;Node4</title>
<path fill="none" stroke="midnightblue" d="M381.91,-45.8C381.91,-36.91 381.91,-26.78 381.91,-19.75"/>
<polygon fill="midnightblue" stroke="midnightblue" points="378.41,-46.08 381.91,-56.08 385.41,-46.08 378.41,-46.08"/>
</g>
<!-- Node5&#45;&gt;Node6 -->
<g id="edge5" class="edge">
<title>Node5&#45;&gt;Node6</title>
<path fill="none" stroke="midnightblue" d="M103.91,-45.8C103.91,-36.91 103.91,-26.78 103.91,-19.75"/>
<polygon fill="midnightblue" stroke="midnightblue" points="100.41,-46.08 103.91,-56.08 107.41,-46.08 100.41,-46.08"/>
</g>
<!-- Node8&#45;&gt;Node2 -->
<g id="edge10" class="edge">
<title>Node8&#45;&gt;Node2</title>
<path fill="none" stroke="midnightblue" d="M450.11,-173.73C434.95,-163.68 416.87,-151.68 403.13,-142.58"/>
<polygon fill="midnightblue" stroke="midnightblue" points="448.38,-176.79 458.65,-179.4 452.25,-170.95 448.38,-176.79"/>
</g>
<!-- Node8&#45;&gt;Node7 -->
<g id="edge11" class="edge">
<title>Node8&#45;&gt;Node7</title>
<path fill="none" stroke="midnightblue" d="M481.23,-168.81C483.22,-151.54 488.09,-128.67 499.91,-112 511.91,-95.08 532.45,-82.89 548.01,-75.5"/>
<polygon fill="midnightblue" stroke="midnightblue" points="477.7,-168.96 480.3,-179.23 484.68,-169.59 477.7,-168.96"/>
</g>
<!-- Node8&#45;&gt;Node9 -->
<g id="edge12" class="edge">
<title>Node8&#45;&gt;Node9</title>
<path fill="none" stroke="midnightblue" d="M508.63,-173.64C526.37,-161.37 548.23,-146.26 561.61,-137.01"/>
<polygon fill="midnightblue" stroke="midnightblue" points="506.54,-170.83 500.31,-179.4 510.52,-176.59 506.54,-170.83"/>
</g>
</g>
</svg>
