<?xml version="1.0" encoding="UTF-8" standalone="no"?>
<!DOCTYPE svg PUBLIC "-//W3C//DTD SVG 1.1//EN"
 "http://www.w3.org/Graphics/SVG/1.1/DTD/svg11.dtd">
<!-- Generated by graphviz version 12.2.1 (20241206.2353)
 -->
<!-- Title: src/Operators.cpp Pages: 1 -->
<svg width="1143pt" height="382pt"
 viewBox="0.00 0.00 1142.72 382.00" xmlns="http://www.w3.org/2000/svg" xmlns:xlink="http://www.w3.org/1999/xlink">
<g id="graph0" class="graph" transform="scale(1 1) rotate(0) translate(4 378)">
<title>src/Operators.cpp</title>
<!-- Node1 -->
<g id="Node000001" class="node">
<title>Node1</title>
<g id="a_Node000001"><a xlink:title=" ">
<polygon fill="#999999" stroke="#666666" points="794.1,-374 692.6,-374 692.6,-353.25 794.1,-353.25 794.1,-374"/>
<text text-anchor="middle" x="743.35" y="-360.5" font-family="Helvetica,sans-Serif" font-size="10.00">src/Operators.cpp</text>
</a>
</g>
</g>
<!-- Node2 -->
<g id="Node000002" class="node">
<title>Node2</title>
<g id="a_Node000002"><a xlink:href="Operators_8hpp.html" target="_top" xlink:title=" ">
<polygon fill="white" stroke="#666666" points="387.47,-317.25 249.22,-317.25 249.22,-296.5 387.47,-296.5 387.47,-317.25"/>
<text text-anchor="middle" x="318.35" y="-303.75" font-family="Helvetica,sans-Serif" font-size="10.00">EyeAICore/Operators.hpp</text>
</a>
</g>
</g>
<!-- Node1&#45;&gt;Node2 -->
<g id="edge1_Node000001_Node000002" class="edge">
<title>Node1&#45;&gt;Node2</title>
<g id="a_edge1_Node000001_Node000002"><a xlink:title=" ">
<path fill="none" stroke="#63b8ff" d="M692.5,-356.08C619.86,-346.72 485.63,-329.42 399.24,-318.3"/>
<polygon fill="#63b8ff" stroke="#63b8ff" points="399.77,-314.84 389.41,-317.03 398.88,-321.78 399.77,-314.84"/>
</a>
</g>
</g>
<!-- Node9 -->
<g id="Node000009" class="node">
<title>Node9</title>
<g id="a_Node000009"><a xlink:href="MetricDepthModel_8hpp.html" target="_top" xlink:title=" ">
<polygon fill="white" stroke="#666666" points="408.47,-260.5 228.22,-260.5 228.22,-239.75 408.47,-239.75 408.47,-260.5"/>
<text text-anchor="middle" x="318.35" y="-247" font-family="Helvetica,sans-Serif" font-size="10.00">EyeAICore/MetricDepthModel.hpp</text>
</a>
</g>
</g>
<!-- Node1&#45;&gt;Node9 -->
<g id="edge32_Node000001_Node000009" class="edge">
<title>Node1&#45;&gt;Node9</title>
<g id="a_edge32_Node000001_Node000009"><a xlink:title=" ">
<path fill="none" stroke="#63b8ff" d="M706,-352.83C628.95,-332.61 452.39,-286.29 366.73,-263.82"/>
<polygon fill="#63b8ff" stroke="#63b8ff" points="367.78,-260.48 357.22,-261.32 366.01,-267.25 367.78,-260.48"/>
</a>
</g>
</g>
<!-- Node20 -->
<g id="Node000020" class="node">
<title>Node20</title>
<g id="a_Node000020"><a xlink:href="Profiling_8hpp.html" target="_top" xlink:title=" ">
<polygon fill="white" stroke="#666666" points="1009.35,-317.25 855.35,-317.25 855.35,-296.5 1009.35,-296.5 1009.35,-317.25"/>
<text text-anchor="middle" x="932.35" y="-303.75" font-family="Helvetica,sans-Serif" font-size="10.00">EyeAICore/utils/Profiling.hpp</text>
</a>
</g>
</g>
<!-- Node1&#45;&gt;Node20 -->
<g id="edge33_Node000001_Node000020" class="edge">
<title>Node1&#45;&gt;Node20</title>
<g id="a_edge33_Node000001_Node000020"><a xlink:title=" ">
<path fill="none" stroke="#63b8ff" d="M777.14,-352.84C807.95,-343.91 853.69,-330.66 887.55,-320.85"/>
<polygon fill="#63b8ff" stroke="#63b8ff" points="888.45,-324.24 897.08,-318.09 886.5,-317.51 888.45,-324.24"/>
</a>
</g>
</g>
<!-- Node23 -->
<g id="Node000023" class="node">
<title>Node23</title>
<g id="a_Node000023"><a xlink:title=" ">
<polygon fill="#e0e0e0" stroke="#999999" points="1090.97,-317.25 1027.72,-317.25 1027.72,-296.5 1090.97,-296.5 1090.97,-317.25"/>
<text text-anchor="middle" x="1059.35" y="-303.75" font-family="Helvetica,sans-Serif" font-size="10.00">algorithm</text>
</a>
</g>
</g>
<!-- Node1&#45;&gt;Node23 -->
<g id="edge37_Node000001_Node000023" class="edge">
<title>Node1&#45;&gt;Node23</title>
<g id="a_edge37_Node000001_Node000023"><a xlink:title=" ">
<path fill="none" stroke="#63b8ff" d="M794.45,-355.15C847.42,-347.19 932.86,-333.76 1016.37,-317.54"/>
<polygon fill="#63b8ff" stroke="#63b8ff" points="1016.98,-320.98 1026.12,-315.63 1015.63,-314.11 1016.98,-320.98"/>
</a>
</g>
</g>
<!-- Node3 -->
<g id="Node000003" class="node">
<title>Node3</title>
<g id="a_Node000003"><a xlink:href="TensorBuffer_8hpp.html" target="_top" xlink:title=" ">
<polygon fill="white" stroke="#666666" points="165.47,-83.88 15.22,-83.88 15.22,-63.12 165.47,-63.12 165.47,-83.88"/>
<text text-anchor="middle" x="90.35" y="-70.38" font-family="Helvetica,sans-Serif" font-size="10.00">EyeAICore/TensorBuffer.hpp</text>
</a>
</g>
</g>
<!-- Node2&#45;&gt;Node3 -->
<g id="edge2_Node000002_Node000003" class="edge">
<title>Node2&#45;&gt;Node3</title>
<g id="a_edge2_Node000002_Node000003"><a xlink:title=" ">
<path fill="none" stroke="#63b8ff" d="M288.85,-296.13C268.17,-288.43 240.55,-276.34 219.35,-260.5 165.72,-220.44 155.61,-203.9 120.35,-147 110.15,-130.55 102.04,-110.04 96.83,-95.04"/>
<polygon fill="#63b8ff" stroke="#63b8ff" points="100.24,-94.19 93.77,-85.8 93.59,-96.39 100.24,-94.19"/>
</a>
</g>
</g>
<!-- Node2&#45;&gt;Node9 -->
<g id="edge8_Node000002_Node000009" class="edge">
<title>Node2&#45;&gt;Node9</title>
<g id="a_edge8_Node000002_Node000009"><a xlink:title=" ">
<path fill="none" stroke="#63b8ff" d="M318.35,-296.09C318.35,-289.47 318.35,-280.47 318.35,-272.27"/>
<polygon fill="#63b8ff" stroke="#63b8ff" points="321.85,-272.34 318.35,-262.34 314.85,-272.34 321.85,-272.34"/>
</a>
</g>
</g>
<!-- Node4 -->
<g id="Node000004" class="node">
<title>Node4</title>
<g id="a_Node000004"><a xlink:title=" ">
<polygon fill="#e0e0e0" stroke="#999999" points="49.85,-20.75 0.85,-20.75 0.85,0 49.85,0 49.85,-20.75"/>
<text text-anchor="middle" x="25.35" y="-7.25" font-family="Helvetica,sans-Serif" font-size="10.00">cstdint</text>
</a>
</g>
</g>
<!-- Node3&#45;&gt;Node4 -->
<g id="edge3_Node000003_Node000004" class="edge">
<title>Node3&#45;&gt;Node4</title>
<g id="a_edge3_Node000003_Node000004"><a xlink:title=" ">
<path fill="none" stroke="#63b8ff" d="M79.9,-62.68C70.18,-53.54 55.47,-39.7 43.77,-28.7"/>
<polygon fill="#63b8ff" stroke="#63b8ff" points="46.33,-26.31 36.65,-22.01 41.54,-31.41 46.33,-26.31"/>
</a>
</g>
</g>
<!-- Node5 -->
<g id="Node000005" class="node">
<title>Node5</title>
<g id="a_Node000005"><a xlink:title=" ">
<polygon fill="#e0e0e0" stroke="#999999" points="191.97,-20.75 134.72,-20.75 134.72,0 191.97,0 191.97,-20.75"/>
<text text-anchor="middle" x="163.35" y="-7.25" font-family="Helvetica,sans-Serif" font-size="10.00">memory</text>
</a>
</g>
</g>
<!-- Node3&#45;&gt;Node5 -->
<g id="edge4_Node000003_Node000005" class="edge">
<title>Node3&#45;&gt;Node5</title>
<g id="a_edge4_Node000003_Node000005"><a xlink:title=" ">
<path fill="none" stroke="#63b8ff" d="M102.07,-62.68C113.21,-53.36 130.17,-39.16 143.42,-28.06"/>
<polygon fill="#63b8ff" stroke="#63b8ff" points="145.31,-31.05 150.73,-21.94 140.81,-25.68 145.31,-31.05"/>
</a>
</g>
</g>
<!-- Node6 -->
<g id="Node000006" class="node">
<title>Node6</title>
<g id="a_Node000006"><a xlink:title=" ">
<polygon fill="#e0e0e0" stroke="#999999" points="250.97,-20.75 211.72,-20.75 211.72,0 250.97,0 250.97,-20.75"/>
<text text-anchor="middle" x="231.35" y="-7.25" font-family="Helvetica,sans-Serif" font-size="10.00">span</text>
</a>
</g>
</g>
<!-- Node3&#45;&gt;Node6 -->
<g id="edge5_Node000003_Node000006" class="edge">
<title>Node3&#45;&gt;Node6</title>
<g id="a_edge5_Node000003_Node000006"><a xlink:title=" ">
<path fill="none" stroke="#63b8ff" d="M113,-62.68C136.84,-52.34 174.5,-36.02 200.92,-24.56"/>
<polygon fill="#63b8ff" stroke="#63b8ff" points="202.31,-27.78 210.09,-20.59 199.53,-21.35 202.31,-27.78"/>
</a>
</g>
</g>
<!-- Node7 -->
<g id="Node000007" class="node">
<title>Node7</title>
<g id="a_Node000007"><a xlink:title=" ">
<polygon fill="#e0e0e0" stroke="#999999" points="341.6,-20.75 291.1,-20.75 291.1,0 341.6,0 341.6,-20.75"/>
<text text-anchor="middle" x="316.35" y="-7.25" font-family="Helvetica,sans-Serif" font-size="10.00">variant</text>
</a>
</g>
</g>
<!-- Node3&#45;&gt;Node7 -->
<g id="edge6_Node000003_Node000007" class="edge">
<title>Node3&#45;&gt;Node7</title>
<g id="a_edge6_Node000003_Node000007"><a xlink:title=" ">
<path fill="none" stroke="#63b8ff" d="M126.66,-62.68C168.72,-51.3 237.62,-32.67 279.79,-21.26"/>
<polygon fill="#63b8ff" stroke="#63b8ff" points="280.47,-24.7 289.21,-18.72 278.64,-17.95 280.47,-24.7"/>
</a>
</g>
</g>
<!-- Node8 -->
<g id="Node000008" class="node">
<title>Node8</title>
<g id="a_Node000008"><a xlink:title=" ">
<polygon fill="#e0e0e0" stroke="#999999" points="114.72,-20.75 67.97,-20.75 67.97,0 114.72,0 114.72,-20.75"/>
<text text-anchor="middle" x="91.35" y="-7.25" font-family="Helvetica,sans-Serif" font-size="10.00">vector</text>
</a>
</g>
</g>
<!-- Node3&#45;&gt;Node8 -->
<g id="edge7_Node000003_Node000008" class="edge">
<title>Node3&#45;&gt;Node8</title>
<g id="a_edge7_Node000003_Node000008"><a xlink:title=" ">
<path fill="none" stroke="#63b8ff" d="M90.51,-62.68C90.64,-54.52 90.83,-42.63 91,-32.35"/>
<polygon fill="#63b8ff" stroke="#63b8ff" points="94.5,-32.54 91.16,-22.48 87.5,-32.42 94.5,-32.54"/>
</a>
</g>
</g>
<!-- Node9&#45;&gt;Node3 -->
<g id="edge9_Node000009_Node000003" class="edge">
<title>Node9&#45;&gt;Node3</title>
<g id="a_edge9_Node000009_Node000003"><a xlink:title=" ">
<path fill="none" stroke="#63b8ff" d="M295.14,-239.34C259.66,-223.59 191.02,-190 143.35,-147 126.04,-131.39 110.87,-109.29 101.25,-93.6"/>
<polygon fill="#63b8ff" stroke="#63b8ff" points="104.39,-92.04 96.28,-85.22 98.37,-95.61 104.39,-92.04"/>
</a>
</g>
</g>
<!-- Node9&#45;&gt;Node5 -->
<g id="edge31_Node000009_Node000005" class="edge">
<title>Node9&#45;&gt;Node5</title>
<g id="a_edge31_Node000009_Node000005"><a xlink:title=" ">
<path fill="none" stroke="#63b8ff" d="M263.61,-239.28C190.2,-222.81 62.57,-181.98 6.35,-90.25 -1.43,-77.56 -2.6,-68.65 6.35,-56.75 9.97,-51.93 78.08,-33.48 123.39,-21.65"/>
<polygon fill="#63b8ff" stroke="#63b8ff" points="124.1,-25.08 132.9,-19.17 122.34,-18.3 124.1,-25.08"/>
</a>
</g>
</g>
<!-- Node10 -->
<g id="Node000010" class="node">
<title>Node10</title>
<g id="a_Node000010"><a xlink:href="TfLiteRuntime_8hpp.html" target="_top" xlink:title=" ">
<polygon fill="white" stroke="#666666" points="533.72,-203.75 348.97,-203.75 348.97,-183 533.72,-183 533.72,-203.75"/>
<text text-anchor="middle" x="441.35" y="-190.25" font-family="Helvetica,sans-Serif" font-size="10.00">EyeAICore/tflite/TfLiteRuntime.hpp</text>
</a>
</g>
</g>
<!-- Node9&#45;&gt;Node10 -->
<g id="edge10_Node000009_Node000010" class="edge">
<title>Node9&#45;&gt;Node10</title>
<g id="a_edge10_Node000009_Node000010"><a xlink:title=" ">
<path fill="none" stroke="#63b8ff" d="M340.34,-239.34C359.49,-230.81 387.51,-218.34 409.18,-208.69"/>
<polygon fill="#63b8ff" stroke="#63b8ff" points="410.45,-211.96 418.16,-204.69 407.6,-205.56 410.45,-211.96"/>
</a>
</g>
</g>
<!-- Node10&#45;&gt;Node3 -->
<g id="edge11_Node000010_Node000003" class="edge">
<title>Node10&#45;&gt;Node3</title>
<g id="a_edge11_Node000010_Node000003"><a xlink:title=" ">
<path fill="none" stroke="#63b8ff" d="M348.53,-187.84C296.83,-182.53 232.38,-171.17 179.35,-147 150.62,-133.91 123.37,-109.27 106.77,-92.37"/>
<polygon fill="#63b8ff" stroke="#63b8ff" points="109.59,-90.26 100.15,-85.44 104.53,-95.09 109.59,-90.26"/>
</a>
</g>
</g>
<!-- Node10&#45;&gt;Node5 -->
<g id="edge27_Node000010_Node000005" class="edge">
<title>Node10&#45;&gt;Node5</title>
<g id="a_edge27_Node000010_Node000005"><a xlink:title=" ">
<path fill="none" stroke="#63b8ff" d="M408.1,-182.56C383.78,-174.69 350.44,-162.41 323.35,-147 264.8,-113.69 207.32,-57.7 179.94,-29.21"/>
<polygon fill="#63b8ff" stroke="#63b8ff" points="182.6,-26.93 173.18,-22.08 177.52,-31.75 182.6,-26.93"/>
</a>
</g>
</g>
<!-- Node10&#45;&gt;Node6 -->
<g id="edge28_Node000010_Node000006" class="edge">
<title>Node10&#45;&gt;Node6</title>
<g id="a_edge28_Node000010_Node000006"><a xlink:title=" ">
<path fill="none" stroke="#63b8ff" d="M420.12,-182.62C387.39,-166.79 323.92,-132.96 281.35,-90.25 263.88,-72.73 249.47,-48.08 240.68,-31.02"/>
<polygon fill="#63b8ff" stroke="#63b8ff" points="243.99,-29.81 236.41,-22.41 237.72,-32.92 243.99,-29.81"/>
</a>
</g>
</g>
<!-- Node11 -->
<g id="Node000011" class="node">
<title>Node11</title>
<g id="a_Node000011"><a xlink:href="TfLiteUtils_8hpp.html" target="_top" xlink:title=" ">
<polygon fill="white" stroke="#666666" points="484.97,-147 397.72,-147 397.72,-126.25 484.97,-126.25 484.97,-147"/>
<text text-anchor="middle" x="441.35" y="-133.5" font-family="Helvetica,sans-Serif" font-size="10.00">TfLiteUtils.hpp</text>
</a>
</g>
</g>
<!-- Node10&#45;&gt;Node11 -->
<g id="edge12_Node000010_Node000011" class="edge">
<title>Node10&#45;&gt;Node11</title>
<g id="a_edge12_Node000010_Node000011"><a xlink:title=" ">
<path fill="none" stroke="#63b8ff" d="M441.35,-182.59C441.35,-175.97 441.35,-166.97 441.35,-158.77"/>
<polygon fill="#63b8ff" stroke="#63b8ff" points="444.85,-158.84 441.35,-148.84 437.85,-158.84 444.85,-158.84"/>
</a>
</g>
</g>
<!-- Node14 -->
<g id="Node000014" class="node">
<title>Node14</title>
<g id="a_Node000014"><a xlink:title=" ">
<polygon fill="#e0e0e0" stroke="#999999" points="779.22,-20.75 735.47,-20.75 735.47,0 779.22,0 779.22,-20.75"/>
<text text-anchor="middle" x="757.35" y="-7.25" font-family="Helvetica,sans-Serif" font-size="10.00">string</text>
</a>
</g>
</g>
<!-- Node10&#45;&gt;Node14 -->
<g id="edge29_Node000010_Node000014" class="edge">
<title>Node10&#45;&gt;Node14</title>
<g id="a_edge29_Node000010_Node000014"><a xlink:title=" ">
<path fill="none" stroke="#63b8ff" d="M534.13,-186.55C661.04,-176.4 878.55,-150.5 926.35,-90.25 965.02,-41.5 850.38,-21.49 790.82,-14.55"/>
<polygon fill="#63b8ff" stroke="#63b8ff" points="791.53,-11.1 781.21,-13.49 790.77,-18.06 791.53,-11.1"/>
</a>
</g>
</g>
<!-- Node17 -->
<g id="Node000017" class="node">
<title>Node17</title>
<g id="a_Node000017"><a xlink:title=" ">
<polygon fill="#e0e0e0" stroke="#999999" points="917.47,-83.88 845.22,-83.88 845.22,-63.12 917.47,-63.12 917.47,-83.88"/>
<text text-anchor="middle" x="881.35" y="-70.38" font-family="Helvetica,sans-Serif" font-size="10.00">string_view</text>
</a>
</g>
</g>
<!-- Node10&#45;&gt;Node17 -->
<g id="edge30_Node000010_Node000017" class="edge">
<title>Node10&#45;&gt;Node17</title>
<g id="a_edge30_Node000010_Node000017"><a xlink:title=" ">
<path fill="none" stroke="#63b8ff" d="M483.62,-182.54C556.08,-165.43 708.45,-128.36 835.35,-90.25 837.87,-89.49 840.46,-88.68 843.07,-87.85"/>
<polygon fill="#63b8ff" stroke="#63b8ff" points="843.89,-91.27 852.29,-84.81 841.7,-84.62 843.89,-91.27"/>
</a>
</g>
</g>
<!-- Node18 -->
<g id="Node000018" class="node">
<title>Node18</title>
<g id="a_Node000018"><a xlink:title=" ">
<polygon fill="#e0e0e0" stroke="#999999" points="671.47,-90.25 569.22,-90.25 569.22,-56.75 671.47,-56.75 671.47,-90.25"/>
<text text-anchor="start" x="577.22" y="-76.75" font-family="Helvetica,sans-Serif" font-size="10.00">tensorflow/lite/c/c</text>
<text text-anchor="middle" x="620.35" y="-64" font-family="Helvetica,sans-Serif" font-size="10.00">_api.h</text>
</a>
</g>
</g>
<!-- Node10&#45;&gt;Node18 -->
<g id="edge25_Node000010_Node000018" class="edge">
<title>Node10&#45;&gt;Node18</title>
<g id="a_edge25_Node000010_Node000018"><a xlink:title=" ">
<path fill="none" stroke="#63b8ff" d="M456.3,-182.53C484.73,-163.81 547.22,-122.66 586.34,-96.89"/>
<polygon fill="#63b8ff" stroke="#63b8ff" points="588.06,-99.95 594.48,-91.53 584.21,-94.11 588.06,-99.95"/>
</a>
</g>
</g>
<!-- Node19 -->
<g id="Node000019" class="node">
<title>Node19</title>
<g id="a_Node000019"><a xlink:title=" ">
<polygon fill="#e0e0e0" stroke="#999999" points="826.72,-90.25 689.97,-90.25 689.97,-56.75 826.72,-56.75 826.72,-90.25"/>
<text text-anchor="start" x="697.97" y="-76.75" font-family="Helvetica,sans-Serif" font-size="10.00">tensorflow/lite/delegates</text>
<text text-anchor="middle" x="758.35" y="-64" font-family="Helvetica,sans-Serif" font-size="10.00">/gpu/delegate.h</text>
</a>
</g>
</g>
<!-- Node10&#45;&gt;Node19 -->
<g id="edge26_Node000010_Node000019" class="edge">
<title>Node10&#45;&gt;Node19</title>
<g id="a_edge26_Node000010_Node000019"><a xlink:title=" ">
<path fill="none" stroke="#63b8ff" d="M467.83,-182.53C519.67,-163.25 635.46,-120.2 704.17,-94.64"/>
<polygon fill="#63b8ff" stroke="#63b8ff" points="705.21,-97.99 713.36,-91.23 702.77,-91.43 705.21,-97.99"/>
</a>
</g>
</g>
<!-- Node11&#45;&gt;Node3 -->
<g id="edge13_Node000011_Node000003" class="edge">
<title>Node11&#45;&gt;Node3</title>
<g id="a_edge13_Node000011_Node000003"><a xlink:title=" ">
<path fill="none" stroke="#63b8ff" d="M397.25,-127.95C337.04,-117.46 228.55,-98.57 158.01,-86.28"/>
<polygon fill="#63b8ff" stroke="#63b8ff" points="158.97,-82.9 148.52,-84.63 157.77,-89.79 158.97,-82.9"/>
</a>
</g>
</g>
<!-- Node11&#45;&gt;Node5 -->
<g id="edge19_Node000011_Node000005" class="edge">
<title>Node11&#45;&gt;Node5</title>
<g id="a_edge19_Node000011_Node000005"><a xlink:title=" ">
<path fill="none" stroke="#63b8ff" d="M397.51,-126.79C365.07,-119.36 320.3,-107.22 283.35,-90.25 246.28,-73.22 207.57,-45.74 184.46,-28.12"/>
<polygon fill="#63b8ff" stroke="#63b8ff" points="186.81,-25.52 176.76,-22.16 182.53,-31.05 186.81,-25.52"/>
</a>
</g>
</g>
<!-- Node11&#45;&gt;Node6 -->
<g id="edge21_Node000011_Node000006" class="edge">
<title>Node11&#45;&gt;Node6</title>
<g id="a_edge21_Node000011_Node000006"><a xlink:title=" ">
<path fill="none" stroke="#63b8ff" d="M408.59,-125.8C384.86,-117.95 352.48,-105.72 326.35,-90.25 318.25,-85.46 276.63,-50.19 251.24,-28.46"/>
<polygon fill="#63b8ff" stroke="#63b8ff" points="253.73,-25.99 243.86,-22.14 249.18,-31.31 253.73,-25.99"/>
</a>
</g>
</g>
<!-- Node12 -->
<g id="Node000012" class="node">
<title>Node12</title>
<g id="a_Node000012"><a xlink:href="Errors_8hpp.html" target="_top" xlink:title=" ">
<polygon fill="white" stroke="#666666" points="477.72,-83.88 334.97,-83.88 334.97,-63.12 477.72,-63.12 477.72,-83.88"/>
<text text-anchor="middle" x="406.35" y="-70.38" font-family="Helvetica,sans-Serif" font-size="10.00">EyeAICore/utils/Errors.hpp</text>
</a>
</g>
</g>
<!-- Node11&#45;&gt;Node12 -->
<g id="edge14_Node000011_Node000012" class="edge">
<title>Node11&#45;&gt;Node12</title>
<g id="a_edge14_Node000011_Node000012"><a xlink:title=" ">
<path fill="none" stroke="#63b8ff" d="M435.72,-125.8C430.8,-117.2 423.49,-104.44 417.4,-93.8"/>
<polygon fill="#63b8ff" stroke="#63b8ff" points="420.6,-92.35 412.59,-85.41 414.52,-95.83 420.6,-92.35"/>
</a>
</g>
</g>
<!-- Node16 -->
<g id="Node000016" class="node">
<title>Node16</title>
<g id="a_Node000016"><a xlink:title=" ">
<polygon fill="#e0e0e0" stroke="#999999" points="551.22,-83.88 495.47,-83.88 495.47,-63.12 551.22,-63.12 551.22,-83.88"/>
<text text-anchor="middle" x="523.35" y="-70.38" font-family="Helvetica,sans-Serif" font-size="10.00">optional</text>
</a>
</g>
</g>
<!-- Node11&#45;&gt;Node16 -->
<g id="edge20_Node000011_Node000016" class="edge">
<title>Node11&#45;&gt;Node16</title>
<g id="a_edge20_Node000011_Node000016"><a xlink:title=" ">
<path fill="none" stroke="#63b8ff" d="M454.52,-125.8C467.07,-116.45 486.21,-102.18 501.13,-91.06"/>
<polygon fill="#63b8ff" stroke="#63b8ff" points="503.06,-93.98 508.99,-85.2 498.88,-88.37 503.06,-93.98"/>
</a>
</g>
</g>
<!-- Node11&#45;&gt;Node17 -->
<g id="edge22_Node000011_Node000017" class="edge">
<title>Node11&#45;&gt;Node17</title>
<g id="a_edge22_Node000011_Node000017"><a xlink:title=" ">
<path fill="none" stroke="#63b8ff" d="M485.3,-133.65C558.63,-129.67 710.26,-118.52 835.35,-90.25 838.51,-89.53 841.76,-88.68 845,-87.74"/>
<polygon fill="#63b8ff" stroke="#63b8ff" points="845.91,-91.13 854.4,-84.78 843.81,-84.45 845.91,-91.13"/>
</a>
</g>
</g>
<!-- Node11&#45;&gt;Node18 -->
<g id="edge23_Node000011_Node000018" class="edge">
<title>Node11&#45;&gt;Node18</title>
<g id="a_edge23_Node000011_Node000018"><a xlink:title=" ">
<path fill="none" stroke="#63b8ff" d="M470.11,-125.8C494.86,-117.35 531.35,-104.89 562.17,-94.37"/>
<polygon fill="#63b8ff" stroke="#63b8ff" points="563.04,-97.77 571.37,-91.22 560.78,-91.14 563.04,-97.77"/>
</a>
</g>
</g>
<!-- Node11&#45;&gt;Node19 -->
<g id="edge24_Node000011_Node000019" class="edge">
<title>Node11&#45;&gt;Node19</title>
<g id="a_edge24_Node000011_Node000019"><a xlink:title=" ">
<path fill="none" stroke="#63b8ff" d="M485.43,-127.42C531.16,-118.86 605.04,-104.95 678.97,-90.51"/>
<polygon fill="#63b8ff" stroke="#63b8ff" points="679.24,-94.02 688.39,-88.66 677.9,-87.15 679.24,-94.02"/>
</a>
</g>
</g>
<!-- Node12&#45;&gt;Node7 -->
<g id="edge18_Node000012_Node000007" class="edge">
<title>Node12&#45;&gt;Node7</title>
<g id="a_edge18_Node000012_Node000007"><a xlink:title=" ">
<path fill="none" stroke="#63b8ff" d="M391.89,-62.68C377.98,-53.23 356.7,-38.78 340.27,-27.62"/>
<polygon fill="#63b8ff" stroke="#63b8ff" points="342.26,-24.74 332.02,-22.02 338.33,-30.54 342.26,-24.74"/>
</a>
</g>
</g>
<!-- Node13 -->
<g id="Node000013" class="node">
<title>Node13</title>
<g id="a_Node000013"><a xlink:title=" ">
<polygon fill="#e0e0e0" stroke="#999999" points="419.85,-20.75 370.85,-20.75 370.85,0 419.85,0 419.85,-20.75"/>
<text text-anchor="middle" x="395.35" y="-7.25" font-family="Helvetica,sans-Serif" font-size="10.00">format</text>
</a>
</g>
</g>
<!-- Node12&#45;&gt;Node13 -->
<g id="edge15_Node000012_Node000013" class="edge">
<title>Node12&#45;&gt;Node13</title>
<g id="a_edge15_Node000012_Node000013"><a xlink:title=" ">
<path fill="none" stroke="#63b8ff" d="M404.58,-62.68C403.09,-54.43 400.92,-42.37 399.06,-32.01"/>
<polygon fill="#63b8ff" stroke="#63b8ff" points="402.56,-31.68 397.34,-22.46 395.67,-32.92 402.56,-31.68"/>
</a>
</g>
</g>
<!-- Node12&#45;&gt;Node14 -->
<g id="edge16_Node000012_Node000014" class="edge">
<title>Node12&#45;&gt;Node14</title>
<g id="a_edge16_Node000012_Node000014"><a xlink:title=" ">
<path fill="none" stroke="#63b8ff" d="M454.96,-62.7C465.31,-60.68 476.18,-58.6 486.35,-56.75 571.72,-41.2 672.61,-24.84 723.85,-16.67"/>
<polygon fill="#63b8ff" stroke="#63b8ff" points="724.36,-20.13 733.68,-15.1 723.26,-13.22 724.36,-20.13"/>
</a>
</g>
</g>
<!-- Node15 -->
<g id="Node000015" class="node">
<title>Node15</title>
<g id="a_Node000015"><a xlink:title=" ">
<polygon fill="#e0e0e0" stroke="#999999" points="529.22,-20.75 437.47,-20.75 437.47,0 529.22,0 529.22,-20.75"/>
<text text-anchor="middle" x="483.35" y="-7.25" font-family="Helvetica,sans-Serif" font-size="10.00">tl/expected.hpp</text>
</a>
</g>
</g>
<!-- Node12&#45;&gt;Node15 -->
<g id="edge17_Node000012_Node000015" class="edge">
<title>Node12&#45;&gt;Node15</title>
<g id="a_edge17_Node000012_Node000015"><a xlink:title=" ">
<path fill="none" stroke="#63b8ff" d="M418.72,-62.68C430.39,-53.41 448.14,-39.33 462.08,-28.26"/>
<polygon fill="#63b8ff" stroke="#63b8ff" points="464.16,-31.07 469.82,-22.11 459.81,-25.59 464.16,-31.07"/>
</a>
</g>
</g>
<!-- Node20&#45;&gt;Node17 -->
<g id="edge36_Node000020_Node000017" class="edge">
<title>Node20&#45;&gt;Node17</title>
<g id="a_edge36_Node000020_Node000017"><a xlink:title=" ">
<path fill="none" stroke="#63b8ff" d="M930.22,-296.23C922.61,-261.68 896.59,-143.65 885.94,-95.36"/>
<polygon fill="#63b8ff" stroke="#63b8ff" points="889.38,-94.68 883.81,-85.67 882.54,-96.19 889.38,-94.68"/>
</a>
</g>
</g>
<!-- Node21 -->
<g id="Node000021" class="node">
<title>Node21</title>
<g id="a_Node000021"><a xlink:title=" ">
<polygon fill="#e0e0e0" stroke="#999999" points="1009.85,-260.5 960.85,-260.5 960.85,-239.75 1009.85,-239.75 1009.85,-260.5"/>
<text text-anchor="middle" x="985.35" y="-247" font-family="Helvetica,sans-Serif" font-size="10.00">chrono</text>
</a>
</g>
</g>
<!-- Node20&#45;&gt;Node21 -->
<g id="edge34_Node000020_Node000021" class="edge">
<title>Node20&#45;&gt;Node21</title>
<g id="a_edge34_Node000020_Node000021"><a xlink:title=" ">
<path fill="none" stroke="#63b8ff" d="M941.82,-296.09C949.13,-288.53 959.44,-277.89 968.19,-268.85"/>
<polygon fill="#63b8ff" stroke="#63b8ff" points="970.46,-271.54 974.9,-261.92 965.43,-266.67 970.46,-271.54"/>
</a>
</g>
</g>
<!-- Node22 -->
<g id="Node000022" class="node">
<title>Node22</title>
<g id="a_Node000022"><a xlink:title=" ">
<polygon fill="#e0e0e0" stroke="#999999" points="1134.72,-260.5 1027.97,-260.5 1027.97,-239.75 1134.72,-239.75 1134.72,-260.5"/>
<text text-anchor="middle" x="1081.35" y="-247" font-family="Helvetica,sans-Serif" font-size="10.00">concurrentqueue.h</text>
</a>
</g>
</g>
<!-- Node20&#45;&gt;Node22 -->
<g id="edge35_Node000020_Node000022" class="edge">
<title>Node20&#45;&gt;Node22</title>
<g id="a_edge35_Node000020_Node000022"><a xlink:title=" ">
<path fill="none" stroke="#63b8ff" d="M958.98,-296.09C982.64,-287.39 1017.47,-274.6 1043.92,-264.88"/>
<polygon fill="#63b8ff" stroke="#63b8ff" points="1045.09,-268.18 1053.27,-261.44 1042.67,-261.61 1045.09,-268.18"/>
</a>
</g>
</g>
</g>
</svg>
