<?xml version="1.0" encoding="UTF-8" standalone="no"?>
<!DOCTYPE svg PUBLIC "-//W3C//DTD SVG 1.1//EN"
 "http://www.w3.org/Graphics/SVG/1.1/DTD/svg11.dtd">
<!-- Generated by graphviz version 2.43.0 (0)
 -->
<!-- Title: include/EyeAICore/utils/Profiling.hpp Pages: 1 -->
<svg width="990pt" height="95pt"
 viewBox="0.00 0.00 989.50 95.00" xmlns="http://www.w3.org/2000/svg" xmlns:xlink="http://www.w3.org/1999/xlink">
<g id="graph0" class="graph" transform="scale(1 1) rotate(0) translate(4 91)">
<title>include/EyeAICore/utils/Profiling.hpp</title>
<!-- Node1 -->
<g id="node1" class="node">
<title>Node1</title>
<g id="a_node1"><a xlink:title=" ">
<polygon fill="#bfbfbf" stroke="black" points="420,-56.5 420,-86.5 549,-86.5 549,-56.5 420,-56.5"/>
<text text-anchor="start" x="428" y="-74.5" font-family="Helvetica,sans-Serif" font-size="10.00">include/EyeAICore/utils</text>
<text text-anchor="middle" x="484.5" y="-63.5" font-family="Helvetica,sans-Serif" font-size="10.00">/Profiling.hpp</text>
</a>
</g>
</g>
<!-- Node2 -->
<g id="node2" class="node">
<title>Node2</title>
<g id="a_node2"><a xlink:href="DepthModel_8cpp.html" target="_top" xlink:title=" ">
<polygon fill="none" stroke="black" points="0,-0.5 0,-19.5 113,-19.5 113,-0.5 0,-0.5"/>
<text text-anchor="middle" x="56.5" y="-7.5" font-family="Helvetica,sans-Serif" font-size="10.00">src/DepthModel.cpp</text>
</a>
</g>
</g>
<!-- Node1&#45;&gt;Node2 -->
<g id="edge1" class="edge">
<title>Node1&#45;&gt;Node2</title>
<path fill="none" stroke="midnightblue" d="M409.91,-60.13C325.32,-48.37 189.27,-29.46 113.01,-18.86"/>
<polygon fill="midnightblue" stroke="midnightblue" points="409.57,-63.62 419.96,-61.53 410.54,-56.68 409.57,-63.62"/>
</g>
<!-- Node3 -->
<g id="node3" class="node">
<title>Node3</title>
<g id="a_node3"><a xlink:href="Operators_8cpp.html" target="_top" xlink:title=" ">
<polygon fill="none" stroke="black" points="131.5,-0.5 131.5,-19.5 233.5,-19.5 233.5,-0.5 131.5,-0.5"/>
<text text-anchor="middle" x="182.5" y="-7.5" font-family="Helvetica,sans-Serif" font-size="10.00">src/Operators.cpp</text>
</a>
</g>
</g>
<!-- Node1&#45;&gt;Node3 -->
<g id="edge2" class="edge">
<title>Node1&#45;&gt;Node3</title>
<path fill="none" stroke="midnightblue" d="M409.88,-55.8C351.98,-44.39 273.74,-28.98 225.77,-19.53"/>
<polygon fill="midnightblue" stroke="midnightblue" points="409.23,-59.24 419.71,-57.74 410.58,-52.37 409.23,-59.24"/>
</g>
<!-- Node4 -->
<g id="node4" class="node">
<title>Node4</title>
<g id="a_node4"><a xlink:href="TfLiteRuntime_8cpp.html" target="_top" xlink:title=" ">
<polygon fill="none" stroke="black" points="252,-0.5 252,-19.5 401,-19.5 401,-0.5 252,-0.5"/>
<text text-anchor="middle" x="326.5" y="-7.5" font-family="Helvetica,sans-Serif" font-size="10.00">src/tflite/TfLiteRuntime.cpp</text>
</a>
</g>
</g>
<!-- Node1&#45;&gt;Node4 -->
<g id="edge3" class="edge">
<title>Node1&#45;&gt;Node4</title>
<path fill="none" stroke="midnightblue" d="M437.5,-52.8C408.46,-41.86 372.47,-28.31 349.49,-19.66"/>
<polygon fill="midnightblue" stroke="midnightblue" points="436.46,-56.15 447.06,-56.4 438.93,-49.6 436.46,-56.15"/>
</g>
<!-- Node5 -->
<g id="node5" class="node">
<title>Node5</title>
<g id="a_node5"><a xlink:href="TfLiteUtils_8cpp.html" target="_top" xlink:title=" ">
<polygon fill="none" stroke="black" points="419.5,-0.5 419.5,-19.5 549.5,-19.5 549.5,-0.5 419.5,-0.5"/>
<text text-anchor="middle" x="484.5" y="-7.5" font-family="Helvetica,sans-Serif" font-size="10.00">src/tflite/TfLiteUtils.cpp</text>
</a>
</g>
</g>
<!-- Node1&#45;&gt;Node5 -->
<g id="edge4" class="edge">
<title>Node1&#45;&gt;Node5</title>
<path fill="none" stroke="midnightblue" d="M484.5,-46.29C484.5,-36.86 484.5,-26.65 484.5,-19.66"/>
<polygon fill="midnightblue" stroke="midnightblue" points="481,-46.4 484.5,-56.4 488,-46.4 481,-46.4"/>
</g>
<!-- Node6 -->
<g id="node6" class="node">
<title>Node6</title>
<g id="a_node6"><a xlink:href="DepthColormap_8cpp.html" target="_top" xlink:title=" ">
<polygon fill="none" stroke="black" points="568,-0.5 568,-19.5 723,-19.5 723,-0.5 568,-0.5"/>
<text text-anchor="middle" x="645.5" y="-7.5" font-family="Helvetica,sans-Serif" font-size="10.00">src/utils/DepthColormap.cpp</text>
</a>
</g>
</g>
<!-- Node1&#45;&gt;Node6 -->
<g id="edge5" class="edge">
<title>Node1&#45;&gt;Node6</title>
<path fill="none" stroke="midnightblue" d="M532.39,-52.8C561.99,-41.86 598.66,-28.31 622.07,-19.66"/>
<polygon fill="midnightblue" stroke="midnightblue" points="530.82,-49.65 522.65,-56.4 533.25,-56.22 530.82,-49.65"/>
</g>
<!-- Node7 -->
<g id="node7" class="node">
<title>Node7</title>
<g id="a_node7"><a xlink:href="Profiling_8cpp.html" target="_top" xlink:title=" ">
<polygon fill="none" stroke="black" points="741.5,-0.5 741.5,-19.5 859.5,-19.5 859.5,-0.5 741.5,-0.5"/>
<text text-anchor="middle" x="800.5" y="-7.5" font-family="Helvetica,sans-Serif" font-size="10.00">src/utils/Profiling.cpp</text>
</a>
</g>
</g>
<!-- Node1&#45;&gt;Node7 -->
<g id="edge6" class="edge">
<title>Node1&#45;&gt;Node7</title>
<path fill="none" stroke="midnightblue" d="M559.16,-56.44C620.06,-44.97 704.12,-29.15 755.26,-19.52"/>
<polygon fill="midnightblue" stroke="midnightblue" points="558.39,-53.03 549.21,-58.32 559.68,-59.9 558.39,-53.03"/>
</g>
<!-- Node8 -->
<g id="node8" class="node">
<title>Node8</title>
<g id="a_node8"><a xlink:href="YoloModel_8cpp.html" target="_top" xlink:title=" ">
<polygon fill="none" stroke="black" points="877.5,-0.5 877.5,-19.5 981.5,-19.5 981.5,-0.5 877.5,-0.5"/>
<text text-anchor="middle" x="929.5" y="-7.5" font-family="Helvetica,sans-Serif" font-size="10.00">src/YoloModel.cpp</text>
</a>
</g>
</g>
<!-- Node1&#45;&gt;Node8 -->
<g id="edge7" class="edge">
<title>Node1&#45;&gt;Node8</title>
<path fill="none" stroke="midnightblue" d="M559.22,-61.03C636.64,-51.13 761.11,-34.98 868.5,-20 871.36,-19.6 874.3,-19.19 877.26,-18.76"/>
<polygon fill="midnightblue" stroke="midnightblue" points="558.56,-57.58 549.09,-62.32 559.45,-64.53 558.56,-57.58"/>
</g>
</g>
</svg>
