<?xml version="1.0" encoding="UTF-8" standalone="no"?>
<!DOCTYPE svg PUBLIC "-//W3C//DTD SVG 1.1//EN"
 "http://www.w3.org/Graphics/SVG/1.1/DTD/svg11.dtd">
<!-- Generated by graphviz version 12.2.1 (20241206.2353)
 -->
<!-- Title: include/EyeAICore/utils/Profiling.hpp Pages: 1 -->
<svg width="1754pt" height="111pt"
 viewBox="0.00 0.00 1754.00 111.00" xmlns="http://www.w3.org/2000/svg" xmlns:xlink="http://www.w3.org/1999/xlink">
<g id="graph0" class="graph" transform="scale(1 1) rotate(0) translate(4 107)">
<title>include/EyeAICore/utils/Profiling.hpp</title>
<!-- Node1 -->
<g id="Node000001" class="node">
<title>Node1</title>
<g id="a_Node000001"><a xlink:title=" ">
<polygon fill="#999999" stroke="#666666" points="877.62,-103 749.12,-103 749.12,-69.5 877.62,-69.5 877.62,-103"/>
<text text-anchor="start" x="757.12" y="-89.5" font-family="Helvetica,sans-Serif" font-size="10.00">include/EyeAICore/utils</text>
<text text-anchor="middle" x="813.38" y="-76.75" font-family="Helvetica,sans-Serif" font-size="10.00">/Profiling.hpp</text>
</a>
</g>
</g>
<!-- Node2 -->
<g id="Node000002" class="node">
<title>Node2</title>
<g id="a_Node000002"><a xlink:href="DepthModel_8cpp.html" target="_top" xlink:title=" ">
<polygon fill="white" stroke="#666666" points="112.75,-27.12 0,-27.12 0,-6.38 112.75,-6.38 112.75,-27.12"/>
<text text-anchor="middle" x="56.38" y="-13.62" font-family="Helvetica,sans-Serif" font-size="10.00">src/DepthModel.cpp</text>
</a>
</g>
</g>
<!-- Node1&#45;&gt;Node2 -->
<g id="edge1_Node000001_Node000002" class="edge">
<title>Node1&#45;&gt;Node2</title>
<g id="a_edge1_Node000001_Node000002"><a xlink:title=" ">
<path fill="none" stroke="#63b8ff" d="M737.87,-83.63C610.18,-79.99 343.75,-68.52 121.38,-33.5 111.85,-32 101.68,-29.82 92.26,-27.55"/>
<polygon fill="#63b8ff" stroke="#63b8ff" points="737.45,-87.12 747.54,-83.89 737.64,-80.12 737.45,-87.12"/>
</a>
</g>
</g>
<!-- Node3 -->
<g id="Node000003" class="node">
<title>Node3</title>
<g id="a_Node000003"><a xlink:href="MetricDepthModel_8cpp.html" target="_top" xlink:title=" ">
<polygon fill="white" stroke="#666666" points="274.12,-27.12 130.62,-27.12 130.62,-6.38 274.12,-6.38 274.12,-27.12"/>
<text text-anchor="middle" x="202.38" y="-13.62" font-family="Helvetica,sans-Serif" font-size="10.00">src/MetricDepthModel.cpp</text>
</a>
</g>
</g>
<!-- Node1&#45;&gt;Node3 -->
<g id="edge2_Node000001_Node000003" class="edge">
<title>Node1&#45;&gt;Node3</title>
<g id="a_edge2_Node000001_Node000003"><a xlink:title=" ">
<path fill="none" stroke="#63b8ff" d="M737.46,-80.11C634.31,-72.61 444.3,-56.95 283.38,-33.5 272.18,-31.87 260.17,-29.74 248.93,-27.59"/>
<polygon fill="#63b8ff" stroke="#63b8ff" points="736.95,-83.58 747.17,-80.81 737.45,-76.6 736.95,-83.58"/>
</a>
</g>
</g>
<!-- Node4 -->
<g id="Node000004" class="node">
<title>Node4</title>
<g id="a_Node000004"><a xlink:href="ObjectTracker_8cpp.html" target="_top" xlink:title=" ">
<polygon fill="white" stroke="#666666" points="410.75,-27.12 292,-27.12 292,-6.38 410.75,-6.38 410.75,-27.12"/>
<text text-anchor="middle" x="351.38" y="-13.62" font-family="Helvetica,sans-Serif" font-size="10.00">src/ObjectTracker.cpp</text>
</a>
</g>
</g>
<!-- Node1&#45;&gt;Node4 -->
<g id="edge3_Node000001_Node000004" class="edge">
<title>Node1&#45;&gt;Node4</title>
<g id="a_edge3_Node000001_Node000004"><a xlink:title=" ">
<path fill="none" stroke="#63b8ff" d="M737.55,-77.5C657.97,-68.85 529.37,-53.41 419.38,-33.5 410.07,-31.82 400.13,-29.7 390.79,-27.56"/>
<polygon fill="#63b8ff" stroke="#63b8ff" points="737.11,-80.97 747.42,-78.56 737.86,-74.01 737.11,-80.97"/>
</a>
</g>
</g>
<!-- Node5 -->
<g id="Node000005" class="node">
<title>Node5</title>
<g id="a_Node000005"><a xlink:href="Operators_8cpp.html" target="_top" xlink:title=" ">
<polygon fill="white" stroke="#666666" points="530.12,-27.12 428.62,-27.12 428.62,-6.38 530.12,-6.38 530.12,-27.12"/>
<text text-anchor="middle" x="479.38" y="-13.62" font-family="Helvetica,sans-Serif" font-size="10.00">src/Operators.cpp</text>
</a>
</g>
</g>
<!-- Node1&#45;&gt;Node5 -->
<g id="edge4_Node000001_Node000005" class="edge">
<title>Node1&#45;&gt;Node5</title>
<g id="a_edge4_Node000001_Node000005"><a xlink:title=" ">
<path fill="none" stroke="#63b8ff" d="M737.5,-72.55C682.1,-62.89 605.3,-48.71 538.38,-33.5 530.62,-31.74 522.35,-29.66 514.52,-27.59"/>
<polygon fill="#63b8ff" stroke="#63b8ff" points="736.7,-75.96 747.15,-74.22 737.89,-69.06 736.7,-75.96"/>
</a>
</g>
</g>
<!-- Node6 -->
<g id="Node000006" class="node">
<title>Node6</title>
<g id="a_Node000006"><a xlink:href="YoloModel_8cpp.html" target="_top" xlink:title=" ">
<polygon fill="white" stroke="#666666" points="650.88,-27.12 547.88,-27.12 547.88,-6.38 650.88,-6.38 650.88,-27.12"/>
<text text-anchor="middle" x="599.38" y="-13.62" font-family="Helvetica,sans-Serif" font-size="10.00">src/YoloModel.cpp</text>
</a>
</g>
</g>
<!-- Node1&#45;&gt;Node6 -->
<g id="edge5_Node000001_Node000006" class="edge">
<title>Node1&#45;&gt;Node6</title>
<g id="a_edge5_Node000001_Node000006"><a xlink:title=" ">
<path fill="none" stroke="#63b8ff" d="M751.25,-65.66C711.72,-53.19 662.2,-37.57 630.67,-27.62"/>
<polygon fill="#63b8ff" stroke="#63b8ff" points="750.08,-68.96 760.67,-68.63 752.19,-62.28 750.08,-68.96"/>
</a>
</g>
</g>
<!-- Node7 -->
<g id="Node000007" class="node">
<title>Node7</title>
<g id="a_Node000007"><a xlink:href="AudioMain_8cpp.html" target="_top" xlink:title=" ">
<polygon fill="white" stroke="#666666" points="804,-27.12 668.75,-27.12 668.75,-6.38 804,-6.38 804,-27.12"/>
<text text-anchor="middle" x="736.38" y="-13.62" font-family="Helvetica,sans-Serif" font-size="10.00">src/audio/AudioMain.cpp</text>
</a>
</g>
</g>
<!-- Node1&#45;&gt;Node7 -->
<g id="edge6_Node000001_Node000007" class="edge">
<title>Node1&#45;&gt;Node7</title>
<g id="a_edge6_Node000001_Node000007"><a xlink:title=" ">
<path fill="none" stroke="#63b8ff" d="M786.71,-61.87C773.31,-50.13 757.8,-36.53 747.58,-27.57"/>
<polygon fill="#63b8ff" stroke="#63b8ff" points="784.16,-64.3 793.99,-68.26 788.78,-59.03 784.16,-64.3"/>
</a>
</g>
</g>
<!-- Node8 -->
<g id="Node000008" class="node">
<title>Node8</title>
<g id="a_Node000008"><a xlink:href="CalculateSoundOrigin_8cpp.html" target="_top" xlink:title=" ">
<polygon fill="white" stroke="#666666" points="960.88,-33.5 821.88,-33.5 821.88,0 960.88,0 960.88,-33.5"/>
<text text-anchor="start" x="829.88" y="-20" font-family="Helvetica,sans-Serif" font-size="10.00">src/audio/CalculateSound</text>
<text text-anchor="middle" x="891.38" y="-7.25" font-family="Helvetica,sans-Serif" font-size="10.00">Origin.cpp</text>
</a>
</g>
</g>
<!-- Node1&#45;&gt;Node8 -->
<g id="edge7_Node000001_Node000008" class="edge">
<title>Node1&#45;&gt;Node8</title>
<g id="a_edge7_Node000001_Node000008"><a xlink:title=" ">
<path fill="none" stroke="#63b8ff" d="M840.43,-61.84C851.1,-52.6 863.09,-42.23 872.75,-33.87"/>
<polygon fill="#63b8ff" stroke="#63b8ff" points="838.28,-59.07 833,-68.26 842.86,-64.37 838.28,-59.07"/>
</a>
</g>
</g>
<!-- Node9 -->
<g id="Node000009" class="node">
<title>Node9</title>
<g id="a_Node000009"><a xlink:href="SpatialAudio_8cpp.html" target="_top" xlink:title=" ">
<polygon fill="white" stroke="#666666" points="1123.88,-27.12 978.88,-27.12 978.88,-6.38 1123.88,-6.38 1123.88,-27.12"/>
<text text-anchor="middle" x="1051.38" y="-13.62" font-family="Helvetica,sans-Serif" font-size="10.00">src/audio/SpatialAudio.cpp</text>
</a>
</g>
</g>
<!-- Node1&#45;&gt;Node9 -->
<g id="edge8_Node000001_Node000009" class="edge">
<title>Node1&#45;&gt;Node9</title>
<g id="a_edge8_Node000001_Node000009"><a xlink:title=" ">
<path fill="none" stroke="#63b8ff" d="M881.34,-65.97C925.49,-53.45 981.21,-37.65 1016.58,-27.62"/>
<polygon fill="#63b8ff" stroke="#63b8ff" points="880.5,-62.57 871.84,-68.67 882.41,-69.31 880.5,-62.57"/>
</a>
</g>
</g>
<!-- Node10 -->
<g id="Node000010" class="node">
<title>Node10</title>
<g id="a_Node000010"><a xlink:href="TfLiteRuntime_8cpp.html" target="_top" xlink:title=" ">
<polygon fill="white" stroke="#666666" points="1290.38,-27.12 1142.38,-27.12 1142.38,-6.38 1290.38,-6.38 1290.38,-27.12"/>
<text text-anchor="middle" x="1216.38" y="-13.62" font-family="Helvetica,sans-Serif" font-size="10.00">src/tflite/TfLiteRuntime.cpp</text>
</a>
</g>
</g>
<!-- Node1&#45;&gt;Node10 -->
<g id="edge9_Node000001_Node000010" class="edge">
<title>Node1&#45;&gt;Node10</title>
<g id="a_edge9_Node000001_Node000010"><a xlink:title=" ">
<path fill="none" stroke="#63b8ff" d="M889.47,-73.54C954.37,-63.41 1050.11,-48.13 1133.38,-33.5 1143.92,-31.65 1155.2,-29.57 1165.94,-27.55"/>
<polygon fill="#63b8ff" stroke="#63b8ff" points="888.96,-70.08 879.62,-75.08 890.04,-76.99 888.96,-70.08"/>
</a>
</g>
</g>
<!-- Node11 -->
<g id="Node000011" class="node">
<title>Node11</title>
<g id="a_Node000011"><a xlink:href="TfLiteUtils_8cpp.html" target="_top" xlink:title=" ">
<polygon fill="white" stroke="#666666" points="1438,-27.12 1308.75,-27.12 1308.75,-6.38 1438,-6.38 1438,-27.12"/>
<text text-anchor="middle" x="1373.38" y="-13.62" font-family="Helvetica,sans-Serif" font-size="10.00">src/tflite/TfLiteUtils.cpp</text>
</a>
</g>
</g>
<!-- Node1&#45;&gt;Node11 -->
<g id="edge10_Node000001_Node000011" class="edge">
<title>Node1&#45;&gt;Node11</title>
<g id="a_edge10_Node000001_Node000011"><a xlink:title=" ">
<path fill="none" stroke="#63b8ff" d="M889.45,-79.6C985.39,-71.92 1155.24,-56.45 1299.38,-33.5 1309.62,-31.87 1320.59,-29.74 1330.86,-27.59"/>
<polygon fill="#63b8ff" stroke="#63b8ff" points="889.32,-76.1 879.63,-80.38 889.87,-83.08 889.32,-76.1"/>
</a>
</g>
</g>
<!-- Node12 -->
<g id="Node000012" class="node">
<title>Node12</title>
<g id="a_Node000012"><a xlink:href="DepthColormap_8cpp.html" target="_top" xlink:title=" ">
<polygon fill="white" stroke="#666666" points="1610.38,-27.12 1456.38,-27.12 1456.38,-6.38 1610.38,-6.38 1610.38,-27.12"/>
<text text-anchor="middle" x="1533.38" y="-13.62" font-family="Helvetica,sans-Serif" font-size="10.00">src/utils/DepthColormap.cpp</text>
</a>
</g>
</g>
<!-- Node1&#45;&gt;Node12 -->
<g id="edge11_Node000001_Node000012" class="edge">
<title>Node1&#45;&gt;Node12</title>
<g id="a_edge11_Node000001_Node000012"><a xlink:title=" ">
<path fill="none" stroke="#63b8ff" d="M889.1,-81.52C1008.26,-75.09 1246.65,-60.01 1447.38,-33.5 1459.41,-31.91 1472.33,-29.78 1484.39,-27.59"/>
<polygon fill="#63b8ff" stroke="#63b8ff" points="889.26,-78 879.46,-82.03 889.63,-84.99 889.26,-78"/>
</a>
</g>
</g>
<!-- Node13 -->
<g id="Node000013" class="node">
<title>Node13</title>
<g id="a_Node000013"><a xlink:href="Profiling_8cpp.html" target="_top" xlink:title=" ">
<polygon fill="white" stroke="#666666" points="1746,-27.12 1628.75,-27.12 1628.75,-6.38 1746,-6.38 1746,-27.12"/>
<text text-anchor="middle" x="1687.38" y="-13.62" font-family="Helvetica,sans-Serif" font-size="10.00">src/utils/Profiling.cpp</text>
</a>
</g>
</g>
<!-- Node1&#45;&gt;Node13 -->
<g id="edge12_Node000001_Node000013" class="edge">
<title>Node1&#45;&gt;Node13</title>
<g id="a_edge12_Node000001_Node000013"><a xlink:title=" ">
<path fill="none" stroke="#63b8ff" d="M889.26,-84.5C1032.66,-82.18 1352.95,-72.64 1619.38,-33.5 1629.33,-32.04 1639.97,-29.87 1649.82,-27.6"/>
<polygon fill="#63b8ff" stroke="#63b8ff" points="889.46,-81 879.52,-84.65 889.57,-88 889.46,-81"/>
</a>
</g>
</g>
</g>
</svg>
