<?xml version="1.0" encoding="UTF-8" standalone="no"?>
<!DOCTYPE svg PUBLIC "-//W3C//DTD SVG 1.1//EN"
 "http://www.w3.org/Graphics/SVG/1.1/DTD/svg11.dtd">
<!-- Generated by graphviz version 12.2.1 (20241206.2353)
 -->
<!-- Title: include/EyeAICore/utils/Profiling.hpp Pages: 1 -->
<svg width="251pt" height="96pt"
 viewBox="0.00 0.00 251.38 96.00" xmlns="http://www.w3.org/2000/svg" xmlns:xlink="http://www.w3.org/1999/xlink">
<g id="graph0" class="graph" transform="scale(1 1) rotate(0) translate(4 92)">
<title>include/EyeAICore/utils/Profiling.hpp</title>
<!-- Node1 -->
<g id="Node000001" class="node">
<title>Node1</title>
<g id="a_Node000001"><a xlink:title=" ">
<polygon fill="#999999" stroke="#666666" points="171,-88 52.25,-88 52.25,-56 171,-56 171,-88"/>
<text text-anchor="start" x="60.25" y="-74.5" font-family="Helvetica,sans-Serif" font-size="10.00">include/EyeAICore/utils</text>
<text text-anchor="middle" x="111.62" y="-62.5" font-family="Helvetica,sans-Serif" font-size="10.00">/Profiling.hpp</text>
</a>
</g>
</g>
<!-- Node2 -->
<g id="Node000002" class="node">
<title>Node2</title>
<g id="a_Node000002"><a xlink:title=" ">
<polygon fill="#e0e0e0" stroke="#999999" points="45.25,-20 0,-20 0,0 45.25,0 45.25,-20"/>
<text text-anchor="middle" x="22.62" y="-6.5" font-family="Helvetica,sans-Serif" font-size="10.00">chrono</text>
</a>
</g>
</g>
<!-- Node1&#45;&gt;Node2 -->
<g id="edge1_Node000001_Node000002" class="edge">
<title>Node1&#45;&gt;Node2</title>
<g id="a_edge1_Node000001_Node000002"><a xlink:title=" ">
<path fill="none" stroke="#63b8ff" d="M88.71,-55.55C75.57,-46.69 59.13,-35.61 45.93,-26.71"/>
<polygon fill="#63b8ff" stroke="#63b8ff" points="48.08,-23.94 37.84,-21.25 44.17,-29.75 48.08,-23.94"/>
</a>
</g>
</g>
<!-- Node3 -->
<g id="Node000003" class="node">
<title>Node3</title>
<g id="a_Node000003"><a xlink:title=" ">
<polygon fill="#e0e0e0" stroke="#999999" points="159.75,-20 63.5,-20 63.5,0 159.75,0 159.75,-20"/>
<text text-anchor="middle" x="111.62" y="-6.5" font-family="Helvetica,sans-Serif" font-size="10.00">concurrentqueue.h</text>
</a>
</g>
</g>
<!-- Node1&#45;&gt;Node3 -->
<g id="edge2_Node000001_Node000003" class="edge">
<title>Node1&#45;&gt;Node3</title>
<g id="a_edge2_Node000001_Node000003"><a xlink:title=" ">
<path fill="none" stroke="#63b8ff" d="M111.62,-55.55C111.62,-48.34 111.62,-39.66 111.62,-31.88"/>
<polygon fill="#63b8ff" stroke="#63b8ff" points="115.13,-31.92 111.63,-21.92 108.13,-31.92 115.13,-31.92"/>
</a>
</g>
</g>
<!-- Node4 -->
<g id="Node000004" class="node">
<title>Node4</title>
<g id="a_Node000004"><a xlink:title=" ">
<polygon fill="#e0e0e0" stroke="#999999" points="243.38,-20 177.88,-20 177.88,0 243.38,0 243.38,-20"/>
<text text-anchor="middle" x="210.62" y="-6.5" font-family="Helvetica,sans-Serif" font-size="10.00">string_view</text>
</a>
</g>
</g>
<!-- Node1&#45;&gt;Node4 -->
<g id="edge3_Node000001_Node000004" class="edge">
<title>Node1&#45;&gt;Node4</title>
<g id="a_edge3_Node000001_Node000004"><a xlink:title=" ">
<path fill="none" stroke="#63b8ff" d="M137.12,-55.55C152.02,-46.52 170.74,-35.17 185.56,-26.19"/>
<polygon fill="#63b8ff" stroke="#63b8ff" points="187.07,-29.37 193.81,-21.19 183.44,-23.38 187.07,-29.37"/>
</a>
</g>
</g>
</g>
</svg>
