<?xml version="1.0" encoding="UTF-8" standalone="no"?>
<!DOCTYPE svg PUBLIC "-//W3C//DTD SVG 1.1//EN"
 "http://www.w3.org/Graphics/SVG/1.1/DTD/svg11.dtd">
<!-- Generated by graphviz version 12.2.1 (20241206.2353)
 -->
<!-- Title: include/EyeAICore/utils/Profiling.hpp Pages: 1 -->
<svg width="273pt" height="98pt"
 viewBox="0.00 0.00 272.62 98.25" xmlns="http://www.w3.org/2000/svg" xmlns:xlink="http://www.w3.org/1999/xlink">
<g id="graph0" class="graph" transform="scale(1 1) rotate(0) translate(4 94.25)">
<title>include/EyeAICore/utils/Profiling.hpp</title>
<!-- Node1 -->
<g id="Node000001" class="node">
<title>Node1</title>
<g id="a_Node000001"><a xlink:title=" ">
<polygon fill="#999999" stroke="#666666" points="184.75,-90.25 56.25,-90.25 56.25,-56.75 184.75,-56.75 184.75,-90.25"/>
<text text-anchor="start" x="64.25" y="-76.75" font-family="Helvetica,sans-Serif" font-size="10.00">include/EyeAICore/utils</text>
<text text-anchor="middle" x="120.5" y="-64" font-family="Helvetica,sans-Serif" font-size="10.00">/Profiling.hpp</text>
</a>
</g>
</g>
<!-- Node2 -->
<g id="Node000002" class="node">
<title>Node2</title>
<g id="a_Node000002"><a xlink:title=" ">
<polygon fill="#e0e0e0" stroke="#999999" points="49,-20.75 0,-20.75 0,0 49,0 49,-20.75"/>
<text text-anchor="middle" x="24.5" y="-7.25" font-family="Helvetica,sans-Serif" font-size="10.00">chrono</text>
</a>
</g>
</g>
<!-- Node1&#45;&gt;Node2 -->
<g id="edge1_Node000001_Node000002" class="edge">
<title>Node1&#45;&gt;Node2</title>
<g id="a_edge1_Node000001_Node000002"><a xlink:title=" ">
<path fill="none" stroke="#63b8ff" d="M95.03,-56.28C80.9,-47.29 63.41,-36.15 49.38,-27.22"/>
<polygon fill="#63b8ff" stroke="#63b8ff" points="51.47,-24.4 41.15,-21.98 47.71,-30.3 51.47,-24.4"/>
</a>
</g>
</g>
<!-- Node3 -->
<g id="Node000003" class="node">
<title>Node3</title>
<g id="a_Node000003"><a xlink:title=" ">
<polygon fill="#e0e0e0" stroke="#999999" points="173.88,-20.75 67.12,-20.75 67.12,0 173.88,0 173.88,-20.75"/>
<text text-anchor="middle" x="120.5" y="-7.25" font-family="Helvetica,sans-Serif" font-size="10.00">concurrentqueue.h</text>
</a>
</g>
</g>
<!-- Node1&#45;&gt;Node3 -->
<g id="edge2_Node000001_Node000003" class="edge">
<title>Node1&#45;&gt;Node3</title>
<g id="a_edge2_Node000001_Node000003"><a xlink:title=" ">
<path fill="none" stroke="#63b8ff" d="M120.5,-56.44C120.5,-49.1 120.5,-40.32 120.5,-32.46"/>
<polygon fill="#63b8ff" stroke="#63b8ff" points="124,-32.73 120.5,-22.73 117,-32.73 124,-32.73"/>
</a>
</g>
</g>
<!-- Node4 -->
<g id="Node000004" class="node">
<title>Node4</title>
<g id="a_Node000004"><a xlink:title=" ">
<polygon fill="#e0e0e0" stroke="#999999" points="264.62,-20.75 192.38,-20.75 192.38,0 264.62,0 264.62,-20.75"/>
<text text-anchor="middle" x="228.5" y="-7.25" font-family="Helvetica,sans-Serif" font-size="10.00">string_view</text>
</a>
</g>
</g>
<!-- Node1&#45;&gt;Node4 -->
<g id="edge3_Node000001_Node000004" class="edge">
<title>Node1&#45;&gt;Node4</title>
<g id="a_edge3_Node000001_Node000004"><a xlink:title=" ">
<path fill="none" stroke="#63b8ff" d="M149.16,-56.28C165.36,-47.11 185.49,-35.72 201.42,-26.7"/>
<polygon fill="#63b8ff" stroke="#63b8ff" points="202.91,-29.88 209.89,-21.91 199.46,-23.79 202.91,-29.88"/>
</a>
</g>
</g>
</g>
</svg>
