<?xml version="1.0" encoding="UTF-8" standalone="no"?>
<!DOCTYPE svg PUBLIC "-//W3C//DTD SVG 1.1//EN"
 "http://www.w3.org/Graphics/SVG/1.1/DTD/svg11.dtd">
<!-- Generated by graphviz version 12.2.1 (20241206.2353)
 -->
<!-- Title: src/utils/Profiling.cpp Pages: 1 -->
<svg width="553pt" height="142pt"
 viewBox="0.00 0.00 553.00 142.25" xmlns="http://www.w3.org/2000/svg" xmlns:xlink="http://www.w3.org/1999/xlink">
<g id="graph0" class="graph" transform="scale(1 1) rotate(0) translate(4 138.25)">
<title>src/utils/Profiling.cpp</title>
<!-- Node1 -->
<g id="Node000001" class="node">
<title>Node1</title>
<g id="a_Node000001"><a xlink:title=" ">
<polygon fill="#999999" stroke="#666666" points="368.12,-134.25 250.88,-134.25 250.88,-113.5 368.12,-113.5 368.12,-134.25"/>
<text text-anchor="middle" x="309.5" y="-120.75" font-family="Helvetica,sans-Serif" font-size="10.00">src/utils/Profiling.cpp</text>
</a>
</g>
</g>
<!-- Node2 -->
<g id="Node000002" class="node">
<title>Node2</title>
<g id="a_Node000002"><a xlink:href="Profiling_8hpp.html" target="_top" xlink:title=" ">
<polygon fill="white" stroke="#666666" points="204.5,-77.5 50.5,-77.5 50.5,-56.75 204.5,-56.75 204.5,-77.5"/>
<text text-anchor="middle" x="127.5" y="-64" font-family="Helvetica,sans-Serif" font-size="10.00">EyeAICore/utils/Profiling.hpp</text>
</a>
</g>
</g>
<!-- Node1&#45;&gt;Node2 -->
<g id="edge1_Node000001_Node000002" class="edge">
<title>Node1&#45;&gt;Node2</title>
<g id="a_edge1_Node000001_Node000002"><a xlink:title=" ">
<path fill="none" stroke="#63b8ff" d="M276.96,-113.09C247.42,-104.2 203.62,-91.02 171.07,-81.23"/>
<polygon fill="#63b8ff" stroke="#63b8ff" points="172.1,-77.89 161.51,-78.36 170.08,-84.59 172.1,-77.89"/>
</a>
</g>
</g>
<!-- Node3 -->
<g id="Node000003" class="node">
<title>Node3</title>
<g id="a_Node000003"><a xlink:title=" ">
<polygon fill="#e0e0e0" stroke="#999999" points="49,-20.75 0,-20.75 0,0 49,0 49,-20.75"/>
<text text-anchor="middle" x="24.5" y="-7.25" font-family="Helvetica,sans-Serif" font-size="10.00">chrono</text>
</a>
</g>
</g>
<!-- Node1&#45;&gt;Node3 -->
<g id="edge9_Node000001_Node000003" class="edge">
<title>Node1&#45;&gt;Node3</title>
<g id="a_edge9_Node000001_Node000003"><a xlink:title=" ">
<path fill="none" stroke="#63b8ff" d="M250.61,-120.24C181.12,-115.91 71.24,-104.85 41.5,-77.5 29.09,-66.09 25.22,-46.96 24.24,-32.2"/>
<polygon fill="#63b8ff" stroke="#63b8ff" points="27.74,-32.52 24,-22.61 20.75,-32.69 27.74,-32.52"/>
</a>
</g>
</g>
<!-- Node6 -->
<g id="Node000006" class="node">
<title>Node6</title>
<g id="a_Node000006"><a xlink:href="MutexGuard_8hpp.html" target="_top" xlink:title=" ">
<polygon fill="white" stroke="#666666" points="396.62,-77.5 222.38,-77.5 222.38,-56.75 396.62,-56.75 396.62,-77.5"/>
<text text-anchor="middle" x="309.5" y="-64" font-family="Helvetica,sans-Serif" font-size="10.00">EyeAICore/utils/MutexGuard.hpp</text>
</a>
</g>
</g>
<!-- Node1&#45;&gt;Node6 -->
<g id="edge5_Node000001_Node000006" class="edge">
<title>Node1&#45;&gt;Node6</title>
<g id="a_edge5_Node000001_Node000006"><a xlink:title=" ">
<path fill="none" stroke="#63b8ff" d="M309.5,-113.09C309.5,-106.47 309.5,-97.47 309.5,-89.27"/>
<polygon fill="#63b8ff" stroke="#63b8ff" points="313,-89.34 309.5,-79.34 306,-89.34 313,-89.34"/>
</a>
</g>
</g>
<!-- Node9 -->
<g id="Node000009" class="node">
<title>Node9</title>
<g id="a_Node000009"><a xlink:title=" ">
<polygon fill="#e0e0e0" stroke="#999999" points="478.12,-77.5 414.88,-77.5 414.88,-56.75 478.12,-56.75 478.12,-77.5"/>
<text text-anchor="middle" x="446.5" y="-64" font-family="Helvetica,sans-Serif" font-size="10.00">algorithm</text>
</a>
</g>
</g>
<!-- Node1&#45;&gt;Node9 -->
<g id="edge8_Node000001_Node000009" class="edge">
<title>Node1&#45;&gt;Node9</title>
<g id="a_edge8_Node000001_Node000009"><a xlink:title=" ">
<path fill="none" stroke="#63b8ff" d="M333.99,-113.09C355.62,-104.44 387.39,-91.75 411.66,-82.05"/>
<polygon fill="#63b8ff" stroke="#63b8ff" points="412.83,-85.35 420.81,-78.39 410.23,-78.85 412.83,-85.35"/>
</a>
</g>
</g>
<!-- Node10 -->
<g id="Node000010" class="node">
<title>Node10</title>
<g id="a_Node000010"><a xlink:title=" ">
<polygon fill="#e0e0e0" stroke="#999999" points="545,-77.5 496,-77.5 496,-56.75 545,-56.75 545,-77.5"/>
<text text-anchor="middle" x="520.5" y="-64" font-family="Helvetica,sans-Serif" font-size="10.00">format</text>
</a>
</g>
</g>
<!-- Node1&#45;&gt;Node10 -->
<g id="edge10_Node000001_Node000010" class="edge">
<title>Node1&#45;&gt;Node10</title>
<g id="a_edge10_Node000001_Node000010"><a xlink:title=" ">
<path fill="none" stroke="#63b8ff" d="M349.52,-113C383.25,-104.61 433.07,-92.04 484.63,-78.23"/>
<polygon fill="#63b8ff" stroke="#63b8ff" points="485.45,-81.63 494.19,-75.66 483.63,-74.87 485.45,-81.63"/>
</a>
</g>
</g>
<!-- Node2&#45;&gt;Node3 -->
<g id="edge2_Node000002_Node000003" class="edge">
<title>Node2&#45;&gt;Node3</title>
<g id="a_edge2_Node000002_Node000003"><a xlink:title=" ">
<path fill="none" stroke="#63b8ff" d="M109.09,-56.34C93.41,-48.01 70.65,-35.91 52.69,-26.36"/>
<polygon fill="#63b8ff" stroke="#63b8ff" points="54.56,-23.39 44.09,-21.79 51.28,-29.57 54.56,-23.39"/>
</a>
</g>
</g>
<!-- Node4 -->
<g id="Node000004" class="node">
<title>Node4</title>
<g id="a_Node000004"><a xlink:title=" ">
<polygon fill="#e0e0e0" stroke="#999999" points="174.88,-20.75 68.12,-20.75 68.12,0 174.88,0 174.88,-20.75"/>
<text text-anchor="middle" x="121.5" y="-7.25" font-family="Helvetica,sans-Serif" font-size="10.00">concurrentqueue.h</text>
</a>
</g>
</g>
<!-- Node2&#45;&gt;Node4 -->
<g id="edge3_Node000002_Node000004" class="edge">
<title>Node2&#45;&gt;Node4</title>
<g id="a_edge3_Node000002_Node000004"><a xlink:title=" ">
<path fill="none" stroke="#63b8ff" d="M126.43,-56.34C125.7,-49.72 124.72,-40.72 123.82,-32.52"/>
<polygon fill="#63b8ff" stroke="#63b8ff" points="127.3,-32.14 122.73,-22.58 120.34,-32.9 127.3,-32.14"/>
</a>
</g>
</g>
<!-- Node5 -->
<g id="Node000005" class="node">
<title>Node5</title>
<g id="a_Node000005"><a xlink:title=" ">
<polygon fill="#e0e0e0" stroke="#999999" points="265.62,-20.75 193.38,-20.75 193.38,0 265.62,0 265.62,-20.75"/>
<text text-anchor="middle" x="229.5" y="-7.25" font-family="Helvetica,sans-Serif" font-size="10.00">string_view</text>
</a>
</g>
</g>
<!-- Node2&#45;&gt;Node5 -->
<g id="edge4_Node000002_Node000005" class="edge">
<title>Node2&#45;&gt;Node5</title>
<g id="a_edge4_Node000002_Node000005"><a xlink:title=" ">
<path fill="none" stroke="#63b8ff" d="M145.74,-56.34C161.18,-48.05 183.59,-36.02 201.34,-26.49"/>
<polygon fill="#63b8ff" stroke="#63b8ff" points="202.93,-29.61 210.09,-21.79 199.62,-23.44 202.93,-29.61"/>
</a>
</g>
</g>
<!-- Node7 -->
<g id="Node000007" class="node">
<title>Node7</title>
<g id="a_Node000007"><a xlink:title=" ">
<polygon fill="#e0e0e0" stroke="#999999" points="332.25,-20.75 284.75,-20.75 284.75,0 332.25,0 332.25,-20.75"/>
<text text-anchor="middle" x="308.5" y="-7.25" font-family="Helvetica,sans-Serif" font-size="10.00">mutex</text>
</a>
</g>
</g>
<!-- Node6&#45;&gt;Node7 -->
<g id="edge6_Node000006_Node000007" class="edge">
<title>Node6&#45;&gt;Node7</title>
<g id="a_edge6_Node000006_Node000007"><a xlink:title=" ">
<path fill="none" stroke="#63b8ff" d="M309.32,-56.34C309.2,-49.72 309.04,-40.72 308.89,-32.52"/>
<polygon fill="#63b8ff" stroke="#63b8ff" points="312.39,-32.53 308.7,-22.59 305.39,-32.65 312.39,-32.53"/>
</a>
</g>
</g>
<!-- Node8 -->
<g id="Node000008" class="node">
<title>Node8</title>
<g id="a_Node000008"><a xlink:title=" ">
<polygon fill="#e0e0e0" stroke="#999999" points="394.75,-20.75 350.25,-20.75 350.25,0 394.75,0 394.75,-20.75"/>
<text text-anchor="middle" x="372.5" y="-7.25" font-family="Helvetica,sans-Serif" font-size="10.00">utility</text>
</a>
</g>
</g>
<!-- Node6&#45;&gt;Node8 -->
<g id="edge7_Node000006_Node000008" class="edge">
<title>Node6&#45;&gt;Node8</title>
<g id="a_edge7_Node000006_Node000008"><a xlink:title=" ">
<path fill="none" stroke="#63b8ff" d="M320.76,-56.34C329.63,-48.63 342.21,-37.7 352.75,-28.54"/>
<polygon fill="#63b8ff" stroke="#63b8ff" points="354.94,-31.27 360.19,-22.07 350.35,-25.99 354.94,-31.27"/>
</a>
</g>
</g>
</g>
</svg>
