<?xml version="1.0" encoding="UTF-8" standalone="no"?>
<!DOCTYPE svg PUBLIC "-//W3C//DTD SVG 1.1//EN"
 "http://www.w3.org/Graphics/SVG/1.1/DTD/svg11.dtd">
<!-- Generated by graphviz version 12.2.1 (20241206.2353)
 -->
<!-- Title: src/utils/Profiling.cpp Pages: 1 -->
<svg width="511pt" height="140pt"
 viewBox="0.00 0.00 510.50 140.00" xmlns="http://www.w3.org/2000/svg" xmlns:xlink="http://www.w3.org/1999/xlink">
<g id="graph0" class="graph" transform="scale(1 1) rotate(0) translate(4 136)">
<title>src/utils/Profiling.cpp</title>
<!-- Node1 -->
<g id="Node000001" class="node">
<title>Node1</title>
<g id="a_Node000001"><a xlink:title=" ">
<polygon fill="#999999" stroke="#666666" points="340.38,-132 232.88,-132 232.88,-112 340.38,-112 340.38,-132"/>
<text text-anchor="middle" x="286.62" y="-118.5" font-family="Helvetica,sans-Serif" font-size="10.00">src/utils/Profiling.cpp</text>
</a>
</g>
</g>
<!-- Node2 -->
<g id="Node000002" class="node">
<title>Node2</title>
<g id="a_Node000002"><a xlink:href="Profiling_8hpp.html" target="_top" xlink:title=" ">
<polygon fill="white" stroke="#666666" points="188.62,-76 46.62,-76 46.62,-56 188.62,-56 188.62,-76"/>
<text text-anchor="middle" x="117.62" y="-62.5" font-family="Helvetica,sans-Serif" font-size="10.00">EyeAICore/utils/Profiling.hpp</text>
</a>
</g>
</g>
<!-- Node1&#45;&gt;Node2 -->
<g id="edge1_Node000001_Node000002" class="edge">
<title>Node1&#45;&gt;Node2</title>
<g id="a_edge1_Node000001_Node000002"><a xlink:title=" ">
<path fill="none" stroke="#63b8ff" d="M257.19,-111.59C229.73,-102.82 188.53,-89.66 158.01,-79.9"/>
<polygon fill="#63b8ff" stroke="#63b8ff" points="159.32,-76.65 148.73,-76.94 157.19,-83.32 159.32,-76.65"/>
</a>
</g>
</g>
<!-- Node3 -->
<g id="Node000003" class="node">
<title>Node3</title>
<g id="a_Node000003"><a xlink:title=" ">
<polygon fill="#e0e0e0" stroke="#999999" points="45.25,-20 0,-20 0,0 45.25,0 45.25,-20"/>
<text text-anchor="middle" x="22.62" y="-6.5" font-family="Helvetica,sans-Serif" font-size="10.00">chrono</text>
</a>
</g>
</g>
<!-- Node1&#45;&gt;Node3 -->
<g id="edge9_Node000001_Node000003" class="edge">
<title>Node1&#45;&gt;Node3</title>
<g id="a_edge9_Node000001_Node000003"><a xlink:title=" ">
<path fill="none" stroke="#63b8ff" d="M232.62,-118.06C167.97,-113.42 64.97,-102.07 37.62,-76 25.69,-64.63 22.39,-45.81 21.81,-31.34"/>
<polygon fill="#63b8ff" stroke="#63b8ff" points="25.31,-31.57 21.85,-21.56 18.31,-31.54 25.31,-31.57"/>
</a>
</g>
</g>
<!-- Node6 -->
<g id="Node000006" class="node">
<title>Node6</title>
<g id="a_Node000006"><a xlink:href="MutexGuard_8hpp.html" target="_top" xlink:title=" ">
<polygon fill="white" stroke="#666666" points="366.62,-76 206.62,-76 206.62,-56 366.62,-56 366.62,-76"/>
<text text-anchor="middle" x="286.62" y="-62.5" font-family="Helvetica,sans-Serif" font-size="10.00">EyeAICore/utils/MutexGuard.hpp</text>
</a>
</g>
</g>
<!-- Node1&#45;&gt;Node6 -->
<g id="edge5_Node000001_Node000006" class="edge">
<title>Node1&#45;&gt;Node6</title>
<g id="a_edge5_Node000001_Node000006"><a xlink:title=" ">
<path fill="none" stroke="#63b8ff" d="M286.62,-111.59C286.62,-105.01 286.62,-95.96 286.62,-87.73"/>
<polygon fill="#63b8ff" stroke="#63b8ff" points="290.13,-87.81 286.63,-77.81 283.13,-87.81 290.13,-87.81"/>
</a>
</g>
</g>
<!-- Node9 -->
<g id="Node000009" class="node">
<title>Node9</title>
<g id="a_Node000009"><a xlink:title=" ">
<polygon fill="#e0e0e0" stroke="#999999" points="440.5,-76 384.75,-76 384.75,-56 440.5,-56 440.5,-76"/>
<text text-anchor="middle" x="412.62" y="-62.5" font-family="Helvetica,sans-Serif" font-size="10.00">algorithm</text>
</a>
</g>
</g>
<!-- Node1&#45;&gt;Node9 -->
<g id="edge8_Node000001_Node000009" class="edge">
<title>Node1&#45;&gt;Node9</title>
<g id="a_edge8_Node000001_Node000009"><a xlink:title=" ">
<path fill="none" stroke="#63b8ff" d="M308.57,-111.59C328.33,-103.13 357.62,-90.58 380.09,-80.94"/>
<polygon fill="#63b8ff" stroke="#63b8ff" points="381.3,-84.23 389.12,-77.08 378.54,-77.8 381.3,-84.23"/>
</a>
</g>
</g>
<!-- Node10 -->
<g id="Node000010" class="node">
<title>Node10</title>
<g id="a_Node000010"><a xlink:title=" ">
<polygon fill="#e0e0e0" stroke="#999999" points="502.5,-76 458.75,-76 458.75,-56 502.5,-56 502.5,-76"/>
<text text-anchor="middle" x="480.62" y="-62.5" font-family="Helvetica,sans-Serif" font-size="10.00">format</text>
</a>
</g>
</g>
<!-- Node1&#45;&gt;Node10 -->
<g id="edge10_Node000001_Node000010" class="edge">
<title>Node1&#45;&gt;Node10</title>
<g id="a_edge10_Node000001_Node000010"><a xlink:title=" ">
<path fill="none" stroke="#63b8ff" d="M321.32,-111.56C352.09,-103.16 398.52,-90.41 447.47,-76.58"/>
<polygon fill="#63b8ff" stroke="#63b8ff" points="448.16,-80.03 456.83,-73.94 446.25,-73.29 448.16,-80.03"/>
</a>
</g>
</g>
<!-- Node2&#45;&gt;Node3 -->
<g id="edge2_Node000002_Node000003" class="edge">
<title>Node2&#45;&gt;Node3</title>
<g id="a_edge2_Node000002_Node000003"><a xlink:title=" ">
<path fill="none" stroke="#63b8ff" d="M101.08,-55.59C86.73,-47.44 65.7,-35.48 49.02,-26"/>
<polygon fill="#63b8ff" stroke="#63b8ff" points="51.04,-23.13 40.62,-21.23 47.58,-29.21 51.04,-23.13"/>
</a>
</g>
</g>
<!-- Node4 -->
<g id="Node000004" class="node">
<title>Node4</title>
<g id="a_Node000004"><a xlink:title=" ">
<polygon fill="#e0e0e0" stroke="#999999" points="161.75,-20 65.5,-20 65.5,0 161.75,0 161.75,-20"/>
<text text-anchor="middle" x="113.62" y="-6.5" font-family="Helvetica,sans-Serif" font-size="10.00">concurrentqueue.h</text>
</a>
</g>
</g>
<!-- Node2&#45;&gt;Node4 -->
<g id="edge3_Node000002_Node000004" class="edge">
<title>Node2&#45;&gt;Node4</title>
<g id="a_edge3_Node000002_Node000004"><a xlink:title=" ">
<path fill="none" stroke="#63b8ff" d="M116.93,-55.59C116.44,-49.01 115.77,-39.96 115.16,-31.73"/>
<polygon fill="#63b8ff" stroke="#63b8ff" points="118.65,-31.52 114.43,-21.81 111.67,-32.04 118.65,-31.52"/>
</a>
</g>
</g>
<!-- Node5 -->
<g id="Node000005" class="node">
<title>Node5</title>
<g id="a_Node000005"><a xlink:title=" ">
<polygon fill="#e0e0e0" stroke="#999999" points="245.38,-20 179.88,-20 179.88,0 245.38,0 245.38,-20"/>
<text text-anchor="middle" x="212.62" y="-6.5" font-family="Helvetica,sans-Serif" font-size="10.00">string_view</text>
</a>
</g>
</g>
<!-- Node2&#45;&gt;Node5 -->
<g id="edge4_Node000002_Node000005" class="edge">
<title>Node2&#45;&gt;Node5</title>
<g id="a_edge4_Node000002_Node000005"><a xlink:title=" ">
<path fill="none" stroke="#63b8ff" d="M134.17,-55.59C148.52,-47.44 169.55,-35.48 186.23,-26"/>
<polygon fill="#63b8ff" stroke="#63b8ff" points="187.67,-29.21 194.63,-21.23 184.21,-23.13 187.67,-29.21"/>
</a>
</g>
</g>
<!-- Node7 -->
<g id="Node000007" class="node">
<title>Node7</title>
<g id="a_Node000007"><a xlink:title=" ">
<polygon fill="#e0e0e0" stroke="#999999" points="307.12,-20 264.12,-20 264.12,0 307.12,0 307.12,-20"/>
<text text-anchor="middle" x="285.62" y="-6.5" font-family="Helvetica,sans-Serif" font-size="10.00">mutex</text>
</a>
</g>
</g>
<!-- Node6&#45;&gt;Node7 -->
<g id="edge6_Node000006_Node000007" class="edge">
<title>Node6&#45;&gt;Node7</title>
<g id="a_edge6_Node000006_Node000007"><a xlink:title=" ">
<path fill="none" stroke="#63b8ff" d="M286.45,-55.59C286.33,-49.01 286.16,-39.96 286.01,-31.73"/>
<polygon fill="#63b8ff" stroke="#63b8ff" points="289.51,-31.75 285.83,-21.81 282.51,-31.87 289.51,-31.75"/>
</a>
</g>
</g>
<!-- Node8 -->
<g id="Node000008" class="node">
<title>Node8</title>
<g id="a_Node000008"><a xlink:title=" ">
<polygon fill="#e0e0e0" stroke="#999999" points="364.25,-20 325,-20 325,0 364.25,0 364.25,-20"/>
<text text-anchor="middle" x="344.62" y="-6.5" font-family="Helvetica,sans-Serif" font-size="10.00">utility</text>
</a>
</g>
</g>
<!-- Node6&#45;&gt;Node8 -->
<g id="edge7_Node000006_Node000008" class="edge">
<title>Node6&#45;&gt;Node8</title>
<g id="a_edge7_Node000006_Node000008"><a xlink:title=" ">
<path fill="none" stroke="#63b8ff" d="M296.73,-55.59C304.88,-48.01 316.56,-37.13 326.34,-28.02"/>
<polygon fill="#63b8ff" stroke="#63b8ff" points="328.6,-30.71 333.53,-21.33 323.83,-25.58 328.6,-30.71"/>
</a>
</g>
</g>
</g>
</svg>
