<?xml version="1.0" encoding="UTF-8" standalone="no"?>
<!DOCTYPE svg PUBLIC "-//W3C//DTD SVG 1.1//EN"
 "http://www.w3.org/Graphics/SVG/1.1/DTD/svg11.dtd">
<!-- Generated by graphviz version 12.2.1 (20241206.2353)
 -->
<!-- Title: include/EyeAICore/utils/Profiling.hpp Pages: 1 -->
<svg width="1349pt" height="96pt"
 viewBox="0.00 0.00 1348.62 96.00" xmlns="http://www.w3.org/2000/svg" xmlns:xlink="http://www.w3.org/1999/xlink">
<g id="graph0" class="graph" transform="scale(1 1) rotate(0) translate(4 92)">
<title>include/EyeAICore/utils/Profiling.hpp</title>
<!-- Node1 -->
<g id="Node000001" class="node">
<title>Node1</title>
<g id="a_Node000001"><a xlink:title=" ">
<polygon fill="#999999" stroke="#666666" points="711.25,-88 592.5,-88 592.5,-56 711.25,-56 711.25,-88"/>
<text text-anchor="start" x="600.5" y="-74.5" font-family="Helvetica,sans-Serif" font-size="10.00">include/EyeAICore/utils</text>
<text text-anchor="middle" x="651.88" y="-62.5" font-family="Helvetica,sans-Serif" font-size="10.00">/Profiling.hpp</text>
</a>
</g>
</g>
<!-- Node2 -->
<g id="Node000002" class="node">
<title>Node2</title>
<g id="a_Node000002"><a xlink:href="DepthModel_8cpp.html" target="_top" xlink:title=" ">
<polygon fill="white" stroke="#666666" points="103.75,-20 0,-20 0,0 103.75,0 103.75,-20"/>
<text text-anchor="middle" x="51.88" y="-6.5" font-family="Helvetica,sans-Serif" font-size="10.00">src/DepthModel.cpp</text>
</a>
</g>
</g>
<!-- Node1&#45;&gt;Node2 -->
<g id="edge1_Node000001_Node000002" class="edge">
<title>Node1&#45;&gt;Node2</title>
<g id="a_edge1_Node000001_Node000002"><a xlink:title=" ">
<path fill="none" stroke="#63b8ff" d="M581.15,-65.49C478.02,-57.19 280.39,-40.27 112.88,-20 110.01,-19.65 107.06,-19.28 104.09,-18.89"/>
<polygon fill="#63b8ff" stroke="#63b8ff" points="580.59,-68.96 590.84,-66.27 581.15,-61.98 580.59,-68.96"/>
</a>
</g>
</g>
<!-- Node3 -->
<g id="Node000003" class="node">
<title>Node3</title>
<g id="a_Node000003"><a xlink:href="MetricDepthModel_8cpp.html" target="_top" xlink:title=" ">
<polygon fill="white" stroke="#666666" points="252.25,-20 121.5,-20 121.5,0 252.25,0 252.25,-20"/>
<text text-anchor="middle" x="186.88" y="-6.5" font-family="Helvetica,sans-Serif" font-size="10.00">src/MetricDepthModel.cpp</text>
</a>
</g>
</g>
<!-- Node1&#45;&gt;Node3 -->
<g id="edge2_Node000001_Node000003" class="edge">
<title>Node1&#45;&gt;Node3</title>
<g id="a_edge2_Node000001_Node000003"><a xlink:title=" ">
<path fill="none" stroke="#63b8ff" d="M580.65,-61.81C491.25,-50.27 339.15,-30.65 252.47,-19.46"/>
<polygon fill="#63b8ff" stroke="#63b8ff" points="580.17,-65.28 590.54,-63.09 581.07,-58.33 580.17,-65.28"/>
</a>
</g>
</g>
<!-- Node4 -->
<g id="Node000004" class="node">
<title>Node4</title>
<g id="a_Node000004"><a xlink:href="ObjectTracker_8cpp.html" target="_top" xlink:title=" ">
<polygon fill="white" stroke="#666666" points="383.25,-20 270.5,-20 270.5,0 383.25,0 383.25,-20"/>
<text text-anchor="middle" x="326.88" y="-6.5" font-family="Helvetica,sans-Serif" font-size="10.00">src/ObjectTracker.cpp</text>
</a>
</g>
</g>
<!-- Node1&#45;&gt;Node4 -->
<g id="edge3_Node000001_Node000004" class="edge">
<title>Node1&#45;&gt;Node4</title>
<g id="a_edge3_Node000001_Node000004"><a xlink:title=" ">
<path fill="none" stroke="#63b8ff" d="M581.15,-57.94C519.91,-46.64 432.8,-30.56 378.09,-20.45"/>
<polygon fill="#63b8ff" stroke="#63b8ff" points="580.31,-61.35 590.78,-59.72 581.58,-54.46 580.31,-61.35"/>
</a>
</g>
</g>
<!-- Node5 -->
<g id="Node000005" class="node">
<title>Node5</title>
<g id="a_Node000005"><a xlink:href="Operators_8cpp.html" target="_top" xlink:title=" ">
<polygon fill="white" stroke="#666666" points="494.88,-20 400.88,-20 400.88,0 494.88,0 494.88,-20"/>
<text text-anchor="middle" x="447.88" y="-6.5" font-family="Helvetica,sans-Serif" font-size="10.00">src/Operators.cpp</text>
</a>
</g>
</g>
<!-- Node1&#45;&gt;Node5 -->
<g id="edge4_Node000001_Node000005" class="edge">
<title>Node1&#45;&gt;Node5</title>
<g id="a_edge4_Node000001_Node000005"><a xlink:title=" ">
<path fill="none" stroke="#63b8ff" d="M588.46,-52.35C552.55,-41.79 509.15,-29.02 480.16,-20.5"/>
<polygon fill="#63b8ff" stroke="#63b8ff" points="587.31,-55.66 597.89,-55.12 589.28,-48.94 587.31,-55.66"/>
</a>
</g>
</g>
<!-- Node6 -->
<g id="Node000006" class="node">
<title>Node6</title>
<g id="a_Node000006"><a xlink:href="Rel2AbsDepthModel_8cpp.html" target="_top" xlink:title=" ">
<polygon fill="white" stroke="#666666" points="654.5,-20 513.25,-20 513.25,0 654.5,0 654.5,-20"/>
<text text-anchor="middle" x="583.88" y="-6.5" font-family="Helvetica,sans-Serif" font-size="10.00">src/Rel2AbsDepthModel.cpp</text>
</a>
</g>
</g>
<!-- Node1&#45;&gt;Node6 -->
<g id="edge5_Node000001_Node000006" class="edge">
<title>Node1&#45;&gt;Node6</title>
<g id="a_edge5_Node000001_Node000006"><a xlink:title=" ">
<path fill="none" stroke="#63b8ff" d="M625.96,-48.13C615.04,-38.5 602.95,-27.83 594.54,-20.41"/>
<polygon fill="#63b8ff" stroke="#63b8ff" points="623.41,-50.56 633.23,-54.55 628.05,-45.31 623.41,-50.56"/>
</a>
</g>
</g>
<!-- Node7 -->
<g id="Node000007" class="node">
<title>Node7</title>
<g id="a_Node000007"><a xlink:href="YoloModel_8cpp.html" target="_top" xlink:title=" ">
<polygon fill="white" stroke="#666666" points="769,-20 672.75,-20 672.75,0 769,0 769,-20"/>
<text text-anchor="middle" x="720.88" y="-6.5" font-family="Helvetica,sans-Serif" font-size="10.00">src/YoloModel.cpp</text>
</a>
</g>
</g>
<!-- Node1&#45;&gt;Node7 -->
<g id="edge6_Node000001_Node000007" class="edge">
<title>Node1&#45;&gt;Node7</title>
<g id="a_edge6_Node000001_Node000007"><a xlink:title=" ">
<path fill="none" stroke="#63b8ff" d="M678.18,-48.13C689.25,-38.5 701.52,-27.83 710.06,-20.41"/>
<polygon fill="#63b8ff" stroke="#63b8ff" points="676.04,-45.35 670.79,-54.56 680.63,-50.63 676.04,-45.35"/>
</a>
</g>
</g>
<!-- Node8 -->
<g id="Node000008" class="node">
<title>Node8</title>
<g id="a_Node000008"><a xlink:href="TfLiteRuntime_8cpp.html" target="_top" xlink:title=" ">
<polygon fill="white" stroke="#666666" points="921.12,-20 786.62,-20 786.62,0 921.12,0 921.12,-20"/>
<text text-anchor="middle" x="853.88" y="-6.5" font-family="Helvetica,sans-Serif" font-size="10.00">src/tflite/TfLiteRuntime.cpp</text>
</a>
</g>
</g>
<!-- Node1&#45;&gt;Node8 -->
<g id="edge7_Node000001_Node000008" class="edge">
<title>Node1&#45;&gt;Node8</title>
<g id="a_edge7_Node000001_Node000008"><a xlink:title=" ">
<path fill="none" stroke="#63b8ff" d="M714.67,-52.35C750.23,-41.79 793.2,-29.02 821.9,-20.5"/>
<polygon fill="#63b8ff" stroke="#63b8ff" points="713.94,-48.92 705.35,-55.12 715.93,-55.63 713.94,-48.92"/>
</a>
</g>
</g>
<!-- Node9 -->
<g id="Node000009" class="node">
<title>Node9</title>
<g id="a_Node000009"><a xlink:href="TfLiteUtils_8cpp.html" target="_top" xlink:title=" ">
<polygon fill="white" stroke="#666666" points="1056.88,-20 938.88,-20 938.88,0 1056.88,0 1056.88,-20"/>
<text text-anchor="middle" x="997.88" y="-6.5" font-family="Helvetica,sans-Serif" font-size="10.00">src/tflite/TfLiteUtils.cpp</text>
</a>
</g>
</g>
<!-- Node1&#45;&gt;Node9 -->
<g id="edge8_Node000001_Node000009" class="edge">
<title>Node1&#45;&gt;Node9</title>
<g id="a_edge8_Node000001_Node000009"><a xlink:title=" ">
<path fill="none" stroke="#63b8ff" d="M722.77,-58.71C788.11,-47.38 883.71,-30.8 943.29,-20.47"/>
<polygon fill="#63b8ff" stroke="#63b8ff" points="722.49,-55.2 713.24,-60.36 723.69,-62.1 722.49,-55.2"/>
</a>
</g>
</g>
<!-- Node10 -->
<g id="Node000010" class="node">
<title>Node10</title>
<g id="a_Node000010"><a xlink:href="DepthColormap_8cpp.html" target="_top" xlink:title=" ">
<polygon fill="white" stroke="#666666" points="1215.12,-20 1074.62,-20 1074.62,0 1215.12,0 1215.12,-20"/>
<text text-anchor="middle" x="1144.88" y="-6.5" font-family="Helvetica,sans-Serif" font-size="10.00">src/utils/DepthColormap.cpp</text>
</a>
</g>
</g>
<!-- Node1&#45;&gt;Node10 -->
<g id="edge9_Node000001_Node000010" class="edge">
<title>Node1&#45;&gt;Node10</title>
<g id="a_edge9_Node000001_Node000010"><a xlink:title=" ">
<path fill="none" stroke="#63b8ff" d="M722.7,-62.38C816.48,-50.97 980.89,-30.96 1074.46,-19.57"/>
<polygon fill="#63b8ff" stroke="#63b8ff" points="722.35,-58.9 712.84,-63.58 723.19,-65.85 722.35,-58.9"/>
</a>
</g>
</g>
<!-- Node11 -->
<g id="Node000011" class="node">
<title>Node11</title>
<g id="a_Node000011"><a xlink:href="Profiling_8cpp.html" target="_top" xlink:title=" ">
<polygon fill="white" stroke="#666666" points="1340.62,-20 1233.12,-20 1233.12,0 1340.62,0 1340.62,-20"/>
<text text-anchor="middle" x="1286.88" y="-6.5" font-family="Helvetica,sans-Serif" font-size="10.00">src/utils/Profiling.cpp</text>
</a>
</g>
</g>
<!-- Node1&#45;&gt;Node11 -->
<g id="edge10_Node000001_Node000011" class="edge">
<title>Node1&#45;&gt;Node11</title>
<g id="a_edge10_Node000001_Node000011"><a xlink:title=" ">
<path fill="none" stroke="#63b8ff" d="M723.1,-65.87C831.43,-57.79 1043.99,-40.85 1223.88,-20 1226.84,-19.66 1229.88,-19.29 1232.94,-18.9"/>
<polygon fill="#63b8ff" stroke="#63b8ff" points="722.91,-62.37 713.19,-66.6 723.42,-69.35 722.91,-62.37"/>
</a>
</g>
</g>
</g>
</svg>
