<?xml version="1.0" encoding="UTF-8" standalone="no"?>
<!DOCTYPE svg PUBLIC "-//W3C//DTD SVG 1.1//EN"
 "http://www.w3.org/Graphics/SVG/1.1/DTD/svg11.dtd">
<!-- Generated by graphviz version 12.2.1 (20241206.2353)
 -->
<!-- Title: include/EyeAICore/utils/Profiling.hpp Pages: 1 -->
<svg width="910pt" height="96pt"
 viewBox="0.00 0.00 909.62 96.00" xmlns="http://www.w3.org/2000/svg" xmlns:xlink="http://www.w3.org/1999/xlink">
<g id="graph0" class="graph" transform="scale(1 1) rotate(0) translate(4 92)">
<title>include/EyeAICore/utils/Profiling.hpp</title>
<!-- Node1 -->
<g id="Node000001" class="node">
<title>Node1</title>
<g id="a_Node000001"><a xlink:title=" ">
<polygon fill="#999999" stroke="#666666" points="474.25,-88 355.5,-88 355.5,-56 474.25,-56 474.25,-88"/>
<text text-anchor="start" x="363.5" y="-74.5" font-family="Helvetica,sans-Serif" font-size="10.00">include/EyeAICore/utils</text>
<text text-anchor="middle" x="414.88" y="-62.5" font-family="Helvetica,sans-Serif" font-size="10.00">/Profiling.hpp</text>
</a>
</g>
</g>
<!-- Node2 -->
<g id="Node000002" class="node">
<title>Node2</title>
<g id="a_Node000002"><a xlink:href="DepthModel_8cpp.html" target="_top" xlink:title=" ">
<polygon fill="white" stroke="#666666" points="103.75,-20 0,-20 0,0 103.75,0 103.75,-20"/>
<text text-anchor="middle" x="51.88" y="-6.5" font-family="Helvetica,sans-Serif" font-size="10.00">src/DepthModel.cpp</text>
</a>
</g>
</g>
<!-- Node1&#45;&gt;Node2 -->
<g id="edge1_Node000001_Node000002" class="edge">
<title>Node1&#45;&gt;Node2</title>
<g id="a_edge1_Node000001_Node000002"><a xlink:title=" ">
<path fill="none" stroke="#63b8ff" d="M344.36,-59.34C273.91,-47.7 167.26,-30.07 104.08,-19.63"/>
<polygon fill="#63b8ff" stroke="#63b8ff" points="343.41,-62.73 353.85,-60.91 344.55,-55.83 343.41,-62.73"/>
</a>
</g>
</g>
<!-- Node3 -->
<g id="Node000003" class="node">
<title>Node3</title>
<g id="a_Node000003"><a xlink:href="Operators_8cpp.html" target="_top" xlink:title=" ">
<polygon fill="white" stroke="#666666" points="215.88,-20 121.88,-20 121.88,0 215.88,0 215.88,-20"/>
<text text-anchor="middle" x="168.88" y="-6.5" font-family="Helvetica,sans-Serif" font-size="10.00">src/Operators.cpp</text>
</a>
</g>
</g>
<!-- Node1&#45;&gt;Node3 -->
<g id="edge2_Node000001_Node000003" class="edge">
<title>Node1&#45;&gt;Node3</title>
<g id="a_edge2_Node000001_Node000003"><a xlink:title=" ">
<path fill="none" stroke="#63b8ff" d="M343.97,-53.71C299.52,-42.86 243.93,-29.31 207.46,-20.41"/>
<polygon fill="#63b8ff" stroke="#63b8ff" points="343,-57.07 353.54,-56.04 344.65,-50.27 343,-57.07"/>
</a>
</g>
</g>
<!-- Node4 -->
<g id="Node000004" class="node">
<title>Node4</title>
<g id="a_Node000004"><a xlink:href="YoloModel_8cpp.html" target="_top" xlink:title=" ">
<polygon fill="white" stroke="#666666" points="330,-20 233.75,-20 233.75,0 330,0 330,-20"/>
<text text-anchor="middle" x="281.88" y="-6.5" font-family="Helvetica,sans-Serif" font-size="10.00">src/YoloModel.cpp</text>
</a>
</g>
</g>
<!-- Node1&#45;&gt;Node4 -->
<g id="edge3_Node000001_Node000004" class="edge">
<title>Node1&#45;&gt;Node4</title>
<g id="a_edge3_Node000001_Node000004"><a xlink:title=" ">
<path fill="none" stroke="#63b8ff" d="M370.14,-50.82C347.35,-40.54 320.73,-28.53 302.73,-20.41"/>
<polygon fill="#63b8ff" stroke="#63b8ff" points="368.69,-54 379.24,-54.93 371.57,-47.62 368.69,-54"/>
</a>
</g>
</g>
<!-- Node5 -->
<g id="Node000005" class="node">
<title>Node5</title>
<g id="a_Node000005"><a xlink:href="TfLiteRuntime_8cpp.html" target="_top" xlink:title=" ">
<polygon fill="white" stroke="#666666" points="482.12,-20 347.62,-20 347.62,0 482.12,0 482.12,-20"/>
<text text-anchor="middle" x="414.88" y="-6.5" font-family="Helvetica,sans-Serif" font-size="10.00">src/tflite/TfLiteRuntime.cpp</text>
</a>
</g>
</g>
<!-- Node1&#45;&gt;Node5 -->
<g id="edge4_Node000001_Node000005" class="edge">
<title>Node1&#45;&gt;Node5</title>
<g id="a_edge4_Node000001_Node000005"><a xlink:title=" ">
<path fill="none" stroke="#63b8ff" d="M414.88,-44.08C414.88,-35.6 414.88,-26.8 414.88,-20.41"/>
<polygon fill="#63b8ff" stroke="#63b8ff" points="411.38,-44.03 414.88,-54.03 418.38,-44.03 411.38,-44.03"/>
</a>
</g>
</g>
<!-- Node6 -->
<g id="Node000006" class="node">
<title>Node6</title>
<g id="a_Node000006"><a xlink:href="TfLiteUtils_8cpp.html" target="_top" xlink:title=" ">
<polygon fill="white" stroke="#666666" points="617.88,-20 499.88,-20 499.88,0 617.88,0 617.88,-20"/>
<text text-anchor="middle" x="558.88" y="-6.5" font-family="Helvetica,sans-Serif" font-size="10.00">src/tflite/TfLiteUtils.cpp</text>
</a>
</g>
</g>
<!-- Node1&#45;&gt;Node6 -->
<g id="edge5_Node000001_Node000006" class="edge">
<title>Node1&#45;&gt;Node6</title>
<g id="a_edge5_Node000001_Node000006"><a xlink:title=" ">
<path fill="none" stroke="#63b8ff" d="M462.31,-51.23C487.2,-40.86 516.54,-28.64 536.3,-20.41"/>
<polygon fill="#63b8ff" stroke="#63b8ff" points="461.24,-47.89 453.36,-54.97 463.93,-54.35 461.24,-47.89"/>
</a>
</g>
</g>
<!-- Node7 -->
<g id="Node000007" class="node">
<title>Node7</title>
<g id="a_Node000007"><a xlink:href="DepthColormap_8cpp.html" target="_top" xlink:title=" ">
<polygon fill="white" stroke="#666666" points="776.12,-20 635.62,-20 635.62,0 776.12,0 776.12,-20"/>
<text text-anchor="middle" x="705.88" y="-6.5" font-family="Helvetica,sans-Serif" font-size="10.00">src/utils/DepthColormap.cpp</text>
</a>
</g>
</g>
<!-- Node1&#45;&gt;Node7 -->
<g id="edge6_Node000001_Node000007" class="edge">
<title>Node1&#45;&gt;Node7</title>
<g id="a_edge6_Node000001_Node000007"><a xlink:title=" ">
<path fill="none" stroke="#63b8ff" d="M485.41,-56.46C539.77,-45.25 613.32,-30.08 660.2,-20.42"/>
<polygon fill="#63b8ff" stroke="#63b8ff" points="485.03,-52.96 475.95,-58.41 486.45,-59.82 485.03,-52.96"/>
</a>
</g>
</g>
<!-- Node8 -->
<g id="Node000008" class="node">
<title>Node8</title>
<g id="a_Node000008"><a xlink:href="Profiling_8cpp.html" target="_top" xlink:title=" ">
<polygon fill="white" stroke="#666666" points="901.62,-20 794.12,-20 794.12,0 901.62,0 901.62,-20"/>
<text text-anchor="middle" x="847.88" y="-6.5" font-family="Helvetica,sans-Serif" font-size="10.00">src/utils/Profiling.cpp</text>
</a>
</g>
</g>
<!-- Node1&#45;&gt;Node8 -->
<g id="edge7_Node000001_Node000008" class="edge">
<title>Node1&#45;&gt;Node8</title>
<g id="a_edge7_Node000001_Node000008"><a xlink:title=" ">
<path fill="none" stroke="#63b8ff" d="M485.58,-61.36C560.05,-51.18 680.74,-34.62 784.88,-20 787.83,-19.59 790.86,-19.16 793.92,-18.73"/>
<polygon fill="#63b8ff" stroke="#63b8ff" points="485.42,-57.85 475.98,-62.67 486.37,-64.78 485.42,-57.85"/>
</a>
</g>
</g>
</g>
</svg>
