<?xml version="1.0" encoding="UTF-8" standalone="no"?>
<!DOCTYPE svg PUBLIC "-//W3C//DTD SVG 1.1//EN"
 "http://www.w3.org/Graphics/SVG/1.1/DTD/svg11.dtd">
<!-- Generated by graphviz version 12.2.1 (20241206.2353)
 -->
<!-- Title: include/EyeAICore/Rel2AbsDepthModel.hpp Pages: 1 -->
<svg width="935pt" height="276pt"
 viewBox="0.00 0.00 935.34 276.00" xmlns="http://www.w3.org/2000/svg" xmlns:xlink="http://www.w3.org/1999/xlink">
<g id="graph0" class="graph" transform="scale(1 1) rotate(0) translate(4 272)">
<title>include/EyeAICore/Rel2AbsDepthModel.hpp</title>
<!-- Node1 -->
<g id="Node000001" class="node">
<title>Node1</title>
<g id="a_Node000001"><a xlink:title=" ">
<polygon fill="#999999" stroke="#666666" points="625.12,-268 486.88,-268 486.88,-236 625.12,-236 625.12,-268"/>
<text text-anchor="start" x="494.88" y="-254.5" font-family="Helvetica,sans-Serif" font-size="10.00">include/EyeAICore/Rel2Abs</text>
<text text-anchor="middle" x="556" y="-242.5" font-family="Helvetica,sans-Serif" font-size="10.00">DepthModel.hpp</text>
</a>
</g>
</g>
<!-- Node2 -->
<g id="Node000002" class="node">
<title>Node2</title>
<g id="a_Node000002"><a xlink:href="TensorBuffer_8hpp.html" target="_top" xlink:title=" ">
<polygon fill="white" stroke="#666666" points="366.25,-82 225.75,-82 225.75,-62 366.25,-62 366.25,-82"/>
<text text-anchor="middle" x="296" y="-68.5" font-family="Helvetica,sans-Serif" font-size="10.00">EyeAICore/TensorBuffer.hpp</text>
</a>
</g>
</g>
<!-- Node1&#45;&gt;Node2 -->
<g id="edge1_Node000001_Node000002" class="edge">
<title>Node1&#45;&gt;Node2</title>
<g id="a_edge1_Node000001_Node000002"><a xlink:title=" ">
<path fill="none" stroke="#63b8ff" d="M533.35,-235.62C502.82,-214.87 446.75,-176.73 399,-144 371.44,-125.11 339.81,-103.29 318.96,-88.87"/>
<polygon fill="#63b8ff" stroke="#63b8ff" points="321.11,-86.11 310.89,-83.3 317.13,-91.87 321.11,-86.11"/>
</a>
</g>
</g>
<!-- Node4 -->
<g id="Node000004" class="node">
<title>Node4</title>
<g id="a_Node000004"><a xlink:title=" ">
<polygon fill="#e0e0e0" stroke="#999999" points="743.62,-20 692.38,-20 692.38,0 743.62,0 743.62,-20"/>
<text text-anchor="middle" x="718" y="-6.5" font-family="Helvetica,sans-Serif" font-size="10.00">memory</text>
</a>
</g>
</g>
<!-- Node1&#45;&gt;Node4 -->
<g id="edge29_Node000001_Node000004" class="edge">
<title>Node1&#45;&gt;Node4</title>
<g id="a_edge29_Node000001_Node000004"><a xlink:title=" ">
<path fill="none" stroke="#63b8ff" d="M625.25,-239.66C717.58,-223 873.44,-188.93 908,-144 931.85,-112.99 934.3,-86.66 910,-56 891.05,-32.09 805.44,-19.66 755.16,-14.32"/>
<polygon fill="#63b8ff" stroke="#63b8ff" points="755.61,-10.85 745.31,-13.32 754.9,-17.81 755.61,-10.85"/>
</a>
</g>
</g>
<!-- Node8 -->
<g id="Node000008" class="node">
<title>Node8</title>
<g id="a_Node000008"><a xlink:href="TfLiteRuntime_8hpp.html" target="_top" xlink:title=" ">
<polygon fill="white" stroke="#666666" points="697.5,-200 528.5,-200 528.5,-180 697.5,-180 697.5,-200"/>
<text text-anchor="middle" x="613" y="-186.5" font-family="Helvetica,sans-Serif" font-size="10.00">EyeAICore/tflite/TfLiteRuntime.hpp</text>
</a>
</g>
</g>
<!-- Node1&#45;&gt;Node8 -->
<g id="edge7_Node000001_Node000008" class="edge">
<title>Node1&#45;&gt;Node8</title>
<g id="a_edge7_Node000001_Node000008"><a xlink:title=" ">
<path fill="none" stroke="#63b8ff" d="M570.68,-235.55C578.51,-227.3 588.19,-217.12 596.31,-208.57"/>
<polygon fill="#63b8ff" stroke="#63b8ff" points="598.67,-211.17 603.02,-201.51 593.59,-206.34 598.67,-211.17"/>
</a>
</g>
</g>
<!-- Node9 -->
<g id="Node000009" class="node">
<title>Node9</title>
<g id="a_Node000009"><a xlink:href="TfLiteUtils_8hpp.html" target="_top" xlink:title=" ">
<polygon fill="white" stroke="#666666" points="539.88,-144 460.12,-144 460.12,-124 539.88,-124 539.88,-144"/>
<text text-anchor="middle" x="500" y="-130.5" font-family="Helvetica,sans-Serif" font-size="10.00">TfLiteUtils.hpp</text>
</a>
</g>
</g>
<!-- Node1&#45;&gt;Node9 -->
<g id="edge28_Node000001_Node000009" class="edge">
<title>Node1&#45;&gt;Node9</title>
<g id="a_edge28_Node000001_Node000009"><a xlink:title=" ">
<path fill="none" stroke="#63b8ff" d="M543.28,-235.73C535.68,-226 526.31,-212.84 520,-200 512.98,-185.71 507.8,-168.43 504.48,-155.28"/>
<polygon fill="#63b8ff" stroke="#63b8ff" points="507.91,-154.57 502.21,-145.65 501.1,-156.18 507.91,-154.57"/>
</a>
</g>
</g>
<!-- Node3 -->
<g id="Node000003" class="node">
<title>Node3</title>
<g id="a_Node000003"><a xlink:title=" ">
<polygon fill="#e0e0e0" stroke="#999999" points="389.62,-20 344.38,-20 344.38,0 389.62,0 389.62,-20"/>
<text text-anchor="middle" x="367" y="-6.5" font-family="Helvetica,sans-Serif" font-size="10.00">cstdint</text>
</a>
</g>
</g>
<!-- Node2&#45;&gt;Node3 -->
<g id="edge2_Node000002_Node000003" class="edge">
<title>Node2&#45;&gt;Node3</title>
<g id="a_edge2_Node000002_Node000003"><a xlink:title=" ">
<path fill="none" stroke="#63b8ff" d="M307.09,-61.62C317.89,-52.5 334.52,-38.45 347.53,-27.46"/>
<polygon fill="#63b8ff" stroke="#63b8ff" points="349.68,-30.22 355.06,-21.09 345.16,-24.87 349.68,-30.22"/>
</a>
</g>
</g>
<!-- Node2&#45;&gt;Node4 -->
<g id="edge3_Node000002_Node000004" class="edge">
<title>Node2&#45;&gt;Node4</title>
<g id="a_edge3_Node000002_Node000004"><a xlink:title=" ">
<path fill="none" stroke="#63b8ff" d="M343.55,-61.52C353.9,-59.58 364.8,-57.64 375,-56 485.86,-38.22 617.73,-22.41 680.8,-15.17"/>
<polygon fill="#63b8ff" stroke="#63b8ff" points="681.07,-18.67 690.61,-14.06 680.27,-11.71 681.07,-18.67"/>
</a>
</g>
</g>
<!-- Node5 -->
<g id="Node000005" class="node">
<title>Node5</title>
<g id="a_Node000005"><a xlink:title=" ">
<polygon fill="#e0e0e0" stroke="#999999" points="480.5,-20 443.5,-20 443.5,0 480.5,0 480.5,-20"/>
<text text-anchor="middle" x="462" y="-6.5" font-family="Helvetica,sans-Serif" font-size="10.00">span</text>
</a>
</g>
</g>
<!-- Node2&#45;&gt;Node5 -->
<g id="edge4_Node000002_Node000005" class="edge">
<title>Node2&#45;&gt;Node5</title>
<g id="a_edge4_Node000002_Node000005"><a xlink:title=" ">
<path fill="none" stroke="#63b8ff" d="M321.94,-61.62C351.99,-50.76 401.38,-32.91 432.76,-21.57"/>
<polygon fill="#63b8ff" stroke="#63b8ff" points="433.8,-24.91 442.02,-18.22 431.42,-18.33 433.8,-24.91"/>
</a>
</g>
</g>
<!-- Node6 -->
<g id="Node000006" class="node">
<title>Node6</title>
<g id="a_Node000006"><a xlink:title=" ">
<polygon fill="#e0e0e0" stroke="#999999" points="265.62,-20 220.38,-20 220.38,0 265.62,0 265.62,-20"/>
<text text-anchor="middle" x="243" y="-6.5" font-family="Helvetica,sans-Serif" font-size="10.00">variant</text>
</a>
</g>
</g>
<!-- Node2&#45;&gt;Node6 -->
<g id="edge5_Node000002_Node000006" class="edge">
<title>Node2&#45;&gt;Node6</title>
<g id="a_edge5_Node000002_Node000006"><a xlink:title=" ">
<path fill="none" stroke="#63b8ff" d="M287.72,-61.62C279.89,-52.77 267.96,-39.26 258.39,-28.43"/>
<polygon fill="#63b8ff" stroke="#63b8ff" points="261.3,-26.42 252.05,-21.25 256.05,-31.06 261.3,-26.42"/>
</a>
</g>
</g>
<!-- Node7 -->
<g id="Node000007" class="node">
<title>Node7</title>
<g id="a_Node000007"><a xlink:title=" ">
<polygon fill="#e0e0e0" stroke="#999999" points="326.5,-20 283.5,-20 283.5,0 326.5,0 326.5,-20"/>
<text text-anchor="middle" x="305" y="-6.5" font-family="Helvetica,sans-Serif" font-size="10.00">vector</text>
</a>
</g>
</g>
<!-- Node2&#45;&gt;Node7 -->
<g id="edge6_Node000002_Node000007" class="edge">
<title>Node2&#45;&gt;Node7</title>
<g id="a_edge6_Node000002_Node000007"><a xlink:title=" ">
<path fill="none" stroke="#63b8ff" d="M297.41,-61.62C298.62,-53.56 300.4,-41.65 301.94,-31.41"/>
<polygon fill="#63b8ff" stroke="#63b8ff" points="305.39,-32.02 303.41,-21.61 298.46,-30.98 305.39,-32.02"/>
</a>
</g>
</g>
<!-- Node8&#45;&gt;Node2 -->
<g id="edge8_Node000008_Node000002" class="edge">
<title>Node8&#45;&gt;Node2</title>
<g id="a_edge8_Node000008_Node000002"><a xlink:title=" ">
<path fill="none" stroke="#63b8ff" d="M572.16,-179.56C539.06,-171.46 491.44,-158.77 451,-144 405.49,-127.37 354.8,-102.98 324.17,-87.55"/>
<polygon fill="#63b8ff" stroke="#63b8ff" points="326.06,-84.59 315.56,-83.18 322.89,-90.83 326.06,-84.59"/>
</a>
</g>
</g>
<!-- Node8&#45;&gt;Node4 -->
<g id="edge24_Node000008_Node000004" class="edge">
<title>Node8&#45;&gt;Node4</title>
<g id="a_edge24_Node000008_Node000004"><a xlink:title=" ">
<path fill="none" stroke="#63b8ff" d="M697.69,-186.78C769.26,-182.91 863.88,-172.39 888,-144 913.32,-114.19 911.86,-86.99 888,-56 871.93,-35.12 800.27,-21.94 755.27,-15.57"/>
<polygon fill="#63b8ff" stroke="#63b8ff" points="755.79,-12.11 745.41,-14.23 754.84,-19.04 755.79,-12.11"/>
</a>
</g>
</g>
<!-- Node8&#45;&gt;Node5 -->
<g id="edge25_Node000008_Node000005" class="edge">
<title>Node8&#45;&gt;Node5</title>
<g id="a_edge25_Node000008_Node000005"><a xlink:title=" ">
<path fill="none" stroke="#63b8ff" d="M670.7,-179.53C759.71,-162.6 914.36,-122.54 855,-56 830.9,-28.99 579.94,-15.95 492.13,-12.19"/>
<polygon fill="#63b8ff" stroke="#63b8ff" points="492.52,-8.7 482.38,-11.78 492.22,-15.69 492.52,-8.7"/>
</a>
</g>
</g>
<!-- Node8&#45;&gt;Node9 -->
<g id="edge9_Node000008_Node000009" class="edge">
<title>Node8&#45;&gt;Node9</title>
<g id="a_edge9_Node000008_Node000009"><a xlink:title=" ">
<path fill="none" stroke="#63b8ff" d="M593.32,-179.59C575.84,-171.24 550.05,-158.92 530,-149.34"/>
<polygon fill="#63b8ff" stroke="#63b8ff" points="531.73,-146.29 521.2,-145.13 528.72,-152.6 531.73,-146.29"/>
</a>
</g>
</g>
<!-- Node12 -->
<g id="Node000012" class="node">
<title>Node12</title>
<g id="a_Node000012"><a xlink:title=" ">
<polygon fill="#e0e0e0" stroke="#999999" points="40,-20 0,-20 0,0 40,0 40,-20"/>
<text text-anchor="middle" x="20" y="-6.5" font-family="Helvetica,sans-Serif" font-size="10.00">string</text>
</a>
</g>
</g>
<!-- Node8&#45;&gt;Node12 -->
<g id="edge26_Node000008_Node000012" class="edge">
<title>Node8&#45;&gt;Node12</title>
<g id="a_edge26_Node000008_Node000012"><a xlink:title=" ">
<path fill="none" stroke="#63b8ff" d="M528.19,-181.99C393.52,-169.47 138.49,-139.59 65,-88 45.34,-74.2 32.99,-48.85 26.3,-31.02"/>
<polygon fill="#63b8ff" stroke="#63b8ff" points="29.68,-30.09 23.12,-21.78 23.06,-32.37 29.68,-30.09"/>
</a>
</g>
</g>
<!-- Node15 -->
<g id="Node000015" class="node">
<title>Node15</title>
<g id="a_Node000015"><a xlink:title=" ">
<polygon fill="#e0e0e0" stroke="#999999" points="845.75,-82 780.25,-82 780.25,-62 845.75,-62 845.75,-82"/>
<text text-anchor="middle" x="813" y="-68.5" font-family="Helvetica,sans-Serif" font-size="10.00">string_view</text>
</a>
</g>
</g>
<!-- Node8&#45;&gt;Node15 -->
<g id="edge27_Node000008_Node000015" class="edge">
<title>Node8&#45;&gt;Node15</title>
<g id="a_edge27_Node000008_Node000015"><a xlink:title=" ">
<path fill="none" stroke="#63b8ff" d="M629.37,-179.51C664.03,-159.4 745.07,-112.4 786.94,-88.11"/>
<polygon fill="#63b8ff" stroke="#63b8ff" points="788.48,-91.27 795.38,-83.22 784.97,-85.21 788.48,-91.27"/>
</a>
</g>
</g>
<!-- Node16 -->
<g id="Node000016" class="node">
<title>Node16</title>
<g id="a_Node000016"><a xlink:title=" ">
<polygon fill="#e0e0e0" stroke="#999999" points="621.62,-88 528.38,-88 528.38,-56 621.62,-56 621.62,-88"/>
<text text-anchor="start" x="536.38" y="-74.5" font-family="Helvetica,sans-Serif" font-size="10.00">tensorflow/lite/c/c</text>
<text text-anchor="middle" x="575" y="-62.5" font-family="Helvetica,sans-Serif" font-size="10.00">_api.h</text>
</a>
</g>
</g>
<!-- Node8&#45;&gt;Node16 -->
<g id="edge22_Node000008_Node000016" class="edge">
<title>Node8&#45;&gt;Node16</title>
<g id="a_edge22_Node000008_Node000016"><a xlink:title=" ">
<path fill="none" stroke="#63b8ff" d="M609.89,-179.51C604.2,-162.15 591.94,-124.72 583.58,-99.19"/>
<polygon fill="#63b8ff" stroke="#63b8ff" points="586.96,-98.27 580.52,-89.85 580.31,-100.44 586.96,-98.27"/>
</a>
</g>
</g>
<!-- Node17 -->
<g id="Node000017" class="node">
<title>Node17</title>
<g id="a_Node000017"><a xlink:title=" ">
<polygon fill="#e0e0e0" stroke="#999999" points="761.88,-88 640.12,-88 640.12,-56 761.88,-56 761.88,-88"/>
<text text-anchor="start" x="648.12" y="-74.5" font-family="Helvetica,sans-Serif" font-size="10.00">tensorflow/lite/delegates</text>
<text text-anchor="middle" x="701" y="-62.5" font-family="Helvetica,sans-Serif" font-size="10.00">/gpu/delegate.h</text>
</a>
</g>
</g>
<!-- Node8&#45;&gt;Node17 -->
<g id="edge23_Node000008_Node000017" class="edge">
<title>Node8&#45;&gt;Node17</title>
<g id="a_edge23_Node000008_Node000017"><a xlink:title=" ">
<path fill="none" stroke="#63b8ff" d="M620.2,-179.51C633.67,-161.75 663.05,-123.02 682.43,-97.48"/>
<polygon fill="#63b8ff" stroke="#63b8ff" points="685.14,-99.7 688.39,-89.62 679.56,-95.47 685.14,-99.7"/>
</a>
</g>
</g>
<!-- Node9&#45;&gt;Node2 -->
<g id="edge10_Node000009_Node000002" class="edge">
<title>Node9&#45;&gt;Node2</title>
<g id="a_edge10_Node000009_Node000002"><a xlink:title=" ">
<path fill="none" stroke="#63b8ff" d="M468.12,-123.62C433.35,-113.4 377.48,-96.97 338.88,-85.61"/>
<polygon fill="#63b8ff" stroke="#63b8ff" points="340.02,-82.3 329.44,-82.84 338.05,-89.01 340.02,-82.3"/>
</a>
</g>
</g>
<!-- Node9&#45;&gt;Node4 -->
<g id="edge16_Node000009_Node000004" class="edge">
<title>Node9&#45;&gt;Node4</title>
<g id="a_edge16_Node000009_Node000004"><a xlink:title=" ">
<path fill="none" stroke="#63b8ff" d="M499.41,-123.68C498.92,-107.51 500.42,-74.22 519,-56 541.64,-33.8 629.96,-20.64 681.01,-14.73"/>
<polygon fill="#63b8ff" stroke="#63b8ff" points="681.16,-18.24 690.71,-13.65 680.38,-11.28 681.16,-18.24"/>
</a>
</g>
</g>
<!-- Node9&#45;&gt;Node5 -->
<g id="edge18_Node000009_Node000005" class="edge">
<title>Node9&#45;&gt;Node5</title>
<g id="a_edge18_Node000009_Node000005"><a xlink:title=" ">
<path fill="none" stroke="#63b8ff" d="M497.14,-123.83C491.04,-104.22 476.59,-57.83 468.24,-31.04"/>
<polygon fill="#63b8ff" stroke="#63b8ff" points="471.65,-30.23 465.34,-21.72 464.97,-32.31 471.65,-30.23"/>
</a>
</g>
</g>
<!-- Node10 -->
<g id="Node000010" class="node">
<title>Node10</title>
<g id="a_Node000010"><a xlink:href="Errors_8hpp.html" target="_top" xlink:title=" ">
<polygon fill="white" stroke="#666666" points="207.5,-82 74.5,-82 74.5,-62 207.5,-62 207.5,-82"/>
<text text-anchor="middle" x="141" y="-68.5" font-family="Helvetica,sans-Serif" font-size="10.00">EyeAICore/utils/Errors.hpp</text>
</a>
</g>
</g>
<!-- Node9&#45;&gt;Node10 -->
<g id="edge11_Node000009_Node000010" class="edge">
<title>Node9&#45;&gt;Node10</title>
<g id="a_edge11_Node000009_Node000010"><a xlink:title=" ">
<path fill="none" stroke="#63b8ff" d="M460.08,-127.13C405.21,-118.95 303.45,-103.4 217,-88 211.04,-86.94 204.83,-85.79 198.64,-84.61"/>
<polygon fill="#63b8ff" stroke="#63b8ff" points="199.54,-81.22 189.06,-82.76 198.21,-88.09 199.54,-81.22"/>
</a>
</g>
</g>
<!-- Node14 -->
<g id="Node000014" class="node">
<title>Node14</title>
<g id="a_Node000014"><a xlink:title=" ">
<polygon fill="#e0e0e0" stroke="#999999" points="433.88,-82 384.12,-82 384.12,-62 433.88,-62 433.88,-82"/>
<text text-anchor="middle" x="409" y="-68.5" font-family="Helvetica,sans-Serif" font-size="10.00">optional</text>
</a>
</g>
</g>
<!-- Node9&#45;&gt;Node14 -->
<g id="edge17_Node000009_Node000014" class="edge">
<title>Node9&#45;&gt;Node14</title>
<g id="a_edge17_Node000009_Node000014"><a xlink:title=" ">
<path fill="none" stroke="#63b8ff" d="M485.78,-123.62C471.49,-114.2 449.22,-99.52 432.34,-88.39"/>
<polygon fill="#63b8ff" stroke="#63b8ff" points="434.66,-85.72 424.38,-83.14 430.8,-91.57 434.66,-85.72"/>
</a>
</g>
</g>
<!-- Node9&#45;&gt;Node15 -->
<g id="edge19_Node000009_Node000015" class="edge">
<title>Node9&#45;&gt;Node15</title>
<g id="a_edge19_Node000009_Node000015"><a xlink:title=" ">
<path fill="none" stroke="#63b8ff" d="M539.96,-128.63C593.24,-122.29 690.21,-108.96 771,-88 773.28,-87.41 775.62,-86.74 777.96,-86.03"/>
<polygon fill="#63b8ff" stroke="#63b8ff" points="778.95,-89.39 787.36,-82.94 776.77,-82.74 778.95,-89.39"/>
</a>
</g>
</g>
<!-- Node9&#45;&gt;Node16 -->
<g id="edge20_Node000009_Node000016" class="edge">
<title>Node9&#45;&gt;Node16</title>
<g id="a_edge20_Node000009_Node000016"><a xlink:title=" ">
<path fill="none" stroke="#63b8ff" d="M511.72,-123.62C521.11,-116.11 534.68,-105.26 546.84,-95.52"/>
<polygon fill="#63b8ff" stroke="#63b8ff" points="548.98,-98.3 554.6,-89.32 544.61,-92.83 548.98,-98.3"/>
</a>
</g>
</g>
<!-- Node9&#45;&gt;Node17 -->
<g id="edge21_Node000009_Node000017" class="edge">
<title>Node9&#45;&gt;Node17</title>
<g id="a_edge21_Node000009_Node000017"><a xlink:title=" ">
<path fill="none" stroke="#63b8ff" d="M531.41,-123.62C559.92,-115.11 602.83,-102.31 638.35,-91.7"/>
<polygon fill="#63b8ff" stroke="#63b8ff" points="639.08,-95.14 647.66,-88.92 637.07,-88.43 639.08,-95.14"/>
</a>
</g>
</g>
<!-- Node10&#45;&gt;Node6 -->
<g id="edge15_Node000010_Node000006" class="edge">
<title>Node10&#45;&gt;Node6</title>
<g id="a_edge15_Node000010_Node000006"><a xlink:title=" ">
<path fill="none" stroke="#63b8ff" d="M156.94,-61.62C173.11,-52.11 198.39,-37.24 217.37,-26.08"/>
<polygon fill="#63b8ff" stroke="#63b8ff" points="219.03,-29.16 225.87,-21.08 215.48,-23.13 219.03,-29.16"/>
</a>
</g>
</g>
<!-- Node11 -->
<g id="Node000011" class="node">
<title>Node11</title>
<g id="a_Node000011"><a xlink:title=" ">
<polygon fill="#e0e0e0" stroke="#999999" points="201.88,-20 158.12,-20 158.12,0 201.88,0 201.88,-20"/>
<text text-anchor="middle" x="180" y="-6.5" font-family="Helvetica,sans-Serif" font-size="10.00">format</text>
</a>
</g>
</g>
<!-- Node10&#45;&gt;Node11 -->
<g id="edge12_Node000010_Node000011" class="edge">
<title>Node10&#45;&gt;Node11</title>
<g id="a_edge12_Node000010_Node000011"><a xlink:title=" ">
<path fill="none" stroke="#63b8ff" d="M147.09,-61.62C152.62,-53.12 160.93,-40.33 167.82,-29.74"/>
<polygon fill="#63b8ff" stroke="#63b8ff" points="170.74,-31.67 173.25,-21.38 164.87,-27.86 170.74,-31.67"/>
</a>
</g>
</g>
<!-- Node10&#45;&gt;Node12 -->
<g id="edge13_Node000010_Node000012" class="edge">
<title>Node10&#45;&gt;Node12</title>
<g id="a_edge13_Node000010_Node000012"><a xlink:title=" ">
<path fill="none" stroke="#63b8ff" d="M122.09,-61.62C102.47,-51.89 71.53,-36.55 48.85,-25.31"/>
<polygon fill="#63b8ff" stroke="#63b8ff" points="50.64,-22.29 40.13,-20.98 47.53,-28.56 50.64,-22.29"/>
</a>
</g>
</g>
<!-- Node13 -->
<g id="Node000013" class="node">
<title>Node13</title>
<g id="a_Node000013"><a xlink:title=" ">
<polygon fill="#e0e0e0" stroke="#999999" points="140.38,-20 57.62,-20 57.62,0 140.38,0 140.38,-20"/>
<text text-anchor="middle" x="99" y="-6.5" font-family="Helvetica,sans-Serif" font-size="10.00">tl/expected.hpp</text>
</a>
</g>
</g>
<!-- Node10&#45;&gt;Node13 -->
<g id="edge14_Node000010_Node000013" class="edge">
<title>Node10&#45;&gt;Node13</title>
<g id="a_edge14_Node000010_Node000013"><a xlink:title=" ">
<path fill="none" stroke="#63b8ff" d="M134.44,-61.62C128.42,-53.03 119.35,-40.07 111.89,-29.41"/>
<polygon fill="#63b8ff" stroke="#63b8ff" points="114.85,-27.54 106.25,-21.35 109.11,-31.55 114.85,-27.54"/>
</a>
</g>
</g>
</g>
</svg>
