<?xml version="1.0" encoding="UTF-8" standalone="no"?>
<!DOCTYPE svg PUBLIC "-//W3C//DTD SVG 1.1//EN"
 "http://www.w3.org/Graphics/SVG/1.1/DTD/svg11.dtd">
<!-- Generated by graphviz version 12.2.1 (20241206.2353)
 -->
<!-- Title: include/EyeAICore/Rel2AbsDepthModel.hpp Pages: 1 -->
<svg width="410pt" height="96pt"
 viewBox="0.00 0.00 410.00 96.00" xmlns="http://www.w3.org/2000/svg" xmlns:xlink="http://www.w3.org/1999/xlink">
<g id="graph0" class="graph" transform="scale(1 1) rotate(0) translate(4 92)">
<title>include/EyeAICore/Rel2AbsDepthModel.hpp</title>
<!-- Node1 -->
<g id="Node000001" class="node">
<title>Node1</title>
<g id="a_Node000001"><a xlink:title=" ">
<polygon fill="#999999" stroke="#666666" points="264.5,-88 126.25,-88 126.25,-56 264.5,-56 264.5,-88"/>
<text text-anchor="start" x="134.25" y="-74.5" font-family="Helvetica,sans-Serif" font-size="10.00">include/EyeAICore/Rel2Abs</text>
<text text-anchor="middle" x="195.38" y="-62.5" font-family="Helvetica,sans-Serif" font-size="10.00">DepthModel.hpp</text>
</a>
</g>
</g>
<!-- Node2 -->
<g id="Node000002" class="node">
<title>Node2</title>
<g id="a_Node000002"><a xlink:href="MetricDepthModel_8cpp.html" target="_top" xlink:title=" ">
<polygon fill="white" stroke="#666666" points="130.75,-20 0,-20 0,0 130.75,0 130.75,-20"/>
<text text-anchor="middle" x="65.38" y="-6.5" font-family="Helvetica,sans-Serif" font-size="10.00">src/MetricDepthModel.cpp</text>
</a>
</g>
</g>
<!-- Node1&#45;&gt;Node2 -->
<g id="edge1_Node000001_Node000002" class="edge">
<title>Node1&#45;&gt;Node2</title>
<g id="a_edge1_Node000001_Node000002"><a xlink:title=" ">
<path fill="none" stroke="#63b8ff" d="M151.64,-50.82C129.37,-40.54 103.35,-28.53 85.76,-20.41"/>
<polygon fill="#63b8ff" stroke="#63b8ff" points="149.98,-53.9 160.52,-54.91 152.91,-47.55 149.98,-53.9"/>
</a>
</g>
</g>
<!-- Node3 -->
<g id="Node000003" class="node">
<title>Node3</title>
<g id="a_Node000003"><a xlink:href="Operators_8cpp.html" target="_top" xlink:title=" ">
<polygon fill="white" stroke="#666666" points="242.38,-20 148.38,-20 148.38,0 242.38,0 242.38,-20"/>
<text text-anchor="middle" x="195.38" y="-6.5" font-family="Helvetica,sans-Serif" font-size="10.00">src/Operators.cpp</text>
</a>
</g>
</g>
<!-- Node1&#45;&gt;Node3 -->
<g id="edge2_Node000001_Node000003" class="edge">
<title>Node1&#45;&gt;Node3</title>
<g id="a_edge2_Node000001_Node000003"><a xlink:title=" ">
<path fill="none" stroke="#63b8ff" d="M195.38,-44.08C195.38,-35.6 195.38,-26.8 195.38,-20.41"/>
<polygon fill="#63b8ff" stroke="#63b8ff" points="191.88,-44.03 195.38,-54.03 198.88,-44.03 191.88,-44.03"/>
</a>
</g>
</g>
<!-- Node4 -->
<g id="Node000004" class="node">
<title>Node4</title>
<g id="a_Node000004"><a xlink:href="Rel2AbsDepthModel_8cpp.html" target="_top" xlink:title=" ">
<polygon fill="white" stroke="#666666" points="402,-20 260.75,-20 260.75,0 402,0 402,-20"/>
<text text-anchor="middle" x="331.38" y="-6.5" font-family="Helvetica,sans-Serif" font-size="10.00">src/Rel2AbsDepthModel.cpp</text>
</a>
</g>
</g>
<!-- Node1&#45;&gt;Node4 -->
<g id="edge3_Node000001_Node000004" class="edge">
<title>Node1&#45;&gt;Node4</title>
<g id="a_edge3_Node000001_Node000004"><a xlink:title=" ">
<path fill="none" stroke="#63b8ff" d="M240.81,-50.96C264.18,-40.65 291.56,-28.56 310.05,-20.41"/>
<polygon fill="#63b8ff" stroke="#63b8ff" points="239.52,-47.7 231.78,-54.94 242.35,-54.1 239.52,-47.7"/>
</a>
</g>
</g>
</g>
</svg>
