<?xml version="1.0" encoding="UTF-8" standalone="no"?>
<!DOCTYPE svg PUBLIC "-//W3C//DTD SVG 1.1//EN"
 "http://www.w3.org/Graphics/SVG/1.1/DTD/svg11.dtd">
<!-- Generated by graphviz version 12.2.1 (20241206.2353)
 -->
<!-- Title: src/Rel2AbsDepthModel.cpp Pages: 1 -->
<svg width="1124pt" height="320pt"
 viewBox="0.00 0.00 1123.85 320.00" xmlns="http://www.w3.org/2000/svg" xmlns:xlink="http://www.w3.org/1999/xlink">
<g id="graph0" class="graph" transform="scale(1 1) rotate(0) translate(4 316)">
<title>src/Rel2AbsDepthModel.cpp</title>
<!-- Node1 -->
<g id="Node000001" class="node">
<title>Node1</title>
<g id="a_Node000001"><a xlink:title=" ">
<polygon fill="#999999" stroke="#666666" points="281.35,-312 140.1,-312 140.1,-292 281.35,-292 281.35,-312"/>
<text text-anchor="middle" x="210.73" y="-298.5" font-family="Helvetica,sans-Serif" font-size="10.00">src/Rel2AbsDepthModel.cpp</text>
</a>
</g>
</g>
<!-- Node2 -->
<g id="Node000002" class="node">
<title>Node2</title>
<g id="a_Node000002"><a xlink:href="Rel2AbsDepthModel_8hpp.html" target="_top" xlink:title=" ">
<polygon fill="white" stroke="#666666" points="298.6,-256 122.85,-256 122.85,-236 298.6,-236 298.6,-256"/>
<text text-anchor="middle" x="210.73" y="-242.5" font-family="Helvetica,sans-Serif" font-size="10.00">EyeAICore/Rel2AbsDepthModel.hpp</text>
</a>
</g>
</g>
<!-- Node1&#45;&gt;Node2 -->
<g id="edge1_Node000001_Node000002" class="edge">
<title>Node1&#45;&gt;Node2</title>
<g id="a_edge1_Node000001_Node000002"><a xlink:title=" ">
<path fill="none" stroke="#63b8ff" d="M210.73,-291.59C210.73,-285.01 210.73,-275.96 210.73,-267.73"/>
<polygon fill="#63b8ff" stroke="#63b8ff" points="214.23,-267.81 210.73,-257.81 207.23,-267.81 214.23,-267.81"/>
</a>
</g>
</g>
<!-- Node3 -->
<g id="Node000003" class="node">
<title>Node3</title>
<g id="a_Node000003"><a xlink:href="TensorBuffer_8hpp.html" target="_top" xlink:title=" ">
<polygon fill="white" stroke="#666666" points="154.98,-82 14.48,-82 14.48,-62 154.98,-62 154.98,-82"/>
<text text-anchor="middle" x="84.73" y="-68.5" font-family="Helvetica,sans-Serif" font-size="10.00">EyeAICore/TensorBuffer.hpp</text>
</a>
</g>
</g>
<!-- Node1&#45;&gt;Node3 -->
<g id="edge31_Node000001_Node000003" class="edge">
<title>Node1&#45;&gt;Node3</title>
<g id="a_edge31_Node000001_Node000003"><a xlink:title=" ">
<path fill="none" stroke="#63b8ff" d="M169.55,-291.61C149.68,-284.96 127.27,-273.93 113.73,-256 76.79,-207.09 78.77,-129.61 82.2,-93.19"/>
<polygon fill="#63b8ff" stroke="#63b8ff" points="85.64,-93.95 83.25,-83.63 78.68,-93.19 85.64,-93.95"/>
</a>
</g>
</g>
<!-- Node19 -->
<g id="Node000019" class="node">
<title>Node19</title>
<g id="a_Node000019"><a xlink:href="Profiling_8hpp.html" target="_top" xlink:title=" ">
<polygon fill="white" stroke="#666666" points="1023.73,-256 881.73,-256 881.73,-236 1023.73,-236 1023.73,-256"/>
<text text-anchor="middle" x="952.73" y="-242.5" font-family="Helvetica,sans-Serif" font-size="10.00">EyeAICore/utils/Profiling.hpp</text>
</a>
</g>
</g>
<!-- Node1&#45;&gt;Node19 -->
<g id="edge32_Node000001_Node000019" class="edge">
<title>Node1&#45;&gt;Node19</title>
<g id="a_edge32_Node000001_Node000019"><a xlink:title=" ">
<path fill="none" stroke="#63b8ff" d="M281.54,-295.85C419.49,-285.81 723.56,-263.68 870.3,-253"/>
<polygon fill="#63b8ff" stroke="#63b8ff" points="870.22,-256.51 879.94,-252.3 869.71,-249.53 870.22,-256.51"/>
</a>
</g>
</g>
<!-- Node2&#45;&gt;Node3 -->
<g id="edge2_Node000002_Node000003" class="edge">
<title>Node2&#45;&gt;Node3</title>
<g id="a_edge2_Node000002_Node000003"><a xlink:title=" ">
<path fill="none" stroke="#63b8ff" d="M203.36,-235.64C189.47,-217.94 158.59,-178.26 133.73,-144 120.99,-126.44 106.98,-106.02 97.21,-91.6"/>
<polygon fill="#63b8ff" stroke="#63b8ff" points="100.27,-89.88 91.78,-83.54 94.47,-93.79 100.27,-89.88"/>
</a>
</g>
</g>
<!-- Node5 -->
<g id="Node000005" class="node">
<title>Node5</title>
<g id="a_Node000005"><a xlink:title=" ">
<polygon fill="#e0e0e0" stroke="#999999" points="192.35,-20 141.1,-20 141.1,0 192.35,0 192.35,-20"/>
<text text-anchor="middle" x="166.73" y="-6.5" font-family="Helvetica,sans-Serif" font-size="10.00">memory</text>
</a>
</g>
</g>
<!-- Node2&#45;&gt;Node5 -->
<g id="edge30_Node000002_Node000005" class="edge">
<title>Node2&#45;&gt;Node5</title>
<g id="a_edge30_Node000002_Node000005"><a xlink:title=" ">
<path fill="none" stroke="#63b8ff" d="M187.26,-235.56C142.11,-215.93 44.23,-165.98 5.73,-88 -0.57,-75.25 -2.87,-67.33 5.73,-56 13.33,-45.98 84.51,-28.89 129.64,-18.9"/>
<polygon fill="#63b8ff" stroke="#63b8ff" points="130.28,-22.34 139.3,-16.79 128.78,-15.51 130.28,-22.34"/>
</a>
</g>
</g>
<!-- Node9 -->
<g id="Node000009" class="node">
<title>Node9</title>
<g id="a_Node000009"><a xlink:href="TfLiteRuntime_8hpp.html" target="_top" xlink:title=" ">
<polygon fill="white" stroke="#666666" points="486.23,-200 317.23,-200 317.23,-180 486.23,-180 486.23,-200"/>
<text text-anchor="middle" x="401.73" y="-186.5" font-family="Helvetica,sans-Serif" font-size="10.00">EyeAICore/tflite/TfLiteRuntime.hpp</text>
</a>
</g>
</g>
<!-- Node2&#45;&gt;Node9 -->
<g id="edge8_Node000002_Node000009" class="edge">
<title>Node2&#45;&gt;Node9</title>
<g id="a_edge8_Node000002_Node000009"><a xlink:title=" ">
<path fill="none" stroke="#63b8ff" d="M244,-235.59C275.44,-226.71 322.82,-213.31 357.44,-203.52"/>
<polygon fill="#63b8ff" stroke="#63b8ff" points="358.07,-206.98 366.74,-200.89 356.17,-200.24 358.07,-206.98"/>
</a>
</g>
</g>
<!-- Node10 -->
<g id="Node000010" class="node">
<title>Node10</title>
<g id="a_Node000010"><a xlink:href="TfLiteUtils_8hpp.html" target="_top" xlink:title=" ">
<polygon fill="white" stroke="#666666" points="370.6,-144 290.85,-144 290.85,-124 370.6,-124 370.6,-144"/>
<text text-anchor="middle" x="330.73" y="-130.5" font-family="Helvetica,sans-Serif" font-size="10.00">TfLiteUtils.hpp</text>
</a>
</g>
</g>
<!-- Node2&#45;&gt;Node10 -->
<g id="edge29_Node000002_Node000010" class="edge">
<title>Node2&#45;&gt;Node10</title>
<g id="a_edge29_Node000002_Node000010"><a xlink:title=" ">
<path fill="none" stroke="#63b8ff" d="M220.96,-235.62C241.15,-217.11 286.39,-175.65 312.04,-152.13"/>
<polygon fill="#63b8ff" stroke="#63b8ff" points="314.4,-154.71 319.41,-145.38 309.67,-149.55 314.4,-154.71"/>
</a>
</g>
</g>
<!-- Node4 -->
<g id="Node000004" class="node">
<title>Node4</title>
<g id="a_Node000004"><a xlink:title=" ">
<polygon fill="#e0e0e0" stroke="#999999" points="53.35,-20 8.1,-20 8.1,0 53.35,0 53.35,-20"/>
<text text-anchor="middle" x="30.73" y="-6.5" font-family="Helvetica,sans-Serif" font-size="10.00">cstdint</text>
</a>
</g>
</g>
<!-- Node3&#45;&gt;Node4 -->
<g id="edge3_Node000003_Node000004" class="edge">
<title>Node3&#45;&gt;Node4</title>
<g id="a_edge3_Node000003_Node000004"><a xlink:title=" ">
<path fill="none" stroke="#63b8ff" d="M76.29,-61.62C68.32,-52.77 56.16,-39.26 46.41,-28.43"/>
<polygon fill="#63b8ff" stroke="#63b8ff" points="49.23,-26.33 39.94,-21.24 44.03,-31.01 49.23,-26.33"/>
</a>
</g>
</g>
<!-- Node3&#45;&gt;Node5 -->
<g id="edge4_Node000003_Node000005" class="edge">
<title>Node3&#45;&gt;Node5</title>
<g id="a_edge4_Node000003_Node000005"><a xlink:title=" ">
<path fill="none" stroke="#63b8ff" d="M97.54,-61.62C110.18,-52.38 129.74,-38.07 144.84,-27.01"/>
<polygon fill="#63b8ff" stroke="#63b8ff" points="146.78,-29.93 152.78,-21.2 142.65,-24.28 146.78,-29.93"/>
</a>
</g>
</g>
<!-- Node6 -->
<g id="Node000006" class="node">
<title>Node6</title>
<g id="a_Node000006"><a xlink:title=" ">
<polygon fill="#e0e0e0" stroke="#999999" points="345.23,-20 308.23,-20 308.23,0 345.23,0 345.23,-20"/>
<text text-anchor="middle" x="326.73" y="-6.5" font-family="Helvetica,sans-Serif" font-size="10.00">span</text>
</a>
</g>
</g>
<!-- Node3&#45;&gt;Node6 -->
<g id="edge5_Node000003_Node000006" class="edge">
<title>Node3&#45;&gt;Node6</title>
<g id="a_edge5_Node000003_Node000006"><a xlink:title=" ">
<path fill="none" stroke="#63b8ff" d="M122.81,-61.56C170.97,-49.62 252.9,-29.3 296.82,-18.42"/>
<polygon fill="#63b8ff" stroke="#63b8ff" points="297.55,-21.84 306.42,-16.04 295.87,-15.05 297.55,-21.84"/>
</a>
</g>
</g>
<!-- Node7 -->
<g id="Node000007" class="node">
<title>Node7</title>
<g id="a_Node000007"><a xlink:title=" ">
<polygon fill="#e0e0e0" stroke="#999999" points="519.35,-20 474.1,-20 474.1,0 519.35,0 519.35,-20"/>
<text text-anchor="middle" x="496.73" y="-6.5" font-family="Helvetica,sans-Serif" font-size="10.00">variant</text>
</a>
</g>
</g>
<!-- Node3&#45;&gt;Node7 -->
<g id="edge6_Node000003_Node000007" class="edge">
<title>Node3&#45;&gt;Node7</title>
<g id="a_edge6_Node000003_Node000007"><a xlink:title=" ">
<path fill="none" stroke="#63b8ff" d="M149.56,-61.56C238.24,-48.64 394.19,-25.93 462.76,-15.95"/>
<polygon fill="#63b8ff" stroke="#63b8ff" points="462.86,-19.47 472.25,-14.56 461.85,-12.54 462.86,-19.47"/>
</a>
</g>
</g>
<!-- Node8 -->
<g id="Node000008" class="node">
<title>Node8</title>
<g id="a_Node000008"><a xlink:title=" ">
<polygon fill="#e0e0e0" stroke="#999999" points="114.23,-20 71.23,-20 71.23,0 114.23,0 114.23,-20"/>
<text text-anchor="middle" x="92.73" y="-6.5" font-family="Helvetica,sans-Serif" font-size="10.00">vector</text>
</a>
</g>
</g>
<!-- Node3&#45;&gt;Node8 -->
<g id="edge7_Node000003_Node000008" class="edge">
<title>Node3&#45;&gt;Node8</title>
<g id="a_edge7_Node000003_Node000008"><a xlink:title=" ">
<path fill="none" stroke="#63b8ff" d="M85.98,-61.62C87.05,-53.56 88.64,-41.65 90.01,-31.41"/>
<polygon fill="#63b8ff" stroke="#63b8ff" points="93.46,-31.99 91.31,-21.61 86.52,-31.06 93.46,-31.99"/>
</a>
</g>
</g>
<!-- Node9&#45;&gt;Node3 -->
<g id="edge9_Node000009_Node000003" class="edge">
<title>Node9&#45;&gt;Node3</title>
<g id="a_edge9_Node000009_Node000003"><a xlink:title=" ">
<path fill="none" stroke="#63b8ff" d="M316.8,-183.07C271.15,-177.34 214.91,-166.09 168.73,-144 141.41,-130.93 115.69,-106.8 100.08,-90.33"/>
<polygon fill="#63b8ff" stroke="#63b8ff" points="102.88,-88.19 93.53,-83.2 97.72,-92.93 102.88,-88.19"/>
</a>
</g>
</g>
<!-- Node9&#45;&gt;Node5 -->
<g id="edge25_Node000009_Node000005" class="edge">
<title>Node9&#45;&gt;Node5</title>
<g id="a_edge25_Node000009_Node000005"><a xlink:title=" ">
<path fill="none" stroke="#63b8ff" d="M363.09,-179.57C317.88,-166.55 243.87,-138.71 201.73,-88 187.68,-71.1 178.1,-47.64 172.56,-31.07"/>
<polygon fill="#63b8ff" stroke="#63b8ff" points="176,-30.36 169.68,-21.86 169.32,-32.44 176,-30.36"/>
</a>
</g>
</g>
<!-- Node9&#45;&gt;Node6 -->
<g id="edge26_Node000009_Node000006" class="edge">
<title>Node9&#45;&gt;Node6</title>
<g id="a_edge26_Node000009_Node000006"><a xlink:title=" ">
<path fill="none" stroke="#63b8ff" d="M441.93,-179.51C513.01,-160.93 648.78,-116.23 597.73,-56 582.24,-37.72 424.11,-20.41 356.8,-13.81"/>
<polygon fill="#63b8ff" stroke="#63b8ff" points="357.5,-10.37 347.21,-12.89 356.83,-17.33 357.5,-10.37"/>
</a>
</g>
</g>
<!-- Node9&#45;&gt;Node10 -->
<g id="edge10_Node000009_Node000010" class="edge">
<title>Node9&#45;&gt;Node10</title>
<g id="a_edge10_Node000009_Node000010"><a xlink:title=" ">
<path fill="none" stroke="#63b8ff" d="M389.36,-179.59C379.08,-171.77 364.21,-160.46 352.02,-151.19"/>
<polygon fill="#63b8ff" stroke="#63b8ff" points="354.24,-148.48 344.16,-145.21 350,-154.05 354.24,-148.48"/>
</a>
</g>
</g>
<!-- Node13 -->
<g id="Node000013" class="node">
<title>Node13</title>
<g id="a_Node000013"><a xlink:title=" ">
<polygon fill="#e0e0e0" stroke="#999999" points="879.73,-20 839.73,-20 839.73,0 879.73,0 879.73,-20"/>
<text text-anchor="middle" x="859.73" y="-6.5" font-family="Helvetica,sans-Serif" font-size="10.00">string</text>
</a>
</g>
</g>
<!-- Node9&#45;&gt;Node13 -->
<g id="edge27_Node000009_Node000013" class="edge">
<title>Node9&#45;&gt;Node13</title>
<g id="a_edge27_Node000009_Node000013"><a xlink:title=" ">
<path fill="none" stroke="#63b8ff" d="M486.48,-183.64C608.84,-173.89 825.32,-148.36 870.73,-88 883.06,-71.6 876.88,-47.55 869.82,-30.7"/>
<polygon fill="#63b8ff" stroke="#63b8ff" points="873.04,-29.33 865.64,-21.74 866.69,-32.28 873.04,-29.33"/>
</a>
</g>
</g>
<!-- Node16 -->
<g id="Node000016" class="node">
<title>Node16</title>
<g id="a_Node000016"><a xlink:title=" ">
<polygon fill="#e0e0e0" stroke="#999999" points="861.48,-82 795.98,-82 795.98,-62 861.48,-62 861.48,-82"/>
<text text-anchor="middle" x="828.73" y="-68.5" font-family="Helvetica,sans-Serif" font-size="10.00">string_view</text>
</a>
</g>
</g>
<!-- Node9&#45;&gt;Node16 -->
<g id="edge28_Node000009_Node000016" class="edge">
<title>Node9&#45;&gt;Node16</title>
<g id="a_edge28_Node000009_Node000016"><a xlink:title=" ">
<path fill="none" stroke="#63b8ff" d="M462.57,-179.58C509.05,-171.77 574.47,-159.47 630.73,-144 702.16,-124.36 718.05,-113.17 787.73,-88 789.29,-87.44 790.88,-86.86 792.49,-86.28"/>
<polygon fill="#63b8ff" stroke="#63b8ff" points="793.53,-89.62 801.73,-82.91 791.14,-83.04 793.53,-89.62"/>
</a>
</g>
</g>
<!-- Node17 -->
<g id="Node000017" class="node">
<title>Node17</title>
<g id="a_Node000017"><a xlink:title=" ">
<polygon fill="#e0e0e0" stroke="#999999" points="448.35,-88 355.1,-88 355.1,-56 448.35,-56 448.35,-88"/>
<text text-anchor="start" x="363.1" y="-74.5" font-family="Helvetica,sans-Serif" font-size="10.00">tensorflow/lite/c/c</text>
<text text-anchor="middle" x="401.73" y="-62.5" font-family="Helvetica,sans-Serif" font-size="10.00">_api.h</text>
</a>
</g>
</g>
<!-- Node9&#45;&gt;Node17 -->
<g id="edge23_Node000009_Node000017" class="edge">
<title>Node9&#45;&gt;Node17</title>
<g id="a_edge23_Node000009_Node000017"><a xlink:title=" ">
<path fill="none" stroke="#63b8ff" d="M401.73,-179.51C401.73,-162.3 401.73,-125.39 401.73,-99.88"/>
<polygon fill="#63b8ff" stroke="#63b8ff" points="405.23,-99.93 401.73,-89.93 398.23,-99.93 405.23,-99.93"/>
</a>
</g>
</g>
<!-- Node18 -->
<g id="Node000018" class="node">
<title>Node18</title>
<g id="a_Node000018"><a xlink:title=" ">
<polygon fill="#e0e0e0" stroke="#999999" points="588.6,-88 466.85,-88 466.85,-56 588.6,-56 588.6,-88"/>
<text text-anchor="start" x="474.85" y="-74.5" font-family="Helvetica,sans-Serif" font-size="10.00">tensorflow/lite/delegates</text>
<text text-anchor="middle" x="527.73" y="-62.5" font-family="Helvetica,sans-Serif" font-size="10.00">/gpu/delegate.h</text>
</a>
</g>
</g>
<!-- Node9&#45;&gt;Node18 -->
<g id="edge24_Node000009_Node000018" class="edge">
<title>Node9&#45;&gt;Node18</title>
<g id="a_edge24_Node000009_Node000018"><a xlink:title=" ">
<path fill="none" stroke="#63b8ff" d="M412.04,-179.51C431.66,-161.44 474.89,-121.65 502.59,-96.15"/>
<polygon fill="#63b8ff" stroke="#63b8ff" points="504.89,-98.79 509.87,-89.44 500.15,-93.64 504.89,-98.79"/>
</a>
</g>
</g>
<!-- Node10&#45;&gt;Node3 -->
<g id="edge11_Node000010_Node000003" class="edge">
<title>Node10&#45;&gt;Node3</title>
<g id="a_edge11_Node000010_Node000003"><a xlink:title=" ">
<path fill="none" stroke="#63b8ff" d="M292.02,-123.56C249.52,-113.19 181.15,-96.52 134.65,-85.18"/>
<polygon fill="#63b8ff" stroke="#63b8ff" points="135.63,-81.81 125.09,-82.84 133.97,-88.61 135.63,-81.81"/>
</a>
</g>
</g>
<!-- Node10&#45;&gt;Node5 -->
<g id="edge17_Node000010_Node000005" class="edge">
<title>Node10&#45;&gt;Node5</title>
<g id="a_edge17_Node000010_Node000005"><a xlink:title=" ">
<path fill="none" stroke="#63b8ff" d="M305.84,-123.51C286.76,-115.59 260.29,-103.17 239.73,-88 216.43,-70.81 194.23,-45.71 180.55,-28.89"/>
<polygon fill="#63b8ff" stroke="#63b8ff" points="183.45,-26.9 174.49,-21.25 177.97,-31.25 183.45,-26.9"/>
</a>
</g>
</g>
<!-- Node10&#45;&gt;Node6 -->
<g id="edge19_Node000010_Node000006" class="edge">
<title>Node10&#45;&gt;Node6</title>
<g id="a_edge19_Node000010_Node000006"><a xlink:title=" ">
<path fill="none" stroke="#63b8ff" d="M330.43,-123.83C329.79,-104.4 328.29,-58.67 327.41,-31.77"/>
<polygon fill="#63b8ff" stroke="#63b8ff" points="330.91,-31.67 327.08,-21.79 323.91,-31.9 330.91,-31.67"/>
</a>
</g>
</g>
<!-- Node11 -->
<g id="Node000011" class="node">
<title>Node11</title>
<g id="a_Node000011"><a xlink:href="Errors_8hpp.html" target="_top" xlink:title=" ">
<polygon fill="white" stroke="#666666" points="778.23,-82 645.23,-82 645.23,-62 778.23,-62 778.23,-82"/>
<text text-anchor="middle" x="711.73" y="-68.5" font-family="Helvetica,sans-Serif" font-size="10.00">EyeAICore/utils/Errors.hpp</text>
</a>
</g>
</g>
<!-- Node10&#45;&gt;Node11 -->
<g id="edge12_Node000010_Node000011" class="edge">
<title>Node10&#45;&gt;Node11</title>
<g id="a_edge12_Node000010_Node000011"><a xlink:title=" ">
<path fill="none" stroke="#63b8ff" d="M370.78,-126.69C434.83,-116.61 561.17,-96.71 640.77,-84.17"/>
<polygon fill="#63b8ff" stroke="#63b8ff" points="640.86,-87.7 650.19,-82.69 639.77,-80.79 640.86,-87.7"/>
</a>
</g>
</g>
<!-- Node15 -->
<g id="Node000015" class="node">
<title>Node15</title>
<g id="a_Node000015"><a xlink:title=" ">
<polygon fill="#e0e0e0" stroke="#999999" points="298.6,-82 248.85,-82 248.85,-62 298.6,-62 298.6,-82"/>
<text text-anchor="middle" x="273.73" y="-68.5" font-family="Helvetica,sans-Serif" font-size="10.00">optional</text>
</a>
</g>
</g>
<!-- Node10&#45;&gt;Node15 -->
<g id="edge18_Node000010_Node000015" class="edge">
<title>Node10&#45;&gt;Node15</title>
<g id="a_edge18_Node000010_Node000015"><a xlink:title=" ">
<path fill="none" stroke="#63b8ff" d="M321.82,-123.62C313.41,-114.77 300.58,-101.26 290.28,-90.43"/>
<polygon fill="#63b8ff" stroke="#63b8ff" points="292.85,-88.05 283.43,-83.21 287.78,-92.87 292.85,-88.05"/>
</a>
</g>
</g>
<!-- Node10&#45;&gt;Node16 -->
<g id="edge20_Node000010_Node000016" class="edge">
<title>Node10&#45;&gt;Node16</title>
<g id="a_edge20_Node000010_Node000016"><a xlink:title=" ">
<path fill="none" stroke="#63b8ff" d="M371.01,-132.43C451.29,-130.56 636.55,-122.51 787.73,-88 790.19,-87.44 792.71,-86.77 795.22,-86.03"/>
<polygon fill="#63b8ff" stroke="#63b8ff" points="796.22,-89.39 804.61,-82.93 794.02,-82.74 796.22,-89.39"/>
</a>
</g>
</g>
<!-- Node10&#45;&gt;Node17 -->
<g id="edge21_Node000010_Node000017" class="edge">
<title>Node10&#45;&gt;Node17</title>
<g id="a_edge21_Node000010_Node000017"><a xlink:title=" ">
<path fill="none" stroke="#63b8ff" d="M341.82,-123.62C350.71,-116.11 363.56,-105.26 375.07,-95.52"/>
<polygon fill="#63b8ff" stroke="#63b8ff" points="377,-98.48 382.38,-89.35 372.48,-93.13 377,-98.48"/>
</a>
</g>
</g>
<!-- Node10&#45;&gt;Node18 -->
<g id="edge22_Node000010_Node000018" class="edge">
<title>Node10&#45;&gt;Node18</title>
<g id="a_edge22_Node000010_Node000018"><a xlink:title=" ">
<path fill="none" stroke="#63b8ff" d="M361.51,-123.62C389.34,-115.15 431.15,-102.42 465.87,-91.84"/>
<polygon fill="#63b8ff" stroke="#63b8ff" points="466.87,-95.19 475.42,-88.93 464.83,-88.5 466.87,-95.19"/>
</a>
</g>
</g>
<!-- Node11&#45;&gt;Node7 -->
<g id="edge16_Node000011_Node000007" class="edge">
<title>Node11&#45;&gt;Node7</title>
<g id="a_edge16_Node000011_Node000007"><a xlink:title=" ">
<path fill="none" stroke="#63b8ff" d="M678.14,-61.62C637.95,-50.41 571.07,-31.75 530.72,-20.49"/>
<polygon fill="#63b8ff" stroke="#63b8ff" points="531.87,-17.17 521.3,-17.86 529.99,-23.92 531.87,-17.17"/>
</a>
</g>
</g>
<!-- Node12 -->
<g id="Node000012" class="node">
<title>Node12</title>
<g id="a_Node000012"><a xlink:title=" ">
<polygon fill="#e0e0e0" stroke="#999999" points="762.6,-20 718.85,-20 718.85,0 762.6,0 762.6,-20"/>
<text text-anchor="middle" x="740.73" y="-6.5" font-family="Helvetica,sans-Serif" font-size="10.00">format</text>
</a>
</g>
</g>
<!-- Node11&#45;&gt;Node12 -->
<g id="edge13_Node000011_Node000012" class="edge">
<title>Node11&#45;&gt;Node12</title>
<g id="a_edge13_Node000011_Node000012"><a xlink:title=" ">
<path fill="none" stroke="#63b8ff" d="M716.26,-61.62C720.28,-53.3 726.29,-40.86 731.35,-30.4"/>
<polygon fill="#63b8ff" stroke="#63b8ff" points="734.47,-32 735.67,-21.48 728.16,-28.96 734.47,-32"/>
</a>
</g>
</g>
<!-- Node11&#45;&gt;Node13 -->
<g id="edge14_Node000011_Node000013" class="edge">
<title>Node11&#45;&gt;Node13</title>
<g id="a_edge14_Node000011_Node000013"><a xlink:title=" ">
<path fill="none" stroke="#63b8ff" d="M734.85,-61.62C760.26,-51.32 801.18,-34.74 829.2,-23.38"/>
<polygon fill="#63b8ff" stroke="#63b8ff" points="830.26,-26.72 838.21,-19.72 827.63,-20.24 830.26,-26.72"/>
</a>
</g>
</g>
<!-- Node14 -->
<g id="Node000014" class="node">
<title>Node14</title>
<g id="a_Node000014"><a xlink:title=" ">
<polygon fill="#e0e0e0" stroke="#999999" points="701.1,-20 618.35,-20 618.35,0 701.1,0 701.1,-20"/>
<text text-anchor="middle" x="659.73" y="-6.5" font-family="Helvetica,sans-Serif" font-size="10.00">tl/expected.hpp</text>
</a>
</g>
</g>
<!-- Node11&#45;&gt;Node14 -->
<g id="edge15_Node000011_Node000014" class="edge">
<title>Node11&#45;&gt;Node14</title>
<g id="a_edge15_Node000011_Node000014"><a xlink:title=" ">
<path fill="none" stroke="#63b8ff" d="M703.6,-61.62C696,-52.86 684.45,-39.53 675.11,-28.75"/>
<polygon fill="#63b8ff" stroke="#63b8ff" points="677.81,-26.52 668.62,-21.26 672.52,-31.11 677.81,-26.52"/>
</a>
</g>
</g>
<!-- Node19&#45;&gt;Node16 -->
<g id="edge35_Node000019_Node000016" class="edge">
<title>Node19&#45;&gt;Node16</title>
<g id="a_edge35_Node000019_Node000016"><a xlink:title=" ">
<path fill="none" stroke="#63b8ff" d="M945.89,-235.51C926.02,-207.96 868.11,-127.63 841.9,-91.26"/>
<polygon fill="#63b8ff" stroke="#63b8ff" points="844.97,-89.55 836.28,-83.48 839.29,-93.64 844.97,-89.55"/>
</a>
</g>
</g>
<!-- Node20 -->
<g id="Node000020" class="node">
<title>Node20</title>
<g id="a_Node000020"><a xlink:title=" ">
<polygon fill="#e0e0e0" stroke="#999999" points="1001.35,-200 956.1,-200 956.1,-180 1001.35,-180 1001.35,-200"/>
<text text-anchor="middle" x="978.73" y="-186.5" font-family="Helvetica,sans-Serif" font-size="10.00">chrono</text>
</a>
</g>
</g>
<!-- Node19&#45;&gt;Node20 -->
<g id="edge33_Node000019_Node000020" class="edge">
<title>Node19&#45;&gt;Node20</title>
<g id="a_edge33_Node000019_Node000020"><a xlink:title=" ">
<path fill="none" stroke="#63b8ff" d="M957.26,-235.59C960.58,-228.7 965.2,-219.1 969.3,-210.57"/>
<polygon fill="#63b8ff" stroke="#63b8ff" points="972.41,-212.19 973.6,-201.66 966.1,-209.15 972.41,-212.19"/>
</a>
</g>
</g>
<!-- Node21 -->
<g id="Node000021" class="node">
<title>Node21</title>
<g id="a_Node000021"><a xlink:title=" ">
<polygon fill="#e0e0e0" stroke="#999999" points="1115.85,-200 1019.6,-200 1019.6,-180 1115.85,-180 1115.85,-200"/>
<text text-anchor="middle" x="1067.73" y="-186.5" font-family="Helvetica,sans-Serif" font-size="10.00">concurrentqueue.h</text>
</a>
</g>
</g>
<!-- Node19&#45;&gt;Node21 -->
<g id="edge34_Node000019_Node000021" class="edge">
<title>Node19&#45;&gt;Node21</title>
<g id="a_edge34_Node000019_Node000021"><a xlink:title=" ">
<path fill="none" stroke="#63b8ff" d="M972.76,-235.59C990.54,-227.24 1016.79,-214.92 1037.19,-205.34"/>
<polygon fill="#63b8ff" stroke="#63b8ff" points="1038.61,-208.54 1046.17,-201.12 1035.63,-202.21 1038.61,-208.54"/>
</a>
</g>
</g>
</g>
</svg>
