<?xml version="1.0" encoding="UTF-8" standalone="no"?>
<!DOCTYPE svg PUBLIC "-//W3C//DTD SVG 1.1//EN"
 "http://www.w3.org/Graphics/SVG/1.1/DTD/svg11.dtd">
<!-- Generated by graphviz version 12.2.1 (20241206.2353)
 -->
<!-- Title: include/EyeAICore/audio/SpatialAudio.hpp Pages: 1 -->
<!--zoomable 412 -->

<svg id="main" version="1.1" xmlns="http://www.w3.org/2000/svg" xmlns:xlink="http://www.w3.org/1999/xlink" xml:space="preserve" onload="init(evt)">

<style type="text/css"><![CDATA[
.node, .edge {opacity: 0.7;}
.node.selected, .edge.selected {opacity: 1;}
.edge:hover path { stroke: red; }
.edge:hover polygon { stroke: red; fill: red; }
]]></style>

<defs>
  <circle id="rim" cx="0" cy="0" r="7"/>
  <circle id="rim2" cx="0" cy="0" r="3.5"/>
  <g id="zoomPlus">
    <use xlink:href="#rim" fill="#404040"><set attributeName="fill" to="#808080" begin="zoomplus.mouseover" end="zoomplus.mouseout"/></use>
    <path d="M-4,0h8M0,-4v8" fill="none" stroke="white" stroke-width="1.5" pointer-events="none"/>
  </g>
  <g id="zoomMin">
    <use xlink:href="#rim" fill="#404040"><set attributeName="fill" to="#808080" begin="zoomminus.mouseover" end="zoomminus.mouseout"/></use>
    <path d="M-4,0h8" fill="none" stroke="white" stroke-width="1.5" pointer-events="none"/>
  </g>
  <g id="arrowUp" transform="translate(30 24)">
    <use xlink:href="#rim"/>
    <path pointer-events="none" fill="none" stroke="white" stroke-width="1.5" d="M0,-3.0v7 M-2.5,-0.5L0,-3.0L2.5,-0.5"/>
  </g>
  <g id="arrowRight" transform="rotate(90) translate(36 -43)">
    <use xlink:href="#rim"/>
    <path pointer-events="none" fill="none" stroke="white" stroke-width="1.5" d="M0,-3.0v7 M-2.5,-0.5L0,-3.0L2.5,-0.5"/>
  </g>
  <g id="arrowDown" transform="rotate(180) translate(-30 -48)">
    <use xlink:href="#rim"/>
    <path pointer-events="none" fill="none" stroke="white" stroke-width="1.5" d="M0,-3.0v7 M-2.5,-0.5L0,-3.0L2.5,-0.5"/>
  </g>
  <g id="arrowLeft" transform="rotate(270) translate(-36 17)">
    <use xlink:href="#rim"/>
    <path pointer-events="none" fill="none" stroke="white" stroke-width="1.5" d="M0,-3.0v7 M-2.5,-0.5L0,-3.0L2.5,-0.5"/>
  </g>
  <g id="resetDef">
    <use xlink:href="#rim2" fill="#404040"><set attributeName="fill" to="#808080" begin="reset.mouseover" end="reset.mouseout"/></use>
  </g>
</defs>
<script type="application/ecmascript">
var viewWidth = 1854;
var viewHeight = 412;
var sectionId = 'dynsection-0';
</script>
<script type="application/ecmascript" xlink:href="svg.min.js"/>
<svg id="graph" class="graph">
<g id="viewport">
<title>include/EyeAICore/audio/SpatialAudio.hpp</title>
<!-- Node1 -->
<g id="Node000001" class="node">
<title>Node1</title>
<g id="a_Node000001"><a xlink:title=" ">
<polygon fill="#999999" stroke="#666666" points="1522,-404 1398,-404 1398,-372 1522,-372 1522,-404"/>
<text text-anchor="start" x="1406" y="-390.5" font-family="Helvetica,sans-Serif" font-size="10.00">include/EyeAICore/audio</text>
<text text-anchor="middle" x="1460" y="-378.5" font-family="Helvetica,sans-Serif" font-size="10.00">/SpatialAudio.hpp</text>
</a>
</g>
</g>
<!-- Node2 -->
<g id="Node000002" class="node">
<title>Node2</title>
<g id="a_Node000002"><a xlink:href="YoloModel_8hpp.html" target="_top" xlink:title=" ">
<polygon fill="white" stroke="#666666" points="674.38,-274 543.62,-274 543.62,-254 674.38,-254 674.38,-274"/>
<text text-anchor="middle" x="609" y="-260.5" font-family="Helvetica,sans-Serif" font-size="10.00">EyeAICore/YoloModel.hpp</text>
</a>
</g>
</g>
<!-- Node1&#45;&gt;Node2 -->
<g id="edge1_Node000001_Node000002" class="edge">
<title>Node1&#45;&gt;Node2</title>
<g id="a_edge1_Node000001_Node000002"><a xlink:title=" ">
<path fill="none" stroke="#63b8ff" d="M1397.77,-387.09C1241.34,-386.64 835.24,-381.03 709,-336 676.58,-324.43 645.22,-299.16 626.52,-282.1"/>
<polygon fill="#63b8ff" stroke="#63b8ff" points="628.96,-279.6 619.28,-275.3 624.17,-284.7 628.96,-279.6"/>
</a>
</g>
</g>
<!-- Node6 -->
<g id="Node000006" class="node">
<title>Node6</title>
<g id="a_Node000006"><a xlink:title=" ">
<polygon fill="#e0e0e0" stroke="#999999" points="75.5,-20 38.5,-20 38.5,0 75.5,0 75.5,-20"/>
<text text-anchor="middle" x="57" y="-6.5" font-family="Helvetica,sans-Serif" font-size="10.00">span</text>
</a>
</g>
</g>
<!-- Node1&#45;&gt;Node6 -->
<g id="edge50_Node000001_Node000006" class="edge">
<title>Node1&#45;&gt;Node6</title>
<g id="a_edge50_Node000001_Node000006"><a xlink:title=" ">
<path fill="none" stroke="#63b8ff" d="M1397.73,-385.11C1119.06,-376.26 0,-336.26 0,-265 0,-265 0,-265 0,-139 0,-97.04 25.87,-53.52 42.76,-29.59"/>
<polygon fill="#63b8ff" stroke="#63b8ff" points="45.57,-31.67 48.65,-21.54 39.92,-27.54 45.57,-31.67"/>
</a>
</g>
</g>
<!-- Node8 -->
<g id="Node000008" class="node">
<title>Node8</title>
<g id="a_Node000008"><a xlink:title=" ">
<polygon fill="#e0e0e0" stroke="#999999" points="1216.5,-20 1173.5,-20 1173.5,0 1216.5,0 1216.5,-20"/>
<text text-anchor="middle" x="1195" y="-6.5" font-family="Helvetica,sans-Serif" font-size="10.00">vector</text>
</a>
</g>
</g>
<!-- Node1&#45;&gt;Node8 -->
<g id="edge54_Node000001_Node000008" class="edge">
<title>Node1&#45;&gt;Node8</title>
<g id="a_edge54_Node000001_Node000008"><a xlink:title=" ">
<path fill="none" stroke="#63b8ff" d="M1495.69,-371.63C1531.19,-354.47 1584.49,-323.32 1614,-280 1633.85,-250.87 1633,-238.25 1633,-203 1633,-203 1633,-203 1633,-139 1633,-54.69 1330.22,-22.09 1228.14,-13.5"/>
<polygon fill="#63b8ff" stroke="#63b8ff" points="1228.48,-10.01 1218.23,-12.69 1227.91,-16.99 1228.48,-10.01"/>
</a>
</g>
</g>
<!-- Node13 -->
<g id="Node000013" class="node">
<title>Node13</title>
<g id="a_Node000013"><a xlink:title=" ">
<polygon fill="#e0e0e0" stroke="#999999" points="940,-20 900,-20 900,0 940,0 940,-20"/>
<text text-anchor="middle" x="920" y="-6.5" font-family="Helvetica,sans-Serif" font-size="10.00">string</text>
</a>
</g>
</g>
<!-- Node1&#45;&gt;Node13 -->
<g id="edge51_Node000001_Node000013" class="edge">
<title>Node1&#45;&gt;Node13</title>
<g id="a_edge51_Node000001_Node000013"><a xlink:title=" ">
<path fill="none" stroke="#63b8ff" d="M1397.69,-387.16C1255.4,-386.74 910.68,-380.95 805,-336 760.74,-317.17 723.25,-292.3 742,-248 781.82,-153.93 859.47,-178.42 907,-88 916.26,-70.39 919.17,-47.66 919.98,-31.47"/>
<polygon fill="#63b8ff" stroke="#63b8ff" points="923.47,-31.71 920.21,-21.63 916.47,-31.54 923.47,-31.71"/>
</a>
</g>
</g>
<!-- Node19 -->
<g id="Node000019" class="node">
<title>Node19</title>
<g id="a_Node000019"><a xlink:href="ObjectTracker_8hpp.html" target="_top" xlink:title=" ">
<polygon fill="white" stroke="#666666" points="961.62,-336 814.38,-336 814.38,-316 961.62,-316 961.62,-336"/>
<text text-anchor="middle" x="888" y="-322.5" font-family="Helvetica,sans-Serif" font-size="10.00">EyeAICore/ObjectTracker.hpp</text>
</a>
</g>
</g>
<!-- Node1&#45;&gt;Node19 -->
<g id="edge29_Node000001_Node000019" class="edge">
<title>Node1&#45;&gt;Node19</title>
<g id="a_edge29_Node000001_Node000019"><a xlink:title=" ">
<path fill="none" stroke="#63b8ff" d="M1397.7,-380.46C1294.86,-369.68 1089.42,-348.13 973.22,-335.94"/>
<polygon fill="#63b8ff" stroke="#63b8ff" points="973.73,-332.47 963.42,-334.91 973,-339.44 973.73,-332.47"/>
</a>
</g>
</g>
<!-- Node22 -->
<g id="Node000022" class="node">
<title>Node22</title>
<g id="a_Node000022"><a xlink:href="AudioMain_8hpp.html" target="_top" xlink:title=" ">
<polygon fill="white" stroke="#666666" points="1485.88,-336 1328.12,-336 1328.12,-316 1485.88,-316 1485.88,-336"/>
<text text-anchor="middle" x="1407" y="-322.5" font-family="Helvetica,sans-Serif" font-size="10.00">EyeAICore/audio/AudioMain.hpp</text>
</a>
</g>
</g>
<!-- Node1&#45;&gt;Node22 -->
<g id="edge33_Node000001_Node000022" class="edge">
<title>Node1&#45;&gt;Node22</title>
<g id="a_edge33_Node000001_Node000022"><a xlink:title=" ">
<path fill="none" stroke="#63b8ff" d="M1446.35,-371.55C1439.14,-363.39 1430.26,-353.33 1422.76,-344.84"/>
<polygon fill="#63b8ff" stroke="#63b8ff" points="1425.56,-342.72 1416.31,-337.54 1420.31,-347.35 1425.56,-342.72"/>
</a>
</g>
</g>
<!-- Node25 -->
<g id="Node000025" class="node">
<title>Node25</title>
<g id="a_Node000025"><a xlink:href="SpatialAudioSettings_8hpp.html" target="_top" xlink:title=" ">
<polygon fill="white" stroke="#666666" points="1167,-280 1019,-280 1019,-248 1167,-248 1167,-280"/>
<text text-anchor="start" x="1027" y="-266.5" font-family="Helvetica,sans-Serif" font-size="10.00">EyeAICore/audio/SpatialAudio</text>
<text text-anchor="middle" x="1093" y="-254.5" font-family="Helvetica,sans-Serif" font-size="10.00">Settings.hpp</text>
</a>
</g>
</g>
<!-- Node1&#45;&gt;Node25 -->
<g id="edge46_Node000001_Node000025" class="edge">
<title>Node1&#45;&gt;Node25</title>
<g id="a_edge46_Node000001_Node000025"><a xlink:title=" ">
<path fill="none" stroke="#63b8ff" d="M1413.52,-371.55C1346.46,-349.26 1222.69,-308.11 1150.15,-284"/>
<polygon fill="#63b8ff" stroke="#63b8ff" points="1151.42,-280.73 1140.83,-280.9 1149.21,-287.38 1151.42,-280.73"/>
</a>
</g>
</g>
<!-- Node28 -->
<g id="Node000028" class="node">
<title>Node28</title>
<g id="a_Node000028"><a xlink:title=" ">
<polygon fill="#e0e0e0" stroke="#999999" points="1535.38,-274 1488.62,-274 1488.62,-254 1535.38,-254 1535.38,-274"/>
<text text-anchor="middle" x="1512" y="-260.5" font-family="Helvetica,sans-Serif" font-size="10.00">AL/al.h</text>
</a>
</g>
</g>
<!-- Node1&#45;&gt;Node28 -->
<g id="edge47_Node000001_Node000028" class="edge">
<title>Node1&#45;&gt;Node28</title>
<g id="a_edge47_Node000001_Node000028"><a xlink:title=" ">
<path fill="none" stroke="#63b8ff" d="M1472.63,-371.81C1480.12,-362.11 1489.24,-348.95 1495,-336 1502.25,-319.7 1506.66,-299.86 1509.17,-285.3"/>
<polygon fill="#63b8ff" stroke="#63b8ff" points="1512.61,-286 1510.68,-275.58 1505.69,-284.93 1512.61,-286"/>
</a>
</g>
</g>
<!-- Node29 -->
<g id="Node000029" class="node">
<title>Node29</title>
<g id="a_Node000029"><a xlink:title=" ">
<polygon fill="#e0e0e0" stroke="#999999" points="1605,-274 1553,-274 1553,-254 1605,-254 1605,-274"/>
<text text-anchor="middle" x="1579" y="-260.5" font-family="Helvetica,sans-Serif" font-size="10.00">AL/alc.h</text>
</a>
</g>
</g>
<!-- Node1&#45;&gt;Node29 -->
<g id="edge48_Node000001_Node000029" class="edge">
<title>Node1&#45;&gt;Node29</title>
<g id="a_edge48_Node000001_Node000029"><a xlink:title=" ">
<path fill="none" stroke="#63b8ff" d="M1476.09,-371.53C1486.44,-361.5 1500.13,-348.1 1512,-336 1529.69,-317.96 1549.5,-296.86 1562.95,-282.38"/>
<polygon fill="#63b8ff" stroke="#63b8ff" points="1565.18,-285.12 1569.41,-275.41 1560.05,-280.37 1565.18,-285.12"/>
</a>
</g>
</g>
<!-- Node31 -->
<g id="Node000031" class="node">
<title>Node31</title>
<g id="a_Node000031"><a xlink:title=" ">
<polygon fill="#e0e0e0" stroke="#999999" points="1684.88,-336 1647.12,-336 1647.12,-316 1684.88,-316 1684.88,-336"/>
<text text-anchor="middle" x="1666" y="-322.5" font-family="Helvetica,sans-Serif" font-size="10.00">array</text>
</a>
</g>
</g>
<!-- Node1&#45;&gt;Node31 -->
<g id="edge49_Node000001_Node000031" class="edge">
<title>Node1&#45;&gt;Node31</title>
<g id="a_edge49_Node000001_Node000031"><a xlink:title=" ">
<path fill="none" stroke="#63b8ff" d="M1513.05,-371.55C1552.12,-360.17 1603.85,-345.1 1636.01,-335.73"/>
<polygon fill="#63b8ff" stroke="#63b8ff" points="1636.84,-339.14 1645.47,-332.98 1634.89,-332.42 1636.84,-339.14"/>
</a>
</g>
</g>
<!-- Node32 -->
<g id="Node000032" class="node">
<title>Node32</title>
<g id="a_Node000032"><a xlink:title=" ">
<polygon fill="#e0e0e0" stroke="#999999" points="1745.5,-336 1702.5,-336 1702.5,-316 1745.5,-316 1745.5,-336"/>
<text text-anchor="middle" x="1724" y="-322.5" font-family="Helvetica,sans-Serif" font-size="10.00">thread</text>
</a>
</g>
</g>
<!-- Node1&#45;&gt;Node32 -->
<g id="edge52_Node000001_Node000032" class="edge">
<title>Node1&#45;&gt;Node32</title>
<g id="a_edge52_Node000001_Node000032"><a xlink:title=" ">
<path fill="none" stroke="#63b8ff" d="M1522.38,-374.76C1567.12,-365.68 1629.02,-352.48 1691.29,-336.57"/>
<polygon fill="#63b8ff" stroke="#63b8ff" points="1691.82,-340.05 1700.63,-334.16 1690.08,-333.27 1691.82,-340.05"/>
</a>
</g>
</g>
<!-- Node33 -->
<g id="Node000033" class="node">
<title>Node33</title>
<g id="a_Node000033"><a xlink:title=" ">
<polygon fill="#e0e0e0" stroke="#999999" points="1846.38,-336 1763.62,-336 1763.62,-316 1846.38,-316 1846.38,-336"/>
<text text-anchor="middle" x="1805" y="-322.5" font-family="Helvetica,sans-Serif" font-size="10.00">unordered_map</text>
</a>
</g>
</g>
<!-- Node1&#45;&gt;Node33 -->
<g id="edge53_Node000001_Node000033" class="edge">
<title>Node1&#45;&gt;Node33</title>
<g id="a_edge53_Node000001_Node000033"><a xlink:title=" ">
<path fill="none" stroke="#63b8ff" d="M1522.46,-376.33C1579.68,-366.53 1667.05,-351.48 1752.09,-336.5"/>
<polygon fill="#63b8ff" stroke="#63b8ff" points="1752.53,-339.98 1761.77,-334.8 1751.32,-333.09 1752.53,-339.98"/>
</a>
</g>
</g>
<!-- Node3 -->
<g id="Node000003" class="node">
<title>Node3</title>
<g id="a_Node000003"><a xlink:href="TensorBuffer_8hpp.html" target="_top" xlink:title=" ">
<polygon fill="white" stroke="#666666" points="244.25,-82 103.75,-82 103.75,-62 244.25,-62 244.25,-82"/>
<text text-anchor="middle" x="174" y="-68.5" font-family="Helvetica,sans-Serif" font-size="10.00">EyeAICore/TensorBuffer.hpp</text>
</a>
</g>
</g>
<!-- Node2&#45;&gt;Node3 -->
<g id="edge2_Node000002_Node000003" class="edge">
<title>Node2&#45;&gt;Node3</title>
<g id="a_edge2_Node000002_Node000003"><a xlink:title=" ">
<path fill="none" stroke="#63b8ff" d="M543.47,-261.67C458.06,-256.61 308.37,-235.95 213,-156 193.78,-139.89 183.45,-112.19 178.34,-93.25"/>
<polygon fill="#63b8ff" stroke="#63b8ff" points="181.8,-92.66 176.06,-83.76 175,-94.3 181.8,-92.66"/>
</a>
</g>
</g>
<!-- Node9 -->
<g id="Node000009" class="node">
<title>Node9</title>
<g id="a_Node000009"><a xlink:href="TfLiteRuntime_8hpp.html" target="_top" xlink:title=" ">
<polygon fill="white" stroke="#666666" points="673.5,-212 504.5,-212 504.5,-192 673.5,-192 673.5,-212"/>
<text text-anchor="middle" x="589" y="-198.5" font-family="Helvetica,sans-Serif" font-size="10.00">EyeAICore/tflite/TfLiteRuntime.hpp</text>
</a>
</g>
</g>
<!-- Node2&#45;&gt;Node9 -->
<g id="edge8_Node000002_Node000009" class="edge">
<title>Node2&#45;&gt;Node9</title>
<g id="a_edge8_Node000002_Node000009"><a xlink:title=" ">
<path fill="none" stroke="#63b8ff" d="M605.88,-253.62C603.13,-245.39 599.04,-233.13 595.58,-222.74"/>
<polygon fill="#63b8ff" stroke="#63b8ff" points="599,-221.93 592.52,-213.55 592.36,-224.14 599,-221.93"/>
</a>
</g>
</g>
<!-- Node4 -->
<g id="Node000004" class="node">
<title>Node4</title>
<g id="a_Node000004"><a xlink:title=" ">
<polygon fill="#e0e0e0" stroke="#999999" points="196.62,-20 151.38,-20 151.38,0 196.62,0 196.62,-20"/>
<text text-anchor="middle" x="174" y="-6.5" font-family="Helvetica,sans-Serif" font-size="10.00">cstdint</text>
</a>
</g>
</g>
<!-- Node3&#45;&gt;Node4 -->
<g id="edge3_Node000003_Node000004" class="edge">
<title>Node3&#45;&gt;Node4</title>
<g id="a_edge3_Node000003_Node000004"><a xlink:title=" ">
<path fill="none" stroke="#63b8ff" d="M174,-61.62C174,-53.56 174,-41.65 174,-31.41"/>
<polygon fill="#63b8ff" stroke="#63b8ff" points="177.5,-31.63 174,-21.63 170.5,-31.63 177.5,-31.63"/>
</a>
</g>
</g>
<!-- Node5 -->
<g id="Node000005" class="node">
<title>Node5</title>
<g id="a_Node000005"><a xlink:title=" ">
<polygon fill="#e0e0e0" stroke="#999999" points="297.62,-20 246.38,-20 246.38,0 297.62,0 297.62,-20"/>
<text text-anchor="middle" x="272" y="-6.5" font-family="Helvetica,sans-Serif" font-size="10.00">memory</text>
</a>
</g>
</g>
<!-- Node3&#45;&gt;Node5 -->
<g id="edge4_Node000003_Node000005" class="edge">
<title>Node3&#45;&gt;Node5</title>
<g id="a_edge4_Node000003_Node000005"><a xlink:title=" ">
<path fill="none" stroke="#63b8ff" d="M189.31,-61.62C204.77,-52.16 228.91,-37.38 247.12,-26.23"/>
<polygon fill="#63b8ff" stroke="#63b8ff" points="248.8,-29.31 255.5,-21.1 245.15,-23.34 248.8,-29.31"/>
</a>
</g>
</g>
<!-- Node3&#45;&gt;Node6 -->
<g id="edge5_Node000003_Node000006" class="edge">
<title>Node3&#45;&gt;Node6</title>
<g id="a_edge5_Node000003_Node000006"><a xlink:title=" ">
<path fill="none" stroke="#63b8ff" d="M155.72,-61.62C136.83,-51.94 107.1,-36.69 85.19,-25.46"/>
<polygon fill="#63b8ff" stroke="#63b8ff" points="86.99,-22.45 76.5,-21 83.8,-28.68 86.99,-22.45"/>
</a>
</g>
</g>
<!-- Node7 -->
<g id="Node000007" class="node">
<title>Node7</title>
<g id="a_Node000007"><a xlink:title=" ">
<polygon fill="#e0e0e0" stroke="#999999" points="378.62,-20 333.38,-20 333.38,0 378.62,0 378.62,-20"/>
<text text-anchor="middle" x="356" y="-6.5" font-family="Helvetica,sans-Serif" font-size="10.00">variant</text>
</a>
</g>
</g>
<!-- Node3&#45;&gt;Node7 -->
<g id="edge6_Node000003_Node000007" class="edge">
<title>Node3&#45;&gt;Node7</title>
<g id="a_edge6_Node000003_Node000007"><a xlink:title=" ">
<path fill="none" stroke="#63b8ff" d="M202.44,-61.62C234.91,-50.92 288,-33.42 322.46,-22.06"/>
<polygon fill="#63b8ff" stroke="#63b8ff" points="323.11,-25.53 331.51,-19.07 320.92,-18.88 323.11,-25.53"/>
</a>
</g>
</g>
<!-- Node3&#45;&gt;Node8 -->
<g id="edge7_Node000003_Node000008" class="edge">
<title>Node3&#45;&gt;Node8</title>
<g id="a_edge7_Node000003_Node000008"><a xlink:title=" ">
<path fill="none" stroke="#63b8ff" d="M244.55,-63.5C271.01,-60.87 301.36,-58.05 329,-56 653.12,-31.91 1046.44,-16.45 1161.75,-12.19"/>
<polygon fill="#63b8ff" stroke="#63b8ff" points="1161.85,-15.69 1171.71,-11.83 1161.59,-8.7 1161.85,-15.69"/>
</a>
</g>
</g>
<!-- Node9&#45;&gt;Node3 -->
<g id="edge9_Node000009_Node000003" class="edge">
<title>Node9&#45;&gt;Node3</title>
<g id="a_edge9_Node000009_Node000003"><a xlink:title=" ">
<path fill="none" stroke="#63b8ff" d="M504.17,-195.58C420.75,-189.17 300.02,-176.68 258,-156 227.77,-141.12 201.73,-111.14 186.96,-91.58"/>
<polygon fill="#63b8ff" stroke="#63b8ff" points="189.91,-89.68 181.2,-83.66 184.25,-93.8 189.91,-89.68"/>
</a>
</g>
</g>
<!-- Node9&#45;&gt;Node5 -->
<g id="edge25_Node000009_Node000005" class="edge">
<title>Node9&#45;&gt;Node5</title>
<g id="a_edge25_Node000009_Node000005"><a xlink:title=" ">
<path fill="none" stroke="#63b8ff" d="M506.26,-191.56C438.98,-179.34 346.98,-151.45 295,-88 281.82,-71.92 276.19,-48.47 273.79,-31.68"/>
<polygon fill="#63b8ff" stroke="#63b8ff" points="277.28,-31.41 272.68,-21.87 270.33,-32.2 277.28,-31.41"/>
</a>
</g>
</g>
<!-- Node9&#45;&gt;Node6 -->
<g id="edge26_Node000009_Node000006" class="edge">
<title>Node9&#45;&gt;Node6</title>
<g id="a_edge26_Node000009_Node000006"><a xlink:title=" ">
<path fill="none" stroke="#63b8ff" d="M504.24,-198.49C427.04,-194.42 310.53,-183.78 213,-156 144.16,-136.39 109.29,-145.75 67,-88 55.13,-71.79 53.69,-48.36 54.56,-31.61"/>
<polygon fill="#63b8ff" stroke="#63b8ff" points="58.03,-32.11 55.41,-21.84 51.06,-31.5 58.03,-32.11"/>
</a>
</g>
</g>
<!-- Node10 -->
<g id="Node000010" class="node">
<title>Node10</title>
<g id="a_Node000010"><a xlink:href="TfLiteUtils_8hpp.html" target="_top" xlink:title=" ">
<polygon fill="white" stroke="#666666" points="511.88,-150 432.12,-150 432.12,-130 511.88,-130 511.88,-150"/>
<text text-anchor="middle" x="472" y="-136.5" font-family="Helvetica,sans-Serif" font-size="10.00">TfLiteUtils.hpp</text>
</a>
</g>
</g>
<!-- Node9&#45;&gt;Node10 -->
<g id="edge10_Node000009_Node000010" class="edge">
<title>Node9&#45;&gt;Node10</title>
<g id="a_edge10_Node000009_Node000010"><a xlink:title=" ">
<path fill="none" stroke="#63b8ff" d="M570.72,-191.62C551.83,-181.94 522.1,-166.69 500.19,-155.46"/>
<polygon fill="#63b8ff" stroke="#63b8ff" points="501.99,-152.45 491.5,-151 498.8,-158.68 501.99,-152.45"/>
</a>
</g>
</g>
<!-- Node9&#45;&gt;Node13 -->
<g id="edge27_Node000009_Node000013" class="edge">
<title>Node9&#45;&gt;Node13</title>
<g id="a_edge27_Node000009_Node000013"><a xlink:title=" ">
<path fill="none" stroke="#63b8ff" d="M647.74,-191.55C712.23,-178.45 815.42,-149.1 882,-88 898.7,-72.68 908.96,-48.4 914.55,-31.21"/>
<polygon fill="#63b8ff" stroke="#63b8ff" points="917.84,-32.44 917.32,-21.85 911.12,-30.45 917.84,-32.44"/>
</a>
</g>
</g>
<!-- Node16 -->
<g id="Node000016" class="node">
<title>Node16</title>
<g id="a_Node000016"><a xlink:title=" ">
<polygon fill="#e0e0e0" stroke="#999999" points="621.75,-82 556.25,-82 556.25,-62 621.75,-62 621.75,-82"/>
<text text-anchor="middle" x="589" y="-68.5" font-family="Helvetica,sans-Serif" font-size="10.00">string_view</text>
</a>
</g>
</g>
<!-- Node9&#45;&gt;Node16 -->
<g id="edge28_Node000009_Node000016" class="edge">
<title>Node9&#45;&gt;Node16</title>
<g id="a_edge28_Node000009_Node000016"><a xlink:title=" ">
<path fill="none" stroke="#63b8ff" d="M589,-191.79C589,-171.41 589,-122.05 589,-93.79"/>
<polygon fill="#63b8ff" stroke="#63b8ff" points="592.5,-93.98 589,-83.98 585.5,-93.98 592.5,-93.98"/>
</a>
</g>
</g>
<!-- Node17 -->
<g id="Node000017" class="node">
<title>Node17</title>
<g id="a_Node000017"><a xlink:title=" ">
<polygon fill="#e0e0e0" stroke="#999999" points="732.62,-88 639.38,-88 639.38,-56 732.62,-56 732.62,-88"/>
<text text-anchor="start" x="647.38" y="-74.5" font-family="Helvetica,sans-Serif" font-size="10.00">tensorflow/lite/c/c</text>
<text text-anchor="middle" x="686" y="-62.5" font-family="Helvetica,sans-Serif" font-size="10.00">_api.h</text>
</a>
</g>
</g>
<!-- Node9&#45;&gt;Node17 -->
<g id="edge23_Node000009_Node000017" class="edge">
<title>Node9&#45;&gt;Node17</title>
<g id="a_edge23_Node000009_Node000017"><a xlink:title=" ">
<path fill="none" stroke="#63b8ff" d="M595.98,-191.79C610.81,-172.22 645.89,-125.93 667.62,-97.26"/>
<polygon fill="#63b8ff" stroke="#63b8ff" points="670.26,-99.56 673.51,-89.48 664.68,-95.34 670.26,-99.56"/>
</a>
</g>
</g>
<!-- Node18 -->
<g id="Node000018" class="node">
<title>Node18</title>
<g id="a_Node000018"><a xlink:title=" ">
<polygon fill="#e0e0e0" stroke="#999999" points="872.88,-88 751.12,-88 751.12,-56 872.88,-56 872.88,-88"/>
<text text-anchor="start" x="759.12" y="-74.5" font-family="Helvetica,sans-Serif" font-size="10.00">tensorflow/lite/delegates</text>
<text text-anchor="middle" x="812" y="-62.5" font-family="Helvetica,sans-Serif" font-size="10.00">/gpu/delegate.h</text>
</a>
</g>
</g>
<!-- Node9&#45;&gt;Node18 -->
<g id="edge24_Node000009_Node000018" class="edge">
<title>Node9&#45;&gt;Node18</title>
<g id="a_edge24_Node000009_Node000018"><a xlink:title=" ">
<path fill="none" stroke="#63b8ff" d="M605.4,-191.59C640.99,-171.16 726.06,-122.33 775.22,-94.11"/>
<polygon fill="#63b8ff" stroke="#63b8ff" points="776.89,-97.19 783.82,-89.17 773.41,-91.12 776.89,-97.19"/>
</a>
</g>
</g>
<!-- Node10&#45;&gt;Node3 -->
<g id="edge11_Node000010_Node000003" class="edge">
<title>Node10&#45;&gt;Node3</title>
<g id="a_edge11_Node000010_Node000003"><a xlink:title=" ">
<path fill="none" stroke="#63b8ff" d="M431.81,-130.1C378.98,-118.4 286.01,-97.81 227.33,-84.81"/>
<polygon fill="#63b8ff" stroke="#63b8ff" points="228.43,-81.47 217.91,-82.73 226.92,-88.31 228.43,-81.47"/>
</a>
</g>
</g>
<!-- Node10&#45;&gt;Node5 -->
<g id="edge17_Node000010_Node000005" class="edge">
<title>Node10&#45;&gt;Node5</title>
<g id="a_edge17_Node000010_Node000005"><a xlink:title=" ">
<path fill="none" stroke="#63b8ff" d="M431.66,-131.31C401.21,-124.01 359.59,-110.69 329,-88 308.4,-72.72 291.93,-47.91 282.1,-30.59"/>
<polygon fill="#63b8ff" stroke="#63b8ff" points="285.17,-28.93 277.33,-21.8 279.02,-32.26 285.17,-28.93"/>
</a>
</g>
</g>
<!-- Node10&#45;&gt;Node6 -->
<g id="edge19_Node000010_Node000006" class="edge">
<title>Node10&#45;&gt;Node6</title>
<g id="a_edge19_Node000010_Node000006"><a xlink:title=" ">
<path fill="none" stroke="#63b8ff" d="M431.86,-138.24C346.07,-135.88 148.29,-126.32 95,-88 76.32,-74.56 66.35,-49.33 61.38,-31.42"/>
<polygon fill="#63b8ff" stroke="#63b8ff" points="64.82,-30.77 59.05,-21.89 58.02,-32.43 64.82,-30.77"/>
</a>
</g>
</g>
<!-- Node11 -->
<g id="Node000011" class="node">
<title>Node11</title>
<g id="a_Node000011"><a xlink:href="Errors_8hpp.html" target="_top" xlink:title=" ">
<polygon fill="white" stroke="#666666" points="538.5,-82 405.5,-82 405.5,-62 538.5,-62 538.5,-82"/>
<text text-anchor="middle" x="472" y="-68.5" font-family="Helvetica,sans-Serif" font-size="10.00">EyeAICore/utils/Errors.hpp</text>
</a>
</g>
</g>
<!-- Node10&#45;&gt;Node11 -->
<g id="edge12_Node000010_Node000011" class="edge">
<title>Node10&#45;&gt;Node11</title>
<g id="a_edge12_Node000010_Node000011"><a xlink:title=" ">
<path fill="none" stroke="#63b8ff" d="M472,-129.54C472,-120.23 472,-105.7 472,-93.7"/>
<polygon fill="#63b8ff" stroke="#63b8ff" points="475.5,-93.95 472,-83.95 468.5,-93.95 475.5,-93.95"/>
</a>
</g>
</g>
<!-- Node15 -->
<g id="Node000015" class="node">
<title>Node15</title>
<g id="a_Node000015"><a xlink:title=" ">
<polygon fill="#e0e0e0" stroke="#999999" points="387.88,-82 338.12,-82 338.12,-62 387.88,-62 387.88,-82"/>
<text text-anchor="middle" x="363" y="-68.5" font-family="Helvetica,sans-Serif" font-size="10.00">optional</text>
</a>
</g>
</g>
<!-- Node10&#45;&gt;Node15 -->
<g id="edge18_Node000010_Node000015" class="edge">
<title>Node10&#45;&gt;Node15</title>
<g id="a_edge18_Node000010_Node000015"><a xlink:title=" ">
<path fill="none" stroke="#63b8ff" d="M456.38,-129.54C438.58,-118.76 409.21,-100.98 388.17,-88.24"/>
<polygon fill="#63b8ff" stroke="#63b8ff" points="390.25,-85.41 379.88,-83.22 386.62,-91.4 390.25,-85.41"/>
</a>
</g>
</g>
<!-- Node10&#45;&gt;Node16 -->
<g id="edge20_Node000010_Node000016" class="edge">
<title>Node10&#45;&gt;Node16</title>
<g id="a_edge20_Node000010_Node000016"><a xlink:title=" ">
<path fill="none" stroke="#63b8ff" d="M488.76,-129.54C507.96,-118.71 539.68,-100.82 562.29,-88.06"/>
<polygon fill="#63b8ff" stroke="#63b8ff" points="563.96,-91.14 570.95,-83.18 560.52,-85.05 563.96,-91.14"/>
</a>
</g>
</g>
<!-- Node10&#45;&gt;Node17 -->
<g id="edge21_Node000010_Node000017" class="edge">
<title>Node10&#45;&gt;Node17</title>
<g id="a_edge21_Node000010_Node000017"><a xlink:title=" ">
<path fill="none" stroke="#63b8ff" d="M502.66,-129.54C535.37,-119.45 587.95,-103.24 628.43,-90.76"/>
<polygon fill="#63b8ff" stroke="#63b8ff" points="629.26,-94.16 637.79,-87.87 627.2,-87.47 629.26,-94.16"/>
</a>
</g>
</g>
<!-- Node10&#45;&gt;Node18 -->
<g id="edge22_Node000010_Node000018" class="edge">
<title>Node10&#45;&gt;Node18</title>
<g id="a_edge22_Node000010_Node000018"><a xlink:title=" ">
<path fill="none" stroke="#63b8ff" d="M512.31,-131.7C562.97,-122.46 652.87,-105.84 739.8,-88.42"/>
<polygon fill="#63b8ff" stroke="#63b8ff" points="740.34,-91.88 749.45,-86.48 738.96,-85.02 740.34,-91.88"/>
</a>
</g>
</g>
<!-- Node11&#45;&gt;Node7 -->
<g id="edge16_Node000011_Node000007" class="edge">
<title>Node11&#45;&gt;Node7</title>
<g id="a_edge16_Node000011_Node000007"><a xlink:title=" ">
<path fill="none" stroke="#63b8ff" d="M453.88,-61.62C435.15,-51.94 405.67,-36.69 383.95,-25.46"/>
<polygon fill="#63b8ff" stroke="#63b8ff" points="385.83,-22.49 375.34,-21 382.62,-28.71 385.83,-22.49"/>
</a>
</g>
</g>
<!-- Node12 -->
<g id="Node000012" class="node">
<title>Node12</title>
<g id="a_Node000012"><a xlink:title=" ">
<polygon fill="#e0e0e0" stroke="#999999" points="458.88,-20 415.12,-20 415.12,0 458.88,0 458.88,-20"/>
<text text-anchor="middle" x="437" y="-6.5" font-family="Helvetica,sans-Serif" font-size="10.00">format</text>
</a>
</g>
</g>
<!-- Node11&#45;&gt;Node12 -->
<g id="edge13_Node000011_Node000012" class="edge">
<title>Node11&#45;&gt;Node12</title>
<g id="a_edge13_Node000011_Node000012"><a xlink:title=" ">
<path fill="none" stroke="#63b8ff" d="M466.53,-61.62C461.57,-53.12 454.11,-40.33 447.93,-29.74"/>
<polygon fill="#63b8ff" stroke="#63b8ff" points="451.14,-28.29 443.08,-21.42 445.09,-31.82 451.14,-28.29"/>
</a>
</g>
</g>
<!-- Node11&#45;&gt;Node13 -->
<g id="edge14_Node000011_Node000013" class="edge">
<title>Node11&#45;&gt;Node13</title>
<g id="a_edge14_Node000011_Node000013"><a xlink:title=" ">
<path fill="none" stroke="#63b8ff" d="M516.31,-61.55C526.38,-59.57 537.04,-57.6 547,-56 672.85,-35.85 823.9,-20.24 888.35,-13.98"/>
<polygon fill="#63b8ff" stroke="#63b8ff" points="888.58,-17.48 898.2,-13.04 887.91,-10.51 888.58,-17.48"/>
</a>
</g>
</g>
<!-- Node14 -->
<g id="Node000014" class="node">
<title>Node14</title>
<g id="a_Node000014"><a xlink:title=" ">
<polygon fill="#e0e0e0" stroke="#999999" points="559.38,-20 476.62,-20 476.62,0 559.38,0 559.38,-20"/>
<text text-anchor="middle" x="518" y="-6.5" font-family="Helvetica,sans-Serif" font-size="10.00">tl/expected.hpp</text>
</a>
</g>
</g>
<!-- Node11&#45;&gt;Node14 -->
<g id="edge15_Node000011_Node000014" class="edge">
<title>Node11&#45;&gt;Node14</title>
<g id="a_edge15_Node000011_Node000014"><a xlink:title=" ">
<path fill="none" stroke="#63b8ff" d="M479.19,-61.62C485.84,-52.94 495.92,-39.8 504.14,-29.08"/>
<polygon fill="#63b8ff" stroke="#63b8ff" points="506.79,-31.38 510.09,-21.31 501.23,-27.12 506.79,-31.38"/>
</a>
</g>
</g>
<!-- Node19&#45;&gt;Node2 -->
<g id="edge31_Node000019_Node000002" class="edge">
<title>Node19&#45;&gt;Node2</title>
<g id="a_edge31_Node000019_Node000002"><a xlink:title=" ">
<path fill="none" stroke="#63b8ff" d="M844.1,-315.56C795.49,-305.11 717.04,-288.24 664.28,-276.89"/>
<polygon fill="#63b8ff" stroke="#63b8ff" points="665.1,-273.48 654.58,-274.8 663.63,-280.33 665.1,-273.48"/>
</a>
</g>
</g>
<!-- Node20 -->
<g id="Node000020" class="node">
<title>Node20</title>
<g id="a_Node000020"><a xlink:title=" ">
<polygon fill="#e0e0e0" stroke="#999999" points="1001.38,-274 900.62,-274 900.62,-254 1001.38,-254 1001.38,-274"/>
<text text-anchor="middle" x="951" y="-260.5" font-family="Helvetica,sans-Serif" font-size="10.00">ByteTrack/Object.h</text>
</a>
</g>
</g>
<!-- Node19&#45;&gt;Node20 -->
<g id="edge30_Node000019_Node000020" class="edge">
<title>Node19&#45;&gt;Node20</title>
<g id="a_edge30_Node000019_Node000020"><a xlink:title=" ">
<path fill="none" stroke="#63b8ff" d="M897.84,-315.62C907.33,-306.59 921.9,-292.72 933.38,-281.78"/>
<polygon fill="#63b8ff" stroke="#63b8ff" points="935.51,-284.59 940.34,-275.16 930.68,-279.52 935.51,-284.59"/>
</a>
</g>
</g>
<!-- Node21 -->
<g id="Node000021" class="node">
<title>Node21</title>
<g id="a_Node000021"><a xlink:title=" ">
<polygon fill="#e0e0e0" stroke="#999999" points="882.75,-274 751.25,-274 751.25,-254 882.75,-254 882.75,-274"/>
<text text-anchor="middle" x="817" y="-260.5" font-family="Helvetica,sans-Serif" font-size="10.00">ByteTrack/BYTETracker.h</text>
</a>
</g>
</g>
<!-- Node19&#45;&gt;Node21 -->
<g id="edge32_Node000019_Node000021" class="edge">
<title>Node19&#45;&gt;Node21</title>
<g id="a_edge32_Node000019_Node000021"><a xlink:title=" ">
<path fill="none" stroke="#63b8ff" d="M876.91,-315.62C866.11,-306.5 849.48,-292.45 836.47,-281.46"/>
<polygon fill="#63b8ff" stroke="#63b8ff" points="838.84,-278.87 828.94,-275.09 834.32,-284.22 838.84,-278.87"/>
</a>
</g>
</g>
<!-- Node22&#45;&gt;Node8 -->
<g id="edge45_Node000022_Node000008" class="edge">
<title>Node22&#45;&gt;Node8</title>
<g id="a_edge45_Node000022_Node000008"><a xlink:title=" ">
<path fill="none" stroke="#63b8ff" d="M1331.02,-315.52C1284.47,-308.2 1230.71,-296.5 1214,-280 1188.92,-255.24 1195,-238.25 1195,-203 1195,-203 1195,-203 1195,-139 1195,-101.15 1195,-57.01 1195,-31.7"/>
<polygon fill="#63b8ff" stroke="#63b8ff" points="1198.5,-31.83 1195,-21.83 1191.5,-31.83 1198.5,-31.83"/>
</a>
</g>
</g>
<!-- Node23 -->
<g id="Node000023" class="node">
<title>Node23</title>
<g id="a_Node000023"><a xlink:href="DepthAudioSourceData_8hpp.html" target="_top" xlink:title=" ">
<polygon fill="white" stroke="#666666" points="1450.12,-156 1305.88,-156 1305.88,-124 1450.12,-124 1450.12,-156"/>
<text text-anchor="start" x="1313.88" y="-142.5" font-family="Helvetica,sans-Serif" font-size="10.00">EyeAICore/audio/DepthAudio</text>
<text text-anchor="middle" x="1378" y="-130.5" font-family="Helvetica,sans-Serif" font-size="10.00">SourceData.hpp</text>
</a>
</g>
</g>
<!-- Node22&#45;&gt;Node23 -->
<g id="edge34_Node000022_Node000023" class="edge">
<title>Node22&#45;&gt;Node23</title>
<g id="a_edge34_Node000022_Node000023"><a xlink:title=" ">
<path fill="none" stroke="#63b8ff" d="M1417.22,-315.8C1425.69,-307.43 1437.12,-294.23 1442,-280 1446.62,-266.55 1445.79,-261.71 1442,-248 1433.44,-217.02 1413.28,-185.98 1397.86,-165.37"/>
<polygon fill="#63b8ff" stroke="#63b8ff" points="1400.75,-163.39 1391.87,-157.61 1395.2,-167.67 1400.75,-163.39"/>
</a>
</g>
</g>
<!-- Node24 -->
<g id="Node000024" class="node">
<title>Node24</title>
<g id="a_Node000024"><a xlink:href="ObjectAudioSourceData_8hpp.html" target="_top" xlink:title=" ">
<polygon fill="white" stroke="#666666" points="1369.25,-280 1222.75,-280 1222.75,-248 1369.25,-248 1369.25,-280"/>
<text text-anchor="start" x="1230.75" y="-266.5" font-family="Helvetica,sans-Serif" font-size="10.00">EyeAICore/audio/ObjectAudio</text>
<text text-anchor="middle" x="1296" y="-254.5" font-family="Helvetica,sans-Serif" font-size="10.00">SourceData.hpp</text>
</a>
</g>
</g>
<!-- Node22&#45;&gt;Node24 -->
<g id="edge36_Node000022_Node000024" class="edge">
<title>Node22&#45;&gt;Node24</title>
<g id="a_edge36_Node000022_Node000024"><a xlink:title=" ">
<path fill="none" stroke="#63b8ff" d="M1389.66,-315.62C1374.94,-307.67 1353.29,-295.97 1334.52,-285.82"/>
<polygon fill="#63b8ff" stroke="#63b8ff" points="1336.23,-282.77 1325.77,-281.09 1332.91,-288.93 1336.23,-282.77"/>
</a>
</g>
</g>
<!-- Node22&#45;&gt;Node25 -->
<g id="edge37_Node000022_Node000025" class="edge">
<title>Node22&#45;&gt;Node25</title>
<g id="a_edge37_Node000022_Node000025"><a xlink:title=" ">
<path fill="none" stroke="#63b8ff" d="M1357.59,-315.56C1309.67,-306.4 1235.97,-292.32 1178.51,-281.34"/>
<polygon fill="#63b8ff" stroke="#63b8ff" points="1179.21,-277.91 1168.73,-279.47 1177.9,-284.79 1179.21,-277.91"/>
</a>
</g>
</g>
<!-- Node22&#45;&gt;Node28 -->
<g id="edge42_Node000022_Node000028" class="edge">
<title>Node22&#45;&gt;Node28</title>
<g id="a_edge42_Node000022_Node000028"><a xlink:title=" ">
<path fill="none" stroke="#63b8ff" d="M1423.41,-315.62C1440.13,-306.07 1466.32,-291.11 1485.89,-279.92"/>
<polygon fill="#63b8ff" stroke="#63b8ff" points="1487.45,-283.06 1494.39,-275.06 1483.98,-276.98 1487.45,-283.06"/>
</a>
</g>
</g>
<!-- Node22&#45;&gt;Node29 -->
<g id="edge43_Node000022_Node000029" class="edge">
<title>Node22&#45;&gt;Node29</title>
<g id="a_edge43_Node000022_Node000029"><a xlink:title=" ">
<path fill="none" stroke="#63b8ff" d="M1438.28,-315.58C1466.23,-306.96 1508.17,-293.53 1544,-280 1545.14,-279.57 1546.31,-279.12 1547.48,-278.66"/>
<polygon fill="#63b8ff" stroke="#63b8ff" points="1548.69,-281.94 1556.62,-274.92 1546.04,-275.47 1548.69,-281.94"/>
</a>
</g>
</g>
<!-- Node30 -->
<g id="Node000030" class="node">
<title>Node30</title>
<g id="a_Node000030"><a xlink:title=" ">
<polygon fill="#e0e0e0" stroke="#999999" points="1432.62,-274 1387.38,-274 1387.38,-254 1432.62,-254 1432.62,-274"/>
<text text-anchor="middle" x="1410" y="-260.5" font-family="Helvetica,sans-Serif" font-size="10.00">atomic</text>
</a>
</g>
</g>
<!-- Node22&#45;&gt;Node30 -->
<g id="edge44_Node000022_Node000030" class="edge">
<title>Node22&#45;&gt;Node30</title>
<g id="a_edge44_Node000022_Node000030"><a xlink:title=" ">
<path fill="none" stroke="#63b8ff" d="M1407.47,-315.62C1407.87,-307.56 1408.47,-295.65 1408.98,-285.41"/>
<polygon fill="#63b8ff" stroke="#63b8ff" points="1412.46,-285.79 1409.47,-275.62 1405.47,-285.44 1412.46,-285.79"/>
</a>
</g>
</g>
<!-- Node23&#45;&gt;Node8 -->
<g id="edge35_Node000023_Node000008" class="edge">
<title>Node23&#45;&gt;Node8</title>
<g id="a_edge35_Node000023_Node000008"><a xlink:title=" ">
<path fill="none" stroke="#63b8ff" d="M1355.93,-123.56C1320.82,-99.01 1252.64,-51.32 1217.36,-26.64"/>
<polygon fill="#63b8ff" stroke="#63b8ff" points="1219.77,-24.06 1209.57,-21.19 1215.76,-29.79 1219.77,-24.06"/>
</a>
</g>
</g>
<!-- Node25&#45;&gt;Node8 -->
<g id="edge41_Node000025_Node000008" class="edge">
<title>Node25&#45;&gt;Node8</title>
<g id="a_edge41_Node000025_Node000008"><a xlink:title=" ">
<path fill="none" stroke="#63b8ff" d="M1065.85,-247.59C1046.6,-234.44 1025.57,-214.17 1034,-192 1062,-118.39 1135.19,-55.62 1172.47,-27.22"/>
<polygon fill="#63b8ff" stroke="#63b8ff" points="1174.41,-30.14 1180.33,-21.35 1170.23,-24.53 1174.41,-30.14"/>
</a>
</g>
</g>
<!-- Node25&#45;&gt;Node13 -->
<g id="edge40_Node000025_Node000013" class="edge">
<title>Node25&#45;&gt;Node13</title>
<g id="a_edge40_Node000025_Node000013"><a xlink:title=" ">
<path fill="none" stroke="#63b8ff" d="M1068.18,-247.58C1054.99,-238.46 1039.23,-225.98 1028,-212 979.82,-152.03 992.58,-121.97 953,-56 947.53,-46.89 940.69,-37.32 934.66,-29.37"/>
<polygon fill="#63b8ff" stroke="#63b8ff" points="937.44,-27.24 928.54,-21.5 931.92,-31.54 937.44,-27.24"/>
</a>
</g>
</g>
<!-- Node26 -->
<g id="Node000026" class="node">
<title>Node26</title>
<g id="a_Node000026"><a xlink:title=" ">
<polygon fill="#e0e0e0" stroke="#999999" points="1167.12,-212 1118.88,-212 1118.88,-192 1167.12,-192 1167.12,-212"/>
<text text-anchor="middle" x="1143" y="-198.5" font-family="Helvetica,sans-Serif" font-size="10.00">cstddef</text>
</a>
</g>
</g>
<!-- Node25&#45;&gt;Node26 -->
<g id="edge38_Node000025_Node000026" class="edge">
<title>Node25&#45;&gt;Node26</title>
<g id="a_edge38_Node000025_Node000026"><a xlink:title=" ">
<path fill="none" stroke="#63b8ff" d="M1105.88,-247.55C1112.6,-239.48 1120.88,-229.55 1127.9,-221.12"/>
<polygon fill="#63b8ff" stroke="#63b8ff" points="1130.48,-223.49 1134.19,-213.57 1125.1,-219.01 1130.48,-223.49"/>
</a>
</g>
</g>
<!-- Node27 -->
<g id="Node000027" class="node">
<title>Node27</title>
<g id="a_Node000027"><a xlink:title=" ">
<polygon fill="#e0e0e0" stroke="#999999" points="1101,-212 1043,-212 1043,-192 1101,-192 1101,-212"/>
<text text-anchor="middle" x="1072" y="-198.5" font-family="Helvetica,sans-Serif" font-size="10.00">sndfile.hh</text>
</a>
</g>
</g>
<!-- Node25&#45;&gt;Node27 -->
<g id="edge39_Node000025_Node000027" class="edge">
<title>Node25&#45;&gt;Node27</title>
<g id="a_edge39_Node000025_Node000027"><a xlink:title=" ">
<path fill="none" stroke="#63b8ff" d="M1087.59,-247.55C1084.98,-240.08 1081.81,-231.03 1079.02,-223.04"/>
<polygon fill="#63b8ff" stroke="#63b8ff" points="1082.4,-222.12 1075.79,-213.84 1075.79,-224.43 1082.4,-222.12"/>
</a>
</g>
</g>
</g>
</svg>

<g id="navigator" transform="translate(0 0)" fill="#404254">
  <rect fill="#f2f5e9" fill-opacity="0.5" stroke="#606060" stroke-width=".5" x="0" y="0" width="60" height="60"/>
  <use id="zoomplus" xlink:href="#zoomPlus" x="17" y="9" onmousedown="handleZoom(evt,'in')"/>
  <use id="zoomminus" xlink:href="#zoomMin" x="42" y="9" onmousedown="handleZoom(evt,'out')"/>
  <use id="reset" xlink:href="#resetDef" x="30" y="36" onmousedown="handleReset()"/>
   <use id="arrowup" xlink:href="#arrowUp" x="0" y="0" onmousedown="handlePan(0,-1)"/>
  <use id="arrowright" xlink:href="#arrowRight" x="0" y="0" onmousedown="handlePan(1,0)"/>
  <use id="arrowdown" xlink:href="#arrowDown" x="0" y="0" onmousedown="handlePan(0,1)"/>
  <use id="arrowleft" xlink:href="#arrowLeft" x="0" y="0" onmousedown="handlePan(-1,0)"/>
</g>
<svg viewBox="0 0 15 15" width="100%" height="30px" preserveAspectRatio="xMaxYMin meet">
 <g id="arrow_out" transform="scale(0.3 0.3)">
  <a xlink:href="SpatialAudio_8hpp__incl_org.svg" target="_base">
   <rect id="button" ry="5" rx="5" y="6" x="6" height="38" width="38"
        fill="#f2f5e9" fill-opacity="0.5" stroke="#606060" stroke-width="1.0"/>
   <path id="arrow"
     d="M 11.500037,31.436501 C 11.940474,20.09759 22.043105,11.32322 32.158766,21.979434 L 37.068811,17.246167 C 37.068811,17.246167 37.088388,32 37.088388,32 L 22.160133,31.978069 C 22.160133,31.978069 26.997745,27.140456 26.997745,27.140456 C 18.528582,18.264221 13.291696,25.230495 11.500037,31.436501 z"
     style="fill:#404040;"/>
  </a>
 </g>
</svg>

<style type='text/css'>
<![CDATA[
[data-mouse-over-selected='false'] { opacity: 0.7; }
[data-mouse-over-selected='true']  { opacity: 1.0; }
]]>
</style>
<script type="application/ecmascript"><![CDATA[
document.addEventListener('DOMContentLoaded', (event) => {
  highlightEdges();
  highlightAdjacentNodes();
});
]]></script>
</svg>
