<?xml version="1.0" encoding="UTF-8" standalone="no"?>
<!DOCTYPE svg PUBLIC "-//W3C//DTD SVG 1.1//EN"
 "http://www.w3.org/Graphics/SVG/1.1/DTD/svg11.dtd">
<!-- Generated by graphviz version 12.2.1 (20241206.2353)
 -->
<!-- Title: include/EyeAICore/audio/SpatialAudioSettings.hpp Pages: 1 -->
<svg width="268pt" height="98pt"
 viewBox="0.00 0.00 268.38 98.25" xmlns="http://www.w3.org/2000/svg" xmlns:xlink="http://www.w3.org/1999/xlink">
<g id="graph0" class="graph" transform="scale(1 1) rotate(0) translate(4 94.25)">
<title>include/EyeAICore/audio/SpatialAudioSettings.hpp</title>
<!-- Node1 -->
<g id="Node000001" class="node">
<title>Node1</title>
<g id="a_Node000001"><a xlink:title=" ">
<polygon fill="#999999" stroke="#666666" points="208.62,-90.25 67.38,-90.25 67.38,-56.75 208.62,-56.75 208.62,-90.25"/>
<text text-anchor="start" x="75.38" y="-76.75" font-family="Helvetica,sans-Serif" font-size="10.00">include/EyeAICore/audio</text>
<text text-anchor="middle" x="138" y="-64" font-family="Helvetica,sans-Serif" font-size="10.00">/SpatialAudioSettings.hpp</text>
</a>
</g>
</g>
<!-- Node2 -->
<g id="Node000002" class="node">
<title>Node2</title>
<g id="a_Node000002"><a xlink:title=" ">
<polygon fill="#e0e0e0" stroke="#999999" points="52,-20.75 0,-20.75 0,0 52,0 52,-20.75"/>
<text text-anchor="middle" x="26" y="-7.25" font-family="Helvetica,sans-Serif" font-size="10.00">cstddef</text>
</a>
</g>
</g>
<!-- Node1&#45;&gt;Node2 -->
<g id="edge1_Node000001_Node000002" class="edge">
<title>Node1&#45;&gt;Node2</title>
<g id="a_edge1_Node000001_Node000002"><a xlink:title=" ">
<path fill="none" stroke="#63b8ff" d="M108.28,-56.28C91.32,-47.02 70.2,-35.5 53.61,-26.44"/>
<polygon fill="#63b8ff" stroke="#63b8ff" points="55.72,-23.61 45.27,-21.89 52.37,-29.75 55.72,-23.61"/>
</a>
</g>
</g>
<!-- Node3 -->
<g id="Node000003" class="node">
<title>Node3</title>
<g id="a_Node000003"><a xlink:title=" ">
<polygon fill="#e0e0e0" stroke="#999999" points="133.62,-20.75 70.38,-20.75 70.38,0 133.62,0 133.62,-20.75"/>
<text text-anchor="middle" x="102" y="-7.25" font-family="Helvetica,sans-Serif" font-size="10.00">sndfile.hh</text>
</a>
</g>
</g>
<!-- Node1&#45;&gt;Node3 -->
<g id="edge2_Node000001_Node000003" class="edge">
<title>Node1&#45;&gt;Node3</title>
<g id="a_edge2_Node000001_Node000003"><a xlink:title=" ">
<path fill="none" stroke="#63b8ff" d="M128.54,-56.44C123.96,-48.67 118.43,-39.27 113.6,-31.07"/>
<polygon fill="#63b8ff" stroke="#63b8ff" points="116.66,-29.36 108.56,-22.52 110.62,-32.91 116.66,-29.36"/>
</a>
</g>
</g>
<!-- Node4 -->
<g id="Node000004" class="node">
<title>Node4</title>
<g id="a_Node000004"><a xlink:title=" ">
<polygon fill="#e0e0e0" stroke="#999999" points="195.88,-20.75 152.12,-20.75 152.12,0 195.88,0 195.88,-20.75"/>
<text text-anchor="middle" x="174" y="-7.25" font-family="Helvetica,sans-Serif" font-size="10.00">string</text>
</a>
</g>
</g>
<!-- Node1&#45;&gt;Node4 -->
<g id="edge3_Node000001_Node000004" class="edge">
<title>Node1&#45;&gt;Node4</title>
<g id="a_edge3_Node000001_Node000004"><a xlink:title=" ">
<path fill="none" stroke="#63b8ff" d="M147.46,-56.44C152.04,-48.67 157.57,-39.27 162.4,-31.07"/>
<polygon fill="#63b8ff" stroke="#63b8ff" points="165.38,-32.91 167.44,-22.52 159.34,-29.36 165.38,-32.91"/>
</a>
</g>
</g>
<!-- Node5 -->
<g id="Node000005" class="node">
<title>Node5</title>
<g id="a_Node000005"><a xlink:title=" ">
<polygon fill="#e0e0e0" stroke="#999999" points="260.38,-20.75 213.62,-20.75 213.62,0 260.38,0 260.38,-20.75"/>
<text text-anchor="middle" x="237" y="-7.25" font-family="Helvetica,sans-Serif" font-size="10.00">vector</text>
</a>
</g>
</g>
<!-- Node1&#45;&gt;Node5 -->
<g id="edge4_Node000001_Node000005" class="edge">
<title>Node1&#45;&gt;Node5</title>
<g id="a_edge4_Node000001_Node000005"><a xlink:title=" ">
<path fill="none" stroke="#63b8ff" d="M164.27,-56.28C178.98,-47.2 197.22,-35.93 211.76,-26.96"/>
<polygon fill="#63b8ff" stroke="#63b8ff" points="213.19,-30.19 219.86,-21.96 209.51,-24.24 213.19,-30.19"/>
</a>
</g>
</g>
</g>
</svg>
