<?xml version="1.0" encoding="UTF-8" standalone="no"?>
<!DOCTYPE svg PUBLIC "-//W3C//DTD SVG 1.1//EN"
 "http://www.w3.org/Graphics/SVG/1.1/DTD/svg11.dtd">
<!-- Generated by graphviz version 12.2.1 (20241206.2353)
 -->
<!-- Title: include/EyeAICore/audio/SpatialAudio.hpp Pages: 1 -->
<!--zoomable 395 -->

<svg id="main" version="1.1" xmlns="http://www.w3.org/2000/svg" xmlns:xlink="http://www.w3.org/1999/xlink" xml:space="preserve" onload="init(evt)">

<style type="text/css"><![CDATA[
.node, .edge {opacity: 0.7;}
.node.selected, .edge.selected {opacity: 1;}
.edge:hover path { stroke: red; }
.edge:hover polygon { stroke: red; fill: red; }
]]></style>

<defs>
  <circle id="rim" cx="0" cy="0" r="7"/>
  <circle id="rim2" cx="0" cy="0" r="3.5"/>
  <g id="zoomPlus">
    <use xlink:href="#rim" fill="#404040"><set attributeName="fill" to="#808080" begin="zoomplus.mouseover" end="zoomplus.mouseout"/></use>
    <path d="M-4,0h8M0,-4v8" fill="none" stroke="white" stroke-width="1.5" pointer-events="none"/>
  </g>
  <g id="zoomMin">
    <use xlink:href="#rim" fill="#404040"><set attributeName="fill" to="#808080" begin="zoomminus.mouseover" end="zoomminus.mouseout"/></use>
    <path d="M-4,0h8" fill="none" stroke="white" stroke-width="1.5" pointer-events="none"/>
  </g>
  <g id="arrowUp" transform="translate(30 24)">
    <use xlink:href="#rim"/>
    <path pointer-events="none" fill="none" stroke="white" stroke-width="1.5" d="M0,-3.0v7 M-2.5,-0.5L0,-3.0L2.5,-0.5"/>
  </g>
  <g id="arrowRight" transform="rotate(90) translate(36 -43)">
    <use xlink:href="#rim"/>
    <path pointer-events="none" fill="none" stroke="white" stroke-width="1.5" d="M0,-3.0v7 M-2.5,-0.5L0,-3.0L2.5,-0.5"/>
  </g>
  <g id="arrowDown" transform="rotate(180) translate(-30 -48)">
    <use xlink:href="#rim"/>
    <path pointer-events="none" fill="none" stroke="white" stroke-width="1.5" d="M0,-3.0v7 M-2.5,-0.5L0,-3.0L2.5,-0.5"/>
  </g>
  <g id="arrowLeft" transform="rotate(270) translate(-36 17)">
    <use xlink:href="#rim"/>
    <path pointer-events="none" fill="none" stroke="white" stroke-width="1.5" d="M0,-3.0v7 M-2.5,-0.5L0,-3.0L2.5,-0.5"/>
  </g>
  <g id="resetDef">
    <use xlink:href="#rim2" fill="#404040"><set attributeName="fill" to="#808080" begin="reset.mouseover" end="reset.mouseout"/></use>
  </g>
</defs>
<script type="application/ecmascript">
var viewWidth = 1975;
var viewHeight = 395;
var sectionId = 'dynsection-0';
</script>
<script type="application/ecmascript" xlink:href="svg.min.js"/>
<svg id="graph" class="graph">
<g id="viewport">
<title>include/EyeAICore/audio/SpatialAudio.hpp</title>
<!-- Node1 -->
<g id="Node000001" class="node">
<title>Node1</title>
<g id="a_Node000001"><a xlink:title=" ">
<polygon fill="#999999" stroke="#666666" points="1712.25,-386.75 1577.75,-386.75 1577.75,-353.25 1712.25,-353.25 1712.25,-386.75"/>
<text text-anchor="start" x="1585.75" y="-373.25" font-family="Helvetica,sans-Serif" font-size="10.00">include/EyeAICore/audio</text>
<text text-anchor="middle" x="1645" y="-360.5" font-family="Helvetica,sans-Serif" font-size="10.00">/SpatialAudio.hpp</text>
</a>
</g>
</g>
<!-- Node2 -->
<g id="Node000002" class="node">
<title>Node2</title>
<g id="a_Node000002"><a xlink:href="ObjectTracker_8hpp.html" target="_top" xlink:title=" ">
<polygon fill="white" stroke="#666666" points="732.75,-317.25 577.25,-317.25 577.25,-296.5 732.75,-296.5 732.75,-317.25"/>
<text text-anchor="middle" x="655" y="-303.75" font-family="Helvetica,sans-Serif" font-size="10.00">EyeAICore/ObjectTracker.hpp</text>
</a>
</g>
</g>
<!-- Node1&#45;&gt;Node2 -->
<g id="edge1_Node000001_Node000002" class="edge">
<title>Node1&#45;&gt;Node2</title>
<g id="a_edge1_Node000001_Node000002"><a xlink:title=" ">
<path fill="none" stroke="#63b8ff" d="M1577.34,-364.82C1403.35,-354.08 940.29,-325.49 744.45,-313.4"/>
<polygon fill="#63b8ff" stroke="#63b8ff" points="744.78,-309.91 734.58,-312.79 744.35,-316.9 744.78,-309.91"/>
</a>
</g>
</g>
<!-- Node8 -->
<g id="Node000008" class="node">
<title>Node8</title>
<g id="a_Node000008"><a xlink:title=" ">
<polygon fill="#e0e0e0" stroke="#999999" points="76.62,-20.75 37.38,-20.75 37.38,0 76.62,0 76.62,-20.75"/>
<text text-anchor="middle" x="57" y="-7.25" font-family="Helvetica,sans-Serif" font-size="10.00">span</text>
</a>
</g>
</g>
<!-- Node1&#45;&gt;Node8 -->
<g id="edge53_Node000001_Node000008" class="edge">
<title>Node1&#45;&gt;Node8</title>
<g id="a_edge53_Node000001_Node000008"><a xlink:title=" ">
<path fill="none" stroke="#63b8ff" d="M1577.45,-367.76C1267.9,-361.62 0,-331.56 0,-251.12 0,-251.12 0,-251.12 0,-135.62 0,-95.11 25.35,-53.37 42.24,-30.06"/>
<polygon fill="#63b8ff" stroke="#63b8ff" points="44.94,-32.29 48.16,-22.19 39.35,-28.08 44.94,-32.29"/>
</a>
</g>
</g>
<!-- Node10 -->
<g id="Node000010" class="node">
<title>Node10</title>
<g id="a_Node000010"><a xlink:title=" ">
<polygon fill="#e0e0e0" stroke="#999999" points="1339.38,-20.75 1292.62,-20.75 1292.62,0 1339.38,0 1339.38,-20.75"/>
<text text-anchor="middle" x="1316" y="-7.25" font-family="Helvetica,sans-Serif" font-size="10.00">vector</text>
</a>
</g>
</g>
<!-- Node1&#45;&gt;Node10 -->
<g id="edge57_Node000001_Node000010" class="edge">
<title>Node1&#45;&gt;Node10</title>
<g id="a_edge57_Node000001_Node000010"><a xlink:title=" ">
<path fill="none" stroke="#63b8ff" d="M1577.51,-364.7C1455.33,-355.06 1210,-326.34 1210,-251.12 1210,-251.12 1210,-251.12 1210,-135.62 1210,-99.57 1206.8,-85.16 1229,-56.75 1242.2,-39.85 1263.45,-28.6 1281.65,-21.53"/>
<polygon fill="#63b8ff" stroke="#63b8ff" points="1282.82,-24.83 1291.06,-18.16 1280.46,-18.24 1282.82,-24.83"/>
</a>
</g>
</g>
<!-- Node15 -->
<g id="Node000015" class="node">
<title>Node15</title>
<g id="a_Node000015"><a xlink:title=" ">
<polygon fill="#e0e0e0" stroke="#999999" points="1017.88,-20.75 974.12,-20.75 974.12,0 1017.88,0 1017.88,-20.75"/>
<text text-anchor="middle" x="996" y="-7.25" font-family="Helvetica,sans-Serif" font-size="10.00">string</text>
</a>
</g>
</g>
<!-- Node1&#45;&gt;Node15 -->
<g id="edge54_Node000001_Node000015" class="edge">
<title>Node1&#45;&gt;Node15</title>
<g id="a_edge54_Node000001_Node000015"><a xlink:title=" ">
<path fill="none" stroke="#63b8ff" d="M1577.38,-363.77C1411.16,-350 996,-309.74 996,-251.12 996,-251.12 996,-251.12 996,-135.62 996,-99.42 996,-57.28 996,-32.55"/>
<polygon fill="#63b8ff" stroke="#63b8ff" points="999.5,-32.55 996,-22.55 992.5,-32.55 999.5,-32.55"/>
</a>
</g>
</g>
<!-- Node23 -->
<g id="Node000023" class="node">
<title>Node23</title>
<g id="a_Node000023"><a xlink:href="AudioMain_8hpp.html" target="_top" xlink:title=" ">
<polygon fill="white" stroke="#666666" points="1617,-147 1445,-147 1445,-126.25 1617,-126.25 1617,-147"/>
<text text-anchor="middle" x="1531" y="-133.5" font-family="Helvetica,sans-Serif" font-size="10.00">EyeAICore/audio/AudioMain.hpp</text>
</a>
</g>
</g>
<!-- Node1&#45;&gt;Node23 -->
<g id="edge33_Node000001_Node000023" class="edge">
<title>Node1&#45;&gt;Node23</title>
<g id="a_edge33_Node000001_Node000023"><a xlink:title=" ">
<path fill="none" stroke="#63b8ff" d="M1637.16,-353.1C1616.9,-311.96 1562.78,-202.12 1540.64,-157.19"/>
<polygon fill="#63b8ff" stroke="#63b8ff" points="1543.86,-155.81 1536.3,-148.38 1537.58,-158.9 1543.86,-155.81"/>
</a>
</g>
</g>
<!-- Node26 -->
<g id="Node000026" class="node">
<title>Node26</title>
<g id="a_Node000026"><a xlink:href="SpatialAudioSettings_8hpp.html" target="_top" xlink:title=" ">
<polygon fill="white" stroke="#666666" points="1949.38,-90.25 1788.62,-90.25 1788.62,-56.75 1949.38,-56.75 1949.38,-90.25"/>
<text text-anchor="start" x="1796.62" y="-76.75" font-family="Helvetica,sans-Serif" font-size="10.00">EyeAICore/audio/SpatialAudio</text>
<text text-anchor="middle" x="1869" y="-64" font-family="Helvetica,sans-Serif" font-size="10.00">Settings.hpp</text>
</a>
</g>
</g>
<!-- Node1&#45;&gt;Node26 -->
<g id="edge49_Node000001_Node000026" class="edge">
<title>Node1&#45;&gt;Node26</title>
<g id="a_edge49_Node000001_Node000026"><a xlink:title=" ">
<path fill="none" stroke="#63b8ff" d="M1664.18,-352.78C1686.69,-331.82 1721,-293.01 1721,-251.12 1721,-251.12 1721,-251.12 1721,-192.38 1721,-144.93 1768.11,-113.5 1809.17,-95.12"/>
<polygon fill="#63b8ff" stroke="#63b8ff" points="1810.5,-98.35 1818.33,-91.21 1807.76,-91.92 1810.5,-98.35"/>
</a>
</g>
</g>
<!-- Node29 -->
<g id="Node000029" class="node">
<title>Node29</title>
<g id="a_Node000029"><a xlink:title=" ">
<polygon fill="#e0e0e0" stroke="#999999" points="1697.5,-83.88 1648.5,-83.88 1648.5,-63.12 1697.5,-63.12 1697.5,-83.88"/>
<text text-anchor="middle" x="1673" y="-70.38" font-family="Helvetica,sans-Serif" font-size="10.00">AL/al.h</text>
</a>
</g>
</g>
<!-- Node1&#45;&gt;Node29 -->
<g id="edge50_Node000001_Node000029" class="edge">
<title>Node1&#45;&gt;Node29</title>
<g id="a_edge50_Node000001_Node000029"><a xlink:title=" ">
<path fill="none" stroke="#63b8ff" d="M1645,-352.98C1645,-330.31 1645,-287.55 1645,-251.12 1645,-251.12 1645,-251.12 1645,-192.38 1645,-157.27 1656.9,-117.83 1665.19,-94.64"/>
<polygon fill="#63b8ff" stroke="#63b8ff" points="1668.37,-96.11 1668.58,-85.51 1661.81,-93.67 1668.37,-96.11"/>
</a>
</g>
</g>
<!-- Node30 -->
<g id="Node000030" class="node">
<title>Node30</title>
<g id="a_Node000030"><a xlink:title=" ">
<polygon fill="#e0e0e0" stroke="#999999" points="1770.12,-83.88 1715.88,-83.88 1715.88,-63.12 1770.12,-63.12 1770.12,-83.88"/>
<text text-anchor="middle" x="1743" y="-70.38" font-family="Helvetica,sans-Serif" font-size="10.00">AL/alc.h</text>
</a>
</g>
</g>
<!-- Node1&#45;&gt;Node30 -->
<g id="edge51_Node000001_Node000030" class="edge">
<title>Node1&#45;&gt;Node30</title>
<g id="a_edge51_Node000001_Node000030"><a xlink:title=" ">
<path fill="none" stroke="#63b8ff" d="M1653.62,-353.13C1664.83,-330.96 1683,-289.18 1683,-251.12 1683,-251.12 1683,-251.12 1683,-192.38 1683,-153.77 1708.88,-115.03 1726.64,-92.99"/>
<polygon fill="#63b8ff" stroke="#63b8ff" points="1729.17,-95.42 1732.91,-85.51 1723.81,-90.92 1729.17,-95.42"/>
</a>
</g>
</g>
<!-- Node34 -->
<g id="Node000034" class="node">
<title>Node34</title>
<g id="a_Node000034"><a xlink:title=" ">
<polygon fill="#e0e0e0" stroke="#999999" points="1790.75,-317.25 1749.25,-317.25 1749.25,-296.5 1790.75,-296.5 1790.75,-317.25"/>
<text text-anchor="middle" x="1770" y="-303.75" font-family="Helvetica,sans-Serif" font-size="10.00">array</text>
</a>
</g>
</g>
<!-- Node1&#45;&gt;Node34 -->
<g id="edge52_Node000001_Node000034" class="edge">
<title>Node1&#45;&gt;Node34</title>
<g id="a_edge52_Node000001_Node000034"><a xlink:title=" ">
<path fill="none" stroke="#63b8ff" d="M1678.17,-352.78C1697.28,-343.44 1721.11,-331.78 1739.71,-322.69"/>
<polygon fill="#63b8ff" stroke="#63b8ff" points="1741.17,-325.87 1748.62,-318.33 1738.1,-319.58 1741.17,-325.87"/>
</a>
</g>
</g>
<!-- Node35 -->
<g id="Node000035" class="node">
<title>Node35</title>
<g id="a_Node000035"><a xlink:title=" ">
<polygon fill="#e0e0e0" stroke="#999999" points="1856.75,-317.25 1809.25,-317.25 1809.25,-296.5 1856.75,-296.5 1856.75,-317.25"/>
<text text-anchor="middle" x="1833" y="-303.75" font-family="Helvetica,sans-Serif" font-size="10.00">thread</text>
</a>
</g>
</g>
<!-- Node1&#45;&gt;Node35 -->
<g id="edge55_Node000001_Node000035" class="edge">
<title>Node1&#45;&gt;Node35</title>
<g id="a_edge55_Node000001_Node000035"><a xlink:title=" ">
<path fill="none" stroke="#63b8ff" d="M1694.89,-352.78C1727.44,-342.2 1769.13,-328.64 1798.15,-319.21"/>
<polygon fill="#63b8ff" stroke="#63b8ff" points="1799.11,-322.57 1807.54,-316.15 1796.95,-315.92 1799.11,-322.57"/>
</a>
</g>
</g>
<!-- Node36 -->
<g id="Node000036" class="node">
<title>Node36</title>
<g id="a_Node000036"><a xlink:title=" ">
<polygon fill="#e0e0e0" stroke="#999999" points="1967.25,-317.25 1874.75,-317.25 1874.75,-296.5 1967.25,-296.5 1967.25,-317.25"/>
<text text-anchor="middle" x="1921" y="-303.75" font-family="Helvetica,sans-Serif" font-size="10.00">unordered_map</text>
</a>
</g>
</g>
<!-- Node1&#45;&gt;Node36 -->
<g id="edge56_Node000001_Node000036" class="edge">
<title>Node1&#45;&gt;Node36</title>
<g id="a_edge56_Node000001_Node000036"><a xlink:title=" ">
<path fill="none" stroke="#63b8ff" d="M1712.52,-354.05C1759.5,-343.64 1821.37,-329.94 1865.48,-320.17"/>
<polygon fill="#63b8ff" stroke="#63b8ff" points="1866.09,-323.62 1875.1,-318.04 1864.58,-316.79 1866.09,-323.62"/>
</a>
</g>
</g>
<!-- Node3 -->
<g id="Node000003" class="node">
<title>Node3</title>
<g id="a_Node000003"><a xlink:title=" ">
<polygon fill="#e0e0e0" stroke="#999999" points="804.75,-260.5 697.25,-260.5 697.25,-239.75 804.75,-239.75 804.75,-260.5"/>
<text text-anchor="middle" x="751" y="-247" font-family="Helvetica,sans-Serif" font-size="10.00">ByteTrack/Object.h</text>
</a>
</g>
</g>
<!-- Node2&#45;&gt;Node3 -->
<g id="edge2_Node000002_Node000003" class="edge">
<title>Node2&#45;&gt;Node3</title>
<g id="a_edge2_Node000002_Node000003"><a xlink:title=" ">
<path fill="none" stroke="#63b8ff" d="M672.16,-296.09C686.63,-287.83 707.59,-275.88 724.26,-266.38"/>
<polygon fill="#63b8ff" stroke="#63b8ff" points="725.72,-269.57 732.67,-261.58 722.25,-263.49 725.72,-269.57"/>
</a>
</g>
</g>
<!-- Node4 -->
<g id="Node000004" class="node">
<title>Node4</title>
<g id="a_Node000004"><a xlink:href="YoloModel_8hpp.html" target="_top" xlink:title=" ">
<polygon fill="white" stroke="#666666" points="612.88,-260.5 473.12,-260.5 473.12,-239.75 612.88,-239.75 612.88,-260.5"/>
<text text-anchor="middle" x="543" y="-247" font-family="Helvetica,sans-Serif" font-size="10.00">EyeAICore/YoloModel.hpp</text>
</a>
</g>
</g>
<!-- Node2&#45;&gt;Node4 -->
<g id="edge3_Node000002_Node000004" class="edge">
<title>Node2&#45;&gt;Node4</title>
<g id="a_edge3_Node000002_Node000004"><a xlink:title=" ">
<path fill="none" stroke="#63b8ff" d="M634.98,-296.09C617.78,-287.68 592.72,-275.43 573.1,-265.84"/>
<polygon fill="#63b8ff" stroke="#63b8ff" points="574.73,-262.74 564.21,-261.49 571.66,-269.03 574.73,-262.74"/>
</a>
</g>
</g>
<!-- Node21 -->
<g id="Node000021" class="node">
<title>Node21</title>
<g id="a_Node000021"><a xlink:title=" ">
<polygon fill="#e0e0e0" stroke="#999999" points="454.88,-260.5 321.12,-260.5 321.12,-239.75 454.88,-239.75 454.88,-260.5"/>
<text text-anchor="middle" x="388" y="-247" font-family="Helvetica,sans-Serif" font-size="10.00">ByteTrack/BYTETracker.h</text>
</a>
</g>
</g>
<!-- Node2&#45;&gt;Node21 -->
<g id="edge31_Node000002_Node000021" class="edge">
<title>Node2&#45;&gt;Node21</title>
<g id="a_edge31_Node000002_Node000021"><a xlink:title=" ">
<path fill="none" stroke="#63b8ff" d="M606.96,-296.02C562.2,-286.85 495.34,-273.14 447.28,-263.28"/>
<polygon fill="#63b8ff" stroke="#63b8ff" points="448.09,-259.87 437.59,-261.29 446.68,-266.73 448.09,-259.87"/>
</a>
</g>
</g>
<!-- Node22 -->
<g id="Node000022" class="node">
<title>Node22</title>
<g id="a_Node000022"><a xlink:title=" ">
<polygon fill="#e0e0e0" stroke="#999999" points="679.5,-260.5 630.5,-260.5 630.5,-239.75 679.5,-239.75 679.5,-260.5"/>
<text text-anchor="middle" x="655" y="-247" font-family="Helvetica,sans-Serif" font-size="10.00">chrono</text>
</a>
</g>
</g>
<!-- Node2&#45;&gt;Node22 -->
<g id="edge32_Node000002_Node000022" class="edge">
<title>Node2&#45;&gt;Node22</title>
<g id="a_edge32_Node000002_Node000022"><a xlink:title=" ">
<path fill="none" stroke="#63b8ff" d="M655,-296.09C655,-289.47 655,-280.47 655,-272.27"/>
<polygon fill="#63b8ff" stroke="#63b8ff" points="658.5,-272.34 655,-262.34 651.5,-272.34 658.5,-272.34"/>
</a>
</g>
</g>
<!-- Node5 -->
<g id="Node000005" class="node">
<title>Node5</title>
<g id="a_Node000005"><a xlink:href="TensorBuffer_8hpp.html" target="_top" xlink:title=" ">
<polygon fill="white" stroke="#666666" points="254.12,-83.88 103.88,-83.88 103.88,-63.12 254.12,-63.12 254.12,-83.88"/>
<text text-anchor="middle" x="179" y="-70.38" font-family="Helvetica,sans-Serif" font-size="10.00">EyeAICore/TensorBuffer.hpp</text>
</a>
</g>
</g>
<!-- Node4&#45;&gt;Node5 -->
<g id="edge4_Node000004_Node000005" class="edge">
<title>Node4&#45;&gt;Node5</title>
<g id="a_edge4_Node000004_Node000005"><a xlink:title=" ">
<path fill="none" stroke="#63b8ff" d="M475.32,-239.3C408.33,-226.9 305.44,-200.37 232,-147 212.94,-133.15 197.91,-110.39 188.8,-94.06"/>
<polygon fill="#63b8ff" stroke="#63b8ff" points="191.94,-92.51 184.17,-85.31 185.75,-95.79 191.94,-92.51"/>
</a>
</g>
</g>
<!-- Node11 -->
<g id="Node000011" class="node">
<title>Node11</title>
<g id="a_Node000011"><a xlink:href="TfLiteRuntime_8hpp.html" target="_top" xlink:title=" ">
<polygon fill="white" stroke="#666666" points="635.38,-203.75 450.62,-203.75 450.62,-183 635.38,-183 635.38,-203.75"/>
<text text-anchor="middle" x="543" y="-190.25" font-family="Helvetica,sans-Serif" font-size="10.00">EyeAICore/tflite/TfLiteRuntime.hpp</text>
</a>
</g>
</g>
<!-- Node4&#45;&gt;Node11 -->
<g id="edge10_Node000004_Node000011" class="edge">
<title>Node4&#45;&gt;Node11</title>
<g id="a_edge10_Node000004_Node000011"><a xlink:title=" ">
<path fill="none" stroke="#63b8ff" d="M543,-239.34C543,-232.72 543,-223.72 543,-215.52"/>
<polygon fill="#63b8ff" stroke="#63b8ff" points="546.5,-215.59 543,-205.59 539.5,-215.59 546.5,-215.59"/>
</a>
</g>
</g>
<!-- Node6 -->
<g id="Node000006" class="node">
<title>Node6</title>
<g id="a_Node000006"><a xlink:title=" ">
<polygon fill="#e0e0e0" stroke="#999999" points="203.5,-20.75 154.5,-20.75 154.5,0 203.5,0 203.5,-20.75"/>
<text text-anchor="middle" x="179" y="-7.25" font-family="Helvetica,sans-Serif" font-size="10.00">cstdint</text>
</a>
</g>
</g>
<!-- Node5&#45;&gt;Node6 -->
<g id="edge5_Node000005_Node000006" class="edge">
<title>Node5&#45;&gt;Node6</title>
<g id="a_edge5_Node000005_Node000006"><a xlink:title=" ">
<path fill="none" stroke="#63b8ff" d="M179,-62.68C179,-54.52 179,-42.63 179,-32.35"/>
<polygon fill="#63b8ff" stroke="#63b8ff" points="182.5,-32.48 179,-22.48 175.5,-32.48 182.5,-32.48"/>
</a>
</g>
</g>
<!-- Node7 -->
<g id="Node000007" class="node">
<title>Node7</title>
<g id="a_Node000007"><a xlink:title=" ">
<polygon fill="#e0e0e0" stroke="#999999" points="310.62,-20.75 253.38,-20.75 253.38,0 310.62,0 310.62,-20.75"/>
<text text-anchor="middle" x="282" y="-7.25" font-family="Helvetica,sans-Serif" font-size="10.00">memory</text>
</a>
</g>
</g>
<!-- Node5&#45;&gt;Node7 -->
<g id="edge6_Node000005_Node000007" class="edge">
<title>Node5&#45;&gt;Node7</title>
<g id="a_edge6_Node000005_Node000007"><a xlink:title=" ">
<path fill="none" stroke="#63b8ff" d="M195.55,-62.68C211.77,-53.05 236.74,-38.23 255.68,-26.99"/>
<polygon fill="#63b8ff" stroke="#63b8ff" points="257.38,-30.06 264.19,-21.94 253.8,-24.04 257.38,-30.06"/>
</a>
</g>
</g>
<!-- Node5&#45;&gt;Node8 -->
<g id="edge7_Node000005_Node000008" class="edge">
<title>Node5&#45;&gt;Node8</title>
<g id="a_edge7_Node000005_Node000008"><a xlink:title=" ">
<path fill="none" stroke="#63b8ff" d="M159.4,-62.68C139.74,-52.83 109.23,-37.55 86.63,-26.22"/>
<polygon fill="#63b8ff" stroke="#63b8ff" points="88.41,-23.2 77.91,-21.85 85.28,-29.46 88.41,-23.2"/>
</a>
</g>
</g>
<!-- Node9 -->
<g id="Node000009" class="node">
<title>Node9</title>
<g id="a_Node000009"><a xlink:title=" ">
<polygon fill="#e0e0e0" stroke="#999999" points="397.25,-20.75 346.75,-20.75 346.75,0 397.25,0 397.25,-20.75"/>
<text text-anchor="middle" x="372" y="-7.25" font-family="Helvetica,sans-Serif" font-size="10.00">variant</text>
</a>
</g>
</g>
<!-- Node5&#45;&gt;Node9 -->
<g id="edge8_Node000005_Node000009" class="edge">
<title>Node5&#45;&gt;Node9</title>
<g id="a_edge8_Node000005_Node000009"><a xlink:title=" ">
<path fill="none" stroke="#63b8ff" d="M210.01,-62.68C244.29,-51.82 299.45,-34.35 335.71,-22.87"/>
<polygon fill="#63b8ff" stroke="#63b8ff" points="336.4,-26.32 344.87,-19.97 334.28,-19.65 336.4,-26.32"/>
</a>
</g>
</g>
<!-- Node5&#45;&gt;Node10 -->
<g id="edge9_Node000005_Node000010" class="edge">
<title>Node5&#45;&gt;Node10</title>
<g id="a_edge9_Node000005_Node000010"><a xlink:title=" ">
<path fill="none" stroke="#63b8ff" d="M254.62,-64.25C281.27,-61.55 311.44,-58.75 339,-56.75 706.92,-30.12 1153.97,-16.01 1280.9,-12.35"/>
<polygon fill="#63b8ff" stroke="#63b8ff" points="1280.76,-15.85 1290.66,-12.07 1280.56,-8.86 1280.76,-15.85"/>
</a>
</g>
</g>
<!-- Node11&#45;&gt;Node5 -->
<g id="edge11_Node000011_Node000005" class="edge">
<title>Node11&#45;&gt;Node5</title>
<g id="a_edge11_Node000011_Node000005"><a xlink:title=" ">
<path fill="none" stroke="#63b8ff" d="M450.4,-189.01C395.37,-184.15 325.35,-172.85 268,-147 239.07,-133.96 211.69,-109.09 195.13,-92.15"/>
<polygon fill="#63b8ff" stroke="#63b8ff" points="197.97,-90.06 188.55,-85.22 192.9,-94.88 197.97,-90.06"/>
</a>
</g>
</g>
<!-- Node11&#45;&gt;Node7 -->
<g id="edge27_Node000011_Node000007" class="edge">
<title>Node11&#45;&gt;Node7</title>
<g id="a_edge27_Node000011_Node000007"><a xlink:title=" ">
<path fill="none" stroke="#63b8ff" d="M485.4,-182.51C431.01,-170.21 350.98,-143.87 304,-90.25 289.97,-74.24 284.83,-49.97 282.97,-32.58"/>
<polygon fill="#63b8ff" stroke="#63b8ff" points="286.46,-32.34 282.23,-22.63 279.48,-32.86 286.46,-32.34"/>
</a>
</g>
</g>
<!-- Node11&#45;&gt;Node8 -->
<g id="edge28_Node000011_Node000008" class="edge">
<title>Node11&#45;&gt;Node8</title>
<g id="a_edge28_Node000011_Node000008"><a xlink:title=" ">
<path fill="none" stroke="#63b8ff" d="M450.3,-186.07C325.4,-175.41 113.25,-148.98 66,-90.25 53,-74.09 52.17,-49.68 53.7,-32.29"/>
<polygon fill="#63b8ff" stroke="#63b8ff" points="57.14,-32.96 54.9,-22.6 50.2,-32.1 57.14,-32.96"/>
</a>
</g>
</g>
<!-- Node12 -->
<g id="Node000012" class="node">
<title>Node12</title>
<g id="a_Node000012"><a xlink:href="TfLiteUtils_8hpp.html" target="_top" xlink:title=" ">
<polygon fill="white" stroke="#666666" points="536.62,-147 449.38,-147 449.38,-126.25 536.62,-126.25 536.62,-147"/>
<text text-anchor="middle" x="493" y="-133.5" font-family="Helvetica,sans-Serif" font-size="10.00">TfLiteUtils.hpp</text>
</a>
</g>
</g>
<!-- Node11&#45;&gt;Node12 -->
<g id="edge12_Node000011_Node000012" class="edge">
<title>Node11&#45;&gt;Node12</title>
<g id="a_edge12_Node000011_Node000012"><a xlink:title=" ">
<path fill="none" stroke="#63b8ff" d="M534.06,-182.59C527.24,-175.11 517.64,-164.61 509.44,-155.63"/>
<polygon fill="#63b8ff" stroke="#63b8ff" points="512.21,-153.47 502.88,-148.45 507.04,-158.19 512.21,-153.47"/>
</a>
</g>
</g>
<!-- Node11&#45;&gt;Node15 -->
<g id="edge29_Node000011_Node000015" class="edge">
<title>Node11&#45;&gt;Node15</title>
<g id="a_edge29_Node000011_Node000015"><a xlink:title=" ">
<path fill="none" stroke="#63b8ff" d="M635.6,-186.33C720.88,-176.86 847.65,-152.57 939,-90.25 960.74,-75.42 977.13,-49.43 986.63,-31.36"/>
<polygon fill="#63b8ff" stroke="#63b8ff" points="989.76,-32.92 991.08,-22.41 983.49,-29.81 989.76,-32.92"/>
</a>
</g>
</g>
<!-- Node18 -->
<g id="Node000018" class="node">
<title>Node18</title>
<g id="a_Node000018"><a xlink:title=" ">
<polygon fill="#e0e0e0" stroke="#999999" points="655.12,-83.88 582.88,-83.88 582.88,-63.12 655.12,-63.12 655.12,-83.88"/>
<text text-anchor="middle" x="619" y="-70.38" font-family="Helvetica,sans-Serif" font-size="10.00">string_view</text>
</a>
</g>
</g>
<!-- Node11&#45;&gt;Node18 -->
<g id="edge30_Node000011_Node000018" class="edge">
<title>Node11&#45;&gt;Node18</title>
<g id="a_edge30_Node000011_Node000018"><a xlink:title=" ">
<path fill="none" stroke="#63b8ff" d="M549.22,-182.73C561.75,-163.3 590.21,-119.15 606.66,-93.64"/>
<polygon fill="#63b8ff" stroke="#63b8ff" points="609.4,-95.85 611.87,-85.55 603.51,-92.06 609.4,-95.85"/>
</a>
</g>
</g>
<!-- Node19 -->
<g id="Node000019" class="node">
<title>Node19</title>
<g id="a_Node000019"><a xlink:title=" ">
<polygon fill="#e0e0e0" stroke="#999999" points="775.12,-90.25 672.88,-90.25 672.88,-56.75 775.12,-56.75 775.12,-90.25"/>
<text text-anchor="start" x="680.88" y="-76.75" font-family="Helvetica,sans-Serif" font-size="10.00">tensorflow/lite/c/c</text>
<text text-anchor="middle" x="724" y="-64" font-family="Helvetica,sans-Serif" font-size="10.00">_api.h</text>
</a>
</g>
</g>
<!-- Node11&#45;&gt;Node19 -->
<g id="edge25_Node000011_Node000019" class="edge">
<title>Node11&#45;&gt;Node19</title>
<g id="a_edge25_Node000011_Node000019"><a xlink:title=" ">
<path fill="none" stroke="#63b8ff" d="M558.12,-182.53C586.87,-163.81 650.05,-122.66 689.61,-96.89"/>
<polygon fill="#63b8ff" stroke="#63b8ff" points="691.39,-99.92 697.86,-91.53 687.57,-94.05 691.39,-99.92"/>
</a>
</g>
</g>
<!-- Node20 -->
<g id="Node000020" class="node">
<title>Node20</title>
<g id="a_Node000020"><a xlink:title=" ">
<polygon fill="#e0e0e0" stroke="#999999" points="930.38,-90.25 793.62,-90.25 793.62,-56.75 930.38,-56.75 930.38,-90.25"/>
<text text-anchor="start" x="801.62" y="-76.75" font-family="Helvetica,sans-Serif" font-size="10.00">tensorflow/lite/delegates</text>
<text text-anchor="middle" x="862" y="-64" font-family="Helvetica,sans-Serif" font-size="10.00">/gpu/delegate.h</text>
</a>
</g>
</g>
<!-- Node11&#45;&gt;Node20 -->
<g id="edge26_Node000011_Node000020" class="edge">
<title>Node11&#45;&gt;Node20</title>
<g id="a_edge26_Node000011_Node000020"><a xlink:title=" ">
<path fill="none" stroke="#63b8ff" d="M569.65,-182.53C621.81,-163.25 738.33,-120.2 807.49,-94.64"/>
<polygon fill="#63b8ff" stroke="#63b8ff" points="808.57,-97.97 816.74,-91.22 806.15,-91.41 808.57,-97.97"/>
</a>
</g>
</g>
<!-- Node12&#45;&gt;Node5 -->
<g id="edge13_Node000012_Node000005" class="edge">
<title>Node12&#45;&gt;Node5</title>
<g id="a_edge13_Node000012_Node000005"><a xlink:title=" ">
<path fill="none" stroke="#63b8ff" d="M449.01,-127.06C394.75,-116.5 302.17,-98.48 240.79,-86.53"/>
<polygon fill="#63b8ff" stroke="#63b8ff" points="241.68,-83.14 231.2,-84.66 240.34,-90.01 241.68,-83.14"/>
</a>
</g>
</g>
<!-- Node12&#45;&gt;Node7 -->
<g id="edge19_Node000012_Node000007" class="edge">
<title>Node12&#45;&gt;Node7</title>
<g id="a_edge19_Node000012_Node000007"><a xlink:title=" ">
<path fill="none" stroke="#63b8ff" d="M449.18,-130.48C416.4,-124.89 371.76,-113.43 339,-90.25 317.63,-75.13 301.25,-49.42 291.64,-31.47"/>
<polygon fill="#63b8ff" stroke="#63b8ff" points="294.77,-29.91 287.13,-22.58 288.53,-33.08 294.77,-29.91"/>
</a>
</g>
</g>
<!-- Node12&#45;&gt;Node8 -->
<g id="edge21_Node000012_Node000008" class="edge">
<title>Node12&#45;&gt;Node8</title>
<g id="a_edge21_Node000012_Node000008"><a xlink:title=" ">
<path fill="none" stroke="#63b8ff" d="M448.92,-135.83C357.47,-135.43 150.99,-130.02 95,-90.25 75.78,-76.6 65.9,-50.53 61.1,-32.11"/>
<polygon fill="#63b8ff" stroke="#63b8ff" points="64.55,-31.51 58.92,-22.54 57.73,-33.07 64.55,-31.51"/>
</a>
</g>
</g>
<!-- Node13 -->
<g id="Node000013" class="node">
<title>Node13</title>
<g id="a_Node000013"><a xlink:href="Errors_8hpp.html" target="_top" xlink:title=" ">
<polygon fill="white" stroke="#666666" points="564.38,-83.88 421.62,-83.88 421.62,-63.12 564.38,-63.12 564.38,-83.88"/>
<text text-anchor="middle" x="493" y="-70.38" font-family="Helvetica,sans-Serif" font-size="10.00">EyeAICore/utils/Errors.hpp</text>
</a>
</g>
</g>
<!-- Node12&#45;&gt;Node13 -->
<g id="edge14_Node000012_Node000013" class="edge">
<title>Node12&#45;&gt;Node13</title>
<g id="a_edge14_Node000012_Node000013"><a xlink:title=" ">
<path fill="none" stroke="#63b8ff" d="M493,-125.8C493,-117.65 493,-105.76 493,-95.48"/>
<polygon fill="#63b8ff" stroke="#63b8ff" points="496.5,-95.61 493,-85.61 489.5,-95.61 496.5,-95.61"/>
</a>
</g>
</g>
<!-- Node17 -->
<g id="Node000017" class="node">
<title>Node17</title>
<g id="a_Node000017"><a xlink:title=" ">
<polygon fill="#e0e0e0" stroke="#999999" points="403.88,-83.88 348.12,-83.88 348.12,-63.12 403.88,-63.12 403.88,-83.88"/>
<text text-anchor="middle" x="376" y="-70.38" font-family="Helvetica,sans-Serif" font-size="10.00">optional</text>
</a>
</g>
</g>
<!-- Node12&#45;&gt;Node17 -->
<g id="edge20_Node000012_Node000017" class="edge">
<title>Node12&#45;&gt;Node17</title>
<g id="a_edge20_Node000012_Node000017"><a xlink:title=" ">
<path fill="none" stroke="#63b8ff" d="M474.2,-125.8C455.44,-116 426.36,-100.81 404.71,-89.5"/>
<polygon fill="#63b8ff" stroke="#63b8ff" points="406.58,-86.53 396.09,-85 403.34,-92.73 406.58,-86.53"/>
</a>
</g>
</g>
<!-- Node12&#45;&gt;Node18 -->
<g id="edge22_Node000012_Node000018" class="edge">
<title>Node12&#45;&gt;Node18</title>
<g id="a_edge22_Node000012_Node000018"><a xlink:title=" ">
<path fill="none" stroke="#63b8ff" d="M513.24,-125.8C533.63,-115.91 565.34,-100.53 588.72,-89.19"/>
<polygon fill="#63b8ff" stroke="#63b8ff" points="589.97,-92.47 597.44,-84.96 586.92,-86.17 589.97,-92.47"/>
</a>
</g>
</g>
<!-- Node12&#45;&gt;Node19 -->
<g id="edge23_Node000012_Node000019" class="edge">
<title>Node12&#45;&gt;Node19</title>
<g id="a_edge23_Node000012_Node000019"><a xlink:title=" ">
<path fill="none" stroke="#63b8ff" d="M530.11,-125.8C565.59,-116.42 619.74,-102.09 661.81,-90.96"/>
<polygon fill="#63b8ff" stroke="#63b8ff" points="662.54,-94.38 671.31,-88.44 660.75,-87.62 662.54,-94.38"/>
</a>
</g>
</g>
<!-- Node12&#45;&gt;Node20 -->
<g id="edge24_Node000012_Node000020" class="edge">
<title>Node12&#45;&gt;Node20</title>
<g id="a_edge24_Node000012_Node000020"><a xlink:title=" ">
<path fill="none" stroke="#63b8ff" d="M536.98,-129.39C591.82,-121.48 688.72,-107.05 781.8,-90.6"/>
<polygon fill="#63b8ff" stroke="#63b8ff" points="782.41,-94.04 791.64,-88.85 781.18,-87.15 782.41,-94.04"/>
</a>
</g>
</g>
<!-- Node13&#45;&gt;Node9 -->
<g id="edge18_Node000013_Node000009" class="edge">
<title>Node13&#45;&gt;Node9</title>
<g id="a_edge18_Node000013_Node000009"><a xlink:title=" ">
<path fill="none" stroke="#63b8ff" d="M473.56,-62.68C454.07,-52.83 423.81,-37.55 401.38,-26.22"/>
<polygon fill="#63b8ff" stroke="#63b8ff" points="403.25,-23.24 392.74,-21.85 400.09,-29.49 403.25,-23.24"/>
</a>
</g>
</g>
<!-- Node14 -->
<g id="Node000014" class="node">
<title>Node14</title>
<g id="a_Node000014"><a xlink:title=" ">
<polygon fill="#e0e0e0" stroke="#999999" points="482.5,-20.75 433.5,-20.75 433.5,0 482.5,0 482.5,-20.75"/>
<text text-anchor="middle" x="458" y="-7.25" font-family="Helvetica,sans-Serif" font-size="10.00">format</text>
</a>
</g>
</g>
<!-- Node13&#45;&gt;Node14 -->
<g id="edge15_Node000013_Node000014" class="edge">
<title>Node13&#45;&gt;Node14</title>
<g id="a_edge15_Node000013_Node000014"><a xlink:title=" ">
<path fill="none" stroke="#63b8ff" d="M487.38,-62.68C482.45,-54.07 475.14,-41.31 469.05,-30.67"/>
<polygon fill="#63b8ff" stroke="#63b8ff" points="472.25,-29.22 464.25,-22.28 466.18,-32.7 472.25,-29.22"/>
</a>
</g>
</g>
<!-- Node13&#45;&gt;Node15 -->
<g id="edge16_Node000013_Node000015" class="edge">
<title>Node13&#45;&gt;Node15</title>
<g id="a_edge16_Node000013_Node000015"><a xlink:title=" ">
<path fill="none" stroke="#63b8ff" d="M540,-62.66C551.11,-60.53 562.95,-58.42 574,-56.75 717.96,-35.05 891.06,-19.82 962.58,-14"/>
<polygon fill="#63b8ff" stroke="#63b8ff" points="962.75,-17.49 972.44,-13.2 962.19,-10.52 962.75,-17.49"/>
</a>
</g>
</g>
<!-- Node16 -->
<g id="Node000016" class="node">
<title>Node16</title>
<g id="a_Node000016"><a xlink:title=" ">
<polygon fill="#e0e0e0" stroke="#999999" points="591.88,-20.75 500.12,-20.75 500.12,0 591.88,0 591.88,-20.75"/>
<text text-anchor="middle" x="546" y="-7.25" font-family="Helvetica,sans-Serif" font-size="10.00">tl/expected.hpp</text>
</a>
</g>
</g>
<!-- Node13&#45;&gt;Node16 -->
<g id="edge17_Node000013_Node000016" class="edge">
<title>Node13&#45;&gt;Node16</title>
<g id="a_edge17_Node000013_Node000016"><a xlink:title=" ">
<path fill="none" stroke="#63b8ff" d="M501.52,-62.68C509.29,-53.72 520.97,-40.24 530.41,-29.35"/>
<polygon fill="#63b8ff" stroke="#63b8ff" points="532.78,-31.96 536.69,-22.11 527.49,-27.38 532.78,-31.96"/>
</a>
</g>
</g>
<!-- Node23&#45;&gt;Node10 -->
<g id="edge48_Node000023_Node000010" class="edge">
<title>Node23&#45;&gt;Node10</title>
<g id="a_edge48_Node000023_Node000010"><a xlink:title=" ">
<path fill="none" stroke="#63b8ff" d="M1557.93,-125.82C1573.55,-118.59 1591.87,-107.05 1601,-90.25 1608.11,-77.17 1610.66,-68.08 1601,-56.75 1569.18,-19.46 1419.49,-12.67 1350.71,-11.53"/>
<polygon fill="#63b8ff" stroke="#63b8ff" points="1351.19,-8.04 1341.14,-11.41 1351.09,-15.04 1351.19,-8.04"/>
</a>
</g>
</g>
<!-- Node24 -->
<g id="Node000024" class="node">
<title>Node24</title>
<g id="a_Node000024"><a xlink:href="DepthAudioSourceData_8hpp.html" target="_top" xlink:title=" ">
<polygon fill="white" stroke="#666666" points="1394.12,-90.25 1237.88,-90.25 1237.88,-56.75 1394.12,-56.75 1394.12,-90.25"/>
<text text-anchor="start" x="1245.88" y="-76.75" font-family="Helvetica,sans-Serif" font-size="10.00">EyeAICore/audio/DepthAudio</text>
<text text-anchor="middle" x="1316" y="-64" font-family="Helvetica,sans-Serif" font-size="10.00">SourceData.hpp</text>
</a>
</g>
</g>
<!-- Node23&#45;&gt;Node24 -->
<g id="edge34_Node000023_Node000024" class="edge">
<title>Node23&#45;&gt;Node24</title>
<g id="a_edge34_Node000023_Node000024"><a xlink:title=" ">
<path fill="none" stroke="#63b8ff" d="M1496.46,-125.8C1466.21,-117.2 1421.36,-104.45 1383.95,-93.82"/>
<polygon fill="#63b8ff" stroke="#63b8ff" points="1385.14,-90.52 1374.56,-91.15 1383.22,-97.25 1385.14,-90.52"/>
</a>
</g>
</g>
<!-- Node25 -->
<g id="Node000025" class="node">
<title>Node25</title>
<g id="a_Node000025"><a xlink:href="ObjectAudioSourceData_8hpp.html" target="_top" xlink:title=" ">
<polygon fill="white" stroke="#666666" points="1182.25,-90.25 1023.75,-90.25 1023.75,-56.75 1182.25,-56.75 1182.25,-90.25"/>
<text text-anchor="start" x="1031.75" y="-76.75" font-family="Helvetica,sans-Serif" font-size="10.00">EyeAICore/audio/ObjectAudio</text>
<text text-anchor="middle" x="1103" y="-64" font-family="Helvetica,sans-Serif" font-size="10.00">SourceData.hpp</text>
</a>
</g>
</g>
<!-- Node23&#45;&gt;Node25 -->
<g id="edge36_Node000023_Node000025" class="edge">
<title>Node23&#45;&gt;Node25</title>
<g id="a_edge36_Node000023_Node000025"><a xlink:title=" ">
<path fill="none" stroke="#63b8ff" d="M1462.23,-125.8C1389.34,-115.39 1273.87,-98.9 1193.6,-87.44"/>
<polygon fill="#63b8ff" stroke="#63b8ff" points="1194.4,-84.02 1184.01,-86.07 1193.42,-90.95 1194.4,-84.02"/>
</a>
</g>
</g>
<!-- Node23&#45;&gt;Node26 -->
<g id="edge38_Node000023_Node000026" class="edge">
<title>Node23&#45;&gt;Node26</title>
<g id="a_edge38_Node000023_Node000026"><a xlink:title=" ">
<path fill="none" stroke="#63b8ff" d="M1585.31,-125.8C1636.95,-116.46 1715.66,-102.23 1777.09,-91.12"/>
<polygon fill="#63b8ff" stroke="#63b8ff" points="1777.64,-94.58 1786.85,-89.36 1776.39,-87.69 1777.64,-94.58"/>
</a>
</g>
</g>
<!-- Node23&#45;&gt;Node29 -->
<g id="edge43_Node000023_Node000029" class="edge">
<title>Node23&#45;&gt;Node29</title>
<g id="a_edge43_Node000023_Node000029"><a xlink:title=" ">
<path fill="none" stroke="#63b8ff" d="M1553.81,-125.8C1577.1,-115.78 1613.49,-100.12 1639.94,-88.73"/>
<polygon fill="#63b8ff" stroke="#63b8ff" points="1641.05,-92.06 1648.85,-84.89 1638.28,-85.63 1641.05,-92.06"/>
</a>
</g>
</g>
<!-- Node23&#45;&gt;Node30 -->
<g id="edge44_Node000023_Node000030" class="edge">
<title>Node23&#45;&gt;Node30</title>
<g id="a_edge44_Node000023_Node000030"><a xlink:title=" ">
<path fill="none" stroke="#63b8ff" d="M1577.55,-125.77C1613.38,-117.67 1663.9,-105.13 1707,-90.25 1708.57,-89.71 1710.17,-89.13 1711.78,-88.52"/>
<polygon fill="#63b8ff" stroke="#63b8ff" points="1712.94,-91.82 1720.88,-84.81 1710.3,-85.34 1712.94,-91.82"/>
</a>
</g>
</g>
<!-- Node31 -->
<g id="Node000031" class="node">
<title>Node31</title>
<g id="a_Node000031"><a xlink:title=" ">
<polygon fill="#e0e0e0" stroke="#999999" points="1461.88,-83.88 1412.12,-83.88 1412.12,-63.12 1461.88,-63.12 1461.88,-83.88"/>
<text text-anchor="middle" x="1437" y="-70.38" font-family="Helvetica,sans-Serif" font-size="10.00">atomic</text>
</a>
</g>
</g>
<!-- Node23&#45;&gt;Node31 -->
<g id="edge45_Node000023_Node000031" class="edge">
<title>Node23&#45;&gt;Node31</title>
<g id="a_edge45_Node000023_Node000031"><a xlink:title=" ">
<path fill="none" stroke="#63b8ff" d="M1515.9,-125.8C1501.23,-116.27 1478.73,-101.63 1461.5,-90.43"/>
<polygon fill="#63b8ff" stroke="#63b8ff" points="1463.63,-87.64 1453.33,-85.12 1459.81,-93.51 1463.63,-87.64"/>
</a>
</g>
</g>
<!-- Node32 -->
<g id="Node000032" class="node">
<title>Node32</title>
<g id="a_Node000032"><a xlink:title=" ">
<polygon fill="#e0e0e0" stroke="#999999" points="1526,-83.88 1480,-83.88 1480,-63.12 1526,-63.12 1526,-83.88"/>
<text text-anchor="middle" x="1503" y="-70.38" font-family="Helvetica,sans-Serif" font-size="10.00">deque</text>
</a>
</g>
</g>
<!-- Node23&#45;&gt;Node32 -->
<g id="edge46_Node000023_Node000032" class="edge">
<title>Node23&#45;&gt;Node32</title>
<g id="a_edge46_Node000023_Node000032"><a xlink:title=" ">
<path fill="none" stroke="#63b8ff" d="M1526.5,-125.8C1522.64,-117.38 1516.96,-104.97 1512.15,-94.47"/>
<polygon fill="#63b8ff" stroke="#63b8ff" points="1515.37,-93.1 1508.03,-85.47 1509.01,-96.02 1515.37,-93.1"/>
</a>
</g>
</g>
<!-- Node33 -->
<g id="Node000033" class="node">
<title>Node33</title>
<g id="a_Node000033"><a xlink:title=" ">
<polygon fill="#e0e0e0" stroke="#999999" points="1591.75,-83.88 1544.25,-83.88 1544.25,-63.12 1591.75,-63.12 1591.75,-83.88"/>
<text text-anchor="middle" x="1568" y="-70.38" font-family="Helvetica,sans-Serif" font-size="10.00">mutex</text>
</a>
</g>
</g>
<!-- Node23&#45;&gt;Node33 -->
<g id="edge47_Node000023_Node000033" class="edge">
<title>Node23&#45;&gt;Node33</title>
<g id="a_edge47_Node000023_Node000033"><a xlink:title=" ">
<path fill="none" stroke="#63b8ff" d="M1536.94,-125.8C1542.15,-117.2 1549.88,-104.44 1556.32,-93.8"/>
<polygon fill="#63b8ff" stroke="#63b8ff" points="1559.22,-95.76 1561.41,-85.39 1553.24,-92.13 1559.22,-95.76"/>
</a>
</g>
</g>
<!-- Node24&#45;&gt;Node10 -->
<g id="edge35_Node000024_Node000010" class="edge">
<title>Node24&#45;&gt;Node10</title>
<g id="a_edge35_Node000024_Node000010"><a xlink:title=" ">
<path fill="none" stroke="#63b8ff" d="M1316,-56.44C1316,-49.1 1316,-40.32 1316,-32.46"/>
<polygon fill="#63b8ff" stroke="#63b8ff" points="1319.5,-32.73 1316,-22.73 1312.5,-32.73 1319.5,-32.73"/>
</a>
</g>
</g>
<!-- Node25&#45;&gt;Node15 -->
<g id="edge37_Node000025_Node000015" class="edge">
<title>Node25&#45;&gt;Node15</title>
<g id="a_edge37_Node000025_Node000015"><a xlink:title=" ">
<path fill="none" stroke="#63b8ff" d="M1074.61,-56.28C1058.56,-47.11 1038.61,-35.72 1022.83,-26.7"/>
<polygon fill="#63b8ff" stroke="#63b8ff" points="1024.87,-23.84 1014.45,-21.92 1021.4,-29.92 1024.87,-23.84"/>
</a>
</g>
</g>
<!-- Node26&#45;&gt;Node10 -->
<g id="edge42_Node000026_Node000010" class="edge">
<title>Node26&#45;&gt;Node10</title>
<g id="a_edge42_Node000026_Node000010"><a xlink:title=" ">
<path fill="none" stroke="#63b8ff" d="M1788.58,-58.12C1785.35,-57.64 1782.14,-57.18 1779,-56.75 1619.86,-35.06 1428.58,-19.69 1351.12,-13.91"/>
<polygon fill="#63b8ff" stroke="#63b8ff" points="1351.42,-10.42 1341.19,-13.17 1350.91,-17.4 1351.42,-10.42"/>
</a>
</g>
</g>
<!-- Node26&#45;&gt;Node15 -->
<g id="edge41_Node000026_Node000015" class="edge">
<title>Node26&#45;&gt;Node15</title>
<g id="a_edge41_Node000026_Node000015"><a xlink:title=" ">
<path fill="none" stroke="#63b8ff" d="M1788.6,-57.96C1785.36,-57.52 1782.15,-57.12 1779,-56.75 1630.29,-39.49 1159.38,-18.4 1029.47,-12.8"/>
<polygon fill="#63b8ff" stroke="#63b8ff" points="1029.98,-9.32 1019.84,-12.38 1029.68,-16.31 1029.98,-9.32"/>
</a>
</g>
</g>
<!-- Node27 -->
<g id="Node000027" class="node">
<title>Node27</title>
<g id="a_Node000027"><a xlink:title=" ">
<polygon fill="#e0e0e0" stroke="#999999" points="1857,-20.75 1805,-20.75 1805,0 1857,0 1857,-20.75"/>
<text text-anchor="middle" x="1831" y="-7.25" font-family="Helvetica,sans-Serif" font-size="10.00">cstddef</text>
</a>
</g>
</g>
<!-- Node26&#45;&gt;Node27 -->
<g id="edge39_Node000026_Node000027" class="edge">
<title>Node26&#45;&gt;Node27</title>
<g id="a_edge39_Node000026_Node000027"><a xlink:title=" ">
<path fill="none" stroke="#63b8ff" d="M1859.02,-56.44C1854.13,-48.58 1848.21,-39.06 1843.07,-30.79"/>
<polygon fill="#63b8ff" stroke="#63b8ff" points="1846.17,-29.15 1837.92,-22.5 1840.22,-32.84 1846.17,-29.15"/>
</a>
</g>
</g>
<!-- Node28 -->
<g id="Node000028" class="node">
<title>Node28</title>
<g id="a_Node000028"><a xlink:title=" ">
<polygon fill="#e0e0e0" stroke="#999999" points="1938.62,-20.75 1875.38,-20.75 1875.38,0 1938.62,0 1938.62,-20.75"/>
<text text-anchor="middle" x="1907" y="-7.25" font-family="Helvetica,sans-Serif" font-size="10.00">sndfile.hh</text>
</a>
</g>
</g>
<!-- Node26&#45;&gt;Node28 -->
<g id="edge40_Node000026_Node000028" class="edge">
<title>Node26&#45;&gt;Node28</title>
<g id="a_edge40_Node000026_Node000028"><a xlink:title=" ">
<path fill="none" stroke="#63b8ff" d="M1878.98,-56.44C1883.87,-48.58 1889.79,-39.06 1894.93,-30.79"/>
<polygon fill="#63b8ff" stroke="#63b8ff" points="1897.78,-32.84 1900.08,-22.5 1891.83,-29.15 1897.78,-32.84"/>
</a>
</g>
</g>
</g>
</svg>

<g id="navigator" transform="translate(0 0)" fill="#404254">
  <rect fill="#f2f5e9" fill-opacity="0.5" stroke="#606060" stroke-width=".5" x="0" y="0" width="60" height="60"/>
  <use id="zoomplus" xlink:href="#zoomPlus" x="17" y="9" onmousedown="handleZoom(evt,'in')"/>
  <use id="zoomminus" xlink:href="#zoomMin" x="42" y="9" onmousedown="handleZoom(evt,'out')"/>
  <use id="reset" xlink:href="#resetDef" x="30" y="36" onmousedown="handleReset()"/>
   <use id="arrowup" xlink:href="#arrowUp" x="0" y="0" onmousedown="handlePan(0,-1)"/>
  <use id="arrowright" xlink:href="#arrowRight" x="0" y="0" onmousedown="handlePan(1,0)"/>
  <use id="arrowdown" xlink:href="#arrowDown" x="0" y="0" onmousedown="handlePan(0,1)"/>
  <use id="arrowleft" xlink:href="#arrowLeft" x="0" y="0" onmousedown="handlePan(-1,0)"/>
</g>
<svg viewBox="0 0 15 15" width="100%" height="30px" preserveAspectRatio="xMaxYMin meet">
 <g id="arrow_out" transform="scale(0.3 0.3)">
  <a xlink:href="SpatialAudio_8hpp__incl_org.svg" target="_base">
   <rect id="button" ry="5" rx="5" y="6" x="6" height="38" width="38"
        fill="#f2f5e9" fill-opacity="0.5" stroke="#606060" stroke-width="1.0"/>
   <path id="arrow"
     d="M 11.500037,31.436501 C 11.940474,20.09759 22.043105,11.32322 32.158766,21.979434 L 37.068811,17.246167 C 37.068811,17.246167 37.088388,32 37.088388,32 L 22.160133,31.978069 C 22.160133,31.978069 26.997745,27.140456 26.997745,27.140456 C 18.528582,18.264221 13.291696,25.230495 11.500037,31.436501 z"
     style="fill:#404040;"/>
  </a>
 </g>
</svg>

<style type='text/css'>
<![CDATA[
[data-mouse-over-selected='false'] { opacity: 0.7; }
[data-mouse-over-selected='true']  { opacity: 1.0; }
]]>
</style>
<script type="application/ecmascript"><![CDATA[
document.addEventListener('DOMContentLoaded', (event) => {
  highlightEdges();
  highlightAdjacentNodes();
});
]]></script>
</svg>
