<?xml version="1.0" encoding="UTF-8" standalone="no"?>
<!DOCTYPE svg PUBLIC "-//W3C//DTD SVG 1.1//EN"
 "http://www.w3.org/Graphics/SVG/1.1/DTD/svg11.dtd">
<!-- Generated by graphviz version 12.2.1 (20241206.2353)
 -->
<!-- Title: src/audio/SpatialAudio.cpp Pages: 1 -->
<svg width="2006pt" height="456pt"
 viewBox="0.00 0.00 2005.88 456.00" xmlns="http://www.w3.org/2000/svg" xmlns:xlink="http://www.w3.org/1999/xlink">
<g id="graph0" class="graph" transform="scale(1 1) rotate(0) translate(4 452)">
<title>src/audio/SpatialAudio.cpp</title>
<!-- Node1 -->
<g id="Node000001" class="node">
<title>Node1</title>
<g id="a_Node000001"><a xlink:title=" ">
<polygon fill="#999999" stroke="#666666" points="1475.12,-448 1342.88,-448 1342.88,-428 1475.12,-428 1475.12,-448"/>
<text text-anchor="middle" x="1409" y="-434.5" font-family="Helvetica,sans-Serif" font-size="10.00">src/audio/SpatialAudio.cpp</text>
</a>
</g>
</g>
<!-- Node2 -->
<g id="Node000002" class="node">
<title>Node2</title>
<g id="a_Node000002"><a xlink:href="SpatialAudio_8hpp.html" target="_top" xlink:title=" ">
<polygon fill="white" stroke="#666666" points="1043.38,-386 876.62,-386 876.62,-366 1043.38,-366 1043.38,-386"/>
<text text-anchor="middle" x="960" y="-372.5" font-family="Helvetica,sans-Serif" font-size="10.00">EyeAICore/audio/SpatialAudio.hpp</text>
</a>
</g>
</g>
<!-- Node1&#45;&gt;Node2 -->
<g id="edge1_Node000001_Node000002" class="edge">
<title>Node1&#45;&gt;Node2</title>
<g id="a_edge1_Node000001_Node000002"><a xlink:title=" ">
<path fill="none" stroke="#63b8ff" d="M1342.58,-428.49C1273.46,-419.58 1162.11,-405.1 1066,-392 1056.73,-390.74 1047.02,-389.39 1037.38,-388.04"/>
<polygon fill="#63b8ff" stroke="#63b8ff" points="1038.03,-384.6 1027.64,-386.68 1037.06,-391.53 1038.03,-384.6"/>
</a>
</g>
</g>
<!-- Node3 -->
<g id="Node000003" class="node">
<title>Node3</title>
<g id="a_Node000003"><a xlink:href="YoloModel_8hpp.html" target="_top" xlink:title=" ">
<polygon fill="white" stroke="#666666" points="578.38,-262 447.62,-262 447.62,-242 578.38,-242 578.38,-262"/>
<text text-anchor="middle" x="513" y="-248.5" font-family="Helvetica,sans-Serif" font-size="10.00">EyeAICore/YoloModel.hpp</text>
</a>
</g>
</g>
<!-- Node1&#45;&gt;Node3 -->
<g id="edge56_Node000001_Node000003" class="edge">
<title>Node1&#45;&gt;Node3</title>
<g id="a_edge56_Node000001_Node000003"><a xlink:title=" ">
<path fill="none" stroke="#63b8ff" d="M1342.45,-434.62C1168.64,-427.36 705.56,-401.12 576,-324 554.16,-311 535.77,-287.9 524.6,-271.58"/>
<polygon fill="#63b8ff" stroke="#63b8ff" points="527.57,-269.73 519.17,-263.28 521.72,-273.56 527.57,-269.73"/>
</a>
</g>
</g>
<!-- Node7 -->
<g id="Node000007" class="node">
<title>Node7</title>
<g id="a_Node000007"><a xlink:title=" ">
<polygon fill="#e0e0e0" stroke="#999999" points="94.5,-20 57.5,-20 57.5,0 94.5,0 94.5,-20"/>
<text text-anchor="middle" x="76" y="-6.5" font-family="Helvetica,sans-Serif" font-size="10.00">span</text>
</a>
</g>
</g>
<!-- Node1&#45;&gt;Node7 -->
<g id="edge67_Node000001_Node000007" class="edge">
<title>Node1&#45;&gt;Node7</title>
<g id="a_edge67_Node000001_Node000007"><a xlink:title=" ">
<path fill="none" stroke="#63b8ff" d="M1342.46,-434.77C1063.17,-424.99 0,-383.25 0,-315 0,-315 0,-315 0,-133 0,-90.26 34.02,-50.1 56.53,-28.2"/>
<polygon fill="#63b8ff" stroke="#63b8ff" points="58.77,-30.9 63.68,-21.52 53.99,-25.79 58.77,-30.9"/>
</a>
</g>
</g>
<!-- Node9 -->
<g id="Node000009" class="node">
<title>Node9</title>
<g id="a_Node000009"><a xlink:title=" ">
<polygon fill="#e0e0e0" stroke="#999999" points="1274.5,-20 1231.5,-20 1231.5,0 1274.5,0 1274.5,-20"/>
<text text-anchor="middle" x="1253" y="-6.5" font-family="Helvetica,sans-Serif" font-size="10.00">vector</text>
</a>
</g>
</g>
<!-- Node1&#45;&gt;Node9 -->
<g id="edge69_Node000001_Node000009" class="edge">
<title>Node1&#45;&gt;Node9</title>
<g id="a_edge69_Node000001_Node000009"><a xlink:title=" ">
<path fill="none" stroke="#63b8ff" d="M1475.4,-437C1561.28,-433.11 1700,-411.83 1700,-315 1700,-315 1700,-315 1700,-133 1700,-47.21 1389.67,-19.68 1286.15,-12.89"/>
<polygon fill="#63b8ff" stroke="#63b8ff" points="1286.57,-9.41 1276.37,-12.27 1286.13,-16.4 1286.57,-9.41"/>
</a>
</g>
</g>
<!-- Node13 -->
<g id="Node000013" class="node">
<title>Node13</title>
<g id="a_Node000013"><a xlink:title=" ">
<polygon fill="#e0e0e0" stroke="#999999" points="1556.88,-20 1513.12,-20 1513.12,0 1556.88,0 1556.88,-20"/>
<text text-anchor="middle" x="1535" y="-6.5" font-family="Helvetica,sans-Serif" font-size="10.00">format</text>
</a>
</g>
</g>
<!-- Node1&#45;&gt;Node13 -->
<g id="edge65_Node000001_Node000013" class="edge">
<title>Node1&#45;&gt;Node13</title>
<g id="a_edge65_Node000001_Node000013"><a xlink:title=" ">
<path fill="none" stroke="#63b8ff" d="M1475.35,-435.28C1554.09,-431.89 1679.12,-421.83 1714,-392 1741.24,-368.7 1738,-350.85 1738,-315 1738,-315 1738,-315 1738,-133 1738,-97.15 1740.04,-80.63 1714,-56 1674.44,-18.59 1608.53,-11.02 1568.69,-10.15"/>
<polygon fill="#63b8ff" stroke="#63b8ff" points="1568.75,-6.65 1558.73,-10.08 1568.7,-13.65 1568.75,-6.65"/>
</a>
</g>
</g>
<!-- Node23 -->
<g id="Node000023" class="node">
<title>Node23</title>
<g id="a_Node000023"><a xlink:href="AudioMain_8hpp.html" target="_top" xlink:title=" ">
<polygon fill="white" stroke="#666666" points="1407.88,-324 1250.12,-324 1250.12,-304 1407.88,-304 1407.88,-324"/>
<text text-anchor="middle" x="1329" y="-310.5" font-family="Helvetica,sans-Serif" font-size="10.00">EyeAICore/audio/AudioMain.hpp</text>
</a>
</g>
</g>
<!-- Node1&#45;&gt;Node23 -->
<g id="edge57_Node000001_Node000023" class="edge">
<title>Node1&#45;&gt;Node23</title>
<g id="a_edge57_Node000001_Node000023"><a xlink:title=" ">
<path fill="none" stroke="#63b8ff" d="M1402.99,-427.83C1389.9,-407.87 1358.61,-360.15 1341.2,-333.61"/>
<polygon fill="#63b8ff" stroke="#63b8ff" points="1344.32,-331.99 1335.91,-325.54 1338.47,-335.82 1344.32,-331.99"/>
</a>
</g>
</g>
<!-- Node24 -->
<g id="Node000024" class="node">
<title>Node24</title>
<g id="a_Node000024"><a xlink:href="DepthAudioSourceData_8hpp.html" target="_top" xlink:title=" ">
<polygon fill="white" stroke="#666666" points="1508.12,-268 1363.88,-268 1363.88,-236 1508.12,-236 1508.12,-268"/>
<text text-anchor="start" x="1371.88" y="-254.5" font-family="Helvetica,sans-Serif" font-size="10.00">EyeAICore/audio/DepthAudio</text>
<text text-anchor="middle" x="1436" y="-242.5" font-family="Helvetica,sans-Serif" font-size="10.00">SourceData.hpp</text>
</a>
</g>
</g>
<!-- Node1&#45;&gt;Node24 -->
<g id="edge60_Node000001_Node000024" class="edge">
<title>Node1&#45;&gt;Node24</title>
<g id="a_edge60_Node000001_Node000024"><a xlink:title=" ">
<path fill="none" stroke="#63b8ff" d="M1410.38,-427.62C1414.36,-400.49 1425.99,-321.21 1432.12,-279.45"/>
<polygon fill="#63b8ff" stroke="#63b8ff" points="1435.55,-280.16 1433.54,-269.76 1428.63,-279.14 1435.55,-280.16"/>
</a>
</g>
</g>
<!-- Node25 -->
<g id="Node000025" class="node">
<title>Node25</title>
<g id="a_Node000025"><a xlink:href="ObjectAudioSourceData_8hpp.html" target="_top" xlink:title=" ">
<polygon fill="white" stroke="#666666" points="1672.25,-268 1525.75,-268 1525.75,-236 1672.25,-236 1672.25,-268"/>
<text text-anchor="start" x="1533.75" y="-254.5" font-family="Helvetica,sans-Serif" font-size="10.00">EyeAICore/audio/ObjectAudio</text>
<text text-anchor="middle" x="1599" y="-242.5" font-family="Helvetica,sans-Serif" font-size="10.00">SourceData.hpp</text>
</a>
</g>
</g>
<!-- Node1&#45;&gt;Node25 -->
<g id="edge61_Node000001_Node000025" class="edge">
<title>Node1&#45;&gt;Node25</title>
<g id="a_edge61_Node000001_Node000025"><a xlink:title=" ">
<path fill="none" stroke="#63b8ff" d="M1418.68,-427.62C1447.48,-399.74 1533.17,-316.75 1575.21,-276.04"/>
<polygon fill="#63b8ff" stroke="#63b8ff" points="1577.41,-278.78 1582.16,-269.31 1572.54,-273.75 1577.41,-278.78"/>
</a>
</g>
</g>
<!-- Node26 -->
<g id="Node000026" class="node">
<title>Node26</title>
<g id="a_Node000026"><a xlink:href="SpatialAudioSettings_8hpp.html" target="_top" xlink:title=" ">
<polygon fill="white" stroke="#666666" points="1244,-268 1096,-268 1096,-236 1244,-236 1244,-268"/>
<text text-anchor="start" x="1104" y="-254.5" font-family="Helvetica,sans-Serif" font-size="10.00">EyeAICore/audio/SpatialAudio</text>
<text text-anchor="middle" x="1170" y="-242.5" font-family="Helvetica,sans-Serif" font-size="10.00">Settings.hpp</text>
</a>
</g>
</g>
<!-- Node1&#45;&gt;Node26 -->
<g id="edge62_Node000001_Node000026" class="edge">
<title>Node1&#45;&gt;Node26</title>
<g id="a_edge62_Node000001_Node000026"><a xlink:title=" ">
<path fill="none" stroke="#63b8ff" d="M1393,-427.67C1362.27,-409.45 1293.38,-367.12 1241,-324 1223.28,-309.41 1205,-291.05 1191.43,-276.65"/>
<polygon fill="#63b8ff" stroke="#63b8ff" points="1194.04,-274.32 1184.67,-269.38 1188.92,-279.08 1194.04,-274.32"/>
</a>
</g>
</g>
<!-- Node33 -->
<g id="Node000033" class="node">
<title>Node33</title>
<g id="a_Node000033"><a xlink:title=" ">
<polygon fill="#e0e0e0" stroke="#999999" points="1138.5,-324 1095.5,-324 1095.5,-304 1138.5,-304 1138.5,-324"/>
<text text-anchor="middle" x="1117" y="-310.5" font-family="Helvetica,sans-Serif" font-size="10.00">thread</text>
</a>
</g>
</g>
<!-- Node1&#45;&gt;Node33 -->
<g id="edge68_Node000001_Node000033" class="edge">
<title>Node1&#45;&gt;Node33</title>
<g id="a_edge68_Node000001_Node000033"><a xlink:title=" ">
<path fill="none" stroke="#63b8ff" d="M1342.43,-437.1C1260.91,-435.64 1129.83,-427.62 1099,-392 1085.01,-375.84 1094.7,-350.86 1104.43,-333.76"/>
<polygon fill="#63b8ff" stroke="#63b8ff" points="1107.21,-335.92 1109.49,-325.57 1101.26,-332.23 1107.21,-335.92"/>
</a>
</g>
</g>
<!-- Node35 -->
<g id="Node000035" class="node">
<title>Node35</title>
<g id="a_Node000035"><a xlink:href="CalculateSoundOrigin_8hpp.html" target="_top" xlink:title=" ">
<polygon fill="white" stroke="#666666" points="1242.25,-392 1107.75,-392 1107.75,-360 1242.25,-360 1242.25,-392"/>
<text text-anchor="start" x="1115.75" y="-378.5" font-family="Helvetica,sans-Serif" font-size="10.00">EyeAICore/audio/Calculate</text>
<text text-anchor="middle" x="1175" y="-366.5" font-family="Helvetica,sans-Serif" font-size="10.00">SoundOrigin.hpp</text>
</a>
</g>
</g>
<!-- Node1&#45;&gt;Node35 -->
<g id="edge58_Node000001_Node000035" class="edge">
<title>Node1&#45;&gt;Node35</title>
<g id="a_edge58_Node000001_Node000035"><a xlink:title=" ">
<path fill="none" stroke="#63b8ff" d="M1372.18,-427.56C1338.51,-418.93 1287.76,-405.91 1246.19,-395.25"/>
<polygon fill="#63b8ff" stroke="#63b8ff" points="1247.3,-391.93 1236.74,-392.83 1245.56,-398.71 1247.3,-391.93"/>
</a>
</g>
</g>
<!-- Node36 -->
<g id="Node000036" class="node">
<title>Node36</title>
<g id="a_Node000036"><a xlink:title=" ">
<polygon fill="#e0e0e0" stroke="#999999" points="1821.88,-386 1766.12,-386 1766.12,-366 1821.88,-366 1821.88,-386"/>
<text text-anchor="middle" x="1794" y="-372.5" font-family="Helvetica,sans-Serif" font-size="10.00">algorithm</text>
</a>
</g>
</g>
<!-- Node1&#45;&gt;Node36 -->
<g id="edge63_Node000001_Node000036" class="edge">
<title>Node1&#45;&gt;Node36</title>
<g id="a_edge63_Node000001_Node000036"><a xlink:title=" ">
<path fill="none" stroke="#63b8ff" d="M1475.52,-432.48C1545.19,-426.78 1657.42,-414.82 1752,-392 1754.45,-391.41 1756.95,-390.73 1759.45,-389.99"/>
<polygon fill="#63b8ff" stroke="#63b8ff" points="1760.42,-393.35 1768.84,-386.93 1758.25,-386.7 1760.42,-393.35"/>
</a>
</g>
</g>
<!-- Node37 -->
<g id="Node000037" class="node">
<title>Node37</title>
<g id="a_Node000037"><a xlink:title=" ">
<polygon fill="#e0e0e0" stroke="#999999" points="1882.5,-386 1839.5,-386 1839.5,-366 1882.5,-366 1882.5,-386"/>
<text text-anchor="middle" x="1861" y="-372.5" font-family="Helvetica,sans-Serif" font-size="10.00">cmath</text>
</a>
</g>
</g>
<!-- Node1&#45;&gt;Node37 -->
<g id="edge64_Node000001_Node000037" class="edge">
<title>Node1&#45;&gt;Node37</title>
<g id="a_edge64_Node000001_Node000037"><a xlink:title=" ">
<path fill="none" stroke="#63b8ff" d="M1475.47,-437.16C1559.83,-435.74 1709.03,-427.73 1831,-392 1832.17,-391.66 1833.36,-391.27 1834.54,-390.84"/>
<polygon fill="#63b8ff" stroke="#63b8ff" points="1835.75,-394.14 1843.54,-386.95 1832.97,-387.71 1835.75,-394.14"/>
</a>
</g>
</g>
<!-- Node38 -->
<g id="Node000038" class="node">
<title>Node38</title>
<g id="a_Node000038"><a xlink:title=" ">
<polygon fill="#e0e0e0" stroke="#999999" points="1997.88,-386 1900.12,-386 1900.12,-366 1997.88,-366 1997.88,-386"/>
<text text-anchor="middle" x="1949" y="-372.5" font-family="Helvetica,sans-Serif" font-size="10.00">nlohmann/json.hpp</text>
</a>
</g>
</g>
<!-- Node1&#45;&gt;Node38 -->
<g id="edge66_Node000001_Node000038" class="edge">
<title>Node1&#45;&gt;Node38</title>
<g id="a_edge66_Node000001_Node000038"><a xlink:title=" ">
<path fill="none" stroke="#63b8ff" d="M1475.48,-434.27C1569.03,-429.64 1744.59,-418.08 1892,-392 1896.41,-391.22 1900.97,-390.27 1905.52,-389.23"/>
<polygon fill="#63b8ff" stroke="#63b8ff" points="1906.3,-392.64 1915.18,-386.86 1904.63,-385.84 1906.3,-392.64"/>
</a>
</g>
</g>
<!-- Node2&#45;&gt;Node3 -->
<g id="edge2_Node000002_Node000003" class="edge">
<title>Node2&#45;&gt;Node3</title>
<g id="a_edge2_Node000002_Node000003"><a xlink:title=" ">
<path fill="none" stroke="#63b8ff" d="M876.31,-373.15C804.92,-369.12 700.68,-357.37 616,-324 583.53,-311.2 551.24,-286.5 531.69,-269.87"/>
<polygon fill="#63b8ff" stroke="#63b8ff" points="534.16,-267.38 524.32,-263.44 529.56,-272.65 534.16,-267.38"/>
</a>
</g>
</g>
<!-- Node2&#45;&gt;Node7 -->
<g id="edge51_Node000002_Node000007" class="edge">
<title>Node2&#45;&gt;Node7</title>
<g id="a_edge51_Node000002_Node000007"><a xlink:title=" ">
<path fill="none" stroke="#63b8ff" d="M876.41,-370.08C797.8,-364.01 677.39,-350.97 576,-324 392.29,-275.12 350.97,-241.86 188,-144 151.41,-122.03 136.9,-121.13 110,-88 96.21,-71.02 86.93,-47.57 81.59,-31.03"/>
<polygon fill="#63b8ff" stroke="#63b8ff" points="85.06,-30.41 78.83,-21.84 78.35,-32.42 85.06,-30.41"/>
</a>
</g>
</g>
<!-- Node2&#45;&gt;Node9 -->
<g id="edge55_Node000002_Node000009" class="edge">
<title>Node2&#45;&gt;Node9</title>
<g id="a_edge55_Node000002_Node000009"><a xlink:title=" ">
<path fill="none" stroke="#63b8ff" d="M973.26,-365.79C985.17,-356.69 1001.98,-341.6 1010,-324 1026.26,-288.3 1004.94,-273.33 1017,-236 1025.95,-208.29 1032.02,-202.08 1051,-180 1106.93,-114.92 1189.41,-54.44 1229.46,-26.79"/>
<polygon fill="#63b8ff" stroke="#63b8ff" points="1231.38,-29.71 1237.66,-21.18 1227.43,-23.93 1231.38,-29.71"/>
</a>
</g>
</g>
<!-- Node14 -->
<g id="Node000014" class="node">
<title>Node14</title>
<g id="a_Node000014"><a xlink:title=" ">
<polygon fill="#e0e0e0" stroke="#999999" points="979,-20 939,-20 939,0 979,0 979,-20"/>
<text text-anchor="middle" x="959" y="-6.5" font-family="Helvetica,sans-Serif" font-size="10.00">string</text>
</a>
</g>
</g>
<!-- Node2&#45;&gt;Node14 -->
<g id="edge52_Node000002_Node000014" class="edge">
<title>Node2&#45;&gt;Node14</title>
<g id="a_edge52_Node000002_Node000014"><a xlink:title=" ">
<path fill="none" stroke="#63b8ff" d="M926.87,-365.63C906.57,-357.98 882.21,-344.95 870,-324 865.52,-316.32 868.49,-312.76 870,-304 887.37,-203.57 921.93,-186.79 947,-88 951.78,-69.15 954.98,-47.19 956.86,-31.56"/>
<polygon fill="#63b8ff" stroke="#63b8ff" points="960.34,-31.95 957.97,-21.62 953.38,-31.17 960.34,-31.95"/>
</a>
</g>
</g>
<!-- Node20 -->
<g id="Node000020" class="node">
<title>Node20</title>
<g id="a_Node000020"><a xlink:href="ObjectTracker_8hpp.html" target="_top" xlink:title=" ">
<polygon fill="white" stroke="#666666" points="772.62,-324 625.38,-324 625.38,-304 772.62,-304 772.62,-324"/>
<text text-anchor="middle" x="699" y="-310.5" font-family="Helvetica,sans-Serif" font-size="10.00">EyeAICore/ObjectTracker.hpp</text>
</a>
</g>
</g>
<!-- Node2&#45;&gt;Node20 -->
<g id="edge30_Node000002_Node000020" class="edge">
<title>Node2&#45;&gt;Node20</title>
<g id="a_edge30_Node000002_Node000020"><a xlink:title=" ">
<path fill="none" stroke="#63b8ff" d="M918.93,-365.56C873.65,-355.15 800.69,-338.38 751.34,-327.03"/>
<polygon fill="#63b8ff" stroke="#63b8ff" points="752.26,-323.65 741.73,-324.82 750.7,-330.48 752.26,-323.65"/>
</a>
</g>
</g>
<!-- Node2&#45;&gt;Node23 -->
<g id="edge34_Node000002_Node000023" class="edge">
<title>Node2&#45;&gt;Node23</title>
<g id="a_edge34_Node000002_Node000023"><a xlink:title=" ">
<path fill="none" stroke="#63b8ff" d="M1018.06,-365.56C1083.43,-354.93 1189.6,-337.67 1259.37,-326.32"/>
<polygon fill="#63b8ff" stroke="#63b8ff" points="1259.87,-329.79 1269.17,-324.73 1258.74,-322.88 1259.87,-329.79"/>
</a>
</g>
</g>
<!-- Node2&#45;&gt;Node26 -->
<g id="edge47_Node000002_Node000026" class="edge">
<title>Node2&#45;&gt;Node26</title>
<g id="a_edge47_Node000002_Node000026"><a xlink:title=" ">
<path fill="none" stroke="#63b8ff" d="M976.13,-365.63C1009.61,-346.18 1087.39,-300.99 1133.61,-274.14"/>
<polygon fill="#63b8ff" stroke="#63b8ff" points="1135.32,-277.19 1142.21,-269.14 1131.81,-271.14 1135.32,-277.19"/>
</a>
</g>
</g>
<!-- Node29 -->
<g id="Node000029" class="node">
<title>Node29</title>
<g id="a_Node000029"><a xlink:title=" ">
<polygon fill="#e0e0e0" stroke="#999999" points="969.38,-262 922.62,-262 922.62,-242 969.38,-242 969.38,-262"/>
<text text-anchor="middle" x="946" y="-248.5" font-family="Helvetica,sans-Serif" font-size="10.00">AL/al.h</text>
</a>
</g>
</g>
<!-- Node2&#45;&gt;Node29 -->
<g id="edge48_Node000002_Node000029" class="edge">
<title>Node2&#45;&gt;Node29</title>
<g id="a_edge48_Node000002_Node000029"><a xlink:title=" ">
<path fill="none" stroke="#63b8ff" d="M931.03,-365.64C911.96,-357.79 888.47,-344.52 877,-324 864.36,-301.39 890.51,-280.8 914.16,-267.68"/>
<polygon fill="#63b8ff" stroke="#63b8ff" points="915.77,-270.79 923.02,-263.07 912.54,-264.58 915.77,-270.79"/>
</a>
</g>
</g>
<!-- Node30 -->
<g id="Node000030" class="node">
<title>Node30</title>
<g id="a_Node000030"><a xlink:title=" ">
<polygon fill="#e0e0e0" stroke="#999999" points="1078,-262 1026,-262 1026,-242 1078,-242 1078,-262"/>
<text text-anchor="middle" x="1052" y="-248.5" font-family="Helvetica,sans-Serif" font-size="10.00">AL/alc.h</text>
</a>
</g>
</g>
<!-- Node2&#45;&gt;Node30 -->
<g id="edge49_Node000002_Node000030" class="edge">
<title>Node2&#45;&gt;Node30</title>
<g id="a_edge49_Node000002_Node000030"><a xlink:title=" ">
<path fill="none" stroke="#63b8ff" d="M944.94,-365.58C925.11,-351.99 894.47,-326.07 910,-304 922.33,-286.48 976.88,-270.52 1014.66,-261.29"/>
<polygon fill="#63b8ff" stroke="#63b8ff" points="1015.39,-264.71 1024.31,-259 1013.77,-257.9 1015.39,-264.71"/>
</a>
</g>
</g>
<!-- Node32 -->
<g id="Node000032" class="node">
<title>Node32</title>
<g id="a_Node000032"><a xlink:title=" ">
<polygon fill="#e0e0e0" stroke="#999999" points="1193.88,-324 1156.12,-324 1156.12,-304 1193.88,-304 1193.88,-324"/>
<text text-anchor="middle" x="1175" y="-310.5" font-family="Helvetica,sans-Serif" font-size="10.00">array</text>
</a>
</g>
</g>
<!-- Node2&#45;&gt;Node32 -->
<g id="edge50_Node000002_Node000032" class="edge">
<title>Node2&#45;&gt;Node32</title>
<g id="a_edge50_Node000002_Node000032"><a xlink:title=" ">
<path fill="none" stroke="#63b8ff" d="M997.28,-365.56C1033.03,-356.35 1088.77,-341.62 1145,-324.8"/>
<polygon fill="#63b8ff" stroke="#63b8ff" points="1145.85,-328.2 1154.42,-321.96 1143.83,-321.5 1145.85,-328.2"/>
</a>
</g>
</g>
<!-- Node2&#45;&gt;Node33 -->
<g id="edge53_Node000002_Node000033" class="edge">
<title>Node2&#45;&gt;Node33</title>
<g id="a_edge53_Node000002_Node000033"><a xlink:title=" ">
<path fill="none" stroke="#63b8ff" d="M984.53,-365.62C1011.45,-355.34 1054.78,-338.78 1084.51,-327.42"/>
<polygon fill="#63b8ff" stroke="#63b8ff" points="1085.66,-330.72 1093.76,-323.88 1083.17,-324.18 1085.66,-330.72"/>
</a>
</g>
</g>
<!-- Node34 -->
<g id="Node000034" class="node">
<title>Node34</title>
<g id="a_Node000034"><a xlink:title=" ">
<polygon fill="#e0e0e0" stroke="#999999" points="1001.38,-324 918.62,-324 918.62,-304 1001.38,-304 1001.38,-324"/>
<text text-anchor="middle" x="960" y="-310.5" font-family="Helvetica,sans-Serif" font-size="10.00">unordered_map</text>
</a>
</g>
</g>
<!-- Node2&#45;&gt;Node34 -->
<g id="edge54_Node000002_Node000034" class="edge">
<title>Node2&#45;&gt;Node34</title>
<g id="a_edge54_Node000002_Node000034"><a xlink:title=" ">
<path fill="none" stroke="#63b8ff" d="M960,-365.62C960,-357.56 960,-345.65 960,-335.41"/>
<polygon fill="#63b8ff" stroke="#63b8ff" points="963.5,-335.63 960,-325.63 956.5,-335.63 963.5,-335.63"/>
</a>
</g>
</g>
<!-- Node4 -->
<g id="Node000004" class="node">
<title>Node4</title>
<g id="a_Node000004"><a xlink:href="TensorBuffer_8hpp.html" target="_top" xlink:title=" ">
<polygon fill="white" stroke="#666666" points="320.25,-82 179.75,-82 179.75,-62 320.25,-62 320.25,-82"/>
<text text-anchor="middle" x="250" y="-68.5" font-family="Helvetica,sans-Serif" font-size="10.00">EyeAICore/TensorBuffer.hpp</text>
</a>
</g>
</g>
<!-- Node3&#45;&gt;Node4 -->
<g id="edge3_Node000003_Node000004" class="edge">
<title>Node3&#45;&gt;Node4</title>
<g id="a_edge3_Node000003_Node000004"><a xlink:title=" ">
<path fill="none" stroke="#63b8ff" d="M493.8,-241.63C474.47,-231.96 444,-216.05 419,-200 362.46,-163.7 300.37,-114.37 269.57,-89.21"/>
<polygon fill="#63b8ff" stroke="#63b8ff" points="272.18,-86.83 262.23,-83.18 267.73,-92.23 272.18,-86.83"/>
</a>
</g>
</g>
<!-- Node10 -->
<g id="Node000010" class="node">
<title>Node10</title>
<g id="a_Node000010"><a xlink:href="TfLiteRuntime_8hpp.html" target="_top" xlink:title=" ">
<polygon fill="white" stroke="#666666" points="597.5,-200 428.5,-200 428.5,-180 597.5,-180 597.5,-200"/>
<text text-anchor="middle" x="513" y="-186.5" font-family="Helvetica,sans-Serif" font-size="10.00">EyeAICore/tflite/TfLiteRuntime.hpp</text>
</a>
</g>
</g>
<!-- Node3&#45;&gt;Node10 -->
<g id="edge9_Node000003_Node000010" class="edge">
<title>Node3&#45;&gt;Node10</title>
<g id="a_edge9_Node000003_Node000010"><a xlink:title=" ">
<path fill="none" stroke="#63b8ff" d="M513,-241.62C513,-233.56 513,-221.65 513,-211.41"/>
<polygon fill="#63b8ff" stroke="#63b8ff" points="516.5,-211.63 513,-201.63 509.5,-211.63 516.5,-211.63"/>
</a>
</g>
</g>
<!-- Node5 -->
<g id="Node000005" class="node">
<title>Node5</title>
<g id="a_Node000005"><a xlink:title=" ">
<polygon fill="#e0e0e0" stroke="#999999" points="305.62,-20 260.38,-20 260.38,0 305.62,0 305.62,-20"/>
<text text-anchor="middle" x="283" y="-6.5" font-family="Helvetica,sans-Serif" font-size="10.00">cstdint</text>
</a>
</g>
</g>
<!-- Node4&#45;&gt;Node5 -->
<g id="edge4_Node000004_Node000005" class="edge">
<title>Node4&#45;&gt;Node5</title>
<g id="a_edge4_Node000004_Node000005"><a xlink:title=" ">
<path fill="none" stroke="#63b8ff" d="M255.16,-61.62C259.78,-53.21 266.72,-40.6 272.51,-30.07"/>
<polygon fill="#63b8ff" stroke="#63b8ff" points="275.51,-31.89 277.26,-21.44 269.37,-28.51 275.51,-31.89"/>
</a>
</g>
</g>
<!-- Node6 -->
<g id="Node000006" class="node">
<title>Node6</title>
<g id="a_Node000006"><a xlink:title=" ">
<polygon fill="#e0e0e0" stroke="#999999" points="242.62,-20 191.38,-20 191.38,0 242.62,0 242.62,-20"/>
<text text-anchor="middle" x="217" y="-6.5" font-family="Helvetica,sans-Serif" font-size="10.00">memory</text>
</a>
</g>
</g>
<!-- Node4&#45;&gt;Node6 -->
<g id="edge5_Node000004_Node000006" class="edge">
<title>Node4&#45;&gt;Node6</title>
<g id="a_edge5_Node000004_Node000006"><a xlink:title=" ">
<path fill="none" stroke="#63b8ff" d="M244.84,-61.62C240.22,-53.21 233.28,-40.6 227.49,-30.07"/>
<polygon fill="#63b8ff" stroke="#63b8ff" points="230.63,-28.51 222.74,-21.44 224.49,-31.89 230.63,-28.51"/>
</a>
</g>
</g>
<!-- Node4&#45;&gt;Node7 -->
<g id="edge6_Node000004_Node000007" class="edge">
<title>Node4&#45;&gt;Node7</title>
<g id="a_edge6_Node000004_Node000007"><a xlink:title=" ">
<path fill="none" stroke="#63b8ff" d="M222.81,-61.62C191.01,-50.66 138.53,-32.56 105.68,-21.24"/>
<polygon fill="#63b8ff" stroke="#63b8ff" points="106.98,-17.98 96.38,-18.03 104.7,-24.6 106.98,-17.98"/>
</a>
</g>
</g>
<!-- Node8 -->
<g id="Node000008" class="node">
<title>Node8</title>
<g id="a_Node000008"><a xlink:title=" ">
<polygon fill="#e0e0e0" stroke="#999999" points="426.62,-20 381.38,-20 381.38,0 426.62,0 426.62,-20"/>
<text text-anchor="middle" x="404" y="-6.5" font-family="Helvetica,sans-Serif" font-size="10.00">variant</text>
</a>
</g>
</g>
<!-- Node4&#45;&gt;Node8 -->
<g id="edge7_Node000004_Node000008" class="edge">
<title>Node4&#45;&gt;Node8</title>
<g id="a_edge7_Node000004_Node000008"><a xlink:title=" ">
<path fill="none" stroke="#63b8ff" d="M274.06,-61.62C300.02,-51.51 341.52,-35.34 370.62,-24"/>
<polygon fill="#63b8ff" stroke="#63b8ff" points="371.65,-27.36 379.7,-20.47 369.11,-20.84 371.65,-27.36"/>
</a>
</g>
</g>
<!-- Node4&#45;&gt;Node9 -->
<g id="edge8_Node000004_Node000009" class="edge">
<title>Node4&#45;&gt;Node9</title>
<g id="a_edge8_Node000004_Node000009"><a xlink:title=" ">
<path fill="none" stroke="#63b8ff" d="M294.12,-61.5C305.44,-59.37 317.63,-57.35 329,-56 418.77,-45.34 1065.37,-18.62 1219.9,-12.34"/>
<polygon fill="#63b8ff" stroke="#63b8ff" points="1219.98,-15.84 1229.83,-11.94 1219.7,-8.84 1219.98,-15.84"/>
</a>
</g>
</g>
<!-- Node10&#45;&gt;Node4 -->
<g id="edge10_Node000010_Node000004" class="edge">
<title>Node10&#45;&gt;Node4</title>
<g id="a_edge10_Node000010_Node000004"><a xlink:title=" ">
<path fill="none" stroke="#63b8ff" d="M491.48,-179.51C445.22,-159.11 336.15,-111 281.85,-87.05"/>
<polygon fill="#63b8ff" stroke="#63b8ff" points="283.4,-83.91 272.84,-83.07 280.57,-90.31 283.4,-83.91"/>
</a>
</g>
</g>
<!-- Node10&#45;&gt;Node6 -->
<g id="edge26_Node000010_Node000006" class="edge">
<title>Node10&#45;&gt;Node6</title>
<g id="a_edge26_Node000010_Node000006"><a xlink:title=" ">
<path fill="none" stroke="#63b8ff" d="M450.03,-179.51C360.75,-164.61 204.45,-132.76 171,-88 162.49,-76.61 165.49,-69.11 171,-56 175.69,-44.84 184.66,-35.07 193.43,-27.5"/>
<polygon fill="#63b8ff" stroke="#63b8ff" points="195.47,-30.35 201.14,-21.4 191.13,-24.87 195.47,-30.35"/>
</a>
</g>
</g>
<!-- Node10&#45;&gt;Node7 -->
<g id="edge27_Node000010_Node000007" class="edge">
<title>Node10&#45;&gt;Node7</title>
<g id="a_edge27_Node000010_Node000007"><a xlink:title=" ">
<path fill="none" stroke="#63b8ff" d="M428.07,-188.01C368.95,-184.44 289.63,-173.73 226,-144 167.36,-116.6 114.76,-58.82 90.37,-29.26"/>
<polygon fill="#63b8ff" stroke="#63b8ff" points="93.17,-27.16 84.16,-21.58 87.72,-31.56 93.17,-27.16"/>
</a>
</g>
</g>
<!-- Node11 -->
<g id="Node000011" class="node">
<title>Node11</title>
<g id="a_Node000011"><a xlink:href="TfLiteUtils_8hpp.html" target="_top" xlink:title=" ">
<polygon fill="white" stroke="#666666" points="550.88,-144 471.12,-144 471.12,-124 550.88,-124 550.88,-144"/>
<text text-anchor="middle" x="511" y="-130.5" font-family="Helvetica,sans-Serif" font-size="10.00">TfLiteUtils.hpp</text>
</a>
</g>
</g>
<!-- Node10&#45;&gt;Node11 -->
<g id="edge11_Node000010_Node000011" class="edge">
<title>Node10&#45;&gt;Node11</title>
<g id="a_edge11_Node000010_Node000011"><a xlink:title=" ">
<path fill="none" stroke="#63b8ff" d="M512.65,-179.59C512.41,-173.01 512.07,-163.96 511.77,-155.73"/>
<polygon fill="#63b8ff" stroke="#63b8ff" points="515.27,-155.67 511.4,-145.81 508.27,-155.93 515.27,-155.67"/>
</a>
</g>
</g>
<!-- Node10&#45;&gt;Node14 -->
<g id="edge28_Node000010_Node000014" class="edge">
<title>Node10&#45;&gt;Node14</title>
<g id="a_edge28_Node000010_Node000014"><a xlink:title=" ">
<path fill="none" stroke="#63b8ff" d="M597.9,-188.26C687.4,-183.25 828.04,-162.79 921,-88 938.75,-73.72 948.85,-49.05 954.11,-31.48"/>
<polygon fill="#63b8ff" stroke="#63b8ff" points="957.47,-32.46 956.67,-21.89 950.71,-30.65 957.47,-32.46"/>
</a>
</g>
</g>
<!-- Node17 -->
<g id="Node000017" class="node">
<title>Node17</title>
<g id="a_Node000017"><a xlink:title=" ">
<polygon fill="#e0e0e0" stroke="#999999" points="660.75,-82 595.25,-82 595.25,-62 660.75,-62 660.75,-82"/>
<text text-anchor="middle" x="628" y="-68.5" font-family="Helvetica,sans-Serif" font-size="10.00">string_view</text>
</a>
</g>
</g>
<!-- Node10&#45;&gt;Node17 -->
<g id="edge29_Node000010_Node000017" class="edge">
<title>Node10&#45;&gt;Node17</title>
<g id="a_edge29_Node000010_Node000017"><a xlink:title=" ">
<path fill="none" stroke="#63b8ff" d="M522.84,-179.81C532.43,-170.8 547.38,-156.62 560,-144 577.99,-126.01 598.09,-104.9 611.73,-90.4"/>
<polygon fill="#63b8ff" stroke="#63b8ff" points="614,-93.1 618.29,-83.42 608.89,-88.31 614,-93.1"/>
</a>
</g>
</g>
<!-- Node18 -->
<g id="Node000018" class="node">
<title>Node18</title>
<g id="a_Node000018"><a xlink:title=" ">
<polygon fill="#e0e0e0" stroke="#999999" points="771.62,-88 678.38,-88 678.38,-56 771.62,-56 771.62,-88"/>
<text text-anchor="start" x="686.38" y="-74.5" font-family="Helvetica,sans-Serif" font-size="10.00">tensorflow/lite/c/c</text>
<text text-anchor="middle" x="725" y="-62.5" font-family="Helvetica,sans-Serif" font-size="10.00">_api.h</text>
</a>
</g>
</g>
<!-- Node10&#45;&gt;Node18 -->
<g id="edge24_Node000010_Node000018" class="edge">
<title>Node10&#45;&gt;Node18</title>
<g id="a_edge24_Node000010_Node000018"><a xlink:title=" ">
<path fill="none" stroke="#63b8ff" d="M530.35,-179.51C564.37,-160.89 640.54,-119.22 686.86,-93.87"/>
<polygon fill="#63b8ff" stroke="#63b8ff" points="688.41,-97.01 695.5,-89.14 685.05,-90.87 688.41,-97.01"/>
</a>
</g>
</g>
<!-- Node19 -->
<g id="Node000019" class="node">
<title>Node19</title>
<g id="a_Node000019"><a xlink:title=" ">
<polygon fill="#e0e0e0" stroke="#999999" points="911.88,-88 790.12,-88 790.12,-56 911.88,-56 911.88,-88"/>
<text text-anchor="start" x="798.12" y="-74.5" font-family="Helvetica,sans-Serif" font-size="10.00">tensorflow/lite/delegates</text>
<text text-anchor="middle" x="851" y="-62.5" font-family="Helvetica,sans-Serif" font-size="10.00">/gpu/delegate.h</text>
</a>
</g>
</g>
<!-- Node10&#45;&gt;Node19 -->
<g id="edge25_Node000010_Node000019" class="edge">
<title>Node10&#45;&gt;Node19</title>
<g id="a_edge25_Node000010_Node000019"><a xlink:title=" ">
<path fill="none" stroke="#63b8ff" d="M540.66,-179.51C596.15,-160.46 721.98,-117.28 795.24,-92.14"/>
<polygon fill="#63b8ff" stroke="#63b8ff" points="796.34,-95.46 804.66,-88.9 794.06,-88.84 796.34,-95.46"/>
</a>
</g>
</g>
<!-- Node11&#45;&gt;Node4 -->
<g id="edge12_Node000011_Node000004" class="edge">
<title>Node11&#45;&gt;Node4</title>
<g id="a_edge12_Node000011_Node000004"><a xlink:title=" ">
<path fill="none" stroke="#63b8ff" d="M470.79,-123.76C425.55,-113.36 351.93,-96.43 302.26,-85.01"/>
<polygon fill="#63b8ff" stroke="#63b8ff" points="303.12,-81.62 292.59,-82.79 301.55,-88.44 303.12,-81.62"/>
</a>
</g>
</g>
<!-- Node11&#45;&gt;Node6 -->
<g id="edge18_Node000011_Node000006" class="edge">
<title>Node11&#45;&gt;Node6</title>
<g id="a_edge18_Node000011_Node000006"><a xlink:title=" ">
<path fill="none" stroke="#63b8ff" d="M493.28,-123.6C477.54,-115 454.13,-101.58 435,-88 416.99,-75.22 416.68,-66.02 397,-56 340.58,-27.28 318.14,-35.52 254.08,-20.64"/>
<polygon fill="#63b8ff" stroke="#63b8ff" points="254.99,-17.26 244.45,-18.28 253.33,-24.06 254.99,-17.26"/>
</a>
</g>
</g>
<!-- Node11&#45;&gt;Node7 -->
<g id="edge20_Node000011_Node000007" class="edge">
<title>Node11&#45;&gt;Node7</title>
<g id="a_edge20_Node000011_Node000007"><a xlink:title=" ">
<path fill="none" stroke="#63b8ff" d="M470.77,-130.42C392.82,-124.97 224.19,-110.89 171,-88 138.99,-74.23 108.97,-46.46 91.55,-28.31"/>
<polygon fill="#63b8ff" stroke="#63b8ff" points="94.47,-26.3 85.09,-21.38 89.35,-31.08 94.47,-26.3"/>
</a>
</g>
</g>
<!-- Node12 -->
<g id="Node000012" class="node">
<title>Node12</title>
<g id="a_Node000012"><a xlink:href="Errors_8hpp.html" target="_top" xlink:title=" ">
<polygon fill="white" stroke="#666666" points="577.5,-82 444.5,-82 444.5,-62 577.5,-62 577.5,-82"/>
<text text-anchor="middle" x="511" y="-68.5" font-family="Helvetica,sans-Serif" font-size="10.00">EyeAICore/utils/Errors.hpp</text>
</a>
</g>
</g>
<!-- Node11&#45;&gt;Node12 -->
<g id="edge13_Node000011_Node000012" class="edge">
<title>Node11&#45;&gt;Node12</title>
<g id="a_edge13_Node000011_Node000012"><a xlink:title=" ">
<path fill="none" stroke="#63b8ff" d="M511,-123.62C511,-115.56 511,-103.65 511,-93.41"/>
<polygon fill="#63b8ff" stroke="#63b8ff" points="514.5,-93.63 511,-83.63 507.5,-93.63 514.5,-93.63"/>
</a>
</g>
</g>
<!-- Node16 -->
<g id="Node000016" class="node">
<title>Node16</title>
<g id="a_Node000016"><a xlink:title=" ">
<polygon fill="#e0e0e0" stroke="#999999" points="387.88,-82 338.12,-82 338.12,-62 387.88,-62 387.88,-82"/>
<text text-anchor="middle" x="363" y="-68.5" font-family="Helvetica,sans-Serif" font-size="10.00">optional</text>
</a>
</g>
</g>
<!-- Node11&#45;&gt;Node16 -->
<g id="edge19_Node000011_Node000016" class="edge">
<title>Node11&#45;&gt;Node16</title>
<g id="a_edge19_Node000011_Node000016"><a xlink:title=" ">
<path fill="none" stroke="#63b8ff" d="M487.88,-123.62C463.33,-113.67 424.31,-97.85 396.42,-86.55"/>
<polygon fill="#63b8ff" stroke="#63b8ff" points="397.95,-83.39 387.37,-82.88 395.32,-89.88 397.95,-83.39"/>
</a>
</g>
</g>
<!-- Node11&#45;&gt;Node17 -->
<g id="edge21_Node000011_Node000017" class="edge">
<title>Node11&#45;&gt;Node17</title>
<g id="a_edge21_Node000011_Node000017"><a xlink:title=" ">
<path fill="none" stroke="#63b8ff" d="M529.28,-123.62C548.17,-113.94 577.9,-98.69 599.81,-87.46"/>
<polygon fill="#63b8ff" stroke="#63b8ff" points="601.2,-90.68 608.5,-83 598.01,-84.45 601.2,-90.68"/>
</a>
</g>
</g>
<!-- Node11&#45;&gt;Node18 -->
<g id="edge22_Node000011_Node000018" class="edge">
<title>Node11&#45;&gt;Node18</title>
<g id="a_edge22_Node000011_Node000018"><a xlink:title=" ">
<path fill="none" stroke="#63b8ff" d="M544.44,-123.62C577.14,-114.46 627.61,-100.31 666.89,-89.29"/>
<polygon fill="#63b8ff" stroke="#63b8ff" points="667.76,-92.68 676.45,-86.61 665.87,-85.94 667.76,-92.68"/>
</a>
</g>
</g>
<!-- Node11&#45;&gt;Node19 -->
<g id="edge23_Node000011_Node000019" class="edge">
<title>Node11&#45;&gt;Node19</title>
<g id="a_edge23_Node000011_Node000019"><a xlink:title=" ">
<path fill="none" stroke="#63b8ff" d="M551.36,-126.87C602.06,-119.03 692.01,-104.7 778.83,-88.36"/>
<polygon fill="#63b8ff" stroke="#63b8ff" points="779.29,-91.84 788.46,-86.54 777.99,-84.96 779.29,-91.84"/>
</a>
</g>
</g>
<!-- Node12&#45;&gt;Node8 -->
<g id="edge17_Node000012_Node000008" class="edge">
<title>Node12&#45;&gt;Node8</title>
<g id="a_edge17_Node000012_Node000008"><a xlink:title=" ">
<path fill="none" stroke="#63b8ff" d="M494.28,-61.62C477.24,-52.07 450.55,-37.11 430.61,-25.92"/>
<polygon fill="#63b8ff" stroke="#63b8ff" points="432.36,-22.89 421.92,-21.05 428.93,-28.99 432.36,-22.89"/>
</a>
</g>
</g>
<!-- Node12&#45;&gt;Node13 -->
<g id="edge14_Node000012_Node000013" class="edge">
<title>Node12&#45;&gt;Node13</title>
<g id="a_edge14_Node000012_Node000013"><a xlink:title=" ">
<path fill="none" stroke="#63b8ff" d="M552.47,-61.55C563.33,-59.4 575.06,-57.35 586,-56 678.24,-44.65 1343.61,-18.41 1501.47,-12.29"/>
<polygon fill="#63b8ff" stroke="#63b8ff" points="1501.39,-15.8 1511.25,-11.91 1501.12,-8.8 1501.39,-15.8"/>
</a>
</g>
</g>
<!-- Node12&#45;&gt;Node14 -->
<g id="edge15_Node000012_Node000014" class="edge">
<title>Node12&#45;&gt;Node14</title>
<g id="a_edge15_Node000012_Node000014"><a xlink:title=" ">
<path fill="none" stroke="#63b8ff" d="M555.31,-61.55C565.38,-59.57 576.04,-57.6 586,-56 711.85,-35.85 862.9,-20.24 927.35,-13.98"/>
<polygon fill="#63b8ff" stroke="#63b8ff" points="927.58,-17.48 937.2,-13.04 926.91,-10.51 927.58,-17.48"/>
</a>
</g>
</g>
<!-- Node15 -->
<g id="Node000015" class="node">
<title>Node15</title>
<g id="a_Node000015"><a xlink:title=" ">
<polygon fill="#e0e0e0" stroke="#999999" points="552.38,-20 469.62,-20 469.62,0 552.38,0 552.38,-20"/>
<text text-anchor="middle" x="511" y="-6.5" font-family="Helvetica,sans-Serif" font-size="10.00">tl/expected.hpp</text>
</a>
</g>
</g>
<!-- Node12&#45;&gt;Node15 -->
<g id="edge16_Node000012_Node000015" class="edge">
<title>Node12&#45;&gt;Node15</title>
<g id="a_edge16_Node000012_Node000015"><a xlink:title=" ">
<path fill="none" stroke="#63b8ff" d="M511,-61.62C511,-53.56 511,-41.65 511,-31.41"/>
<polygon fill="#63b8ff" stroke="#63b8ff" points="514.5,-31.63 511,-21.63 507.5,-31.63 514.5,-31.63"/>
</a>
</g>
</g>
<!-- Node20&#45;&gt;Node3 -->
<g id="edge32_Node000020_Node000003" class="edge">
<title>Node20&#45;&gt;Node3</title>
<g id="a_edge32_Node000020_Node000003"><a xlink:title=" ">
<path fill="none" stroke="#63b8ff" d="M669.94,-303.62C638.5,-293.48 588.17,-277.25 553,-265.9"/>
<polygon fill="#63b8ff" stroke="#63b8ff" points="554.2,-262.61 543.61,-262.87 552.05,-269.27 554.2,-262.61"/>
</a>
</g>
</g>
<!-- Node21 -->
<g id="Node000021" class="node">
<title>Node21</title>
<g id="a_Node000021"><a xlink:title=" ">
<polygon fill="#e0e0e0" stroke="#999999" points="858.38,-262 757.62,-262 757.62,-242 858.38,-242 858.38,-262"/>
<text text-anchor="middle" x="808" y="-248.5" font-family="Helvetica,sans-Serif" font-size="10.00">ByteTrack/Object.h</text>
</a>
</g>
</g>
<!-- Node20&#45;&gt;Node21 -->
<g id="edge31_Node000020_Node000021" class="edge">
<title>Node20&#45;&gt;Node21</title>
<g id="a_edge31_Node000020_Node000021"><a xlink:title=" ">
<path fill="none" stroke="#63b8ff" d="M716.03,-303.62C733.47,-294.03 760.83,-278.97 781.18,-267.77"/>
<polygon fill="#63b8ff" stroke="#63b8ff" points="782.69,-270.93 789.76,-263.04 779.31,-264.8 782.69,-270.93"/>
</a>
</g>
</g>
<!-- Node22 -->
<g id="Node000022" class="node">
<title>Node22</title>
<g id="a_Node000022"><a xlink:title=" ">
<polygon fill="#e0e0e0" stroke="#999999" points="739.75,-262 608.25,-262 608.25,-242 739.75,-242 739.75,-262"/>
<text text-anchor="middle" x="674" y="-248.5" font-family="Helvetica,sans-Serif" font-size="10.00">ByteTrack/BYTETracker.h</text>
</a>
</g>
</g>
<!-- Node20&#45;&gt;Node22 -->
<g id="edge33_Node000020_Node000022" class="edge">
<title>Node20&#45;&gt;Node22</title>
<g id="a_edge33_Node000020_Node000022"><a xlink:title=" ">
<path fill="none" stroke="#63b8ff" d="M695.09,-303.62C691.66,-295.39 686.55,-283.13 682.22,-272.74"/>
<polygon fill="#63b8ff" stroke="#63b8ff" points="685.46,-271.39 678.38,-263.51 678.99,-274.09 685.46,-271.39"/>
</a>
</g>
</g>
<!-- Node23&#45;&gt;Node9 -->
<g id="edge46_Node000023_Node000009" class="edge">
<title>Node23&#45;&gt;Node9</title>
<g id="a_edge46_Node000023_Node000009"><a xlink:title=" ">
<path fill="none" stroke="#63b8ff" d="M1318.78,-303.61C1310.13,-295.11 1298.06,-281.85 1291,-268 1274.99,-236.6 1272,-226.25 1272,-191 1272,-191 1272,-191 1272,-133 1272,-96.86 1263.76,-55.4 1258.13,-31.31"/>
<polygon fill="#63b8ff" stroke="#63b8ff" points="1261.6,-30.78 1255.84,-21.88 1254.8,-32.43 1261.6,-30.78"/>
</a>
</g>
</g>
<!-- Node23&#45;&gt;Node24 -->
<g id="edge35_Node000023_Node000024" class="edge">
<title>Node23&#45;&gt;Node24</title>
<g id="a_edge35_Node000023_Node000024"><a xlink:title=" ">
<path fill="none" stroke="#63b8ff" d="M1345.72,-303.62C1359.84,-295.71 1380.58,-284.08 1398.62,-273.96"/>
<polygon fill="#63b8ff" stroke="#63b8ff" points="1400.25,-277.06 1407.26,-269.11 1396.83,-270.95 1400.25,-277.06"/>
</a>
</g>
</g>
<!-- Node23&#45;&gt;Node25 -->
<g id="edge37_Node000023_Node000025" class="edge">
<title>Node23&#45;&gt;Node25</title>
<g id="a_edge37_Node000023_Node000025"><a xlink:title=" ">
<path fill="none" stroke="#63b8ff" d="M1371.48,-303.56C1410.75,-294.83 1470.14,-281.64 1518.39,-270.91"/>
<polygon fill="#63b8ff" stroke="#63b8ff" points="1518.97,-274.37 1527.97,-268.78 1517.45,-267.54 1518.97,-274.37"/>
</a>
</g>
</g>
<!-- Node23&#45;&gt;Node26 -->
<g id="edge38_Node000023_Node000026" class="edge">
<title>Node23&#45;&gt;Node26</title>
<g id="a_edge38_Node000023_Node000026"><a xlink:title=" ">
<path fill="none" stroke="#63b8ff" d="M1304.16,-303.62C1282.18,-295.33 1249.41,-282.96 1221.75,-272.53"/>
<polygon fill="#63b8ff" stroke="#63b8ff" points="1223.06,-269.28 1212.47,-269.02 1220.59,-275.83 1223.06,-269.28"/>
</a>
</g>
</g>
<!-- Node23&#45;&gt;Node29 -->
<g id="edge43_Node000023_Node000029" class="edge">
<title>Node23&#45;&gt;Node29</title>
<g id="a_edge43_Node000023_Node000029"><a xlink:title=" ">
<path fill="none" stroke="#63b8ff" d="M1253.44,-303.5C1190.12,-295.2 1097.42,-282.28 1017,-268 1005.09,-265.89 992.13,-263.25 980.58,-260.78"/>
<polygon fill="#63b8ff" stroke="#63b8ff" points="981.59,-257.41 971.07,-258.71 980.1,-264.25 981.59,-257.41"/>
</a>
</g>
</g>
<!-- Node23&#45;&gt;Node30 -->
<g id="edge44_Node000023_Node000030" class="edge">
<title>Node23&#45;&gt;Node30</title>
<g id="a_edge44_Node000023_Node000030"><a xlink:title=" ">
<path fill="none" stroke="#63b8ff" d="M1254.65,-303.52C1206.25,-296.29 1142.11,-284.71 1087,-268 1085.42,-267.52 1083.81,-266.99 1082.2,-266.43"/>
<polygon fill="#63b8ff" stroke="#63b8ff" points="1083.7,-263.26 1073.12,-262.89 1081.17,-269.78 1083.7,-263.26"/>
</a>
</g>
</g>
<!-- Node31 -->
<g id="Node000031" class="node">
<title>Node31</title>
<g id="a_Node000031"><a xlink:title=" ">
<polygon fill="#e0e0e0" stroke="#999999" points="1345.62,-262 1300.38,-262 1300.38,-242 1345.62,-242 1345.62,-262"/>
<text text-anchor="middle" x="1323" y="-248.5" font-family="Helvetica,sans-Serif" font-size="10.00">atomic</text>
</a>
</g>
</g>
<!-- Node23&#45;&gt;Node31 -->
<g id="edge45_Node000023_Node000031" class="edge">
<title>Node23&#45;&gt;Node31</title>
<g id="a_edge45_Node000023_Node000031"><a xlink:title=" ">
<path fill="none" stroke="#63b8ff" d="M1328.06,-303.62C1327.26,-295.56 1326.07,-283.65 1325.04,-273.41"/>
<polygon fill="#63b8ff" stroke="#63b8ff" points="1328.54,-273.22 1324.06,-263.62 1321.57,-273.92 1328.54,-273.22"/>
</a>
</g>
</g>
<!-- Node24&#45;&gt;Node9 -->
<g id="edge36_Node000024_Node000009" class="edge">
<title>Node24&#45;&gt;Node9</title>
<g id="a_edge36_Node000024_Node000009"><a xlink:title=" ">
<path fill="none" stroke="#63b8ff" d="M1424.27,-235.62C1392,-193.3 1301.97,-75.22 1267.07,-29.46"/>
<polygon fill="#63b8ff" stroke="#63b8ff" points="1269.91,-27.41 1261.07,-21.58 1264.35,-31.65 1269.91,-27.41"/>
</a>
</g>
</g>
<!-- Node26&#45;&gt;Node9 -->
<g id="edge42_Node000026_Node000009" class="edge">
<title>Node26&#45;&gt;Node9</title>
<g id="a_edge42_Node000026_Node000009"><a xlink:title=" ">
<path fill="none" stroke="#63b8ff" d="M1187.46,-235.65C1197.03,-226.29 1208.28,-213.54 1215,-200 1243.09,-143.39 1250.42,-67.48 1252.33,-31.52"/>
<polygon fill="#63b8ff" stroke="#63b8ff" points="1255.82,-31.85 1252.75,-21.71 1248.82,-31.55 1255.82,-31.85"/>
</a>
</g>
</g>
<!-- Node26&#45;&gt;Node14 -->
<g id="edge41_Node000026_Node000014" class="edge">
<title>Node26&#45;&gt;Node14</title>
<g id="a_edge41_Node000026_Node000014"><a xlink:title=" ">
<path fill="none" stroke="#63b8ff" d="M1128.42,-235.51C1109.86,-227.09 1088.69,-215.25 1073,-200 1020.35,-148.82 1031.78,-117.72 992,-56 986.24,-47.07 979.36,-37.53 973.37,-29.54"/>
<polygon fill="#63b8ff" stroke="#63b8ff" points="976.19,-27.46 967.34,-21.62 970.62,-31.7 976.19,-27.46"/>
</a>
</g>
</g>
<!-- Node27 -->
<g id="Node000027" class="node">
<title>Node27</title>
<g id="a_Node000027"><a xlink:title=" ">
<polygon fill="#e0e0e0" stroke="#999999" points="1130.12,-200 1081.88,-200 1081.88,-180 1130.12,-180 1130.12,-200"/>
<text text-anchor="middle" x="1106" y="-186.5" font-family="Helvetica,sans-Serif" font-size="10.00">cstddef</text>
</a>
</g>
</g>
<!-- Node26&#45;&gt;Node27 -->
<g id="edge39_Node000026_Node000027" class="edge">
<title>Node26&#45;&gt;Node27</title>
<g id="a_edge39_Node000026_Node000027"><a xlink:title=" ">
<path fill="none" stroke="#63b8ff" d="M1153.52,-235.55C1144.54,-227.13 1133.4,-216.69 1124.17,-208.04"/>
<polygon fill="#63b8ff" stroke="#63b8ff" points="1126.83,-205.73 1117.14,-201.44 1122.04,-210.84 1126.83,-205.73"/>
</a>
</g>
</g>
<!-- Node28 -->
<g id="Node000028" class="node">
<title>Node28</title>
<g id="a_Node000028"><a xlink:title=" ">
<polygon fill="#e0e0e0" stroke="#999999" points="1206,-200 1148,-200 1148,-180 1206,-180 1206,-200"/>
<text text-anchor="middle" x="1177" y="-186.5" font-family="Helvetica,sans-Serif" font-size="10.00">sndfile.hh</text>
</a>
</g>
</g>
<!-- Node26&#45;&gt;Node28 -->
<g id="edge40_Node000026_Node000028" class="edge">
<title>Node26&#45;&gt;Node28</title>
<g id="a_edge40_Node000026_Node000028"><a xlink:title=" ">
<path fill="none" stroke="#63b8ff" d="M1171.8,-235.55C1172.65,-228.26 1173.68,-219.45 1174.6,-211.6"/>
<polygon fill="#63b8ff" stroke="#63b8ff" points="1178.04,-212.25 1175.73,-201.91 1171.09,-211.44 1178.04,-212.25"/>
</a>
</g>
</g>
<!-- Node35&#45;&gt;Node32 -->
<g id="edge59_Node000035_Node000032" class="edge">
<title>Node35&#45;&gt;Node32</title>
<g id="a_edge59_Node000035_Node000032"><a xlink:title=" ">
<path fill="none" stroke="#63b8ff" d="M1175,-359.55C1175,-352.34 1175,-343.66 1175,-335.88"/>
<polygon fill="#63b8ff" stroke="#63b8ff" points="1178.5,-335.92 1175,-325.92 1171.5,-335.92 1178.5,-335.92"/>
</a>
</g>
</g>
</g>
</svg>
