<?xml version="1.0" encoding="UTF-8" standalone="no"?>
<!DOCTYPE svg PUBLIC "-//W3C//DTD SVG 1.1//EN"
 "http://www.w3.org/Graphics/SVG/1.1/DTD/svg11.dtd">
<!-- Generated by graphviz version 12.2.1 (20241206.2353)
 -->
<!-- Title: include/EyeAICore/audio/SpatialAudioSettings.hpp Pages: 1 -->
<svg width="354pt" height="237pt"
 viewBox="0.00 0.00 353.74 237.25" xmlns="http://www.w3.org/2000/svg" xmlns:xlink="http://www.w3.org/1999/xlink">

<svg id="main" version="1.1" xmlns="http://www.w3.org/2000/svg" xmlns:xlink="http://www.w3.org/1999/xlink" xml:space="preserve">

<style type="text/css"><![CDATA[
.node, .edge {opacity: 0.7;}
.node.selected, .edge.selected {opacity: 1;}
.edge:hover path { stroke: red; }
.edge:hover polygon { stroke: red; fill: red; }
]]></style>
<script type="application/ecmascript" xlink:href="svg.min.js"/>
<svg id="graph" class="graph">
<g id="graph0" class="graph" transform="scale(1 1) rotate(0) translate(4 233.25)">
<title>include/EyeAICore/audio/SpatialAudioSettings.hpp</title>
<!-- Node1 -->
<g id="Node000001" class="node">
<title>Node1</title>
<g id="a_Node000001"><a xlink:title=" ">
<polygon fill="#999999" stroke="#666666" points="280.88,-229.25 139.62,-229.25 139.62,-195.75 280.88,-195.75 280.88,-229.25"/>
<text text-anchor="start" x="147.62" y="-215.75" font-family="Helvetica,sans-Serif" font-size="10.00">include/EyeAICore/audio</text>
<text text-anchor="middle" x="210.25" y="-203" font-family="Helvetica,sans-Serif" font-size="10.00">/SpatialAudioSettings.hpp</text>
</a>
</g>
</g>
<!-- Node2 -->
<g id="Node000002" class="node">
<title>Node2</title>
<g id="a_Node000002"><a xlink:href="AudioMain_8hpp.html" target="_top" xlink:title=" ">
<polygon fill="white" stroke="#666666" points="229.5,-159.75 95,-159.75 95,-126.25 229.5,-126.25 229.5,-159.75"/>
<text text-anchor="start" x="103" y="-146.25" font-family="Helvetica,sans-Serif" font-size="10.00">include/EyeAICore/audio</text>
<text text-anchor="middle" x="162.25" y="-133.5" font-family="Helvetica,sans-Serif" font-size="10.00">/AudioMain.hpp</text>
</a>
</g>
</g>
<!-- Node1&#45;&gt;Node2 -->
<g id="edge1_Node000001_Node000002" class="edge">
<title>Node1&#45;&gt;Node2</title>
<g id="a_edge1_Node000001_Node000002"><a xlink:title=" ">
<path fill="none" stroke="#63b8ff" d="M192.36,-186.34C186.06,-177.48 179.15,-167.77 173.54,-159.88"/>
<polygon fill="#63b8ff" stroke="#63b8ff" points="189.35,-188.15 198,-194.27 195.05,-184.09 189.35,-188.15"/>
</a>
</g>
</g>
<!-- Node3 -->
<g id="Node000003" class="node">
<title>Node3</title>
<g id="a_Node000003"><a xlink:href="SpatialAudio_8hpp.html" target="_top" xlink:title=" ">
<polygon fill="white" stroke="#666666" points="134.5,-90.25 0,-90.25 0,-56.75 134.5,-56.75 134.5,-90.25"/>
<text text-anchor="start" x="8" y="-76.75" font-family="Helvetica,sans-Serif" font-size="10.00">include/EyeAICore/audio</text>
<text text-anchor="middle" x="67.25" y="-64" font-family="Helvetica,sans-Serif" font-size="10.00">/SpatialAudio.hpp</text>
</a>
</g>
</g>
<!-- Node1&#45;&gt;Node3 -->
<g id="edge6_Node000001_Node000003" class="edge">
<title>Node1&#45;&gt;Node3</title>
<g id="a_edge6_Node000001_Node000003"><a xlink:title=" ">
<path fill="none" stroke="#63b8ff" d="M129.55,-190.94C113.27,-183.47 97.66,-173.37 86.25,-159.75 69.79,-140.11 66.78,-109.25 66.64,-90.54"/>
<polygon fill="#63b8ff" stroke="#63b8ff" points="127.78,-193.99 138.36,-194.66 130.51,-187.54 127.78,-193.99"/>
</a>
</g>
</g>
<!-- Node4 -->
<g id="Node000004" class="node">
<title>Node4</title>
<g id="a_Node000004"><a xlink:href="SpatialAudio_8cpp.html" target="_top" xlink:title=" ">
<polygon fill="white" stroke="#666666" points="234.75,-20.75 89.75,-20.75 89.75,0 234.75,0 234.75,-20.75"/>
<text text-anchor="middle" x="162.25" y="-7.25" font-family="Helvetica,sans-Serif" font-size="10.00">src/audio/SpatialAudio.cpp</text>
</a>
</g>
</g>
<!-- Node1&#45;&gt;Node4 -->
<g id="edge8_Node000001_Node000004" class="edge">
<title>Node1&#45;&gt;Node4</title>
<g id="a_edge8_Node000001_Node000004"><a xlink:title=" ">
<path fill="none" stroke="#63b8ff" d="M250.22,-189.65C299.47,-159.9 372.36,-104.84 335.25,-56.75 322.54,-40.28 275.74,-28.62 234.01,-21.25"/>
<polygon fill="#63b8ff" stroke="#63b8ff" points="248.56,-186.56 241.72,-194.66 252.11,-192.59 248.56,-186.56"/>
</a>
</g>
</g>
<!-- Node5 -->
<g id="Node000005" class="node">
<title>Node5</title>
<g id="a_Node000005"><a xlink:href="AudioMain_8cpp.html" target="_top" xlink:title=" ">
<polygon fill="white" stroke="#666666" points="325.88,-83.88 190.62,-83.88 190.62,-63.12 325.88,-63.12 325.88,-83.88"/>
<text text-anchor="middle" x="258.25" y="-70.38" font-family="Helvetica,sans-Serif" font-size="10.00">src/audio/AudioMain.cpp</text>
</a>
</g>
</g>
<!-- Node1&#45;&gt;Node5 -->
<g id="edge7_Node000001_Node000005" class="edge">
<title>Node1&#45;&gt;Node5</title>
<g id="a_edge7_Node000001_Node000005"><a xlink:title=" ">
<path fill="none" stroke="#63b8ff" d="M226.12,-185.39C230.52,-177.37 234.97,-168.38 238.25,-159.75 248.3,-133.32 254.3,-100.29 256.83,-84.21"/>
<polygon fill="#63b8ff" stroke="#63b8ff" points="223.16,-183.52 221.24,-193.94 229.24,-186.99 223.16,-183.52"/>
</a>
</g>
</g>
<!-- Node2&#45;&gt;Node3 -->
<g id="edge2_Node000002_Node000003" class="edge">
<title>Node2&#45;&gt;Node3</title>
<g id="a_edge2_Node000002_Node000003"><a xlink:title=" ">
<path fill="none" stroke="#63b8ff" d="M130.46,-119.41C117.18,-109.98 102.06,-99.23 89.93,-90.62"/>
<polygon fill="#63b8ff" stroke="#63b8ff" points="128.32,-122.19 138.5,-125.13 132.38,-116.48 128.32,-122.19"/>
</a>
</g>
</g>
<!-- Node2&#45;&gt;Node4 -->
<g id="edge5_Node000002_Node000004" class="edge">
<title>Node2&#45;&gt;Node4</title>
<g id="a_edge5_Node000002_Node000004"><a xlink:title=" ">
<path fill="none" stroke="#63b8ff" d="M162.25,-114.53C162.25,-85.35 162.25,-40.76 162.25,-21.18"/>
<polygon fill="#63b8ff" stroke="#63b8ff" points="158.75,-114.47 162.25,-124.47 165.75,-114.47 158.75,-114.47"/>
</a>
</g>
</g>
<!-- Node2&#45;&gt;Node5 -->
<g id="edge4_Node000002_Node000005" class="edge">
<title>Node2&#45;&gt;Node5</title>
<g id="a_edge4_Node000002_Node000005"><a xlink:title=" ">
<path fill="none" stroke="#63b8ff" d="M194.07,-119.62C211.09,-107.66 231.17,-93.54 244.28,-84.32"/>
<polygon fill="#63b8ff" stroke="#63b8ff" points="192.41,-116.52 186.24,-125.13 196.43,-122.24 192.41,-116.52"/>
</a>
</g>
</g>
<!-- Node3&#45;&gt;Node4 -->
<g id="edge3_Node000003_Node000004" class="edge">
<title>Node3&#45;&gt;Node4</title>
<g id="a_edge3_Node000003_Node000004"><a xlink:title=" ">
<path fill="none" stroke="#63b8ff" d="M101.57,-50.42C117.12,-40.41 134.73,-29.08 146.95,-21.22"/>
<polygon fill="#63b8ff" stroke="#63b8ff" points="100,-47.27 93.48,-55.62 103.79,-53.15 100,-47.27"/>
</a>
</g>
</g>
</g>
</svg>
</svg>

<style type='text/css'>
<![CDATA[
[data-mouse-over-selected='false'] { opacity: 0.7; }
[data-mouse-over-selected='true']  { opacity: 1.0; }
]]>
</style>
<script type="application/ecmascript"><![CDATA[
document.addEventListener('DOMContentLoaded', (event) => {
  highlightEdges();
  highlightAdjacentNodes();
});
]]></script>
</svg>
