<?xml version="1.0" encoding="UTF-8" standalone="no"?>
<!DOCTYPE svg PUBLIC "-//W3C//DTD SVG 1.1//EN"
 "http://www.w3.org/Graphics/SVG/1.1/DTD/svg11.dtd">
<!-- Generated by graphviz version 12.2.1 (20241206.2353)
 -->
<!-- Title: TfLiteReporterUserData Pages: 1 -->
<svg width="179pt" height="182pt"
 viewBox="0.00 0.00 178.75 181.50" xmlns="http://www.w3.org/2000/svg" xmlns:xlink="http://www.w3.org/1999/xlink">
<g id="graph0" class="graph" transform="scale(1 1) rotate(0) translate(4 177.5)">
<title>TfLiteReporterUserData</title>
<!-- Node1 -->
<g id="Node000001" class="node">
<title>Node1</title>
<g id="a_Node000001"><a xlink:title="Callbacks invoked by the tflite runtime, passed around as void* user_data.">
<polygon fill="#999999" stroke="#666666" points="131.5,-20.75 0,-20.75 0,0 131.5,0 131.5,-20.75"/>
<text text-anchor="middle" x="65.75" y="-7.25" font-family="Helvetica,sans-Serif" font-size="10.00">TfLiteReporterUserData</text>
</a>
</g>
</g>
<!-- Node2 -->
<g id="Node000002" class="node">
<title>Node2</title>
<g id="a_Node000002"><a xlink:title=" ">
<polygon fill="white" stroke="#666666" points="98.12,-103 33.38,-103 33.38,-82.25 98.12,-82.25 98.12,-103"/>
<text text-anchor="middle" x="65.75" y="-89.5" font-family="Helvetica,sans-Serif" font-size="10.00">std::string</text>
</a>
</g>
</g>
<!-- Node2&#45;&gt;Node1 -->
<g id="edge1_Node000001_Node000002" class="edge">
<title>Node2&#45;&gt;Node1</title>
<g id="a_edge1_Node000001_Node000002"><a xlink:title=" ">
<path fill="none" stroke="#9a32cd" stroke-dasharray="5,2" d="M65.75,-70.74C65.75,-54.59 65.75,-32.99 65.75,-20.8"/>
<polygon fill="#9a32cd" stroke="#9a32cd" points="62.25,-70.27 65.75,-80.27 69.25,-70.27 62.25,-70.27"/>
</a>
</g>
<text text-anchor="middle" x="118.25" y="-54.75" font-family="Helvetica,sans-Serif" font-size="10.00" fill="grey"> log_error_callback</text>
<text text-anchor="middle" x="118.25" y="-42" font-family="Helvetica,sans-Serif" font-size="10.00" fill="grey">log_warning_callback</text>
</g>
<!-- Node3 -->
<g id="Node000003" class="node">
<title>Node3</title>
<g id="a_Node000003"><a xlink:title=" ">
<polygon fill="white" stroke="#666666" points="117.62,-173.5 13.88,-173.5 13.88,-140 117.62,-140 117.62,-173.5"/>
<text text-anchor="start" x="21.88" y="-160" font-family="Helvetica,sans-Serif" font-size="10.00">std::basic_string&lt;</text>
<text text-anchor="middle" x="65.75" y="-147.25" font-family="Helvetica,sans-Serif" font-size="10.00"> Char &gt;</text>
</a>
</g>
</g>
<!-- Node3&#45;&gt;Node2 -->
<g id="edge2_Node000002_Node000003" class="edge">
<title>Node3&#45;&gt;Node2</title>
<g id="a_edge2_Node000002_Node000003"><a xlink:title=" ">
<path fill="none" stroke="#63b8ff" d="M65.75,-128.48C65.75,-119.52 65.75,-110.14 65.75,-103.37"/>
<polygon fill="#63b8ff" stroke="#63b8ff" points="62.25,-128.24 65.75,-138.24 69.25,-128.24 62.25,-128.24"/>
</a>
</g>
</g>
</g>
</svg>
