<?xml version="1.0" encoding="UTF-8" standalone="no"?>
<!DOCTYPE svg PUBLIC "-//W3C//DTD SVG 1.1//EN"
 "http://www.w3.org/Graphics/SVG/1.1/DTD/svg11.dtd">
<!-- Generated by graphviz version 12.2.1 (20241206.2353)
 -->
<!-- Title: ProfileScopeRecord Pages: 1 -->
<svg width="132pt" height="169pt"
 viewBox="0.00 0.00 132.00 168.75" xmlns="http://www.w3.org/2000/svg" xmlns:xlink="http://www.w3.org/1999/xlink">
<g id="graph0" class="graph" transform="scale(1 1) rotate(0) translate(4 164.75)">
<title>ProfileScopeRecord</title>
<!-- Node1 -->
<g id="Node000001" class="node">
<title>Node1</title>
<g id="a_Node000001"><a xlink:title=" ">
<polygon fill="#999999" stroke="#666666" points="116.88,-20.75 7.13,-20.75 7.13,0 116.88,0 116.88,-20.75"/>
<text text-anchor="middle" x="62" y="-7.25" font-family="Helvetica,sans-Serif" font-size="10.00">ProfileScopeRecord</text>
</a>
</g>
</g>
<!-- Node2 -->
<g id="Node000002" class="node">
<title>Node2</title>
<g id="a_Node000002"><a xlink:title=" ">
<polygon fill="white" stroke="#666666" points="108.62,-90.25 15.38,-90.25 15.38,-69.5 108.62,-69.5 108.62,-90.25"/>
<text text-anchor="middle" x="62" y="-76.75" font-family="Helvetica,sans-Serif" font-size="10.00">std::string_view</text>
</a>
</g>
</g>
<!-- Node2&#45;&gt;Node1 -->
<g id="edge1_Node000001_Node000002" class="edge">
<title>Node2&#45;&gt;Node1</title>
<g id="a_edge1_Node000001_Node000002"><a xlink:title=" ">
<path fill="none" stroke="#9a32cd" stroke-dasharray="5,2" d="M62,-58.07C62,-45.72 62,-30.65 62,-21.03"/>
<polygon fill="#9a32cd" stroke="#9a32cd" points="58.5,-57.69 62,-67.69 65.5,-57.69 58.5,-57.69"/>
</a>
</g>
<text text-anchor="middle" x="77.38" y="-42" font-family="Helvetica,sans-Serif" font-size="10.00" fill="grey"> name</text>
</g>
<!-- Node3 -->
<g id="Node000003" class="node">
<title>Node3</title>
<g id="a_Node000003"><a xlink:title=" ">
<polygon fill="white" stroke="#666666" points="124,-160.75 0,-160.75 0,-127.25 124,-127.25 124,-160.75"/>
<text text-anchor="start" x="8" y="-147.25" font-family="Helvetica,sans-Serif" font-size="10.00">std::basic_string_view</text>
<text text-anchor="middle" x="62" y="-134.5" font-family="Helvetica,sans-Serif" font-size="10.00">&lt; Char &gt;</text>
</a>
</g>
</g>
<!-- Node3&#45;&gt;Node2 -->
<g id="edge2_Node000002_Node000003" class="edge">
<title>Node3&#45;&gt;Node2</title>
<g id="a_edge2_Node000002_Node000003"><a xlink:title=" ">
<path fill="none" stroke="#63b8ff" d="M62,-115.73C62,-106.77 62,-97.39 62,-90.62"/>
<polygon fill="#63b8ff" stroke="#63b8ff" points="58.5,-115.49 62,-125.49 65.5,-115.49 58.5,-115.49"/>
</a>
</g>
</g>
</g>
</svg>
