<?xml version="1.0" encoding="UTF-8" standalone="no"?>
<!DOCTYPE svg PUBLIC "-//W3C//DTD SVG 1.1//EN"
 "http://www.w3.org/Graphics/SVG/1.1/DTD/svg11.dtd">
<!-- Generated by graphviz version 12.2.1 (20241206.2353)
 -->
<!-- Title: YoloModel::BoundingBox Pages: 1 -->
<svg width="133pt" height="165pt"
 viewBox="0.00 0.00 132.75 165.00" xmlns="http://www.w3.org/2000/svg" xmlns:xlink="http://www.w3.org/1999/xlink">
<g id="graph0" class="graph" transform="scale(1 1) rotate(0) translate(4 161)">
<title>YoloModel::BoundingBox</title>
<!-- Node1 -->
<g id="Node000001" class="node">
<title>Node1</title>
<g id="a_Node000001"><a xlink:title=" ">
<polygon fill="#999999" stroke="#666666" points="124.75,-20 0,-20 0,0 124.75,0 124.75,-20"/>
<text text-anchor="middle" x="62.38" y="-6.5" font-family="Helvetica,sans-Serif" font-size="10.00">YoloModel::BoundingBox</text>
</a>
</g>
</g>
<!-- Node2 -->
<g id="Node000002" class="node">
<title>Node2</title>
<g id="a_Node000002"><a xlink:title=" ">
<polygon fill="white" stroke="#666666" points="92.12,-88 32.62,-88 32.62,-68 92.12,-68 92.12,-88"/>
<text text-anchor="middle" x="62.38" y="-74.5" font-family="Helvetica,sans-Serif" font-size="10.00">std::string</text>
</a>
</g>
</g>
<!-- Node2&#45;&gt;Node1 -->
<g id="edge1_Node000001_Node000002" class="edge">
<title>Node2&#45;&gt;Node1</title>
<g id="a_edge1_Node000001_Node000002"><a xlink:title=" ">
<path fill="none" stroke="#9a32cd" stroke-dasharray="5,2" d="M62.38,-56.28C62.38,-44.27 62.38,-29.74 62.38,-20.44"/>
<polygon fill="#9a32cd" stroke="#9a32cd" points="58.88,-56.03 62.38,-66.03 65.88,-56.03 58.88,-56.03"/>
</a>
</g>
<text text-anchor="middle" x="84.88" y="-40.5" font-family="Helvetica,sans-Serif" font-size="10.00" fill="grey"> cls_name</text>
</g>
<!-- Node3 -->
<g id="Node000003" class="node">
<title>Node3</title>
<g id="a_Node000003"><a xlink:title=" ">
<polygon fill="white" stroke="#666666" points="109.38,-157 15.37,-157 15.37,-125 109.38,-125 109.38,-157"/>
<text text-anchor="start" x="23.38" y="-143.5" font-family="Helvetica,sans-Serif" font-size="10.00">std::basic_string&lt;</text>
<text text-anchor="middle" x="62.38" y="-131.5" font-family="Helvetica,sans-Serif" font-size="10.00"> Char &gt;</text>
</a>
</g>
</g>
<!-- Node3&#45;&gt;Node2 -->
<g id="edge2_Node000002_Node000003" class="edge">
<title>Node3&#45;&gt;Node2</title>
<g id="a_edge2_Node000002_Node000003"><a xlink:title=" ">
<path fill="none" stroke="#63b8ff" d="M62.38,-113.36C62.38,-104.41 62.38,-95.01 62.38,-88.31"/>
<polygon fill="#63b8ff" stroke="#63b8ff" points="58.88,-113.09 62.38,-123.09 65.88,-113.09 58.88,-113.09"/>
</a>
</g>
</g>
</g>
</svg>
