<?xml version="1.0" encoding="UTF-8" standalone="no"?>
<!DOCTYPE svg PUBLIC "-//W3C//DTD SVG 1.1//EN"
 "http://www.w3.org/Graphics/SVG/1.1/DTD/svg11.dtd">
<!-- Generated by graphviz version 12.2.1 (20241206.2353)
 -->
<!-- Title: ObjectTracker::TrackedBoundingBox Pages: 1 -->
<svg width="197pt" height="238pt"
 viewBox="0.00 0.00 197.25 238.25" xmlns="http://www.w3.org/2000/svg" xmlns:xlink="http://www.w3.org/1999/xlink">
<g id="graph0" class="graph" transform="scale(1 1) rotate(0) translate(4 234.25)">
<title>ObjectTracker::TrackedBoundingBox</title>
<!-- Node1 -->
<g id="Node000001" class="node">
<title>Node1</title>
<g id="a_Node000001"><a xlink:title=" ">
<polygon fill="#999999" stroke="#666666" points="189.25,-20.75 0,-20.75 0,0 189.25,0 189.25,-20.75"/>
<text text-anchor="middle" x="94.62" y="-7.25" font-family="Helvetica,sans-Serif" font-size="10.00">ObjectTracker::TrackedBoundingBox</text>
</a>
</g>
</g>
<!-- Node2 -->
<g id="Node000002" class="node">
<title>Node2</title>
<g id="a_Node000002"><a xlink:href="structYoloModel_1_1BoundingBox.html" target="_top" xlink:title=" ">
<polygon fill="white" stroke="#666666" points="162.62,-90.25 26.62,-90.25 26.62,-69.5 162.62,-69.5 162.62,-90.25"/>
<text text-anchor="middle" x="94.62" y="-76.75" font-family="Helvetica,sans-Serif" font-size="10.00">YoloModel::BoundingBox</text>
</a>
</g>
</g>
<!-- Node2&#45;&gt;Node1 -->
<g id="edge1_Node000001_Node000002" class="edge">
<title>Node2&#45;&gt;Node1</title>
<g id="a_edge1_Node000001_Node000002"><a xlink:title=" ">
<path fill="none" stroke="#9a32cd" stroke-dasharray="5,2" d="M94.62,-58.07C94.62,-45.72 94.62,-30.65 94.62,-21.03"/>
<polygon fill="#9a32cd" stroke="#9a32cd" points="91.13,-57.69 94.63,-67.69 98.13,-57.69 91.13,-57.69"/>
</a>
</g>
<text text-anchor="middle" x="130.25" y="-42" font-family="Helvetica,sans-Serif" font-size="10.00" fill="grey"> bounding_box</text>
</g>
<!-- Node3 -->
<g id="Node000003" class="node">
<title>Node3</title>
<g id="a_Node000003"><a xlink:title=" ">
<polygon fill="white" stroke="#666666" points="127,-159.75 62.25,-159.75 62.25,-139 127,-139 127,-159.75"/>
<text text-anchor="middle" x="94.62" y="-146.25" font-family="Helvetica,sans-Serif" font-size="10.00">std::string</text>
</a>
</g>
</g>
<!-- Node3&#45;&gt;Node2 -->
<g id="edge2_Node000002_Node000003" class="edge">
<title>Node3&#45;&gt;Node2</title>
<g id="a_edge2_Node000002_Node000003"><a xlink:title=" ">
<path fill="none" stroke="#9a32cd" stroke-dasharray="5,2" d="M94.62,-127.57C94.62,-115.22 94.62,-100.15 94.62,-90.53"/>
<polygon fill="#9a32cd" stroke="#9a32cd" points="91.13,-127.19 94.63,-137.19 98.13,-127.19 91.13,-127.19"/>
</a>
</g>
<text text-anchor="middle" x="119.38" y="-111.5" font-family="Helvetica,sans-Serif" font-size="10.00" fill="grey"> cls_name</text>
</g>
<!-- Node4 -->
<g id="Node000004" class="node">
<title>Node4</title>
<g id="a_Node000004"><a xlink:title=" ">
<polygon fill="white" stroke="#666666" points="146.5,-230.25 42.75,-230.25 42.75,-196.75 146.5,-196.75 146.5,-230.25"/>
<text text-anchor="start" x="50.75" y="-216.75" font-family="Helvetica,sans-Serif" font-size="10.00">std::basic_string&lt;</text>
<text text-anchor="middle" x="94.62" y="-204" font-family="Helvetica,sans-Serif" font-size="10.00"> Char &gt;</text>
</a>
</g>
</g>
<!-- Node4&#45;&gt;Node3 -->
<g id="edge3_Node000003_Node000004" class="edge">
<title>Node4&#45;&gt;Node3</title>
<g id="a_edge3_Node000003_Node000004"><a xlink:title=" ">
<path fill="none" stroke="#63b8ff" d="M94.62,-185.23C94.62,-176.27 94.62,-166.89 94.62,-160.12"/>
<polygon fill="#63b8ff" stroke="#63b8ff" points="91.13,-184.99 94.63,-194.99 98.13,-184.99 91.13,-184.99"/>
</a>
</g>
</g>
</g>
</svg>
