<?xml version="1.0" encoding="UTF-8" standalone="no"?>
<!DOCTYPE svg PUBLIC "-//W3C//DTD SVG 1.1//EN"
 "http://www.w3.org/Graphics/SVG/1.1/DTD/svg11.dtd">
<!-- Generated by graphviz version 2.43.0 (0)
 -->
<!-- Title: TfLiteReporterUserData Pages: 1 -->
<svg width="180pt" height="174pt"
 viewBox="0.00 0.00 180.00 174.00" xmlns="http://www.w3.org/2000/svg" xmlns:xlink="http://www.w3.org/1999/xlink">
<g id="graph0" class="graph" transform="scale(1 1) rotate(0) translate(4 170)">
<title>TfLiteReporterUserData</title>
<!-- Node1 -->
<g id="node1" class="node">
<title>Node1</title>
<g id="a_node1"><a xlink:title="Callbacks invoked by the tflite runtime, passed around as void* user_data.">
<polygon fill="#bfbfbf" stroke="black" points="0,-0.5 0,-19.5 132,-19.5 132,-0.5 0,-0.5"/>
<text text-anchor="middle" x="66" y="-7.5" font-family="Helvetica,sans-Serif" font-size="10.00">TfLiteReporterUserData</text>
</a>
</g>
</g>
<!-- Node2 -->
<g id="node2" class="node">
<title>Node2</title>
<g id="a_node2"><a xlink:title=" ">
<polygon fill="none" stroke="#bfbfbf" points="33.5,-78.5 33.5,-97.5 98.5,-97.5 98.5,-78.5 33.5,-78.5"/>
<text text-anchor="middle" x="66" y="-85.5" font-family="Helvetica,sans-Serif" font-size="10.00">std::string</text>
</a>
</g>
</g>
<!-- Node2&#45;&gt;Node1 -->
<g id="edge1" class="edge">
<title>Node2&#45;&gt;Node1</title>
<path fill="none" stroke="#9a32cd" stroke-dasharray="5,2" d="M66,-68.22C66,-52.7 66,-31.36 66,-19.62"/>
<polygon fill="#9a32cd" stroke="#9a32cd" points="62.5,-68.28 66,-78.28 69.5,-68.28 62.5,-68.28"/>
<text text-anchor="middle" x="119" y="-52" font-family="Helvetica,sans-Serif" font-size="10.00"> log_error_callback</text>
<text text-anchor="middle" x="119" y="-41" font-family="Helvetica,sans-Serif" font-size="10.00">log_warning_callback</text>
</g>
<!-- Node3 -->
<g id="node3" class="node">
<title>Node3</title>
<g id="a_node3"><a xlink:title=" ">
<polygon fill="none" stroke="#bfbfbf" points="14,-135.5 14,-165.5 118,-165.5 118,-135.5 14,-135.5"/>
<text text-anchor="start" x="22" y="-153.5" font-family="Helvetica,sans-Serif" font-size="10.00">std::basic_string&lt;</text>
<text text-anchor="middle" x="66" y="-142.5" font-family="Helvetica,sans-Serif" font-size="10.00"> Char &gt;</text>
</a>
</g>
</g>
<!-- Node3&#45;&gt;Node2 -->
<g id="edge2" class="edge">
<title>Node3&#45;&gt;Node2</title>
<path fill="none" stroke="midnightblue" d="M66,-125.35C66,-115.51 66,-104.78 66,-97.54"/>
<polygon fill="midnightblue" stroke="midnightblue" points="62.5,-125.47 66,-135.47 69.5,-125.47 62.5,-125.47"/>
</g>
</g>
</svg>
