<?xml version="1.0" encoding="UTF-8" standalone="no"?>
<!DOCTYPE svg PUBLIC "-//W3C//DTD SVG 1.1//EN"
 "http://www.w3.org/Graphics/SVG/1.1/DTD/svg11.dtd">
<!-- Generated by graphviz version 12.2.1 (20241206.2353)
 -->
<!-- Title: include/EyeAICore/TensorBuffer.hpp Pages: 1 -->
<svg width="938pt" height="446pt"
 viewBox="0.00 0.00 937.75 445.75" xmlns="http://www.w3.org/2000/svg" xmlns:xlink="http://www.w3.org/1999/xlink">
<g id="graph0" class="graph" transform="scale(1 1) rotate(0) translate(4 441.75)">
<title>include/EyeAICore/TensorBuffer.hpp</title>
<!-- Node1 -->
<g id="Node000001" class="node">
<title>Node1</title>
<g id="a_Node000001"><a xlink:title=" ">
<polygon fill="#999999" stroke="#666666" points="589.25,-437.75 450.25,-437.75 450.25,-404.25 589.25,-404.25 589.25,-437.75"/>
<text text-anchor="start" x="458.25" y="-424.25" font-family="Helvetica,sans-Serif" font-size="10.00">include/EyeAICore/Tensor</text>
<text text-anchor="middle" x="519.75" y="-411.5" font-family="Helvetica,sans-Serif" font-size="10.00">Buffer.hpp</text>
</a>
</g>
</g>
<!-- Node2 -->
<g id="Node000002" class="node">
<title>Node2</title>
<g id="a_Node000002"><a xlink:href="DepthModel_8hpp.html" target="_top" xlink:title=" ">
<polygon fill="white" stroke="#666666" points="491.62,-153.38 303.88,-153.38 303.88,-132.62 491.62,-132.62 491.62,-153.38"/>
<text text-anchor="middle" x="397.75" y="-139.88" font-family="Helvetica,sans-Serif" font-size="10.00">include/EyeAICore/DepthModel.hpp</text>
</a>
</g>
</g>
<!-- Node1&#45;&gt;Node2 -->
<g id="edge1_Node000001_Node000002" class="edge">
<title>Node1&#45;&gt;Node2</title>
<g id="a_edge1_Node000001_Node000002"><a xlink:title=" ">
<path fill="none" stroke="#63b8ff" d="M501.59,-394.48C485.26,-370.63 461.48,-333.56 445.75,-298.75 422.01,-246.2 405.51,-178.58 399.88,-153.72"/>
<polygon fill="#63b8ff" stroke="#63b8ff" points="498.65,-396.39 507.23,-402.61 504.41,-392.4 498.65,-396.39"/>
</a>
</g>
</g>
<!-- Node5 -->
<g id="Node000005" class="node">
<title>Node5</title>
<g id="a_Node000005"><a xlink:href="MetricDepthModel_8hpp.html" target="_top" xlink:title=" ">
<polygon fill="white" stroke="#666666" points="266.88,-229.25 128.62,-229.25 128.62,-195.75 266.88,-195.75 266.88,-229.25"/>
<text text-anchor="start" x="136.62" y="-215.75" font-family="Helvetica,sans-Serif" font-size="10.00">include/EyeAICore/Metric</text>
<text text-anchor="middle" x="197.75" y="-203" font-family="Helvetica,sans-Serif" font-size="10.00">DepthModel.hpp</text>
</a>
</g>
</g>
<!-- Node1&#45;&gt;Node5 -->
<g id="edge4_Node000001_Node000005" class="edge">
<title>Node1&#45;&gt;Node5</title>
<g id="a_edge4_Node000001_Node000005"><a xlink:title=" ">
<path fill="none" stroke="#63b8ff" d="M438.82,-409.91C402.14,-402.55 359.52,-389.91 325.75,-368.25 268.52,-331.55 224.21,-260.97 206.34,-229.42"/>
<polygon fill="#63b8ff" stroke="#63b8ff" points="438.04,-413.32 448.51,-411.74 439.34,-406.44 438.04,-413.32"/>
</a>
</g>
</g>
<!-- Node6 -->
<g id="Node000006" class="node">
<title>Node6</title>
<g id="a_Node000006"><a xlink:href="Operators_8hpp.html" target="_top" xlink:title=" ">
<polygon fill="white" stroke="#666666" points="286,-153.38 109.5,-153.38 109.5,-132.62 286,-132.62 286,-153.38"/>
<text text-anchor="middle" x="197.75" y="-139.88" font-family="Helvetica,sans-Serif" font-size="10.00">include/EyeAICore/Operators.hpp</text>
</a>
</g>
</g>
<!-- Node1&#45;&gt;Node6 -->
<g id="edge12_Node000001_Node000006" class="edge">
<title>Node1&#45;&gt;Node6</title>
<g id="a_edge12_Node000001_Node000006"><a xlink:title=" ">
<path fill="none" stroke="#63b8ff" d="M492.6,-396.49C482.54,-387.7 471.07,-377.58 460.75,-368.25 377.37,-292.84 364,-265.39 275.75,-195.75 255.47,-179.74 230.29,-163.66 214.12,-153.76"/>
<polygon fill="#63b8ff" stroke="#63b8ff" points="490.04,-398.9 499.88,-402.83 494.64,-393.63 490.04,-398.9"/>
</a>
</g>
</g>
<!-- Node9 -->
<g id="Node000009" class="node">
<title>Node9</title>
<g id="a_Node000009"><a xlink:href="YoloModel_8hpp.html" target="_top" xlink:title=" ">
<polygon fill="white" stroke="#666666" points="763.75,-222.88 585.75,-222.88 585.75,-202.12 763.75,-202.12 763.75,-222.88"/>
<text text-anchor="middle" x="674.75" y="-209.38" font-family="Helvetica,sans-Serif" font-size="10.00">include/EyeAICore/YoloModel.hpp</text>
</a>
</g>
</g>
<!-- Node1&#45;&gt;Node9 -->
<g id="edge13_Node000001_Node000009" class="edge">
<title>Node1&#45;&gt;Node9</title>
<g id="a_edge13_Node000001_Node000009"><a xlink:title=" ">
<path fill="none" stroke="#63b8ff" d="M537.27,-394.72C558.9,-363.76 597.08,-309.94 631.75,-265.25 643.35,-250.3 657.49,-233.55 666.31,-223.26"/>
<polygon fill="#63b8ff" stroke="#63b8ff" points="534.56,-392.48 531.72,-402.68 540.31,-396.48 534.56,-392.48"/>
</a>
</g>
</g>
<!-- Node14 -->
<g id="Node000014" class="node">
<title>Node14</title>
<g id="a_Node000014"><a xlink:href="TfLiteRuntime_8hpp.html" target="_top" xlink:title=" ">
<polygon fill="white" stroke="#666666" points="584.75,-298.75 454.75,-298.75 454.75,-265.25 584.75,-265.25 584.75,-298.75"/>
<text text-anchor="start" x="462.75" y="-285.25" font-family="Helvetica,sans-Serif" font-size="10.00">include/EyeAICore/tflite</text>
<text text-anchor="middle" x="519.75" y="-272.5" font-family="Helvetica,sans-Serif" font-size="10.00">/TfLiteRuntime.hpp</text>
</a>
</g>
</g>
<!-- Node1&#45;&gt;Node14 -->
<g id="edge21_Node000001_Node000014" class="edge">
<title>Node1&#45;&gt;Node14</title>
<g id="a_edge21_Node000001_Node000014"><a xlink:title=" ">
<path fill="none" stroke="#63b8ff" d="M519.75,-392.62C519.75,-364.54 519.75,-321.82 519.75,-298.88"/>
<polygon fill="#63b8ff" stroke="#63b8ff" points="516.25,-392.5 519.75,-402.5 523.25,-392.5 516.25,-392.5"/>
</a>
</g>
</g>
<!-- Node16 -->
<g id="Node000016" class="node">
<title>Node16</title>
<g id="a_Node000016"><a xlink:href="TfLiteUtils_8hpp.html" target="_top" xlink:title=" ">
<polygon fill="white" stroke="#666666" points="770.75,-368.25 640.75,-368.25 640.75,-334.75 770.75,-334.75 770.75,-368.25"/>
<text text-anchor="start" x="648.75" y="-354.75" font-family="Helvetica,sans-Serif" font-size="10.00">include/EyeAICore/tflite</text>
<text text-anchor="middle" x="705.75" y="-342" font-family="Helvetica,sans-Serif" font-size="10.00">/TfLiteUtils.hpp</text>
</a>
</g>
</g>
<!-- Node1&#45;&gt;Node16 -->
<g id="edge28_Node000001_Node000016" class="edge">
<title>Node1&#45;&gt;Node16</title>
<g id="a_edge28_Node000001_Node000016"><a xlink:title=" ">
<path fill="none" stroke="#63b8ff" d="M574.96,-399.97C602.49,-389.97 635.35,-378.05 661.24,-368.65"/>
<polygon fill="#63b8ff" stroke="#63b8ff" points="573.93,-396.61 565.72,-403.32 576.32,-403.19 573.93,-396.61"/>
</a>
</g>
</g>
<!-- Node18 -->
<g id="Node000018" class="node">
<title>Node18</title>
<g id="a_Node000018"><a xlink:href="TensorBuffer_8cpp.html" target="_top" xlink:title=" ">
<polygon fill="white" stroke="#666666" points="902.5,-361.88 789,-361.88 789,-341.12 902.5,-341.12 902.5,-361.88"/>
<text text-anchor="middle" x="845.75" y="-348.38" font-family="Helvetica,sans-Serif" font-size="10.00">src/TensorBuffer.cpp</text>
</a>
</g>
</g>
<!-- Node1&#45;&gt;Node18 -->
<g id="edge32_Node000001_Node000018" class="edge">
<title>Node1&#45;&gt;Node18</title>
<g id="a_edge32_Node000001_Node000018"><a xlink:title=" ">
<path fill="none" stroke="#63b8ff" d="M600.73,-404.7C652.12,-394.79 719.96,-381.33 779.75,-368.25 788.15,-366.41 797.13,-364.34 805.67,-362.32"/>
<polygon fill="#63b8ff" stroke="#63b8ff" points="600.34,-401.21 591.18,-406.53 601.66,-408.08 600.34,-401.21"/>
</a>
</g>
</g>
<!-- Node3 -->
<g id="Node000003" class="node">
<title>Node3</title>
<g id="a_Node000003"><a xlink:href="DepthModel_8cpp.html" target="_top" xlink:title=" ">
<polygon fill="white" stroke="#666666" points="454.12,-83.88 341.38,-83.88 341.38,-63.12 454.12,-63.12 454.12,-83.88"/>
<text text-anchor="middle" x="397.75" y="-70.38" font-family="Helvetica,sans-Serif" font-size="10.00">src/DepthModel.cpp</text>
</a>
</g>
</g>
<!-- Node2&#45;&gt;Node3 -->
<g id="edge2_Node000002_Node000003" class="edge">
<title>Node2&#45;&gt;Node3</title>
<g id="a_edge2_Node000002_Node000003"><a xlink:title=" ">
<path fill="none" stroke="#63b8ff" d="M397.75,-121.19C397.75,-108.84 397.75,-93.77 397.75,-84.15"/>
<polygon fill="#63b8ff" stroke="#63b8ff" points="394.25,-120.82 397.75,-130.82 401.25,-120.82 394.25,-120.82"/>
</a>
</g>
</g>
<!-- Node4 -->
<g id="Node000004" class="node">
<title>Node4</title>
<g id="a_Node000004"><a xlink:href="MetricDepthModel_8cpp.html" target="_top" xlink:title=" ">
<polygon fill="white" stroke="#666666" points="269.5,-83.88 126,-83.88 126,-63.12 269.5,-63.12 269.5,-83.88"/>
<text text-anchor="middle" x="197.75" y="-70.38" font-family="Helvetica,sans-Serif" font-size="10.00">src/MetricDepthModel.cpp</text>
</a>
</g>
</g>
<!-- Node2&#45;&gt;Node4 -->
<g id="edge3_Node000002_Node000004" class="edge">
<title>Node2&#45;&gt;Node4</title>
<g id="a_edge3_Node000002_Node000004"><a xlink:title=" ">
<path fill="none" stroke="#63b8ff" d="M357.81,-128.52C319.13,-115.46 261.39,-95.98 226.87,-84.33"/>
<polygon fill="#63b8ff" stroke="#63b8ff" points="356.64,-131.82 367.23,-131.7 358.88,-125.19 356.64,-131.82"/>
</a>
</g>
</g>
<!-- Node5&#45;&gt;Node4 -->
<g id="edge10_Node000005_Node000004" class="edge">
<title>Node5&#45;&gt;Node4</title>
<g id="a_edge10_Node000005_Node000004"><a xlink:title=" ">
<path fill="none" stroke="#63b8ff" d="M133.83,-190.01C120.68,-182.53 108.5,-172.66 100.75,-159.75 93.09,-146.98 93.09,-139.02 100.75,-126.25 113.51,-104.97 138.33,-91.96 159.66,-84.3"/>
<polygon fill="#63b8ff" stroke="#63b8ff" points="132.18,-193.09 142.67,-194.57 135.39,-186.87 132.18,-193.09"/>
</a>
</g>
</g>
<!-- Node5&#45;&gt;Node6 -->
<g id="edge5_Node000005_Node000006" class="edge">
<title>Node5&#45;&gt;Node6</title>
<g id="a_edge5_Node000005_Node000006"><a xlink:title=" ">
<path fill="none" stroke="#63b8ff" d="M197.75,-184.03C197.75,-173.33 197.75,-161.76 197.75,-153.82"/>
<polygon fill="#63b8ff" stroke="#63b8ff" points="194.25,-183.99 197.75,-193.99 201.25,-183.99 194.25,-183.99"/>
</a>
</g>
</g>
<!-- Node7 -->
<g id="Node000007" class="node">
<title>Node7</title>
<g id="a_Node000007"><a xlink:href="Operators_8cpp.html" target="_top" xlink:title=" ">
<polygon fill="white" stroke="#666666" points="101.5,-83.88 0,-83.88 0,-63.12 101.5,-63.12 101.5,-83.88"/>
<text text-anchor="middle" x="50.75" y="-70.38" font-family="Helvetica,sans-Serif" font-size="10.00">src/Operators.cpp</text>
</a>
</g>
</g>
<!-- Node5&#45;&gt;Node7 -->
<g id="edge11_Node000005_Node000007" class="edge">
<title>Node5&#45;&gt;Node7</title>
<g id="a_edge11_Node000005_Node000007"><a xlink:title=" ">
<path fill="none" stroke="#63b8ff" d="M136.82,-190.74C120.38,-182.96 103.6,-172.75 90.75,-159.75 68.92,-137.66 57.46,-101.4 53,-84.17"/>
<polygon fill="#63b8ff" stroke="#63b8ff" points="135.04,-193.77 145.59,-194.66 137.89,-187.38 135.04,-193.77"/>
</a>
</g>
</g>
<!-- Node6&#45;&gt;Node3 -->
<g id="edge6_Node000006_Node000003" class="edge">
<title>Node6&#45;&gt;Node3</title>
<g id="a_edge6_Node000006_Node000003"><a xlink:title=" ">
<path fill="none" stroke="#63b8ff" d="M237.69,-128.52C276.37,-115.46 334.11,-95.98 368.63,-84.33"/>
<polygon fill="#63b8ff" stroke="#63b8ff" points="236.62,-125.19 228.27,-131.7 238.86,-131.82 236.62,-125.19"/>
</a>
</g>
</g>
<!-- Node6&#45;&gt;Node4 -->
<g id="edge7_Node000006_Node000004" class="edge">
<title>Node6&#45;&gt;Node4</title>
<g id="a_edge7_Node000006_Node000004"><a xlink:title=" ">
<path fill="none" stroke="#63b8ff" d="M197.75,-121.19C197.75,-108.84 197.75,-93.77 197.75,-84.15"/>
<polygon fill="#63b8ff" stroke="#63b8ff" points="194.25,-120.82 197.75,-130.82 201.25,-120.82 194.25,-120.82"/>
</a>
</g>
</g>
<!-- Node6&#45;&gt;Node7 -->
<g id="edge8_Node000006_Node000007" class="edge">
<title>Node6&#45;&gt;Node7</title>
<g id="a_edge8_Node000006_Node000007"><a xlink:title=" ">
<path fill="none" stroke="#63b8ff" d="M166.17,-127.5C137.79,-114.47 96.88,-95.68 72.15,-84.33"/>
<polygon fill="#63b8ff" stroke="#63b8ff" points="164.45,-130.56 175,-131.55 167.37,-124.2 164.45,-130.56"/>
</a>
</g>
</g>
<!-- Node8 -->
<g id="Node000008" class="node">
<title>Node8</title>
<g id="a_Node000008"><a xlink:href="YoloModel_8cpp.html" target="_top" xlink:title=" ">
<polygon fill="white" stroke="#666666" points="587.25,-83.88 484.25,-83.88 484.25,-63.12 587.25,-63.12 587.25,-83.88"/>
<text text-anchor="middle" x="535.75" y="-70.38" font-family="Helvetica,sans-Serif" font-size="10.00">src/YoloModel.cpp</text>
</a>
</g>
</g>
<!-- Node6&#45;&gt;Node8 -->
<g id="edge9_Node000006_Node000008" class="edge">
<title>Node6&#45;&gt;Node8</title>
<g id="a_edge9_Node000006_Node000008"><a xlink:title=" ">
<path fill="none" stroke="#63b8ff" d="M260.67,-130.07C314.41,-119.8 393.73,-104.43 462.75,-90.25 471.89,-88.37 481.67,-86.3 491,-84.3"/>
<polygon fill="#63b8ff" stroke="#63b8ff" points="260.26,-126.59 251.09,-131.9 261.57,-133.46 260.26,-126.59"/>
</a>
</g>
</g>
<!-- Node9&#45;&gt;Node8 -->
<g id="edge19_Node000009_Node000008" class="edge">
<title>Node9&#45;&gt;Node8</title>
<g id="a_edge19_Node000009_Node000008"><a xlink:title=" ">
<path fill="none" stroke="#63b8ff" d="M656.88,-193.89C627.25,-164.68 568.91,-107.18 545.66,-84.26"/>
<polygon fill="#63b8ff" stroke="#63b8ff" points="654.1,-196.06 663.68,-200.58 659.01,-191.07 654.1,-196.06"/>
</a>
</g>
</g>
<!-- Node10 -->
<g id="Node000010" class="node">
<title>Node10</title>
<g id="a_Node000010"><a xlink:href="ObjectTracker_8hpp.html" target="_top" xlink:title=" ">
<polygon fill="white" stroke="#666666" points="832.25,-159.75 693.25,-159.75 693.25,-126.25 832.25,-126.25 832.25,-159.75"/>
<text text-anchor="start" x="701.25" y="-146.25" font-family="Helvetica,sans-Serif" font-size="10.00">include/EyeAICore/Object</text>
<text text-anchor="middle" x="762.75" y="-133.5" font-family="Helvetica,sans-Serif" font-size="10.00">Tracker.hpp</text>
</a>
</g>
</g>
<!-- Node9&#45;&gt;Node10 -->
<g id="edge14_Node000009_Node000010" class="edge">
<title>Node9&#45;&gt;Node10</title>
<g id="a_edge14_Node000009_Node000010"><a xlink:title=" ">
<path fill="none" stroke="#63b8ff" d="M696.18,-195.06C710.01,-184.46 727.91,-170.72 741.67,-160.17"/>
<polygon fill="#63b8ff" stroke="#63b8ff" points="694.36,-192.04 688.56,-200.91 698.62,-197.6 694.36,-192.04"/>
</a>
</g>
</g>
<!-- Node12 -->
<g id="Node000012" class="node">
<title>Node12</title>
<g id="a_Node000012"><a xlink:href="SpatialAudio_8cpp.html" target="_top" xlink:title=" ">
<polygon fill="white" stroke="#666666" points="929.25,-20.75 784.25,-20.75 784.25,0 929.25,0 929.25,-20.75"/>
<text text-anchor="middle" x="856.75" y="-7.25" font-family="Helvetica,sans-Serif" font-size="10.00">src/audio/SpatialAudio.cpp</text>
</a>
</g>
</g>
<!-- Node9&#45;&gt;Node12 -->
<g id="edge20_Node000009_Node000012" class="edge">
<title>Node9&#45;&gt;Node12</title>
<g id="a_edge20_Node000009_Node000012"><a xlink:title=" ">
<path fill="none" stroke="#63b8ff" d="M753.64,-199.07C783.47,-191.44 816.31,-179.22 841.75,-159.75 881.27,-129.49 899.71,-104.53 885.75,-56.75 881.76,-43.11 872.29,-29.67 865.25,-21"/>
<polygon fill="#63b8ff" stroke="#63b8ff" points="753.19,-195.58 744.28,-201.32 754.83,-202.38 753.19,-195.58"/>
</a>
</g>
</g>
<!-- Node13 -->
<g id="Node000013" class="node">
<title>Node13</title>
<g id="a_Node000013"><a xlink:href="ObjectTracker_8cpp.html" target="_top" xlink:title=" ">
<polygon fill="white" stroke="#666666" points="724.12,-83.88 605.38,-83.88 605.38,-63.12 724.12,-63.12 724.12,-83.88"/>
<text text-anchor="middle" x="664.75" y="-70.38" font-family="Helvetica,sans-Serif" font-size="10.00">src/ObjectTracker.cpp</text>
</a>
</g>
</g>
<!-- Node9&#45;&gt;Node13 -->
<g id="edge18_Node000009_Node000013" class="edge">
<title>Node9&#45;&gt;Node13</title>
<g id="a_edge18_Node000009_Node000013"><a xlink:title=" ">
<path fill="none" stroke="#63b8ff" d="M673.21,-190.38C671.01,-160.29 667.07,-106.3 665.46,-84.26"/>
<polygon fill="#63b8ff" stroke="#63b8ff" points="669.7,-190.42 673.92,-200.14 676.68,-189.91 669.7,-190.42"/>
</a>
</g>
</g>
<!-- Node11 -->
<g id="Node000011" class="node">
<title>Node11</title>
<g id="a_Node000011"><a xlink:href="SpatialAudio_8hpp.html" target="_top" xlink:title=" ">
<polygon fill="white" stroke="#666666" points="877,-90.25 742.5,-90.25 742.5,-56.75 877,-56.75 877,-90.25"/>
<text text-anchor="start" x="750.5" y="-76.75" font-family="Helvetica,sans-Serif" font-size="10.00">include/EyeAICore/audio</text>
<text text-anchor="middle" x="809.75" y="-64" font-family="Helvetica,sans-Serif" font-size="10.00">/SpatialAudio.hpp</text>
</a>
</g>
</g>
<!-- Node10&#45;&gt;Node11 -->
<g id="edge15_Node000010_Node000011" class="edge">
<title>Node10&#45;&gt;Node11</title>
<g id="a_edge15_Node000010_Node000011"><a xlink:title=" ">
<path fill="none" stroke="#63b8ff" d="M780.46,-116.56C786.58,-107.77 793.26,-98.18 798.69,-90.38"/>
<polygon fill="#63b8ff" stroke="#63b8ff" points="777.6,-114.55 774.75,-124.76 783.34,-118.55 777.6,-114.55"/>
</a>
</g>
</g>
<!-- Node10&#45;&gt;Node13 -->
<g id="edge17_Node000010_Node000013" class="edge">
<title>Node10&#45;&gt;Node13</title>
<g id="a_edge17_Node000010_Node000013"><a xlink:title=" ">
<path fill="none" stroke="#63b8ff" d="M730.26,-119.62C712.9,-107.66 692.39,-93.54 679.01,-84.32"/>
<polygon fill="#63b8ff" stroke="#63b8ff" points="728.06,-122.35 738.28,-125.14 732.03,-116.59 728.06,-122.35"/>
</a>
</g>
</g>
<!-- Node11&#45;&gt;Node12 -->
<g id="edge16_Node000011_Node000012" class="edge">
<title>Node11&#45;&gt;Node12</title>
<g id="a_edge16_Node000011_Node000012"><a xlink:title=" ">
<path fill="none" stroke="#63b8ff" d="M828.93,-47.56C836.04,-38.3 843.7,-28.34 849.18,-21.22"/>
<polygon fill="#63b8ff" stroke="#63b8ff" points="826.34,-45.18 823.02,-55.24 831.89,-49.45 826.34,-45.18"/>
</a>
</g>
</g>
<!-- Node14&#45;&gt;Node2 -->
<g id="edge22_Node000014_Node000002" class="edge">
<title>Node14&#45;&gt;Node2</title>
<g id="a_edge22_Node000014_Node000002"><a xlink:title=" ">
<path fill="none" stroke="#63b8ff" d="M498.02,-256.6C470.77,-225.99 425.32,-174.96 406.41,-153.73"/>
<polygon fill="#63b8ff" stroke="#63b8ff" points="495.25,-258.75 504.51,-263.89 500.47,-254.09 495.25,-258.75"/>
</a>
</g>
</g>
<!-- Node14&#45;&gt;Node3 -->
<g id="edge25_Node000014_Node000003" class="edge">
<title>Node14&#45;&gt;Node3</title>
<g id="a_edge25_Node000014_Node000003"><a xlink:title=" ">
<path fill="none" stroke="#63b8ff" d="M523.67,-253.66C526.93,-220.43 527.41,-164.09 500.75,-126.25 485.77,-104.98 459.44,-91.97 437.15,-84.31"/>
<polygon fill="#63b8ff" stroke="#63b8ff" points="520.23,-252.95 522.57,-263.28 527.19,-253.75 520.23,-252.95"/>
</a>
</g>
</g>
<!-- Node14&#45;&gt;Node5 -->
<g id="edge23_Node000014_Node000005" class="edge">
<title>Node14&#45;&gt;Node5</title>
<g id="a_edge23_Node000014_Node000005"><a xlink:title=" ">
<path fill="none" stroke="#63b8ff" d="M443.46,-265.01C390.02,-253.8 319.16,-238.95 267.27,-228.07"/>
<polygon fill="#63b8ff" stroke="#63b8ff" points="442.6,-268.4 453.11,-267.03 444.04,-261.55 442.6,-268.4"/>
</a>
</g>
</g>
<!-- Node14&#45;&gt;Node8 -->
<g id="edge26_Node000014_Node000008" class="edge">
<title>Node14&#45;&gt;Node8</title>
<g id="a_edge26_Node000014_Node000008"><a xlink:title=" ">
<path fill="none" stroke="#63b8ff" d="M528.41,-254.06C530.58,-246.15 532.61,-237.43 533.75,-229.25 541.32,-174.96 538.1,-108.93 536.47,-84.34"/>
<polygon fill="#63b8ff" stroke="#63b8ff" points="525.11,-252.87 525.65,-263.45 531.83,-254.84 525.11,-252.87"/>
</a>
</g>
</g>
<!-- Node14&#45;&gt;Node9 -->
<g id="edge24_Node000014_Node000009" class="edge">
<title>Node14&#45;&gt;Node9</title>
<g id="a_edge24_Node000014_Node000009"><a xlink:title=" ">
<path fill="none" stroke="#63b8ff" d="M567.37,-260.26C595.64,-247.95 630.17,-232.91 652.31,-223.27"/>
<polygon fill="#63b8ff" stroke="#63b8ff" points="566.03,-257.03 558.26,-264.23 568.83,-263.44 566.03,-257.03"/>
</a>
</g>
</g>
<!-- Node15 -->
<g id="Node000015" class="node">
<title>Node15</title>
<g id="a_Node000015"><a xlink:href="TfLiteRuntime_8cpp.html" target="_top" xlink:title=" ">
<polygon fill="white" stroke="#666666" points="929.75,-222.88 781.75,-222.88 781.75,-202.12 929.75,-202.12 929.75,-222.88"/>
<text text-anchor="middle" x="855.75" y="-209.38" font-family="Helvetica,sans-Serif" font-size="10.00">src/tflite/TfLiteRuntime.cpp</text>
</a>
</g>
</g>
<!-- Node14&#45;&gt;Node15 -->
<g id="edge27_Node000014_Node000015" class="edge">
<title>Node14&#45;&gt;Node15</title>
<g id="a_edge27_Node000014_Node000015"><a xlink:title=" ">
<path fill="none" stroke="#63b8ff" d="M595.88,-265.71C660.55,-252.71 751.44,-234.45 806.82,-223.33"/>
<polygon fill="#63b8ff" stroke="#63b8ff" points="595.53,-262.21 586.42,-267.61 596.91,-269.07 595.53,-262.21"/>
</a>
</g>
</g>
<!-- Node16&#45;&gt;Node14 -->
<g id="edge29_Node000016_Node000014" class="edge">
<title>Node16&#45;&gt;Node14</title>
<g id="a_edge29_Node000016_Node000014"><a xlink:title=" ">
<path fill="none" stroke="#63b8ff" d="M650.54,-330.47C623.01,-320.47 590.15,-308.55 564.26,-299.15"/>
<polygon fill="#63b8ff" stroke="#63b8ff" points="649.18,-333.69 659.78,-333.82 651.57,-327.11 649.18,-333.69"/>
</a>
</g>
</g>
<!-- Node16&#45;&gt;Node15 -->
<g id="edge30_Node000016_Node000015" class="edge">
<title>Node16&#45;&gt;Node15</title>
<g id="a_edge30_Node000016_Node000015"><a xlink:title=" ">
<path fill="none" stroke="#63b8ff" d="M741.19,-328.18C753.84,-319.58 767.89,-309.29 779.75,-298.75 807.47,-274.12 835.24,-239.99 848.2,-223.37"/>
<polygon fill="#63b8ff" stroke="#63b8ff" points="739.49,-325.1 733.11,-333.56 743.37,-330.93 739.49,-325.1"/>
</a>
</g>
</g>
<!-- Node17 -->
<g id="Node000017" class="node">
<title>Node17</title>
<g id="a_Node000017"><a xlink:href="TfLiteUtils_8cpp.html" target="_top" xlink:title=" ">
<polygon fill="white" stroke="#666666" points="770.38,-292.38 641.12,-292.38 641.12,-271.62 770.38,-271.62 770.38,-292.38"/>
<text text-anchor="middle" x="705.75" y="-278.88" font-family="Helvetica,sans-Serif" font-size="10.00">src/tflite/TfLiteUtils.cpp</text>
</a>
</g>
</g>
<!-- Node16&#45;&gt;Node17 -->
<g id="edge31_Node000016_Node000017" class="edge">
<title>Node16&#45;&gt;Node17</title>
<g id="a_edge31_Node000016_Node000017"><a xlink:title=" ">
<path fill="none" stroke="#63b8ff" d="M705.75,-323.03C705.75,-312.33 705.75,-300.76 705.75,-292.82"/>
<polygon fill="#63b8ff" stroke="#63b8ff" points="702.25,-322.99 705.75,-332.99 709.25,-322.99 702.25,-322.99"/>
</a>
</g>
</g>
</g>
</svg>
