<?xml version="1.0" encoding="UTF-8" standalone="no"?>
<!DOCTYPE svg PUBLIC "-//W3C//DTD SVG 1.1//EN"
 "http://www.w3.org/Graphics/SVG/1.1/DTD/svg11.dtd">
<!-- Generated by graphviz version 12.2.1 (20241206.2353)
 -->
<!-- Title: src/TensorBuffer.cpp Pages: 1 -->
<svg width="323pt" height="142pt"
 viewBox="0.00 0.00 322.88 142.25" xmlns="http://www.w3.org/2000/svg" xmlns:xlink="http://www.w3.org/1999/xlink">
<g id="graph0" class="graph" transform="scale(1 1) rotate(0) translate(4 138.25)">
<title>src/TensorBuffer.cpp</title>
<!-- Node1 -->
<g id="Node000001" class="node">
<title>Node1</title>
<g id="a_Node000001"><a xlink:title=" ">
<polygon fill="#999999" stroke="#666666" points="218.25,-134.25 104.75,-134.25 104.75,-113.5 218.25,-113.5 218.25,-134.25"/>
<text text-anchor="middle" x="161.5" y="-120.75" font-family="Helvetica,sans-Serif" font-size="10.00">src/TensorBuffer.cpp</text>
</a>
</g>
</g>
<!-- Node2 -->
<g id="Node000002" class="node">
<title>Node2</title>
<g id="a_Node000002"><a xlink:href="TensorBuffer_8hpp.html" target="_top" xlink:title=" ">
<polygon fill="white" stroke="#666666" points="236.62,-77.5 86.38,-77.5 86.38,-56.75 236.62,-56.75 236.62,-77.5"/>
<text text-anchor="middle" x="161.5" y="-64" font-family="Helvetica,sans-Serif" font-size="10.00">EyeAICore/TensorBuffer.hpp</text>
</a>
</g>
</g>
<!-- Node1&#45;&gt;Node2 -->
<g id="edge1_Node000001_Node000002" class="edge">
<title>Node1&#45;&gt;Node2</title>
<g id="a_edge1_Node000001_Node000002"><a xlink:title=" ">
<path fill="none" stroke="#63b8ff" d="M161.5,-113.09C161.5,-106.47 161.5,-97.47 161.5,-89.27"/>
<polygon fill="#63b8ff" stroke="#63b8ff" points="165,-89.34 161.5,-79.34 158,-89.34 165,-89.34"/>
</a>
</g>
</g>
<!-- Node3 -->
<g id="Node000003" class="node">
<title>Node3</title>
<g id="a_Node000003"><a xlink:title=" ">
<polygon fill="#e0e0e0" stroke="#999999" points="49,-20.75 0,-20.75 0,0 49,0 49,-20.75"/>
<text text-anchor="middle" x="24.5" y="-7.25" font-family="Helvetica,sans-Serif" font-size="10.00">cstdint</text>
</a>
</g>
</g>
<!-- Node2&#45;&gt;Node3 -->
<g id="edge2_Node000002_Node000003" class="edge">
<title>Node2&#45;&gt;Node3</title>
<g id="a_edge2_Node000002_Node000003"><a xlink:title=" ">
<path fill="none" stroke="#63b8ff" d="M137.01,-56.34C115.38,-47.69 83.61,-35 59.34,-25.3"/>
<polygon fill="#63b8ff" stroke="#63b8ff" points="60.77,-22.1 50.19,-21.64 58.17,-28.6 60.77,-22.1"/>
</a>
</g>
</g>
<!-- Node4 -->
<g id="Node000004" class="node">
<title>Node4</title>
<g id="a_Node000004"><a xlink:title=" ">
<polygon fill="#e0e0e0" stroke="#999999" points="124.12,-20.75 66.88,-20.75 66.88,0 124.12,0 124.12,-20.75"/>
<text text-anchor="middle" x="95.5" y="-7.25" font-family="Helvetica,sans-Serif" font-size="10.00">memory</text>
</a>
</g>
</g>
<!-- Node2&#45;&gt;Node4 -->
<g id="edge3_Node000002_Node000004" class="edge">
<title>Node2&#45;&gt;Node4</title>
<g id="a_edge3_Node000002_Node000004"><a xlink:title=" ">
<path fill="none" stroke="#63b8ff" d="M149.7,-56.34C140.32,-48.55 126.96,-37.47 115.86,-28.26"/>
<polygon fill="#63b8ff" stroke="#63b8ff" points="118.29,-25.74 108.36,-22.04 113.82,-31.12 118.29,-25.74"/>
</a>
</g>
</g>
<!-- Node5 -->
<g id="Node000005" class="node">
<title>Node5</title>
<g id="a_Node000005"><a xlink:title=" ">
<polygon fill="#e0e0e0" stroke="#999999" points="181.12,-20.75 141.88,-20.75 141.88,0 181.12,0 181.12,-20.75"/>
<text text-anchor="middle" x="161.5" y="-7.25" font-family="Helvetica,sans-Serif" font-size="10.00">span</text>
</a>
</g>
</g>
<!-- Node2&#45;&gt;Node5 -->
<g id="edge4_Node000002_Node000005" class="edge">
<title>Node2&#45;&gt;Node5</title>
<g id="a_edge4_Node000002_Node000005"><a xlink:title=" ">
<path fill="none" stroke="#63b8ff" d="M161.5,-56.34C161.5,-49.72 161.5,-40.72 161.5,-32.52"/>
<polygon fill="#63b8ff" stroke="#63b8ff" points="165,-32.59 161.5,-22.59 158,-32.59 165,-32.59"/>
</a>
</g>
</g>
<!-- Node6 -->
<g id="Node000006" class="node">
<title>Node6</title>
<g id="a_Node000006"><a xlink:title=" ">
<polygon fill="#e0e0e0" stroke="#999999" points="249.75,-20.75 199.25,-20.75 199.25,0 249.75,0 249.75,-20.75"/>
<text text-anchor="middle" x="224.5" y="-7.25" font-family="Helvetica,sans-Serif" font-size="10.00">variant</text>
</a>
</g>
</g>
<!-- Node2&#45;&gt;Node6 -->
<g id="edge5_Node000002_Node000006" class="edge">
<title>Node2&#45;&gt;Node6</title>
<g id="a_edge5_Node000002_Node000006"><a xlink:title=" ">
<path fill="none" stroke="#63b8ff" d="M172.76,-56.34C181.63,-48.63 194.21,-37.7 204.75,-28.54"/>
<polygon fill="#63b8ff" stroke="#63b8ff" points="206.94,-31.27 212.19,-22.07 202.35,-25.99 206.94,-31.27"/>
</a>
</g>
</g>
<!-- Node7 -->
<g id="Node000007" class="node">
<title>Node7</title>
<g id="a_Node000007"><a xlink:title=" ">
<polygon fill="#e0e0e0" stroke="#999999" points="314.88,-20.75 268.12,-20.75 268.12,0 314.88,0 314.88,-20.75"/>
<text text-anchor="middle" x="291.5" y="-7.25" font-family="Helvetica,sans-Serif" font-size="10.00">vector</text>
</a>
</g>
</g>
<!-- Node2&#45;&gt;Node7 -->
<g id="edge6_Node000002_Node000007" class="edge">
<title>Node2&#45;&gt;Node7</title>
<g id="a_edge6_Node000002_Node000007"><a xlink:title=" ">
<path fill="none" stroke="#63b8ff" d="M184.74,-56.34C205.17,-47.73 235.14,-35.11 258.13,-25.43"/>
<polygon fill="#63b8ff" stroke="#63b8ff" points="259.21,-28.77 267.06,-21.67 256.49,-22.32 259.21,-28.77"/>
</a>
</g>
</g>
</g>
</svg>
