<?xml version="1.0" encoding="UTF-8" standalone="no"?>
<!DOCTYPE svg PUBLIC "-//W3C//DTD SVG 1.1//EN"
 "http://www.w3.org/Graphics/SVG/1.1/DTD/svg11.dtd">
<!-- Generated by graphviz version 12.2.1 (20241206.2353)
 -->
<!-- Title: include/EyeAICore/TensorBuffer.hpp Pages: 1 -->
<svg width="323pt" height="98pt"
 viewBox="0.00 0.00 322.88 98.25" xmlns="http://www.w3.org/2000/svg" xmlns:xlink="http://www.w3.org/1999/xlink">
<g id="graph0" class="graph" transform="scale(1 1) rotate(0) translate(4 94.25)">
<title>include/EyeAICore/TensorBuffer.hpp</title>
<!-- Node1 -->
<g id="Node000001" class="node">
<title>Node1</title>
<g id="a_Node000001"><a xlink:title=" ">
<polygon fill="#999999" stroke="#666666" points="231,-90.25 92,-90.25 92,-56.75 231,-56.75 231,-90.25"/>
<text text-anchor="start" x="100" y="-76.75" font-family="Helvetica,sans-Serif" font-size="10.00">include/EyeAICore/Tensor</text>
<text text-anchor="middle" x="161.5" y="-64" font-family="Helvetica,sans-Serif" font-size="10.00">Buffer.hpp</text>
</a>
</g>
</g>
<!-- Node2 -->
<g id="Node000002" class="node">
<title>Node2</title>
<g id="a_Node000002"><a xlink:title=" ">
<polygon fill="#e0e0e0" stroke="#999999" points="49,-20.75 0,-20.75 0,0 49,0 49,-20.75"/>
<text text-anchor="middle" x="24.5" y="-7.25" font-family="Helvetica,sans-Serif" font-size="10.00">cstdint</text>
</a>
</g>
</g>
<!-- Node1&#45;&gt;Node2 -->
<g id="edge1_Node000001_Node000002" class="edge">
<title>Node1&#45;&gt;Node2</title>
<g id="a_edge1_Node000001_Node000002"><a xlink:title=" ">
<path fill="none" stroke="#63b8ff" d="M125.15,-56.28C103.91,-46.81 77.35,-34.95 56.84,-25.81"/>
<polygon fill="#63b8ff" stroke="#63b8ff" points="58.38,-22.66 47.82,-21.78 55.53,-29.05 58.38,-22.66"/>
</a>
</g>
</g>
<!-- Node3 -->
<g id="Node000003" class="node">
<title>Node3</title>
<g id="a_Node000003"><a xlink:title=" ">
<polygon fill="#e0e0e0" stroke="#999999" points="124.12,-20.75 66.88,-20.75 66.88,0 124.12,0 124.12,-20.75"/>
<text text-anchor="middle" x="95.5" y="-7.25" font-family="Helvetica,sans-Serif" font-size="10.00">memory</text>
</a>
</g>
</g>
<!-- Node1&#45;&gt;Node3 -->
<g id="edge2_Node000001_Node000003" class="edge">
<title>Node1&#45;&gt;Node3</title>
<g id="a_edge2_Node000001_Node000003"><a xlink:title=" ">
<path fill="none" stroke="#63b8ff" d="M144.16,-56.44C135.01,-47.97 123.78,-37.56 114.41,-28.89"/>
<polygon fill="#63b8ff" stroke="#63b8ff" points="116.95,-26.47 107.24,-22.25 112.2,-31.61 116.95,-26.47"/>
</a>
</g>
</g>
<!-- Node4 -->
<g id="Node000004" class="node">
<title>Node4</title>
<g id="a_Node000004"><a xlink:title=" ">
<polygon fill="#e0e0e0" stroke="#999999" points="181.12,-20.75 141.88,-20.75 141.88,0 181.12,0 181.12,-20.75"/>
<text text-anchor="middle" x="161.5" y="-7.25" font-family="Helvetica,sans-Serif" font-size="10.00">span</text>
</a>
</g>
</g>
<!-- Node1&#45;&gt;Node4 -->
<g id="edge3_Node000001_Node000004" class="edge">
<title>Node1&#45;&gt;Node4</title>
<g id="a_edge3_Node000001_Node000004"><a xlink:title=" ">
<path fill="none" stroke="#63b8ff" d="M161.5,-56.44C161.5,-49.1 161.5,-40.32 161.5,-32.46"/>
<polygon fill="#63b8ff" stroke="#63b8ff" points="165,-32.73 161.5,-22.73 158,-32.73 165,-32.73"/>
</a>
</g>
</g>
<!-- Node5 -->
<g id="Node000005" class="node">
<title>Node5</title>
<g id="a_Node000005"><a xlink:title=" ">
<polygon fill="#e0e0e0" stroke="#999999" points="249.75,-20.75 199.25,-20.75 199.25,0 249.75,0 249.75,-20.75"/>
<text text-anchor="middle" x="224.5" y="-7.25" font-family="Helvetica,sans-Serif" font-size="10.00">variant</text>
</a>
</g>
</g>
<!-- Node1&#45;&gt;Node5 -->
<g id="edge4_Node000001_Node000005" class="edge">
<title>Node1&#45;&gt;Node5</title>
<g id="a_edge4_Node000001_Node000005"><a xlink:title=" ">
<path fill="none" stroke="#63b8ff" d="M178.05,-56.44C186.69,-48.06 197.29,-37.78 206.17,-29.16"/>
<polygon fill="#63b8ff" stroke="#63b8ff" points="208.53,-31.75 213.27,-22.27 203.66,-26.72 208.53,-31.75"/>
</a>
</g>
</g>
<!-- Node6 -->
<g id="Node000006" class="node">
<title>Node6</title>
<g id="a_Node000006"><a xlink:title=" ">
<polygon fill="#e0e0e0" stroke="#999999" points="314.88,-20.75 268.12,-20.75 268.12,0 314.88,0 314.88,-20.75"/>
<text text-anchor="middle" x="291.5" y="-7.25" font-family="Helvetica,sans-Serif" font-size="10.00">vector</text>
</a>
</g>
</g>
<!-- Node1&#45;&gt;Node6 -->
<g id="edge5_Node000001_Node000006" class="edge">
<title>Node1&#45;&gt;Node6</title>
<g id="a_edge5_Node000001_Node000006"><a xlink:title=" ">
<path fill="none" stroke="#63b8ff" d="M196,-56.28C215.96,-46.89 240.89,-35.17 260.27,-26.06"/>
<polygon fill="#63b8ff" stroke="#63b8ff" points="261.75,-29.23 269.31,-21.81 258.77,-22.9 261.75,-29.23"/>
</a>
</g>
</g>
</g>
</svg>
