<?xml version="1.0" encoding="UTF-8" standalone="no"?>
<!DOCTYPE svg PUBLIC "-//W3C//DTD SVG 1.1//EN"
 "http://www.w3.org/Graphics/SVG/1.1/DTD/svg11.dtd">
<!-- Generated by graphviz version 12.2.1 (20241206.2353)
 -->
<!-- Title: include/EyeAICore/TensorBuffer.hpp Pages: 1 -->
<svg width="1202pt" height="436pt"
 viewBox="0.00 0.00 1202.47 436.00" xmlns="http://www.w3.org/2000/svg" xmlns:xlink="http://www.w3.org/1999/xlink">
<g id="graph0" class="graph" transform="scale(1 1) rotate(0) translate(4 432)">
<title>include/EyeAICore/TensorBuffer.hpp</title>
<!-- Node1 -->
<g id="Node000001" class="node">
<title>Node1</title>
<g id="a_Node000001"><a xlink:title=" ">
<polygon fill="#999999" stroke="#666666" points="692.47,-428 562.47,-428 562.47,-396 692.47,-396 692.47,-428"/>
<text text-anchor="start" x="570.47" y="-414.5" font-family="Helvetica,sans-Serif" font-size="10.00">include/EyeAICore/Tensor</text>
<text text-anchor="middle" x="627.47" y="-402.5" font-family="Helvetica,sans-Serif" font-size="10.00">Buffer.hpp</text>
</a>
</g>
</g>
<!-- Node2 -->
<g id="Node000002" class="node">
<title>Node2</title>
<g id="a_Node000002"><a xlink:href="DepthModel_8hpp.html" target="_top" xlink:title=" ">
<polygon fill="white" stroke="#666666" points="187.47,-218 15.47,-218 15.47,-198 187.47,-198 187.47,-218"/>
<text text-anchor="middle" x="101.47" y="-204.5" font-family="Helvetica,sans-Serif" font-size="10.00">include/EyeAICore/DepthModel.hpp</text>
</a>
</g>
</g>
<!-- Node1&#45;&gt;Node2 -->
<g id="edge1_Node000001_Node000002" class="edge">
<title>Node1&#45;&gt;Node2</title>
<g id="a_edge1_Node000001_Node000002"><a xlink:title=" ">
<path fill="none" stroke="#63b8ff" d="M551.78,-392.84C517.97,-384.04 477.86,-372.64 442.47,-360 315.94,-314.83 170.49,-243.68 119.92,-218.34"/>
<polygon fill="#63b8ff" stroke="#63b8ff" points="550.5,-396.12 561.06,-395.23 552.25,-389.34 550.5,-396.12"/>
</a>
</g>
</g>
<!-- Node5 -->
<g id="Node000005" class="node">
<title>Node5</title>
<g id="a_Node000005"><a xlink:href="MetricDepthModel_8hpp.html" target="_top" xlink:title=" ">
<polygon fill="white" stroke="#666666" points="513.34,-224 385.59,-224 385.59,-192 513.34,-192 513.34,-224"/>
<text text-anchor="start" x="393.59" y="-210.5" font-family="Helvetica,sans-Serif" font-size="10.00">include/EyeAICore/Metric</text>
<text text-anchor="middle" x="449.47" y="-198.5" font-family="Helvetica,sans-Serif" font-size="10.00">DepthModel.hpp</text>
</a>
</g>
</g>
<!-- Node1&#45;&gt;Node5 -->
<g id="edge4_Node000001_Node000005" class="edge">
<title>Node1&#45;&gt;Node5</title>
<g id="a_edge4_Node000001_Node000005"><a xlink:title=" ">
<path fill="none" stroke="#63b8ff" d="M586.42,-390.3C550.47,-370.06 499.56,-335.92 470.47,-292 456.68,-271.18 451.94,-241.94 450.32,-224.3"/>
<polygon fill="#63b8ff" stroke="#63b8ff" points="584.36,-393.16 594.81,-394.91 587.73,-387.02 584.36,-393.16"/>
</a>
</g>
</g>
<!-- Node7 -->
<g id="Node000007" class="node">
<title>Node7</title>
<g id="a_Node000007"><a xlink:href="Operators_8hpp.html" target="_top" xlink:title=" ">
<polygon fill="white" stroke="#666666" points="367.59,-218 205.34,-218 205.34,-198 367.59,-198 367.59,-218"/>
<text text-anchor="middle" x="286.47" y="-204.5" font-family="Helvetica,sans-Serif" font-size="10.00">include/EyeAICore/Operators.hpp</text>
</a>
</g>
</g>
<!-- Node1&#45;&gt;Node7 -->
<g id="edge7_Node000001_Node000007" class="edge">
<title>Node1&#45;&gt;Node7</title>
<g id="a_edge7_Node000001_Node000007"><a xlink:title=" ">
<path fill="none" stroke="#63b8ff" d="M570,-391.69C547.17,-383.15 521.03,-372.26 498.47,-360 415.88,-315.13 327.54,-243.49 297.32,-218.2"/>
<polygon fill="#63b8ff" stroke="#63b8ff" points="568.55,-394.89 579.15,-395.05 570.96,-388.32 568.55,-394.89"/>
</a>
</g>
</g>
<!-- Node9 -->
<g id="Node000009" class="node">
<title>Node9</title>
<g id="a_Node000009"><a xlink:href="Rel2AbsDepthModel_8hpp.html" target="_top" xlink:title=" ">
<polygon fill="white" stroke="#666666" points="707.59,-224 569.34,-224 569.34,-192 707.59,-192 707.59,-224"/>
<text text-anchor="start" x="577.34" y="-210.5" font-family="Helvetica,sans-Serif" font-size="10.00">include/EyeAICore/Rel2Abs</text>
<text text-anchor="middle" x="638.47" y="-198.5" font-family="Helvetica,sans-Serif" font-size="10.00">DepthModel.hpp</text>
</a>
</g>
</g>
<!-- Node1&#45;&gt;Node9 -->
<g id="edge12_Node000001_Node000009" class="edge">
<title>Node1&#45;&gt;Node9</title>
<g id="a_edge12_Node000001_Node000009"><a xlink:title=" ">
<path fill="none" stroke="#63b8ff" d="M628.92,-384.38C631.25,-341.53 635.77,-258.6 637.63,-224.36"/>
<polygon fill="#63b8ff" stroke="#63b8ff" points="625.42,-384.13 628.38,-394.31 632.41,-384.51 625.42,-384.13"/>
</a>
</g>
</g>
<!-- Node10 -->
<g id="Node000010" class="node">
<title>Node10</title>
<g id="a_Node000010"><a xlink:href="Rel2AbsDepthModel_8cpp.html" target="_top" xlink:title=" ">
<polygon fill="white" stroke="#666666" points="840.09,-150 698.84,-150 698.84,-130 840.09,-130 840.09,-150"/>
<text text-anchor="middle" x="769.47" y="-136.5" font-family="Helvetica,sans-Serif" font-size="10.00">src/Rel2AbsDepthModel.cpp</text>
</a>
</g>
</g>
<!-- Node1&#45;&gt;Node10 -->
<g id="edge38_Node000001_Node000010" class="edge">
<title>Node1&#45;&gt;Node10</title>
<g id="a_edge38_Node000001_Node000010"><a xlink:title=" ">
<path fill="none" stroke="#63b8ff" d="M703.96,-395.94C731.03,-388.17 760.64,-376.7 784.47,-360 815.84,-338 817.61,-324.77 837.47,-292 861.58,-252.21 892.69,-231.73 868.47,-192 855.48,-170.71 830.45,-157.92 808.8,-150.48"/>
<polygon fill="#63b8ff" stroke="#63b8ff" points="703.12,-392.54 694.4,-398.55 704.97,-399.3 703.12,-392.54"/>
</a>
</g>
</g>
<!-- Node11 -->
<g id="Node000011" class="node">
<title>Node11</title>
<g id="a_Node000011"><a xlink:href="YoloModel_8hpp.html" target="_top" xlink:title=" ">
<polygon fill="white" stroke="#666666" points="1079.72,-218 915.22,-218 915.22,-198 1079.72,-198 1079.72,-218"/>
<text text-anchor="middle" x="997.47" y="-204.5" font-family="Helvetica,sans-Serif" font-size="10.00">include/EyeAICore/YoloModel.hpp</text>
</a>
</g>
</g>
<!-- Node1&#45;&gt;Node11 -->
<g id="edge16_Node000001_Node000011" class="edge">
<title>Node1&#45;&gt;Node11</title>
<g id="a_edge16_Node000001_Node000011"><a xlink:title=" ">
<path fill="none" stroke="#63b8ff" d="M704.26,-403.6C773.77,-395.68 869.95,-381.3 901.47,-360 955.52,-323.47 985.49,-245.26 994.52,-218.34"/>
<polygon fill="#63b8ff" stroke="#63b8ff" points="703.97,-400.11 694.42,-404.69 704.74,-407.06 703.97,-400.11"/>
</a>
</g>
</g>
<!-- Node16 -->
<g id="Node000016" class="node">
<title>Node16</title>
<g id="a_Node000016"><a xlink:href="TfLiteRuntime_8hpp.html" target="_top" xlink:title=" ">
<polygon fill="white" stroke="#666666" points="599.22,-292 479.72,-292 479.72,-260 599.22,-260 599.22,-292"/>
<text text-anchor="start" x="487.72" y="-278.5" font-family="Helvetica,sans-Serif" font-size="10.00">include/EyeAICore/tflite</text>
<text text-anchor="middle" x="539.47" y="-266.5" font-family="Helvetica,sans-Serif" font-size="10.00">/TfLiteRuntime.hpp</text>
</a>
</g>
</g>
<!-- Node1&#45;&gt;Node16 -->
<g id="edge25_Node000001_Node000016" class="edge">
<title>Node1&#45;&gt;Node16</title>
<g id="a_edge25_Node000001_Node000016"><a xlink:title=" ">
<path fill="none" stroke="#63b8ff" d="M611.23,-386.28C593.15,-358.75 564.49,-315.11 549.44,-292.19"/>
<polygon fill="#63b8ff" stroke="#63b8ff" points="608.13,-387.93 616.54,-394.36 613.98,-384.08 608.13,-387.93"/>
</a>
</g>
</g>
<!-- Node18 -->
<g id="Node000018" class="node">
<title>Node18</title>
<g id="a_Node000018"><a xlink:href="TfLiteUtils_8hpp.html" target="_top" xlink:title=" ">
<polygon fill="white" stroke="#666666" points="775.22,-360 655.72,-360 655.72,-328 775.22,-328 775.22,-360"/>
<text text-anchor="start" x="663.72" y="-346.5" font-family="Helvetica,sans-Serif" font-size="10.00">include/EyeAICore/tflite</text>
<text text-anchor="middle" x="715.47" y="-334.5" font-family="Helvetica,sans-Serif" font-size="10.00">/TfLiteUtils.hpp</text>
</a>
</g>
</g>
<!-- Node1&#45;&gt;Node18 -->
<g id="edge33_Node000001_Node000018" class="edge">
<title>Node1&#45;&gt;Node18</title>
<g id="a_edge33_Node000001_Node000018"><a xlink:title=" ">
<path fill="none" stroke="#63b8ff" d="M656.97,-388.87C669.41,-379.55 683.58,-368.91 694.86,-360.45"/>
<polygon fill="#63b8ff" stroke="#63b8ff" points="654.99,-385.98 649.09,-394.78 659.19,-391.58 654.99,-385.98"/>
</a>
</g>
</g>
<!-- Node20 -->
<g id="Node000020" class="node">
<title>Node20</title>
<g id="a_Node000020"><a xlink:href="TensorBuffer_8cpp.html" target="_top" xlink:title=" ">
<polygon fill="white" stroke="#666666" points="1059.47,-354 953.47,-354 953.47,-334 1059.47,-334 1059.47,-354"/>
<text text-anchor="middle" x="1006.47" y="-340.5" font-family="Helvetica,sans-Serif" font-size="10.00">src/TensorBuffer.cpp</text>
</a>
</g>
</g>
<!-- Node1&#45;&gt;Node20 -->
<g id="edge39_Node000001_Node000020" class="edge">
<title>Node1&#45;&gt;Node20</title>
<g id="a_edge39_Node000001_Node000020"><a xlink:title=" ">
<path fill="none" stroke="#63b8ff" d="M703.88,-399.78C767.18,-390.18 859.4,-375.49 939.47,-360 948.13,-358.32 957.38,-356.36 966.16,-354.42"/>
<polygon fill="#63b8ff" stroke="#63b8ff" points="703.66,-396.27 694.29,-401.23 704.7,-403.19 703.66,-396.27"/>
</a>
</g>
</g>
<!-- Node3 -->
<g id="Node000003" class="node">
<title>Node3</title>
<g id="a_Node000003"><a xlink:href="DepthModel_8cpp.html" target="_top" xlink:title=" ">
<polygon fill="white" stroke="#666666" points="153.34,-150 49.59,-150 49.59,-130 153.34,-130 153.34,-150"/>
<text text-anchor="middle" x="101.47" y="-136.5" font-family="Helvetica,sans-Serif" font-size="10.00">src/DepthModel.cpp</text>
</a>
</g>
</g>
<!-- Node2&#45;&gt;Node3 -->
<g id="edge2_Node000002_Node000003" class="edge">
<title>Node2&#45;&gt;Node3</title>
<g id="a_edge2_Node000002_Node000003"><a xlink:title=" ">
<path fill="none" stroke="#63b8ff" d="M101.47,-186.28C101.47,-174.27 101.47,-159.74 101.47,-150.44"/>
<polygon fill="#63b8ff" stroke="#63b8ff" points="97.97,-186.03 101.47,-196.03 104.97,-186.03 97.97,-186.03"/>
</a>
</g>
</g>
<!-- Node4 -->
<g id="Node000004" class="node">
<title>Node4</title>
<g id="a_Node000004"><a xlink:href="MetricDepthModel_8cpp.html" target="_top" xlink:title=" ">
<polygon fill="white" stroke="#666666" points="357.84,-150 227.09,-150 227.09,-130 357.84,-130 357.84,-150"/>
<text text-anchor="middle" x="292.47" y="-136.5" font-family="Helvetica,sans-Serif" font-size="10.00">src/MetricDepthModel.cpp</text>
</a>
</g>
</g>
<!-- Node2&#45;&gt;Node4 -->
<g id="edge3_Node000002_Node000004" class="edge">
<title>Node2&#45;&gt;Node4</title>
<g id="a_edge3_Node000002_Node000004"><a xlink:title=" ">
<path fill="none" stroke="#63b8ff" d="M139.24,-193.95C176.37,-181.12 232.13,-161.85 265.15,-150.44"/>
<polygon fill="#63b8ff" stroke="#63b8ff" points="138.57,-190.48 130.26,-197.05 140.86,-197.09 138.57,-190.48"/>
</a>
</g>
</g>
<!-- Node5&#45;&gt;Node4 -->
<g id="edge5_Node000005_Node000004" class="edge">
<title>Node5&#45;&gt;Node4</title>
<g id="a_edge5_Node000005_Node000004"><a xlink:title=" ">
<path fill="none" stroke="#63b8ff" d="M402.34,-187.19C373.41,-175.03 337.67,-160 314.97,-150.46"/>
<polygon fill="#63b8ff" stroke="#63b8ff" points="400.69,-190.29 411.26,-190.94 403.4,-183.84 400.69,-190.29"/>
</a>
</g>
</g>
<!-- Node6 -->
<g id="Node000006" class="node">
<title>Node6</title>
<g id="a_Node000006"><a xlink:href="Operators_8cpp.html" target="_top" xlink:title=" ">
<polygon fill="white" stroke="#666666" points="485.47,-150 391.47,-150 391.47,-130 485.47,-130 485.47,-150"/>
<text text-anchor="middle" x="438.47" y="-136.5" font-family="Helvetica,sans-Serif" font-size="10.00">src/Operators.cpp</text>
</a>
</g>
</g>
<!-- Node5&#45;&gt;Node6 -->
<g id="edge6_Node000005_Node000006" class="edge">
<title>Node5&#45;&gt;Node6</title>
<g id="a_edge6_Node000005_Node000006"><a xlink:title=" ">
<path fill="none" stroke="#63b8ff" d="M445.08,-180.66C443.29,-169.92 441.33,-158.21 440.02,-150.32"/>
<polygon fill="#63b8ff" stroke="#63b8ff" points="441.57,-180.91 446.67,-190.2 448.47,-179.76 441.57,-180.91"/>
</a>
</g>
</g>
<!-- Node7&#45;&gt;Node3 -->
<g id="edge8_Node000007_Node000003" class="edge">
<title>Node7&#45;&gt;Node3</title>
<g id="a_edge8_Node000007_Node000003"><a xlink:title=" ">
<path fill="none" stroke="#63b8ff" d="M249.41,-193.78C213.45,-180.95 159.77,-161.8 127.92,-150.44"/>
<polygon fill="#63b8ff" stroke="#63b8ff" points="247.94,-196.97 258.53,-197.04 250.29,-190.38 247.94,-196.97"/>
</a>
</g>
</g>
<!-- Node7&#45;&gt;Node4 -->
<g id="edge9_Node000007_Node000004" class="edge">
<title>Node7&#45;&gt;Node4</title>
<g id="a_edge9_Node000007_Node000004"><a xlink:title=" ">
<path fill="none" stroke="#63b8ff" d="M288.35,-186.28C289.44,-174.27 290.76,-159.74 291.61,-150.44"/>
<polygon fill="#63b8ff" stroke="#63b8ff" points="284.88,-185.76 287.46,-196.04 291.85,-186.39 284.88,-185.76"/>
</a>
</g>
</g>
<!-- Node7&#45;&gt;Node6 -->
<g id="edge10_Node000007_Node000006" class="edge">
<title>Node7&#45;&gt;Node6</title>
<g id="a_edge10_Node000007_Node000006"><a xlink:title=" ">
<path fill="none" stroke="#63b8ff" d="M318.45,-193.11C347.97,-180.29 391.01,-161.61 416.73,-150.44"/>
<polygon fill="#63b8ff" stroke="#63b8ff" points="317.41,-189.75 309.63,-196.94 320.2,-196.17 317.41,-189.75"/>
</a>
</g>
</g>
<!-- Node8 -->
<g id="Node000008" class="node">
<title>Node8</title>
<g id="a_Node000008"><a xlink:href="YoloModel_8cpp.html" target="_top" xlink:title=" ">
<polygon fill="white" stroke="#666666" points="599.59,-150 503.34,-150 503.34,-130 599.59,-130 599.59,-150"/>
<text text-anchor="middle" x="551.47" y="-136.5" font-family="Helvetica,sans-Serif" font-size="10.00">src/YoloModel.cpp</text>
</a>
</g>
</g>
<!-- Node7&#45;&gt;Node8 -->
<g id="edge11_Node000007_Node000008" class="edge">
<title>Node7&#45;&gt;Node8</title>
<g id="a_edge11_Node000007_Node000008"><a xlink:title=" ">
<path fill="none" stroke="#63b8ff" d="M337.09,-194.84C379.24,-184.65 440.83,-169.63 494.47,-156 501.41,-154.24 508.82,-152.31 515.92,-150.45"/>
<polygon fill="#63b8ff" stroke="#63b8ff" points="336.37,-191.41 327.48,-197.16 338.02,-198.22 336.37,-191.41"/>
</a>
</g>
</g>
<!-- Node9&#45;&gt;Node4 -->
<g id="edge13_Node000009_Node000004" class="edge">
<title>Node9&#45;&gt;Node4</title>
<g id="a_edge13_Node000009_Node000004"><a xlink:title=" ">
<path fill="none" stroke="#63b8ff" d="M557.56,-191.57C490.85,-178.84 398.35,-161.2 342.11,-150.47"/>
<polygon fill="#63b8ff" stroke="#63b8ff" points="556.9,-195 567.38,-193.44 558.21,-188.13 556.9,-195"/>
</a>
</g>
</g>
<!-- Node9&#45;&gt;Node6 -->
<g id="edge14_Node000009_Node000006" class="edge">
<title>Node9&#45;&gt;Node6</title>
<g id="a_edge14_Node000009_Node000006"><a xlink:title=" ">
<path fill="none" stroke="#63b8ff" d="M580.85,-187.99C543.59,-175.69 496.69,-160.21 467.13,-150.46"/>
<polygon fill="#63b8ff" stroke="#63b8ff" points="579.54,-191.24 590.14,-191.05 581.74,-184.59 579.54,-191.24"/>
</a>
</g>
</g>
<!-- Node9&#45;&gt;Node10 -->
<g id="edge15_Node000009_Node000010" class="edge">
<title>Node9&#45;&gt;Node10</title>
<g id="a_edge15_Node000009_Node000010"><a xlink:title=" ">
<path fill="none" stroke="#63b8ff" d="M679.38,-186.39C703.23,-174.37 732.16,-159.79 750.69,-150.46"/>
<polygon fill="#63b8ff" stroke="#63b8ff" points="677.89,-183.22 670.53,-190.84 681.04,-189.47 677.89,-183.22"/>
</a>
</g>
</g>
<!-- Node11&#45;&gt;Node8 -->
<g id="edge23_Node000011_Node000008" class="edge">
<title>Node11&#45;&gt;Node8</title>
<g id="a_edge23_Node000011_Node000008"><a xlink:title=" ">
<path fill="none" stroke="#63b8ff" d="M922.39,-195.89C830.47,-182.29 677.45,-159.64 599.82,-148.16"/>
<polygon fill="#63b8ff" stroke="#63b8ff" points="921.66,-199.32 932.07,-197.32 922.69,-192.4 921.66,-199.32"/>
</a>
</g>
</g>
<!-- Node12 -->
<g id="Node000012" class="node">
<title>Node12</title>
<g id="a_Node000012"><a xlink:href="ObjectTracker_8hpp.html" target="_top" xlink:title=" ">
<polygon fill="white" stroke="#666666" points="1108.09,-156 978.84,-156 978.84,-124 1108.09,-124 1108.09,-156"/>
<text text-anchor="start" x="986.84" y="-142.5" font-family="Helvetica,sans-Serif" font-size="10.00">include/EyeAICore/Object</text>
<text text-anchor="middle" x="1043.47" y="-130.5" font-family="Helvetica,sans-Serif" font-size="10.00">Tracker.hpp</text>
</a>
</g>
</g>
<!-- Node11&#45;&gt;Node12 -->
<g id="edge17_Node000011_Node000012" class="edge">
<title>Node11&#45;&gt;Node12</title>
<g id="a_edge17_Node000011_Node000012"><a xlink:title=" ">
<path fill="none" stroke="#63b8ff" d="M1010.46,-188.35C1017.52,-178.22 1026.14,-165.86 1032.8,-156.3"/>
<polygon fill="#63b8ff" stroke="#63b8ff" points="1007.77,-186.1 1004.92,-196.3 1013.51,-190.1 1007.77,-186.1"/>
</a>
</g>
</g>
<!-- Node13 -->
<g id="Node000013" class="node">
<title>Node13</title>
<g id="a_Node000013"><a xlink:href="SpatialAudio_8hpp.html" target="_top" xlink:title=" ">
<polygon fill="white" stroke="#666666" points="1194.47,-88 1070.47,-88 1070.47,-56 1194.47,-56 1194.47,-88"/>
<text text-anchor="start" x="1078.47" y="-74.5" font-family="Helvetica,sans-Serif" font-size="10.00">include/EyeAICore/audio</text>
<text text-anchor="middle" x="1132.47" y="-62.5" font-family="Helvetica,sans-Serif" font-size="10.00">/SpatialAudio.hpp</text>
</a>
</g>
</g>
<!-- Node11&#45;&gt;Node13 -->
<g id="edge21_Node000011_Node000013" class="edge">
<title>Node11&#45;&gt;Node13</title>
<g id="a_edge21_Node000011_Node000013"><a xlink:title=" ">
<path fill="none" stroke="#63b8ff" d="M1058.11,-194.04C1079.87,-186.44 1102.66,-174.54 1117.47,-156 1133,-136.55 1134.52,-106.33 1133.78,-88.22"/>
<polygon fill="#63b8ff" stroke="#63b8ff" points="1057.11,-190.69 1048.66,-197.07 1059.25,-197.35 1057.11,-190.69"/>
</a>
</g>
</g>
<!-- Node14 -->
<g id="Node000014" class="node">
<title>Node14</title>
<g id="a_Node000014"><a xlink:href="SpatialAudio_8cpp.html" target="_top" xlink:title=" ">
<polygon fill="white" stroke="#666666" points="1088.59,-20 956.34,-20 956.34,0 1088.59,0 1088.59,-20"/>
<text text-anchor="middle" x="1022.47" y="-6.5" font-family="Helvetica,sans-Serif" font-size="10.00">src/audio/SpatialAudio.cpp</text>
</a>
</g>
</g>
<!-- Node11&#45;&gt;Node14 -->
<g id="edge24_Node000011_Node000014" class="edge">
<title>Node11&#45;&gt;Node14</title>
<g id="a_edge24_Node000011_Node000014"><a xlink:title=" ">
<path fill="none" stroke="#63b8ff" d="M979.37,-189.76C951.31,-160.87 903.29,-101.37 931.47,-56 942.63,-38.03 963.32,-27.02 982.15,-20.39"/>
<polygon fill="#63b8ff" stroke="#63b8ff" points="976.71,-192.05 986.27,-196.63 981.65,-187.09 976.71,-192.05"/>
</a>
</g>
</g>
<!-- Node15 -->
<g id="Node000015" class="node">
<title>Node15</title>
<g id="a_Node000015"><a xlink:href="ObjectTracker_8cpp.html" target="_top" xlink:title=" ">
<polygon fill="white" stroke="#666666" points="1052.84,-82 940.09,-82 940.09,-62 1052.84,-62 1052.84,-82"/>
<text text-anchor="middle" x="996.47" y="-68.5" font-family="Helvetica,sans-Serif" font-size="10.00">src/ObjectTracker.cpp</text>
</a>
</g>
</g>
<!-- Node11&#45;&gt;Node15 -->
<g id="edge22_Node000011_Node000015" class="edge">
<title>Node11&#45;&gt;Node15</title>
<g id="a_edge22_Node000011_Node000015"><a xlink:title=" ">
<path fill="none" stroke="#63b8ff" d="M984.37,-188.51C978.58,-179.22 972.42,-167.52 969.47,-156 965.93,-142.22 966.04,-137.8 969.47,-124 973.38,-108.25 983.15,-92.01 989.8,-82.21"/>
<polygon fill="#63b8ff" stroke="#63b8ff" points="981.27,-190.18 989.72,-196.57 987.1,-186.31 981.27,-190.18"/>
</a>
</g>
</g>
<!-- Node12&#45;&gt;Node13 -->
<g id="edge18_Node000012_Node000013" class="edge">
<title>Node12&#45;&gt;Node13</title>
<g id="a_edge18_Node000012_Node000013"><a xlink:title=" ">
<path fill="none" stroke="#63b8ff" d="M1073.31,-116.87C1085.88,-107.55 1100.22,-96.91 1111.63,-88.45"/>
<polygon fill="#63b8ff" stroke="#63b8ff" points="1071.27,-114.02 1065.32,-122.79 1075.44,-119.65 1071.27,-114.02"/>
</a>
</g>
</g>
<!-- Node12&#45;&gt;Node15 -->
<g id="edge20_Node000012_Node000015" class="edge">
<title>Node12&#45;&gt;Node15</title>
<g id="a_edge20_Node000012_Node000015"><a xlink:title=" ">
<path fill="none" stroke="#63b8ff" d="M1025.92,-114.36C1017.96,-103.18 1009.02,-90.63 1003.1,-82.32"/>
<polygon fill="#63b8ff" stroke="#63b8ff" points="1023.04,-116.34 1031.69,-122.46 1028.74,-112.28 1023.04,-116.34"/>
</a>
</g>
</g>
<!-- Node13&#45;&gt;Node14 -->
<g id="edge19_Node000013_Node000014" class="edge">
<title>Node13&#45;&gt;Node14</title>
<g id="a_edge19_Node000013_Node000014"><a xlink:title=" ">
<path fill="none" stroke="#63b8ff" d="M1094.18,-50.12C1075.62,-39.99 1054.26,-28.34 1039.71,-20.41"/>
<polygon fill="#63b8ff" stroke="#63b8ff" points="1092.36,-53.11 1102.81,-54.82 1095.71,-46.96 1092.36,-53.11"/>
</a>
</g>
</g>
<!-- Node16&#45;&gt;Node2 -->
<g id="edge26_Node000016_Node000002" class="edge">
<title>Node16&#45;&gt;Node2</title>
<g id="a_edge26_Node000016_Node000002"><a xlink:title=" ">
<path fill="none" stroke="#63b8ff" d="M468.12,-264.58C398.72,-254.4 290.32,-238.39 196.47,-224 185,-222.24 172.75,-220.33 161,-218.48"/>
<polygon fill="#63b8ff" stroke="#63b8ff" points="467.44,-268.02 477.84,-266.01 468.46,-261.09 467.44,-268.02"/>
</a>
</g>
</g>
<!-- Node16&#45;&gt;Node3 -->
<g id="edge30_Node000016_Node000003" class="edge">
<title>Node16&#45;&gt;Node3</title>
<g id="a_edge30_Node000016_Node000003"><a xlink:title=" ">
<path fill="none" stroke="#63b8ff" d="M468.33,-273.41C330.3,-269.57 36.95,-257.54 6.47,-224 -3.1,-213.48 -0.83,-204.21 6.47,-192 19.15,-170.79 44.01,-157.9 65.12,-150.38"/>
<polygon fill="#63b8ff" stroke="#63b8ff" points="467.99,-276.9 478.08,-273.67 468.18,-269.9 467.99,-276.9"/>
</a>
</g>
</g>
<!-- Node16&#45;&gt;Node5 -->
<g id="edge27_Node000016_Node000005" class="edge">
<title>Node16&#45;&gt;Node5</title>
<g id="a_edge27_Node000016_Node000005"><a xlink:title=" ">
<path fill="none" stroke="#63b8ff" d="M509.67,-253.15C496.86,-243.75 482.19,-233 470.54,-224.45"/>
<polygon fill="#63b8ff" stroke="#63b8ff" points="507.24,-255.71 517.37,-258.8 511.38,-250.06 507.24,-255.71"/>
</a>
</g>
</g>
<!-- Node16&#45;&gt;Node8 -->
<g id="edge31_Node000016_Node000008" class="edge">
<title>Node16&#45;&gt;Node8</title>
<g id="a_edge31_Node000016_Node000008"><a xlink:title=" ">
<path fill="none" stroke="#63b8ff" d="M541.87,-248.21C544.58,-217.9 548.86,-170.16 550.64,-150.22"/>
<polygon fill="#63b8ff" stroke="#63b8ff" points="538.38,-247.85 540.98,-258.12 545.36,-248.47 538.38,-247.85"/>
</a>
</g>
</g>
<!-- Node16&#45;&gt;Node9 -->
<g id="edge28_Node000016_Node000009" class="edge">
<title>Node16&#45;&gt;Node9</title>
<g id="a_edge28_Node000016_Node000009"><a xlink:title=" ">
<path fill="none" stroke="#63b8ff" d="M572.08,-253.25C586.25,-243.81 602.52,-232.97 615.4,-224.38"/>
<polygon fill="#63b8ff" stroke="#63b8ff" points="570.32,-250.23 563.94,-258.69 574.2,-256.05 570.32,-250.23"/>
</a>
</g>
</g>
<!-- Node16&#45;&gt;Node11 -->
<g id="edge29_Node000016_Node000011" class="edge">
<title>Node16&#45;&gt;Node11</title>
<g id="a_edge29_Node000016_Node000011"><a xlink:title=" ">
<path fill="none" stroke="#63b8ff" d="M610.52,-264.76C698.28,-252.11 846.38,-230.77 931.65,-218.48"/>
<polygon fill="#63b8ff" stroke="#63b8ff" points="610.24,-261.27 600.84,-266.16 611.24,-268.19 610.24,-261.27"/>
</a>
</g>
</g>
<!-- Node17 -->
<g id="Node000017" class="node">
<title>Node17</title>
<g id="a_Node000017"><a xlink:href="TfLiteRuntime_8cpp.html" target="_top" xlink:title=" ">
<polygon fill="white" stroke="#666666" points="859.72,-218 725.22,-218 725.22,-198 859.72,-198 859.72,-218"/>
<text text-anchor="middle" x="792.47" y="-204.5" font-family="Helvetica,sans-Serif" font-size="10.00">src/tflite/TfLiteRuntime.cpp</text>
</a>
</g>
</g>
<!-- Node16&#45;&gt;Node17 -->
<g id="edge32_Node000016_Node000017" class="edge">
<title>Node16&#45;&gt;Node17</title>
<g id="a_edge32_Node000016_Node000017"><a xlink:title=" ">
<path fill="none" stroke="#63b8ff" d="M609.64,-256.69C657.19,-244.29 718.09,-228.4 756.2,-218.46"/>
<polygon fill="#63b8ff" stroke="#63b8ff" points="609.04,-253.23 600.25,-259.14 610.81,-260.01 609.04,-253.23"/>
</a>
</g>
</g>
<!-- Node18&#45;&gt;Node9 -->
<g id="edge34_Node000018_Node000009" class="edge">
<title>Node18&#45;&gt;Node9</title>
<g id="a_edge34_Node000018_Node000009"><a xlink:title=" ">
<path fill="none" stroke="#63b8ff" d="M700.07,-318.12C695.03,-309.85 689.44,-300.57 684.47,-292 670.9,-268.64 655.84,-241.14 646.76,-224.4"/>
<polygon fill="#63b8ff" stroke="#63b8ff" points="697.08,-319.94 705.29,-326.63 703.04,-316.28 697.08,-319.94"/>
</a>
</g>
</g>
<!-- Node18&#45;&gt;Node16 -->
<g id="edge35_Node000018_Node000016" class="edge">
<title>Node18&#45;&gt;Node16</title>
<g id="a_edge35_Node000018_Node000016"><a xlink:title=" ">
<path fill="none" stroke="#63b8ff" d="M663.61,-323.56C637.2,-313.65 605.52,-301.77 580.78,-292.49"/>
<polygon fill="#63b8ff" stroke="#63b8ff" points="662.19,-326.76 672.79,-326.99 664.65,-320.21 662.19,-326.76"/>
</a>
</g>
</g>
<!-- Node18&#45;&gt;Node17 -->
<g id="edge36_Node000018_Node000017" class="edge">
<title>Node18&#45;&gt;Node17</title>
<g id="a_edge36_Node000018_Node000017"><a xlink:title=" ">
<path fill="none" stroke="#63b8ff" d="M785.19,-322.65C799.17,-315.28 812.12,-305.34 820.47,-292 835.64,-267.77 813.43,-234.36 800.55,-218.33"/>
<polygon fill="#63b8ff" stroke="#63b8ff" points="783.75,-319.46 776.24,-326.93 786.77,-325.78 783.75,-319.46"/>
</a>
</g>
</g>
<!-- Node19 -->
<g id="Node000019" class="node">
<title>Node19</title>
<g id="a_Node000019"><a xlink:href="TfLiteUtils_8cpp.html" target="_top" xlink:title=" ">
<polygon fill="white" stroke="#666666" points="811.47,-286 693.47,-286 693.47,-266 811.47,-266 811.47,-286"/>
<text text-anchor="middle" x="752.47" y="-272.5" font-family="Helvetica,sans-Serif" font-size="10.00">src/tflite/TfLiteUtils.cpp</text>
</a>
</g>
</g>
<!-- Node18&#45;&gt;Node19 -->
<g id="edge37_Node000018_Node000019" class="edge">
<title>Node18&#45;&gt;Node19</title>
<g id="a_edge37_Node000018_Node000019"><a xlink:title=" ">
<path fill="none" stroke="#63b8ff" d="M729.66,-317.68C735.83,-306.68 742.68,-294.46 747.24,-286.32"/>
<polygon fill="#63b8ff" stroke="#63b8ff" points="726.63,-315.94 724.79,-326.37 732.73,-319.36 726.63,-315.94"/>
</a>
</g>
</g>
</g>
</svg>
