<?xml version="1.0" encoding="UTF-8" standalone="no"?>
<!DOCTYPE svg PUBLIC "-//W3C//DTD SVG 1.1//EN"
 "http://www.w3.org/Graphics/SVG/1.1/DTD/svg11.dtd">
<!-- Generated by graphviz version 12.2.1 (20241206.2353)
 -->
<!-- Title: src/tflite/TfLiteUtils.cpp Pages: 1 -->
<svg width="1089pt" height="212pt"
 viewBox="0.00 0.00 1089.25 211.75" xmlns="http://www.w3.org/2000/svg" xmlns:xlink="http://www.w3.org/1999/xlink">
<g id="graph0" class="graph" transform="scale(1 1) rotate(0) translate(4 207.75)">
<title>src/tflite/TfLiteUtils.cpp</title>
<!-- Node1 -->
<g id="Node000001" class="node">
<title>Node1</title>
<g id="a_Node000001"><a xlink:title=" ">
<polygon fill="#999999" stroke="#666666" points="752.5,-203.75 623.25,-203.75 623.25,-183 752.5,-183 752.5,-203.75"/>
<text text-anchor="middle" x="687.88" y="-190.25" font-family="Helvetica,sans-Serif" font-size="10.00">src/tflite/TfLiteUtils.cpp</text>
</a>
</g>
</g>
<!-- Node2 -->
<g id="Node000002" class="node">
<title>Node2</title>
<g id="a_Node000002"><a xlink:href="TfLiteUtils_8hpp.html" target="_top" xlink:title=" ">
<polygon fill="white" stroke="#666666" points="606.88,-147 440.88,-147 440.88,-126.25 606.88,-126.25 606.88,-147"/>
<text text-anchor="middle" x="523.88" y="-133.5" font-family="Helvetica,sans-Serif" font-size="10.00">EyeAICore/tflite/TfLiteUtils.hpp</text>
</a>
</g>
</g>
<!-- Node1&#45;&gt;Node2 -->
<g id="edge1_Node000001_Node000002" class="edge">
<title>Node1&#45;&gt;Node2</title>
<g id="a_edge1_Node000001_Node000002"><a xlink:title=" ">
<path fill="none" stroke="#63b8ff" d="M658.56,-182.59C632.17,-173.78 593.16,-160.75 563.9,-150.99"/>
<polygon fill="#63b8ff" stroke="#63b8ff" points="565.25,-147.75 554.65,-147.9 563.03,-154.39 565.25,-147.75"/>
</a>
</g>
</g>
<!-- Node17 -->
<g id="Node000017" class="node">
<title>Node17</title>
<g id="a_Node000017"><a xlink:href="Profiling_8hpp.html" target="_top" xlink:title=" ">
<polygon fill="white" stroke="#666666" points="968.88,-147 814.88,-147 814.88,-126.25 968.88,-126.25 968.88,-147"/>
<text text-anchor="middle" x="891.88" y="-133.5" font-family="Helvetica,sans-Serif" font-size="10.00">EyeAICore/utils/Profiling.hpp</text>
</a>
</g>
</g>
<!-- Node1&#45;&gt;Node17 -->
<g id="edge19_Node000001_Node000017" class="edge">
<title>Node1&#45;&gt;Node17</title>
<g id="a_edge19_Node000001_Node000017"><a xlink:title=" ">
<path fill="none" stroke="#63b8ff" d="M724.35,-182.59C757.89,-173.58 807.84,-160.18 844.47,-150.35"/>
<polygon fill="#63b8ff" stroke="#63b8ff" points="845.16,-153.79 853.91,-147.81 843.35,-147.02 845.16,-153.79"/>
</a>
</g>
</g>
<!-- Node3 -->
<g id="Node000003" class="node">
<title>Node3</title>
<g id="a_Node000003"><a xlink:href="TensorBuffer_8hpp.html" target="_top" xlink:title=" ">
<polygon fill="white" stroke="#666666" points="761,-83.88 610.75,-83.88 610.75,-63.12 761,-63.12 761,-83.88"/>
<text text-anchor="middle" x="685.88" y="-70.38" font-family="Helvetica,sans-Serif" font-size="10.00">EyeAICore/TensorBuffer.hpp</text>
</a>
</g>
</g>
<!-- Node2&#45;&gt;Node3 -->
<g id="edge2_Node000002_Node000003" class="edge">
<title>Node2&#45;&gt;Node3</title>
<g id="a_edge2_Node000002_Node000003"><a xlink:title=" ">
<path fill="none" stroke="#63b8ff" d="M549.9,-125.8C576.83,-115.65 619.1,-99.7 649.36,-88.28"/>
<polygon fill="#63b8ff" stroke="#63b8ff" points="650.37,-91.64 658.5,-84.83 647.9,-85.09 650.37,-91.64"/>
</a>
</g>
</g>
<!-- Node5 -->
<g id="Node000005" class="node">
<title>Node5</title>
<g id="a_Node000005"><a xlink:title=" ">
<polygon fill="#e0e0e0" stroke="#999999" points="808.5,-20.75 751.25,-20.75 751.25,0 808.5,0 808.5,-20.75"/>
<text text-anchor="middle" x="779.88" y="-7.25" font-family="Helvetica,sans-Serif" font-size="10.00">memory</text>
</a>
</g>
</g>
<!-- Node2&#45;&gt;Node5 -->
<g id="edge13_Node000002_Node000005" class="edge">
<title>Node2&#45;&gt;Node5</title>
<g id="a_edge13_Node000002_Node000005"><a xlink:title=" ">
<path fill="none" stroke="#63b8ff" d="M607.13,-130.63C669.56,-125.04 747.87,-113.53 769.88,-90.25 784.29,-75 785.11,-50.05 783.4,-32.3"/>
<polygon fill="#63b8ff" stroke="#63b8ff" points="786.9,-32.07 782.11,-22.62 779.96,-33 786.9,-32.07"/>
</a>
</g>
</g>
<!-- Node6 -->
<g id="Node000006" class="node">
<title>Node6</title>
<g id="a_Node000006"><a xlink:title=" ">
<polygon fill="#e0e0e0" stroke="#999999" points="527.5,-20.75 488.25,-20.75 488.25,0 527.5,0 527.5,-20.75"/>
<text text-anchor="middle" x="507.88" y="-7.25" font-family="Helvetica,sans-Serif" font-size="10.00">span</text>
</a>
</g>
</g>
<!-- Node2&#45;&gt;Node6 -->
<g id="edge15_Node000002_Node000006" class="edge">
<title>Node2&#45;&gt;Node6</title>
<g id="a_edge15_Node000002_Node000006"><a xlink:title=" ">
<path fill="none" stroke="#63b8ff" d="M440.43,-133.17C369.6,-129.12 275.74,-118.43 251.88,-90.25 242.25,-78.89 242.31,-68.16 251.88,-56.75 280.22,-22.94 414.53,-14.31 476.46,-12.12"/>
<polygon fill="#63b8ff" stroke="#63b8ff" points="476.43,-15.62 486.31,-11.81 476.21,-8.62 476.43,-15.62"/>
</a>
</g>
</g>
<!-- Node9 -->
<g id="Node000009" class="node">
<title>Node9</title>
<g id="a_Node000009"><a xlink:href="Errors_8hpp.html" target="_top" xlink:title=" ">
<polygon fill="white" stroke="#666666" points="205.25,-83.88 62.5,-83.88 62.5,-63.12 205.25,-63.12 205.25,-83.88"/>
<text text-anchor="middle" x="133.88" y="-70.38" font-family="Helvetica,sans-Serif" font-size="10.00">EyeAICore/utils/Errors.hpp</text>
</a>
</g>
</g>
<!-- Node2&#45;&gt;Node9 -->
<g id="edge8_Node000002_Node000009" class="edge">
<title>Node2&#45;&gt;Node9</title>
<g id="a_edge8_Node000002_Node000009"><a xlink:title=" ">
<path fill="none" stroke="#63b8ff" d="M452.89,-125.79C391,-117.05 298.87,-103.61 218.88,-90.25 211.7,-89.05 204.19,-87.74 196.74,-86.41"/>
<polygon fill="#63b8ff" stroke="#63b8ff" points="197.47,-82.98 187,-84.64 196.22,-89.87 197.47,-82.98"/>
</a>
</g>
</g>
<!-- Node13 -->
<g id="Node000013" class="node">
<title>Node13</title>
<g id="a_Node000013"><a xlink:title=" ">
<polygon fill="#e0e0e0" stroke="#999999" points="316.75,-83.88 261,-83.88 261,-63.12 316.75,-63.12 316.75,-83.88"/>
<text text-anchor="middle" x="288.88" y="-70.38" font-family="Helvetica,sans-Serif" font-size="10.00">optional</text>
</a>
</g>
</g>
<!-- Node2&#45;&gt;Node13 -->
<g id="edge14_Node000002_Node000013" class="edge">
<title>Node2&#45;&gt;Node13</title>
<g id="a_edge14_Node000002_Node000013"><a xlink:title=" ">
<path fill="none" stroke="#63b8ff" d="M468.96,-125.76C428.82,-117.89 373.34,-105.66 325.88,-90.25 324.09,-89.67 322.28,-89.04 320.46,-88.38"/>
<polygon fill="#63b8ff" stroke="#63b8ff" points="322.15,-85.28 311.56,-84.87 319.58,-91.79 322.15,-85.28"/>
</a>
</g>
</g>
<!-- Node14 -->
<g id="Node000014" class="node">
<title>Node14</title>
<g id="a_Node000014"><a xlink:title=" ">
<polygon fill="#e0e0e0" stroke="#999999" points="889,-83.88 816.75,-83.88 816.75,-63.12 889,-63.12 889,-83.88"/>
<text text-anchor="middle" x="852.88" y="-70.38" font-family="Helvetica,sans-Serif" font-size="10.00">string_view</text>
</a>
</g>
</g>
<!-- Node2&#45;&gt;Node14 -->
<g id="edge16_Node000002_Node000014" class="edge">
<title>Node2&#45;&gt;Node14</title>
<g id="a_edge16_Node000002_Node000014"><a xlink:title=" ">
<path fill="none" stroke="#63b8ff" d="M603.55,-125.77C659.68,-118.08 736.39,-106.04 802.88,-90.25 806.26,-89.45 809.76,-88.53 813.25,-87.55"/>
<polygon fill="#63b8ff" stroke="#63b8ff" points="814.21,-90.92 822.8,-84.72 812.22,-84.21 814.21,-90.92"/>
</a>
</g>
</g>
<!-- Node15 -->
<g id="Node000015" class="node">
<title>Node15</title>
<g id="a_Node000015"><a xlink:title=" ">
<polygon fill="#e0e0e0" stroke="#999999" points="437,-90.25 334.75,-90.25 334.75,-56.75 437,-56.75 437,-90.25"/>
<text text-anchor="start" x="342.75" y="-76.75" font-family="Helvetica,sans-Serif" font-size="10.00">tensorflow/lite/c/c</text>
<text text-anchor="middle" x="385.88" y="-64" font-family="Helvetica,sans-Serif" font-size="10.00">_api.h</text>
</a>
</g>
</g>
<!-- Node2&#45;&gt;Node15 -->
<g id="edge17_Node000002_Node000015" class="edge">
<title>Node2&#45;&gt;Node15</title>
<g id="a_edge17_Node000002_Node000015"><a xlink:title=" ">
<path fill="none" stroke="#63b8ff" d="M501.7,-125.8C483.2,-117.61 456.2,-105.65 432.92,-95.34"/>
<polygon fill="#63b8ff" stroke="#63b8ff" points="434.47,-92.2 423.91,-91.35 431.64,-98.6 434.47,-92.2"/>
</a>
</g>
</g>
<!-- Node16 -->
<g id="Node000016" class="node">
<title>Node16</title>
<g id="a_Node000016"><a xlink:title=" ">
<polygon fill="#e0e0e0" stroke="#999999" points="592.25,-90.25 455.5,-90.25 455.5,-56.75 592.25,-56.75 592.25,-90.25"/>
<text text-anchor="start" x="463.5" y="-76.75" font-family="Helvetica,sans-Serif" font-size="10.00">tensorflow/lite/delegates</text>
<text text-anchor="middle" x="523.88" y="-64" font-family="Helvetica,sans-Serif" font-size="10.00">/gpu/delegate.h</text>
</a>
</g>
</g>
<!-- Node2&#45;&gt;Node16 -->
<g id="edge18_Node000002_Node000016" class="edge">
<title>Node2&#45;&gt;Node16</title>
<g id="a_edge18_Node000002_Node000016"><a xlink:title=" ">
<path fill="none" stroke="#63b8ff" d="M523.88,-125.8C523.88,-119.38 523.88,-110.65 523.88,-102.2"/>
<polygon fill="#63b8ff" stroke="#63b8ff" points="527.38,-102.25 523.88,-92.25 520.38,-102.25 527.38,-102.25"/>
</a>
</g>
</g>
<!-- Node4 -->
<g id="Node000004" class="node">
<title>Node4</title>
<g id="a_Node000004"><a xlink:title=" ">
<polygon fill="#e0e0e0" stroke="#999999" points="652.38,-20.75 603.38,-20.75 603.38,0 652.38,0 652.38,-20.75"/>
<text text-anchor="middle" x="627.88" y="-7.25" font-family="Helvetica,sans-Serif" font-size="10.00">cstdint</text>
</a>
</g>
</g>
<!-- Node3&#45;&gt;Node4 -->
<g id="edge3_Node000003_Node000004" class="edge">
<title>Node3&#45;&gt;Node4</title>
<g id="a_edge3_Node000003_Node000004"><a xlink:title=" ">
<path fill="none" stroke="#63b8ff" d="M676.56,-62.68C667.97,-53.63 655.01,-39.97 644.63,-29.03"/>
<polygon fill="#63b8ff" stroke="#63b8ff" points="647.44,-26.91 638.02,-22.07 642.37,-31.73 647.44,-26.91"/>
</a>
</g>
</g>
<!-- Node3&#45;&gt;Node5 -->
<g id="edge4_Node000003_Node000005" class="edge">
<title>Node3&#45;&gt;Node5</title>
<g id="a_edge4_Node000003_Node000005"><a xlink:title=" ">
<path fill="none" stroke="#63b8ff" d="M700.98,-62.68C715.64,-53.14 738.15,-38.51 755.38,-27.31"/>
<polygon fill="#63b8ff" stroke="#63b8ff" points="757.07,-30.38 763.54,-22 753.25,-24.51 757.07,-30.38"/>
</a>
</g>
</g>
<!-- Node3&#45;&gt;Node6 -->
<g id="edge5_Node000003_Node000006" class="edge">
<title>Node3&#45;&gt;Node6</title>
<g id="a_edge5_Node000003_Node000006"><a xlink:title=" ">
<path fill="none" stroke="#63b8ff" d="M657.28,-62.68C624.7,-51.49 571.67,-33.28 538.33,-21.83"/>
<polygon fill="#63b8ff" stroke="#63b8ff" points="539.87,-18.66 529.27,-18.72 537.59,-25.28 539.87,-18.66"/>
</a>
</g>
</g>
<!-- Node7 -->
<g id="Node000007" class="node">
<title>Node7</title>
<g id="a_Node000007"><a xlink:title=" ">
<polygon fill="#e0e0e0" stroke="#999999" points="354.12,-20.75 303.62,-20.75 303.62,0 354.12,0 354.12,-20.75"/>
<text text-anchor="middle" x="328.88" y="-7.25" font-family="Helvetica,sans-Serif" font-size="10.00">variant</text>
</a>
</g>
</g>
<!-- Node3&#45;&gt;Node7 -->
<g id="edge6_Node000003_Node000007" class="edge">
<title>Node3&#45;&gt;Node7</title>
<g id="a_edge6_Node000003_Node000007"><a xlink:title=" ">
<path fill="none" stroke="#63b8ff" d="M633.76,-62.69C622.9,-60.69 611.52,-58.62 600.88,-56.75 516.89,-41.96 418.09,-25.79 365.76,-17.31"/>
<polygon fill="#63b8ff" stroke="#63b8ff" points="366.33,-13.86 355.9,-15.72 365.21,-20.77 366.33,-13.86"/>
</a>
</g>
</g>
<!-- Node8 -->
<g id="Node000008" class="node">
<title>Node8</title>
<g id="a_Node000008"><a xlink:title=" ">
<polygon fill="#e0e0e0" stroke="#999999" points="717.25,-20.75 670.5,-20.75 670.5,0 717.25,0 717.25,-20.75"/>
<text text-anchor="middle" x="693.88" y="-7.25" font-family="Helvetica,sans-Serif" font-size="10.00">vector</text>
</a>
</g>
</g>
<!-- Node3&#45;&gt;Node8 -->
<g id="edge7_Node000003_Node000008" class="edge">
<title>Node3&#45;&gt;Node8</title>
<g id="a_edge7_Node000003_Node000008"><a xlink:title=" ">
<path fill="none" stroke="#63b8ff" d="M687.16,-62.68C688.23,-54.52 689.78,-42.63 691.13,-32.35"/>
<polygon fill="#63b8ff" stroke="#63b8ff" points="694.6,-32.84 692.42,-22.47 687.65,-31.93 694.6,-32.84"/>
</a>
</g>
</g>
<!-- Node9&#45;&gt;Node7 -->
<g id="edge12_Node000009_Node000007" class="edge">
<title>Node9&#45;&gt;Node7</title>
<g id="a_edge12_Node000009_Node000007"><a xlink:title=" ">
<path fill="none" stroke="#63b8ff" d="M165.21,-62.68C199.94,-51.79 255.89,-34.25 292.52,-22.77"/>
<polygon fill="#63b8ff" stroke="#63b8ff" points="293.29,-26.2 301.78,-19.87 291.19,-19.52 293.29,-26.2"/>
</a>
</g>
</g>
<!-- Node10 -->
<g id="Node000010" class="node">
<title>Node10</title>
<g id="a_Node000010"><a xlink:title=" ">
<polygon fill="#e0e0e0" stroke="#999999" points="158.38,-20.75 109.38,-20.75 109.38,0 158.38,0 158.38,-20.75"/>
<text text-anchor="middle" x="133.88" y="-7.25" font-family="Helvetica,sans-Serif" font-size="10.00">format</text>
</a>
</g>
</g>
<!-- Node9&#45;&gt;Node10 -->
<g id="edge9_Node000009_Node000010" class="edge">
<title>Node9&#45;&gt;Node10</title>
<g id="a_edge9_Node000009_Node000010"><a xlink:title=" ">
<path fill="none" stroke="#63b8ff" d="M133.88,-62.68C133.88,-54.52 133.88,-42.63 133.88,-32.35"/>
<polygon fill="#63b8ff" stroke="#63b8ff" points="137.38,-32.48 133.88,-22.48 130.38,-32.48 137.38,-32.48"/>
</a>
</g>
</g>
<!-- Node11 -->
<g id="Node000011" class="node">
<title>Node11</title>
<g id="a_Node000011"><a xlink:title=" ">
<polygon fill="#e0e0e0" stroke="#999999" points="219.75,-20.75 176,-20.75 176,0 219.75,0 219.75,-20.75"/>
<text text-anchor="middle" x="197.88" y="-7.25" font-family="Helvetica,sans-Serif" font-size="10.00">string</text>
</a>
</g>
</g>
<!-- Node9&#45;&gt;Node11 -->
<g id="edge10_Node000009_Node000011" class="edge">
<title>Node9&#45;&gt;Node11</title>
<g id="a_edge10_Node000009_Node000011"><a xlink:title=" ">
<path fill="none" stroke="#63b8ff" d="M144.16,-62.68C153.73,-53.54 168.21,-39.7 179.73,-28.7"/>
<polygon fill="#63b8ff" stroke="#63b8ff" points="181.92,-31.45 186.73,-22.02 177.09,-26.39 181.92,-31.45"/>
</a>
</g>
</g>
<!-- Node12 -->
<g id="Node000012" class="node">
<title>Node12</title>
<g id="a_Node000012"><a xlink:title=" ">
<polygon fill="#e0e0e0" stroke="#999999" points="91.75,-20.75 0,-20.75 0,0 91.75,0 91.75,-20.75"/>
<text text-anchor="middle" x="45.88" y="-7.25" font-family="Helvetica,sans-Serif" font-size="10.00">tl/expected.hpp</text>
</a>
</g>
</g>
<!-- Node9&#45;&gt;Node12 -->
<g id="edge11_Node000009_Node000012" class="edge">
<title>Node9&#45;&gt;Node12</title>
<g id="a_edge11_Node000009_Node000012"><a xlink:title=" ">
<path fill="none" stroke="#63b8ff" d="M119.74,-62.68C106.14,-53.23 85.33,-38.78 69.26,-27.62"/>
<polygon fill="#63b8ff" stroke="#63b8ff" points="71.43,-24.87 61.22,-22.03 67.44,-30.61 71.43,-24.87"/>
</a>
</g>
</g>
<!-- Node17&#45;&gt;Node14 -->
<g id="edge22_Node000017_Node000014" class="edge">
<title>Node17&#45;&gt;Node14</title>
<g id="a_edge22_Node000017_Node000014"><a xlink:title=" ">
<path fill="none" stroke="#63b8ff" d="M885.61,-125.8C880.12,-117.2 871.98,-104.44 865.19,-93.8"/>
<polygon fill="#63b8ff" stroke="#63b8ff" points="868.14,-91.92 859.81,-85.37 862.24,-95.68 868.14,-91.92"/>
</a>
</g>
</g>
<!-- Node18 -->
<g id="Node000018" class="node">
<title>Node18</title>
<g id="a_Node000018"><a xlink:title=" ">
<polygon fill="#e0e0e0" stroke="#999999" points="956.38,-83.88 907.38,-83.88 907.38,-63.12 956.38,-63.12 956.38,-83.88"/>
<text text-anchor="middle" x="931.88" y="-70.38" font-family="Helvetica,sans-Serif" font-size="10.00">chrono</text>
</a>
</g>
</g>
<!-- Node17&#45;&gt;Node18 -->
<g id="edge20_Node000017_Node000018" class="edge">
<title>Node17&#45;&gt;Node18</title>
<g id="a_edge20_Node000017_Node000018"><a xlink:title=" ">
<path fill="none" stroke="#63b8ff" d="M898.3,-125.8C903.99,-117.11 912.46,-104.17 919.46,-93.47"/>
<polygon fill="#63b8ff" stroke="#63b8ff" points="922.22,-95.65 924.77,-85.36 916.36,-91.81 922.22,-95.65"/>
</a>
</g>
</g>
<!-- Node19 -->
<g id="Node000019" class="node">
<title>Node19</title>
<g id="a_Node000019"><a xlink:title=" ">
<polygon fill="#e0e0e0" stroke="#999999" points="1081.25,-83.88 974.5,-83.88 974.5,-63.12 1081.25,-63.12 1081.25,-83.88"/>
<text text-anchor="middle" x="1027.88" y="-70.38" font-family="Helvetica,sans-Serif" font-size="10.00">concurrentqueue.h</text>
</a>
</g>
</g>
<!-- Node17&#45;&gt;Node19 -->
<g id="edge21_Node000017_Node000019" class="edge">
<title>Node17&#45;&gt;Node19</title>
<g id="a_edge21_Node000017_Node000019"><a xlink:title=" ">
<path fill="none" stroke="#63b8ff" d="M913.73,-125.8C935.93,-115.82 970.57,-100.25 995.87,-88.88"/>
<polygon fill="#63b8ff" stroke="#63b8ff" points="997.01,-92.21 1004.7,-84.92 994.14,-85.82 997.01,-92.21"/>
</a>
</g>
</g>
</g>
</svg>
