<?xml version="1.0" encoding="UTF-8" standalone="no"?>
<!DOCTYPE svg PUBLIC "-//W3C//DTD SVG 1.1//EN"
 "http://www.w3.org/Graphics/SVG/1.1/DTD/svg11.dtd">
<!-- Generated by graphviz version 12.2.1 (20241206.2353)
 -->
<!-- Title: include/EyeAICore/tflite/TfLiteRuntime.hpp Pages: 1 -->
<!--zoomable 225 -->

<svg id="main" version="1.1" xmlns="http://www.w3.org/2000/svg" xmlns:xlink="http://www.w3.org/1999/xlink" xml:space="preserve" onload="init(evt)">

<style type="text/css"><![CDATA[
.node, .edge {opacity: 0.7;}
.node.selected, .edge.selected {opacity: 1;}
.edge:hover path { stroke: red; }
.edge:hover polygon { stroke: red; fill: red; }
]]></style>

<defs>
  <circle id="rim" cx="0" cy="0" r="7"/>
  <circle id="rim2" cx="0" cy="0" r="3.5"/>
  <g id="zoomPlus">
    <use xlink:href="#rim" fill="#404040"><set attributeName="fill" to="#808080" begin="zoomplus.mouseover" end="zoomplus.mouseout"/></use>
    <path d="M-4,0h8M0,-4v8" fill="none" stroke="white" stroke-width="1.5" pointer-events="none"/>
  </g>
  <g id="zoomMin">
    <use xlink:href="#rim" fill="#404040"><set attributeName="fill" to="#808080" begin="zoomminus.mouseover" end="zoomminus.mouseout"/></use>
    <path d="M-4,0h8" fill="none" stroke="white" stroke-width="1.5" pointer-events="none"/>
  </g>
  <g id="arrowUp" transform="translate(30 24)">
    <use xlink:href="#rim"/>
    <path pointer-events="none" fill="none" stroke="white" stroke-width="1.5" d="M0,-3.0v7 M-2.5,-0.5L0,-3.0L2.5,-0.5"/>
  </g>
  <g id="arrowRight" transform="rotate(90) translate(36 -43)">
    <use xlink:href="#rim"/>
    <path pointer-events="none" fill="none" stroke="white" stroke-width="1.5" d="M0,-3.0v7 M-2.5,-0.5L0,-3.0L2.5,-0.5"/>
  </g>
  <g id="arrowDown" transform="rotate(180) translate(-30 -48)">
    <use xlink:href="#rim"/>
    <path pointer-events="none" fill="none" stroke="white" stroke-width="1.5" d="M0,-3.0v7 M-2.5,-0.5L0,-3.0L2.5,-0.5"/>
  </g>
  <g id="arrowLeft" transform="rotate(270) translate(-36 17)">
    <use xlink:href="#rim"/>
    <path pointer-events="none" fill="none" stroke="white" stroke-width="1.5" d="M0,-3.0v7 M-2.5,-0.5L0,-3.0L2.5,-0.5"/>
  </g>
  <g id="resetDef">
    <use xlink:href="#rim2" fill="#404040"><set attributeName="fill" to="#808080" begin="reset.mouseover" end="reset.mouseout"/></use>
  </g>
</defs>
<script type="application/ecmascript">
var viewWidth = 906;
var viewHeight = 225;
var sectionId = 'dynsection-0';
</script>
<script type="application/ecmascript" xlink:href="svg.min.js"/>
<svg id="graph" class="graph">
<g id="viewport">
<title>include/EyeAICore/tflite/TfLiteRuntime.hpp</title>
<!-- Node1 -->
<g id="Node000001" class="node">
<title>Node1</title>
<g id="a_Node000001"><a xlink:title=" ">
<polygon fill="#999999" stroke="#666666" points="594.62,-216.5 464.62,-216.5 464.62,-183 594.62,-183 594.62,-216.5"/>
<text text-anchor="start" x="472.62" y="-203" font-family="Helvetica,sans-Serif" font-size="10.00">include/EyeAICore/tflite</text>
<text text-anchor="middle" x="529.62" y="-190.25" font-family="Helvetica,sans-Serif" font-size="10.00">/TfLiteRuntime.hpp</text>
</a>
</g>
</g>
<!-- Node2 -->
<g id="Node000002" class="node">
<title>Node2</title>
<g id="a_Node000002"><a xlink:href="TensorBuffer_8hpp.html" target="_top" xlink:title=" ">
<polygon fill="white" stroke="#666666" points="206.75,-83.88 56.5,-83.88 56.5,-63.12 206.75,-63.12 206.75,-83.88"/>
<text text-anchor="middle" x="131.62" y="-70.38" font-family="Helvetica,sans-Serif" font-size="10.00">EyeAICore/TensorBuffer.hpp</text>
</a>
</g>
</g>
<!-- Node1&#45;&gt;Node2 -->
<g id="edge1_Node000001_Node000002" class="edge">
<title>Node1&#45;&gt;Node2</title>
<g id="a_edge1_Node000001_Node000002"><a xlink:title=" ">
<path fill="none" stroke="#63b8ff" d="M464.4,-197.46C399.85,-194.01 299.55,-182.7 220.62,-147 191.86,-133.99 164.62,-109.33 148.03,-92.41"/>
<polygon fill="#63b8ff" stroke="#63b8ff" points="150.85,-90.29 141.42,-85.47 145.78,-95.12 150.85,-90.29"/>
</a>
</g>
</g>
<!-- Node4 -->
<g id="Node000004" class="node">
<title>Node4</title>
<g id="a_Node000004"><a xlink:title=" ">
<polygon fill="#e0e0e0" stroke="#999999" points="57.25,-20.75 0,-20.75 0,0 57.25,0 57.25,-20.75"/>
<text text-anchor="middle" x="28.62" y="-7.25" font-family="Helvetica,sans-Serif" font-size="10.00">memory</text>
</a>
</g>
</g>
<!-- Node1&#45;&gt;Node4 -->
<g id="edge22_Node000001_Node000004" class="edge">
<title>Node1&#45;&gt;Node4</title>
<g id="a_edge22_Node000001_Node000004"><a xlink:title=" ">
<path fill="none" stroke="#63b8ff" d="M464.18,-195.21C339.64,-186.89 76.48,-161.13 26.62,-90.25 14.83,-73.48 17.51,-49.36 21.77,-32.21"/>
<polygon fill="#63b8ff" stroke="#63b8ff" points="25.13,-33.2 24.55,-22.62 18.41,-31.25 25.13,-33.2"/>
</a>
</g>
</g>
<!-- Node5 -->
<g id="Node000005" class="node">
<title>Node5</title>
<g id="a_Node000005"><a xlink:title=" ">
<polygon fill="#e0e0e0" stroke="#999999" points="254.25,-20.75 215,-20.75 215,0 254.25,0 254.25,-20.75"/>
<text text-anchor="middle" x="234.62" y="-7.25" font-family="Helvetica,sans-Serif" font-size="10.00">span</text>
</a>
</g>
</g>
<!-- Node1&#45;&gt;Node5 -->
<g id="edge23_Node000001_Node000005" class="edge">
<title>Node1&#45;&gt;Node5</title>
<g id="a_edge23_Node000001_Node000005"><a xlink:title=" ">
<path fill="none" stroke="#63b8ff" d="M464.21,-189.63C402.15,-177.55 310.58,-150.27 256.62,-90.25 242.32,-74.34 237.23,-49.88 235.47,-32.42"/>
<polygon fill="#63b8ff" stroke="#63b8ff" points="238.98,-32.41 234.79,-22.68 231.99,-32.9 238.98,-32.41"/>
</a>
</g>
</g>
<!-- Node8 -->
<g id="Node000008" class="node">
<title>Node8</title>
<g id="a_Node000008"><a xlink:href="TfLiteUtils_8hpp.html" target="_top" xlink:title=" ">
<polygon fill="white" stroke="#666666" points="532.25,-147 445,-147 445,-126.25 532.25,-126.25 532.25,-147"/>
<text text-anchor="middle" x="488.62" y="-133.5" font-family="Helvetica,sans-Serif" font-size="10.00">TfLiteUtils.hpp</text>
</a>
</g>
</g>
<!-- Node1&#45;&gt;Node8 -->
<g id="edge7_Node000001_Node000008" class="edge">
<title>Node1&#45;&gt;Node8</title>
<g id="a_edge7_Node000001_Node000008"><a xlink:title=" ">
<path fill="none" stroke="#63b8ff" d="M518.85,-182.69C513.52,-174.74 507.05,-165.09 501.46,-156.77"/>
<polygon fill="#63b8ff" stroke="#63b8ff" points="504.55,-155.08 496.07,-148.72 498.73,-158.98 504.55,-155.08"/>
</a>
</g>
</g>
<!-- Node11 -->
<g id="Node000011" class="node">
<title>Node11</title>
<g id="a_Node000011"><a xlink:title=" ">
<polygon fill="#e0e0e0" stroke="#999999" points="748.5,-20.75 704.75,-20.75 704.75,0 748.5,0 748.5,-20.75"/>
<text text-anchor="middle" x="726.62" y="-7.25" font-family="Helvetica,sans-Serif" font-size="10.00">string</text>
</a>
</g>
</g>
<!-- Node1&#45;&gt;Node11 -->
<g id="edge24_Node000001_Node000011" class="edge">
<title>Node1&#45;&gt;Node11</title>
<g id="a_edge24_Node000001_Node000011"><a xlink:title=" ">
<path fill="none" stroke="#63b8ff" d="M594.93,-188.57C689,-172.43 855.23,-137.84 890.62,-90.25 926.61,-41.86 817.79,-21.79 760.07,-14.7"/>
<polygon fill="#63b8ff" stroke="#63b8ff" points="760.78,-11.26 750.44,-13.59 759.97,-18.21 760.78,-11.26"/>
</a>
</g>
</g>
<!-- Node14 -->
<g id="Node000014" class="node">
<title>Node14</title>
<g id="a_Node000014"><a xlink:title=" ">
<polygon fill="#e0e0e0" stroke="#999999" points="606.75,-83.88 534.5,-83.88 534.5,-63.12 606.75,-63.12 606.75,-83.88"/>
<text text-anchor="middle" x="570.62" y="-70.38" font-family="Helvetica,sans-Serif" font-size="10.00">string_view</text>
</a>
</g>
</g>
<!-- Node1&#45;&gt;Node14 -->
<g id="edge25_Node000001_Node000014" class="edge">
<title>Node1&#45;&gt;Node14</title>
<g id="a_edge25_Node000001_Node000014"><a xlink:title=" ">
<path fill="none" stroke="#63b8ff" d="M534.99,-182.51C542.38,-160.11 555.7,-119.74 563.79,-95.2"/>
<polygon fill="#63b8ff" stroke="#63b8ff" points="567.11,-96.32 566.92,-85.72 560.46,-94.12 567.11,-96.32"/>
</a>
</g>
</g>
<!-- Node15 -->
<g id="Node000015" class="node">
<title>Node15</title>
<g id="a_Node000015"><a xlink:title=" ">
<polygon fill="#e0e0e0" stroke="#999999" points="726.75,-90.25 624.5,-90.25 624.5,-56.75 726.75,-56.75 726.75,-90.25"/>
<text text-anchor="start" x="632.5" y="-76.75" font-family="Helvetica,sans-Serif" font-size="10.00">tensorflow/lite/c/c</text>
<text text-anchor="middle" x="675.62" y="-64" font-family="Helvetica,sans-Serif" font-size="10.00">_api.h</text>
</a>
</g>
</g>
<!-- Node1&#45;&gt;Node15 -->
<g id="edge20_Node000001_Node000015" class="edge">
<title>Node1&#45;&gt;Node15</title>
<g id="a_edge20_Node000001_Node000015"><a xlink:title=" ">
<path fill="none" stroke="#63b8ff" d="M548.71,-182.51C574.07,-160.93 619.04,-122.66 648.07,-97.95"/>
<polygon fill="#63b8ff" stroke="#63b8ff" points="650.03,-100.87 655.38,-91.73 645.5,-95.54 650.03,-100.87"/>
</a>
</g>
</g>
<!-- Node16 -->
<g id="Node000016" class="node">
<title>Node16</title>
<g id="a_Node000016"><a xlink:title=" ">
<polygon fill="#e0e0e0" stroke="#999999" points="882,-90.25 745.25,-90.25 745.25,-56.75 882,-56.75 882,-90.25"/>
<text text-anchor="start" x="753.25" y="-76.75" font-family="Helvetica,sans-Serif" font-size="10.00">tensorflow/lite/delegates</text>
<text text-anchor="middle" x="813.62" y="-64" font-family="Helvetica,sans-Serif" font-size="10.00">/gpu/delegate.h</text>
</a>
</g>
</g>
<!-- Node1&#45;&gt;Node16 -->
<g id="edge21_Node000001_Node000016" class="edge">
<title>Node1&#45;&gt;Node16</title>
<g id="a_edge21_Node000001_Node000016"><a xlink:title=" ">
<path fill="none" stroke="#63b8ff" d="M566.75,-182.51C617.89,-160.14 710.01,-119.83 766.11,-95.29"/>
<polygon fill="#63b8ff" stroke="#63b8ff" points="767.34,-98.57 775.1,-91.35 764.54,-92.16 767.34,-98.57"/>
</a>
</g>
</g>
<!-- Node3 -->
<g id="Node000003" class="node">
<title>Node3</title>
<g id="a_Node000003"><a xlink:title=" ">
<polygon fill="#e0e0e0" stroke="#999999" points="128.12,-20.75 79.12,-20.75 79.12,0 128.12,0 128.12,-20.75"/>
<text text-anchor="middle" x="103.62" y="-7.25" font-family="Helvetica,sans-Serif" font-size="10.00">cstdint</text>
</a>
</g>
</g>
<!-- Node2&#45;&gt;Node3 -->
<g id="edge2_Node000002_Node000003" class="edge">
<title>Node2&#45;&gt;Node3</title>
<g id="a_edge2_Node000002_Node000003"><a xlink:title=" ">
<path fill="none" stroke="#63b8ff" d="M127.13,-62.68C123.27,-54.25 117.58,-41.84 112.77,-31.34"/>
<polygon fill="#63b8ff" stroke="#63b8ff" points="116,-29.98 108.65,-22.35 109.63,-32.9 116,-29.98"/>
</a>
</g>
</g>
<!-- Node2&#45;&gt;Node4 -->
<g id="edge3_Node000002_Node000004" class="edge">
<title>Node2&#45;&gt;Node4</title>
<g id="a_edge3_Node000002_Node000004"><a xlink:title=" ">
<path fill="none" stroke="#63b8ff" d="M115.08,-62.68C98.86,-53.05 73.89,-38.23 54.94,-26.99"/>
<polygon fill="#63b8ff" stroke="#63b8ff" points="56.82,-24.04 46.43,-21.94 53.25,-30.06 56.82,-24.04"/>
</a>
</g>
</g>
<!-- Node2&#45;&gt;Node5 -->
<g id="edge4_Node000002_Node000005" class="edge">
<title>Node2&#45;&gt;Node5</title>
<g id="a_edge4_Node000002_Node000005"><a xlink:title=" ">
<path fill="none" stroke="#63b8ff" d="M148.17,-62.68C164.39,-53.05 189.36,-38.23 208.31,-26.99"/>
<polygon fill="#63b8ff" stroke="#63b8ff" points="210,-30.06 216.82,-21.94 206.43,-24.04 210,-30.06"/>
</a>
</g>
</g>
<!-- Node6 -->
<g id="Node000006" class="node">
<title>Node6</title>
<g id="a_Node000006"><a xlink:title=" ">
<polygon fill="#e0e0e0" stroke="#999999" points="325.88,-20.75 275.38,-20.75 275.38,0 325.88,0 325.88,-20.75"/>
<text text-anchor="middle" x="300.62" y="-7.25" font-family="Helvetica,sans-Serif" font-size="10.00">variant</text>
</a>
</g>
</g>
<!-- Node2&#45;&gt;Node6 -->
<g id="edge5_Node000002_Node000006" class="edge">
<title>Node2&#45;&gt;Node6</title>
<g id="a_edge5_Node000002_Node000006"><a xlink:title=" ">
<path fill="none" stroke="#63b8ff" d="M158.78,-62.68C187.41,-52.32 232.66,-35.96 264.34,-24.5"/>
<polygon fill="#63b8ff" stroke="#63b8ff" points="265.29,-27.88 273.5,-21.19 262.91,-21.3 265.29,-27.88"/>
</a>
</g>
</g>
<!-- Node7 -->
<g id="Node000007" class="node">
<title>Node7</title>
<g id="a_Node000007"><a xlink:title=" ">
<polygon fill="#e0e0e0" stroke="#999999" points="193,-20.75 146.25,-20.75 146.25,0 193,0 193,-20.75"/>
<text text-anchor="middle" x="169.62" y="-7.25" font-family="Helvetica,sans-Serif" font-size="10.00">vector</text>
</a>
</g>
</g>
<!-- Node2&#45;&gt;Node7 -->
<g id="edge6_Node000002_Node000007" class="edge">
<title>Node2&#45;&gt;Node7</title>
<g id="a_edge6_Node000002_Node000007"><a xlink:title=" ">
<path fill="none" stroke="#63b8ff" d="M137.73,-62.68C143.08,-54.07 151.01,-41.31 157.63,-30.67"/>
<polygon fill="#63b8ff" stroke="#63b8ff" points="160.55,-32.6 162.86,-22.26 154.61,-28.9 160.55,-32.6"/>
</a>
</g>
</g>
<!-- Node8&#45;&gt;Node2 -->
<g id="edge8_Node000008_Node000002" class="edge">
<title>Node8&#45;&gt;Node2</title>
<g id="a_edge8_Node000008_Node000002"><a xlink:title=" ">
<path fill="none" stroke="#63b8ff" d="M444.85,-128.13C383.79,-117.67 272.44,-98.61 200.28,-86.25"/>
<polygon fill="#63b8ff" stroke="#63b8ff" points="200.98,-82.82 190.54,-84.59 199.8,-89.72 200.98,-82.82"/>
</a>
</g>
</g>
<!-- Node8&#45;&gt;Node4 -->
<g id="edge14_Node000008_Node000004" class="edge">
<title>Node8&#45;&gt;Node4</title>
<g id="a_edge14_Node000008_Node000004"><a xlink:title=" ">
<path fill="none" stroke="#63b8ff" d="M444.7,-133.95C339.03,-129.53 77.14,-116.06 47.62,-90.25 31.42,-76.08 27.79,-50.72 27.5,-32.58"/>
<polygon fill="#63b8ff" stroke="#63b8ff" points="31,-32.74 27.7,-22.67 24,-32.59 31,-32.74"/>
</a>
</g>
</g>
<!-- Node8&#45;&gt;Node5 -->
<g id="edge16_Node000008_Node000005" class="edge">
<title>Node8&#45;&gt;Node5</title>
<g id="a_edge16_Node000008_Node000005"><a xlink:title=" ">
<path fill="none" stroke="#63b8ff" d="M444.84,-134.27C402.45,-131.07 337.98,-121 291.62,-90.25 269.59,-75.63 253.19,-49.41 243.78,-31.23"/>
<polygon fill="#63b8ff" stroke="#63b8ff" points="247.04,-29.93 239.49,-22.49 240.75,-33.01 247.04,-29.93"/>
</a>
</g>
</g>
<!-- Node9 -->
<g id="Node000009" class="node">
<title>Node9</title>
<g id="a_Node000009"><a xlink:href="Errors_8hpp.html" target="_top" xlink:title=" ">
<polygon fill="white" stroke="#666666" points="443,-83.88 300.25,-83.88 300.25,-63.12 443,-63.12 443,-83.88"/>
<text text-anchor="middle" x="371.62" y="-70.38" font-family="Helvetica,sans-Serif" font-size="10.00">EyeAICore/utils/Errors.hpp</text>
</a>
</g>
</g>
<!-- Node8&#45;&gt;Node9 -->
<g id="edge9_Node000008_Node000009" class="edge">
<title>Node8&#45;&gt;Node9</title>
<g id="a_edge9_Node000008_Node000009"><a xlink:title=" ">
<path fill="none" stroke="#63b8ff" d="M469.83,-125.8C451.06,-116 421.98,-100.81 400.33,-89.5"/>
<polygon fill="#63b8ff" stroke="#63b8ff" points="402.2,-86.53 391.72,-85 398.96,-92.73 402.2,-86.53"/>
</a>
</g>
</g>
<!-- Node13 -->
<g id="Node000013" class="node">
<title>Node13</title>
<g id="a_Node000013"><a xlink:title=" ">
<polygon fill="#e0e0e0" stroke="#999999" points="516.5,-83.88 460.75,-83.88 460.75,-63.12 516.5,-63.12 516.5,-83.88"/>
<text text-anchor="middle" x="488.62" y="-70.38" font-family="Helvetica,sans-Serif" font-size="10.00">optional</text>
</a>
</g>
</g>
<!-- Node8&#45;&gt;Node13 -->
<g id="edge15_Node000008_Node000013" class="edge">
<title>Node8&#45;&gt;Node13</title>
<g id="a_edge15_Node000008_Node000013"><a xlink:title=" ">
<path fill="none" stroke="#63b8ff" d="M488.62,-125.8C488.62,-117.65 488.62,-105.76 488.62,-95.48"/>
<polygon fill="#63b8ff" stroke="#63b8ff" points="492.13,-95.61 488.63,-85.61 485.13,-95.61 492.13,-95.61"/>
</a>
</g>
</g>
<!-- Node8&#45;&gt;Node14 -->
<g id="edge17_Node000008_Node000014" class="edge">
<title>Node8&#45;&gt;Node14</title>
<g id="a_edge17_Node000008_Node000014"><a xlink:title=" ">
<path fill="none" stroke="#63b8ff" d="M501.8,-125.8C514.35,-116.45 533.49,-102.18 548.41,-91.06"/>
<polygon fill="#63b8ff" stroke="#63b8ff" points="550.34,-93.98 556.27,-85.2 546.16,-88.37 550.34,-93.98"/>
</a>
</g>
</g>
<!-- Node8&#45;&gt;Node15 -->
<g id="edge18_Node000008_Node000015" class="edge">
<title>Node8&#45;&gt;Node15</title>
<g id="a_edge18_Node000008_Node000015"><a xlink:title=" ">
<path fill="none" stroke="#63b8ff" d="M518.67,-125.8C544.64,-117.31 582.98,-104.78 615.27,-94.23"/>
<polygon fill="#63b8ff" stroke="#63b8ff" points="616.1,-97.64 624.52,-91.21 613.93,-90.99 616.1,-97.64"/>
</a>
</g>
</g>
<!-- Node8&#45;&gt;Node16 -->
<g id="edge19_Node000008_Node000016" class="edge">
<title>Node8&#45;&gt;Node16</title>
<g id="a_edge19_Node000008_Node000016"><a xlink:title=" ">
<path fill="none" stroke="#63b8ff" d="M532.39,-127.82C579.58,-119.36 657.19,-105.29 734.28,-90.49"/>
<polygon fill="#63b8ff" stroke="#63b8ff" points="734.51,-94.01 743.67,-88.68 733.19,-87.14 734.51,-94.01"/>
</a>
</g>
</g>
<!-- Node9&#45;&gt;Node6 -->
<g id="edge13_Node000009_Node000006" class="edge">
<title>Node9&#45;&gt;Node6</title>
<g id="a_edge13_Node000009_Node000006"><a xlink:title=" ">
<path fill="none" stroke="#63b8ff" d="M360.22,-62.68C349.49,-53.45 333.21,-39.43 320.38,-28.38"/>
<polygon fill="#63b8ff" stroke="#63b8ff" points="322.78,-25.83 312.92,-21.96 318.21,-31.13 322.78,-25.83"/>
</a>
</g>
</g>
<!-- Node10 -->
<g id="Node000010" class="node">
<title>Node10</title>
<g id="a_Node000010"><a xlink:title=" ">
<polygon fill="#e0e0e0" stroke="#999999" points="394.12,-20.75 345.12,-20.75 345.12,0 394.12,0 394.12,-20.75"/>
<text text-anchor="middle" x="369.62" y="-7.25" font-family="Helvetica,sans-Serif" font-size="10.00">format</text>
</a>
</g>
</g>
<!-- Node9&#45;&gt;Node10 -->
<g id="edge10_Node000009_Node000010" class="edge">
<title>Node9&#45;&gt;Node10</title>
<g id="a_edge10_Node000009_Node000010"><a xlink:title=" ">
<path fill="none" stroke="#63b8ff" d="M371.3,-62.68C371.04,-54.52 370.65,-42.63 370.31,-32.35"/>
<polygon fill="#63b8ff" stroke="#63b8ff" points="373.81,-32.36 369.99,-22.48 366.82,-32.59 373.81,-32.36"/>
</a>
</g>
</g>
<!-- Node9&#45;&gt;Node11 -->
<g id="edge11_Node000009_Node000011" class="edge">
<title>Node9&#45;&gt;Node11</title>
<g id="a_edge11_Node000009_Node000011"><a xlink:title=" ">
<path fill="none" stroke="#63b8ff" d="M420.23,-62.68C430.58,-60.66 441.46,-58.59 451.62,-56.75 538.65,-41.01 641.58,-24.62 693.35,-16.53"/>
<polygon fill="#63b8ff" stroke="#63b8ff" points="693.65,-20.02 702.99,-15.02 692.57,-13.11 693.65,-20.02"/>
</a>
</g>
</g>
<!-- Node12 -->
<g id="Node000012" class="node">
<title>Node12</title>
<g id="a_Node000012"><a xlink:title=" ">
<polygon fill="#e0e0e0" stroke="#999999" points="503.5,-20.75 411.75,-20.75 411.75,0 503.5,0 503.5,-20.75"/>
<text text-anchor="middle" x="457.62" y="-7.25" font-family="Helvetica,sans-Serif" font-size="10.00">tl/expected.hpp</text>
</a>
</g>
</g>
<!-- Node9&#45;&gt;Node12 -->
<g id="edge12_Node000009_Node000012" class="edge">
<title>Node9&#45;&gt;Node12</title>
<g id="a_edge12_Node000009_Node000012"><a xlink:title=" ">
<path fill="none" stroke="#63b8ff" d="M385.44,-62.68C398.73,-53.23 419.06,-38.78 434.77,-27.62"/>
<polygon fill="#63b8ff" stroke="#63b8ff" points="436.48,-30.69 442.61,-22.05 432.43,-24.99 436.48,-30.69"/>
</a>
</g>
</g>
</g>
</svg>

<g id="navigator" transform="translate(0 0)" fill="#404254">
  <rect fill="#f2f5e9" fill-opacity="0.5" stroke="#606060" stroke-width=".5" x="0" y="0" width="60" height="60"/>
  <use id="zoomplus" xlink:href="#zoomPlus" x="17" y="9" onmousedown="handleZoom(evt,'in')"/>
  <use id="zoomminus" xlink:href="#zoomMin" x="42" y="9" onmousedown="handleZoom(evt,'out')"/>
  <use id="reset" xlink:href="#resetDef" x="30" y="36" onmousedown="handleReset()"/>
   <use id="arrowup" xlink:href="#arrowUp" x="0" y="0" onmousedown="handlePan(0,-1)"/>
  <use id="arrowright" xlink:href="#arrowRight" x="0" y="0" onmousedown="handlePan(1,0)"/>
  <use id="arrowdown" xlink:href="#arrowDown" x="0" y="0" onmousedown="handlePan(0,1)"/>
  <use id="arrowleft" xlink:href="#arrowLeft" x="0" y="0" onmousedown="handlePan(-1,0)"/>
</g>
<svg viewBox="0 0 15 15" width="100%" height="30px" preserveAspectRatio="xMaxYMin meet">
 <g id="arrow_out" transform="scale(0.3 0.3)">
  <a xlink:href="TfLiteRuntime_8hpp__incl_org.svg" target="_base">
   <rect id="button" ry="5" rx="5" y="6" x="6" height="38" width="38"
        fill="#f2f5e9" fill-opacity="0.5" stroke="#606060" stroke-width="1.0"/>
   <path id="arrow"
     d="M 11.500037,31.436501 C 11.940474,20.09759 22.043105,11.32322 32.158766,21.979434 L 37.068811,17.246167 C 37.068811,17.246167 37.088388,32 37.088388,32 L 22.160133,31.978069 C 22.160133,31.978069 26.997745,27.140456 26.997745,27.140456 C 18.528582,18.264221 13.291696,25.230495 11.500037,31.436501 z"
     style="fill:#404040;"/>
  </a>
 </g>
</svg>

<style type='text/css'>
<![CDATA[
[data-mouse-over-selected='false'] { opacity: 0.7; }
[data-mouse-over-selected='true']  { opacity: 1.0; }
]]>
</style>
<script type="application/ecmascript"><![CDATA[
document.addEventListener('DOMContentLoaded', (event) => {
  highlightEdges();
  highlightAdjacentNodes();
});
]]></script>
</svg>
