<?xml version="1.0" encoding="UTF-8" standalone="no"?>
<!DOCTYPE svg PUBLIC "-//W3C//DTD SVG 1.1//EN"
 "http://www.w3.org/Graphics/SVG/1.1/DTD/svg11.dtd">
<!-- Generated by graphviz version 12.2.1 (20241206.2353)
 -->
<!-- Title: src/tflite/TfLiteUtils.cpp Pages: 1 -->
<svg width="1020pt" height="208pt"
 viewBox="0.00 0.00 1019.75 208.00" xmlns="http://www.w3.org/2000/svg" xmlns:xlink="http://www.w3.org/1999/xlink">
<g id="graph0" class="graph" transform="scale(1 1) rotate(0) translate(4 204)">
<title>src/tflite/TfLiteUtils.cpp</title>
<!-- Node1 -->
<g id="Node000001" class="node">
<title>Node1</title>
<g id="a_Node000001"><a xlink:title=" ">
<polygon fill="#999999" stroke="#666666" points="443.62,-200 325.62,-200 325.62,-180 443.62,-180 443.62,-200"/>
<text text-anchor="middle" x="384.62" y="-186.5" font-family="Helvetica,sans-Serif" font-size="10.00">src/tflite/TfLiteUtils.cpp</text>
</a>
</g>
</g>
<!-- Node2 -->
<g id="Node000002" class="node">
<title>Node2</title>
<g id="a_Node000002"><a xlink:href="TfLiteUtils_8hpp.html" target="_top" xlink:title=" ">
<polygon fill="white" stroke="#666666" points="460.88,-144 308.38,-144 308.38,-124 460.88,-124 460.88,-144"/>
<text text-anchor="middle" x="384.62" y="-130.5" font-family="Helvetica,sans-Serif" font-size="10.00">EyeAICore/tflite/TfLiteUtils.hpp</text>
</a>
</g>
</g>
<!-- Node1&#45;&gt;Node2 -->
<g id="edge1_Node000001_Node000002" class="edge">
<title>Node1&#45;&gt;Node2</title>
<g id="a_edge1_Node000001_Node000002"><a xlink:title=" ">
<path fill="none" stroke="#63b8ff" d="M384.62,-179.59C384.62,-173.01 384.62,-163.96 384.62,-155.73"/>
<polygon fill="#63b8ff" stroke="#63b8ff" points="388.13,-155.81 384.63,-145.81 381.13,-155.81 388.13,-155.81"/>
</a>
</g>
</g>
<!-- Node3 -->
<g id="Node000003" class="node">
<title>Node3</title>
<g id="a_Node000003"><a xlink:href="Operators_8hpp.html" target="_top" xlink:title=" ">
<polygon fill="white" stroke="#666666" points="271.88,-82 143.38,-82 143.38,-62 271.88,-62 271.88,-82"/>
<text text-anchor="middle" x="207.62" y="-68.5" font-family="Helvetica,sans-Serif" font-size="10.00">EyeAICore/Operators.hpp</text>
</a>
</g>
</g>
<!-- Node1&#45;&gt;Node3 -->
<g id="edge21_Node000001_Node000003" class="edge">
<title>Node1&#45;&gt;Node3</title>
<g id="a_edge21_Node000001_Node000003"><a xlink:title=" ">
<path fill="none" stroke="#63b8ff" d="M364.5,-179.56C346.93,-171.03 320.96,-157.74 299.62,-144 273.33,-127.07 245.16,-104.62 227.01,-89.53"/>
<polygon fill="#63b8ff" stroke="#63b8ff" points="229.57,-87.11 219.66,-83.36 225.07,-92.47 229.57,-87.11"/>
</a>
</g>
</g>
<!-- Node18 -->
<g id="Node000018" class="node">
<title>Node18</title>
<g id="a_Node000018"><a xlink:href="Profiling_8hpp.html" target="_top" xlink:title=" ">
<polygon fill="white" stroke="#666666" points="908.62,-144 766.62,-144 766.62,-124 908.62,-124 908.62,-144"/>
<text text-anchor="middle" x="837.62" y="-130.5" font-family="Helvetica,sans-Serif" font-size="10.00">EyeAICore/utils/Profiling.hpp</text>
</a>
</g>
</g>
<!-- Node1&#45;&gt;Node18 -->
<g id="edge22_Node000001_Node000018" class="edge">
<title>Node1&#45;&gt;Node18</title>
<g id="a_edge22_Node000001_Node000018"><a xlink:title=" ">
<path fill="none" stroke="#63b8ff" d="M443.85,-181.94C523.42,-172.45 665.24,-155.55 755.2,-144.82"/>
<polygon fill="#63b8ff" stroke="#63b8ff" points="755.44,-148.32 764.95,-143.66 754.61,-141.37 755.44,-148.32"/>
</a>
</g>
</g>
<!-- Node2&#45;&gt;Node3 -->
<g id="edge2_Node000002_Node000003" class="edge">
<title>Node2&#45;&gt;Node3</title>
<g id="a_edge2_Node000002_Node000003"><a xlink:title=" ">
<path fill="none" stroke="#63b8ff" d="M356.97,-123.62C327.18,-113.53 279.57,-97.39 246.13,-86.05"/>
<polygon fill="#63b8ff" stroke="#63b8ff" points="247.41,-82.79 236.81,-82.89 245.16,-89.42 247.41,-82.79"/>
</a>
</g>
</g>
<!-- Node6 -->
<g id="Node000006" class="node">
<title>Node6</title>
<g id="a_Node000006"><a xlink:title=" ">
<polygon fill="#e0e0e0" stroke="#999999" points="51.25,-20 0,-20 0,0 51.25,0 51.25,-20"/>
<text text-anchor="middle" x="25.62" y="-6.5" font-family="Helvetica,sans-Serif" font-size="10.00">memory</text>
</a>
</g>
</g>
<!-- Node2&#45;&gt;Node6 -->
<g id="edge15_Node000002_Node000006" class="edge">
<title>Node2&#45;&gt;Node6</title>
<g id="a_edge15_Node000002_Node000006"><a xlink:title=" ">
<path fill="none" stroke="#63b8ff" d="M308.08,-127.91C257.29,-122.46 190.05,-111.21 134.62,-88 99.41,-73.26 64.37,-45.59 43.87,-27.75"/>
<polygon fill="#63b8ff" stroke="#63b8ff" points="46.46,-25.36 36.66,-21.33 41.8,-30.59 46.46,-25.36"/>
</a>
</g>
</g>
<!-- Node7 -->
<g id="Node000007" class="node">
<title>Node7</title>
<g id="a_Node000007"><a xlink:title=" ">
<polygon fill="#e0e0e0" stroke="#999999" points="299.5,-20 249.75,-20 249.75,0 299.5,0 299.5,-20"/>
<text text-anchor="middle" x="274.62" y="-6.5" font-family="Helvetica,sans-Serif" font-size="10.00">optional</text>
</a>
</g>
</g>
<!-- Node2&#45;&gt;Node7 -->
<g id="edge16_Node000002_Node000007" class="edge">
<title>Node2&#45;&gt;Node7</title>
<g id="a_edge16_Node000002_Node000007"><a xlink:title=" ">
<path fill="none" stroke="#63b8ff" d="M375.6,-123.81C366.81,-114.8 353.13,-100.62 341.62,-88 323.43,-68.05 303.16,-44.57 289.73,-28.83"/>
<polygon fill="#63b8ff" stroke="#63b8ff" points="292.46,-26.63 283.31,-21.28 287.12,-31.17 292.46,-26.63"/>
</a>
</g>
</g>
<!-- Node8 -->
<g id="Node000008" class="node">
<title>Node8</title>
<g id="a_Node000008"><a xlink:title=" ">
<polygon fill="#e0e0e0" stroke="#999999" points="354.12,-20 317.12,-20 317.12,0 354.12,0 354.12,-20"/>
<text text-anchor="middle" x="335.62" y="-6.5" font-family="Helvetica,sans-Serif" font-size="10.00">span</text>
</a>
</g>
</g>
<!-- Node2&#45;&gt;Node8 -->
<g id="edge17_Node000002_Node000008" class="edge">
<title>Node2&#45;&gt;Node8</title>
<g id="a_edge17_Node000002_Node000008"><a xlink:title=" ">
<path fill="none" stroke="#63b8ff" d="M377.77,-123.79C371.51,-114.99 362.37,-101.16 356.62,-88 348.58,-69.56 342.91,-47.27 339.5,-31.43"/>
<polygon fill="#63b8ff" stroke="#63b8ff" points="342.96,-30.89 337.55,-21.78 336.1,-32.28 342.96,-30.89"/>
</a>
</g>
</g>
<!-- Node11 -->
<g id="Node000011" class="node">
<title>Node11</title>
<g id="a_Node000011"><a xlink:href="Errors_8hpp.html" target="_top" xlink:title=" ">
<polygon fill="white" stroke="#666666" points="499.12,-82 366.12,-82 366.12,-62 499.12,-62 499.12,-82"/>
<text text-anchor="middle" x="432.62" y="-68.5" font-family="Helvetica,sans-Serif" font-size="10.00">EyeAICore/utils/Errors.hpp</text>
</a>
</g>
</g>
<!-- Node2&#45;&gt;Node11 -->
<g id="edge10_Node000002_Node000011" class="edge">
<title>Node2&#45;&gt;Node11</title>
<g id="a_edge10_Node000002_Node000011"><a xlink:title=" ">
<path fill="none" stroke="#63b8ff" d="M392.12,-123.62C399.07,-114.94 409.59,-101.8 418.16,-91.08"/>
<polygon fill="#63b8ff" stroke="#63b8ff" points="420.88,-93.29 424.39,-83.29 415.41,-88.92 420.88,-93.29"/>
</a>
</g>
</g>
<!-- Node15 -->
<g id="Node000015" class="node">
<title>Node15</title>
<g id="a_Node000015"><a xlink:title=" ">
<polygon fill="#e0e0e0" stroke="#999999" points="834.38,-82 768.88,-82 768.88,-62 834.38,-62 834.38,-82"/>
<text text-anchor="middle" x="801.62" y="-68.5" font-family="Helvetica,sans-Serif" font-size="10.00">string_view</text>
</a>
</g>
</g>
<!-- Node2&#45;&gt;Node15 -->
<g id="edge18_Node000002_Node000015" class="edge">
<title>Node2&#45;&gt;Node15</title>
<g id="a_edge18_Node000002_Node000015"><a xlink:title=" ">
<path fill="none" stroke="#63b8ff" d="M461.27,-128.83C537.68,-123.5 657.98,-111.93 759.62,-88 762.23,-87.39 764.9,-86.66 767.57,-85.87"/>
<polygon fill="#63b8ff" stroke="#63b8ff" points="768.5,-89.25 776.92,-82.82 766.33,-82.6 768.5,-89.25"/>
</a>
</g>
</g>
<!-- Node16 -->
<g id="Node000016" class="node">
<title>Node16</title>
<g id="a_Node000016"><a xlink:title=" ">
<polygon fill="#e0e0e0" stroke="#999999" points="610.25,-88 517,-88 517,-56 610.25,-56 610.25,-88"/>
<text text-anchor="start" x="525" y="-74.5" font-family="Helvetica,sans-Serif" font-size="10.00">tensorflow/lite/c/c</text>
<text text-anchor="middle" x="563.62" y="-62.5" font-family="Helvetica,sans-Serif" font-size="10.00">_api.h</text>
</a>
</g>
</g>
<!-- Node2&#45;&gt;Node16 -->
<g id="edge19_Node000002_Node000016" class="edge">
<title>Node2&#45;&gt;Node16</title>
<g id="a_edge19_Node000002_Node000016"><a xlink:title=" ">
<path fill="none" stroke="#63b8ff" d="M412.59,-123.62C437.66,-115.22 475.21,-102.64 506.6,-92.12"/>
<polygon fill="#63b8ff" stroke="#63b8ff" points="507.61,-95.47 515.98,-88.97 505.38,-88.83 507.61,-95.47"/>
</a>
</g>
</g>
<!-- Node17 -->
<g id="Node000017" class="node">
<title>Node17</title>
<g id="a_Node000017"><a xlink:title=" ">
<polygon fill="#e0e0e0" stroke="#999999" points="750.5,-88 628.75,-88 628.75,-56 750.5,-56 750.5,-88"/>
<text text-anchor="start" x="636.75" y="-74.5" font-family="Helvetica,sans-Serif" font-size="10.00">tensorflow/lite/delegates</text>
<text text-anchor="middle" x="689.62" y="-62.5" font-family="Helvetica,sans-Serif" font-size="10.00">/gpu/delegate.h</text>
</a>
</g>
</g>
<!-- Node2&#45;&gt;Node17 -->
<g id="edge20_Node000002_Node000017" class="edge">
<title>Node2&#45;&gt;Node17</title>
<g id="a_edge20_Node000002_Node000017"><a xlink:title=" ">
<path fill="none" stroke="#63b8ff" d="M435.57,-123.58C480.8,-115.14 548.96,-102.24 617.55,-88.4"/>
<polygon fill="#63b8ff" stroke="#63b8ff" points="617.97,-91.88 627.07,-86.47 616.58,-85.02 617.97,-91.88"/>
</a>
</g>
</g>
<!-- Node4 -->
<g id="Node000004" class="node">
<title>Node4</title>
<g id="a_Node000004"><a xlink:title=" ">
<polygon fill="#e0e0e0" stroke="#999999" points="107.5,-20 69.75,-20 69.75,0 107.5,0 107.5,-20"/>
<text text-anchor="middle" x="88.62" y="-6.5" font-family="Helvetica,sans-Serif" font-size="10.00">array</text>
</a>
</g>
</g>
<!-- Node3&#45;&gt;Node4 -->
<g id="edge3_Node000003_Node000004" class="edge">
<title>Node3&#45;&gt;Node4</title>
<g id="a_edge3_Node000003_Node000004"><a xlink:title=" ">
<path fill="none" stroke="#63b8ff" d="M189.03,-61.62C169.82,-51.94 139.58,-36.69 117.3,-25.46"/>
<polygon fill="#63b8ff" stroke="#63b8ff" points="118.94,-22.37 108.44,-20.99 115.79,-28.62 118.94,-22.37"/>
</a>
</g>
</g>
<!-- Node5 -->
<g id="Node000005" class="node">
<title>Node5</title>
<g id="a_Node000005"><a xlink:title=" ">
<polygon fill="#e0e0e0" stroke="#999999" points="171.25,-20 126,-20 126,0 171.25,0 171.25,-20"/>
<text text-anchor="middle" x="148.62" y="-6.5" font-family="Helvetica,sans-Serif" font-size="10.00">cstdint</text>
</a>
</g>
</g>
<!-- Node3&#45;&gt;Node5 -->
<g id="edge4_Node000003_Node000005" class="edge">
<title>Node3&#45;&gt;Node5</title>
<g id="a_edge4_Node000003_Node000005"><a xlink:title=" ">
<path fill="none" stroke="#63b8ff" d="M198.41,-61.62C189.61,-52.68 176.15,-38.99 165.44,-28.1"/>
<polygon fill="#63b8ff" stroke="#63b8ff" points="168.15,-25.87 158.65,-21.19 163.16,-30.78 168.15,-25.87"/>
</a>
</g>
</g>
<!-- Node3&#45;&gt;Node6 -->
<g id="edge5_Node000003_Node000006" class="edge">
<title>Node3&#45;&gt;Node6</title>
<g id="a_edge5_Node000003_Node000006"><a xlink:title=" ">
<path fill="none" stroke="#63b8ff" d="M179.19,-61.62C147.61,-51.22 96.56,-34.39 62.08,-23.02"/>
<polygon fill="#63b8ff" stroke="#63b8ff" points="63.54,-19.81 52.95,-20.01 61.35,-26.46 63.54,-19.81"/>
</a>
</g>
</g>
<!-- Node3&#45;&gt;Node7 -->
<g id="edge6_Node000003_Node000007" class="edge">
<title>Node3&#45;&gt;Node7</title>
<g id="a_edge6_Node000003_Node000007"><a xlink:title=" ">
<path fill="none" stroke="#63b8ff" d="M218.09,-61.62C228.18,-52.59 243.67,-38.72 255.89,-27.78"/>
<polygon fill="#63b8ff" stroke="#63b8ff" points="258.21,-30.4 263.32,-21.12 253.54,-25.19 258.21,-30.4"/>
</a>
</g>
</g>
<!-- Node3&#45;&gt;Node8 -->
<g id="edge7_Node000003_Node000008" class="edge">
<title>Node3&#45;&gt;Node8</title>
<g id="a_edge7_Node000003_Node000008"><a xlink:title=" ">
<path fill="none" stroke="#63b8ff" d="M227.62,-61.62C248.84,-51.68 282.57,-35.87 306.69,-24.56"/>
<polygon fill="#63b8ff" stroke="#63b8ff" points="308.07,-27.78 315.64,-20.37 305.1,-21.44 308.07,-27.78"/>
</a>
</g>
</g>
<!-- Node9 -->
<g id="Node000009" class="node">
<title>Node9</title>
<g id="a_Node000009"><a xlink:title=" ">
<polygon fill="#e0e0e0" stroke="#999999" points="412.62,-20 372.62,-20 372.62,0 412.62,0 412.62,-20"/>
<text text-anchor="middle" x="392.62" y="-6.5" font-family="Helvetica,sans-Serif" font-size="10.00">string</text>
</a>
</g>
</g>
<!-- Node3&#45;&gt;Node9 -->
<g id="edge8_Node000003_Node000009" class="edge">
<title>Node3&#45;&gt;Node9</title>
<g id="a_edge8_Node000003_Node000009"><a xlink:title=" ">
<path fill="none" stroke="#63b8ff" d="M236.53,-61.62C270.55,-50.59 326.82,-32.34 361.69,-21.03"/>
<polygon fill="#63b8ff" stroke="#63b8ff" points="362.34,-24.5 370.77,-18.09 360.18,-17.84 362.34,-24.5"/>
</a>
</g>
</g>
<!-- Node10 -->
<g id="Node000010" class="node">
<title>Node10</title>
<g id="a_Node000010"><a xlink:title=" ">
<polygon fill="#e0e0e0" stroke="#999999" points="232.12,-20 189.12,-20 189.12,0 232.12,0 232.12,-20"/>
<text text-anchor="middle" x="210.62" y="-6.5" font-family="Helvetica,sans-Serif" font-size="10.00">vector</text>
</a>
</g>
</g>
<!-- Node3&#45;&gt;Node10 -->
<g id="edge9_Node000003_Node000010" class="edge">
<title>Node3&#45;&gt;Node10</title>
<g id="a_edge9_Node000003_Node000010"><a xlink:title=" ">
<path fill="none" stroke="#63b8ff" d="M208.09,-61.62C208.5,-53.56 209.09,-41.65 209.6,-31.41"/>
<polygon fill="#63b8ff" stroke="#63b8ff" points="213.09,-31.79 210.09,-21.62 206.1,-31.44 213.09,-31.79"/>
</a>
</g>
</g>
<!-- Node11&#45;&gt;Node9 -->
<g id="edge12_Node000011_Node000009" class="edge">
<title>Node11&#45;&gt;Node9</title>
<g id="a_edge12_Node000011_Node000009"><a xlink:title=" ">
<path fill="none" stroke="#63b8ff" d="M426.38,-61.62C420.65,-53.03 412,-40.07 404.9,-29.41"/>
<polygon fill="#63b8ff" stroke="#63b8ff" points="408,-27.75 399.54,-21.37 402.17,-31.63 408,-27.75"/>
</a>
</g>
</g>
<!-- Node12 -->
<g id="Node000012" class="node">
<title>Node12</title>
<g id="a_Node000012"><a xlink:title=" ">
<polygon fill="#e0e0e0" stroke="#999999" points="474.5,-20 430.75,-20 430.75,0 474.5,0 474.5,-20"/>
<text text-anchor="middle" x="452.62" y="-6.5" font-family="Helvetica,sans-Serif" font-size="10.00">format</text>
</a>
</g>
</g>
<!-- Node11&#45;&gt;Node12 -->
<g id="edge11_Node000011_Node000012" class="edge">
<title>Node11&#45;&gt;Node12</title>
<g id="a_edge11_Node000011_Node000012"><a xlink:title=" ">
<path fill="none" stroke="#63b8ff" d="M435.75,-61.62C438.5,-53.39 442.58,-41.13 446.05,-30.74"/>
<polygon fill="#63b8ff" stroke="#63b8ff" points="449.27,-32.14 449.11,-21.55 442.63,-29.93 449.27,-32.14"/>
</a>
</g>
</g>
<!-- Node13 -->
<g id="Node000013" class="node">
<title>Node13</title>
<g id="a_Node000013"><a xlink:title=" ">
<polygon fill="#e0e0e0" stroke="#999999" points="575,-20 492.25,-20 492.25,0 575,0 575,-20"/>
<text text-anchor="middle" x="533.62" y="-6.5" font-family="Helvetica,sans-Serif" font-size="10.00">tl/expected.hpp</text>
</a>
</g>
</g>
<!-- Node11&#45;&gt;Node13 -->
<g id="edge13_Node000011_Node000013" class="edge">
<title>Node11&#45;&gt;Node13</title>
<g id="a_edge13_Node000011_Node000013"><a xlink:title=" ">
<path fill="none" stroke="#63b8ff" d="M448.41,-61.62C464.42,-52.11 489.45,-37.24 508.25,-26.08"/>
<polygon fill="#63b8ff" stroke="#63b8ff" points="509.84,-29.2 516.65,-21.08 506.27,-23.18 509.84,-29.2"/>
</a>
</g>
</g>
<!-- Node14 -->
<g id="Node000014" class="node">
<title>Node14</title>
<g id="a_Node000014"><a xlink:title=" ">
<polygon fill="#e0e0e0" stroke="#999999" points="638.25,-20 593,-20 593,0 638.25,0 638.25,-20"/>
<text text-anchor="middle" x="615.62" y="-6.5" font-family="Helvetica,sans-Serif" font-size="10.00">variant</text>
</a>
</g>
</g>
<!-- Node11&#45;&gt;Node14 -->
<g id="edge14_Node000011_Node000014" class="edge">
<title>Node11&#45;&gt;Node14</title>
<g id="a_edge14_Node000011_Node000014"><a xlink:title=" ">
<path fill="none" stroke="#63b8ff" d="M461.22,-61.62C493.96,-50.89 547.54,-33.32 582.19,-21.96"/>
<polygon fill="#63b8ff" stroke="#63b8ff" points="582.88,-25.42 591.29,-18.98 580.69,-18.77 582.88,-25.42"/>
</a>
</g>
</g>
<!-- Node18&#45;&gt;Node15 -->
<g id="edge25_Node000018_Node000015" class="edge">
<title>Node18&#45;&gt;Node15</title>
<g id="a_edge25_Node000018_Node000015"><a xlink:title=" ">
<path fill="none" stroke="#63b8ff" d="M832,-123.62C826.9,-115.12 819.22,-102.33 812.87,-91.74"/>
<polygon fill="#63b8ff" stroke="#63b8ff" points="816.02,-90.18 807.87,-83.41 810.02,-93.79 816.02,-90.18"/>
</a>
</g>
</g>
<!-- Node19 -->
<g id="Node000019" class="node">
<title>Node19</title>
<g id="a_Node000019"><a xlink:title=" ">
<polygon fill="#e0e0e0" stroke="#999999" points="897.25,-82 852,-82 852,-62 897.25,-62 897.25,-82"/>
<text text-anchor="middle" x="874.62" y="-68.5" font-family="Helvetica,sans-Serif" font-size="10.00">chrono</text>
</a>
</g>
</g>
<!-- Node18&#45;&gt;Node19 -->
<g id="edge23_Node000018_Node000019" class="edge">
<title>Node18&#45;&gt;Node19</title>
<g id="a_edge23_Node000018_Node000019"><a xlink:title=" ">
<path fill="none" stroke="#63b8ff" d="M843.41,-123.62C848.65,-115.12 856.54,-102.33 863.07,-91.74"/>
<polygon fill="#63b8ff" stroke="#63b8ff" points="865.94,-93.75 868.21,-83.4 859.98,-90.08 865.94,-93.75"/>
</a>
</g>
</g>
<!-- Node20 -->
<g id="Node000020" class="node">
<title>Node20</title>
<g id="a_Node000020"><a xlink:title=" ">
<polygon fill="#e0e0e0" stroke="#999999" points="1011.75,-82 915.5,-82 915.5,-62 1011.75,-62 1011.75,-82"/>
<text text-anchor="middle" x="963.62" y="-68.5" font-family="Helvetica,sans-Serif" font-size="10.00">concurrentqueue.h</text>
</a>
</g>
</g>
<!-- Node18&#45;&gt;Node20 -->
<g id="edge24_Node000018_Node000020" class="edge">
<title>Node18&#45;&gt;Node20</title>
<g id="a_edge24_Node000018_Node000020"><a xlink:title=" ">
<path fill="none" stroke="#63b8ff" d="M857.31,-123.62C877.84,-113.85 910.26,-98.41 933.9,-87.15"/>
<polygon fill="#63b8ff" stroke="#63b8ff" points="935.19,-90.42 942.71,-82.96 932.18,-84.1 935.19,-90.42"/>
</a>
</g>
</g>
</g>
</svg>
