<?xml version="1.0" encoding="UTF-8" standalone="no"?>
<!DOCTYPE svg PUBLIC "-//W3C//DTD SVG 1.1//EN"
 "http://www.w3.org/Graphics/SVG/1.1/DTD/svg11.dtd">
<!-- Generated by graphviz version 12.2.1 (20241206.2353)
 -->
<!-- Title: src/tflite/TfLiteRuntime.cpp Pages: 1 -->
<svg width="1149pt" height="276pt"
 viewBox="0.00 0.00 1149.32 276.00" xmlns="http://www.w3.org/2000/svg" xmlns:xlink="http://www.w3.org/1999/xlink">
<g id="graph0" class="graph" transform="scale(1 1) rotate(0) translate(4 272)">
<title>src/tflite/TfLiteRuntime.cpp</title>
<!-- Node1 -->
<g id="Node000001" class="node">
<title>Node1</title>
<g id="a_Node000001"><a xlink:title=" ">
<polygon fill="#999999" stroke="#666666" points="917.07,-268 782.57,-268 782.57,-248 917.07,-248 917.07,-268"/>
<text text-anchor="middle" x="849.82" y="-254.5" font-family="Helvetica,sans-Serif" font-size="10.00">src/tflite/TfLiteRuntime.cpp</text>
</a>
</g>
</g>
<!-- Node2 -->
<g id="Node000002" class="node">
<title>Node2</title>
<g id="a_Node000002"><a xlink:href="TfLiteRuntime_8hpp.html" target="_top" xlink:title=" ">
<polygon fill="white" stroke="#666666" points="463.32,-206 294.32,-206 294.32,-186 463.32,-186 463.32,-206"/>
<text text-anchor="middle" x="378.82" y="-192.5" font-family="Helvetica,sans-Serif" font-size="10.00">EyeAICore/tflite/TfLiteRuntime.hpp</text>
</a>
</g>
</g>
<!-- Node1&#45;&gt;Node2 -->
<g id="edge1_Node000001_Node000002" class="edge">
<title>Node1&#45;&gt;Node2</title>
<g id="a_edge1_Node000001_Node000002"><a xlink:title=" ">
<path fill="none" stroke="#63b8ff" d="M782.09,-248.37C698.35,-237.7 555.77,-219.54 464.51,-207.92"/>
<polygon fill="#63b8ff" stroke="#63b8ff" points="464.95,-204.44 454.59,-206.65 464.06,-211.39 464.95,-204.44"/>
</a>
</g>
</g>
<!-- Node11 -->
<g id="Node000011" class="node">
<title>Node11</title>
<g id="a_Node000011"><a xlink:href="TfLiteUtils_8hpp.html" target="_top" xlink:title=" ">
<polygon fill="white" stroke="#666666" points="418.7,-144 338.95,-144 338.95,-124 418.7,-124 418.7,-144"/>
<text text-anchor="middle" x="378.82" y="-130.5" font-family="Helvetica,sans-Serif" font-size="10.00">TfLiteUtils.hpp</text>
</a>
</g>
</g>
<!-- Node1&#45;&gt;Node11 -->
<g id="edge29_Node000001_Node000011" class="edge">
<title>Node1&#45;&gt;Node11</title>
<g id="a_edge29_Node000001_Node000011"><a xlink:title=" ">
<path fill="none" stroke="#63b8ff" d="M813.25,-247.53C728.82,-225.66 520.35,-171.66 426.26,-147.29"/>
<polygon fill="#63b8ff" stroke="#63b8ff" points="427.39,-143.96 416.83,-144.85 425.63,-150.74 427.39,-143.96"/>
</a>
</g>
</g>
<!-- Node13 -->
<g id="Node000013" class="node">
<title>Node13</title>
<g id="a_Node000013"><a xlink:title=" ">
<polygon fill="#e0e0e0" stroke="#999999" points="858.7,-20 814.95,-20 814.95,0 858.7,0 858.7,-20"/>
<text text-anchor="middle" x="836.82" y="-6.5" font-family="Helvetica,sans-Serif" font-size="10.00">format</text>
</a>
</g>
</g>
<!-- Node1&#45;&gt;Node13 -->
<g id="edge34_Node000001_Node000013" class="edge">
<title>Node1&#45;&gt;Node13</title>
<g id="a_edge34_Node000001_Node000013"><a xlink:title=" ">
<path fill="none" stroke="#63b8ff" d="M849.33,-247.66C847.43,-211.81 840.6,-82.55 837.92,-31.73"/>
<polygon fill="#63b8ff" stroke="#63b8ff" points="841.42,-31.67 837.39,-21.86 834.43,-32.03 841.42,-31.67"/>
</a>
</g>
</g>
<!-- Node19 -->
<g id="Node000019" class="node">
<title>Node19</title>
<g id="a_Node000019"><a xlink:href="Profiling_8hpp.html" target="_top" xlink:title=" ">
<polygon fill="white" stroke="#666666" points="1019.82,-206 877.82,-206 877.82,-186 1019.82,-186 1019.82,-206"/>
<text text-anchor="middle" x="948.82" y="-192.5" font-family="Helvetica,sans-Serif" font-size="10.00">EyeAICore/utils/Profiling.hpp</text>
</a>
</g>
</g>
<!-- Node1&#45;&gt;Node19 -->
<g id="edge30_Node000001_Node000019" class="edge">
<title>Node1&#45;&gt;Node19</title>
<g id="a_edge30_Node000001_Node000019"><a xlink:title=" ">
<path fill="none" stroke="#63b8ff" d="M865.29,-247.62C880.91,-238.16 905.29,-223.38 923.69,-212.23"/>
<polygon fill="#63b8ff" stroke="#63b8ff" points="925.43,-215.27 932.17,-207.09 921.8,-209.28 925.43,-215.27"/>
</a>
</g>
</g>
<!-- Node22 -->
<g id="Node000022" class="node">
<title>Node22</title>
<g id="a_Node000022"><a xlink:title=" ">
<polygon fill="#e0e0e0" stroke="#999999" points="1141.32,-212 1038.32,-212 1038.32,-180 1141.32,-180 1141.32,-212"/>
<text text-anchor="start" x="1046.32" y="-198.5" font-family="Helvetica,sans-Serif" font-size="10.00">tensorflow/lite/c/c</text>
<text text-anchor="middle" x="1089.82" y="-186.5" font-family="Helvetica,sans-Serif" font-size="10.00">_api_experimental.h</text>
</a>
</g>
</g>
<!-- Node1&#45;&gt;Node22 -->
<g id="edge35_Node000001_Node000022" class="edge">
<title>Node1&#45;&gt;Node22</title>
<g id="a_edge35_Node000001_Node000022"><a xlink:title=" ">
<path fill="none" stroke="#63b8ff" d="M887.58,-247.56C924.94,-238.22 982.79,-223.76 1027.07,-212.69"/>
<polygon fill="#63b8ff" stroke="#63b8ff" points="1027.69,-216.14 1036.54,-210.32 1025.99,-209.35 1027.69,-216.14"/>
</a>
</g>
</g>
<!-- Node3 -->
<g id="Node000003" class="node">
<title>Node3</title>
<g id="a_Node000003"><a xlink:href="Operators_8hpp.html" target="_top" xlink:title=" ">
<polygon fill="white" stroke="#666666" points="511.07,-82 382.57,-82 382.57,-62 511.07,-62 511.07,-82"/>
<text text-anchor="middle" x="446.82" y="-68.5" font-family="Helvetica,sans-Serif" font-size="10.00">EyeAICore/Operators.hpp</text>
</a>
</g>
</g>
<!-- Node2&#45;&gt;Node3 -->
<g id="edge2_Node000002_Node000003" class="edge">
<title>Node2&#45;&gt;Node3</title>
<g id="a_edge2_Node000002_Node000003"><a xlink:title=" ">
<path fill="none" stroke="#63b8ff" d="M390.68,-185.73C401.86,-176.37 418.29,-160.9 427.82,-144 436.73,-128.2 441.61,-108.04 444.18,-93.25"/>
<polygon fill="#63b8ff" stroke="#63b8ff" points="447.57,-94.2 445.61,-83.79 440.65,-93.16 447.57,-94.2"/>
</a>
</g>
</g>
<!-- Node6 -->
<g id="Node000006" class="node">
<title>Node6</title>
<g id="a_Node000006"><a xlink:title=" ">
<polygon fill="#e0e0e0" stroke="#999999" points="310.45,-20 259.2,-20 259.2,0 310.45,0 310.45,-20"/>
<text text-anchor="middle" x="284.82" y="-6.5" font-family="Helvetica,sans-Serif" font-size="10.00">memory</text>
</a>
</g>
</g>
<!-- Node2&#45;&gt;Node6 -->
<g id="edge25_Node000002_Node000006" class="edge">
<title>Node2&#45;&gt;Node6</title>
<g id="a_edge25_Node000002_Node000006"><a xlink:title=" ">
<path fill="none" stroke="#63b8ff" d="M293.88,-194C215.21,-187.98 102.14,-165.3 45.82,-88 -38.96,28.35 -20.84,-75.66 247.97,-20.22"/>
<polygon fill="#63b8ff" stroke="#63b8ff" points="248.34,-23.72 257.4,-18.22 246.89,-16.87 248.34,-23.72"/>
</a>
</g>
</g>
<!-- Node8 -->
<g id="Node000008" class="node">
<title>Node8</title>
<g id="a_Node000008"><a xlink:title=" ">
<polygon fill="#e0e0e0" stroke="#999999" points="241.32,-20 204.32,-20 204.32,0 241.32,0 241.32,-20"/>
<text text-anchor="middle" x="222.82" y="-6.5" font-family="Helvetica,sans-Serif" font-size="10.00">span</text>
</a>
</g>
</g>
<!-- Node2&#45;&gt;Node8 -->
<g id="edge26_Node000002_Node000008" class="edge">
<title>Node2&#45;&gt;Node8</title>
<g id="a_edge26_Node000002_Node000008"><a xlink:title=" ">
<path fill="none" stroke="#63b8ff" d="M293.9,-193.68C231.48,-189.67 146.15,-177.68 78.82,-144 46.49,-127.83 34.09,-121.22 19.82,-88 -9.81,-19.02 129.53,-10.77 192.86,-10.5"/>
<polygon fill="#63b8ff" stroke="#63b8ff" points="192.57,-14 202.58,-10.53 192.59,-7 192.57,-14"/>
</a>
</g>
</g>
<!-- Node9 -->
<g id="Node000009" class="node">
<title>Node9</title>
<g id="a_Node000009"><a xlink:title=" ">
<polygon fill="#e0e0e0" stroke="#999999" points="616.82,-20 576.82,-20 576.82,0 616.82,0 616.82,-20"/>
<text text-anchor="middle" x="596.82" y="-6.5" font-family="Helvetica,sans-Serif" font-size="10.00">string</text>
</a>
</g>
</g>
<!-- Node2&#45;&gt;Node9 -->
<g id="edge27_Node000002_Node000009" class="edge">
<title>Node2&#45;&gt;Node9</title>
<g id="a_edge27_Node000002_Node000009"><a xlink:title=" ">
<path fill="none" stroke="#63b8ff" d="M397.34,-185.63C429.12,-168.97 495.01,-131.79 540.82,-88 559.05,-70.57 575.44,-46.57 585.71,-30.01"/>
<polygon fill="#63b8ff" stroke="#63b8ff" points="588.59,-32.03 590.75,-21.65 582.59,-28.41 588.59,-32.03"/>
</a>
</g>
</g>
<!-- Node2&#45;&gt;Node11 -->
<g id="edge10_Node000002_Node000011" class="edge">
<title>Node2&#45;&gt;Node11</title>
<g id="a_edge10_Node000002_Node000011"><a xlink:title=" ">
<path fill="none" stroke="#63b8ff" d="M378.82,-185.62C378.82,-177.56 378.82,-165.65 378.82,-155.41"/>
<polygon fill="#63b8ff" stroke="#63b8ff" points="382.32,-155.63 378.82,-145.63 375.32,-155.63 382.32,-155.63"/>
</a>
</g>
</g>
<!-- Node16 -->
<g id="Node000016" class="node">
<title>Node16</title>
<g id="a_Node000016"><a xlink:title=" ">
<polygon fill="#e0e0e0" stroke="#999999" points="821.57,-82 756.07,-82 756.07,-62 821.57,-62 821.57,-82"/>
<text text-anchor="middle" x="788.82" y="-68.5" font-family="Helvetica,sans-Serif" font-size="10.00">string_view</text>
</a>
</g>
</g>
<!-- Node2&#45;&gt;Node16 -->
<g id="edge28_Node000002_Node000016" class="edge">
<title>Node2&#45;&gt;Node16</title>
<g id="a_edge28_Node000002_Node000016"><a xlink:title=" ">
<path fill="none" stroke="#63b8ff" d="M424.27,-185.54C467.45,-176.2 534.04,-160.9 590.82,-144 661.82,-122.86 678.14,-113.17 747.82,-88 749.38,-87.44 750.97,-86.86 752.58,-86.28"/>
<polygon fill="#63b8ff" stroke="#63b8ff" points="753.62,-89.62 761.82,-82.91 751.23,-83.04 753.62,-89.62"/>
</a>
</g>
</g>
<!-- Node17 -->
<g id="Node000017" class="node">
<title>Node17</title>
<g id="a_Node000017"><a xlink:title=" ">
<polygon fill="#e0e0e0" stroke="#999999" points="148.45,-88 55.2,-88 55.2,-56 148.45,-56 148.45,-88"/>
<text text-anchor="start" x="63.2" y="-74.5" font-family="Helvetica,sans-Serif" font-size="10.00">tensorflow/lite/c/c</text>
<text text-anchor="middle" x="101.82" y="-62.5" font-family="Helvetica,sans-Serif" font-size="10.00">_api.h</text>
</a>
</g>
</g>
<!-- Node2&#45;&gt;Node17 -->
<g id="edge23_Node000002_Node000017" class="edge">
<title>Node2&#45;&gt;Node17</title>
<g id="a_edge23_Node000002_Node000017"><a xlink:title=" ">
<path fill="none" stroke="#63b8ff" d="M357.54,-185.63C312.73,-165.89 207.76,-119.66 147.16,-92.97"/>
<polygon fill="#63b8ff" stroke="#63b8ff" points="148.69,-89.82 138.13,-88.99 145.87,-96.23 148.69,-89.82"/>
</a>
</g>
</g>
<!-- Node18 -->
<g id="Node000018" class="node">
<title>Node18</title>
<g id="a_Node000018"><a xlink:title=" ">
<polygon fill="#e0e0e0" stroke="#999999" points="288.7,-88 166.95,-88 166.95,-56 288.7,-56 288.7,-88"/>
<text text-anchor="start" x="174.95" y="-74.5" font-family="Helvetica,sans-Serif" font-size="10.00">tensorflow/lite/delegates</text>
<text text-anchor="middle" x="227.82" y="-62.5" font-family="Helvetica,sans-Serif" font-size="10.00">/gpu/delegate.h</text>
</a>
</g>
</g>
<!-- Node2&#45;&gt;Node18 -->
<g id="edge24_Node000002_Node000018" class="edge">
<title>Node2&#45;&gt;Node18</title>
<g id="a_edge24_Node000002_Node000018"><a xlink:title=" ">
<path fill="none" stroke="#63b8ff" d="M367.47,-185.83C343.96,-166.84 289.34,-122.7 255.8,-95.6"/>
<polygon fill="#63b8ff" stroke="#63b8ff" points="258.1,-92.96 248.12,-89.4 253.7,-98.41 258.1,-92.96"/>
</a>
</g>
</g>
<!-- Node4 -->
<g id="Node000004" class="node">
<title>Node4</title>
<g id="a_Node000004"><a xlink:title=" ">
<polygon fill="#e0e0e0" stroke="#999999" points="366.7,-20 328.95,-20 328.95,0 366.7,0 366.7,-20"/>
<text text-anchor="middle" x="347.82" y="-6.5" font-family="Helvetica,sans-Serif" font-size="10.00">array</text>
</a>
</g>
</g>
<!-- Node3&#45;&gt;Node4 -->
<g id="edge3_Node000003_Node000004" class="edge">
<title>Node3&#45;&gt;Node4</title>
<g id="a_edge3_Node000003_Node000004"><a xlink:title=" ">
<path fill="none" stroke="#63b8ff" d="M431.35,-61.62C415.73,-52.16 391.35,-37.38 372.95,-26.23"/>
<polygon fill="#63b8ff" stroke="#63b8ff" points="374.84,-23.28 364.47,-21.09 371.21,-29.27 374.84,-23.28"/>
</a>
</g>
</g>
<!-- Node5 -->
<g id="Node000005" class="node">
<title>Node5</title>
<g id="a_Node000005"><a xlink:title=" ">
<polygon fill="#e0e0e0" stroke="#999999" points="490.45,-20 445.2,-20 445.2,0 490.45,0 490.45,-20"/>
<text text-anchor="middle" x="467.82" y="-6.5" font-family="Helvetica,sans-Serif" font-size="10.00">cstdint</text>
</a>
</g>
</g>
<!-- Node3&#45;&gt;Node5 -->
<g id="edge4_Node000003_Node000005" class="edge">
<title>Node3&#45;&gt;Node5</title>
<g id="a_edge4_Node000003_Node000005"><a xlink:title=" ">
<path fill="none" stroke="#63b8ff" d="M450.1,-61.62C452.98,-53.39 457.28,-41.13 460.91,-30.74"/>
<polygon fill="#63b8ff" stroke="#63b8ff" points="464.13,-32.14 464.13,-21.54 457.52,-29.82 464.13,-32.14"/>
</a>
</g>
</g>
<!-- Node3&#45;&gt;Node6 -->
<g id="edge5_Node000003_Node000006" class="edge">
<title>Node3&#45;&gt;Node6</title>
<g id="a_edge5_Node000003_Node000006"><a xlink:title=" ">
<path fill="none" stroke="#63b8ff" d="M421.51,-61.62C394.48,-51.62 351.42,-35.67 320.86,-24.35"/>
<polygon fill="#63b8ff" stroke="#63b8ff" points="322.23,-21.12 311.64,-20.93 319.8,-27.69 322.23,-21.12"/>
</a>
</g>
</g>
<!-- Node7 -->
<g id="Node000007" class="node">
<title>Node7</title>
<g id="a_Node000007"><a xlink:title=" ">
<polygon fill="#e0e0e0" stroke="#999999" points="558.7,-20 508.95,-20 508.95,0 558.7,0 558.7,-20"/>
<text text-anchor="middle" x="533.82" y="-6.5" font-family="Helvetica,sans-Serif" font-size="10.00">optional</text>
</a>
</g>
</g>
<!-- Node3&#45;&gt;Node7 -->
<g id="edge6_Node000003_Node000007" class="edge">
<title>Node3&#45;&gt;Node7</title>
<g id="a_edge6_Node000003_Node000007"><a xlink:title=" ">
<path fill="none" stroke="#63b8ff" d="M460.41,-61.62C473.95,-52.29 494.97,-37.79 511.06,-26.7"/>
<polygon fill="#63b8ff" stroke="#63b8ff" points="512.83,-29.73 519.08,-21.17 508.86,-23.96 512.83,-29.73"/>
</a>
</g>
</g>
<!-- Node3&#45;&gt;Node8 -->
<g id="edge7_Node000003_Node000008" class="edge">
<title>Node3&#45;&gt;Node8</title>
<g id="a_edge7_Node000003_Node000008"><a xlink:title=" ">
<path fill="none" stroke="#63b8ff" d="M406.98,-61.54C369.37,-52.41 311.18,-37.82 252.59,-20.69"/>
<polygon fill="#63b8ff" stroke="#63b8ff" points="253.68,-17.36 243.1,-17.89 251.7,-24.07 253.68,-17.36"/>
</a>
</g>
</g>
<!-- Node3&#45;&gt;Node9 -->
<g id="edge8_Node000003_Node000009" class="edge">
<title>Node3&#45;&gt;Node9</title>
<g id="a_edge8_Node000003_Node000009"><a xlink:title=" ">
<path fill="none" stroke="#63b8ff" d="M470.26,-61.62C496.01,-51.32 537.48,-34.74 565.88,-23.38"/>
<polygon fill="#63b8ff" stroke="#63b8ff" points="567.04,-26.68 575.03,-19.72 564.44,-20.18 567.04,-26.68"/>
</a>
</g>
</g>
<!-- Node10 -->
<g id="Node000010" class="node">
<title>Node10</title>
<g id="a_Node000010"><a xlink:title=" ">
<polygon fill="#e0e0e0" stroke="#999999" points="427.32,-20 384.32,-20 384.32,0 427.32,0 427.32,-20"/>
<text text-anchor="middle" x="405.82" y="-6.5" font-family="Helvetica,sans-Serif" font-size="10.00">vector</text>
</a>
</g>
</g>
<!-- Node3&#45;&gt;Node10 -->
<g id="edge9_Node000003_Node000010" class="edge">
<title>Node3&#45;&gt;Node10</title>
<g id="a_edge9_Node000003_Node000010"><a xlink:title=" ">
<path fill="none" stroke="#63b8ff" d="M440.41,-61.62C434.54,-53.03 425.68,-40.07 418.4,-29.41"/>
<polygon fill="#63b8ff" stroke="#63b8ff" points="421.43,-27.64 412.9,-21.36 415.65,-31.59 421.43,-27.64"/>
</a>
</g>
</g>
<!-- Node11&#45;&gt;Node3 -->
<g id="edge11_Node000011_Node000003" class="edge">
<title>Node11&#45;&gt;Node3</title>
<g id="a_edge11_Node000011_Node000003"><a xlink:title=" ">
<path fill="none" stroke="#63b8ff" d="M389.45,-123.62C399.79,-114.5 415.72,-100.45 428.17,-89.46"/>
<polygon fill="#63b8ff" stroke="#63b8ff" points="430.17,-92.35 435.36,-83.11 425.54,-87.11 430.17,-92.35"/>
</a>
</g>
</g>
<!-- Node11&#45;&gt;Node6 -->
<g id="edge17_Node000011_Node000006" class="edge">
<title>Node11&#45;&gt;Node6</title>
<g id="a_edge17_Node000011_Node000006"><a xlink:title=" ">
<path fill="none" stroke="#63b8ff" d="M373.87,-123.52C365.83,-108.49 348.98,-78.59 330.82,-56 322.82,-46.05 312.8,-36.01 304.15,-27.95"/>
<polygon fill="#63b8ff" stroke="#63b8ff" points="306.65,-25.5 296.9,-21.37 301.95,-30.68 306.65,-25.5"/>
</a>
</g>
</g>
<!-- Node11&#45;&gt;Node7 -->
<g id="edge18_Node000011_Node000007" class="edge">
<title>Node11&#45;&gt;Node7</title>
<g id="a_edge18_Node000011_Node000007"><a xlink:title=" ">
<path fill="none" stroke="#63b8ff" d="M418.88,-131.06C450.93,-127.29 494.55,-116.76 519.82,-88 533.32,-72.63 535.78,-48.71 535.52,-31.61"/>
<polygon fill="#63b8ff" stroke="#63b8ff" points="539.03,-31.67 535.03,-21.86 532.04,-32.03 539.03,-31.67"/>
</a>
</g>
</g>
<!-- Node11&#45;&gt;Node8 -->
<g id="edge19_Node000011_Node000008" class="edge">
<title>Node11&#45;&gt;Node8</title>
<g id="a_edge19_Node000011_Node000008"><a xlink:title=" ">
<path fill="none" stroke="#63b8ff" d="M368.85,-123.74C359.11,-114.68 343.88,-100.45 330.82,-88 316.03,-73.9 314.02,-68.45 297.82,-56 283.19,-44.76 265.55,-34.05 251.06,-25.9"/>
<polygon fill="#63b8ff" stroke="#63b8ff" points="252.92,-22.93 242.47,-21.18 249.55,-29.07 252.92,-22.93"/>
</a>
</g>
</g>
<!-- Node12 -->
<g id="Node000012" class="node">
<title>Node12</title>
<g id="a_Node000012"><a xlink:href="Errors_8hpp.html" target="_top" xlink:title=" ">
<polygon fill="white" stroke="#666666" points="738.32,-82 605.32,-82 605.32,-62 738.32,-62 738.32,-82"/>
<text text-anchor="middle" x="671.82" y="-68.5" font-family="Helvetica,sans-Serif" font-size="10.00">EyeAICore/utils/Errors.hpp</text>
</a>
</g>
</g>
<!-- Node11&#45;&gt;Node12 -->
<g id="edge12_Node000011_Node000012" class="edge">
<title>Node11&#45;&gt;Node12</title>
<g id="a_edge12_Node000011_Node000012"><a xlink:title=" ">
<path fill="none" stroke="#63b8ff" d="M418.95,-124.78C469.64,-114.4 557.2,-96.47 614.81,-84.67"/>
<polygon fill="#63b8ff" stroke="#63b8ff" points="615.34,-88.14 624.44,-82.7 613.94,-81.28 615.34,-88.14"/>
</a>
</g>
</g>
<!-- Node11&#45;&gt;Node16 -->
<g id="edge20_Node000011_Node000016" class="edge">
<title>Node11&#45;&gt;Node16</title>
<g id="a_edge20_Node000011_Node000016"><a xlink:title=" ">
<path fill="none" stroke="#63b8ff" d="M418.94,-131.12C487.29,-127.25 630.33,-116.26 747.82,-88 750.28,-87.41 752.79,-86.72 755.3,-85.96"/>
<polygon fill="#63b8ff" stroke="#63b8ff" points="756.3,-89.32 764.68,-82.83 754.09,-82.68 756.3,-89.32"/>
</a>
</g>
</g>
<!-- Node11&#45;&gt;Node17 -->
<g id="edge21_Node000011_Node000017" class="edge">
<title>Node11&#45;&gt;Node17</title>
<g id="a_edge21_Node000011_Node000017"><a xlink:title=" ">
<path fill="none" stroke="#63b8ff" d="M338.74,-125.6C296.59,-117.65 228.11,-104.26 159.78,-88.38"/>
<polygon fill="#63b8ff" stroke="#63b8ff" points="160.83,-85.03 150.3,-86.16 159.23,-91.85 160.83,-85.03"/>
</a>
</g>
</g>
<!-- Node11&#45;&gt;Node18 -->
<g id="edge22_Node000011_Node000018" class="edge">
<title>Node11&#45;&gt;Node18</title>
<g id="a_edge22_Node000011_Node000018"><a xlink:title=" ">
<path fill="none" stroke="#63b8ff" d="M355.23,-123.62C334.45,-115.37 303.51,-103.07 277.32,-92.67"/>
<polygon fill="#63b8ff" stroke="#63b8ff" points="278.8,-89.49 268.21,-89.05 276.21,-95.99 278.8,-89.49"/>
</a>
</g>
</g>
<!-- Node12&#45;&gt;Node9 -->
<g id="edge14_Node000012_Node000009" class="edge">
<title>Node12&#45;&gt;Node9</title>
<g id="a_edge14_Node000012_Node000009"><a xlink:title=" ">
<path fill="none" stroke="#63b8ff" d="M660.1,-61.62C648.59,-52.41 630.79,-38.17 616.99,-27.14"/>
<polygon fill="#63b8ff" stroke="#63b8ff" points="619.39,-24.57 609.39,-21.06 615.02,-30.04 619.39,-24.57"/>
</a>
</g>
</g>
<!-- Node12&#45;&gt;Node13 -->
<g id="edge13_Node000012_Node000013" class="edge">
<title>Node12&#45;&gt;Node13</title>
<g id="a_edge13_Node000012_Node000013"><a xlink:title=" ">
<path fill="none" stroke="#63b8ff" d="M697.6,-61.62C726.26,-51.2 772.61,-34.35 803.88,-22.98"/>
<polygon fill="#63b8ff" stroke="#63b8ff" points="805.03,-26.28 813.23,-19.58 802.64,-19.71 805.03,-26.28"/>
</a>
</g>
</g>
<!-- Node14 -->
<g id="Node000014" class="node">
<title>Node14</title>
<g id="a_Node000014"><a xlink:title=" ">
<polygon fill="#e0e0e0" stroke="#999999" points="717.2,-20 634.45,-20 634.45,0 717.2,0 717.2,-20"/>
<text text-anchor="middle" x="675.82" y="-6.5" font-family="Helvetica,sans-Serif" font-size="10.00">tl/expected.hpp</text>
</a>
</g>
</g>
<!-- Node12&#45;&gt;Node14 -->
<g id="edge15_Node000012_Node000014" class="edge">
<title>Node12&#45;&gt;Node14</title>
<g id="a_edge15_Node000012_Node000014"><a xlink:title=" ">
<path fill="none" stroke="#63b8ff" d="M672.45,-61.62C672.98,-53.56 673.78,-41.65 674.46,-31.41"/>
<polygon fill="#63b8ff" stroke="#63b8ff" points="677.94,-31.83 675.11,-21.62 670.95,-31.37 677.94,-31.83"/>
</a>
</g>
</g>
<!-- Node15 -->
<g id="Node000015" class="node">
<title>Node15</title>
<g id="a_Node000015"><a xlink:title=" ">
<polygon fill="#e0e0e0" stroke="#999999" points="780.45,-20 735.2,-20 735.2,0 780.45,0 780.45,-20"/>
<text text-anchor="middle" x="757.82" y="-6.5" font-family="Helvetica,sans-Serif" font-size="10.00">variant</text>
</a>
</g>
</g>
<!-- Node12&#45;&gt;Node15 -->
<g id="edge16_Node000012_Node000015" class="edge">
<title>Node12&#45;&gt;Node15</title>
<g id="a_edge16_Node000012_Node000015"><a xlink:title=" ">
<path fill="none" stroke="#63b8ff" d="M685.26,-61.62C698.64,-52.29 719.42,-37.79 735.32,-26.7"/>
<polygon fill="#63b8ff" stroke="#63b8ff" points="737.04,-29.77 743.24,-21.18 733.03,-24.03 737.04,-29.77"/>
</a>
</g>
</g>
<!-- Node19&#45;&gt;Node16 -->
<g id="edge33_Node000019_Node000016" class="edge">
<title>Node19&#45;&gt;Node16</title>
<g id="a_edge33_Node000019_Node000016"><a xlink:title=" ">
<path fill="none" stroke="#63b8ff" d="M936.53,-185.63C909.36,-164.91 843.9,-115 809.99,-89.14"/>
<polygon fill="#63b8ff" stroke="#63b8ff" points="812.21,-86.43 802.14,-83.15 807.97,-92 812.21,-86.43"/>
</a>
</g>
</g>
<!-- Node20 -->
<g id="Node000020" class="node">
<title>Node20</title>
<g id="a_Node000020"><a xlink:title=" ">
<polygon fill="#e0e0e0" stroke="#999999" points="947.45,-144 902.2,-144 902.2,-124 947.45,-124 947.45,-144"/>
<text text-anchor="middle" x="924.82" y="-130.5" font-family="Helvetica,sans-Serif" font-size="10.00">chrono</text>
</a>
</g>
</g>
<!-- Node19&#45;&gt;Node20 -->
<g id="edge31_Node000019_Node000020" class="edge">
<title>Node19&#45;&gt;Node20</title>
<g id="a_edge31_Node000019_Node000020"><a xlink:title=" ">
<path fill="none" stroke="#63b8ff" d="M945.07,-185.62C941.78,-177.39 936.87,-165.13 932.72,-154.74"/>
<polygon fill="#63b8ff" stroke="#63b8ff" points="935.99,-153.5 929.03,-145.52 929.49,-156.1 935.99,-153.5"/>
</a>
</g>
</g>
<!-- Node21 -->
<g id="Node000021" class="node">
<title>Node21</title>
<g id="a_Node000021"><a xlink:title=" ">
<polygon fill="#e0e0e0" stroke="#999999" points="1061.95,-144 965.7,-144 965.7,-124 1061.95,-124 1061.95,-144"/>
<text text-anchor="middle" x="1013.82" y="-130.5" font-family="Helvetica,sans-Serif" font-size="10.00">concurrentqueue.h</text>
</a>
</g>
</g>
<!-- Node19&#45;&gt;Node21 -->
<g id="edge32_Node000019_Node000021" class="edge">
<title>Node19&#45;&gt;Node21</title>
<g id="a_edge32_Node000019_Node000021"><a xlink:title=" ">
<path fill="none" stroke="#63b8ff" d="M958.98,-185.62C968.76,-176.59 983.79,-162.72 995.64,-151.78"/>
<polygon fill="#63b8ff" stroke="#63b8ff" points="997.86,-154.49 1002.84,-145.14 993.11,-149.35 997.86,-154.49"/>
</a>
</g>
</g>
</g>
</svg>
