<?xml version="1.0" encoding="UTF-8" standalone="no"?>
<!DOCTYPE svg PUBLIC "-//W3C//DTD SVG 1.1//EN"
 "http://www.w3.org/Graphics/SVG/1.1/DTD/svg11.dtd">
<!-- Generated by graphviz version 2.43.0 (0)
 -->
<!-- Title: src/tflite/TfLiteUtils.cpp Pages: 1 -->
<svg width="1105pt" height="207pt"
 viewBox="0.00 0.00 1104.50 207.00" xmlns="http://www.w3.org/2000/svg" xmlns:xlink="http://www.w3.org/1999/xlink">
<g id="graph0" class="graph" transform="scale(1 1) rotate(0) translate(4 203)">
<title>src/tflite/TfLiteUtils.cpp</title>
<!-- Node1 -->
<g id="node1" class="node">
<title>Node1</title>
<g id="a_node1"><a xlink:title=" ">
<polygon fill="#bfbfbf" stroke="black" points="349,-179.5 349,-198.5 479,-198.5 479,-179.5 349,-179.5"/>
<text text-anchor="middle" x="414" y="-186.5" font-family="Helvetica,sans-Serif" font-size="10.00">src/tflite/TfLiteUtils.cpp</text>
</a>
</g>
</g>
<!-- Node2 -->
<g id="node2" class="node">
<title>Node2</title>
<g id="a_node2"><a xlink:href="TfLiteUtils_8hpp.html" target="_top" xlink:title=" ">
<polygon fill="none" stroke="black" points="330.5,-123.5 330.5,-142.5 497.5,-142.5 497.5,-123.5 330.5,-123.5"/>
<text text-anchor="middle" x="414" y="-130.5" font-family="Helvetica,sans-Serif" font-size="10.00">EyeAICore/tflite/TfLiteUtils.hpp</text>
</a>
</g>
</g>
<!-- Node1&#45;&gt;Node2 -->
<g id="edge1" class="edge">
<title>Node1&#45;&gt;Node2</title>
<path fill="none" stroke="midnightblue" d="M414,-179.08C414,-172.01 414,-161.86 414,-152.99"/>
<polygon fill="midnightblue" stroke="midnightblue" points="417.5,-152.75 414,-142.75 410.5,-152.75 417.5,-152.75"/>
</g>
<!-- Node3 -->
<g id="node3" class="node">
<title>Node3</title>
<g id="a_node3"><a xlink:href="Operators_8hpp.html" target="_top" xlink:title=" ">
<polygon fill="none" stroke="black" points="158.5,-62 158.5,-81 297.5,-81 297.5,-62 158.5,-62"/>
<text text-anchor="middle" x="228" y="-69" font-family="Helvetica,sans-Serif" font-size="10.00">EyeAICore/Operators.hpp</text>
</a>
</g>
</g>
<!-- Node1&#45;&gt;Node3 -->
<g id="edge21" class="edge">
<title>Node1&#45;&gt;Node3</title>
<path fill="none" stroke="midnightblue" d="M393.44,-179.46C374.17,-171.13 344.86,-157.62 321,-143 293.38,-126.08 264,-102.81 245.82,-87.71"/>
<polygon fill="midnightblue" stroke="midnightblue" points="247.76,-84.77 237.85,-81.02 243.26,-90.13 247.76,-84.77"/>
</g>
<!-- Node18 -->
<g id="node18" class="node">
<title>Node18</title>
<g id="a_node18"><a xlink:href="Profiling_8hpp.html" target="_top" xlink:title=" ">
<polygon fill="none" stroke="black" points="828.5,-123.5 828.5,-142.5 983.5,-142.5 983.5,-123.5 828.5,-123.5"/>
<text text-anchor="middle" x="906" y="-130.5" font-family="Helvetica,sans-Serif" font-size="10.00">EyeAICore/utils/Profiling.hpp</text>
</a>
</g>
</g>
<!-- Node1&#45;&gt;Node18 -->
<g id="edge22" class="edge">
<title>Node1&#45;&gt;Node18</title>
<path fill="none" stroke="midnightblue" d="M479.08,-180.86C566.23,-171.29 721.12,-154.29 818.44,-143.61"/>
<polygon fill="midnightblue" stroke="midnightblue" points="818.99,-147.07 828.55,-142.5 818.23,-140.11 818.99,-147.07"/>
</g>
<!-- Node2&#45;&gt;Node3 -->
<g id="edge2" class="edge">
<title>Node2&#45;&gt;Node3</title>
<path fill="none" stroke="midnightblue" d="M387.35,-123.48C355.03,-113.14 300.4,-95.66 264.27,-84.1"/>
<polygon fill="midnightblue" stroke="midnightblue" points="265.19,-80.72 254.6,-81.01 263.06,-87.39 265.19,-80.72"/>
</g>
<!-- Node6 -->
<g id="node6" class="node">
<title>Node6</title>
<g id="a_node6"><a xlink:title=" ">
<polygon fill="none" stroke="#bfbfbf" points="0,-0.5 0,-19.5 58,-19.5 58,-0.5 0,-0.5"/>
<text text-anchor="middle" x="29" y="-7.5" font-family="Helvetica,sans-Serif" font-size="10.00">memory</text>
</a>
</g>
</g>
<!-- Node2&#45;&gt;Node6 -->
<g id="edge15" class="edge">
<title>Node2&#45;&gt;Node6</title>
<path fill="none" stroke="midnightblue" d="M330.29,-126.31C276.99,-120.64 207.27,-109.36 149,-87 109.98,-72.03 70.02,-43.56 47.48,-26.04"/>
<polygon fill="midnightblue" stroke="midnightblue" points="49.47,-23.16 39.46,-19.69 45.13,-28.65 49.47,-23.16"/>
</g>
<!-- Node7 -->
<g id="node7" class="node">
<title>Node7</title>
<g id="a_node7"><a xlink:title=" ">
<polygon fill="none" stroke="#bfbfbf" points="270,-0.5 270,-19.5 326,-19.5 326,-0.5 270,-0.5"/>
<text text-anchor="middle" x="298" y="-7.5" font-family="Helvetica,sans-Serif" font-size="10.00">optional</text>
</a>
</g>
</g>
<!-- Node2&#45;&gt;Node7 -->
<g id="edge16" class="edge">
<title>Node2&#45;&gt;Node7</title>
<path fill="none" stroke="midnightblue" d="M405.29,-123.46C396.16,-114.47 381.44,-99.87 369,-87 349.31,-66.62 327.08,-42.67 312.82,-27.18"/>
<polygon fill="midnightblue" stroke="midnightblue" points="315.13,-24.52 305.79,-19.52 309.97,-29.26 315.13,-24.52"/>
</g>
<!-- Node8 -->
<g id="node8" class="node">
<title>Node8</title>
<g id="a_node8"><a xlink:title=" ">
<polygon fill="none" stroke="#bfbfbf" points="344,-0.5 344,-19.5 384,-19.5 384,-0.5 344,-0.5"/>
<text text-anchor="middle" x="364" y="-7.5" font-family="Helvetica,sans-Serif" font-size="10.00">span</text>
</a>
</g>
</g>
<!-- Node2&#45;&gt;Node8 -->
<g id="edge17" class="edge">
<title>Node2&#45;&gt;Node8</title>
<path fill="none" stroke="midnightblue" d="M406.56,-123.27C399.53,-114.6 389.17,-100.66 383,-87 374.62,-68.45 369.55,-45.61 366.78,-29.84"/>
<polygon fill="midnightblue" stroke="midnightblue" points="370.2,-29.08 365.15,-19.77 363.29,-30.2 370.2,-29.08"/>
</g>
<!-- Node11 -->
<g id="node11" class="node">
<title>Node11</title>
<g id="a_node11"><a xlink:href="Errors_8hpp.html" target="_top" xlink:title=" ">
<polygon fill="none" stroke="black" points="392.5,-62 392.5,-81 535.5,-81 535.5,-62 392.5,-62"/>
<text text-anchor="middle" x="464" y="-69" font-family="Helvetica,sans-Serif" font-size="10.00">EyeAICore/utils/Errors.hpp</text>
</a>
</g>
</g>
<!-- Node2&#45;&gt;Node11 -->
<g id="edge10" class="edge">
<title>Node2&#45;&gt;Node11</title>
<path fill="none" stroke="midnightblue" d="M421.16,-123.48C428.74,-114.46 440.87,-100.02 450.29,-88.81"/>
<polygon fill="midnightblue" stroke="midnightblue" points="453.1,-90.92 456.85,-81.01 447.74,-86.41 453.1,-90.92"/>
</g>
<!-- Node15 -->
<g id="node15" class="node">
<title>Node15</title>
<g id="a_node15"><a xlink:title=" ">
<polygon fill="none" stroke="#bfbfbf" points="829.5,-62 829.5,-81 902.5,-81 902.5,-62 829.5,-62"/>
<text text-anchor="middle" x="866" y="-69" font-family="Helvetica,sans-Serif" font-size="10.00">string_view</text>
</a>
</g>
</g>
<!-- Node2&#45;&gt;Node15 -->
<g id="edge18" class="edge">
<title>Node2&#45;&gt;Node15</title>
<path fill="none" stroke="midnightblue" d="M497.56,-127.51C580.18,-121.96 709.84,-110.23 820,-87 823.94,-86.17 828.03,-85.14 832.07,-84.01"/>
<polygon fill="midnightblue" stroke="midnightblue" points="833.31,-87.29 841.88,-81.07 831.3,-80.59 833.31,-87.29"/>
</g>
<!-- Node16 -->
<g id="node16" class="node">
<title>Node16</title>
<g id="a_node16"><a xlink:title=" ">
<polygon fill="none" stroke="#bfbfbf" points="553.5,-56.5 553.5,-86.5 656.5,-86.5 656.5,-56.5 553.5,-56.5"/>
<text text-anchor="start" x="561.5" y="-74.5" font-family="Helvetica,sans-Serif" font-size="10.00">tensorflow/lite/c/c</text>
<text text-anchor="middle" x="605" y="-63.5" font-family="Helvetica,sans-Serif" font-size="10.00">_api.h</text>
</a>
</g>
</g>
<!-- Node2&#45;&gt;Node16 -->
<g id="edge19" class="edge">
<title>Node2&#45;&gt;Node16</title>
<path fill="none" stroke="midnightblue" d="M441.37,-123.48C469.65,-114.66 514.58,-100.67 550.2,-89.57"/>
<polygon fill="midnightblue" stroke="midnightblue" points="551.48,-92.84 559.99,-86.52 549.4,-86.16 551.48,-92.84"/>
</g>
<!-- Node17 -->
<g id="node17" class="node">
<title>Node17</title>
<g id="a_node17"><a xlink:title=" ">
<polygon fill="none" stroke="#bfbfbf" points="674.5,-56.5 674.5,-86.5 811.5,-86.5 811.5,-56.5 674.5,-56.5"/>
<text text-anchor="start" x="682.5" y="-74.5" font-family="Helvetica,sans-Serif" font-size="10.00">tensorflow/lite/delegates</text>
<text text-anchor="middle" x="743" y="-63.5" font-family="Helvetica,sans-Serif" font-size="10.00">/gpu/delegate.h</text>
</a>
</g>
</g>
<!-- Node2&#45;&gt;Node17 -->
<g id="edge20" class="edge">
<title>Node2&#45;&gt;Node17</title>
<path fill="none" stroke="midnightblue" d="M462.13,-123.46C510.5,-114.87 587.48,-101.13 663.82,-87.21"/>
<polygon fill="midnightblue" stroke="midnightblue" points="664.89,-90.57 674.1,-85.33 663.64,-83.68 664.89,-90.57"/>
</g>
<!-- Node4 -->
<g id="node4" class="node">
<title>Node4</title>
<g id="a_node4"><a xlink:title=" ">
<polygon fill="none" stroke="#bfbfbf" points="76,-0.5 76,-19.5 118,-19.5 118,-0.5 76,-0.5"/>
<text text-anchor="middle" x="97" y="-7.5" font-family="Helvetica,sans-Serif" font-size="10.00">array</text>
</a>
</g>
</g>
<!-- Node3&#45;&gt;Node4 -->
<g id="edge3" class="edge">
<title>Node3&#45;&gt;Node4</title>
<path fill="none" stroke="midnightblue" d="M209.23,-61.98C187.15,-51.95 150.28,-35.2 124.86,-23.65"/>
<polygon fill="midnightblue" stroke="midnightblue" points="126.29,-20.46 115.73,-19.51 123.39,-26.83 126.29,-20.46"/>
</g>
<!-- Node5 -->
<g id="node5" class="node">
<title>Node5</title>
<g id="a_node5"><a xlink:title=" ">
<polygon fill="none" stroke="#bfbfbf" points="136,-0.5 136,-19.5 186,-19.5 186,-0.5 136,-0.5"/>
<text text-anchor="middle" x="161" y="-7.5" font-family="Helvetica,sans-Serif" font-size="10.00">cstdint</text>
</a>
</g>
</g>
<!-- Node3&#45;&gt;Node5 -->
<g id="edge4" class="edge">
<title>Node3&#45;&gt;Node5</title>
<path fill="none" stroke="midnightblue" d="M218.4,-61.98C207.95,-52.7 191.03,-37.67 178.26,-26.33"/>
<polygon fill="midnightblue" stroke="midnightblue" points="180.38,-23.53 170.58,-19.51 175.73,-28.77 180.38,-23.53"/>
</g>
<!-- Node3&#45;&gt;Node6 -->
<g id="edge5" class="edge">
<title>Node3&#45;&gt;Node6</title>
<path fill="none" stroke="midnightblue" d="M199.49,-61.98C164.76,-51.59 105.96,-34.01 67.31,-22.45"/>
<polygon fill="midnightblue" stroke="midnightblue" points="68.04,-19.02 57.46,-19.51 66.04,-25.73 68.04,-19.02"/>
</g>
<!-- Node3&#45;&gt;Node7 -->
<g id="edge6" class="edge">
<title>Node3&#45;&gt;Node7</title>
<path fill="none" stroke="midnightblue" d="M238.03,-61.98C249.05,-52.61 266.96,-37.38 280.34,-26.01"/>
<polygon fill="midnightblue" stroke="midnightblue" points="282.64,-28.65 287.99,-19.51 278.1,-23.32 282.64,-28.65"/>
</g>
<!-- Node3&#45;&gt;Node8 -->
<g id="edge7" class="edge">
<title>Node3&#45;&gt;Node8</title>
<path fill="none" stroke="midnightblue" d="M247.49,-61.98C270.41,-51.95 308.69,-35.2 335.08,-23.65"/>
<polygon fill="midnightblue" stroke="midnightblue" points="336.79,-26.72 344.55,-19.51 333.99,-20.31 336.79,-26.72"/>
</g>
<!-- Node9 -->
<g id="node9" class="node">
<title>Node9</title>
<g id="a_node9"><a xlink:title=" ">
<polygon fill="none" stroke="#bfbfbf" points="402,-0.5 402,-19.5 446,-19.5 446,-0.5 402,-0.5"/>
<text text-anchor="middle" x="424" y="-7.5" font-family="Helvetica,sans-Serif" font-size="10.00">string</text>
</a>
</g>
</g>
<!-- Node3&#45;&gt;Node9 -->
<g id="edge8" class="edge">
<title>Node3&#45;&gt;Node9</title>
<path fill="none" stroke="midnightblue" d="M256.08,-61.98C291.98,-51.08 353.99,-32.25 391.77,-20.78"/>
<polygon fill="midnightblue" stroke="midnightblue" points="393.19,-24.01 401.74,-17.76 391.16,-17.31 393.19,-24.01"/>
</g>
<!-- Node10 -->
<g id="node10" class="node">
<title>Node10</title>
<g id="a_node10"><a xlink:title=" ">
<polygon fill="none" stroke="#bfbfbf" points="204.5,-0.5 204.5,-19.5 251.5,-19.5 251.5,-0.5 204.5,-0.5"/>
<text text-anchor="middle" x="228" y="-7.5" font-family="Helvetica,sans-Serif" font-size="10.00">vector</text>
</a>
</g>
</g>
<!-- Node3&#45;&gt;Node10 -->
<g id="edge9" class="edge">
<title>Node3&#45;&gt;Node10</title>
<path fill="none" stroke="midnightblue" d="M228,-61.98C228,-53.58 228,-40.48 228,-29.66"/>
<polygon fill="midnightblue" stroke="midnightblue" points="231.5,-29.51 228,-19.51 224.5,-29.51 231.5,-29.51"/>
</g>
<!-- Node11&#45;&gt;Node9 -->
<g id="edge12" class="edge">
<title>Node11&#45;&gt;Node9</title>
<path fill="none" stroke="midnightblue" d="M458.27,-61.98C452.33,-53.14 442.88,-39.09 435.41,-27.98"/>
<polygon fill="midnightblue" stroke="midnightblue" points="438.2,-25.86 429.72,-19.51 432.39,-29.76 438.2,-25.86"/>
</g>
<!-- Node12 -->
<g id="node12" class="node">
<title>Node12</title>
<g id="a_node12"><a xlink:title=" ">
<polygon fill="none" stroke="#bfbfbf" points="464,-0.5 464,-19.5 514,-19.5 514,-0.5 464,-0.5"/>
<text text-anchor="middle" x="489" y="-7.5" font-family="Helvetica,sans-Serif" font-size="10.00">format</text>
</a>
</g>
</g>
<!-- Node11&#45;&gt;Node12 -->
<g id="edge11" class="edge">
<title>Node11&#45;&gt;Node12</title>
<path fill="none" stroke="midnightblue" d="M467.58,-61.98C471.18,-53.4 476.85,-39.93 481.44,-28.98"/>
<polygon fill="midnightblue" stroke="midnightblue" points="484.78,-30.08 485.42,-19.51 478.32,-27.37 484.78,-30.08"/>
</g>
<!-- Node13 -->
<g id="node13" class="node">
<title>Node13</title>
<g id="a_node13"><a xlink:title=" ">
<polygon fill="none" stroke="#bfbfbf" points="532,-0.5 532,-19.5 624,-19.5 624,-0.5 532,-0.5"/>
<text text-anchor="middle" x="578" y="-7.5" font-family="Helvetica,sans-Serif" font-size="10.00">tl/expected.hpp</text>
</a>
</g>
</g>
<!-- Node11&#45;&gt;Node13 -->
<g id="edge13" class="edge">
<title>Node11&#45;&gt;Node13</title>
<path fill="none" stroke="midnightblue" d="M480.33,-61.98C499.21,-52.12 530.51,-35.79 552.58,-24.27"/>
<polygon fill="midnightblue" stroke="midnightblue" points="554.45,-27.24 561.7,-19.51 551.21,-21.03 554.45,-27.24"/>
</g>
<!-- Node14 -->
<g id="node14" class="node">
<title>Node14</title>
<g id="a_node14"><a xlink:title=" ">
<polygon fill="none" stroke="#bfbfbf" points="642.5,-0.5 642.5,-19.5 693.5,-19.5 693.5,-0.5 642.5,-0.5"/>
<text text-anchor="middle" x="668" y="-7.5" font-family="Helvetica,sans-Serif" font-size="10.00">variant</text>
</a>
</g>
</g>
<!-- Node11&#45;&gt;Node14 -->
<g id="edge14" class="edge">
<title>Node11&#45;&gt;Node14</title>
<path fill="none" stroke="midnightblue" d="M493.23,-61.98C530.02,-51.24 593.16,-32.83 632.63,-21.31"/>
<polygon fill="midnightblue" stroke="midnightblue" points="633.75,-24.64 642.37,-18.47 631.79,-17.92 633.75,-24.64"/>
</g>
<!-- Node18&#45;&gt;Node15 -->
<g id="edge25" class="edge">
<title>Node18&#45;&gt;Node15</title>
<path fill="none" stroke="midnightblue" d="M900.27,-123.48C894.33,-114.64 884.88,-100.59 877.41,-89.48"/>
<polygon fill="midnightblue" stroke="midnightblue" points="880.2,-87.36 871.72,-81.01 874.39,-91.26 880.2,-87.36"/>
</g>
<!-- Node19 -->
<g id="node19" class="node">
<title>Node19</title>
<g id="a_node19"><a xlink:title=" ">
<polygon fill="none" stroke="#bfbfbf" points="921,-62 921,-81 971,-81 971,-62 921,-62"/>
<text text-anchor="middle" x="946" y="-69" font-family="Helvetica,sans-Serif" font-size="10.00">chrono</text>
</a>
</g>
</g>
<!-- Node18&#45;&gt;Node19 -->
<g id="edge23" class="edge">
<title>Node18&#45;&gt;Node19</title>
<path fill="none" stroke="midnightblue" d="M911.73,-123.48C917.67,-114.64 927.12,-100.59 934.59,-89.48"/>
<polygon fill="midnightblue" stroke="midnightblue" points="937.61,-91.26 940.28,-81.01 931.8,-87.36 937.61,-91.26"/>
</g>
<!-- Node20 -->
<g id="node20" class="node">
<title>Node20</title>
<g id="a_node20"><a xlink:title=" ">
<polygon fill="none" stroke="#bfbfbf" points="989.5,-62 989.5,-81 1096.5,-81 1096.5,-62 989.5,-62"/>
<text text-anchor="middle" x="1043" y="-69" font-family="Helvetica,sans-Serif" font-size="10.00">concurrentqueue.h</text>
</a>
</g>
</g>
<!-- Node18&#45;&gt;Node20 -->
<g id="edge24" class="edge">
<title>Node18&#45;&gt;Node20</title>
<path fill="none" stroke="midnightblue" d="M925.63,-123.48C948.82,-113.4 987.62,-96.55 1014.21,-85"/>
<polygon fill="midnightblue" stroke="midnightblue" points="1015.63,-88.2 1023.41,-81.01 1012.84,-81.78 1015.63,-88.2"/>
</g>
</g>
</svg>
