<?xml version="1.0" encoding="UTF-8" standalone="no"?>
<!DOCTYPE svg PUBLIC "-//W3C//DTD SVG 1.1//EN"
 "http://www.w3.org/Graphics/SVG/1.1/DTD/svg11.dtd">
<!-- Generated by graphviz version 12.2.1 (20241206.2353)
 -->
<!-- Title: include/EyeAICore/tflite/TfLiteUtils.hpp Pages: 1 -->
<svg width="876pt" height="168pt"
 viewBox="0.00 0.00 876.00 167.75" xmlns="http://www.w3.org/2000/svg" xmlns:xlink="http://www.w3.org/1999/xlink">
<g id="graph0" class="graph" transform="scale(1 1) rotate(0) translate(4 163.75)">
<title>include/EyeAICore/tflite/TfLiteUtils.hpp</title>
<!-- Node1 -->
<g id="Node000001" class="node">
<title>Node1</title>
<g id="a_Node000001"><a xlink:title=" ">
<polygon fill="#999999" stroke="#666666" points="480.62,-159.75 350.62,-159.75 350.62,-126.25 480.62,-126.25 480.62,-159.75"/>
<text text-anchor="start" x="358.62" y="-146.25" font-family="Helvetica,sans-Serif" font-size="10.00">include/EyeAICore/tflite</text>
<text text-anchor="middle" x="415.62" y="-133.5" font-family="Helvetica,sans-Serif" font-size="10.00">/TfLiteUtils.hpp</text>
</a>
</g>
</g>
<!-- Node2 -->
<g id="Node000002" class="node">
<title>Node2</title>
<g id="a_Node000002"><a xlink:href="TensorBuffer_8hpp.html" target="_top" xlink:title=" ">
<polygon fill="white" stroke="#666666" points="230.75,-83.88 80.5,-83.88 80.5,-63.12 230.75,-63.12 230.75,-83.88"/>
<text text-anchor="middle" x="155.62" y="-70.38" font-family="Helvetica,sans-Serif" font-size="10.00">EyeAICore/TensorBuffer.hpp</text>
</a>
</g>
</g>
<!-- Node1&#45;&gt;Node2 -->
<g id="edge1_Node000001_Node000002" class="edge">
<title>Node1&#45;&gt;Node2</title>
<g id="a_edge1_Node000001_Node000002"><a xlink:title=" ">
<path fill="none" stroke="#63b8ff" d="M353.35,-125.83C307.8,-114.01 246.86,-98.19 204.73,-87.25"/>
<polygon fill="#63b8ff" stroke="#63b8ff" points="205.66,-83.88 195.11,-84.75 203.91,-90.65 205.66,-83.88"/>
</a>
</g>
</g>
<!-- Node4 -->
<g id="Node000004" class="node">
<title>Node4</title>
<g id="a_Node000004"><a xlink:title=" ">
<polygon fill="#e0e0e0" stroke="#999999" points="57.25,-20.75 0,-20.75 0,0 57.25,0 57.25,-20.75"/>
<text text-anchor="middle" x="28.62" y="-7.25" font-family="Helvetica,sans-Serif" font-size="10.00">memory</text>
</a>
</g>
</g>
<!-- Node1&#45;&gt;Node4 -->
<g id="edge12_Node000001_Node000004" class="edge">
<title>Node1&#45;&gt;Node4</title>
<g id="a_edge12_Node000001_Node000004"><a xlink:title=" ">
<path fill="none" stroke="#63b8ff" d="M350.45,-139.03C263.52,-133.94 115.48,-120.93 71.62,-90.25 51.8,-76.38 40.21,-50.36 34.16,-32.01"/>
<polygon fill="#63b8ff" stroke="#63b8ff" points="37.53,-31.05 31.32,-22.46 30.82,-33.05 37.53,-31.05"/>
</a>
</g>
</g>
<!-- Node5 -->
<g id="Node000005" class="node">
<title>Node5</title>
<g id="a_Node000005"><a xlink:title=" ">
<polygon fill="#e0e0e0" stroke="#999999" points="246.25,-20.75 207,-20.75 207,0 246.25,0 246.25,-20.75"/>
<text text-anchor="middle" x="226.62" y="-7.25" font-family="Helvetica,sans-Serif" font-size="10.00">span</text>
</a>
</g>
</g>
<!-- Node1&#45;&gt;Node5 -->
<g id="edge14_Node000001_Node000005" class="edge">
<title>Node1&#45;&gt;Node5</title>
<g id="a_edge14_Node000001_Node000005"><a xlink:title=" ">
<path fill="none" stroke="#63b8ff" d="M350.42,-126.92C325.79,-118.94 298.65,-107.18 277.62,-90.25 258.04,-74.48 243.54,-49.09 235.11,-31.39"/>
<polygon fill="#63b8ff" stroke="#63b8ff" points="238.37,-30.11 231.08,-22.42 231.99,-32.98 238.37,-30.11"/>
</a>
</g>
</g>
<!-- Node8 -->
<g id="Node000008" class="node">
<title>Node8</title>
<g id="a_Node000008"><a xlink:href="Errors_8hpp.html" target="_top" xlink:title=" ">
<polygon fill="white" stroke="#666666" points="429,-83.88 286.25,-83.88 286.25,-63.12 429,-63.12 429,-83.88"/>
<text text-anchor="middle" x="357.62" y="-70.38" font-family="Helvetica,sans-Serif" font-size="10.00">EyeAICore/utils/Errors.hpp</text>
</a>
</g>
</g>
<!-- Node1&#45;&gt;Node8 -->
<g id="edge7_Node000001_Node000008" class="edge">
<title>Node1&#45;&gt;Node8</title>
<g id="a_edge7_Node000001_Node000008"><a xlink:title=" ">
<path fill="none" stroke="#63b8ff" d="M401.88,-126C393.36,-116.09 382.4,-103.33 373.51,-92.99"/>
<polygon fill="#63b8ff" stroke="#63b8ff" points="376.22,-90.77 367.05,-85.47 370.91,-95.34 376.22,-90.77"/>
</a>
</g>
</g>
<!-- Node12 -->
<g id="Node000012" class="node">
<title>Node12</title>
<g id="a_Node000012"><a xlink:title=" ">
<polygon fill="#e0e0e0" stroke="#999999" points="502.5,-83.88 446.75,-83.88 446.75,-63.12 502.5,-63.12 502.5,-83.88"/>
<text text-anchor="middle" x="474.62" y="-70.38" font-family="Helvetica,sans-Serif" font-size="10.00">optional</text>
</a>
</g>
</g>
<!-- Node1&#45;&gt;Node12 -->
<g id="edge13_Node000001_Node000012" class="edge">
<title>Node1&#45;&gt;Node12</title>
<g id="a_edge13_Node000001_Node000012"><a xlink:title=" ">
<path fill="none" stroke="#63b8ff" d="M429.61,-126C438.27,-116.09 449.43,-103.33 458.47,-92.99"/>
<polygon fill="#63b8ff" stroke="#63b8ff" points="461.1,-95.29 465.04,-85.46 455.83,-90.69 461.1,-95.29"/>
</a>
</g>
</g>
<!-- Node13 -->
<g id="Node000013" class="node">
<title>Node13</title>
<g id="a_Node000013"><a xlink:title=" ">
<polygon fill="#e0e0e0" stroke="#999999" points="592.75,-83.88 520.5,-83.88 520.5,-63.12 592.75,-63.12 592.75,-83.88"/>
<text text-anchor="middle" x="556.62" y="-70.38" font-family="Helvetica,sans-Serif" font-size="10.00">string_view</text>
</a>
</g>
</g>
<!-- Node1&#45;&gt;Node13 -->
<g id="edge15_Node000001_Node000013" class="edge">
<title>Node1&#45;&gt;Node13</title>
<g id="a_edge15_Node000001_Node000013"><a xlink:title=" ">
<path fill="none" stroke="#63b8ff" d="M449.4,-125.83C472.64,-114.7 503.28,-100.04 525.85,-89.23"/>
<polygon fill="#63b8ff" stroke="#63b8ff" points="527.34,-92.4 534.85,-84.92 524.32,-86.09 527.34,-92.4"/>
</a>
</g>
</g>
<!-- Node14 -->
<g id="Node000014" class="node">
<title>Node14</title>
<g id="a_Node000014"><a xlink:title=" ">
<polygon fill="#e0e0e0" stroke="#999999" points="712.75,-90.25 610.5,-90.25 610.5,-56.75 712.75,-56.75 712.75,-90.25"/>
<text text-anchor="start" x="618.5" y="-76.75" font-family="Helvetica,sans-Serif" font-size="10.00">tensorflow/lite/c/c</text>
<text text-anchor="middle" x="661.62" y="-64" font-family="Helvetica,sans-Serif" font-size="10.00">_api.h</text>
</a>
</g>
</g>
<!-- Node1&#45;&gt;Node14 -->
<g id="edge16_Node000001_Node000014" class="edge">
<title>Node1&#45;&gt;Node14</title>
<g id="a_edge16_Node000001_Node000014"><a xlink:title=" ">
<path fill="none" stroke="#63b8ff" d="M474.55,-125.83C512.2,-115.5 560.95,-102.12 599.25,-91.61"/>
<polygon fill="#63b8ff" stroke="#63b8ff" points="600.09,-95.01 608.81,-88.99 598.24,-88.26 600.09,-95.01"/>
</a>
</g>
</g>
<!-- Node15 -->
<g id="Node000015" class="node">
<title>Node15</title>
<g id="a_Node000015"><a xlink:title=" ">
<polygon fill="#e0e0e0" stroke="#999999" points="868,-90.25 731.25,-90.25 731.25,-56.75 868,-56.75 868,-90.25"/>
<text text-anchor="start" x="739.25" y="-76.75" font-family="Helvetica,sans-Serif" font-size="10.00">tensorflow/lite/delegates</text>
<text text-anchor="middle" x="799.62" y="-64" font-family="Helvetica,sans-Serif" font-size="10.00">/gpu/delegate.h</text>
</a>
</g>
</g>
<!-- Node1&#45;&gt;Node15 -->
<g id="edge17_Node000001_Node000015" class="edge">
<title>Node1&#45;&gt;Node15</title>
<g id="a_edge17_Node000001_Node000015"><a xlink:title=" ">
<path fill="none" stroke="#63b8ff" d="M481.09,-131.54C540.64,-121.89 631.24,-106.87 720.06,-90.51"/>
<polygon fill="#63b8ff" stroke="#63b8ff" points="720.48,-93.99 729.68,-88.73 719.21,-87.1 720.48,-93.99"/>
</a>
</g>
</g>
<!-- Node3 -->
<g id="Node000003" class="node">
<title>Node3</title>
<g id="a_Node000003"><a xlink:title=" ">
<polygon fill="#e0e0e0" stroke="#999999" points="124.12,-20.75 75.12,-20.75 75.12,0 124.12,0 124.12,-20.75"/>
<text text-anchor="middle" x="99.62" y="-7.25" font-family="Helvetica,sans-Serif" font-size="10.00">cstdint</text>
</a>
</g>
</g>
<!-- Node2&#45;&gt;Node3 -->
<g id="edge2_Node000002_Node000003" class="edge">
<title>Node2&#45;&gt;Node3</title>
<g id="a_edge2_Node000002_Node000003"><a xlink:title=" ">
<path fill="none" stroke="#63b8ff" d="M146.63,-62.68C138.42,-53.72 126.07,-40.24 116.1,-29.35"/>
<polygon fill="#63b8ff" stroke="#63b8ff" points="118.77,-27.1 109.44,-22.09 113.61,-31.82 118.77,-27.1"/>
</a>
</g>
</g>
<!-- Node2&#45;&gt;Node4 -->
<g id="edge3_Node000002_Node000004" class="edge">
<title>Node2&#45;&gt;Node4</title>
<g id="a_edge3_Node000002_Node000004"><a xlink:title=" ">
<path fill="none" stroke="#63b8ff" d="M135.22,-62.68C114.67,-52.79 82.71,-37.41 59.15,-26.06"/>
<polygon fill="#63b8ff" stroke="#63b8ff" points="60.87,-23.01 50.34,-21.83 57.84,-29.32 60.87,-23.01"/>
</a>
</g>
</g>
<!-- Node2&#45;&gt;Node5 -->
<g id="edge4_Node000002_Node000005" class="edge">
<title>Node2&#45;&gt;Node5</title>
<g id="a_edge4_Node000002_Node000005"><a xlink:title=" ">
<path fill="none" stroke="#63b8ff" d="M167.03,-62.68C177.76,-53.45 194.04,-39.43 206.87,-28.38"/>
<polygon fill="#63b8ff" stroke="#63b8ff" points="209.04,-31.13 214.33,-21.96 204.47,-25.83 209.04,-31.13"/>
</a>
</g>
</g>
<!-- Node6 -->
<g id="Node000006" class="node">
<title>Node6</title>
<g id="a_Node000006"><a xlink:title=" ">
<polygon fill="#e0e0e0" stroke="#999999" points="314.88,-20.75 264.38,-20.75 264.38,0 314.88,0 314.88,-20.75"/>
<text text-anchor="middle" x="289.62" y="-7.25" font-family="Helvetica,sans-Serif" font-size="10.00">variant</text>
</a>
</g>
</g>
<!-- Node2&#45;&gt;Node6 -->
<g id="edge5_Node000002_Node000006" class="edge">
<title>Node2&#45;&gt;Node6</title>
<g id="a_edge5_Node000002_Node000006"><a xlink:title=" ">
<path fill="none" stroke="#63b8ff" d="M177.15,-62.68C198.94,-52.74 232.86,-37.27 257.76,-25.91"/>
<polygon fill="#63b8ff" stroke="#63b8ff" points="259.13,-29.13 266.77,-21.8 256.22,-22.77 259.13,-29.13"/>
</a>
</g>
</g>
<!-- Node7 -->
<g id="Node000007" class="node">
<title>Node7</title>
<g id="a_Node000007"><a xlink:title=" ">
<polygon fill="#e0e0e0" stroke="#999999" points="189,-20.75 142.25,-20.75 142.25,0 189,0 189,-20.75"/>
<text text-anchor="middle" x="165.62" y="-7.25" font-family="Helvetica,sans-Serif" font-size="10.00">vector</text>
</a>
</g>
</g>
<!-- Node2&#45;&gt;Node7 -->
<g id="edge6_Node000002_Node000007" class="edge">
<title>Node2&#45;&gt;Node7</title>
<g id="a_edge6_Node000002_Node000007"><a xlink:title=" ">
<path fill="none" stroke="#63b8ff" d="M157.23,-62.68C158.58,-54.43 160.55,-42.37 162.25,-32.01"/>
<polygon fill="#63b8ff" stroke="#63b8ff" points="165.65,-32.9 163.81,-22.46 158.74,-31.77 165.65,-32.9"/>
</a>
</g>
</g>
<!-- Node8&#45;&gt;Node6 -->
<g id="edge11_Node000008_Node000006" class="edge">
<title>Node8&#45;&gt;Node6</title>
<g id="a_edge11_Node000008_Node000006"><a xlink:title=" ">
<path fill="none" stroke="#63b8ff" d="M346.7,-62.68C336.43,-53.45 320.84,-39.43 308.54,-28.38"/>
<polygon fill="#63b8ff" stroke="#63b8ff" points="311.2,-26.06 301.42,-21.98 306.52,-31.27 311.2,-26.06"/>
</a>
</g>
</g>
<!-- Node9 -->
<g id="Node000009" class="node">
<title>Node9</title>
<g id="a_Node000009"><a xlink:title=" ">
<polygon fill="#e0e0e0" stroke="#999999" points="382.12,-20.75 333.12,-20.75 333.12,0 382.12,0 382.12,-20.75"/>
<text text-anchor="middle" x="357.62" y="-7.25" font-family="Helvetica,sans-Serif" font-size="10.00">format</text>
</a>
</g>
</g>
<!-- Node8&#45;&gt;Node9 -->
<g id="edge8_Node000008_Node000009" class="edge">
<title>Node8&#45;&gt;Node9</title>
<g id="a_edge8_Node000008_Node000009"><a xlink:title=" ">
<path fill="none" stroke="#63b8ff" d="M357.62,-62.68C357.62,-54.52 357.62,-42.63 357.62,-32.35"/>
<polygon fill="#63b8ff" stroke="#63b8ff" points="361.13,-32.48 357.63,-22.48 354.13,-32.48 361.13,-32.48"/>
</a>
</g>
</g>
<!-- Node10 -->
<g id="Node000010" class="node">
<title>Node10</title>
<g id="a_Node000010"><a xlink:title=" ">
<polygon fill="#e0e0e0" stroke="#999999" points="443.5,-20.75 399.75,-20.75 399.75,0 443.5,0 443.5,-20.75"/>
<text text-anchor="middle" x="421.62" y="-7.25" font-family="Helvetica,sans-Serif" font-size="10.00">string</text>
</a>
</g>
</g>
<!-- Node8&#45;&gt;Node10 -->
<g id="edge9_Node000008_Node000010" class="edge">
<title>Node8&#45;&gt;Node10</title>
<g id="a_edge9_Node000008_Node000010"><a xlink:title=" ">
<path fill="none" stroke="#63b8ff" d="M367.91,-62.68C377.48,-53.54 391.96,-39.7 403.48,-28.7"/>
<polygon fill="#63b8ff" stroke="#63b8ff" points="405.67,-31.45 410.48,-22.02 400.84,-26.39 405.67,-31.45"/>
</a>
</g>
</g>
<!-- Node11 -->
<g id="Node000011" class="node">
<title>Node11</title>
<g id="a_Node000011"><a xlink:title=" ">
<polygon fill="#e0e0e0" stroke="#999999" points="553.5,-20.75 461.75,-20.75 461.75,0 553.5,0 553.5,-20.75"/>
<text text-anchor="middle" x="507.62" y="-7.25" font-family="Helvetica,sans-Serif" font-size="10.00">tl/expected.hpp</text>
</a>
</g>
</g>
<!-- Node8&#45;&gt;Node11 -->
<g id="edge10_Node000008_Node000011" class="edge">
<title>Node8&#45;&gt;Node11</title>
<g id="a_edge10_Node000008_Node000011"><a xlink:title=" ">
<path fill="none" stroke="#63b8ff" d="M381.73,-62.68C406.44,-52.61 445.11,-36.85 473.07,-25.46"/>
<polygon fill="#63b8ff" stroke="#63b8ff" points="474.24,-28.76 482.18,-21.74 471.6,-22.28 474.24,-28.76"/>
</a>
</g>
</g>
</g>
</svg>
