<?xml version="1.0" encoding="UTF-8" standalone="no"?>
<!DOCTYPE svg PUBLIC "-//W3C//DTD SVG 1.1//EN"
 "http://www.w3.org/Graphics/SVG/1.1/DTD/svg11.dtd">
<!-- Generated by graphviz version 12.2.1 (20241206.2353)
 -->
<!-- Title: src/tflite/TfLiteRuntime.cpp Pages: 1 -->
<!--zoomable 281 -->

<svg id="main" version="1.1" xmlns="http://www.w3.org/2000/svg" xmlns:xlink="http://www.w3.org/1999/xlink" xml:space="preserve" onload="init(evt)">

<style type="text/css"><![CDATA[
.node, .edge {opacity: 0.7;}
.node.selected, .edge.selected {opacity: 1;}
.edge:hover path { stroke: red; }
.edge:hover polygon { stroke: red; fill: red; }
]]></style>

<defs>
  <circle id="rim" cx="0" cy="0" r="7"/>
  <circle id="rim2" cx="0" cy="0" r="3.5"/>
  <g id="zoomPlus">
    <use xlink:href="#rim" fill="#404040"><set attributeName="fill" to="#808080" begin="zoomplus.mouseover" end="zoomplus.mouseout"/></use>
    <path d="M-4,0h8M0,-4v8" fill="none" stroke="white" stroke-width="1.5" pointer-events="none"/>
  </g>
  <g id="zoomMin">
    <use xlink:href="#rim" fill="#404040"><set attributeName="fill" to="#808080" begin="zoomminus.mouseover" end="zoomminus.mouseout"/></use>
    <path d="M-4,0h8" fill="none" stroke="white" stroke-width="1.5" pointer-events="none"/>
  </g>
  <g id="arrowUp" transform="translate(30 24)">
    <use xlink:href="#rim"/>
    <path pointer-events="none" fill="none" stroke="white" stroke-width="1.5" d="M0,-3.0v7 M-2.5,-0.5L0,-3.0L2.5,-0.5"/>
  </g>
  <g id="arrowRight" transform="rotate(90) translate(36 -43)">
    <use xlink:href="#rim"/>
    <path pointer-events="none" fill="none" stroke="white" stroke-width="1.5" d="M0,-3.0v7 M-2.5,-0.5L0,-3.0L2.5,-0.5"/>
  </g>
  <g id="arrowDown" transform="rotate(180) translate(-30 -48)">
    <use xlink:href="#rim"/>
    <path pointer-events="none" fill="none" stroke="white" stroke-width="1.5" d="M0,-3.0v7 M-2.5,-0.5L0,-3.0L2.5,-0.5"/>
  </g>
  <g id="arrowLeft" transform="rotate(270) translate(-36 17)">
    <use xlink:href="#rim"/>
    <path pointer-events="none" fill="none" stroke="white" stroke-width="1.5" d="M0,-3.0v7 M-2.5,-0.5L0,-3.0L2.5,-0.5"/>
  </g>
  <g id="resetDef">
    <use xlink:href="#rim2" fill="#404040"><set attributeName="fill" to="#808080" begin="reset.mouseover" end="reset.mouseout"/></use>
  </g>
</defs>
<script type="application/ecmascript">
var viewWidth = 1188;
var viewHeight = 281;
var sectionId = 'dynsection-0';
</script>
<script type="application/ecmascript" xlink:href="svg.min.js"/>
<svg id="graph" class="graph">
<g id="viewport">
<title>src/tflite/TfLiteRuntime.cpp</title>
<!-- Node1 -->
<g id="Node000001" class="node">
<title>Node1</title>
<g id="a_Node000001"><a xlink:title=" ">
<polygon fill="#999999" stroke="#666666" points="749.5,-273.25 601.5,-273.25 601.5,-252.5 749.5,-252.5 749.5,-273.25"/>
<text text-anchor="middle" x="675.5" y="-259.75" font-family="Helvetica,sans-Serif" font-size="10.00">src/tflite/TfLiteRuntime.cpp</text>
</a>
</g>
</g>
<!-- Node2 -->
<g id="Node000002" class="node">
<title>Node2</title>
<g id="a_Node000002"><a xlink:href="TfLiteRuntime_8hpp.html" target="_top" xlink:title=" ">
<polygon fill="white" stroke="#666666" points="767.88,-210.12 583.12,-210.12 583.12,-189.38 767.88,-189.38 767.88,-210.12"/>
<text text-anchor="middle" x="675.5" y="-196.62" font-family="Helvetica,sans-Serif" font-size="10.00">EyeAICore/tflite/TfLiteRuntime.hpp</text>
</a>
</g>
</g>
<!-- Node1&#45;&gt;Node2 -->
<g id="edge1_Node000001_Node000002" class="edge">
<title>Node1&#45;&gt;Node2</title>
<g id="a_edge1_Node000001_Node000002"><a xlink:title=" ">
<path fill="none" stroke="#63b8ff" d="M675.5,-252.05C675.5,-243.9 675.5,-232.01 675.5,-221.73"/>
<polygon fill="#63b8ff" stroke="#63b8ff" points="679,-221.86 675.5,-211.86 672,-221.86 679,-221.86"/>
</a>
</g>
</g>
<!-- Node9 -->
<g id="Node000009" class="node">
<title>Node9</title>
<g id="a_Node000009"><a xlink:href="TfLiteUtils_8hpp.html" target="_top" xlink:title=" ">
<polygon fill="white" stroke="#666666" points="604.12,-147 516.88,-147 516.88,-126.25 604.12,-126.25 604.12,-147"/>
<text text-anchor="middle" x="560.5" y="-133.5" font-family="Helvetica,sans-Serif" font-size="10.00">TfLiteUtils.hpp</text>
</a>
</g>
</g>
<!-- Node1&#45;&gt;Node9 -->
<g id="edge27_Node000001_Node000009" class="edge">
<title>Node1&#45;&gt;Node9</title>
<g id="a_edge27_Node000001_Node000009"><a xlink:title=" ">
<path fill="none" stroke="#63b8ff" d="M630.99,-252.04C610.8,-245.33 588.39,-234.31 574.5,-216.5 561.7,-200.07 559.08,-175.88 559.12,-158.62"/>
<polygon fill="#63b8ff" stroke="#63b8ff" points="562.61,-158.89 559.46,-148.77 555.61,-158.64 562.61,-158.89"/>
</a>
</g>
</g>
<!-- Node11 -->
<g id="Node000011" class="node">
<title>Node11</title>
<g id="a_Node000011"><a xlink:title=" ">
<polygon fill="#e0e0e0" stroke="#999999" points="49,-20.75 0,-20.75 0,0 49,0 49,-20.75"/>
<text text-anchor="middle" x="24.5" y="-7.25" font-family="Helvetica,sans-Serif" font-size="10.00">format</text>
</a>
</g>
</g>
<!-- Node1&#45;&gt;Node11 -->
<g id="edge32_Node000001_Node000011" class="edge">
<title>Node1&#45;&gt;Node11</title>
<g id="a_edge32_Node000001_Node000011"><a xlink:title=" ">
<path fill="none" stroke="#63b8ff" d="M601.17,-257.51C493.63,-248.71 290.67,-222.69 136.5,-147 101.47,-129.8 94.44,-120.27 69.5,-90.25 54.27,-71.92 41.34,-47.75 33.3,-31.01"/>
<polygon fill="#63b8ff" stroke="#63b8ff" points="36.58,-29.75 29.19,-22.16 30.23,-32.7 36.58,-29.75"/>
</a>
</g>
</g>
<!-- Node18 -->
<g id="Node000018" class="node">
<title>Node18</title>
<g id="a_Node000018"><a xlink:href="Profiling_8hpp.html" target="_top" xlink:title=" ">
<polygon fill="white" stroke="#666666" points="1046.5,-210.12 892.5,-210.12 892.5,-189.38 1046.5,-189.38 1046.5,-210.12"/>
<text text-anchor="middle" x="969.5" y="-196.62" font-family="Helvetica,sans-Serif" font-size="10.00">EyeAICore/utils/Profiling.hpp</text>
</a>
</g>
</g>
<!-- Node1&#45;&gt;Node18 -->
<g id="edge28_Node000001_Node000018" class="edge">
<title>Node1&#45;&gt;Node18</title>
<g id="a_edge28_Node000001_Node000018"><a xlink:title=" ">
<path fill="none" stroke="#63b8ff" d="M722.74,-252.05C774.06,-241.38 856.12,-224.32 911.36,-212.84"/>
<polygon fill="#63b8ff" stroke="#63b8ff" points="911.82,-216.32 920.9,-210.85 910.4,-209.46 911.82,-216.32"/>
</a>
</g>
</g>
<!-- Node21 -->
<g id="Node000021" class="node">
<title>Node21</title>
<g id="a_Node000021"><a xlink:title=" ">
<polygon fill="#e0e0e0" stroke="#999999" points="1180.38,-216.5 1064.62,-216.5 1064.62,-183 1180.38,-183 1180.38,-216.5"/>
<text text-anchor="start" x="1072.62" y="-203" font-family="Helvetica,sans-Serif" font-size="10.00">tensorflow/lite/c/c</text>
<text text-anchor="middle" x="1122.5" y="-190.25" font-family="Helvetica,sans-Serif" font-size="10.00">_api_experimental.h</text>
</a>
</g>
</g>
<!-- Node1&#45;&gt;Node21 -->
<g id="edge33_Node000001_Node000021" class="edge">
<title>Node1&#45;&gt;Node21</title>
<g id="a_edge33_Node000001_Node000021"><a xlink:title=" ">
<path fill="none" stroke="#63b8ff" d="M749.77,-255.49C824.16,-248.53 942.1,-235.98 1053.38,-216.75"/>
<polygon fill="#63b8ff" stroke="#63b8ff" points="1053.74,-220.24 1062.99,-215.07 1052.53,-213.35 1053.74,-220.24"/>
</a>
</g>
</g>
<!-- Node3 -->
<g id="Node000003" class="node">
<title>Node3</title>
<g id="a_Node000003"><a xlink:href="TensorBuffer_8hpp.html" target="_top" xlink:title=" ">
<polygon fill="white" stroke="#666666" points="550.62,-83.88 400.38,-83.88 400.38,-63.12 550.62,-63.12 550.62,-83.88"/>
<text text-anchor="middle" x="475.5" y="-70.38" font-family="Helvetica,sans-Serif" font-size="10.00">EyeAICore/TensorBuffer.hpp</text>
</a>
</g>
</g>
<!-- Node2&#45;&gt;Node3 -->
<g id="edge2_Node000002_Node000003" class="edge">
<title>Node2&#45;&gt;Node3</title>
<g id="a_edge2_Node000002_Node000003"><a xlink:title=" ">
<path fill="none" stroke="#63b8ff" d="M669.47,-188.92C659.57,-173.54 638.46,-143.73 613.5,-126.25 587.99,-108.38 555.54,-95.8 528.51,-87.53"/>
<polygon fill="#63b8ff" stroke="#63b8ff" points="529.72,-84.23 519.14,-84.77 527.75,-90.95 529.72,-84.23"/>
</a>
</g>
</g>
<!-- Node5 -->
<g id="Node000005" class="node">
<title>Node5</title>
<g id="a_Node000005"><a xlink:title=" ">
<polygon fill="#e0e0e0" stroke="#999999" points="607.12,-20.75 549.88,-20.75 549.88,0 607.12,0 607.12,-20.75"/>
<text text-anchor="middle" x="578.5" y="-7.25" font-family="Helvetica,sans-Serif" font-size="10.00">memory</text>
</a>
</g>
</g>
<!-- Node2&#45;&gt;Node5 -->
<g id="edge23_Node000002_Node000005" class="edge">
<title>Node2&#45;&gt;Node5</title>
<g id="a_edge23_Node000002_Node000005"><a xlink:title=" ">
<path fill="none" stroke="#63b8ff" d="M751.56,-188.88C857.86,-172.14 1030.73,-132.37 963.5,-56.75 940.85,-31.28 712.95,-17.7 618.83,-13.15"/>
<polygon fill="#63b8ff" stroke="#63b8ff" points="619.18,-9.66 609.03,-12.69 618.85,-16.65 619.18,-9.66"/>
</a>
</g>
</g>
<!-- Node6 -->
<g id="Node000006" class="node">
<title>Node6</title>
<g id="a_Node000006"><a xlink:title=" ">
<polygon fill="#e0e0e0" stroke="#999999" points="392.12,-20.75 352.88,-20.75 352.88,0 392.12,0 392.12,-20.75"/>
<text text-anchor="middle" x="372.5" y="-7.25" font-family="Helvetica,sans-Serif" font-size="10.00">span</text>
</a>
</g>
</g>
<!-- Node2&#45;&gt;Node6 -->
<g id="edge24_Node000002_Node000006" class="edge">
<title>Node2&#45;&gt;Node6</title>
<g id="a_edge24_Node000002_Node000006"><a xlink:title=" ">
<path fill="none" stroke="#63b8ff" d="M599.64,-188.91C495.89,-173.72 318.14,-140.9 279.5,-90.25 270.47,-78.41 271.61,-69.38 279.5,-56.75 293.06,-35.05 320.31,-23.45 341.82,-17.43"/>
<polygon fill="#63b8ff" stroke="#63b8ff" points="342.44,-20.89 351.29,-15.07 340.74,-14.1 342.44,-20.89"/>
</a>
</g>
</g>
<!-- Node2&#45;&gt;Node9 -->
<g id="edge8_Node000002_Node000009" class="edge">
<title>Node2&#45;&gt;Node9</title>
<g id="a_edge8_Node000002_Node000009"><a xlink:title=" ">
<path fill="none" stroke="#63b8ff" d="M657.02,-188.93C638.66,-179.17 610.26,-164.07 589.01,-152.78"/>
<polygon fill="#63b8ff" stroke="#63b8ff" points="590.74,-149.73 580.27,-148.13 587.45,-155.92 590.74,-149.73"/>
</a>
</g>
</g>
<!-- Node12 -->
<g id="Node000012" class="node">
<title>Node12</title>
<g id="a_Node000012"><a xlink:title=" ">
<polygon fill="#e0e0e0" stroke="#999999" points="110.38,-20.75 66.62,-20.75 66.62,0 110.38,0 110.38,-20.75"/>
<text text-anchor="middle" x="88.5" y="-7.25" font-family="Helvetica,sans-Serif" font-size="10.00">string</text>
</a>
</g>
</g>
<!-- Node2&#45;&gt;Node12 -->
<g id="edge25_Node000002_Node000012" class="edge">
<title>Node2&#45;&gt;Node12</title>
<g id="a_edge25_Node000002_Node000012"><a xlink:title=" ">
<path fill="none" stroke="#63b8ff" d="M582.63,-196.05C431.42,-189.43 142.66,-166.85 81.5,-90.25 68.47,-73.93 73.37,-49.2 79.51,-31.79"/>
<polygon fill="#63b8ff" stroke="#63b8ff" points="82.76,-33.09 83.19,-22.5 76.25,-30.51 82.76,-33.09"/>
</a>
</g>
</g>
<!-- Node15 -->
<g id="Node000015" class="node">
<title>Node15</title>
<g id="a_Node000015"><a xlink:title=" ">
<polygon fill="#e0e0e0" stroke="#999999" points="954.62,-83.88 882.38,-83.88 882.38,-63.12 954.62,-63.12 954.62,-83.88"/>
<text text-anchor="middle" x="918.5" y="-70.38" font-family="Helvetica,sans-Serif" font-size="10.00">string_view</text>
</a>
</g>
</g>
<!-- Node2&#45;&gt;Node15 -->
<g id="edge26_Node000002_Node000015" class="edge">
<title>Node2&#45;&gt;Node15</title>
<g id="a_edge26_Node000002_Node000015"><a xlink:title=" ">
<path fill="none" stroke="#63b8ff" d="M694.57,-189C736.89,-167.36 838.89,-115.2 889.3,-89.43"/>
<polygon fill="#63b8ff" stroke="#63b8ff" points="890.86,-92.56 898.17,-84.89 887.68,-86.33 890.86,-92.56"/>
</a>
</g>
</g>
<!-- Node16 -->
<g id="Node000016" class="node">
<title>Node16</title>
<g id="a_Node000016"><a xlink:title=" ">
<polygon fill="#e0e0e0" stroke="#999999" points="708.62,-90.25 606.38,-90.25 606.38,-56.75 708.62,-56.75 708.62,-90.25"/>
<text text-anchor="start" x="614.38" y="-76.75" font-family="Helvetica,sans-Serif" font-size="10.00">tensorflow/lite/c/c</text>
<text text-anchor="middle" x="657.5" y="-64" font-family="Helvetica,sans-Serif" font-size="10.00">_api.h</text>
</a>
</g>
</g>
<!-- Node2&#45;&gt;Node16 -->
<g id="edge21_Node000002_Node000016" class="edge">
<title>Node2&#45;&gt;Node16</title>
<g id="a_edge21_Node000002_Node000016"><a xlink:title=" ">
<path fill="none" stroke="#63b8ff" d="M674.09,-189C671.4,-170.46 665.47,-129.52 661.48,-101.97"/>
<polygon fill="#63b8ff" stroke="#63b8ff" points="664.97,-101.62 660.07,-92.23 658.04,-102.62 664.97,-101.62"/>
</a>
</g>
</g>
<!-- Node17 -->
<g id="Node000017" class="node">
<title>Node17</title>
<g id="a_Node000017"><a xlink:title=" ">
<polygon fill="#e0e0e0" stroke="#999999" points="863.88,-90.25 727.12,-90.25 727.12,-56.75 863.88,-56.75 863.88,-90.25"/>
<text text-anchor="start" x="735.12" y="-76.75" font-family="Helvetica,sans-Serif" font-size="10.00">tensorflow/lite/delegates</text>
<text text-anchor="middle" x="795.5" y="-64" font-family="Helvetica,sans-Serif" font-size="10.00">/gpu/delegate.h</text>
</a>
</g>
</g>
<!-- Node2&#45;&gt;Node17 -->
<g id="edge22_Node000002_Node000017" class="edge">
<title>Node2&#45;&gt;Node17</title>
<g id="a_edge22_Node000002_Node000017"><a xlink:title=" ">
<path fill="none" stroke="#63b8ff" d="M684.92,-189C703.54,-169.71 745.58,-126.18 772.13,-98.7"/>
<polygon fill="#63b8ff" stroke="#63b8ff" points="774.35,-101.44 778.78,-91.82 769.31,-96.58 774.35,-101.44"/>
</a>
</g>
</g>
<!-- Node4 -->
<g id="Node000004" class="node">
<title>Node4</title>
<g id="a_Node000004"><a xlink:title=" ">
<polygon fill="#e0e0e0" stroke="#999999" points="528,-20.75 479,-20.75 479,0 528,0 528,-20.75"/>
<text text-anchor="middle" x="503.5" y="-7.25" font-family="Helvetica,sans-Serif" font-size="10.00">cstdint</text>
</a>
</g>
</g>
<!-- Node3&#45;&gt;Node4 -->
<g id="edge3_Node000003_Node000004" class="edge">
<title>Node3&#45;&gt;Node4</title>
<g id="a_edge3_Node000003_Node000004"><a xlink:title=" ">
<path fill="none" stroke="#63b8ff" d="M480,-62.68C483.86,-54.25 489.54,-41.84 494.35,-31.34"/>
<polygon fill="#63b8ff" stroke="#63b8ff" points="497.49,-32.9 498.47,-22.35 491.13,-29.98 497.49,-32.9"/>
</a>
</g>
</g>
<!-- Node3&#45;&gt;Node5 -->
<g id="edge4_Node000003_Node000005" class="edge">
<title>Node3&#45;&gt;Node5</title>
<g id="a_edge4_Node000003_Node000005"><a xlink:title=" ">
<path fill="none" stroke="#63b8ff" d="M492.05,-62.68C508.27,-53.05 533.24,-38.23 552.18,-26.99"/>
<polygon fill="#63b8ff" stroke="#63b8ff" points="553.88,-30.06 560.69,-21.94 550.3,-24.04 553.88,-30.06"/>
</a>
</g>
</g>
<!-- Node3&#45;&gt;Node6 -->
<g id="edge5_Node000003_Node000006" class="edge">
<title>Node3&#45;&gt;Node6</title>
<g id="a_edge5_Node000003_Node000006"><a xlink:title=" ">
<path fill="none" stroke="#63b8ff" d="M458.95,-62.68C442.73,-53.05 417.76,-38.23 398.82,-26.99"/>
<polygon fill="#63b8ff" stroke="#63b8ff" points="400.7,-24.04 390.31,-21.94 397.12,-30.06 400.7,-24.04"/>
</a>
</g>
</g>
<!-- Node7 -->
<g id="Node000007" class="node">
<title>Node7</title>
<g id="a_Node000007"><a xlink:title=" ">
<polygon fill="#e0e0e0" stroke="#999999" points="311.75,-20.75 261.25,-20.75 261.25,0 311.75,0 311.75,-20.75"/>
<text text-anchor="middle" x="286.5" y="-7.25" font-family="Helvetica,sans-Serif" font-size="10.00">variant</text>
</a>
</g>
</g>
<!-- Node3&#45;&gt;Node7 -->
<g id="edge6_Node000003_Node000007" class="edge">
<title>Node3&#45;&gt;Node7</title>
<g id="a_edge6_Node000003_Node000007"><a xlink:title=" ">
<path fill="none" stroke="#63b8ff" d="M445.13,-62.68C411.9,-51.93 358.62,-34.7 323.1,-23.21"/>
<polygon fill="#63b8ff" stroke="#63b8ff" points="324.27,-19.91 313.68,-20.16 322.11,-26.57 324.27,-19.91"/>
</a>
</g>
</g>
<!-- Node8 -->
<g id="Node000008" class="node">
<title>Node8</title>
<g id="a_Node000008"><a xlink:title=" ">
<polygon fill="#e0e0e0" stroke="#999999" points="460.88,-20.75 414.12,-20.75 414.12,0 460.88,0 460.88,-20.75"/>
<text text-anchor="middle" x="437.5" y="-7.25" font-family="Helvetica,sans-Serif" font-size="10.00">vector</text>
</a>
</g>
</g>
<!-- Node3&#45;&gt;Node8 -->
<g id="edge7_Node000003_Node000008" class="edge">
<title>Node3&#45;&gt;Node8</title>
<g id="a_edge7_Node000003_Node000008"><a xlink:title=" ">
<path fill="none" stroke="#63b8ff" d="M469.39,-62.68C464.04,-54.07 456.11,-41.31 449.5,-30.67"/>
<polygon fill="#63b8ff" stroke="#63b8ff" points="452.52,-28.9 444.26,-22.26 446.57,-32.6 452.52,-28.9"/>
</a>
</g>
</g>
<!-- Node9&#45;&gt;Node3 -->
<g id="edge9_Node000009_Node000003" class="edge">
<title>Node9&#45;&gt;Node3</title>
<g id="a_edge9_Node000009_Node000003"><a xlink:title=" ">
<path fill="none" stroke="#63b8ff" d="M546.84,-125.8C533.71,-116.36 513.61,-101.91 498.09,-90.75"/>
<polygon fill="#63b8ff" stroke="#63b8ff" points="500.51,-88.18 490.35,-85.18 496.43,-93.86 500.51,-88.18"/>
</a>
</g>
</g>
<!-- Node9&#45;&gt;Node5 -->
<g id="edge15_Node000009_Node000005" class="edge">
<title>Node9&#45;&gt;Node5</title>
<g id="a_edge15_Node000009_Node000005"><a xlink:title=" ">
<path fill="none" stroke="#63b8ff" d="M561.91,-125.88C564.82,-105.82 571.52,-59.57 575.46,-32.38"/>
<polygon fill="#63b8ff" stroke="#63b8ff" points="578.91,-32.98 576.88,-22.58 571.98,-31.97 578.91,-32.98"/>
</a>
</g>
</g>
<!-- Node9&#45;&gt;Node6 -->
<g id="edge17_Node000009_Node000006" class="edge">
<title>Node9&#45;&gt;Node6</title>
<g id="a_edge17_Node000009_Node000006"><a xlink:title=" ">
<path fill="none" stroke="#63b8ff" d="M516.57,-135.69C478.32,-133.31 424.04,-123.65 391.5,-90.25 376.63,-74.99 372.7,-50.22 371.97,-32.51"/>
<polygon fill="#63b8ff" stroke="#63b8ff" points="375.47,-32.59 371.91,-22.61 368.47,-32.64 375.47,-32.59"/>
</a>
</g>
</g>
<!-- Node10 -->
<g id="Node000010" class="node">
<title>Node10</title>
<g id="a_Node000010"><a xlink:href="Errors_8hpp.html" target="_top" xlink:title=" ">
<polygon fill="white" stroke="#666666" points="232.88,-83.88 90.12,-83.88 90.12,-63.12 232.88,-63.12 232.88,-83.88"/>
<text text-anchor="middle" x="161.5" y="-70.38" font-family="Helvetica,sans-Serif" font-size="10.00">EyeAICore/utils/Errors.hpp</text>
</a>
</g>
</g>
<!-- Node9&#45;&gt;Node10 -->
<g id="edge10_Node000009_Node000010" class="edge">
<title>Node9&#45;&gt;Node10</title>
<g id="a_edge10_Node000009_Node000010"><a xlink:title=" ">
<path fill="none" stroke="#63b8ff" d="M516.66,-128.91C449.37,-118.6 319.78,-98.75 237.13,-86.09"/>
<polygon fill="#63b8ff" stroke="#63b8ff" points="237.7,-82.63 227.29,-84.58 236.64,-89.55 237.7,-82.63"/>
</a>
</g>
</g>
<!-- Node14 -->
<g id="Node000014" class="node">
<title>Node14</title>
<g id="a_Node000014"><a xlink:title=" ">
<polygon fill="#e0e0e0" stroke="#999999" points="344.38,-83.88 288.62,-83.88 288.62,-63.12 344.38,-63.12 344.38,-83.88"/>
<text text-anchor="middle" x="316.5" y="-70.38" font-family="Helvetica,sans-Serif" font-size="10.00">optional</text>
</a>
</g>
</g>
<!-- Node9&#45;&gt;Node14 -->
<g id="edge16_Node000009_Node000014" class="edge">
<title>Node9&#45;&gt;Node14</title>
<g id="a_edge16_Node000009_Node000014"><a xlink:title=" ">
<path fill="none" stroke="#63b8ff" d="M516.71,-127.6C475.49,-119.62 412.23,-106.28 358.5,-90.25 356.23,-89.57 353.9,-88.83 351.56,-88.05"/>
<polygon fill="#63b8ff" stroke="#63b8ff" points="352.76,-84.77 342.16,-84.74 350.43,-91.37 352.76,-84.77"/>
</a>
</g>
</g>
<!-- Node9&#45;&gt;Node15 -->
<g id="edge18_Node000009_Node000015" class="edge">
<title>Node9&#45;&gt;Node15</title>
<g id="a_edge18_Node000009_Node000015"><a xlink:title=" ">
<path fill="none" stroke="#63b8ff" d="M604.39,-131.83C665.23,-125.99 778.33,-113.01 872.5,-90.25 875.47,-89.53 878.53,-88.7 881.58,-87.8"/>
<polygon fill="#63b8ff" stroke="#63b8ff" points="882.56,-91.16 891.03,-84.8 880.44,-84.49 882.56,-91.16"/>
</a>
</g>
</g>
<!-- Node9&#45;&gt;Node16 -->
<g id="edge19_Node000009_Node000016" class="edge">
<title>Node9&#45;&gt;Node16</title>
<g id="a_edge19_Node000009_Node000016"><a xlink:title=" ">
<path fill="none" stroke="#63b8ff" d="M576.08,-125.8C588.5,-117.98 606.37,-106.72 622.21,-96.74"/>
<polygon fill="#63b8ff" stroke="#63b8ff" points="623.86,-99.83 630.46,-91.54 620.13,-93.91 623.86,-99.83"/>
</a>
</g>
</g>
<!-- Node9&#45;&gt;Node17 -->
<g id="edge20_Node000009_Node000017" class="edge">
<title>Node9&#45;&gt;Node17</title>
<g id="a_edge20_Node000009_Node000017"><a xlink:title=" ">
<path fill="none" stroke="#63b8ff" d="M598.26,-125.8C631.53,-117.15 680.97,-104.29 722.02,-93.61"/>
<polygon fill="#63b8ff" stroke="#63b8ff" points="722.82,-97.02 731.62,-91.12 721.06,-90.25 722.82,-97.02"/>
</a>
</g>
</g>
<!-- Node10&#45;&gt;Node7 -->
<g id="edge14_Node000010_Node000007" class="edge">
<title>Node10&#45;&gt;Node7</title>
<g id="a_edge14_Node000010_Node000007"><a xlink:title=" ">
<path fill="none" stroke="#63b8ff" d="M181.58,-62.68C201.72,-52.83 232.98,-37.55 256.15,-26.22"/>
<polygon fill="#63b8ff" stroke="#63b8ff" points="257.66,-29.37 265.11,-21.84 254.59,-23.09 257.66,-29.37"/>
</a>
</g>
</g>
<!-- Node10&#45;&gt;Node11 -->
<g id="edge11_Node000010_Node000011" class="edge">
<title>Node10&#45;&gt;Node11</title>
<g id="a_edge11_Node000010_Node000011"><a xlink:title=" ">
<path fill="none" stroke="#63b8ff" d="M139.49,-62.68C117.12,-52.7 82.22,-37.13 56.74,-25.76"/>
<polygon fill="#63b8ff" stroke="#63b8ff" points="58.4,-22.67 47.84,-21.79 55.55,-29.06 58.4,-22.67"/>
</a>
</g>
</g>
<!-- Node10&#45;&gt;Node12 -->
<g id="edge12_Node000010_Node000012" class="edge">
<title>Node10&#45;&gt;Node12</title>
<g id="a_edge12_Node000010_Node000012"><a xlink:title=" ">
<path fill="none" stroke="#63b8ff" d="M149.77,-62.68C138.64,-53.36 121.68,-39.16 108.43,-28.06"/>
<polygon fill="#63b8ff" stroke="#63b8ff" points="111.03,-25.68 101.12,-21.94 106.54,-31.05 111.03,-25.68"/>
</a>
</g>
</g>
<!-- Node13 -->
<g id="Node000013" class="node">
<title>Node13</title>
<g id="a_Node000013"><a xlink:title=" ">
<polygon fill="#e0e0e0" stroke="#999999" points="220.38,-20.75 128.62,-20.75 128.62,0 220.38,0 220.38,-20.75"/>
<text text-anchor="middle" x="174.5" y="-7.25" font-family="Helvetica,sans-Serif" font-size="10.00">tl/expected.hpp</text>
</a>
</g>
</g>
<!-- Node10&#45;&gt;Node13 -->
<g id="edge13_Node000010_Node000013" class="edge">
<title>Node10&#45;&gt;Node13</title>
<g id="a_edge13_Node000010_Node000013"><a xlink:title=" ">
<path fill="none" stroke="#63b8ff" d="M163.59,-62.68C165.34,-54.43 167.91,-42.37 170.11,-32.01"/>
<polygon fill="#63b8ff" stroke="#63b8ff" points="173.49,-32.96 172.14,-22.45 166.64,-31.5 173.49,-32.96"/>
</a>
</g>
</g>
<!-- Node18&#45;&gt;Node15 -->
<g id="edge31_Node000018_Node000015" class="edge">
<title>Node18&#45;&gt;Node15</title>
<g id="a_edge31_Node000018_Node000015"><a xlink:title=" ">
<path fill="none" stroke="#63b8ff" d="M965.5,-189C957.19,-168.77 937.94,-121.85 926.82,-94.77"/>
<polygon fill="#63b8ff" stroke="#63b8ff" points="930.09,-93.53 923.06,-85.6 923.62,-96.18 930.09,-93.53"/>
</a>
</g>
</g>
<!-- Node19 -->
<g id="Node000019" class="node">
<title>Node19</title>
<g id="a_Node000019"><a xlink:title=" ">
<polygon fill="#e0e0e0" stroke="#999999" points="1047,-147 998,-147 998,-126.25 1047,-126.25 1047,-147"/>
<text text-anchor="middle" x="1022.5" y="-133.5" font-family="Helvetica,sans-Serif" font-size="10.00">chrono</text>
</a>
</g>
</g>
<!-- Node18&#45;&gt;Node19 -->
<g id="edge29_Node000018_Node000019" class="edge">
<title>Node18&#45;&gt;Node19</title>
<g id="a_edge29_Node000018_Node000019"><a xlink:title=" ">
<path fill="none" stroke="#63b8ff" d="M978.02,-188.93C985.79,-179.97 997.47,-166.49 1006.91,-155.6"/>
<polygon fill="#63b8ff" stroke="#63b8ff" points="1009.28,-158.21 1013.19,-148.36 1003.99,-153.63 1009.28,-158.21"/>
</a>
</g>
</g>
<!-- Node20 -->
<g id="Node000020" class="node">
<title>Node20</title>
<g id="a_Node000020"><a xlink:title=" ">
<polygon fill="#e0e0e0" stroke="#999999" points="1171.88,-147 1065.12,-147 1065.12,-126.25 1171.88,-126.25 1171.88,-147"/>
<text text-anchor="middle" x="1118.5" y="-133.5" font-family="Helvetica,sans-Serif" font-size="10.00">concurrentqueue.h</text>
</a>
</g>
</g>
<!-- Node18&#45;&gt;Node20 -->
<g id="edge30_Node000018_Node000020" class="edge">
<title>Node18&#45;&gt;Node20</title>
<g id="a_edge30_Node000018_Node000020"><a xlink:title=" ">
<path fill="none" stroke="#63b8ff" d="M993.44,-188.93C1017.99,-178.86 1056.4,-163.1 1084.18,-151.71"/>
<polygon fill="#63b8ff" stroke="#63b8ff" points="1085.3,-155.03 1093.22,-148 1082.64,-148.55 1085.3,-155.03"/>
</a>
</g>
</g>
</g>
</svg>

<g id="navigator" transform="translate(0 0)" fill="#404254">
  <rect fill="#f2f5e9" fill-opacity="0.5" stroke="#606060" stroke-width=".5" x="0" y="0" width="60" height="60"/>
  <use id="zoomplus" xlink:href="#zoomPlus" x="17" y="9" onmousedown="handleZoom(evt,'in')"/>
  <use id="zoomminus" xlink:href="#zoomMin" x="42" y="9" onmousedown="handleZoom(evt,'out')"/>
  <use id="reset" xlink:href="#resetDef" x="30" y="36" onmousedown="handleReset()"/>
   <use id="arrowup" xlink:href="#arrowUp" x="0" y="0" onmousedown="handlePan(0,-1)"/>
  <use id="arrowright" xlink:href="#arrowRight" x="0" y="0" onmousedown="handlePan(1,0)"/>
  <use id="arrowdown" xlink:href="#arrowDown" x="0" y="0" onmousedown="handlePan(0,1)"/>
  <use id="arrowleft" xlink:href="#arrowLeft" x="0" y="0" onmousedown="handlePan(-1,0)"/>
</g>
<svg viewBox="0 0 15 15" width="100%" height="30px" preserveAspectRatio="xMaxYMin meet">
 <g id="arrow_out" transform="scale(0.3 0.3)">
  <a xlink:href="TfLiteRuntime_8cpp__incl_org.svg" target="_base">
   <rect id="button" ry="5" rx="5" y="6" x="6" height="38" width="38"
        fill="#f2f5e9" fill-opacity="0.5" stroke="#606060" stroke-width="1.0"/>
   <path id="arrow"
     d="M 11.500037,31.436501 C 11.940474,20.09759 22.043105,11.32322 32.158766,21.979434 L 37.068811,17.246167 C 37.068811,17.246167 37.088388,32 37.088388,32 L 22.160133,31.978069 C 22.160133,31.978069 26.997745,27.140456 26.997745,27.140456 C 18.528582,18.264221 13.291696,25.230495 11.500037,31.436501 z"
     style="fill:#404040;"/>
  </a>
 </g>
</svg>

<style type='text/css'>
<![CDATA[
[data-mouse-over-selected='false'] { opacity: 0.7; }
[data-mouse-over-selected='true']  { opacity: 1.0; }
]]>
</style>
<script type="application/ecmascript"><![CDATA[
document.addEventListener('DOMContentLoaded', (event) => {
  highlightEdges();
  highlightAdjacentNodes();
});
]]></script>
</svg>
