<?xml version="1.0" encoding="UTF-8" standalone="no"?>
<!DOCTYPE svg PUBLIC "-//W3C//DTD SVG 1.1//EN"
 "http://www.w3.org/Graphics/SVG/1.1/DTD/svg11.dtd">
<!-- Generated by graphviz version 12.2.1 (20241206.2353)
 -->
<!-- Title: include/EyeAICore/tflite/TfLiteRuntime.hpp Pages: 1 -->
<svg width="860pt" height="220pt"
 viewBox="0.00 0.00 860.46 220.00" xmlns="http://www.w3.org/2000/svg" xmlns:xlink="http://www.w3.org/1999/xlink">
<g id="graph0" class="graph" transform="scale(1 1) rotate(0) translate(4 216)">
<title>include/EyeAICore/tflite/TfLiteRuntime.hpp</title>
<!-- Node1 -->
<g id="Node000001" class="node">
<title>Node1</title>
<g id="a_Node000001"><a xlink:title=" ">
<polygon fill="#999999" stroke="#666666" points="542.25,-212 422.75,-212 422.75,-180 542.25,-180 542.25,-212"/>
<text text-anchor="start" x="430.75" y="-198.5" font-family="Helvetica,sans-Serif" font-size="10.00">include/EyeAICore/tflite</text>
<text text-anchor="middle" x="482.5" y="-186.5" font-family="Helvetica,sans-Serif" font-size="10.00">/TfLiteRuntime.hpp</text>
</a>
</g>
</g>
<!-- Node2 -->
<g id="Node000002" class="node">
<title>Node2</title>
<g id="a_Node000002"><a xlink:href="Operators_8hpp.html" target="_top" xlink:title=" ">
<polygon fill="white" stroke="#666666" points="225.75,-82 97.25,-82 97.25,-62 225.75,-62 225.75,-82"/>
<text text-anchor="middle" x="161.5" y="-68.5" font-family="Helvetica,sans-Serif" font-size="10.00">EyeAICore/Operators.hpp</text>
</a>
</g>
</g>
<!-- Node1&#45;&gt;Node2 -->
<g id="edge1_Node000001_Node000002" class="edge">
<title>Node1&#45;&gt;Node2</title>
<g id="a_edge1_Node000001_Node000002"><a xlink:title=" ">
<path fill="none" stroke="#63b8ff" d="M422.39,-191.23C371.34,-186.01 297.36,-173.58 239.5,-144 213.88,-130.9 190.32,-107.13 175.95,-90.72"/>
<polygon fill="#63b8ff" stroke="#63b8ff" points="178.71,-88.57 169.58,-83.2 173.37,-93.1 178.71,-88.57"/>
</a>
</g>
</g>
<!-- Node5 -->
<g id="Node000005" class="node">
<title>Node5</title>
<g id="a_Node000005"><a xlink:title=" ">
<polygon fill="#e0e0e0" stroke="#999999" points="286.12,-20 234.88,-20 234.88,0 286.12,0 286.12,-20"/>
<text text-anchor="middle" x="260.5" y="-6.5" font-family="Helvetica,sans-Serif" font-size="10.00">memory</text>
</a>
</g>
</g>
<!-- Node1&#45;&gt;Node5 -->
<g id="edge24_Node000001_Node000005" class="edge">
<title>Node1&#45;&gt;Node5</title>
<g id="a_edge24_Node000001_Node000005"><a xlink:title=" ">
<path fill="none" stroke="#63b8ff" d="M435.62,-179.57C392.87,-163.23 330.86,-133.43 293.5,-88 279.67,-71.19 270.73,-47.71 265.69,-31.11"/>
<polygon fill="#63b8ff" stroke="#63b8ff" points="269.18,-30.58 263.11,-21.89 262.44,-32.47 269.18,-30.58"/>
</a>
</g>
</g>
<!-- Node7 -->
<g id="Node000007" class="node">
<title>Node7</title>
<g id="a_Node000007"><a xlink:title=" ">
<polygon fill="#e0e0e0" stroke="#999999" points="37,-20 0,-20 0,0 37,0 37,-20"/>
<text text-anchor="middle" x="18.5" y="-6.5" font-family="Helvetica,sans-Serif" font-size="10.00">span</text>
</a>
</g>
</g>
<!-- Node1&#45;&gt;Node7 -->
<g id="edge25_Node000001_Node000007" class="edge">
<title>Node1&#45;&gt;Node7</title>
<g id="a_edge25_Node000001_Node000007"><a xlink:title=" ">
<path fill="none" stroke="#63b8ff" d="M422.46,-187.8C316.04,-173.85 100.51,-139.88 47.5,-88 32.13,-72.96 24.81,-48.98 21.38,-31.78"/>
<polygon fill="#63b8ff" stroke="#63b8ff" points="24.84,-31.22 19.74,-21.93 17.94,-32.37 24.84,-31.22"/>
</a>
</g>
</g>
<!-- Node8 -->
<g id="Node000008" class="node">
<title>Node8</title>
<g id="a_Node000008"><a xlink:title=" ">
<polygon fill="#e0e0e0" stroke="#999999" points="474.5,-20 434.5,-20 434.5,0 474.5,0 474.5,-20"/>
<text text-anchor="middle" x="454.5" y="-6.5" font-family="Helvetica,sans-Serif" font-size="10.00">string</text>
</a>
</g>
</g>
<!-- Node1&#45;&gt;Node8 -->
<g id="edge26_Node000001_Node000008" class="edge">
<title>Node1&#45;&gt;Node8</title>
<g id="a_edge26_Node000001_Node000008"><a xlink:title=" ">
<path fill="none" stroke="#63b8ff" d="M542.4,-191.67C664.08,-182.83 921.56,-152.45 834.5,-56 784.12,-0.18 578.22,-32.75 486.13,-19.82"/>
<polygon fill="#63b8ff" stroke="#63b8ff" points="486.9,-16.4 476.46,-18.16 485.72,-23.3 486.9,-16.4"/>
</a>
</g>
</g>
<!-- Node10 -->
<g id="Node000010" class="node">
<title>Node10</title>
<g id="a_Node000010"><a xlink:href="TfLiteUtils_8hpp.html" target="_top" xlink:title=" ">
<polygon fill="white" stroke="#666666" points="464.38,-144 384.62,-144 384.62,-124 464.38,-124 464.38,-144"/>
<text text-anchor="middle" x="424.5" y="-130.5" font-family="Helvetica,sans-Serif" font-size="10.00">TfLiteUtils.hpp</text>
</a>
</g>
</g>
<!-- Node1&#45;&gt;Node10 -->
<g id="edge9_Node000001_Node000010" class="edge">
<title>Node1&#45;&gt;Node10</title>
<g id="a_edge9_Node000001_Node000010"><a xlink:title=" ">
<path fill="none" stroke="#63b8ff" d="M467.56,-179.55C459.59,-171.3 449.75,-161.12 441.49,-152.57"/>
<polygon fill="#63b8ff" stroke="#63b8ff" points="444.11,-150.25 434.65,-145.5 439.08,-155.12 444.11,-150.25"/>
</a>
</g>
</g>
<!-- Node15 -->
<g id="Node000015" class="node">
<title>Node15</title>
<g id="a_Node000015"><a xlink:title=" ">
<polygon fill="#e0e0e0" stroke="#999999" points="574.25,-82 508.75,-82 508.75,-62 574.25,-62 574.25,-82"/>
<text text-anchor="middle" x="541.5" y="-68.5" font-family="Helvetica,sans-Serif" font-size="10.00">string_view</text>
</a>
</g>
</g>
<!-- Node1&#45;&gt;Node15 -->
<g id="edge27_Node000001_Node000015" class="edge">
<title>Node1&#45;&gt;Node15</title>
<g id="a_edge27_Node000001_Node000015"><a xlink:title=" ">
<path fill="none" stroke="#63b8ff" d="M489.97,-179.55C500.68,-157.41 520.38,-116.67 532.08,-92.49"/>
<polygon fill="#63b8ff" stroke="#63b8ff" points="535.1,-94.27 536.3,-83.75 528.8,-91.22 535.1,-94.27"/>
</a>
</g>
</g>
<!-- Node16 -->
<g id="Node000016" class="node">
<title>Node16</title>
<g id="a_Node000016"><a xlink:title=" ">
<polygon fill="#e0e0e0" stroke="#999999" points="685.12,-88 591.88,-88 591.88,-56 685.12,-56 685.12,-88"/>
<text text-anchor="start" x="599.88" y="-74.5" font-family="Helvetica,sans-Serif" font-size="10.00">tensorflow/lite/c/c</text>
<text text-anchor="middle" x="638.5" y="-62.5" font-family="Helvetica,sans-Serif" font-size="10.00">_api.h</text>
</a>
</g>
</g>
<!-- Node1&#45;&gt;Node16 -->
<g id="edge22_Node000001_Node000016" class="edge">
<title>Node1&#45;&gt;Node16</title>
<g id="a_edge22_Node000001_Node000016"><a xlink:title=" ">
<path fill="none" stroke="#63b8ff" d="M502.26,-179.55C529.57,-158.19 579.01,-119.52 610.23,-95.11"/>
<polygon fill="#63b8ff" stroke="#63b8ff" points="611.99,-98.18 617.71,-89.26 607.68,-92.66 611.99,-98.18"/>
</a>
</g>
</g>
<!-- Node17 -->
<g id="Node000017" class="node">
<title>Node17</title>
<g id="a_Node000017"><a xlink:title=" ">
<polygon fill="#e0e0e0" stroke="#999999" points="825.38,-88 703.62,-88 703.62,-56 825.38,-56 825.38,-88"/>
<text text-anchor="start" x="711.62" y="-74.5" font-family="Helvetica,sans-Serif" font-size="10.00">tensorflow/lite/delegates</text>
<text text-anchor="middle" x="764.5" y="-62.5" font-family="Helvetica,sans-Serif" font-size="10.00">/gpu/delegate.h</text>
</a>
</g>
</g>
<!-- Node1&#45;&gt;Node17 -->
<g id="edge23_Node000001_Node000017" class="edge">
<title>Node1&#45;&gt;Node17</title>
<g id="a_edge23_Node000001_Node000017"><a xlink:title=" ">
<path fill="none" stroke="#63b8ff" d="M518.22,-179.55C569.18,-157.5 662.76,-117.01 718.74,-92.8"/>
<polygon fill="#63b8ff" stroke="#63b8ff" points="719.9,-96.11 727.69,-88.93 717.12,-89.69 719.9,-96.11"/>
</a>
</g>
</g>
<!-- Node3 -->
<g id="Node000003" class="node">
<title>Node3</title>
<g id="a_Node000003"><a xlink:title=" ">
<polygon fill="#e0e0e0" stroke="#999999" points="153.38,-20 115.62,-20 115.62,0 153.38,0 153.38,-20"/>
<text text-anchor="middle" x="134.5" y="-6.5" font-family="Helvetica,sans-Serif" font-size="10.00">array</text>
</a>
</g>
</g>
<!-- Node2&#45;&gt;Node3 -->
<g id="edge2_Node000002_Node000003" class="edge">
<title>Node2&#45;&gt;Node3</title>
<g id="a_edge2_Node000002_Node000003"><a xlink:title=" ">
<path fill="none" stroke="#63b8ff" d="M157.28,-61.62C153.53,-53.3 147.94,-40.86 143.23,-30.4"/>
<polygon fill="#63b8ff" stroke="#63b8ff" points="146.52,-29.18 139.22,-21.49 140.13,-32.05 146.52,-29.18"/>
</a>
</g>
</g>
<!-- Node4 -->
<g id="Node000004" class="node">
<title>Node4</title>
<g id="a_Node000004"><a xlink:title=" ">
<polygon fill="#e0e0e0" stroke="#999999" points="217.12,-20 171.88,-20 171.88,0 217.12,0 217.12,-20"/>
<text text-anchor="middle" x="194.5" y="-6.5" font-family="Helvetica,sans-Serif" font-size="10.00">cstdint</text>
</a>
</g>
</g>
<!-- Node2&#45;&gt;Node4 -->
<g id="edge3_Node000002_Node000004" class="edge">
<title>Node2&#45;&gt;Node4</title>
<g id="a_edge3_Node000002_Node000004"><a xlink:title=" ">
<path fill="none" stroke="#63b8ff" d="M166.66,-61.62C171.28,-53.21 178.22,-40.6 184.01,-30.07"/>
<polygon fill="#63b8ff" stroke="#63b8ff" points="187.01,-31.89 188.76,-21.44 180.87,-28.51 187.01,-31.89"/>
</a>
</g>
</g>
<!-- Node2&#45;&gt;Node5 -->
<g id="edge4_Node000002_Node000005" class="edge">
<title>Node2&#45;&gt;Node5</title>
<g id="a_edge4_Node000002_Node000005"><a xlink:title=" ">
<path fill="none" stroke="#63b8ff" d="M176.97,-61.62C192.59,-52.16 216.97,-37.38 235.37,-26.23"/>
<polygon fill="#63b8ff" stroke="#63b8ff" points="237.11,-29.27 243.85,-21.09 233.48,-23.28 237.11,-29.27"/>
</a>
</g>
</g>
<!-- Node6 -->
<g id="Node000006" class="node">
<title>Node6</title>
<g id="a_Node000006"><a xlink:title=" ">
<polygon fill="#e0e0e0" stroke="#999999" points="354.38,-20 304.62,-20 304.62,0 354.38,0 354.38,-20"/>
<text text-anchor="middle" x="329.5" y="-6.5" font-family="Helvetica,sans-Serif" font-size="10.00">optional</text>
</a>
</g>
</g>
<!-- Node2&#45;&gt;Node6 -->
<g id="edge5_Node000002_Node000006" class="edge">
<title>Node2&#45;&gt;Node6</title>
<g id="a_edge5_Node000002_Node000006"><a xlink:title=" ">
<path fill="none" stroke="#63b8ff" d="M187.75,-61.62C216.23,-51.45 261.88,-35.15 293.65,-23.8"/>
<polygon fill="#63b8ff" stroke="#63b8ff" points="294.59,-27.18 302.83,-20.52 292.24,-20.59 294.59,-27.18"/>
</a>
</g>
</g>
<!-- Node2&#45;&gt;Node7 -->
<g id="edge6_Node000002_Node000007" class="edge">
<title>Node2&#45;&gt;Node7</title>
<g id="a_edge6_Node000002_Node000007"><a xlink:title=" ">
<path fill="none" stroke="#63b8ff" d="M139.16,-61.62C114.58,-51.31 74.98,-34.7 47.9,-23.33"/>
<polygon fill="#63b8ff" stroke="#63b8ff" points="49.46,-20.19 38.88,-19.55 46.75,-26.65 49.46,-20.19"/>
</a>
</g>
</g>
<!-- Node2&#45;&gt;Node8 -->
<g id="edge7_Node000002_Node000008" class="edge">
<title>Node2&#45;&gt;Node8</title>
<g id="a_edge7_Node000002_Node000008"><a xlink:title=" ">
<path fill="none" stroke="#63b8ff" d="M220.37,-61.54C271.62,-52.87 348.08,-38.91 423.22,-20.35"/>
<polygon fill="#63b8ff" stroke="#63b8ff" points="423.98,-23.77 432.83,-17.95 422.28,-16.98 423.98,-23.77"/>
</a>
</g>
</g>
<!-- Node9 -->
<g id="Node000009" class="node">
<title>Node9</title>
<g id="a_Node000009"><a xlink:title=" ">
<polygon fill="#e0e0e0" stroke="#999999" points="98,-20 55,-20 55,0 98,0 98,-20"/>
<text text-anchor="middle" x="76.5" y="-6.5" font-family="Helvetica,sans-Serif" font-size="10.00">vector</text>
</a>
</g>
</g>
<!-- Node2&#45;&gt;Node9 -->
<g id="edge8_Node000002_Node000009" class="edge">
<title>Node2&#45;&gt;Node9</title>
<g id="a_edge8_Node000002_Node000009"><a xlink:title=" ">
<path fill="none" stroke="#63b8ff" d="M148.22,-61.62C134.99,-52.29 114.46,-37.79 98.74,-26.7"/>
<polygon fill="#63b8ff" stroke="#63b8ff" points="101.11,-24.09 90.92,-21.18 97.08,-29.81 101.11,-24.09"/>
</a>
</g>
</g>
<!-- Node10&#45;&gt;Node2 -->
<g id="edge10_Node000010_Node000002" class="edge">
<title>Node10&#45;&gt;Node2</title>
<g id="a_edge10_Node000010_Node000002"><a xlink:title=" ">
<path fill="none" stroke="#63b8ff" d="M384.27,-123.82C338.65,-113.41 264.12,-96.41 213.97,-84.97"/>
<polygon fill="#63b8ff" stroke="#63b8ff" points="215.03,-81.62 204.5,-82.81 213.48,-88.45 215.03,-81.62"/>
</a>
</g>
</g>
<!-- Node10&#45;&gt;Node5 -->
<g id="edge16_Node000010_Node000005" class="edge">
<title>Node10&#45;&gt;Node5</title>
<g id="a_edge16_Node000010_Node000005"><a xlink:title=" ">
<path fill="none" stroke="#63b8ff" d="M398.27,-123.63C378.53,-115.85 351.4,-103.55 330.5,-88 307.84,-71.14 286.76,-46.16 273.77,-29.26"/>
<polygon fill="#63b8ff" stroke="#63b8ff" points="276.81,-27.49 268.02,-21.58 271.21,-31.68 276.81,-27.49"/>
</a>
</g>
</g>
<!-- Node10&#45;&gt;Node6 -->
<g id="edge17_Node000010_Node000006" class="edge">
<title>Node10&#45;&gt;Node6</title>
<g id="a_edge17_Node000010_Node000006"><a xlink:title=" ">
<path fill="none" stroke="#63b8ff" d="M398.26,-123.64C381.61,-116.39 360.94,-104.74 348.5,-88 336.2,-71.44 331.79,-47.89 330.24,-31.21"/>
<polygon fill="#63b8ff" stroke="#63b8ff" points="333.76,-31.29 329.64,-21.53 326.77,-31.72 333.76,-31.29"/>
</a>
</g>
</g>
<!-- Node10&#45;&gt;Node7 -->
<g id="edge18_Node000010_Node000007" class="edge">
<title>Node10&#45;&gt;Node7</title>
<g id="a_edge18_Node000010_Node000007"><a xlink:title=" ">
<path fill="none" stroke="#63b8ff" d="M384.42,-131.06C306.81,-126.75 139.19,-114.59 88.5,-88 62.96,-74.6 42.05,-47.96 29.93,-29.81"/>
<polygon fill="#63b8ff" stroke="#63b8ff" points="32.98,-28.09 24.65,-21.55 27.08,-31.86 32.98,-28.09"/>
</a>
</g>
</g>
<!-- Node11 -->
<g id="Node000011" class="node">
<title>Node11</title>
<g id="a_Node000011"><a xlink:href="Errors_8hpp.html" target="_top" xlink:title=" ">
<polygon fill="white" stroke="#666666" points="491,-82 358,-82 358,-62 491,-62 491,-82"/>
<text text-anchor="middle" x="424.5" y="-68.5" font-family="Helvetica,sans-Serif" font-size="10.00">EyeAICore/utils/Errors.hpp</text>
</a>
</g>
</g>
<!-- Node10&#45;&gt;Node11 -->
<g id="edge11_Node000010_Node000011" class="edge">
<title>Node10&#45;&gt;Node11</title>
<g id="a_edge11_Node000010_Node000011"><a xlink:title=" ">
<path fill="none" stroke="#63b8ff" d="M424.5,-123.62C424.5,-115.56 424.5,-103.65 424.5,-93.41"/>
<polygon fill="#63b8ff" stroke="#63b8ff" points="428,-93.63 424.5,-83.63 421,-93.63 428,-93.63"/>
</a>
</g>
</g>
<!-- Node10&#45;&gt;Node15 -->
<g id="edge19_Node000010_Node000015" class="edge">
<title>Node10&#45;&gt;Node15</title>
<g id="a_edge19_Node000010_Node000015"><a xlink:title=" ">
<path fill="none" stroke="#63b8ff" d="M442.78,-123.62C461.67,-113.94 491.4,-98.69 513.31,-87.46"/>
<polygon fill="#63b8ff" stroke="#63b8ff" points="514.7,-90.68 522,-83 511.51,-84.45 514.7,-90.68"/>
</a>
</g>
</g>
<!-- Node10&#45;&gt;Node16 -->
<g id="edge20_Node000010_Node000016" class="edge">
<title>Node10&#45;&gt;Node16</title>
<g id="a_edge20_Node000010_Node000016"><a xlink:title=" ">
<path fill="none" stroke="#63b8ff" d="M457.94,-123.62C490.64,-114.46 541.11,-100.31 580.39,-89.29"/>
<polygon fill="#63b8ff" stroke="#63b8ff" points="581.26,-92.68 589.95,-86.61 579.37,-85.94 581.26,-92.68"/>
</a>
</g>
</g>
<!-- Node10&#45;&gt;Node17 -->
<g id="edge21_Node000010_Node000017" class="edge">
<title>Node10&#45;&gt;Node17</title>
<g id="a_edge21_Node000010_Node000017"><a xlink:title=" ">
<path fill="none" stroke="#63b8ff" d="M464.86,-126.87C515.56,-119.03 605.51,-104.7 692.33,-88.36"/>
<polygon fill="#63b8ff" stroke="#63b8ff" points="692.79,-91.84 701.96,-86.54 691.49,-84.96 692.79,-91.84"/>
</a>
</g>
</g>
<!-- Node11&#45;&gt;Node8 -->
<g id="edge13_Node000011_Node000008" class="edge">
<title>Node11&#45;&gt;Node8</title>
<g id="a_edge13_Node000011_Node000008"><a xlink:title=" ">
<path fill="none" stroke="#63b8ff" d="M429.19,-61.62C433.35,-53.3 439.57,-40.86 444.8,-30.4"/>
<polygon fill="#63b8ff" stroke="#63b8ff" points="447.93,-31.98 449.27,-21.47 441.66,-28.85 447.93,-31.98"/>
</a>
</g>
</g>
<!-- Node12 -->
<g id="Node000012" class="node">
<title>Node12</title>
<g id="a_Node000012"><a xlink:title=" ">
<polygon fill="#e0e0e0" stroke="#999999" points="416.38,-20 372.62,-20 372.62,0 416.38,0 416.38,-20"/>
<text text-anchor="middle" x="394.5" y="-6.5" font-family="Helvetica,sans-Serif" font-size="10.00">format</text>
</a>
</g>
</g>
<!-- Node11&#45;&gt;Node12 -->
<g id="edge12_Node000011_Node000012" class="edge">
<title>Node11&#45;&gt;Node12</title>
<g id="a_edge12_Node000011_Node000012"><a xlink:title=" ">
<path fill="none" stroke="#63b8ff" d="M419.81,-61.62C415.65,-53.3 409.43,-40.86 404.2,-30.4"/>
<polygon fill="#63b8ff" stroke="#63b8ff" points="407.34,-28.85 399.73,-21.47 401.07,-31.98 407.34,-28.85"/>
</a>
</g>
</g>
<!-- Node13 -->
<g id="Node000013" class="node">
<title>Node13</title>
<g id="a_Node000013"><a xlink:title=" ">
<polygon fill="#e0e0e0" stroke="#999999" points="574.88,-20 492.12,-20 492.12,0 574.88,0 574.88,-20"/>
<text text-anchor="middle" x="533.5" y="-6.5" font-family="Helvetica,sans-Serif" font-size="10.00">tl/expected.hpp</text>
</a>
</g>
</g>
<!-- Node11&#45;&gt;Node13 -->
<g id="edge14_Node000011_Node000013" class="edge">
<title>Node11&#45;&gt;Node13</title>
<g id="a_edge14_Node000011_Node000013"><a xlink:title=" ">
<path fill="none" stroke="#63b8ff" d="M441.53,-61.62C458.97,-52.03 486.33,-36.97 506.68,-25.77"/>
<polygon fill="#63b8ff" stroke="#63b8ff" points="508.19,-28.93 515.26,-21.04 504.81,-22.8 508.19,-28.93"/>
</a>
</g>
</g>
<!-- Node14 -->
<g id="Node000014" class="node">
<title>Node14</title>
<g id="a_Node000014"><a xlink:title=" ">
<polygon fill="#e0e0e0" stroke="#999999" points="638.12,-20 592.88,-20 592.88,0 638.12,0 638.12,-20"/>
<text text-anchor="middle" x="615.5" y="-6.5" font-family="Helvetica,sans-Serif" font-size="10.00">variant</text>
</a>
</g>
</g>
<!-- Node11&#45;&gt;Node14 -->
<g id="edge15_Node000011_Node000014" class="edge">
<title>Node11&#45;&gt;Node14</title>
<g id="a_edge15_Node000011_Node000014"><a xlink:title=" ">
<path fill="none" stroke="#63b8ff" d="M454.34,-61.62C488.8,-50.8 545.37,-33.03 581.5,-21.68"/>
<polygon fill="#63b8ff" stroke="#63b8ff" points="582.53,-25.03 591.02,-18.69 580.43,-18.35 582.53,-25.03"/>
</a>
</g>
</g>
</g>
</svg>
