<?xml version="1.0" encoding="UTF-8" standalone="no"?>
<!DOCTYPE svg PUBLIC "-//W3C//DTD SVG 1.1//EN"
 "http://www.w3.org/Graphics/SVG/1.1/DTD/svg11.dtd">
<!-- Generated by graphviz version 12.2.1 (20241206.2353)
 -->
<!-- Title: include/EyeAICore/tflite/TfLiteRuntime.hpp Pages: 1 -->
<!--zoomable 307 -->

<svg id="main" version="1.1" xmlns="http://www.w3.org/2000/svg" xmlns:xlink="http://www.w3.org/1999/xlink" xml:space="preserve" onload="init(evt)">

<style type="text/css"><![CDATA[
.node, .edge {opacity: 0.7;}
.node.selected, .edge.selected {opacity: 1;}
.edge:hover path { stroke: red; }
.edge:hover polygon { stroke: red; fill: red; }
]]></style>

<defs>
  <circle id="rim" cx="0" cy="0" r="7"/>
  <circle id="rim2" cx="0" cy="0" r="3.5"/>
  <g id="zoomPlus">
    <use xlink:href="#rim" fill="#404040"><set attributeName="fill" to="#808080" begin="zoomplus.mouseover" end="zoomplus.mouseout"/></use>
    <path d="M-4,0h8M0,-4v8" fill="none" stroke="white" stroke-width="1.5" pointer-events="none"/>
  </g>
  <g id="zoomMin">
    <use xlink:href="#rim" fill="#404040"><set attributeName="fill" to="#808080" begin="zoomminus.mouseover" end="zoomminus.mouseout"/></use>
    <path d="M-4,0h8" fill="none" stroke="white" stroke-width="1.5" pointer-events="none"/>
  </g>
  <g id="arrowUp" transform="translate(30 24)">
    <use xlink:href="#rim"/>
    <path pointer-events="none" fill="none" stroke="white" stroke-width="1.5" d="M0,-3.0v7 M-2.5,-0.5L0,-3.0L2.5,-0.5"/>
  </g>
  <g id="arrowRight" transform="rotate(90) translate(36 -43)">
    <use xlink:href="#rim"/>
    <path pointer-events="none" fill="none" stroke="white" stroke-width="1.5" d="M0,-3.0v7 M-2.5,-0.5L0,-3.0L2.5,-0.5"/>
  </g>
  <g id="arrowDown" transform="rotate(180) translate(-30 -48)">
    <use xlink:href="#rim"/>
    <path pointer-events="none" fill="none" stroke="white" stroke-width="1.5" d="M0,-3.0v7 M-2.5,-0.5L0,-3.0L2.5,-0.5"/>
  </g>
  <g id="arrowLeft" transform="rotate(270) translate(-36 17)">
    <use xlink:href="#rim"/>
    <path pointer-events="none" fill="none" stroke="white" stroke-width="1.5" d="M0,-3.0v7 M-2.5,-0.5L0,-3.0L2.5,-0.5"/>
  </g>
  <g id="resetDef">
    <use xlink:href="#rim2" fill="#404040"><set attributeName="fill" to="#808080" begin="reset.mouseover" end="reset.mouseout"/></use>
  </g>
</defs>
<script type="application/ecmascript">
var viewWidth = 886;
var viewHeight = 307;
var sectionId = 'dynsection-1';
</script>
<script type="application/ecmascript" xlink:href="svg.min.js"/>
<svg id="graph" class="graph">
<g id="viewport">
<title>include/EyeAICore/tflite/TfLiteRuntime.hpp</title>
<!-- Node1 -->
<g id="Node000001" class="node">
<title>Node1</title>
<g id="a_Node000001"><a xlink:title=" ">
<polygon fill="#999999" stroke="#666666" points="517.05,-298.75 387.05,-298.75 387.05,-265.25 517.05,-265.25 517.05,-298.75"/>
<text text-anchor="start" x="395.05" y="-285.25" font-family="Helvetica,sans-Serif" font-size="10.00">include/EyeAICore/tflite</text>
<text text-anchor="middle" x="452.05" y="-272.5" font-family="Helvetica,sans-Serif" font-size="10.00">/TfLiteRuntime.hpp</text>
</a>
</g>
</g>
<!-- Node2 -->
<g id="Node000002" class="node">
<title>Node2</title>
<g id="a_Node000002"><a xlink:href="DepthModel_8hpp.html" target="_top" xlink:title=" ">
<polygon fill="white" stroke="#666666" points="202.92,-153.38 15.17,-153.38 15.17,-132.62 202.92,-132.62 202.92,-153.38"/>
<text text-anchor="middle" x="109.05" y="-139.88" font-family="Helvetica,sans-Serif" font-size="10.00">include/EyeAICore/DepthModel.hpp</text>
</a>
</g>
</g>
<!-- Node1&#45;&gt;Node2 -->
<g id="edge1_Node000001_Node000002" class="edge">
<title>Node1&#45;&gt;Node2</title>
<g id="a_edge1_Node000001_Node000002"><a xlink:title=" ">
<path fill="none" stroke="#63b8ff" d="M388.25,-261.35C360.06,-252.24 326.65,-240.87 297.05,-229.25 234.49,-204.7 162.72,-170.38 128.79,-153.77"/>
<polygon fill="#63b8ff" stroke="#63b8ff" points="387.15,-264.67 397.75,-264.39 389.29,-258 387.15,-264.67"/>
</a>
</g>
</g>
<!-- Node3 -->
<g id="Node000003" class="node">
<title>Node3</title>
<g id="a_Node000003"><a xlink:href="DepthModel_8cpp.html" target="_top" xlink:title=" ">
<polygon fill="white" stroke="#666666" points="143.42,-83.88 30.67,-83.88 30.67,-63.12 143.42,-63.12 143.42,-83.88"/>
<text text-anchor="middle" x="87.05" y="-70.38" font-family="Helvetica,sans-Serif" font-size="10.00">src/DepthModel.cpp</text>
</a>
</g>
</g>
<!-- Node1&#45;&gt;Node3 -->
<g id="edge20_Node000001_Node000003" class="edge">
<title>Node1&#45;&gt;Node3</title>
<g id="a_edge20_Node000001_Node000003"><a xlink:title=" ">
<path fill="none" stroke="#63b8ff" d="M375.61,-271.74C259.9,-255.92 49.15,-219.5 6.05,-159.75 -2.66,-147.67 -1.11,-139.31 6.05,-126.25 17.19,-105.91 40.11,-92.4 58.74,-84.3"/>
<polygon fill="#63b8ff" stroke="#63b8ff" points="374.97,-275.18 385.35,-273.05 375.9,-268.24 374.97,-275.18"/>
</a>
</g>
</g>
<!-- Node5 -->
<g id="Node000005" class="node">
<title>Node5</title>
<g id="a_Node000005"><a xlink:href="MetricDepthModel_8hpp.html" target="_top" xlink:title=" ">
<polygon fill="white" stroke="#666666" points="444.17,-229.25 305.92,-229.25 305.92,-195.75 444.17,-195.75 444.17,-229.25"/>
<text text-anchor="start" x="313.92" y="-215.75" font-family="Helvetica,sans-Serif" font-size="10.00">include/EyeAICore/Metric</text>
<text text-anchor="middle" x="375.05" y="-203" font-family="Helvetica,sans-Serif" font-size="10.00">DepthModel.hpp</text>
</a>
</g>
</g>
<!-- Node1&#45;&gt;Node5 -->
<g id="edge4_Node000001_Node000005" class="edge">
<title>Node1&#45;&gt;Node5</title>
<g id="a_edge4_Node000001_Node000005"><a xlink:title=" ">
<path fill="none" stroke="#63b8ff" d="M425.34,-257.59C414.81,-248.35 402.97,-237.98 393.43,-229.62"/>
<polygon fill="#63b8ff" stroke="#63b8ff" points="422.83,-260.05 432.66,-264.01 427.45,-254.78 422.83,-260.05"/>
</a>
</g>
</g>
<!-- Node8 -->
<g id="Node000008" class="node">
<title>Node8</title>
<g id="a_Node000008"><a xlink:href="YoloModel_8cpp.html" target="_top" xlink:title=" ">
<polygon fill="white" stroke="#666666" points="550.55,-83.88 447.55,-83.88 447.55,-63.12 550.55,-63.12 550.55,-83.88"/>
<text text-anchor="middle" x="499.05" y="-70.38" font-family="Helvetica,sans-Serif" font-size="10.00">src/YoloModel.cpp</text>
</a>
</g>
</g>
<!-- Node1&#45;&gt;Node8 -->
<g id="edge21_Node000001_Node000008" class="edge">
<title>Node1&#45;&gt;Node8</title>
<g id="a_edge21_Node000001_Node000008"><a xlink:title=" ">
<path fill="none" stroke="#63b8ff" d="M458.25,-253.73C468.88,-207.03 490.08,-113.88 496.89,-83.98"/>
<polygon fill="#63b8ff" stroke="#63b8ff" points="454.88,-252.79 456.07,-263.32 461.7,-254.35 454.88,-252.79"/>
</a>
</g>
</g>
<!-- Node9 -->
<g id="Node000009" class="node">
<title>Node9</title>
<g id="a_Node000009"><a xlink:href="YoloModel_8hpp.html" target="_top" xlink:title=" ">
<polygon fill="white" stroke="#666666" points="707.05,-222.88 529.05,-222.88 529.05,-202.12 707.05,-202.12 707.05,-222.88"/>
<text text-anchor="middle" x="618.05" y="-209.38" font-family="Helvetica,sans-Serif" font-size="10.00">include/EyeAICore/YoloModel.hpp</text>
</a>
</g>
</g>
<!-- Node1&#45;&gt;Node9 -->
<g id="edge12_Node000001_Node000009" class="edge">
<title>Node1&#45;&gt;Node9</title>
<g id="a_edge12_Node000001_Node000009"><a xlink:title=" ">
<path fill="none" stroke="#63b8ff" d="M502.24,-260.59C532.67,-248.22 570.1,-233 594.02,-223.27"/>
<polygon fill="#63b8ff" stroke="#63b8ff" points="501.15,-257.25 493.21,-264.26 503.79,-263.74 501.15,-257.25"/>
</a>
</g>
</g>
<!-- Node14 -->
<g id="Node000014" class="node">
<title>Node14</title>
<g id="a_Node000014"><a xlink:href="TfLiteRuntime_8cpp.html" target="_top" xlink:title=" ">
<polygon fill="white" stroke="#666666" points="873.05,-222.88 725.05,-222.88 725.05,-202.12 873.05,-202.12 873.05,-222.88"/>
<text text-anchor="middle" x="799.05" y="-209.38" font-family="Helvetica,sans-Serif" font-size="10.00">src/tflite/TfLiteRuntime.cpp</text>
</a>
</g>
</g>
<!-- Node1&#45;&gt;Node14 -->
<g id="edge22_Node000001_Node000014" class="edge">
<title>Node1&#45;&gt;Node14</title>
<g id="a_edge22_Node000001_Node000014"><a xlink:title=" ">
<path fill="none" stroke="#63b8ff" d="M528.21,-266.18C595.1,-253.17 690.53,-234.61 748.43,-223.35"/>
<polygon fill="#63b8ff" stroke="#63b8ff" points="527.95,-262.67 518.8,-268.01 529.28,-269.54 527.95,-262.67"/>
</a>
</g>
</g>
<!-- Node2&#45;&gt;Node3 -->
<g id="edge2_Node000002_Node000003" class="edge">
<title>Node2&#45;&gt;Node3</title>
<g id="a_edge2_Node000002_Node000003"><a xlink:title=" ">
<path fill="none" stroke="#63b8ff" d="M102.39,-121.58C98.34,-109.16 93.36,-93.87 90.19,-84.15"/>
<polygon fill="#63b8ff" stroke="#63b8ff" points="99,-122.47 105.42,-130.89 105.65,-120.3 99,-122.47"/>
</a>
</g>
</g>
<!-- Node4 -->
<g id="Node000004" class="node">
<title>Node4</title>
<g id="a_Node000004"><a xlink:href="MetricDepthModel_8cpp.html" target="_top" xlink:title=" ">
<polygon fill="white" stroke="#666666" points="304.8,-83.88 161.3,-83.88 161.3,-63.12 304.8,-63.12 304.8,-83.88"/>
<text text-anchor="middle" x="233.05" y="-70.38" font-family="Helvetica,sans-Serif" font-size="10.00">src/MetricDepthModel.cpp</text>
</a>
</g>
</g>
<!-- Node2&#45;&gt;Node4 -->
<g id="edge3_Node000002_Node000004" class="edge">
<title>Node2&#45;&gt;Node4</title>
<g id="a_edge3_Node000002_Node000004"><a xlink:title=" ">
<path fill="none" stroke="#63b8ff" d="M136.96,-126.8C160.84,-113.81 194.51,-95.48 214.99,-84.33"/>
<polygon fill="#63b8ff" stroke="#63b8ff" points="135.52,-123.61 128.41,-131.46 138.86,-129.75 135.52,-123.61"/>
</a>
</g>
</g>
<!-- Node5&#45;&gt;Node4 -->
<g id="edge10_Node000005_Node000004" class="edge">
<title>Node5&#45;&gt;Node4</title>
<g id="a_edge10_Node000005_Node000004"><a xlink:title=" ">
<path fill="none" stroke="#63b8ff" d="M295.09,-191.96C278.1,-184.42 261.77,-174.03 250.05,-159.75 231.85,-137.59 231.3,-101.36 232.22,-84.16"/>
<polygon fill="#63b8ff" stroke="#63b8ff" points="293.73,-195.19 304.31,-195.73 296.38,-188.71 293.73,-195.19"/>
</a>
</g>
</g>
<!-- Node6 -->
<g id="Node000006" class="node">
<title>Node6</title>
<g id="a_Node000006"><a xlink:href="Operators_8hpp.html" target="_top" xlink:title=" ">
<polygon fill="white" stroke="#666666" points="435.3,-153.38 258.8,-153.38 258.8,-132.62 435.3,-132.62 435.3,-153.38"/>
<text text-anchor="middle" x="347.05" y="-139.88" font-family="Helvetica,sans-Serif" font-size="10.00">include/EyeAICore/Operators.hpp</text>
</a>
</g>
</g>
<!-- Node5&#45;&gt;Node6 -->
<g id="edge5_Node000005_Node000006" class="edge">
<title>Node5&#45;&gt;Node6</title>
<g id="a_edge5_Node000005_Node000006"><a xlink:title=" ">
<path fill="none" stroke="#63b8ff" d="M364.08,-185.07C359.53,-174.08 354.52,-162.02 351.12,-153.82"/>
<polygon fill="#63b8ff" stroke="#63b8ff" points="360.77,-186.21 367.83,-194.11 367.23,-183.53 360.77,-186.21"/>
</a>
</g>
</g>
<!-- Node7 -->
<g id="Node000007" class="node">
<title>Node7</title>
<g id="a_Node000007"><a xlink:href="Operators_8cpp.html" target="_top" xlink:title=" ">
<polygon fill="white" stroke="#666666" points="426.8,-83.88 325.3,-83.88 325.3,-63.12 426.8,-63.12 426.8,-83.88"/>
<text text-anchor="middle" x="376.05" y="-70.38" font-family="Helvetica,sans-Serif" font-size="10.00">src/Operators.cpp</text>
</a>
</g>
</g>
<!-- Node5&#45;&gt;Node7 -->
<g id="edge11_Node000005_Node000007" class="edge">
<title>Node5&#45;&gt;Node7</title>
<g id="a_edge11_Node000005_Node000007"><a xlink:title=" ">
<path fill="none" stroke="#63b8ff" d="M417.79,-188.96C428.29,-181.2 438.19,-171.46 444.05,-159.75 450.7,-146.43 450.66,-139.59 444.05,-126.25 434.43,-106.84 413.66,-92.74 397.59,-84.2"/>
<polygon fill="#63b8ff" stroke="#63b8ff" points="416.06,-185.9 409.75,-194.41 419.99,-191.7 416.06,-185.9"/>
</a>
</g>
</g>
<!-- Node6&#45;&gt;Node3 -->
<g id="edge6_Node000006_Node000003" class="edge">
<title>Node6&#45;&gt;Node3</title>
<g id="a_edge6_Node000006_Node000003"><a xlink:title=" ">
<path fill="none" stroke="#63b8ff" d="M298.33,-129.35C248.07,-116.3 170.75,-96.23 124.9,-84.33"/>
<polygon fill="#63b8ff" stroke="#63b8ff" points="297.22,-132.68 307.77,-131.8 298.98,-125.9 297.22,-132.68"/>
</a>
</g>
</g>
<!-- Node6&#45;&gt;Node4 -->
<g id="edge7_Node000006_Node000004" class="edge">
<title>Node6&#45;&gt;Node4</title>
<g id="a_edge7_Node000006_Node000004"><a xlink:title=" ">
<path fill="none" stroke="#63b8ff" d="M321.05,-126.61C299.15,-113.64 268.47,-95.47 249.72,-84.37"/>
<polygon fill="#63b8ff" stroke="#63b8ff" points="319.02,-129.47 329.41,-131.56 322.59,-123.45 319.02,-129.47"/>
</a>
</g>
</g>
<!-- Node6&#45;&gt;Node7 -->
<g id="edge8_Node000006_Node000007" class="edge">
<title>Node6&#45;&gt;Node7</title>
<g id="a_edge8_Node000006_Node000007"><a xlink:title=" ">
<path fill="none" stroke="#63b8ff" d="M355.66,-121.96C361.02,-109.47 367.68,-93.97 371.9,-84.15"/>
<polygon fill="#63b8ff" stroke="#63b8ff" points="352.53,-120.37 351.8,-130.94 358.96,-123.13 352.53,-120.37"/>
</a>
</g>
</g>
<!-- Node6&#45;&gt;Node8 -->
<g id="edge9_Node000006_Node000008" class="edge">
<title>Node6&#45;&gt;Node8</title>
<g id="a_edge9_Node000006_Node000008"><a xlink:title=" ">
<path fill="none" stroke="#63b8ff" d="M379.31,-127.67C408.68,-114.63 451.24,-95.73 476.92,-84.33"/>
<polygon fill="#63b8ff" stroke="#63b8ff" points="378.25,-124.31 370.53,-131.57 381.09,-130.71 378.25,-124.31"/>
</a>
</g>
</g>
<!-- Node9&#45;&gt;Node8 -->
<g id="edge18_Node000009_Node000008" class="edge">
<title>Node9&#45;&gt;Node8</title>
<g id="a_edge18_Node000009_Node000008"><a xlink:title=" ">
<path fill="none" stroke="#63b8ff" d="M599.09,-194.21C588.69,-184.43 575.77,-171.78 565.05,-159.75 541.88,-133.76 517.54,-100.54 505.95,-84.31"/>
<polygon fill="#63b8ff" stroke="#63b8ff" points="596.64,-196.71 606.35,-200.95 601.41,-191.58 596.64,-196.71"/>
</a>
</g>
</g>
<!-- Node10 -->
<g id="Node000010" class="node">
<title>Node10</title>
<g id="a_Node000010"><a xlink:href="ObjectTracker_8hpp.html" target="_top" xlink:title=" ">
<polygon fill="white" stroke="#666666" points="746.55,-159.75 607.55,-159.75 607.55,-126.25 746.55,-126.25 746.55,-159.75"/>
<text text-anchor="start" x="615.55" y="-146.25" font-family="Helvetica,sans-Serif" font-size="10.00">include/EyeAICore/Object</text>
<text text-anchor="middle" x="677.05" y="-133.5" font-family="Helvetica,sans-Serif" font-size="10.00">Tracker.hpp</text>
</a>
</g>
</g>
<!-- Node9&#45;&gt;Node10 -->
<g id="edge13_Node000009_Node000010" class="edge">
<title>Node9&#45;&gt;Node10</title>
<g id="a_edge13_Node000009_Node000010"><a xlink:title=" ">
<path fill="none" stroke="#63b8ff" d="M634.04,-193.2C643.06,-182.88 654.22,-170.11 662.91,-160.17"/>
<polygon fill="#63b8ff" stroke="#63b8ff" points="631.44,-190.86 627.5,-200.69 636.71,-195.46 631.44,-190.86"/>
</a>
</g>
</g>
<!-- Node12 -->
<g id="Node000012" class="node">
<title>Node12</title>
<g id="a_Node000012"><a xlink:href="SpatialAudio_8cpp.html" target="_top" xlink:title=" ">
<polygon fill="white" stroke="#666666" points="698.55,-20.75 553.55,-20.75 553.55,0 698.55,0 698.55,-20.75"/>
<text text-anchor="middle" x="626.05" y="-7.25" font-family="Helvetica,sans-Serif" font-size="10.00">src/audio/SpatialAudio.cpp</text>
</a>
</g>
</g>
<!-- Node9&#45;&gt;Node12 -->
<g id="edge19_Node000009_Node000012" class="edge">
<title>Node9&#45;&gt;Node12</title>
<g id="a_edge19_Node000009_Node000012"><a xlink:title=" ">
<path fill="none" stroke="#63b8ff" d="M608.94,-191.59C605.1,-182.15 601.05,-170.59 599.05,-159.75 590.71,-114.74 585.55,-100.79 598.05,-56.75 601.89,-43.21 611.04,-29.76 617.84,-21.05"/>
<polygon fill="#63b8ff" stroke="#63b8ff" points="605.6,-192.68 612.78,-200.47 612.03,-189.9 605.6,-192.68"/>
</a>
</g>
</g>
<!-- Node13 -->
<g id="Node000013" class="node">
<title>Node13</title>
<g id="a_Node000013"><a xlink:href="ObjectTracker_8cpp.html" target="_top" xlink:title=" ">
<polygon fill="white" stroke="#666666" points="878.42,-83.88 759.67,-83.88 759.67,-63.12 878.42,-63.12 878.42,-83.88"/>
<text text-anchor="middle" x="819.05" y="-70.38" font-family="Helvetica,sans-Serif" font-size="10.00">src/ObjectTracker.cpp</text>
</a>
</g>
</g>
<!-- Node9&#45;&gt;Node13 -->
<g id="edge17_Node000009_Node000013" class="edge">
<title>Node9&#45;&gt;Node13</title>
<g id="a_edge17_Node000009_Node000013"><a xlink:title=" ">
<path fill="none" stroke="#63b8ff" d="M673.67,-198.59C700.4,-190.49 731.81,-178.04 756.05,-159.75 784.1,-138.57 805.36,-101.54 814.35,-84.1"/>
<polygon fill="#63b8ff" stroke="#63b8ff" points="673,-195.14 664.37,-201.27 674.95,-201.86 673,-195.14"/>
</a>
</g>
</g>
<!-- Node11 -->
<g id="Node000011" class="node">
<title>Node11</title>
<g id="a_Node000011"><a xlink:href="SpatialAudio_8hpp.html" target="_top" xlink:title=" ">
<polygon fill="white" stroke="#666666" points="741.3,-90.25 606.8,-90.25 606.8,-56.75 741.3,-56.75 741.3,-90.25"/>
<text text-anchor="start" x="614.8" y="-76.75" font-family="Helvetica,sans-Serif" font-size="10.00">include/EyeAICore/audio</text>
<text text-anchor="middle" x="674.05" y="-64" font-family="Helvetica,sans-Serif" font-size="10.00">/SpatialAudio.hpp</text>
</a>
</g>
</g>
<!-- Node10&#45;&gt;Node11 -->
<g id="edge14_Node000010_Node000011" class="edge">
<title>Node10&#45;&gt;Node11</title>
<g id="a_edge14_Node000010_Node000011"><a xlink:title=" ">
<path fill="none" stroke="#63b8ff" d="M675.83,-114.56C675.46,-106.34 675.07,-97.59 674.75,-90.38"/>
<polygon fill="#63b8ff" stroke="#63b8ff" points="672.33,-114.66 676.27,-124.49 679.32,-114.35 672.33,-114.66"/>
</a>
</g>
</g>
<!-- Node10&#45;&gt;Node13 -->
<g id="edge16_Node000010_Node000013" class="edge">
<title>Node10&#45;&gt;Node13</title>
<g id="a_edge16_Node000010_Node000013"><a xlink:title=" ">
<path fill="none" stroke="#63b8ff" d="M721.35,-120.94C747.13,-108.69 778.39,-93.83 798.49,-84.27"/>
<polygon fill="#63b8ff" stroke="#63b8ff" points="719.95,-117.73 712.43,-125.18 722.96,-124.05 719.95,-117.73"/>
</a>
</g>
</g>
<!-- Node11&#45;&gt;Node12 -->
<g id="edge15_Node000011_Node000012" class="edge">
<title>Node11&#45;&gt;Node12</title>
<g id="a_edge15_Node000011_Node000012"><a xlink:title=" ">
<path fill="none" stroke="#63b8ff" d="M654.46,-47.56C647.19,-38.3 639.37,-28.34 633.77,-21.22"/>
<polygon fill="#63b8ff" stroke="#63b8ff" points="651.57,-49.55 660.5,-55.25 657.08,-45.22 651.57,-49.55"/>
</a>
</g>
</g>
</g>
</svg>

<g id="navigator" transform="translate(0 0)" fill="#404254">
  <rect fill="#f2f5e9" fill-opacity="0.5" stroke="#606060" stroke-width=".5" x="0" y="0" width="60" height="60"/>
  <use id="zoomplus" xlink:href="#zoomPlus" x="17" y="9" onmousedown="handleZoom(evt,'in')"/>
  <use id="zoomminus" xlink:href="#zoomMin" x="42" y="9" onmousedown="handleZoom(evt,'out')"/>
  <use id="reset" xlink:href="#resetDef" x="30" y="36" onmousedown="handleReset()"/>
   <use id="arrowup" xlink:href="#arrowUp" x="0" y="0" onmousedown="handlePan(0,-1)"/>
  <use id="arrowright" xlink:href="#arrowRight" x="0" y="0" onmousedown="handlePan(1,0)"/>
  <use id="arrowdown" xlink:href="#arrowDown" x="0" y="0" onmousedown="handlePan(0,1)"/>
  <use id="arrowleft" xlink:href="#arrowLeft" x="0" y="0" onmousedown="handlePan(-1,0)"/>
</g>
<svg viewBox="0 0 15 15" width="100%" height="30px" preserveAspectRatio="xMaxYMin meet">
 <g id="arrow_out" transform="scale(0.3 0.3)">
  <a xlink:href="TfLiteRuntime_8hpp__dep__incl_org.svg" target="_base">
   <rect id="button" ry="5" rx="5" y="6" x="6" height="38" width="38"
        fill="#f2f5e9" fill-opacity="0.5" stroke="#606060" stroke-width="1.0"/>
   <path id="arrow"
     d="M 11.500037,31.436501 C 11.940474,20.09759 22.043105,11.32322 32.158766,21.979434 L 37.068811,17.246167 C 37.068811,17.246167 37.088388,32 37.088388,32 L 22.160133,31.978069 C 22.160133,31.978069 26.997745,27.140456 26.997745,27.140456 C 18.528582,18.264221 13.291696,25.230495 11.500037,31.436501 z"
     style="fill:#404040;"/>
  </a>
 </g>
</svg>

<style type='text/css'>
<![CDATA[
[data-mouse-over-selected='false'] { opacity: 0.7; }
[data-mouse-over-selected='true']  { opacity: 1.0; }
]]>
</style>
<script type="application/ecmascript"><![CDATA[
document.addEventListener('DOMContentLoaded', (event) => {
  highlightEdges();
  highlightAdjacentNodes();
});
]]></script>
</svg>
