<?xml version="1.0" encoding="UTF-8" standalone="no"?>
<!DOCTYPE svg PUBLIC "-//W3C//DTD SVG 1.1//EN"
 "http://www.w3.org/Graphics/SVG/1.1/DTD/svg11.dtd">
<!-- Generated by graphviz version 12.2.1 (20241206.2353)
 -->
<!-- Title: include/EyeAICore/tflite/TfLiteUtils.hpp Pages: 1 -->
<!--zoomable 376 -->

<svg id="main" version="1.1" xmlns="http://www.w3.org/2000/svg" xmlns:xlink="http://www.w3.org/1999/xlink" xml:space="preserve" onload="init(evt)">

<style type="text/css"><![CDATA[
.node, .edge {opacity: 0.7;}
.node.selected, .edge.selected {opacity: 1;}
.edge:hover path { stroke: red; }
.edge:hover polygon { stroke: red; fill: red; }
]]></style>

<defs>
  <circle id="rim" cx="0" cy="0" r="7"/>
  <circle id="rim2" cx="0" cy="0" r="3.5"/>
  <g id="zoomPlus">
    <use xlink:href="#rim" fill="#404040"><set attributeName="fill" to="#808080" begin="zoomplus.mouseover" end="zoomplus.mouseout"/></use>
    <path d="M-4,0h8M0,-4v8" fill="none" stroke="white" stroke-width="1.5" pointer-events="none"/>
  </g>
  <g id="zoomMin">
    <use xlink:href="#rim" fill="#404040"><set attributeName="fill" to="#808080" begin="zoomminus.mouseover" end="zoomminus.mouseout"/></use>
    <path d="M-4,0h8" fill="none" stroke="white" stroke-width="1.5" pointer-events="none"/>
  </g>
  <g id="arrowUp" transform="translate(30 24)">
    <use xlink:href="#rim"/>
    <path pointer-events="none" fill="none" stroke="white" stroke-width="1.5" d="M0,-3.0v7 M-2.5,-0.5L0,-3.0L2.5,-0.5"/>
  </g>
  <g id="arrowRight" transform="rotate(90) translate(36 -43)">
    <use xlink:href="#rim"/>
    <path pointer-events="none" fill="none" stroke="white" stroke-width="1.5" d="M0,-3.0v7 M-2.5,-0.5L0,-3.0L2.5,-0.5"/>
  </g>
  <g id="arrowDown" transform="rotate(180) translate(-30 -48)">
    <use xlink:href="#rim"/>
    <path pointer-events="none" fill="none" stroke="white" stroke-width="1.5" d="M0,-3.0v7 M-2.5,-0.5L0,-3.0L2.5,-0.5"/>
  </g>
  <g id="arrowLeft" transform="rotate(270) translate(-36 17)">
    <use xlink:href="#rim"/>
    <path pointer-events="none" fill="none" stroke="white" stroke-width="1.5" d="M0,-3.0v7 M-2.5,-0.5L0,-3.0L2.5,-0.5"/>
  </g>
  <g id="resetDef">
    <use xlink:href="#rim2" fill="#404040"><set attributeName="fill" to="#808080" begin="reset.mouseover" end="reset.mouseout"/></use>
  </g>
</defs>
<script type="application/ecmascript">
var viewWidth = 886;
var viewHeight = 376;
var sectionId = 'dynsection-1';
</script>
<script type="application/ecmascript" xlink:href="svg.min.js"/>
<svg id="graph" class="graph">
<g id="viewport">
<title>include/EyeAICore/tflite/TfLiteUtils.hpp</title>
<!-- Node1 -->
<g id="Node000001" class="node">
<title>Node1</title>
<g id="a_Node000001"><a xlink:title=" ">
<polygon fill="#999999" stroke="#666666" points="761.05,-368.25 631.05,-368.25 631.05,-334.75 761.05,-334.75 761.05,-368.25"/>
<text text-anchor="start" x="639.05" y="-354.75" font-family="Helvetica,sans-Serif" font-size="10.00">include/EyeAICore/tflite</text>
<text text-anchor="middle" x="696.05" y="-342" font-family="Helvetica,sans-Serif" font-size="10.00">/TfLiteUtils.hpp</text>
</a>
</g>
</g>
<!-- Node2 -->
<g id="Node000002" class="node">
<title>Node2</title>
<g id="a_Node000002"><a xlink:href="TfLiteRuntime_8hpp.html" target="_top" xlink:title=" ">
<polygon fill="white" stroke="#666666" points="566.05,-298.75 436.05,-298.75 436.05,-265.25 566.05,-265.25 566.05,-298.75"/>
<text text-anchor="start" x="444.05" y="-285.25" font-family="Helvetica,sans-Serif" font-size="10.00">include/EyeAICore/tflite</text>
<text text-anchor="middle" x="501.05" y="-272.5" font-family="Helvetica,sans-Serif" font-size="10.00">/TfLiteRuntime.hpp</text>
</a>
</g>
</g>
<!-- Node1&#45;&gt;Node2 -->
<g id="edge1_Node000001_Node000002" class="edge">
<title>Node1&#45;&gt;Node2</title>
<g id="a_edge1_Node000001_Node000002"><a xlink:title=" ">
<path fill="none" stroke="#63b8ff" d="M638.55,-330.6C609.61,-320.58 574.98,-308.59 547.71,-299.15"/>
<polygon fill="#63b8ff" stroke="#63b8ff" points="637.31,-333.87 647.91,-333.84 639.6,-327.26 637.31,-333.87"/>
</a>
</g>
</g>
<!-- Node15 -->
<g id="Node000015" class="node">
<title>Node15</title>
<g id="a_Node000015"><a xlink:href="TfLiteRuntime_8cpp.html" target="_top" xlink:title=" ">
<polygon fill="white" stroke="#666666" points="873.05,-222.88 725.05,-222.88 725.05,-202.12 873.05,-202.12 873.05,-222.88"/>
<text text-anchor="middle" x="799.05" y="-209.38" font-family="Helvetica,sans-Serif" font-size="10.00">src/tflite/TfLiteRuntime.cpp</text>
</a>
</g>
</g>
<!-- Node1&#45;&gt;Node15 -->
<g id="edge24_Node000001_Node000015" class="edge">
<title>Node1&#45;&gt;Node15</title>
<g id="a_edge24_Node000001_Node000015"><a xlink:title=" ">
<path fill="none" stroke="#63b8ff" d="M696.75,-323.13C698.43,-305.23 703.04,-282.11 715.05,-265.25 729.16,-245.44 753.46,-231.68 772.3,-223.36"/>
<polygon fill="#63b8ff" stroke="#63b8ff" points="693.26,-322.84 696.1,-333.05 700.25,-323.3 693.26,-322.84"/>
</a>
</g>
</g>
<!-- Node16 -->
<g id="Node000016" class="node">
<title>Node16</title>
<g id="a_Node000016"><a xlink:href="TfLiteUtils_8cpp.html" target="_top" xlink:title=" ">
<polygon fill="white" stroke="#666666" points="853.67,-292.38 724.42,-292.38 724.42,-271.62 853.67,-271.62 853.67,-292.38"/>
<text text-anchor="middle" x="789.05" y="-278.88" font-family="Helvetica,sans-Serif" font-size="10.00">src/tflite/TfLiteUtils.cpp</text>
</a>
</g>
</g>
<!-- Node1&#45;&gt;Node16 -->
<g id="edge25_Node000001_Node000016" class="edge">
<title>Node1&#45;&gt;Node16</title>
<g id="a_edge25_Node000001_Node000016"><a xlink:title=" ">
<path fill="none" stroke="#63b8ff" d="M727.33,-327.79C743.72,-315.9 762.93,-301.95 775.51,-292.82"/>
<polygon fill="#63b8ff" stroke="#63b8ff" points="725.35,-324.91 719.31,-333.61 729.46,-330.57 725.35,-324.91"/>
</a>
</g>
</g>
<!-- Node3 -->
<g id="Node000003" class="node">
<title>Node3</title>
<g id="a_Node000003"><a xlink:href="DepthModel_8hpp.html" target="_top" xlink:title=" ">
<polygon fill="white" stroke="#666666" points="202.92,-153.38 15.17,-153.38 15.17,-132.62 202.92,-132.62 202.92,-153.38"/>
<text text-anchor="middle" x="109.05" y="-139.88" font-family="Helvetica,sans-Serif" font-size="10.00">include/EyeAICore/DepthModel.hpp</text>
</a>
</g>
</g>
<!-- Node2&#45;&gt;Node3 -->
<g id="edge2_Node000002_Node000003" class="edge">
<title>Node2&#45;&gt;Node3</title>
<g id="a_edge2_Node000002_Node000003"><a xlink:title=" ">
<path fill="none" stroke="#63b8ff" d="M424.62,-264.84C386.17,-255.88 339.13,-243.63 298.05,-229.25 233.83,-206.78 161.42,-171.02 127.91,-153.84"/>
<polygon fill="#63b8ff" stroke="#63b8ff" points="423.73,-268.23 434.26,-267.06 425.3,-261.4 423.73,-268.23"/>
</a>
</g>
</g>
<!-- Node4 -->
<g id="Node000004" class="node">
<title>Node4</title>
<g id="a_Node000004"><a xlink:href="DepthModel_8cpp.html" target="_top" xlink:title=" ">
<polygon fill="white" stroke="#666666" points="143.42,-83.88 30.67,-83.88 30.67,-63.12 143.42,-63.12 143.42,-83.88"/>
<text text-anchor="middle" x="87.05" y="-70.38" font-family="Helvetica,sans-Serif" font-size="10.00">src/DepthModel.cpp</text>
</a>
</g>
</g>
<!-- Node2&#45;&gt;Node4 -->
<g id="edge21_Node000002_Node000004" class="edge">
<title>Node2&#45;&gt;Node4</title>
<g id="a_edge21_Node000002_Node000004"><a xlink:title=" ">
<path fill="none" stroke="#63b8ff" d="M424.78,-274.12C298.41,-260.91 54.66,-227.14 6.05,-159.75 -2.66,-147.67 -1.11,-139.31 6.05,-126.25 17.19,-105.91 40.11,-92.4 58.74,-84.3"/>
<polygon fill="#63b8ff" stroke="#63b8ff" points="424.08,-277.57 434.39,-275.11 424.8,-270.61 424.08,-277.57"/>
</a>
</g>
</g>
<!-- Node6 -->
<g id="Node000006" class="node">
<title>Node6</title>
<g id="a_Node000006"><a xlink:href="MetricDepthModel_8hpp.html" target="_top" xlink:title=" ">
<polygon fill="white" stroke="#666666" points="445.17,-229.25 306.92,-229.25 306.92,-195.75 445.17,-195.75 445.17,-229.25"/>
<text text-anchor="start" x="314.92" y="-215.75" font-family="Helvetica,sans-Serif" font-size="10.00">include/EyeAICore/Metric</text>
<text text-anchor="middle" x="376.05" y="-203" font-family="Helvetica,sans-Serif" font-size="10.00">DepthModel.hpp</text>
</a>
</g>
</g>
<!-- Node2&#45;&gt;Node6 -->
<g id="edge5_Node000002_Node000006" class="edge">
<title>Node2&#45;&gt;Node6</title>
<g id="a_edge5_Node000002_Node000006"><a xlink:title=" ">
<path fill="none" stroke="#63b8ff" d="M461.18,-259.47C443.2,-249.76 422.32,-238.49 405.74,-229.54"/>
<polygon fill="#63b8ff" stroke="#63b8ff" points="459.31,-262.44 469.77,-264.11 462.64,-256.28 459.31,-262.44"/>
</a>
</g>
</g>
<!-- Node9 -->
<g id="Node000009" class="node">
<title>Node9</title>
<g id="a_Node000009"><a xlink:href="YoloModel_8cpp.html" target="_top" xlink:title=" ">
<polygon fill="white" stroke="#666666" points="550.55,-83.88 447.55,-83.88 447.55,-63.12 550.55,-63.12 550.55,-83.88"/>
<text text-anchor="middle" x="499.05" y="-70.38" font-family="Helvetica,sans-Serif" font-size="10.00">src/YoloModel.cpp</text>
</a>
</g>
</g>
<!-- Node2&#45;&gt;Node9 -->
<g id="edge22_Node000002_Node000009" class="edge">
<title>Node2&#45;&gt;Node9</title>
<g id="a_edge22_Node000002_Node000009"><a xlink:title=" ">
<path fill="none" stroke="#63b8ff" d="M500.78,-253.43C500.33,-206.63 499.43,-113.82 499.14,-83.98"/>
<polygon fill="#63b8ff" stroke="#63b8ff" points="497.28,-253.32 500.87,-263.28 504.28,-253.25 497.28,-253.32"/>
</a>
</g>
</g>
<!-- Node10 -->
<g id="Node000010" class="node">
<title>Node10</title>
<g id="a_Node000010"><a xlink:href="YoloModel_8hpp.html" target="_top" xlink:title=" ">
<polygon fill="white" stroke="#666666" points="707.05,-222.88 529.05,-222.88 529.05,-202.12 707.05,-202.12 707.05,-222.88"/>
<text text-anchor="middle" x="618.05" y="-209.38" font-family="Helvetica,sans-Serif" font-size="10.00">include/EyeAICore/YoloModel.hpp</text>
</a>
</g>
</g>
<!-- Node2&#45;&gt;Node10 -->
<g id="edge13_Node000002_Node000010" class="edge">
<title>Node2&#45;&gt;Node10</title>
<g id="a_edge13_Node000002_Node000010"><a xlink:title=" ">
<path fill="none" stroke="#63b8ff" d="M538.98,-259.12C559.93,-247.03 584.91,-232.61 601.11,-223.27"/>
<polygon fill="#63b8ff" stroke="#63b8ff" points="537.29,-256.05 530.38,-264.08 540.79,-262.11 537.29,-256.05"/>
</a>
</g>
</g>
<!-- Node2&#45;&gt;Node15 -->
<g id="edge23_Node000002_Node000015" class="edge">
<title>Node2&#45;&gt;Node15</title>
<g id="a_edge23_Node000002_Node000015"><a xlink:title=" ">
<path fill="none" stroke="#63b8ff" d="M577.51,-263.68C634.16,-250.85 709.3,-233.83 755.89,-223.27"/>
<polygon fill="#63b8ff" stroke="#63b8ff" points="576.9,-260.23 567.92,-265.85 578.45,-267.06 576.9,-260.23"/>
</a>
</g>
</g>
<!-- Node3&#45;&gt;Node4 -->
<g id="edge3_Node000003_Node000004" class="edge">
<title>Node3&#45;&gt;Node4</title>
<g id="a_edge3_Node000003_Node000004"><a xlink:title=" ">
<path fill="none" stroke="#63b8ff" d="M102.39,-121.58C98.34,-109.16 93.36,-93.87 90.19,-84.15"/>
<polygon fill="#63b8ff" stroke="#63b8ff" points="99,-122.47 105.42,-130.89 105.65,-120.3 99,-122.47"/>
</a>
</g>
</g>
<!-- Node5 -->
<g id="Node000005" class="node">
<title>Node5</title>
<g id="a_Node000005"><a xlink:href="MetricDepthModel_8cpp.html" target="_top" xlink:title=" ">
<polygon fill="white" stroke="#666666" points="304.8,-83.88 161.3,-83.88 161.3,-63.12 304.8,-63.12 304.8,-83.88"/>
<text text-anchor="middle" x="233.05" y="-70.38" font-family="Helvetica,sans-Serif" font-size="10.00">src/MetricDepthModel.cpp</text>
</a>
</g>
</g>
<!-- Node3&#45;&gt;Node5 -->
<g id="edge4_Node000003_Node000005" class="edge">
<title>Node3&#45;&gt;Node5</title>
<g id="a_edge4_Node000003_Node000005"><a xlink:title=" ">
<path fill="none" stroke="#63b8ff" d="M136.96,-126.8C160.84,-113.81 194.51,-95.48 214.99,-84.33"/>
<polygon fill="#63b8ff" stroke="#63b8ff" points="135.52,-123.61 128.41,-131.46 138.86,-129.75 135.52,-123.61"/>
</a>
</g>
</g>
<!-- Node6&#45;&gt;Node5 -->
<g id="edge11_Node000006_Node000005" class="edge">
<title>Node6&#45;&gt;Node5</title>
<g id="a_edge11_Node000006_Node000005"><a xlink:title=" ">
<path fill="none" stroke="#63b8ff" d="M296.21,-192.41C278.82,-184.84 262.05,-174.32 250.05,-159.75 231.82,-137.62 231.28,-101.38 232.22,-84.16"/>
<polygon fill="#63b8ff" stroke="#63b8ff" points="294.51,-195.5 305.09,-195.98 297.12,-189 294.51,-195.5"/>
</a>
</g>
</g>
<!-- Node7 -->
<g id="Node000007" class="node">
<title>Node7</title>
<g id="a_Node000007"><a xlink:href="Operators_8hpp.html" target="_top" xlink:title=" ">
<polygon fill="white" stroke="#666666" points="435.3,-153.38 258.8,-153.38 258.8,-132.62 435.3,-132.62 435.3,-153.38"/>
<text text-anchor="middle" x="347.05" y="-139.88" font-family="Helvetica,sans-Serif" font-size="10.00">include/EyeAICore/Operators.hpp</text>
</a>
</g>
</g>
<!-- Node6&#45;&gt;Node7 -->
<g id="edge6_Node000006_Node000007" class="edge">
<title>Node6&#45;&gt;Node7</title>
<g id="a_edge6_Node000006_Node000007"><a xlink:title=" ">
<path fill="none" stroke="#63b8ff" d="M364.69,-185.07C359.97,-174.08 354.79,-162.02 351.27,-153.82"/>
<polygon fill="#63b8ff" stroke="#63b8ff" points="361.41,-186.31 368.58,-194.11 367.84,-183.54 361.41,-186.31"/>
</a>
</g>
</g>
<!-- Node8 -->
<g id="Node000008" class="node">
<title>Node8</title>
<g id="a_Node000008"><a xlink:href="Operators_8cpp.html" target="_top" xlink:title=" ">
<polygon fill="white" stroke="#666666" points="426.8,-83.88 325.3,-83.88 325.3,-63.12 426.8,-63.12 426.8,-83.88"/>
<text text-anchor="middle" x="376.05" y="-70.38" font-family="Helvetica,sans-Serif" font-size="10.00">src/Operators.cpp</text>
</a>
</g>
</g>
<!-- Node6&#45;&gt;Node8 -->
<g id="edge12_Node000006_Node000008" class="edge">
<title>Node6&#45;&gt;Node8</title>
<g id="a_edge12_Node000006_Node000008"><a xlink:title=" ">
<path fill="none" stroke="#63b8ff" d="M417.91,-189.05C428.36,-181.26 438.24,-171.47 444.05,-159.75 450.66,-146.41 450.66,-139.59 444.05,-126.25 434.43,-106.84 413.66,-92.74 397.59,-84.2"/>
<polygon fill="#63b8ff" stroke="#63b8ff" points="416.19,-185.99 409.92,-194.53 420.15,-191.76 416.19,-185.99"/>
</a>
</g>
</g>
<!-- Node7&#45;&gt;Node4 -->
<g id="edge7_Node000007_Node000004" class="edge">
<title>Node7&#45;&gt;Node4</title>
<g id="a_edge7_Node000007_Node000004"><a xlink:title=" ">
<path fill="none" stroke="#63b8ff" d="M298.33,-129.35C248.07,-116.3 170.75,-96.23 124.9,-84.33"/>
<polygon fill="#63b8ff" stroke="#63b8ff" points="297.22,-132.68 307.77,-131.8 298.98,-125.9 297.22,-132.68"/>
</a>
</g>
</g>
<!-- Node7&#45;&gt;Node5 -->
<g id="edge8_Node000007_Node000005" class="edge">
<title>Node7&#45;&gt;Node5</title>
<g id="a_edge8_Node000007_Node000005"><a xlink:title=" ">
<path fill="none" stroke="#63b8ff" d="M321.05,-126.61C299.15,-113.64 268.47,-95.47 249.72,-84.37"/>
<polygon fill="#63b8ff" stroke="#63b8ff" points="319.02,-129.47 329.41,-131.56 322.59,-123.45 319.02,-129.47"/>
</a>
</g>
</g>
<!-- Node7&#45;&gt;Node8 -->
<g id="edge9_Node000007_Node000008" class="edge">
<title>Node7&#45;&gt;Node8</title>
<g id="a_edge9_Node000007_Node000008"><a xlink:title=" ">
<path fill="none" stroke="#63b8ff" d="M355.66,-121.96C361.02,-109.47 367.68,-93.97 371.9,-84.15"/>
<polygon fill="#63b8ff" stroke="#63b8ff" points="352.53,-120.37 351.8,-130.94 358.96,-123.13 352.53,-120.37"/>
</a>
</g>
</g>
<!-- Node7&#45;&gt;Node9 -->
<g id="edge10_Node000007_Node000009" class="edge">
<title>Node7&#45;&gt;Node9</title>
<g id="a_edge10_Node000007_Node000009"><a xlink:title=" ">
<path fill="none" stroke="#63b8ff" d="M379.31,-127.67C408.68,-114.63 451.24,-95.73 476.92,-84.33"/>
<polygon fill="#63b8ff" stroke="#63b8ff" points="378.25,-124.31 370.53,-131.57 381.09,-130.71 378.25,-124.31"/>
</a>
</g>
</g>
<!-- Node10&#45;&gt;Node9 -->
<g id="edge19_Node000010_Node000009" class="edge">
<title>Node10&#45;&gt;Node9</title>
<g id="a_edge19_Node000010_Node000009"><a xlink:title=" ">
<path fill="none" stroke="#63b8ff" d="M599.09,-194.21C588.69,-184.43 575.77,-171.78 565.05,-159.75 541.88,-133.76 517.54,-100.54 505.95,-84.31"/>
<polygon fill="#63b8ff" stroke="#63b8ff" points="596.64,-196.71 606.35,-200.95 601.41,-191.58 596.64,-196.71"/>
</a>
</g>
</g>
<!-- Node11 -->
<g id="Node000011" class="node">
<title>Node11</title>
<g id="a_Node000011"><a xlink:href="ObjectTracker_8hpp.html" target="_top" xlink:title=" ">
<polygon fill="white" stroke="#666666" points="746.55,-159.75 607.55,-159.75 607.55,-126.25 746.55,-126.25 746.55,-159.75"/>
<text text-anchor="start" x="615.55" y="-146.25" font-family="Helvetica,sans-Serif" font-size="10.00">include/EyeAICore/Object</text>
<text text-anchor="middle" x="677.05" y="-133.5" font-family="Helvetica,sans-Serif" font-size="10.00">Tracker.hpp</text>
</a>
</g>
</g>
<!-- Node10&#45;&gt;Node11 -->
<g id="edge14_Node000010_Node000011" class="edge">
<title>Node10&#45;&gt;Node11</title>
<g id="a_edge14_Node000010_Node000011"><a xlink:title=" ">
<path fill="none" stroke="#63b8ff" d="M634.04,-193.2C643.06,-182.88 654.22,-170.11 662.91,-160.17"/>
<polygon fill="#63b8ff" stroke="#63b8ff" points="631.44,-190.86 627.5,-200.69 636.71,-195.46 631.44,-190.86"/>
</a>
</g>
</g>
<!-- Node13 -->
<g id="Node000013" class="node">
<title>Node13</title>
<g id="a_Node000013"><a xlink:href="SpatialAudio_8cpp.html" target="_top" xlink:title=" ">
<polygon fill="white" stroke="#666666" points="698.55,-20.75 553.55,-20.75 553.55,0 698.55,0 698.55,-20.75"/>
<text text-anchor="middle" x="626.05" y="-7.25" font-family="Helvetica,sans-Serif" font-size="10.00">src/audio/SpatialAudio.cpp</text>
</a>
</g>
</g>
<!-- Node10&#45;&gt;Node13 -->
<g id="edge20_Node000010_Node000013" class="edge">
<title>Node10&#45;&gt;Node13</title>
<g id="a_edge20_Node000010_Node000013"><a xlink:title=" ">
<path fill="none" stroke="#63b8ff" d="M608.39,-191.65C604.33,-182.22 600.08,-170.66 598.05,-159.75 589.65,-114.75 585.55,-100.79 598.05,-56.75 601.89,-43.21 611.04,-29.76 617.84,-21.05"/>
<polygon fill="#63b8ff" stroke="#63b8ff" points="605.11,-192.89 612.46,-200.52 611.48,-189.97 605.11,-192.89"/>
</a>
</g>
</g>
<!-- Node14 -->
<g id="Node000014" class="node">
<title>Node14</title>
<g id="a_Node000014"><a xlink:href="ObjectTracker_8cpp.html" target="_top" xlink:title=" ">
<polygon fill="white" stroke="#666666" points="878.42,-83.88 759.67,-83.88 759.67,-63.12 878.42,-63.12 878.42,-83.88"/>
<text text-anchor="middle" x="819.05" y="-70.38" font-family="Helvetica,sans-Serif" font-size="10.00">src/ObjectTracker.cpp</text>
</a>
</g>
</g>
<!-- Node10&#45;&gt;Node14 -->
<g id="edge18_Node000010_Node000014" class="edge">
<title>Node10&#45;&gt;Node14</title>
<g id="a_edge18_Node000010_Node000014"><a xlink:title=" ">
<path fill="none" stroke="#63b8ff" d="M673.67,-198.59C700.4,-190.49 731.81,-178.04 756.05,-159.75 784.1,-138.57 805.36,-101.54 814.35,-84.1"/>
<polygon fill="#63b8ff" stroke="#63b8ff" points="673,-195.14 664.37,-201.27 674.95,-201.86 673,-195.14"/>
</a>
</g>
</g>
<!-- Node12 -->
<g id="Node000012" class="node">
<title>Node12</title>
<g id="a_Node000012"><a xlink:href="SpatialAudio_8hpp.html" target="_top" xlink:title=" ">
<polygon fill="white" stroke="#666666" points="741.3,-90.25 606.8,-90.25 606.8,-56.75 741.3,-56.75 741.3,-90.25"/>
<text text-anchor="start" x="614.8" y="-76.75" font-family="Helvetica,sans-Serif" font-size="10.00">include/EyeAICore/audio</text>
<text text-anchor="middle" x="674.05" y="-64" font-family="Helvetica,sans-Serif" font-size="10.00">/SpatialAudio.hpp</text>
</a>
</g>
</g>
<!-- Node11&#45;&gt;Node12 -->
<g id="edge15_Node000011_Node000012" class="edge">
<title>Node11&#45;&gt;Node12</title>
<g id="a_edge15_Node000011_Node000012"><a xlink:title=" ">
<path fill="none" stroke="#63b8ff" d="M675.83,-114.56C675.46,-106.34 675.07,-97.59 674.75,-90.38"/>
<polygon fill="#63b8ff" stroke="#63b8ff" points="672.33,-114.66 676.27,-124.49 679.32,-114.35 672.33,-114.66"/>
</a>
</g>
</g>
<!-- Node11&#45;&gt;Node14 -->
<g id="edge17_Node000011_Node000014" class="edge">
<title>Node11&#45;&gt;Node14</title>
<g id="a_edge17_Node000011_Node000014"><a xlink:title=" ">
<path fill="none" stroke="#63b8ff" d="M721.35,-120.94C747.13,-108.69 778.39,-93.83 798.49,-84.27"/>
<polygon fill="#63b8ff" stroke="#63b8ff" points="719.95,-117.73 712.43,-125.18 722.96,-124.05 719.95,-117.73"/>
</a>
</g>
</g>
<!-- Node12&#45;&gt;Node13 -->
<g id="edge16_Node000012_Node000013" class="edge">
<title>Node12&#45;&gt;Node13</title>
<g id="a_edge16_Node000012_Node000013"><a xlink:title=" ">
<path fill="none" stroke="#63b8ff" d="M654.46,-47.56C647.19,-38.3 639.37,-28.34 633.77,-21.22"/>
<polygon fill="#63b8ff" stroke="#63b8ff" points="651.57,-49.55 660.5,-55.25 657.08,-45.22 651.57,-49.55"/>
</a>
</g>
</g>
</g>
</svg>

<g id="navigator" transform="translate(0 0)" fill="#404254">
  <rect fill="#f2f5e9" fill-opacity="0.5" stroke="#606060" stroke-width=".5" x="0" y="0" width="60" height="60"/>
  <use id="zoomplus" xlink:href="#zoomPlus" x="17" y="9" onmousedown="handleZoom(evt,'in')"/>
  <use id="zoomminus" xlink:href="#zoomMin" x="42" y="9" onmousedown="handleZoom(evt,'out')"/>
  <use id="reset" xlink:href="#resetDef" x="30" y="36" onmousedown="handleReset()"/>
   <use id="arrowup" xlink:href="#arrowUp" x="0" y="0" onmousedown="handlePan(0,-1)"/>
  <use id="arrowright" xlink:href="#arrowRight" x="0" y="0" onmousedown="handlePan(1,0)"/>
  <use id="arrowdown" xlink:href="#arrowDown" x="0" y="0" onmousedown="handlePan(0,1)"/>
  <use id="arrowleft" xlink:href="#arrowLeft" x="0" y="0" onmousedown="handlePan(-1,0)"/>
</g>
<svg viewBox="0 0 15 15" width="100%" height="30px" preserveAspectRatio="xMaxYMin meet">
 <g id="arrow_out" transform="scale(0.3 0.3)">
  <a xlink:href="TfLiteUtils_8hpp__dep__incl_org.svg" target="_base">
   <rect id="button" ry="5" rx="5" y="6" x="6" height="38" width="38"
        fill="#f2f5e9" fill-opacity="0.5" stroke="#606060" stroke-width="1.0"/>
   <path id="arrow"
     d="M 11.500037,31.436501 C 11.940474,20.09759 22.043105,11.32322 32.158766,21.979434 L 37.068811,17.246167 C 37.068811,17.246167 37.088388,32 37.088388,32 L 22.160133,31.978069 C 22.160133,31.978069 26.997745,27.140456 26.997745,27.140456 C 18.528582,18.264221 13.291696,25.230495 11.500037,31.436501 z"
     style="fill:#404040;"/>
  </a>
 </g>
</svg>

<style type='text/css'>
<![CDATA[
[data-mouse-over-selected='false'] { opacity: 0.7; }
[data-mouse-over-selected='true']  { opacity: 1.0; }
]]>
</style>
<script type="application/ecmascript"><![CDATA[
document.addEventListener('DOMContentLoaded', (event) => {
  highlightEdges();
  highlightAdjacentNodes();
});
]]></script>
</svg>
