<?xml version="1.0" encoding="UTF-8" standalone="no"?>
<!DOCTYPE svg PUBLIC "-//W3C//DTD SVG 1.1//EN"
 "http://www.w3.org/Graphics/SVG/1.1/DTD/svg11.dtd">
<!-- Generated by graphviz version 2.43.0 (0)
 -->
<!-- Title: include/EyeAICore/tflite/TfLiteUtils.hpp Pages: 1 -->
<svg width="686pt" height="218pt"
 viewBox="0.00 0.00 686.00 218.00" xmlns="http://www.w3.org/2000/svg" xmlns:xlink="http://www.w3.org/1999/xlink">
<g id="graph0" class="graph" transform="scale(1 1) rotate(0) translate(4 214)">
<title>include/EyeAICore/tflite/TfLiteUtils.hpp</title>
<!-- Node1 -->
<g id="node1" class="node">
<title>Node1</title>
<g id="a_node1"><a xlink:title=" ">
<polygon fill="#bfbfbf" stroke="black" points="454.5,-179.5 454.5,-209.5 585.5,-209.5 585.5,-179.5 454.5,-179.5"/>
<text text-anchor="start" x="462.5" y="-197.5" font-family="Helvetica,sans-Serif" font-size="10.00">include/EyeAICore/tflite</text>
<text text-anchor="middle" x="520" y="-186.5" font-family="Helvetica,sans-Serif" font-size="10.00">/TfLiteUtils.hpp</text>
</a>
</g>
</g>
<!-- Node2 -->
<g id="node2" class="node">
<title>Node2</title>
<g id="a_node2"><a xlink:href="TfLiteRuntime_8hpp.html" target="_top" xlink:title=" ">
<polygon fill="none" stroke="black" points="327.5,-112.5 327.5,-142.5 458.5,-142.5 458.5,-112.5 327.5,-112.5"/>
<text text-anchor="start" x="335.5" y="-130.5" font-family="Helvetica,sans-Serif" font-size="10.00">include/EyeAICore/tflite</text>
<text text-anchor="middle" x="393" y="-119.5" font-family="Helvetica,sans-Serif" font-size="10.00">/TfLiteRuntime.hpp</text>
</a>
</g>
</g>
<!-- Node1&#45;&gt;Node2 -->
<g id="edge1" class="edge">
<title>Node1&#45;&gt;Node2</title>
<path fill="none" stroke="midnightblue" d="M483.3,-174.71C463.27,-164.46 438.88,-151.98 420.5,-142.58"/>
<polygon fill="midnightblue" stroke="midnightblue" points="481.95,-177.96 492.44,-179.4 485.14,-171.72 481.95,-177.96"/>
</g>
<!-- Node7 -->
<g id="node7" class="node">
<title>Node7</title>
<g id="a_node7"><a xlink:href="TfLiteRuntime_8cpp.html" target="_top" xlink:title=" ">
<polygon fill="none" stroke="black" points="479.5,-56.5 479.5,-75.5 628.5,-75.5 628.5,-56.5 479.5,-56.5"/>
<text text-anchor="middle" x="554" y="-63.5" font-family="Helvetica,sans-Serif" font-size="10.00">src/tflite/TfLiteRuntime.cpp</text>
</a>
</g>
</g>
<!-- Node1&#45;&gt;Node7 -->
<g id="edge9" class="edge">
<title>Node1&#45;&gt;Node7</title>
<path fill="none" stroke="midnightblue" d="M524.99,-169.45C528.53,-153.15 533.59,-131.15 539,-112 542.63,-99.16 547.67,-84.55 550.89,-75.55"/>
<polygon fill="midnightblue" stroke="midnightblue" points="521.56,-168.75 522.9,-179.26 528.41,-170.21 521.56,-168.75"/>
</g>
<!-- Node8 -->
<g id="node8" class="node">
<title>Node8</title>
<g id="a_node8"><a xlink:href="TfLiteUtils_8cpp.html" target="_top" xlink:title=" ">
<polygon fill="none" stroke="black" points="548,-118 548,-137 678,-137 678,-118 548,-118"/>
<text text-anchor="middle" x="613" y="-125" font-family="Helvetica,sans-Serif" font-size="10.00">src/tflite/TfLiteUtils.cpp</text>
</a>
</g>
</g>
<!-- Node1&#45;&gt;Node8 -->
<g id="edge10" class="edge">
<title>Node1&#45;&gt;Node8</title>
<path fill="none" stroke="midnightblue" d="M548.41,-173.64C565.96,-161.37 587.59,-146.26 600.83,-137.01"/>
<polygon fill="midnightblue" stroke="midnightblue" points="546.37,-170.8 540.18,-179.4 550.38,-176.54 546.37,-170.8"/>
</g>
<!-- Node3 -->
<g id="node3" class="node">
<title>Node3</title>
<g id="a_node3"><a xlink:href="DepthModel_8hpp.html" target="_top" xlink:title=" ">
<polygon fill="none" stroke="black" points="0,-56.5 0,-75.5 188,-75.5 188,-56.5 0,-56.5"/>
<text text-anchor="middle" x="94" y="-63.5" font-family="Helvetica,sans-Serif" font-size="10.00">include/EyeAICore/DepthModel.hpp</text>
</a>
</g>
</g>
<!-- Node2&#45;&gt;Node3 -->
<g id="edge2" class="edge">
<title>Node2&#45;&gt;Node3</title>
<path fill="none" stroke="midnightblue" d="M317.31,-111.44C260.18,-100.07 183.85,-84.88 136.85,-75.53"/>
<polygon fill="midnightblue" stroke="midnightblue" points="316.89,-114.92 327.38,-113.44 318.26,-108.06 316.89,-114.92"/>
</g>
<!-- Node4 -->
<g id="node4" class="node">
<title>Node4</title>
<g id="a_node4"><a xlink:href="DepthModel_8cpp.html" target="_top" xlink:title=" ">
<polygon fill="none" stroke="black" points="126.5,-0.5 126.5,-19.5 239.5,-19.5 239.5,-0.5 126.5,-0.5"/>
<text text-anchor="middle" x="183" y="-7.5" font-family="Helvetica,sans-Serif" font-size="10.00">src/DepthModel.cpp</text>
</a>
</g>
</g>
<!-- Node2&#45;&gt;Node4 -->
<g id="edge6" class="edge">
<title>Node2&#45;&gt;Node4</title>
<path fill="none" stroke="midnightblue" d="M317.23,-111.93C289.71,-104.24 259.4,-92.79 235,-76 212.86,-60.76 195.44,-33.35 187.57,-19.5"/>
<polygon fill="midnightblue" stroke="midnightblue" points="316.66,-115.41 327.22,-114.6 318.46,-108.64 316.66,-115.41"/>
</g>
<!-- Node5 -->
<g id="node5" class="node">
<title>Node5</title>
<g id="a_node5"><a xlink:href="YoloModel_8hpp.html" target="_top" xlink:title=" ">
<polygon fill="none" stroke="black" points="244.5,-56.5 244.5,-75.5 423.5,-75.5 423.5,-56.5 244.5,-56.5"/>
<text text-anchor="middle" x="334" y="-63.5" font-family="Helvetica,sans-Serif" font-size="10.00">include/EyeAICore/YoloModel.hpp</text>
</a>
</g>
</g>
<!-- Node2&#45;&gt;Node5 -->
<g id="edge4" class="edge">
<title>Node2&#45;&gt;Node5</title>
<path fill="none" stroke="midnightblue" d="M371.68,-105C361.63,-94.86 350.19,-83.33 342.59,-75.66"/>
<polygon fill="midnightblue" stroke="midnightblue" points="369.49,-107.76 379.02,-112.4 374.46,-102.83 369.49,-107.76"/>
</g>
<!-- Node6 -->
<g id="node6" class="node">
<title>Node6</title>
<g id="a_node6"><a xlink:href="YoloModel_8cpp.html" target="_top" xlink:title=" ">
<polygon fill="none" stroke="black" points="314,-0.5 314,-19.5 418,-19.5 418,-0.5 314,-0.5"/>
<text text-anchor="middle" x="366" y="-7.5" font-family="Helvetica,sans-Serif" font-size="10.00">src/YoloModel.cpp</text>
</a>
</g>
</g>
<!-- Node2&#45;&gt;Node6 -->
<g id="edge8" class="edge">
<title>Node2&#45;&gt;Node6</title>
<path fill="none" stroke="midnightblue" d="M417.05,-105.07C429.64,-91.15 440.77,-72.59 432,-56 422.86,-38.71 403.77,-26.82 388.46,-19.62"/>
<polygon fill="midnightblue" stroke="midnightblue" points="414.5,-102.67 410.03,-112.27 419.52,-107.55 414.5,-102.67"/>
</g>
<!-- Node2&#45;&gt;Node7 -->
<g id="edge7" class="edge">
<title>Node2&#45;&gt;Node7</title>
<path fill="none" stroke="midnightblue" d="M440.89,-108.8C470.49,-97.86 507.16,-84.31 530.57,-75.66"/>
<polygon fill="midnightblue" stroke="midnightblue" points="439.32,-105.65 431.15,-112.4 441.75,-112.22 439.32,-105.65"/>
</g>
<!-- Node3&#45;&gt;Node4 -->
<g id="edge3" class="edge">
<title>Node3&#45;&gt;Node4</title>
<path fill="none" stroke="midnightblue" d="M117.24,-50.9C133.56,-41 154.87,-28.07 168.74,-19.65"/>
<polygon fill="midnightblue" stroke="midnightblue" points="115.03,-48.14 108.3,-56.32 118.66,-54.13 115.03,-48.14"/>
</g>
<!-- Node5&#45;&gt;Node6 -->
<g id="edge5" class="edge">
<title>Node5&#45;&gt;Node6</title>
<path fill="none" stroke="midnightblue" d="M344.5,-47.27C349.97,-38.05 356.42,-27.17 360.81,-19.75"/>
<polygon fill="midnightblue" stroke="midnightblue" points="341.37,-45.7 339.28,-56.08 347.39,-49.26 341.37,-45.7"/>
</g>
</g>
</svg>
