<?xml version="1.0" encoding="UTF-8" standalone="no"?>
<!DOCTYPE svg PUBLIC "-//W3C//DTD SVG 1.1//EN"
 "http://www.w3.org/Graphics/SVG/1.1/DTD/svg11.dtd">
<!-- Generated by graphviz version 2.43.0 (0)
 -->
<!-- Title: src/tflite/TfLiteRuntime.cpp Pages: 1 -->
<svg width="1246pt" height="274pt"
 viewBox="0.00 0.00 1245.54 274.00" xmlns="http://www.w3.org/2000/svg" xmlns:xlink="http://www.w3.org/1999/xlink">
<g id="graph0" class="graph" transform="scale(1 1) rotate(0) translate(4 270)">
<title>src/tflite/TfLiteRuntime.cpp</title>
<!-- Node1 -->
<g id="node1" class="node">
<title>Node1</title>
<g id="a_node1"><a xlink:title=" ">
<polygon fill="#bfbfbf" stroke="black" points="845.04,-246.5 845.04,-265.5 994.04,-265.5 994.04,-246.5 845.04,-246.5"/>
<text text-anchor="middle" x="919.54" y="-253.5" font-family="Helvetica,sans-Serif" font-size="10.00">src/tflite/TfLiteRuntime.cpp</text>
</a>
</g>
</g>
<!-- Node2 -->
<g id="node2" class="node">
<title>Node2</title>
<g id="a_node2"><a xlink:href="TfLiteRuntime_8hpp.html" target="_top" xlink:title=" ">
<polygon fill="none" stroke="black" points="328.04,-185 328.04,-204 513.04,-204 513.04,-185 328.04,-185"/>
<text text-anchor="middle" x="420.54" y="-192" font-family="Helvetica,sans-Serif" font-size="10.00">EyeAICore/tflite/TfLiteRuntime.hpp</text>
</a>
</g>
</g>
<!-- Node1&#45;&gt;Node2 -->
<g id="edge1" class="edge">
<title>Node1&#45;&gt;Node2</title>
<path fill="none" stroke="midnightblue" d="M848.05,-246.48C756.43,-235.55 597.99,-216.66 501.87,-205.2"/>
<polygon fill="midnightblue" stroke="midnightblue" points="502.25,-201.72 491.9,-204.01 501.42,-208.67 502.25,-201.72"/>
</g>
<!-- Node11 -->
<g id="node11" class="node">
<title>Node11</title>
<g id="a_node11"><a xlink:href="TfLiteUtils_8hpp.html" target="_top" xlink:title=" ">
<polygon fill="none" stroke="black" points="376.54,-123.5 376.54,-142.5 464.54,-142.5 464.54,-123.5 376.54,-123.5"/>
<text text-anchor="middle" x="420.54" y="-130.5" font-family="Helvetica,sans-Serif" font-size="10.00">TfLiteUtils.hpp</text>
</a>
</g>
</g>
<!-- Node1&#45;&gt;Node11 -->
<g id="edge29" class="edge">
<title>Node1&#45;&gt;Node11</title>
<path fill="none" stroke="midnightblue" d="M884.45,-246.49C796.07,-225.06 564.34,-168.87 465.87,-144.99"/>
<polygon fill="midnightblue" stroke="midnightblue" points="466.47,-141.54 455.92,-142.58 464.82,-148.34 466.47,-141.54"/>
</g>
<!-- Node13 -->
<g id="node13" class="node">
<title>Node13</title>
<g id="a_node13"><a xlink:title=" ">
<polygon fill="none" stroke="#bfbfbf" points="886.54,-0.5 886.54,-19.5 936.54,-19.5 936.54,-0.5 886.54,-0.5"/>
<text text-anchor="middle" x="911.54" y="-7.5" font-family="Helvetica,sans-Serif" font-size="10.00">format</text>
</a>
</g>
</g>
<!-- Node1&#45;&gt;Node13 -->
<g id="edge34" class="edge">
<title>Node1&#45;&gt;Node13</title>
<path fill="none" stroke="midnightblue" d="M919.26,-246.32C918.11,-211.18 913.77,-79.12 912.16,-29.76"/>
<polygon fill="midnightblue" stroke="midnightblue" points="915.65,-29.46 911.82,-19.58 908.65,-29.69 915.65,-29.46"/>
</g>
<!-- Node19 -->
<g id="node19" class="node">
<title>Node19</title>
<g id="a_node19"><a xlink:href="Profiling_8hpp.html" target="_top" xlink:title=" ">
<polygon fill="none" stroke="black" points="948.04,-185 948.04,-204 1103.04,-204 1103.04,-185 948.04,-185"/>
<text text-anchor="middle" x="1025.54" y="-192" font-family="Helvetica,sans-Serif" font-size="10.00">EyeAICore/utils/Profiling.hpp</text>
</a>
</g>
</g>
<!-- Node1&#45;&gt;Node19 -->
<g id="edge30" class="edge">
<title>Node1&#45;&gt;Node19</title>
<path fill="none" stroke="midnightblue" d="M934.73,-246.48C952.2,-236.67 981.12,-220.43 1001.62,-208.92"/>
<polygon fill="midnightblue" stroke="midnightblue" points="1003.38,-211.96 1010.38,-204.01 999.95,-205.85 1003.38,-211.96"/>
</g>
<!-- Node22 -->
<g id="node22" class="node">
<title>Node22</title>
<g id="a_node22"><a xlink:title=" ">
<polygon fill="none" stroke="#bfbfbf" points="1121.54,-179.5 1121.54,-209.5 1237.54,-209.5 1237.54,-179.5 1121.54,-179.5"/>
<text text-anchor="start" x="1129.54" y="-197.5" font-family="Helvetica,sans-Serif" font-size="10.00">tensorflow/lite/c/c</text>
<text text-anchor="middle" x="1179.54" y="-186.5" font-family="Helvetica,sans-Serif" font-size="10.00">_api_experimental.h</text>
</a>
</g>
</g>
<!-- Node1&#45;&gt;Node22 -->
<g id="edge35" class="edge">
<title>Node1&#45;&gt;Node22</title>
<path fill="none" stroke="midnightblue" d="M956.79,-246.48C996.99,-237.28 1061.87,-222.43 1111.27,-211.12"/>
<polygon fill="midnightblue" stroke="midnightblue" points="1112.28,-214.48 1121.25,-208.84 1110.72,-207.66 1112.28,-214.48"/>
</g>
<!-- Node3 -->
<g id="node3" class="node">
<title>Node3</title>
<g id="a_node3"><a xlink:href="Operators_8hpp.html" target="_top" xlink:title=" ">
<polygon fill="none" stroke="black" points="423.04,-62 423.04,-81 562.04,-81 562.04,-62 423.04,-62"/>
<text text-anchor="middle" x="492.54" y="-69" font-family="Helvetica,sans-Serif" font-size="10.00">EyeAICore/Operators.hpp</text>
</a>
</g>
</g>
<!-- Node2&#45;&gt;Node3 -->
<g id="edge2" class="edge">
<title>Node2&#45;&gt;Node3</title>
<path fill="none" stroke="midnightblue" d="M432.93,-184.9C445.04,-175.84 463.15,-160.48 473.54,-143 483.04,-127.02 487.89,-106.22 490.3,-91.36"/>
<polygon fill="midnightblue" stroke="midnightblue" points="493.79,-91.72 491.71,-81.34 486.85,-90.75 493.79,-91.72"/>
</g>
<!-- Node6 -->
<g id="node6" class="node">
<title>Node6</title>
<g id="a_node6"><a xlink:title=" ">
<polygon fill="none" stroke="#bfbfbf" points="284.54,-0.5 284.54,-19.5 342.54,-19.5 342.54,-0.5 284.54,-0.5"/>
<text text-anchor="middle" x="313.54" y="-7.5" font-family="Helvetica,sans-Serif" font-size="10.00">memory</text>
</a>
</g>
</g>
<!-- Node2&#45;&gt;Node6 -->
<g id="edge25" class="edge">
<title>Node2&#45;&gt;Node6</title>
<path fill="none" stroke="midnightblue" d="M363.39,-184.98C271.35,-169.97 96.9,-135.7 60.54,-87 -29.21,33.2 -60.96,-85.7 274.51,-20.07"/>
<polygon fill="midnightblue" stroke="midnightblue" points="275.41,-23.46 284.54,-18.08 274.05,-16.6 275.41,-23.46"/>
</g>
<!-- Node8 -->
<g id="node8" class="node">
<title>Node8</title>
<g id="a_node8"><a xlink:title=" ">
<polygon fill="none" stroke="#bfbfbf" points="226.54,-0.5 226.54,-19.5 266.54,-19.5 266.54,-0.5 226.54,-0.5"/>
<text text-anchor="middle" x="246.54" y="-7.5" font-family="Helvetica,sans-Serif" font-size="10.00">span</text>
</a>
</g>
</g>
<!-- Node2&#45;&gt;Node8 -->
<g id="edge26" class="edge">
<title>Node2&#45;&gt;Node8</title>
<path fill="none" stroke="midnightblue" d="M327.73,-188.75C265.33,-183.05 182.23,-170.52 113.54,-143 72.58,-126.59 52.15,-126.03 31.54,-87 -5.66,-16.55 148.48,-9.9 216.13,-10.27"/>
<polygon fill="midnightblue" stroke="midnightblue" points="216.16,-13.77 226.2,-10.39 216.24,-6.77 216.16,-13.77"/>
</g>
<!-- Node9 -->
<g id="node9" class="node">
<title>Node9</title>
<g id="a_node9"><a xlink:title=" ">
<polygon fill="none" stroke="#bfbfbf" points="628.54,-0.5 628.54,-19.5 672.54,-19.5 672.54,-0.5 628.54,-0.5"/>
<text text-anchor="middle" x="650.54" y="-7.5" font-family="Helvetica,sans-Serif" font-size="10.00">string</text>
</a>
</g>
</g>
<!-- Node2&#45;&gt;Node9 -->
<g id="edge27" class="edge">
<title>Node2&#45;&gt;Node9</title>
<path fill="none" stroke="midnightblue" d="M438.68,-184.92C471.53,-168.81 542.06,-131.62 591.54,-87 611.04,-69.42 628.83,-44.78 639.67,-28.38"/>
<polygon fill="midnightblue" stroke="midnightblue" points="642.73,-30.09 645.2,-19.79 636.84,-26.3 642.73,-30.09"/>
</g>
<!-- Node2&#45;&gt;Node11 -->
<g id="edge10" class="edge">
<title>Node2&#45;&gt;Node11</title>
<path fill="none" stroke="midnightblue" d="M420.54,-184.98C420.54,-176.58 420.54,-163.48 420.54,-152.66"/>
<polygon fill="midnightblue" stroke="midnightblue" points="424.04,-152.51 420.54,-142.51 417.04,-152.51 424.04,-152.51"/>
</g>
<!-- Node16 -->
<g id="node16" class="node">
<title>Node16</title>
<g id="a_node16"><a xlink:title=" ">
<polygon fill="none" stroke="#bfbfbf" points="818.04,-62 818.04,-81 891.04,-81 891.04,-62 818.04,-62"/>
<text text-anchor="middle" x="854.54" y="-69" font-family="Helvetica,sans-Serif" font-size="10.00">string_view</text>
</a>
</g>
</g>
<!-- Node2&#45;&gt;Node16 -->
<g id="edge28" class="edge">
<title>Node2&#45;&gt;Node16</title>
<path fill="none" stroke="midnightblue" d="M463.83,-184.96C508.8,-175.78 581.06,-160.17 642.54,-143 706.73,-125.07 780.27,-99.45 821.68,-84.54"/>
<polygon fill="midnightblue" stroke="midnightblue" points="823.03,-87.77 831.24,-81.08 820.65,-81.19 823.03,-87.77"/>
</g>
<!-- Node17 -->
<g id="node17" class="node">
<title>Node17</title>
<g id="a_node17"><a xlink:title=" ">
<polygon fill="none" stroke="#bfbfbf" points="70.04,-56.5 70.04,-86.5 173.04,-86.5 173.04,-56.5 70.04,-56.5"/>
<text text-anchor="start" x="78.04" y="-74.5" font-family="Helvetica,sans-Serif" font-size="10.00">tensorflow/lite/c/c</text>
<text text-anchor="middle" x="121.54" y="-63.5" font-family="Helvetica,sans-Serif" font-size="10.00">_api.h</text>
</a>
</g>
</g>
<!-- Node2&#45;&gt;Node17 -->
<g id="edge23" class="edge">
<title>Node2&#45;&gt;Node17</title>
<path fill="none" stroke="midnightblue" d="M399.52,-184.99C351.22,-165.45 231.48,-116.99 166.02,-90.5"/>
<polygon fill="midnightblue" stroke="midnightblue" points="166.97,-87.11 156.38,-86.6 164.34,-93.6 166.97,-87.11"/>
</g>
<!-- Node18 -->
<g id="node18" class="node">
<title>Node18</title>
<g id="a_node18"><a xlink:title=" ">
<polygon fill="none" stroke="#bfbfbf" points="191.04,-56.5 191.04,-86.5 328.04,-86.5 328.04,-56.5 191.04,-56.5"/>
<text text-anchor="start" x="199.04" y="-74.5" font-family="Helvetica,sans-Serif" font-size="10.00">tensorflow/lite/delegates</text>
<text text-anchor="middle" x="259.54" y="-63.5" font-family="Helvetica,sans-Serif" font-size="10.00">/gpu/delegate.h</text>
</a>
</g>
</g>
<!-- Node2&#45;&gt;Node18 -->
<g id="edge24" class="edge">
<title>Node2&#45;&gt;Node18</title>
<path fill="none" stroke="midnightblue" d="M409.22,-184.99C383.91,-165.97 322.15,-119.56 286.37,-92.67"/>
<polygon fill="midnightblue" stroke="midnightblue" points="288.4,-89.81 278.3,-86.6 284.19,-95.41 288.4,-89.81"/>
</g>
<!-- Node4 -->
<g id="node4" class="node">
<title>Node4</title>
<g id="a_node4"><a xlink:title=" ">
<polygon fill="none" stroke="#bfbfbf" points="360.54,-0.5 360.54,-19.5 402.54,-19.5 402.54,-0.5 360.54,-0.5"/>
<text text-anchor="middle" x="381.54" y="-7.5" font-family="Helvetica,sans-Serif" font-size="10.00">array</text>
</a>
</g>
</g>
<!-- Node3&#45;&gt;Node4 -->
<g id="edge3" class="edge">
<title>Node3&#45;&gt;Node4</title>
<path fill="none" stroke="midnightblue" d="M476.64,-61.98C458.26,-52.12 427.79,-35.79 406.3,-24.27"/>
<polygon fill="midnightblue" stroke="midnightblue" points="407.88,-21.15 397.42,-19.51 404.58,-27.32 407.88,-21.15"/>
</g>
<!-- Node5 -->
<g id="node5" class="node">
<title>Node5</title>
<g id="a_node5"><a xlink:title=" ">
<polygon fill="none" stroke="#bfbfbf" points="486.54,-0.5 486.54,-19.5 536.54,-19.5 536.54,-0.5 486.54,-0.5"/>
<text text-anchor="middle" x="511.54" y="-7.5" font-family="Helvetica,sans-Serif" font-size="10.00">cstdint</text>
</a>
</g>
</g>
<!-- Node3&#45;&gt;Node5 -->
<g id="edge4" class="edge">
<title>Node3&#45;&gt;Node5</title>
<path fill="none" stroke="midnightblue" d="M495.26,-61.98C497.97,-53.49 502.22,-40.2 505.69,-29.32"/>
<polygon fill="midnightblue" stroke="midnightblue" points="509.12,-30.1 508.82,-19.51 502.45,-27.97 509.12,-30.1"/>
</g>
<!-- Node3&#45;&gt;Node6 -->
<g id="edge5" class="edge">
<title>Node3&#45;&gt;Node6</title>
<path fill="none" stroke="midnightblue" d="M466.9,-61.98C435.92,-51.68 383.67,-34.31 348.89,-22.75"/>
<polygon fill="midnightblue" stroke="midnightblue" points="349.73,-19.34 339.14,-19.51 347.53,-25.98 349.73,-19.34"/>
</g>
<!-- Node7 -->
<g id="node7" class="node">
<title>Node7</title>
<g id="a_node7"><a xlink:title=" ">
<polygon fill="none" stroke="#bfbfbf" points="554.54,-0.5 554.54,-19.5 610.54,-19.5 610.54,-0.5 554.54,-0.5"/>
<text text-anchor="middle" x="582.54" y="-7.5" font-family="Helvetica,sans-Serif" font-size="10.00">optional</text>
</a>
</g>
</g>
<!-- Node3&#45;&gt;Node7 -->
<g id="edge6" class="edge">
<title>Node3&#45;&gt;Node7</title>
<path fill="none" stroke="midnightblue" d="M505.44,-61.98C520.01,-52.34 543.94,-36.52 561.29,-25.05"/>
<polygon fill="midnightblue" stroke="midnightblue" points="563.26,-27.94 569.67,-19.51 559.4,-22.1 563.26,-27.94"/>
</g>
<!-- Node3&#45;&gt;Node8 -->
<g id="edge7" class="edge">
<title>Node3&#45;&gt;Node8</title>
<path fill="none" stroke="midnightblue" d="M451.93,-61.97C410.22,-53 343.23,-38.04 276.59,-20.14"/>
<polygon fill="midnightblue" stroke="midnightblue" points="277.34,-16.72 266.77,-17.48 275.51,-23.47 277.34,-16.72"/>
</g>
<!-- Node3&#45;&gt;Node9 -->
<g id="edge8" class="edge">
<title>Node3&#45;&gt;Node9</title>
<path fill="none" stroke="midnightblue" d="M515.18,-61.98C542.44,-51.71 588.37,-34.41 619.07,-22.85"/>
<polygon fill="midnightblue" stroke="midnightblue" points="620.33,-26.12 628.46,-19.32 617.86,-19.57 620.33,-26.12"/>
</g>
<!-- Node10 -->
<g id="node10" class="node">
<title>Node10</title>
<g id="a_node10"><a xlink:title=" ">
<polygon fill="none" stroke="#bfbfbf" points="421.04,-0.5 421.04,-19.5 468.04,-19.5 468.04,-0.5 421.04,-0.5"/>
<text text-anchor="middle" x="444.54" y="-7.5" font-family="Helvetica,sans-Serif" font-size="10.00">vector</text>
</a>
</g>
</g>
<!-- Node3&#45;&gt;Node10 -->
<g id="edge9" class="edge">
<title>Node3&#45;&gt;Node10</title>
<path fill="none" stroke="midnightblue" d="M485.66,-61.98C478.39,-52.96 466.75,-38.52 457.7,-27.31"/>
<polygon fill="midnightblue" stroke="midnightblue" points="460.41,-25.09 451.41,-19.51 454.96,-29.49 460.41,-25.09"/>
</g>
<!-- Node11&#45;&gt;Node3 -->
<g id="edge11" class="edge">
<title>Node11&#45;&gt;Node3</title>
<path fill="none" stroke="midnightblue" d="M430.86,-123.48C442.19,-114.11 460.61,-98.88 474.38,-87.51"/>
<polygon fill="midnightblue" stroke="midnightblue" points="476.77,-90.08 482.24,-81.01 472.31,-84.68 476.77,-90.08"/>
</g>
<!-- Node11&#45;&gt;Node6 -->
<g id="edge17" class="edge">
<title>Node11&#45;&gt;Node6</title>
<path fill="none" stroke="midnightblue" d="M416.08,-123.39C408.17,-108.61 390.61,-77.88 370.54,-56 360.05,-44.56 346.47,-33.72 335.2,-25.54"/>
<polygon fill="midnightblue" stroke="midnightblue" points="336.95,-22.49 326.75,-19.6 332.92,-28.22 336.95,-22.49"/>
</g>
<!-- Node11&#45;&gt;Node7 -->
<g id="edge18" class="edge">
<title>Node11&#45;&gt;Node7</title>
<path fill="none" stroke="midnightblue" d="M464.71,-131.06C499.06,-127.82 545.17,-117.53 571.54,-87 585,-71.42 586.22,-47 585.08,-30.06"/>
<polygon fill="midnightblue" stroke="midnightblue" points="588.52,-29.32 584.03,-19.73 581.56,-30.03 588.52,-29.32"/>
</g>
<!-- Node11&#45;&gt;Node8 -->
<g id="edge19" class="edge">
<title>Node11&#45;&gt;Node8</title>
<path fill="none" stroke="midnightblue" d="M410.94,-123.39C400.86,-114.35 384.56,-99.7 370.54,-87 355.39,-73.27 353.4,-67.57 336.54,-56 317.58,-42.99 294.33,-31.46 276.21,-23.33"/>
<polygon fill="midnightblue" stroke="midnightblue" points="277.29,-19.98 266.73,-19.18 274.48,-26.4 277.29,-19.98"/>
</g>
<!-- Node12 -->
<g id="node12" class="node">
<title>Node12</title>
<g id="a_node12"><a xlink:href="Errors_8hpp.html" target="_top" xlink:title=" ">
<polygon fill="none" stroke="black" points="657.04,-62 657.04,-81 800.04,-81 800.04,-62 657.04,-62"/>
<text text-anchor="middle" x="728.54" y="-69" font-family="Helvetica,sans-Serif" font-size="10.00">EyeAICore/utils/Errors.hpp</text>
</a>
</g>
</g>
<!-- Node11&#45;&gt;Node12 -->
<g id="edge12" class="edge">
<title>Node11&#45;&gt;Node12</title>
<path fill="none" stroke="midnightblue" d="M464.67,-123.48C520.02,-112.78 614.88,-94.46 674.51,-82.94"/>
<polygon fill="midnightblue" stroke="midnightblue" points="675.34,-86.34 684.49,-81.01 674.01,-79.47 675.34,-86.34"/>
</g>
<!-- Node11&#45;&gt;Node16 -->
<g id="edge20" class="edge">
<title>Node11&#45;&gt;Node16</title>
<path fill="none" stroke="midnightblue" d="M464.76,-129.72C537.41,-125.34 686.29,-113.71 809.54,-87 813.4,-86.16 817.4,-85.13 821.35,-84"/>
<polygon fill="midnightblue" stroke="midnightblue" points="822.42,-87.33 830.96,-81.06 820.37,-80.64 822.42,-87.33"/>
</g>
<!-- Node11&#45;&gt;Node17 -->
<g id="edge21" class="edge">
<title>Node11&#45;&gt;Node17</title>
<path fill="none" stroke="midnightblue" d="M376.36,-124.38C330.35,-116.28 255.98,-102.77 183.03,-87.26"/>
<polygon fill="midnightblue" stroke="midnightblue" points="183.72,-83.83 173.21,-85.16 182.26,-90.68 183.72,-83.83"/>
</g>
<!-- Node11&#45;&gt;Node18 -->
<g id="edge22" class="edge">
<title>Node11&#45;&gt;Node18</title>
<path fill="none" stroke="midnightblue" d="M397.47,-123.48C373.94,-114.78 336.73,-101.03 306.89,-90"/>
<polygon fill="midnightblue" stroke="midnightblue" points="308.08,-86.71 297.49,-86.52 305.65,-93.27 308.08,-86.71"/>
</g>
<!-- Node12&#45;&gt;Node9 -->
<g id="edge14" class="edge">
<title>Node12&#45;&gt;Node9</title>
<path fill="none" stroke="midnightblue" d="M717.37,-61.98C704.97,-52.52 684.75,-37.1 669.8,-25.69"/>
<polygon fill="midnightblue" stroke="midnightblue" points="671.77,-22.79 661.7,-19.51 667.52,-28.36 671.77,-22.79"/>
</g>
<!-- Node12&#45;&gt;Node13 -->
<g id="edge13" class="edge">
<title>Node12&#45;&gt;Node13</title>
<path fill="none" stroke="midnightblue" d="M754.76,-61.98C786.69,-51.59 840.76,-34.01 876.31,-22.46"/>
<polygon fill="midnightblue" stroke="midnightblue" points="877.83,-25.64 886.25,-19.22 875.66,-18.99 877.83,-25.64"/>
</g>
<!-- Node14 -->
<g id="node14" class="node">
<title>Node14</title>
<g id="a_node14"><a xlink:title=" ">
<polygon fill="none" stroke="#bfbfbf" points="690.54,-0.5 690.54,-19.5 782.54,-19.5 782.54,-0.5 690.54,-0.5"/>
<text text-anchor="middle" x="736.54" y="-7.5" font-family="Helvetica,sans-Serif" font-size="10.00">tl/expected.hpp</text>
</a>
</g>
</g>
<!-- Node12&#45;&gt;Node14 -->
<g id="edge15" class="edge">
<title>Node12&#45;&gt;Node14</title>
<path fill="none" stroke="midnightblue" d="M729.69,-61.98C730.82,-53.58 732.58,-40.48 734.03,-29.66"/>
<polygon fill="midnightblue" stroke="midnightblue" points="737.53,-29.89 735.4,-19.51 730.6,-28.95 737.53,-29.89"/>
</g>
<!-- Node15 -->
<g id="node15" class="node">
<title>Node15</title>
<g id="a_node15"><a xlink:title=" ">
<polygon fill="none" stroke="#bfbfbf" points="801.04,-0.5 801.04,-19.5 852.04,-19.5 852.04,-0.5 801.04,-0.5"/>
<text text-anchor="middle" x="826.54" y="-7.5" font-family="Helvetica,sans-Serif" font-size="10.00">variant</text>
</a>
</g>
</g>
<!-- Node12&#45;&gt;Node15 -->
<g id="edge16" class="edge">
<title>Node12&#45;&gt;Node15</title>
<path fill="none" stroke="midnightblue" d="M742.58,-61.98C758.59,-52.25 784.99,-36.23 803.92,-24.74"/>
<polygon fill="midnightblue" stroke="midnightblue" points="805.8,-27.69 812.53,-19.51 802.16,-21.71 805.8,-27.69"/>
</g>
<!-- Node19&#45;&gt;Node16 -->
<g id="edge33" class="edge">
<title>Node19&#45;&gt;Node16</title>
<path fill="none" stroke="midnightblue" d="M1013.52,-184.99C984.64,-164.56 911.12,-112.54 875.09,-87.04"/>
<polygon fill="midnightblue" stroke="midnightblue" points="876.97,-84.08 866.78,-81.16 872.92,-89.79 876.97,-84.08"/>
</g>
<!-- Node20 -->
<g id="node20" class="node">
<title>Node20</title>
<g id="a_node20"><a xlink:title=" ">
<polygon fill="none" stroke="#bfbfbf" points="974.54,-123.5 974.54,-142.5 1024.54,-142.5 1024.54,-123.5 974.54,-123.5"/>
<text text-anchor="middle" x="999.54" y="-130.5" font-family="Helvetica,sans-Serif" font-size="10.00">chrono</text>
</a>
</g>
</g>
<!-- Node19&#45;&gt;Node20 -->
<g id="edge31" class="edge">
<title>Node19&#45;&gt;Node20</title>
<path fill="none" stroke="midnightblue" d="M1021.82,-184.98C1018.07,-176.4 1012.18,-162.93 1007.4,-151.98"/>
<polygon fill="midnightblue" stroke="midnightblue" points="1010.47,-150.27 1003.26,-142.51 1004.06,-153.07 1010.47,-150.27"/>
</g>
<!-- Node21 -->
<g id="node21" class="node">
<title>Node21</title>
<g id="a_node21"><a xlink:title=" ">
<polygon fill="none" stroke="#bfbfbf" points="1043.04,-123.5 1043.04,-142.5 1150.04,-142.5 1150.04,-123.5 1043.04,-123.5"/>
<text text-anchor="middle" x="1096.54" y="-130.5" font-family="Helvetica,sans-Serif" font-size="10.00">concurrentqueue.h</text>
</a>
</g>
</g>
<!-- Node19&#45;&gt;Node21 -->
<g id="edge32" class="edge">
<title>Node19&#45;&gt;Node21</title>
<path fill="none" stroke="midnightblue" d="M1035.71,-184.98C1046.89,-175.61 1065.06,-160.38 1078.63,-149.01"/>
<polygon fill="midnightblue" stroke="midnightblue" points="1080.97,-151.61 1086.39,-142.51 1076.48,-146.25 1080.97,-151.61"/>
</g>
</g>
</svg>
