<?xml version="1.0" encoding="UTF-8" standalone="no"?>
<!DOCTYPE svg PUBLIC "-//W3C//DTD SVG 1.1//EN"
 "http://www.w3.org/Graphics/SVG/1.1/DTD/svg11.dtd">
<!-- Generated by graphviz version 2.43.0 (0)
 -->
<!-- Title: include/EyeAICore/tflite/TfLiteUtils.hpp Pages: 1 -->
<svg width="911pt" height="162pt"
 viewBox="0.00 0.00 910.50 162.00" xmlns="http://www.w3.org/2000/svg" xmlns:xlink="http://www.w3.org/1999/xlink">
<g id="graph0" class="graph" transform="scale(1 1) rotate(0) translate(4 158)">
<title>include/EyeAICore/tflite/TfLiteUtils.hpp</title>
<!-- Node1 -->
<g id="node1" class="node">
<title>Node1</title>
<g id="a_node1"><a xlink:title=" ">
<polygon fill="#bfbfbf" stroke="black" points="348.5,-123.5 348.5,-153.5 479.5,-153.5 479.5,-123.5 348.5,-123.5"/>
<text text-anchor="start" x="356.5" y="-141.5" font-family="Helvetica,sans-Serif" font-size="10.00">include/EyeAICore/tflite</text>
<text text-anchor="middle" x="414" y="-130.5" font-family="Helvetica,sans-Serif" font-size="10.00">/TfLiteUtils.hpp</text>
</a>
</g>
</g>
<!-- Node2 -->
<g id="node2" class="node">
<title>Node2</title>
<g id="a_node2"><a xlink:href="Operators_8hpp.html" target="_top" xlink:title=" ">
<polygon fill="none" stroke="black" points="158.5,-62 158.5,-81 297.5,-81 297.5,-62 158.5,-62"/>
<text text-anchor="middle" x="228" y="-69" font-family="Helvetica,sans-Serif" font-size="10.00">EyeAICore/Operators.hpp</text>
</a>
</g>
</g>
<!-- Node1&#45;&gt;Node2 -->
<g id="edge1" class="edge">
<title>Node1&#45;&gt;Node2</title>
<path fill="none" stroke="midnightblue" d="M373.64,-123.4C340.28,-111.74 293.45,-95.37 261.98,-84.38"/>
<polygon fill="midnightblue" stroke="midnightblue" points="262.94,-81 252.34,-81.01 260.63,-87.61 262.94,-81"/>
</g>
<!-- Node5 -->
<g id="node5" class="node">
<title>Node5</title>
<g id="a_node5"><a xlink:title=" ">
<polygon fill="none" stroke="#bfbfbf" points="0,-0.5 0,-19.5 58,-19.5 58,-0.5 0,-0.5"/>
<text text-anchor="middle" x="29" y="-7.5" font-family="Helvetica,sans-Serif" font-size="10.00">memory</text>
</a>
</g>
</g>
<!-- Node1&#45;&gt;Node5 -->
<g id="edge14" class="edge">
<title>Node1&#45;&gt;Node5</title>
<path fill="none" stroke="midnightblue" d="M348.38,-131.92C293.55,-125.64 214.12,-112.74 149,-87 110.13,-71.63 70.12,-43.3 47.53,-25.9"/>
<polygon fill="midnightblue" stroke="midnightblue" points="49.52,-23.02 39.49,-19.61 45.21,-28.53 49.52,-23.02"/>
</g>
<!-- Node6 -->
<g id="node6" class="node">
<title>Node6</title>
<g id="a_node6"><a xlink:title=" ">
<polygon fill="none" stroke="#bfbfbf" points="270,-0.5 270,-19.5 326,-19.5 326,-0.5 270,-0.5"/>
<text text-anchor="middle" x="298" y="-7.5" font-family="Helvetica,sans-Serif" font-size="10.00">optional</text>
</a>
</g>
</g>
<!-- Node1&#45;&gt;Node6 -->
<g id="edge15" class="edge">
<title>Node1&#45;&gt;Node6</title>
<path fill="none" stroke="midnightblue" d="M401.14,-123.48C379.52,-99.9 335.99,-52.43 313.01,-27.36"/>
<polygon fill="midnightblue" stroke="midnightblue" points="315.4,-24.79 306.06,-19.79 310.24,-29.52 315.4,-24.79"/>
</g>
<!-- Node7 -->
<g id="node7" class="node">
<title>Node7</title>
<g id="a_node7"><a xlink:title=" ">
<polygon fill="none" stroke="#bfbfbf" points="344,-0.5 344,-19.5 384,-19.5 384,-0.5 344,-0.5"/>
<text text-anchor="middle" x="364" y="-7.5" font-family="Helvetica,sans-Serif" font-size="10.00">span</text>
</a>
</g>
</g>
<!-- Node1&#45;&gt;Node7 -->
<g id="edge16" class="edge">
<title>Node1&#45;&gt;Node7</title>
<path fill="none" stroke="midnightblue" d="M403.52,-123.12C396.83,-113.34 388.42,-99.9 383,-87 375.11,-68.23 369.96,-45.43 367.03,-29.73"/>
<polygon fill="midnightblue" stroke="midnightblue" points="370.45,-28.96 365.29,-19.71 363.55,-30.16 370.45,-28.96"/>
</g>
<!-- Node10 -->
<g id="node10" class="node">
<title>Node10</title>
<g id="a_node10"><a xlink:href="Errors_8hpp.html" target="_top" xlink:title=" ">
<polygon fill="none" stroke="black" points="392.5,-62 392.5,-81 535.5,-81 535.5,-62 392.5,-62"/>
<text text-anchor="middle" x="464" y="-69" font-family="Helvetica,sans-Serif" font-size="10.00">EyeAICore/utils/Errors.hpp</text>
</a>
</g>
</g>
<!-- Node1&#45;&gt;Node10 -->
<g id="edge9" class="edge">
<title>Node1&#45;&gt;Node10</title>
<path fill="none" stroke="midnightblue" d="M424.85,-123.4C432.57,-113.36 442.97,-99.84 451.11,-89.25"/>
<polygon fill="midnightblue" stroke="midnightblue" points="453.99,-91.25 457.31,-81.19 448.44,-86.99 453.99,-91.25"/>
</g>
<!-- Node14 -->
<g id="node14" class="node">
<title>Node14</title>
<g id="a_node14"><a xlink:title=" ">
<polygon fill="none" stroke="#bfbfbf" points="553.5,-62 553.5,-81 626.5,-81 626.5,-62 553.5,-62"/>
<text text-anchor="middle" x="590" y="-69" font-family="Helvetica,sans-Serif" font-size="10.00">string_view</text>
</a>
</g>
</g>
<!-- Node1&#45;&gt;Node14 -->
<g id="edge17" class="edge">
<title>Node1&#45;&gt;Node14</title>
<path fill="none" stroke="midnightblue" d="M452.19,-123.4C483.62,-111.79 527.68,-95.51 557.46,-84.52"/>
<polygon fill="midnightblue" stroke="midnightblue" points="558.8,-87.75 566.97,-81.01 556.37,-81.19 558.8,-87.75"/>
</g>
<!-- Node15 -->
<g id="node15" class="node">
<title>Node15</title>
<g id="a_node15"><a xlink:title=" ">
<polygon fill="none" stroke="#bfbfbf" points="644.5,-56.5 644.5,-86.5 747.5,-86.5 747.5,-56.5 644.5,-56.5"/>
<text text-anchor="start" x="652.5" y="-74.5" font-family="Helvetica,sans-Serif" font-size="10.00">tensorflow/lite/c/c</text>
<text text-anchor="middle" x="696" y="-63.5" font-family="Helvetica,sans-Serif" font-size="10.00">_api.h</text>
</a>
</g>
</g>
<!-- Node1&#45;&gt;Node15 -->
<g id="edge18" class="edge">
<title>Node1&#45;&gt;Node15</title>
<path fill="none" stroke="midnightblue" d="M476.73,-123.47C518.87,-113.98 575.92,-101.04 634.5,-87.34"/>
<polygon fill="midnightblue" stroke="midnightblue" points="635.36,-90.73 644.3,-85.04 633.77,-83.92 635.36,-90.73"/>
</g>
<!-- Node16 -->
<g id="node16" class="node">
<title>Node16</title>
<g id="a_node16"><a xlink:title=" ">
<polygon fill="none" stroke="#bfbfbf" points="765.5,-56.5 765.5,-86.5 902.5,-86.5 902.5,-56.5 765.5,-56.5"/>
<text text-anchor="start" x="773.5" y="-74.5" font-family="Helvetica,sans-Serif" font-size="10.00">tensorflow/lite/delegates</text>
<text text-anchor="middle" x="834" y="-63.5" font-family="Helvetica,sans-Serif" font-size="10.00">/gpu/delegate.h</text>
</a>
</g>
</g>
<!-- Node1&#45;&gt;Node16 -->
<g id="edge19" class="edge">
<title>Node1&#45;&gt;Node16</title>
<path fill="none" stroke="midnightblue" d="M479.56,-128.64C546.45,-119.42 653.51,-104.17 755.05,-87.29"/>
<polygon fill="midnightblue" stroke="midnightblue" points="755.89,-90.7 765.18,-85.6 754.74,-83.8 755.89,-90.7"/>
</g>
<!-- Node3 -->
<g id="node3" class="node">
<title>Node3</title>
<g id="a_node3"><a xlink:title=" ">
<polygon fill="none" stroke="#bfbfbf" points="76,-0.5 76,-19.5 118,-19.5 118,-0.5 76,-0.5"/>
<text text-anchor="middle" x="97" y="-7.5" font-family="Helvetica,sans-Serif" font-size="10.00">array</text>
</a>
</g>
</g>
<!-- Node2&#45;&gt;Node3 -->
<g id="edge2" class="edge">
<title>Node2&#45;&gt;Node3</title>
<path fill="none" stroke="midnightblue" d="M209.23,-61.98C187.15,-51.95 150.28,-35.2 124.86,-23.65"/>
<polygon fill="midnightblue" stroke="midnightblue" points="126.29,-20.46 115.73,-19.51 123.39,-26.83 126.29,-20.46"/>
</g>
<!-- Node4 -->
<g id="node4" class="node">
<title>Node4</title>
<g id="a_node4"><a xlink:title=" ">
<polygon fill="none" stroke="#bfbfbf" points="136,-0.5 136,-19.5 186,-19.5 186,-0.5 136,-0.5"/>
<text text-anchor="middle" x="161" y="-7.5" font-family="Helvetica,sans-Serif" font-size="10.00">cstdint</text>
</a>
</g>
</g>
<!-- Node2&#45;&gt;Node4 -->
<g id="edge3" class="edge">
<title>Node2&#45;&gt;Node4</title>
<path fill="none" stroke="midnightblue" d="M218.4,-61.98C207.95,-52.7 191.03,-37.67 178.26,-26.33"/>
<polygon fill="midnightblue" stroke="midnightblue" points="180.38,-23.53 170.58,-19.51 175.73,-28.77 180.38,-23.53"/>
</g>
<!-- Node2&#45;&gt;Node5 -->
<g id="edge4" class="edge">
<title>Node2&#45;&gt;Node5</title>
<path fill="none" stroke="midnightblue" d="M199.49,-61.98C164.76,-51.59 105.96,-34.01 67.31,-22.45"/>
<polygon fill="midnightblue" stroke="midnightblue" points="68.04,-19.02 57.46,-19.51 66.04,-25.73 68.04,-19.02"/>
</g>
<!-- Node2&#45;&gt;Node6 -->
<g id="edge5" class="edge">
<title>Node2&#45;&gt;Node6</title>
<path fill="none" stroke="midnightblue" d="M238.03,-61.98C249.05,-52.61 266.96,-37.38 280.34,-26.01"/>
<polygon fill="midnightblue" stroke="midnightblue" points="282.64,-28.65 287.99,-19.51 278.1,-23.32 282.64,-28.65"/>
</g>
<!-- Node2&#45;&gt;Node7 -->
<g id="edge6" class="edge">
<title>Node2&#45;&gt;Node7</title>
<path fill="none" stroke="midnightblue" d="M247.49,-61.98C270.41,-51.95 308.69,-35.2 335.08,-23.65"/>
<polygon fill="midnightblue" stroke="midnightblue" points="336.79,-26.72 344.55,-19.51 333.99,-20.31 336.79,-26.72"/>
</g>
<!-- Node8 -->
<g id="node8" class="node">
<title>Node8</title>
<g id="a_node8"><a xlink:title=" ">
<polygon fill="none" stroke="#bfbfbf" points="402,-0.5 402,-19.5 446,-19.5 446,-0.5 402,-0.5"/>
<text text-anchor="middle" x="424" y="-7.5" font-family="Helvetica,sans-Serif" font-size="10.00">string</text>
</a>
</g>
</g>
<!-- Node2&#45;&gt;Node8 -->
<g id="edge7" class="edge">
<title>Node2&#45;&gt;Node8</title>
<path fill="none" stroke="midnightblue" d="M256.08,-61.98C291.98,-51.08 353.99,-32.25 391.77,-20.78"/>
<polygon fill="midnightblue" stroke="midnightblue" points="393.19,-24.01 401.74,-17.76 391.16,-17.31 393.19,-24.01"/>
</g>
<!-- Node9 -->
<g id="node9" class="node">
<title>Node9</title>
<g id="a_node9"><a xlink:title=" ">
<polygon fill="none" stroke="#bfbfbf" points="204.5,-0.5 204.5,-19.5 251.5,-19.5 251.5,-0.5 204.5,-0.5"/>
<text text-anchor="middle" x="228" y="-7.5" font-family="Helvetica,sans-Serif" font-size="10.00">vector</text>
</a>
</g>
</g>
<!-- Node2&#45;&gt;Node9 -->
<g id="edge8" class="edge">
<title>Node2&#45;&gt;Node9</title>
<path fill="none" stroke="midnightblue" d="M228,-61.98C228,-53.58 228,-40.48 228,-29.66"/>
<polygon fill="midnightblue" stroke="midnightblue" points="231.5,-29.51 228,-19.51 224.5,-29.51 231.5,-29.51"/>
</g>
<!-- Node10&#45;&gt;Node8 -->
<g id="edge11" class="edge">
<title>Node10&#45;&gt;Node8</title>
<path fill="none" stroke="midnightblue" d="M458.27,-61.98C452.33,-53.14 442.88,-39.09 435.41,-27.98"/>
<polygon fill="midnightblue" stroke="midnightblue" points="438.2,-25.86 429.72,-19.51 432.39,-29.76 438.2,-25.86"/>
</g>
<!-- Node11 -->
<g id="node11" class="node">
<title>Node11</title>
<g id="a_node11"><a xlink:title=" ">
<polygon fill="none" stroke="#bfbfbf" points="464,-0.5 464,-19.5 514,-19.5 514,-0.5 464,-0.5"/>
<text text-anchor="middle" x="489" y="-7.5" font-family="Helvetica,sans-Serif" font-size="10.00">format</text>
</a>
</g>
</g>
<!-- Node10&#45;&gt;Node11 -->
<g id="edge10" class="edge">
<title>Node10&#45;&gt;Node11</title>
<path fill="none" stroke="midnightblue" d="M467.58,-61.98C471.18,-53.4 476.85,-39.93 481.44,-28.98"/>
<polygon fill="midnightblue" stroke="midnightblue" points="484.78,-30.08 485.42,-19.51 478.32,-27.37 484.78,-30.08"/>
</g>
<!-- Node12 -->
<g id="node12" class="node">
<title>Node12</title>
<g id="a_node12"><a xlink:title=" ">
<polygon fill="none" stroke="#bfbfbf" points="532,-0.5 532,-19.5 624,-19.5 624,-0.5 532,-0.5"/>
<text text-anchor="middle" x="578" y="-7.5" font-family="Helvetica,sans-Serif" font-size="10.00">tl/expected.hpp</text>
</a>
</g>
</g>
<!-- Node10&#45;&gt;Node12 -->
<g id="edge12" class="edge">
<title>Node10&#45;&gt;Node12</title>
<path fill="none" stroke="midnightblue" d="M480.33,-61.98C499.21,-52.12 530.51,-35.79 552.58,-24.27"/>
<polygon fill="midnightblue" stroke="midnightblue" points="554.45,-27.24 561.7,-19.51 551.21,-21.03 554.45,-27.24"/>
</g>
<!-- Node13 -->
<g id="node13" class="node">
<title>Node13</title>
<g id="a_node13"><a xlink:title=" ">
<polygon fill="none" stroke="#bfbfbf" points="642.5,-0.5 642.5,-19.5 693.5,-19.5 693.5,-0.5 642.5,-0.5"/>
<text text-anchor="middle" x="668" y="-7.5" font-family="Helvetica,sans-Serif" font-size="10.00">variant</text>
</a>
</g>
</g>
<!-- Node10&#45;&gt;Node13 -->
<g id="edge13" class="edge">
<title>Node10&#45;&gt;Node13</title>
<path fill="none" stroke="midnightblue" d="M493.23,-61.98C530.02,-51.24 593.16,-32.83 632.63,-21.31"/>
<polygon fill="midnightblue" stroke="midnightblue" points="633.75,-24.64 642.37,-18.47 631.79,-17.92 633.75,-24.64"/>
</g>
</g>
</svg>
