<?xml version="1.0" encoding="UTF-8" standalone="no"?>
<!DOCTYPE svg PUBLIC "-//W3C//DTD SVG 1.1//EN"
 "http://www.w3.org/Graphics/SVG/1.1/DTD/svg11.dtd">
<!-- Generated by graphviz version 12.2.1 (20241206.2353)
 -->
<!-- Title: include/EyeAICore/tflite/TfLiteRuntime.hpp Pages: 1 -->
<svg width="590pt" height="152pt"
 viewBox="0.00 0.00 590.25 152.00" xmlns="http://www.w3.org/2000/svg" xmlns:xlink="http://www.w3.org/1999/xlink">
<g id="graph0" class="graph" transform="scale(1 1) rotate(0) translate(4 148)">
<title>include/EyeAICore/tflite/TfLiteRuntime.hpp</title>
<!-- Node1 -->
<g id="Node000001" class="node">
<title>Node1</title>
<g id="a_Node000001"><a xlink:title=" ">
<polygon fill="#999999" stroke="#666666" points="369.75,-144 250.25,-144 250.25,-112 369.75,-112 369.75,-144"/>
<text text-anchor="start" x="258.25" y="-130.5" font-family="Helvetica,sans-Serif" font-size="10.00">include/EyeAICore/tflite</text>
<text text-anchor="middle" x="310" y="-118.5" font-family="Helvetica,sans-Serif" font-size="10.00">/TfLiteRuntime.hpp</text>
</a>
</g>
</g>
<!-- Node2 -->
<g id="Node000002" class="node">
<title>Node2</title>
<g id="a_Node000002"><a xlink:href="DepthModel_8hpp.html" target="_top" xlink:title=" ">
<polygon fill="white" stroke="#666666" points="172,-76 0,-76 0,-56 172,-56 172,-76"/>
<text text-anchor="middle" x="86" y="-62.5" font-family="Helvetica,sans-Serif" font-size="10.00">include/EyeAICore/DepthModel.hpp</text>
</a>
</g>
</g>
<!-- Node1&#45;&gt;Node2 -->
<g id="edge1_Node000001_Node000002" class="edge">
<title>Node1&#45;&gt;Node2</title>
<g id="a_edge1_Node000001_Node000002"><a xlink:title=" ">
<path fill="none" stroke="#63b8ff" d="M241.39,-108.62C201.76,-98.01 153.56,-85.1 121.45,-76.5"/>
<polygon fill="#63b8ff" stroke="#63b8ff" points="240.29,-111.95 250.85,-111.16 242.1,-105.19 240.29,-111.95"/>
</a>
</g>
</g>
<!-- Node3 -->
<g id="Node000003" class="node">
<title>Node3</title>
<g id="a_Node000003"><a xlink:href="DepthModel_8cpp.html" target="_top" xlink:title=" ">
<polygon fill="white" stroke="#666666" points="190.88,-20 87.12,-20 87.12,0 190.88,0 190.88,-20"/>
<text text-anchor="middle" x="139" y="-6.5" font-family="Helvetica,sans-Serif" font-size="10.00">src/DepthModel.cpp</text>
</a>
</g>
</g>
<!-- Node1&#45;&gt;Node3 -->
<g id="edge5_Node000001_Node000003" class="edge">
<title>Node1&#45;&gt;Node3</title>
<g id="a_edge5_Node000001_Node000003"><a xlink:title=" ">
<path fill="none" stroke="#63b8ff" d="M269.99,-106.51C253.79,-97.71 235.13,-86.95 219,-76 192.65,-58.1 164.27,-33.67 149.42,-20.44"/>
<polygon fill="#63b8ff" stroke="#63b8ff" points="267.92,-109.37 278.39,-111 271.22,-103.19 267.92,-109.37"/>
</a>
</g>
</g>
<!-- Node4 -->
<g id="Node000004" class="node">
<title>Node4</title>
<g id="a_Node000004"><a xlink:href="YoloModel_8hpp.html" target="_top" xlink:title=" ">
<polygon fill="white" stroke="#666666" points="392.25,-76 227.75,-76 227.75,-56 392.25,-56 392.25,-76"/>
<text text-anchor="middle" x="310" y="-62.5" font-family="Helvetica,sans-Serif" font-size="10.00">include/EyeAICore/YoloModel.hpp</text>
</a>
</g>
</g>
<!-- Node1&#45;&gt;Node4 -->
<g id="edge3_Node000001_Node000004" class="edge">
<title>Node1&#45;&gt;Node4</title>
<g id="a_edge3_Node000001_Node000004"><a xlink:title=" ">
<path fill="none" stroke="#63b8ff" d="M310,-100.08C310,-91.6 310,-82.8 310,-76.41"/>
<polygon fill="#63b8ff" stroke="#63b8ff" points="306.5,-100.03 310,-110.03 313.5,-100.03 306.5,-100.03"/>
</a>
</g>
</g>
<!-- Node5 -->
<g id="Node000005" class="node">
<title>Node5</title>
<g id="a_Node000005"><a xlink:href="YoloModel_8cpp.html" target="_top" xlink:title=" ">
<polygon fill="white" stroke="#666666" points="413.12,-20 316.88,-20 316.88,0 413.12,0 413.12,-20"/>
<text text-anchor="middle" x="365" y="-6.5" font-family="Helvetica,sans-Serif" font-size="10.00">src/YoloModel.cpp</text>
</a>
</g>
</g>
<!-- Node1&#45;&gt;Node5 -->
<g id="edge6_Node000001_Node000005" class="edge">
<title>Node1&#45;&gt;Node5</title>
<g id="a_edge6_Node000001_Node000005"><a xlink:title=" ">
<path fill="none" stroke="#63b8ff" d="M368.15,-106.34C381.2,-98.86 393.41,-88.95 401,-76 412.48,-56.41 391.16,-33.03 376.71,-20.34"/>
<polygon fill="#63b8ff" stroke="#63b8ff" points="366.67,-103.17 359.42,-110.9 369.9,-109.38 366.67,-103.17"/>
</a>
</g>
</g>
<!-- Node6 -->
<g id="Node000006" class="node">
<title>Node6</title>
<g id="a_Node000006"><a xlink:href="TfLiteRuntime_8cpp.html" target="_top" xlink:title=" ">
<polygon fill="white" stroke="#666666" points="582.25,-76 447.75,-76 447.75,-56 582.25,-56 582.25,-76"/>
<text text-anchor="middle" x="515" y="-62.5" font-family="Helvetica,sans-Serif" font-size="10.00">src/tflite/TfLiteRuntime.cpp</text>
</a>
</g>
</g>
<!-- Node1&#45;&gt;Node6 -->
<g id="edge7_Node000001_Node000006" class="edge">
<title>Node1&#45;&gt;Node6</title>
<g id="a_edge7_Node000001_Node000006"><a xlink:title=" ">
<path fill="none" stroke="#63b8ff" d="M373.73,-108.35C409.81,-97.79 453.42,-85.02 482.55,-76.5"/>
<polygon fill="#63b8ff" stroke="#63b8ff" points="372.86,-104.96 364.25,-111.12 374.83,-111.67 372.86,-104.96"/>
</a>
</g>
</g>
<!-- Node2&#45;&gt;Node3 -->
<g id="edge2_Node000002_Node000003" class="edge">
<title>Node2&#45;&gt;Node3</title>
<g id="a_edge2_Node000002_Node000003"><a xlink:title=" ">
<path fill="none" stroke="#63b8ff" d="M103.11,-47.57C112.01,-38.5 122.53,-27.78 129.87,-20.3"/>
<polygon fill="#63b8ff" stroke="#63b8ff" points="100.8,-44.93 96.29,-54.51 105.79,-49.83 100.8,-44.93"/>
</a>
</g>
</g>
<!-- Node4&#45;&gt;Node5 -->
<g id="edge4_Node000004_Node000005" class="edge">
<title>Node4&#45;&gt;Node5</title>
<g id="a_edge4_Node000004_Node000005"><a xlink:title=" ">
<path fill="none" stroke="#63b8ff" d="M327.76,-47.57C336.99,-38.5 347.91,-27.78 355.53,-20.3"/>
<polygon fill="#63b8ff" stroke="#63b8ff" points="325.34,-45.03 320.66,-54.53 330.25,-50.03 325.34,-45.03"/>
</a>
</g>
</g>
</g>
</svg>
