<?xml version="1.0" encoding="UTF-8" standalone="no"?>
<!DOCTYPE svg PUBLIC "-//W3C//DTD SVG 1.1//EN"
 "http://www.w3.org/Graphics/SVG/1.1/DTD/svg11.dtd">
<!-- Generated by graphviz version 12.2.1 (20241206.2353)
 -->
<!-- Title: src/tflite/TfLiteUtils.cpp Pages: 1 -->
<svg width="1013pt" height="208pt"
 viewBox="0.00 0.00 1012.50 208.00" xmlns="http://www.w3.org/2000/svg" xmlns:xlink="http://www.w3.org/1999/xlink">
<g id="graph0" class="graph" transform="scale(1 1) rotate(0) translate(4 204)">
<title>src/tflite/TfLiteUtils.cpp</title>
<!-- Node1 -->
<g id="Node000001" class="node">
<title>Node1</title>
<g id="a_Node000001"><a xlink:title=" ">
<polygon fill="#999999" stroke="#666666" points="699.38,-200 581.38,-200 581.38,-180 699.38,-180 699.38,-200"/>
<text text-anchor="middle" x="640.38" y="-186.5" font-family="Helvetica,sans-Serif" font-size="10.00">src/tflite/TfLiteUtils.cpp</text>
</a>
</g>
</g>
<!-- Node2 -->
<g id="Node000002" class="node">
<title>Node2</title>
<g id="a_Node000002"><a xlink:href="TfLiteUtils_8hpp.html" target="_top" xlink:title=" ">
<polygon fill="white" stroke="#666666" points="562.62,-144 410.12,-144 410.12,-124 562.62,-124 562.62,-144"/>
<text text-anchor="middle" x="486.38" y="-130.5" font-family="Helvetica,sans-Serif" font-size="10.00">EyeAICore/tflite/TfLiteUtils.hpp</text>
</a>
</g>
</g>
<!-- Node1&#45;&gt;Node2 -->
<g id="edge1_Node000001_Node000002" class="edge">
<title>Node1&#45;&gt;Node2</title>
<g id="a_edge1_Node000001_Node000002"><a xlink:title=" ">
<path fill="none" stroke="#63b8ff" d="M613.55,-179.59C588.75,-170.9 551.65,-157.89 523.91,-148.16"/>
<polygon fill="#63b8ff" stroke="#63b8ff" points="525.43,-144.99 514.84,-144.98 523.12,-151.59 525.43,-144.99"/>
</a>
</g>
</g>
<!-- Node17 -->
<g id="Node000017" class="node">
<title>Node17</title>
<g id="a_Node000017"><a xlink:href="Profiling_8hpp.html" target="_top" xlink:title=" ">
<polygon fill="white" stroke="#666666" points="901.38,-144 759.38,-144 759.38,-124 901.38,-124 901.38,-144"/>
<text text-anchor="middle" x="830.38" y="-130.5" font-family="Helvetica,sans-Serif" font-size="10.00">EyeAICore/utils/Profiling.hpp</text>
</a>
</g>
</g>
<!-- Node1&#45;&gt;Node17 -->
<g id="edge19_Node000001_Node000017" class="edge">
<title>Node1&#45;&gt;Node17</title>
<g id="a_edge19_Node000001_Node000017"><a xlink:title=" ">
<path fill="none" stroke="#63b8ff" d="M673.47,-179.59C704.75,-170.71 751.88,-157.31 786.32,-147.52"/>
<polygon fill="#63b8ff" stroke="#63b8ff" points="786.9,-150.99 795.57,-144.89 784.99,-144.26 786.9,-150.99"/>
</a>
</g>
</g>
<!-- Node3 -->
<g id="Node000003" class="node">
<title>Node3</title>
<g id="a_Node000003"><a xlink:href="TensorBuffer_8hpp.html" target="_top" xlink:title=" ">
<polygon fill="white" stroke="#666666" points="705.62,-82 565.12,-82 565.12,-62 705.62,-62 705.62,-82"/>
<text text-anchor="middle" x="635.38" y="-68.5" font-family="Helvetica,sans-Serif" font-size="10.00">EyeAICore/TensorBuffer.hpp</text>
</a>
</g>
</g>
<!-- Node2&#45;&gt;Node3 -->
<g id="edge2_Node000002_Node000003" class="edge">
<title>Node2&#45;&gt;Node3</title>
<g id="a_edge2_Node000002_Node000003"><a xlink:title=" ">
<path fill="none" stroke="#63b8ff" d="M509.66,-123.62C534.37,-113.67 573.65,-97.85 601.73,-86.55"/>
<polygon fill="#63b8ff" stroke="#63b8ff" points="602.88,-89.86 610.85,-82.87 600.27,-83.36 602.88,-89.86"/>
</a>
</g>
</g>
<!-- Node5 -->
<g id="Node000005" class="node">
<title>Node5</title>
<g id="a_Node000005"><a xlink:title=" ">
<polygon fill="#e0e0e0" stroke="#999999" points="750,-20 698.75,-20 698.75,0 750,0 750,-20"/>
<text text-anchor="middle" x="724.38" y="-6.5" font-family="Helvetica,sans-Serif" font-size="10.00">memory</text>
</a>
</g>
</g>
<!-- Node2&#45;&gt;Node5 -->
<g id="edge13_Node000002_Node000005" class="edge">
<title>Node2&#45;&gt;Node5</title>
<g id="a_edge13_Node000002_Node000005"><a xlink:title=" ">
<path fill="none" stroke="#63b8ff" d="M562.98,-127.37C620.95,-121.43 693.97,-109.79 714.38,-88 728.25,-73.19 729.26,-49.17 727.74,-31.89"/>
<polygon fill="#63b8ff" stroke="#63b8ff" points="731.22,-31.48 726.49,-22 724.27,-32.36 731.22,-31.48"/>
</a>
</g>
</g>
<!-- Node6 -->
<g id="Node000006" class="node">
<title>Node6</title>
<g id="a_Node000006"><a xlink:title=" ">
<polygon fill="#e0e0e0" stroke="#999999" points="487.88,-20 450.88,-20 450.88,0 487.88,0 487.88,-20"/>
<text text-anchor="middle" x="469.38" y="-6.5" font-family="Helvetica,sans-Serif" font-size="10.00">span</text>
</a>
</g>
</g>
<!-- Node2&#45;&gt;Node6 -->
<g id="edge15_Node000002_Node000006" class="edge">
<title>Node2&#45;&gt;Node6</title>
<g id="a_edge15_Node000002_Node000006"><a xlink:title=" ">
<path fill="none" stroke="#63b8ff" d="M409.63,-129.69C344.48,-125.08 258.19,-114.09 236.38,-88 227.25,-77.09 227.32,-66.97 236.38,-56 261.78,-25.22 382.16,-15.26 439.22,-12.23"/>
<polygon fill="#63b8ff" stroke="#63b8ff" points="439.06,-15.74 448.87,-11.76 438.71,-8.75 439.06,-15.74"/>
</a>
</g>
</g>
<!-- Node9 -->
<g id="Node000009" class="node">
<title>Node9</title>
<g id="a_Node000009"><a xlink:href="Errors_8hpp.html" target="_top" xlink:title=" ">
<polygon fill="white" stroke="#666666" points="188.88,-82 55.88,-82 55.88,-62 188.88,-62 188.88,-82"/>
<text text-anchor="middle" x="122.38" y="-68.5" font-family="Helvetica,sans-Serif" font-size="10.00">EyeAICore/utils/Errors.hpp</text>
</a>
</g>
</g>
<!-- Node2&#45;&gt;Node9 -->
<g id="edge8_Node000002_Node000009" class="edge">
<title>Node2&#45;&gt;Node9</title>
<g id="a_edge8_Node000002_Node000009"><a xlink:title=" ">
<path fill="none" stroke="#63b8ff" d="M423.91,-123.53C366.52,-114.73 279.12,-101.03 203.38,-88 196.96,-86.9 190.27,-85.71 183.61,-84.51"/>
<polygon fill="#63b8ff" stroke="#63b8ff" points="184.42,-81.1 173.95,-82.75 183.16,-87.99 184.42,-81.1"/>
</a>
</g>
</g>
<!-- Node13 -->
<g id="Node000013" class="node">
<title>Node13</title>
<g id="a_Node000013"><a xlink:title=" ">
<polygon fill="#e0e0e0" stroke="#999999" points="295.25,-82 245.5,-82 245.5,-62 295.25,-62 295.25,-82"/>
<text text-anchor="middle" x="270.38" y="-68.5" font-family="Helvetica,sans-Serif" font-size="10.00">optional</text>
</a>
</g>
</g>
<!-- Node2&#45;&gt;Node13 -->
<g id="edge14_Node000002_Node000013" class="edge">
<title>Node2&#45;&gt;Node13</title>
<g id="a_edge14_Node000002_Node000013"><a xlink:title=" ">
<path fill="none" stroke="#63b8ff" d="M438.59,-123.56C401.5,-115.66 349.04,-103.25 304.38,-88 303.21,-87.6 302.04,-87.18 300.86,-86.75"/>
<polygon fill="#63b8ff" stroke="#63b8ff" points="302.27,-83.54 291.69,-83.04 299.64,-90.03 302.27,-83.54"/>
</a>
</g>
</g>
<!-- Node14 -->
<g id="Node000014" class="node">
<title>Node14</title>
<g id="a_Node000014"><a xlink:title=" ">
<polygon fill="#e0e0e0" stroke="#999999" points="827.12,-82 761.62,-82 761.62,-62 827.12,-62 827.12,-82"/>
<text text-anchor="middle" x="794.38" y="-68.5" font-family="Helvetica,sans-Serif" font-size="10.00">string_view</text>
</a>
</g>
</g>
<!-- Node2&#45;&gt;Node14 -->
<g id="edge16_Node000002_Node000014" class="edge">
<title>Node2&#45;&gt;Node14</title>
<g id="a_edge16_Node000002_Node000014"><a xlink:title=" ">
<path fill="none" stroke="#63b8ff" d="M556.98,-123.53C609.81,-115.79 683.62,-103.59 747.38,-88 750.32,-87.28 753.34,-86.47 756.37,-85.62"/>
<polygon fill="#63b8ff" stroke="#63b8ff" points="757.19,-89.03 765.77,-82.8 755.18,-82.32 757.19,-89.03"/>
</a>
</g>
</g>
<!-- Node15 -->
<g id="Node000015" class="node">
<title>Node15</title>
<g id="a_Node000015"><a xlink:title=" ">
<polygon fill="#e0e0e0" stroke="#999999" points="407,-88 313.75,-88 313.75,-56 407,-56 407,-88"/>
<text text-anchor="start" x="321.75" y="-74.5" font-family="Helvetica,sans-Serif" font-size="10.00">tensorflow/lite/c/c</text>
<text text-anchor="middle" x="360.38" y="-62.5" font-family="Helvetica,sans-Serif" font-size="10.00">_api.h</text>
</a>
</g>
</g>
<!-- Node2&#45;&gt;Node15 -->
<g id="edge17_Node000002_Node000015" class="edge">
<title>Node2&#45;&gt;Node15</title>
<g id="a_edge17_Node000002_Node000015"><a xlink:title=" ">
<path fill="none" stroke="#63b8ff" d="M466.69,-123.62C449.68,-115.52 424.5,-103.53 402.91,-93.26"/>
<polygon fill="#63b8ff" stroke="#63b8ff" points="404.56,-90.16 394.03,-89.02 401.55,-96.48 404.56,-90.16"/>
</a>
</g>
</g>
<!-- Node16 -->
<g id="Node000016" class="node">
<title>Node16</title>
<g id="a_Node000016"><a xlink:title=" ">
<polygon fill="#e0e0e0" stroke="#999999" points="547.25,-88 425.5,-88 425.5,-56 547.25,-56 547.25,-88"/>
<text text-anchor="start" x="433.5" y="-74.5" font-family="Helvetica,sans-Serif" font-size="10.00">tensorflow/lite/delegates</text>
<text text-anchor="middle" x="486.38" y="-62.5" font-family="Helvetica,sans-Serif" font-size="10.00">/gpu/delegate.h</text>
</a>
</g>
</g>
<!-- Node2&#45;&gt;Node16 -->
<g id="edge18_Node000002_Node000016" class="edge">
<title>Node2&#45;&gt;Node16</title>
<g id="a_edge18_Node000002_Node000016"><a xlink:title=" ">
<path fill="none" stroke="#63b8ff" d="M486.38,-123.62C486.38,-117.1 486.38,-108.05 486.38,-99.4"/>
<polygon fill="#63b8ff" stroke="#63b8ff" points="489.88,-99.65 486.38,-89.65 482.88,-99.65 489.88,-99.65"/>
</a>
</g>
</g>
<!-- Node4 -->
<g id="Node000004" class="node">
<title>Node4</title>
<g id="a_Node000004"><a xlink:title=" ">
<polygon fill="#e0e0e0" stroke="#999999" points="604,-20 558.75,-20 558.75,0 604,0 604,-20"/>
<text text-anchor="middle" x="581.38" y="-6.5" font-family="Helvetica,sans-Serif" font-size="10.00">cstdint</text>
</a>
</g>
</g>
<!-- Node3&#45;&gt;Node4 -->
<g id="edge3_Node000003_Node000004" class="edge">
<title>Node3&#45;&gt;Node4</title>
<g id="a_edge3_Node000003_Node000004"><a xlink:title=" ">
<path fill="none" stroke="#63b8ff" d="M626.94,-61.62C618.97,-52.77 606.81,-39.26 597.06,-28.43"/>
<polygon fill="#63b8ff" stroke="#63b8ff" points="599.88,-26.33 590.59,-21.24 594.68,-31.01 599.88,-26.33"/>
</a>
</g>
</g>
<!-- Node3&#45;&gt;Node5 -->
<g id="edge4_Node000003_Node000005" class="edge">
<title>Node3&#45;&gt;Node5</title>
<g id="a_edge4_Node000003_Node000005"><a xlink:title=" ">
<path fill="none" stroke="#63b8ff" d="M649.28,-61.62C663.13,-52.29 684.63,-37.79 701.09,-26.7"/>
<polygon fill="#63b8ff" stroke="#63b8ff" points="702.98,-29.65 709.31,-21.16 699.06,-23.84 702.98,-29.65"/>
</a>
</g>
</g>
<!-- Node3&#45;&gt;Node6 -->
<g id="edge5_Node000003_Node000006" class="edge">
<title>Node3&#45;&gt;Node6</title>
<g id="a_edge5_Node000003_Node000006"><a xlink:title=" ">
<path fill="none" stroke="#63b8ff" d="M609.44,-61.62C579.39,-50.76 530,-32.91 498.61,-21.57"/>
<polygon fill="#63b8ff" stroke="#63b8ff" points="499.95,-18.33 489.36,-18.22 497.57,-24.91 499.95,-18.33"/>
</a>
</g>
</g>
<!-- Node7 -->
<g id="Node000007" class="node">
<title>Node7</title>
<g id="a_Node000007"><a xlink:title=" ">
<polygon fill="#e0e0e0" stroke="#999999" points="327,-20 281.75,-20 281.75,0 327,0 327,-20"/>
<text text-anchor="middle" x="304.38" y="-6.5" font-family="Helvetica,sans-Serif" font-size="10.00">variant</text>
</a>
</g>
</g>
<!-- Node3&#45;&gt;Node7 -->
<g id="edge6_Node000003_Node000007" class="edge">
<title>Node3&#45;&gt;Node7</title>
<g id="a_edge6_Node000003_Node000007"><a xlink:title=" ">
<path fill="none" stroke="#63b8ff" d="M586.08,-61.56C576.25,-59.69 565.99,-57.77 556.38,-56 478.45,-41.64 386.83,-25.46 338.39,-16.95"/>
<polygon fill="#63b8ff" stroke="#63b8ff" points="339.27,-13.55 328.81,-15.27 338.06,-20.45 339.27,-13.55"/>
</a>
</g>
</g>
<!-- Node8 -->
<g id="Node000008" class="node">
<title>Node8</title>
<g id="a_Node000008"><a xlink:title=" ">
<polygon fill="#e0e0e0" stroke="#999999" points="664.88,-20 621.88,-20 621.88,0 664.88,0 664.88,-20"/>
<text text-anchor="middle" x="643.38" y="-6.5" font-family="Helvetica,sans-Serif" font-size="10.00">vector</text>
</a>
</g>
</g>
<!-- Node3&#45;&gt;Node8 -->
<g id="edge7_Node000003_Node000008" class="edge">
<title>Node3&#45;&gt;Node8</title>
<g id="a_edge7_Node000003_Node000008"><a xlink:title=" ">
<path fill="none" stroke="#63b8ff" d="M636.62,-61.62C637.7,-53.56 639.29,-41.65 640.65,-31.41"/>
<polygon fill="#63b8ff" stroke="#63b8ff" points="644.11,-31.99 641.96,-21.61 637.17,-31.06 644.11,-31.99"/>
</a>
</g>
</g>
<!-- Node9&#45;&gt;Node7 -->
<g id="edge12_Node000009_Node000007" class="edge">
<title>Node9&#45;&gt;Node7</title>
<g id="a_edge12_Node000009_Node000007"><a xlink:title=" ">
<path fill="none" stroke="#63b8ff" d="M150.81,-61.62C183.29,-50.92 236.37,-33.42 270.84,-22.06"/>
<polygon fill="#63b8ff" stroke="#63b8ff" points="271.49,-25.53 279.89,-19.07 269.29,-18.88 271.49,-25.53"/>
</a>
</g>
</g>
<!-- Node10 -->
<g id="Node000010" class="node">
<title>Node10</title>
<g id="a_Node000010"><a xlink:title=" ">
<polygon fill="#e0e0e0" stroke="#999999" points="144.25,-20 100.5,-20 100.5,0 144.25,0 144.25,-20"/>
<text text-anchor="middle" x="122.38" y="-6.5" font-family="Helvetica,sans-Serif" font-size="10.00">format</text>
</a>
</g>
</g>
<!-- Node9&#45;&gt;Node10 -->
<g id="edge9_Node000009_Node000010" class="edge">
<title>Node9&#45;&gt;Node10</title>
<g id="a_edge9_Node000009_Node000010"><a xlink:title=" ">
<path fill="none" stroke="#63b8ff" d="M122.38,-61.62C122.38,-53.56 122.38,-41.65 122.38,-31.41"/>
<polygon fill="#63b8ff" stroke="#63b8ff" points="125.88,-31.63 122.38,-21.63 118.88,-31.63 125.88,-31.63"/>
</a>
</g>
</g>
<!-- Node11 -->
<g id="Node000011" class="node">
<title>Node11</title>
<g id="a_Node000011"><a xlink:title=" ">
<polygon fill="#e0e0e0" stroke="#999999" points="202.38,-20 162.38,-20 162.38,0 202.38,0 202.38,-20"/>
<text text-anchor="middle" x="182.38" y="-6.5" font-family="Helvetica,sans-Serif" font-size="10.00">string</text>
</a>
</g>
</g>
<!-- Node9&#45;&gt;Node11 -->
<g id="edge10_Node000009_Node000011" class="edge">
<title>Node9&#45;&gt;Node11</title>
<g id="a_edge10_Node000009_Node000011"><a xlink:title=" ">
<path fill="none" stroke="#63b8ff" d="M131.75,-61.62C140.7,-52.68 154.39,-38.99 165.27,-28.1"/>
<polygon fill="#63b8ff" stroke="#63b8ff" points="167.6,-30.73 172.19,-21.18 162.65,-25.78 167.6,-30.73"/>
</a>
</g>
</g>
<!-- Node12 -->
<g id="Node000012" class="node">
<title>Node12</title>
<g id="a_Node000012"><a xlink:title=" ">
<polygon fill="#e0e0e0" stroke="#999999" points="82.75,-20 0,-20 0,0 82.75,0 82.75,-20"/>
<text text-anchor="middle" x="41.38" y="-6.5" font-family="Helvetica,sans-Serif" font-size="10.00">tl/expected.hpp</text>
</a>
</g>
</g>
<!-- Node9&#45;&gt;Node12 -->
<g id="edge11_Node000009_Node000012" class="edge">
<title>Node9&#45;&gt;Node12</title>
<g id="a_edge11_Node000009_Node000012"><a xlink:title=" ">
<path fill="none" stroke="#63b8ff" d="M109.72,-61.62C97.24,-52.38 77.91,-38.07 62.99,-27.01"/>
<polygon fill="#63b8ff" stroke="#63b8ff" points="65.28,-24.35 55.16,-21.21 61.11,-29.97 65.28,-24.35"/>
</a>
</g>
</g>
<!-- Node17&#45;&gt;Node14 -->
<g id="edge22_Node000017_Node000014" class="edge">
<title>Node17&#45;&gt;Node14</title>
<g id="a_edge22_Node000017_Node000014"><a xlink:title=" ">
<path fill="none" stroke="#63b8ff" d="M824.75,-123.62C819.65,-115.12 811.97,-102.33 805.62,-91.74"/>
<polygon fill="#63b8ff" stroke="#63b8ff" points="808.77,-90.18 800.62,-83.41 802.77,-93.79 808.77,-90.18"/>
</a>
</g>
</g>
<!-- Node18 -->
<g id="Node000018" class="node">
<title>Node18</title>
<g id="a_Node000018"><a xlink:title=" ">
<polygon fill="#e0e0e0" stroke="#999999" points="890,-82 844.75,-82 844.75,-62 890,-62 890,-82"/>
<text text-anchor="middle" x="867.38" y="-68.5" font-family="Helvetica,sans-Serif" font-size="10.00">chrono</text>
</a>
</g>
</g>
<!-- Node17&#45;&gt;Node18 -->
<g id="edge20_Node000017_Node000018" class="edge">
<title>Node17&#45;&gt;Node18</title>
<g id="a_edge20_Node000017_Node000018"><a xlink:title=" ">
<path fill="none" stroke="#63b8ff" d="M836.16,-123.62C841.4,-115.12 849.29,-102.33 855.82,-91.74"/>
<polygon fill="#63b8ff" stroke="#63b8ff" points="858.69,-93.75 860.96,-83.4 852.73,-90.08 858.69,-93.75"/>
</a>
</g>
</g>
<!-- Node19 -->
<g id="Node000019" class="node">
<title>Node19</title>
<g id="a_Node000019"><a xlink:title=" ">
<polygon fill="#e0e0e0" stroke="#999999" points="1004.5,-82 908.25,-82 908.25,-62 1004.5,-62 1004.5,-82"/>
<text text-anchor="middle" x="956.38" y="-68.5" font-family="Helvetica,sans-Serif" font-size="10.00">concurrentqueue.h</text>
</a>
</g>
</g>
<!-- Node17&#45;&gt;Node19 -->
<g id="edge21_Node000017_Node000019" class="edge">
<title>Node17&#45;&gt;Node19</title>
<g id="a_edge21_Node000017_Node000019"><a xlink:title=" ">
<path fill="none" stroke="#63b8ff" d="M850.06,-123.62C870.59,-113.85 903.01,-98.41 926.65,-87.15"/>
<polygon fill="#63b8ff" stroke="#63b8ff" points="927.94,-90.42 935.46,-82.96 924.93,-84.1 927.94,-90.42"/>
</a>
</g>
</g>
</g>
</svg>
