<?xml version="1.0" encoding="UTF-8" standalone="no"?>
<!DOCTYPE svg PUBLIC "-//W3C//DTD SVG 1.1//EN"
 "http://www.w3.org/Graphics/SVG/1.1/DTD/svg11.dtd">
<!-- Generated by graphviz version 12.2.1 (20241206.2353)
 -->
<!-- Title: src/tflite/TfLiteRuntime.cpp Pages: 1 -->
<svg width="1098pt" height="276pt"
 viewBox="0.00 0.00 1098.38 276.00" xmlns="http://www.w3.org/2000/svg" xmlns:xlink="http://www.w3.org/1999/xlink">
<g id="graph0" class="graph" transform="scale(1 1) rotate(0) translate(4 272)">
<title>src/tflite/TfLiteRuntime.cpp</title>
<!-- Node1 -->
<g id="Node000001" class="node">
<title>Node1</title>
<g id="a_Node000001"><a xlink:title=" ">
<polygon fill="#999999" stroke="#666666" points="712.12,-268 577.62,-268 577.62,-248 712.12,-248 712.12,-268"/>
<text text-anchor="middle" x="644.88" y="-254.5" font-family="Helvetica,sans-Serif" font-size="10.00">src/tflite/TfLiteRuntime.cpp</text>
</a>
</g>
</g>
<!-- Node2 -->
<g id="Node000002" class="node">
<title>Node2</title>
<g id="a_Node000002"><a xlink:href="TfLiteRuntime_8hpp.html" target="_top" xlink:title=" ">
<polygon fill="white" stroke="#666666" points="729.38,-206 560.38,-206 560.38,-186 729.38,-186 729.38,-206"/>
<text text-anchor="middle" x="644.88" y="-192.5" font-family="Helvetica,sans-Serif" font-size="10.00">EyeAICore/tflite/TfLiteRuntime.hpp</text>
</a>
</g>
</g>
<!-- Node1&#45;&gt;Node2 -->
<g id="edge1_Node000001_Node000002" class="edge">
<title>Node1&#45;&gt;Node2</title>
<g id="a_edge1_Node000001_Node000002"><a xlink:title=" ">
<path fill="none" stroke="#63b8ff" d="M644.88,-247.62C644.88,-239.56 644.88,-227.65 644.88,-217.41"/>
<polygon fill="#63b8ff" stroke="#63b8ff" points="648.38,-217.63 644.88,-207.63 641.38,-217.63 648.38,-217.63"/>
</a>
</g>
</g>
<!-- Node9 -->
<g id="Node000009" class="node">
<title>Node9</title>
<g id="a_Node000009"><a xlink:href="TfLiteUtils_8hpp.html" target="_top" xlink:title=" ">
<polygon fill="white" stroke="#666666" points="574.75,-144 495,-144 495,-124 574.75,-124 574.75,-144"/>
<text text-anchor="middle" x="534.88" y="-130.5" font-family="Helvetica,sans-Serif" font-size="10.00">TfLiteUtils.hpp</text>
</a>
</g>
</g>
<!-- Node1&#45;&gt;Node9 -->
<g id="edge27_Node000001_Node000009" class="edge">
<title>Node1&#45;&gt;Node9</title>
<g id="a_edge27_Node000001_Node000009"><a xlink:title=" ">
<path fill="none" stroke="#63b8ff" d="M607.66,-247.53C588.27,-240.73 565.78,-229.59 551.88,-212 539.23,-195.99 535.54,-172.53 534.67,-155.72"/>
<polygon fill="#63b8ff" stroke="#63b8ff" points="538.18,-155.83 534.48,-145.9 531.18,-155.97 538.18,-155.83"/>
</a>
</g>
</g>
<!-- Node11 -->
<g id="Node000011" class="node">
<title>Node11</title>
<g id="a_Node000011"><a xlink:title=" ">
<polygon fill="#e0e0e0" stroke="#999999" points="43.75,-20 0,-20 0,0 43.75,0 43.75,-20"/>
<text text-anchor="middle" x="21.88" y="-6.5" font-family="Helvetica,sans-Serif" font-size="10.00">format</text>
</a>
</g>
</g>
<!-- Node1&#45;&gt;Node11 -->
<g id="edge32_Node000001_Node000011" class="edge">
<title>Node1&#45;&gt;Node11</title>
<g id="a_edge32_Node000001_Node000011"><a xlink:title=" ">
<path fill="none" stroke="#63b8ff" d="M577.3,-252.71C475.57,-243.98 279.19,-218.18 130.88,-144 96.77,-126.94 90.13,-117.42 65.88,-88 51.07,-70.05 38.42,-46.46 30.53,-30.14"/>
<polygon fill="#63b8ff" stroke="#63b8ff" points="33.91,-29.11 26.5,-21.54 27.57,-32.08 33.91,-29.11"/>
</a>
</g>
</g>
<!-- Node18 -->
<g id="Node000018" class="node">
<title>Node18</title>
<g id="a_Node000018"><a xlink:href="Profiling_8hpp.html" target="_top" xlink:title=" ">
<polygon fill="white" stroke="#666666" points="968.88,-206 826.88,-206 826.88,-186 968.88,-186 968.88,-206"/>
<text text-anchor="middle" x="897.88" y="-192.5" font-family="Helvetica,sans-Serif" font-size="10.00">EyeAICore/utils/Profiling.hpp</text>
</a>
</g>
</g>
<!-- Node1&#45;&gt;Node18 -->
<g id="edge28_Node000001_Node000018" class="edge">
<title>Node1&#45;&gt;Node18</title>
<g id="a_edge28_Node000001_Node000018"><a xlink:title=" ">
<path fill="none" stroke="#63b8ff" d="M684.68,-247.56C728.49,-237.17 799.01,-220.45 846.84,-209.1"/>
<polygon fill="#63b8ff" stroke="#63b8ff" points="847.49,-212.55 856.41,-206.83 845.87,-205.74 847.49,-212.55"/>
</a>
</g>
</g>
<!-- Node21 -->
<g id="Node000021" class="node">
<title>Node21</title>
<g id="a_Node000021"><a xlink:title=" ">
<polygon fill="#e0e0e0" stroke="#999999" points="1090.38,-212 987.38,-212 987.38,-180 1090.38,-180 1090.38,-212"/>
<text text-anchor="start" x="995.38" y="-198.5" font-family="Helvetica,sans-Serif" font-size="10.00">tensorflow/lite/c/c</text>
<text text-anchor="middle" x="1038.88" y="-186.5" font-family="Helvetica,sans-Serif" font-size="10.00">_api_experimental.h</text>
</a>
</g>
</g>
<!-- Node1&#45;&gt;Node21 -->
<g id="edge33_Node000001_Node000021" class="edge">
<title>Node1&#45;&gt;Node21</title>
<g id="a_edge33_Node000001_Node000021"><a xlink:title=" ">
<path fill="none" stroke="#63b8ff" d="M712.5,-250.01C777.52,-242.8 878.75,-230.31 975.84,-212.26"/>
<polygon fill="#63b8ff" stroke="#63b8ff" points="976.38,-215.72 985.56,-210.43 975.08,-208.84 976.38,-215.72"/>
</a>
</g>
</g>
<!-- Node3 -->
<g id="Node000003" class="node">
<title>Node3</title>
<g id="a_Node000003"><a xlink:href="TensorBuffer_8hpp.html" target="_top" xlink:title=" ">
<polygon fill="white" stroke="#666666" points="524.12,-82 383.62,-82 383.62,-62 524.12,-62 524.12,-82"/>
<text text-anchor="middle" x="453.88" y="-68.5" font-family="Helvetica,sans-Serif" font-size="10.00">EyeAICore/TensorBuffer.hpp</text>
</a>
</g>
</g>
<!-- Node2&#45;&gt;Node3 -->
<g id="edge2_Node000002_Node000003" class="edge">
<title>Node2&#45;&gt;Node3</title>
<g id="a_edge2_Node000002_Node000003"><a xlink:title=" ">
<path fill="none" stroke="#63b8ff" d="M639.21,-185.9C629.55,-171.05 608.52,-141.5 583.88,-124 559.31,-106.56 527.97,-94.04 502.21,-85.76"/>
<polygon fill="#63b8ff" stroke="#63b8ff" points="503.59,-82.52 493,-82.92 501.53,-89.21 503.59,-82.52"/>
</a>
</g>
</g>
<!-- Node5 -->
<g id="Node000005" class="node">
<title>Node5</title>
<g id="a_Node000005"><a xlink:title=" ">
<polygon fill="#e0e0e0" stroke="#999999" points="577.5,-20 526.25,-20 526.25,0 577.5,0 577.5,-20"/>
<text text-anchor="middle" x="551.88" y="-6.5" font-family="Helvetica,sans-Serif" font-size="10.00">memory</text>
</a>
</g>
</g>
<!-- Node2&#45;&gt;Node5 -->
<g id="edge23_Node000002_Node000005" class="edge">
<title>Node2&#45;&gt;Node5</title>
<g id="a_edge23_Node000002_Node000005"><a xlink:title=" ">
<path fill="none" stroke="#63b8ff" d="M707.52,-185.55C803.64,-168.56 970.11,-127.76 906.88,-56 886.08,-32.41 676.11,-17.98 589.21,-12.98"/>
<polygon fill="#63b8ff" stroke="#63b8ff" points="589.49,-9.5 579.31,-12.43 589.1,-16.48 589.49,-9.5"/>
</a>
</g>
</g>
<!-- Node6 -->
<g id="Node000006" class="node">
<title>Node6</title>
<g id="a_Node000006"><a xlink:title=" ">
<polygon fill="#e0e0e0" stroke="#999999" points="374.38,-20 337.38,-20 337.38,0 374.38,0 374.38,-20"/>
<text text-anchor="middle" x="355.88" y="-6.5" font-family="Helvetica,sans-Serif" font-size="10.00">span</text>
</a>
</g>
</g>
<!-- Node2&#45;&gt;Node6 -->
<g id="edge24_Node000002_Node000006" class="edge">
<title>Node2&#45;&gt;Node6</title>
<g id="a_edge24_Node000002_Node000006"><a xlink:title=" ">
<path fill="none" stroke="#63b8ff" d="M576.9,-185.51C479,-170.3 305.94,-137.08 268.88,-88 260.3,-76.65 261.48,-68.15 268.88,-56 281.22,-35.72 305.97,-24.18 325.93,-17.87"/>
<polygon fill="#63b8ff" stroke="#63b8ff" points="326.87,-21.24 335.54,-15.15 324.96,-14.51 326.87,-21.24"/>
</a>
</g>
</g>
<!-- Node2&#45;&gt;Node9 -->
<g id="edge8_Node000002_Node000009" class="edge">
<title>Node2&#45;&gt;Node9</title>
<g id="a_edge8_Node000002_Node000009"><a xlink:title=" ">
<path fill="none" stroke="#63b8ff" d="M627.69,-185.62C610.09,-176.03 582.48,-160.97 561.95,-149.77"/>
<polygon fill="#63b8ff" stroke="#63b8ff" points="563.73,-146.75 553.27,-145.03 560.37,-152.9 563.73,-146.75"/>
</a>
</g>
</g>
<!-- Node12 -->
<g id="Node000012" class="node">
<title>Node12</title>
<g id="a_Node000012"><a xlink:title=" ">
<polygon fill="#e0e0e0" stroke="#999999" points="101.88,-20 61.88,-20 61.88,0 101.88,0 101.88,-20"/>
<text text-anchor="middle" x="81.88" y="-6.5" font-family="Helvetica,sans-Serif" font-size="10.00">string</text>
</a>
</g>
</g>
<!-- Node2&#45;&gt;Node12 -->
<g id="edge25_Node000002_Node000012" class="edge">
<title>Node2&#45;&gt;Node12</title>
<g id="a_edge25_Node000002_Node000012"><a xlink:title=" ">
<path fill="none" stroke="#63b8ff" d="M560.12,-191.99C417.1,-184.91 137.67,-161.75 78.88,-88 66.26,-72.17 69.6,-48.16 74.45,-31.17"/>
<polygon fill="#63b8ff" stroke="#63b8ff" points="77.77,-32.28 77.56,-21.69 71.11,-30.1 77.77,-32.28"/>
</a>
</g>
</g>
<!-- Node15 -->
<g id="Node000015" class="node">
<title>Node15</title>
<g id="a_Node000015"><a xlink:title=" ">
<polygon fill="#e0e0e0" stroke="#999999" points="897.62,-82 832.12,-82 832.12,-62 897.62,-62 897.62,-82"/>
<text text-anchor="middle" x="864.88" y="-68.5" font-family="Helvetica,sans-Serif" font-size="10.00">string_view</text>
</a>
</g>
</g>
<!-- Node2&#45;&gt;Node15 -->
<g id="edge26_Node000002_Node000015" class="edge">
<title>Node2&#45;&gt;Node15</title>
<g id="a_edge26_Node000002_Node000015"><a xlink:title=" ">
<path fill="none" stroke="#63b8ff" d="M661.77,-185.63C699.76,-164.56 792.18,-113.31 838.09,-87.86"/>
<polygon fill="#63b8ff" stroke="#63b8ff" points="839.55,-91.05 846.6,-83.14 836.15,-84.93 839.55,-91.05"/>
</a>
</g>
</g>
<!-- Node16 -->
<g id="Node000016" class="node">
<title>Node16</title>
<g id="a_Node000016"><a xlink:title=" ">
<polygon fill="#e0e0e0" stroke="#999999" points="673.5,-88 580.25,-88 580.25,-56 673.5,-56 673.5,-88"/>
<text text-anchor="start" x="588.25" y="-74.5" font-family="Helvetica,sans-Serif" font-size="10.00">tensorflow/lite/c/c</text>
<text text-anchor="middle" x="626.88" y="-62.5" font-family="Helvetica,sans-Serif" font-size="10.00">_api.h</text>
</a>
</g>
</g>
<!-- Node2&#45;&gt;Node16 -->
<g id="edge21_Node000002_Node000016" class="edge">
<title>Node2&#45;&gt;Node16</title>
<g id="a_edge21_Node000002_Node000016"><a xlink:title=" ">
<path fill="none" stroke="#63b8ff" d="M643.52,-185.83C640.84,-167.68 634.78,-126.58 630.76,-99.32"/>
<polygon fill="#63b8ff" stroke="#63b8ff" points="634.27,-99.12 629.34,-89.74 627.34,-100.14 634.27,-99.12"/>
</a>
</g>
</g>
<!-- Node17 -->
<g id="Node000017" class="node">
<title>Node17</title>
<g id="a_Node000017"><a xlink:title=" ">
<polygon fill="#e0e0e0" stroke="#999999" points="813.75,-88 692,-88 692,-56 813.75,-56 813.75,-88"/>
<text text-anchor="start" x="700" y="-74.5" font-family="Helvetica,sans-Serif" font-size="10.00">tensorflow/lite/delegates</text>
<text text-anchor="middle" x="752.88" y="-62.5" font-family="Helvetica,sans-Serif" font-size="10.00">/gpu/delegate.h</text>
</a>
</g>
</g>
<!-- Node2&#45;&gt;Node17 -->
<g id="edge22_Node000002_Node000017" class="edge">
<title>Node2&#45;&gt;Node17</title>
<g id="a_edge22_Node000002_Node000017"><a xlink:title=" ">
<path fill="none" stroke="#63b8ff" d="M652.99,-185.83C669.56,-167.11 707.75,-123.98 731.81,-96.79"/>
<polygon fill="#63b8ff" stroke="#63b8ff" points="734.37,-99.18 738.38,-89.38 729.13,-94.54 734.37,-99.18"/>
</a>
</g>
</g>
<!-- Node4 -->
<g id="Node000004" class="node">
<title>Node4</title>
<g id="a_Node000004"><a xlink:title=" ">
<polygon fill="#e0e0e0" stroke="#999999" points="503.5,-20 458.25,-20 458.25,0 503.5,0 503.5,-20"/>
<text text-anchor="middle" x="480.88" y="-6.5" font-family="Helvetica,sans-Serif" font-size="10.00">cstdint</text>
</a>
</g>
</g>
<!-- Node3&#45;&gt;Node4 -->
<g id="edge3_Node000003_Node000004" class="edge">
<title>Node3&#45;&gt;Node4</title>
<g id="a_edge3_Node000003_Node000004"><a xlink:title=" ">
<path fill="none" stroke="#63b8ff" d="M458.09,-61.62C461.84,-53.3 467.44,-40.86 472.14,-30.4"/>
<polygon fill="#63b8ff" stroke="#63b8ff" points="475.24,-32.05 476.15,-21.49 468.86,-29.18 475.24,-32.05"/>
</a>
</g>
</g>
<!-- Node3&#45;&gt;Node5 -->
<g id="edge4_Node000003_Node000005" class="edge">
<title>Node3&#45;&gt;Node5</title>
<g id="a_edge4_Node000003_Node000005"><a xlink:title=" ">
<path fill="none" stroke="#63b8ff" d="M469.19,-61.62C484.65,-52.16 508.79,-37.38 527,-26.23"/>
<polygon fill="#63b8ff" stroke="#63b8ff" points="528.68,-29.31 535.38,-21.1 525.02,-23.34 528.68,-29.31"/>
</a>
</g>
</g>
<!-- Node3&#45;&gt;Node6 -->
<g id="edge5_Node000003_Node000006" class="edge">
<title>Node3&#45;&gt;Node6</title>
<g id="a_edge5_Node000003_Node000006"><a xlink:title=" ">
<path fill="none" stroke="#63b8ff" d="M438.56,-61.62C423.1,-52.16 398.96,-37.38 380.75,-26.23"/>
<polygon fill="#63b8ff" stroke="#63b8ff" points="382.73,-23.34 372.37,-21.1 379.07,-29.31 382.73,-23.34"/>
</a>
</g>
</g>
<!-- Node7 -->
<g id="Node000007" class="node">
<title>Node7</title>
<g id="a_Node000007"><a xlink:title=" ">
<polygon fill="#e0e0e0" stroke="#999999" points="292.5,-20 247.25,-20 247.25,0 292.5,0 292.5,-20"/>
<text text-anchor="middle" x="269.88" y="-6.5" font-family="Helvetica,sans-Serif" font-size="10.00">variant</text>
</a>
</g>
</g>
<!-- Node3&#45;&gt;Node7 -->
<g id="edge6_Node000003_Node000007" class="edge">
<title>Node3&#45;&gt;Node7</title>
<g id="a_edge6_Node000003_Node000007"><a xlink:title=" ">
<path fill="none" stroke="#63b8ff" d="M425.12,-61.62C392.2,-50.89 338.33,-33.32 303.49,-21.96"/>
<polygon fill="#63b8ff" stroke="#63b8ff" points="304.93,-18.75 294.34,-18.98 302.76,-25.41 304.93,-18.75"/>
</a>
</g>
</g>
<!-- Node8 -->
<g id="Node000008" class="node">
<title>Node8</title>
<g id="a_Node000008"><a xlink:title=" ">
<polygon fill="#e0e0e0" stroke="#999999" points="440.38,-20 397.38,-20 397.38,0 440.38,0 440.38,-20"/>
<text text-anchor="middle" x="418.88" y="-6.5" font-family="Helvetica,sans-Serif" font-size="10.00">vector</text>
</a>
</g>
</g>
<!-- Node3&#45;&gt;Node8 -->
<g id="edge7_Node000003_Node000008" class="edge">
<title>Node3&#45;&gt;Node8</title>
<g id="a_edge7_Node000003_Node000008"><a xlink:title=" ">
<path fill="none" stroke="#63b8ff" d="M448.41,-61.62C443.45,-53.12 435.99,-40.33 429.81,-29.74"/>
<polygon fill="#63b8ff" stroke="#63b8ff" points="433.02,-28.29 424.95,-21.42 426.97,-31.82 433.02,-28.29"/>
</a>
</g>
</g>
<!-- Node9&#45;&gt;Node3 -->
<g id="edge9_Node000009_Node000003" class="edge">
<title>Node9&#45;&gt;Node3</title>
<g id="a_edge9_Node000009_Node000003"><a xlink:title=" ">
<path fill="none" stroke="#63b8ff" d="M522.22,-123.62C509.74,-114.38 490.41,-100.07 475.49,-89.01"/>
<polygon fill="#63b8ff" stroke="#63b8ff" points="477.78,-86.35 467.66,-83.21 473.61,-91.97 477.78,-86.35"/>
</a>
</g>
</g>
<!-- Node9&#45;&gt;Node5 -->
<g id="edge15_Node000009_Node000005" class="edge">
<title>Node9&#45;&gt;Node5</title>
<g id="a_edge15_Node000009_Node000005"><a xlink:title=" ">
<path fill="none" stroke="#63b8ff" d="M536.15,-123.83C538.87,-104.31 545.29,-58.25 549.03,-31.4"/>
<polygon fill="#63b8ff" stroke="#63b8ff" points="552.46,-32.16 550.37,-21.78 545.53,-31.2 552.46,-32.16"/>
</a>
</g>
</g>
<!-- Node9&#45;&gt;Node6 -->
<g id="edge17_Node000009_Node000006" class="edge">
<title>Node9&#45;&gt;Node6</title>
<g id="a_edge17_Node000009_Node000006"><a xlink:title=" ">
<path fill="none" stroke="#63b8ff" d="M494.69,-132.54C458.42,-129.91 406.09,-120.24 374.88,-88 360.46,-73.11 356.42,-49.1 355.55,-31.85"/>
<polygon fill="#63b8ff" stroke="#63b8ff" points="359.05,-31.93 355.4,-21.99 352.05,-32.04 359.05,-31.93"/>
</a>
</g>
</g>
<!-- Node10 -->
<g id="Node000010" class="node">
<title>Node10</title>
<g id="a_Node000010"><a xlink:href="Errors_8hpp.html" target="_top" xlink:title=" ">
<polygon fill="white" stroke="#666666" points="221.38,-82 88.38,-82 88.38,-62 221.38,-62 221.38,-82"/>
<text text-anchor="middle" x="154.88" y="-68.5" font-family="Helvetica,sans-Serif" font-size="10.00">EyeAICore/utils/Errors.hpp</text>
</a>
</g>
</g>
<!-- Node9&#45;&gt;Node10 -->
<g id="edge10_Node000009_Node000010" class="edge">
<title>Node9&#45;&gt;Node10</title>
<g id="a_edge10_Node000009_Node000010"><a xlink:title=" ">
<path fill="none" stroke="#63b8ff" d="M494.57,-126.64C430.76,-116.56 305.6,-96.8 226.32,-84.28"/>
<polygon fill="#63b8ff" stroke="#63b8ff" points="226.88,-80.83 216.46,-82.72 225.79,-87.74 226.88,-80.83"/>
</a>
</g>
</g>
<!-- Node14 -->
<g id="Node000014" class="node">
<title>Node14</title>
<g id="a_Node000014"><a xlink:title=" ">
<polygon fill="#e0e0e0" stroke="#999999" points="327.75,-82 278,-82 278,-62 327.75,-62 327.75,-82"/>
<text text-anchor="middle" x="302.88" y="-68.5" font-family="Helvetica,sans-Serif" font-size="10.00">optional</text>
</a>
</g>
</g>
<!-- Node9&#45;&gt;Node14 -->
<g id="edge16_Node000009_Node000014" class="edge">
<title>Node9&#45;&gt;Node14</title>
<g id="a_edge16_Node000009_Node000014"><a xlink:title=" ">
<path fill="none" stroke="#63b8ff" d="M494.52,-125.29C455.18,-117.37 393.84,-103.97 341.88,-88 340.15,-87.47 338.38,-86.9 336.61,-86.3"/>
<polygon fill="#63b8ff" stroke="#63b8ff" points="337.81,-83.01 327.21,-82.93 335.44,-89.6 337.81,-83.01"/>
</a>
</g>
</g>
<!-- Node9&#45;&gt;Node15 -->
<g id="edge18_Node000009_Node000015" class="edge">
<title>Node9&#45;&gt;Node15</title>
<g id="a_edge18_Node000009_Node000015"><a xlink:title=" ">
<path fill="none" stroke="#63b8ff" d="M574.95,-129.15C631.03,-123.21 735.82,-110.14 822.88,-88 825.31,-87.38 827.81,-86.68 830.31,-85.92"/>
<polygon fill="#63b8ff" stroke="#63b8ff" points="831.29,-89.28 839.69,-82.83 829.1,-82.63 831.29,-89.28"/>
</a>
</g>
</g>
<!-- Node9&#45;&gt;Node16 -->
<g id="edge19_Node000009_Node000016" class="edge">
<title>Node9&#45;&gt;Node16</title>
<g id="a_edge19_Node000009_Node000016"><a xlink:title=" ">
<path fill="none" stroke="#63b8ff" d="M549.25,-123.62C561.22,-115.82 578.73,-104.4 594.08,-94.38"/>
<polygon fill="#63b8ff" stroke="#63b8ff" points="595.57,-97.59 602.03,-89.2 591.75,-91.73 595.57,-97.59"/>
</a>
</g>
</g>
<!-- Node9&#45;&gt;Node17 -->
<g id="edge20_Node000009_Node000017" class="edge">
<title>Node9&#45;&gt;Node17</title>
<g id="a_edge20_Node000009_Node000017"><a xlink:title=" ">
<path fill="none" stroke="#63b8ff" d="M568.94,-123.62C600.13,-115.04 647.2,-102.08 685.92,-91.43"/>
<polygon fill="#63b8ff" stroke="#63b8ff" points="686.42,-94.92 695.13,-88.89 684.56,-88.17 686.42,-94.92"/>
</a>
</g>
</g>
<!-- Node10&#45;&gt;Node7 -->
<g id="edge14_Node000010_Node000007" class="edge">
<title>Node10&#45;&gt;Node7</title>
<g id="a_edge14_Node000010_Node000007"><a xlink:title=" ">
<path fill="none" stroke="#63b8ff" d="M172.84,-61.62C191.33,-51.98 220.37,-36.83 241.87,-25.61"/>
<polygon fill="#63b8ff" stroke="#63b8ff" points="243.44,-28.74 250.69,-21.01 240.21,-22.53 243.44,-28.74"/>
</a>
</g>
</g>
<!-- Node10&#45;&gt;Node11 -->
<g id="edge11_Node000010_Node000011" class="edge">
<title>Node10&#45;&gt;Node11</title>
<g id="a_edge11_Node000010_Node000011"><a xlink:title=" ">
<path fill="none" stroke="#63b8ff" d="M134.09,-61.62C112.33,-51.81 77.9,-36.27 52.91,-25"/>
<polygon fill="#63b8ff" stroke="#63b8ff" points="54.44,-21.85 43.89,-20.93 51.57,-28.23 54.44,-21.85"/>
</a>
</g>
</g>
<!-- Node10&#45;&gt;Node12 -->
<g id="edge12_Node000010_Node000012" class="edge">
<title>Node10&#45;&gt;Node12</title>
<g id="a_edge12_Node000010_Node000012"><a xlink:title=" ">
<path fill="none" stroke="#63b8ff" d="M143.47,-61.62C132.26,-52.41 114.93,-38.17 101.51,-27.14"/>
<polygon fill="#63b8ff" stroke="#63b8ff" points="104.08,-24.72 94.13,-21.07 99.63,-30.13 104.08,-24.72"/>
</a>
</g>
</g>
<!-- Node13 -->
<g id="Node000013" class="node">
<title>Node13</title>
<g id="a_Node000013"><a xlink:title=" ">
<polygon fill="#e0e0e0" stroke="#999999" points="202.25,-20 119.5,-20 119.5,0 202.25,0 202.25,-20"/>
<text text-anchor="middle" x="160.88" y="-6.5" font-family="Helvetica,sans-Serif" font-size="10.00">tl/expected.hpp</text>
</a>
</g>
</g>
<!-- Node10&#45;&gt;Node13 -->
<g id="edge13_Node000010_Node000013" class="edge">
<title>Node10&#45;&gt;Node13</title>
<g id="a_edge13_Node000010_Node000013"><a xlink:title=" ">
<path fill="none" stroke="#63b8ff" d="M155.81,-61.62C156.62,-53.56 157.81,-41.65 158.83,-31.41"/>
<polygon fill="#63b8ff" stroke="#63b8ff" points="162.3,-31.92 159.81,-21.62 155.34,-31.22 162.3,-31.92"/>
</a>
</g>
</g>
<!-- Node18&#45;&gt;Node15 -->
<g id="edge31_Node000018_Node000015" class="edge">
<title>Node18&#45;&gt;Node15</title>
<g id="a_edge31_Node000018_Node000015"><a xlink:title=" ">
<path fill="none" stroke="#63b8ff" d="M895.39,-185.83C890.09,-166.22 877.54,-119.83 870.3,-93.04"/>
<polygon fill="#63b8ff" stroke="#63b8ff" points="873.77,-92.48 867.78,-83.74 867.01,-94.3 873.77,-92.48"/>
</a>
</g>
</g>
<!-- Node19 -->
<g id="Node000019" class="node">
<title>Node19</title>
<g id="a_Node000019"><a xlink:title=" ">
<polygon fill="#e0e0e0" stroke="#999999" points="971.5,-144 926.25,-144 926.25,-124 971.5,-124 971.5,-144"/>
<text text-anchor="middle" x="948.88" y="-130.5" font-family="Helvetica,sans-Serif" font-size="10.00">chrono</text>
</a>
</g>
</g>
<!-- Node18&#45;&gt;Node19 -->
<g id="edge29_Node000018_Node000019" class="edge">
<title>Node18&#45;&gt;Node19</title>
<g id="a_edge29_Node000018_Node000019"><a xlink:title=" ">
<path fill="none" stroke="#63b8ff" d="M905.84,-185.62C913.3,-176.86 924.62,-163.53 933.79,-152.75"/>
<polygon fill="#63b8ff" stroke="#63b8ff" points="936.34,-155.15 940.15,-145.27 931.01,-150.62 936.34,-155.15"/>
</a>
</g>
</g>
<!-- Node20 -->
<g id="Node000020" class="node">
<title>Node20</title>
<g id="a_Node000020"><a xlink:title=" ">
<polygon fill="#e0e0e0" stroke="#999999" points="1086,-144 989.75,-144 989.75,-124 1086,-124 1086,-144"/>
<text text-anchor="middle" x="1037.88" y="-130.5" font-family="Helvetica,sans-Serif" font-size="10.00">concurrentqueue.h</text>
</a>
</g>
</g>
<!-- Node18&#45;&gt;Node20 -->
<g id="edge30_Node000018_Node000020" class="edge">
<title>Node18&#45;&gt;Node20</title>
<g id="a_edge30_Node000018_Node000020"><a xlink:title=" ">
<path fill="none" stroke="#63b8ff" d="M919.75,-185.62C942.87,-175.72 979.55,-159.99 1005.91,-148.7"/>
<polygon fill="#63b8ff" stroke="#63b8ff" points="1006.95,-152.06 1014.76,-144.91 1004.19,-145.63 1006.95,-152.06"/>
</a>
</g>
</g>
</g>
</svg>
