<?xml version="1.0" encoding="UTF-8" standalone="no"?>
<!DOCTYPE svg PUBLIC "-//W3C//DTD SVG 1.1//EN"
 "http://www.w3.org/Graphics/SVG/1.1/DTD/svg11.dtd">
<!-- Generated by graphviz version 12.2.1 (20241206.2353)
 -->
<!-- Title: include/EyeAICore/tflite/TfLiteUtils.hpp Pages: 1 -->
<svg width="842pt" height="164pt"
 viewBox="0.00 0.00 841.50 164.00" xmlns="http://www.w3.org/2000/svg" xmlns:xlink="http://www.w3.org/1999/xlink">
<g id="graph0" class="graph" transform="scale(1 1) rotate(0) translate(4 160)">
<title>include/EyeAICore/tflite/TfLiteUtils.hpp</title>
<!-- Node1 -->
<g id="Node000001" class="node">
<title>Node1</title>
<g id="a_Node000001"><a xlink:title=" ">
<polygon fill="#999999" stroke="#666666" points="444.38,-156 324.88,-156 324.88,-124 444.38,-124 444.38,-156"/>
<text text-anchor="start" x="332.88" y="-142.5" font-family="Helvetica,sans-Serif" font-size="10.00">include/EyeAICore/tflite</text>
<text text-anchor="middle" x="384.62" y="-130.5" font-family="Helvetica,sans-Serif" font-size="10.00">/TfLiteUtils.hpp</text>
</a>
</g>
</g>
<!-- Node2 -->
<g id="Node000002" class="node">
<title>Node2</title>
<g id="a_Node000002"><a xlink:href="Operators_8hpp.html" target="_top" xlink:title=" ">
<polygon fill="white" stroke="#666666" points="271.88,-82 143.38,-82 143.38,-62 271.88,-62 271.88,-82"/>
<text text-anchor="middle" x="207.62" y="-68.5" font-family="Helvetica,sans-Serif" font-size="10.00">EyeAICore/Operators.hpp</text>
</a>
</g>
</g>
<!-- Node1&#45;&gt;Node2 -->
<g id="edge1_Node000001_Node000002" class="edge">
<title>Node1&#45;&gt;Node2</title>
<g id="a_edge1_Node000001_Node000002"><a xlink:title=" ">
<path fill="none" stroke="#63b8ff" d="M343.13,-123.53C312.86,-112.24 272.27,-97.11 243.43,-86.35"/>
<polygon fill="#63b8ff" stroke="#63b8ff" points="245.01,-83.2 234.41,-82.99 242.56,-89.76 245.01,-83.2"/>
</a>
</g>
</g>
<!-- Node5 -->
<g id="Node000005" class="node">
<title>Node5</title>
<g id="a_Node000005"><a xlink:title=" ">
<polygon fill="#e0e0e0" stroke="#999999" points="51.25,-20 0,-20 0,0 51.25,0 51.25,-20"/>
<text text-anchor="middle" x="25.62" y="-6.5" font-family="Helvetica,sans-Serif" font-size="10.00">memory</text>
</a>
</g>
</g>
<!-- Node1&#45;&gt;Node5 -->
<g id="edge14_Node000001_Node000005" class="edge">
<title>Node1&#45;&gt;Node5</title>
<g id="a_edge14_Node000001_Node000005"><a xlink:title=" ">
<path fill="none" stroke="#63b8ff" d="M324.45,-133.76C272.47,-127.61 196.22,-114.64 134.62,-88 99.77,-72.93 64.87,-45.59 44.26,-27.88"/>
<polygon fill="#63b8ff" stroke="#63b8ff" points="46.82,-25.46 36.99,-21.49 42.2,-30.72 46.82,-25.46"/>
</a>
</g>
</g>
<!-- Node6 -->
<g id="Node000006" class="node">
<title>Node6</title>
<g id="a_Node000006"><a xlink:title=" ">
<polygon fill="#e0e0e0" stroke="#999999" points="299.5,-20 249.75,-20 249.75,0 299.5,0 299.5,-20"/>
<text text-anchor="middle" x="274.62" y="-6.5" font-family="Helvetica,sans-Serif" font-size="10.00">optional</text>
</a>
</g>
</g>
<!-- Node1&#45;&gt;Node6 -->
<g id="edge15_Node000001_Node000006" class="edge">
<title>Node1&#45;&gt;Node6</title>
<g id="a_edge15_Node000001_Node000006"><a xlink:title=" ">
<path fill="none" stroke="#63b8ff" d="M371.36,-123.56C350.89,-99.74 311.71,-54.15 290.02,-28.91"/>
<polygon fill="#63b8ff" stroke="#63b8ff" points="292.8,-26.78 283.63,-21.47 287.49,-31.34 292.8,-26.78"/>
</a>
</g>
</g>
<!-- Node7 -->
<g id="Node000007" class="node">
<title>Node7</title>
<g id="a_Node000007"><a xlink:title=" ">
<polygon fill="#e0e0e0" stroke="#999999" points="354.12,-20 317.12,-20 317.12,0 354.12,0 354.12,-20"/>
<text text-anchor="middle" x="335.62" y="-6.5" font-family="Helvetica,sans-Serif" font-size="10.00">span</text>
</a>
</g>
</g>
<!-- Node1&#45;&gt;Node7 -->
<g id="edge16_Node000001_Node000007" class="edge">
<title>Node1&#45;&gt;Node7</title>
<g id="a_edge16_Node000001_Node000007"><a xlink:title=" ">
<path fill="none" stroke="#63b8ff" d="M375.49,-123.78C369.8,-113.84 362.64,-100.45 357.62,-88 350.09,-69.27 344.02,-47.02 340.19,-31.27"/>
<polygon fill="#63b8ff" stroke="#63b8ff" points="343.63,-30.63 337.95,-21.69 336.82,-32.22 343.63,-30.63"/>
</a>
</g>
</g>
<!-- Node10 -->
<g id="Node000010" class="node">
<title>Node10</title>
<g id="a_Node000010"><a xlink:href="Errors_8hpp.html" target="_top" xlink:title=" ">
<polygon fill="white" stroke="#666666" points="499.12,-82 366.12,-82 366.12,-62 499.12,-62 499.12,-82"/>
<text text-anchor="middle" x="432.62" y="-68.5" font-family="Helvetica,sans-Serif" font-size="10.00">EyeAICore/utils/Errors.hpp</text>
</a>
</g>
</g>
<!-- Node1&#45;&gt;Node10 -->
<g id="edge9_Node000001_Node000010" class="edge">
<title>Node1&#45;&gt;Node10</title>
<g id="a_edge9_Node000001_Node000010"><a xlink:title=" ">
<path fill="none" stroke="#63b8ff" d="M395.76,-123.69C402.74,-114.1 411.78,-101.67 419.16,-91.52"/>
<polygon fill="#63b8ff" stroke="#63b8ff" points="421.91,-93.69 424.96,-83.54 416.25,-89.57 421.91,-93.69"/>
</a>
</g>
</g>
<!-- Node14 -->
<g id="Node000014" class="node">
<title>Node14</title>
<g id="a_Node000014"><a xlink:title=" ">
<polygon fill="#e0e0e0" stroke="#999999" points="582.38,-82 516.88,-82 516.88,-62 582.38,-62 582.38,-82"/>
<text text-anchor="middle" x="549.62" y="-68.5" font-family="Helvetica,sans-Serif" font-size="10.00">string_view</text>
</a>
</g>
</g>
<!-- Node1&#45;&gt;Node14 -->
<g id="edge17_Node000001_Node000014" class="edge">
<title>Node1&#45;&gt;Node14</title>
<g id="a_edge17_Node000001_Node000014"><a xlink:title=" ">
<path fill="none" stroke="#63b8ff" d="M423.31,-123.53C451.27,-112.34 488.69,-97.37 515.54,-86.64"/>
<polygon fill="#63b8ff" stroke="#63b8ff" points="516.58,-89.99 524.57,-83.02 513.98,-83.49 516.58,-89.99"/>
</a>
</g>
</g>
<!-- Node15 -->
<g id="Node000015" class="node">
<title>Node15</title>
<g id="a_Node000015"><a xlink:title=" ">
<polygon fill="#e0e0e0" stroke="#999999" points="693.25,-88 600,-88 600,-56 693.25,-56 693.25,-88"/>
<text text-anchor="start" x="608" y="-74.5" font-family="Helvetica,sans-Serif" font-size="10.00">tensorflow/lite/c/c</text>
<text text-anchor="middle" x="646.62" y="-62.5" font-family="Helvetica,sans-Serif" font-size="10.00">_api.h</text>
</a>
</g>
</g>
<!-- Node1&#45;&gt;Node15 -->
<g id="edge18_Node000001_Node000015" class="edge">
<title>Node1&#45;&gt;Node15</title>
<g id="a_edge18_Node000001_Node000015"><a xlink:title=" ">
<path fill="none" stroke="#63b8ff" d="M444.51,-124.66C483.23,-115.29 534.99,-102.6 588.47,-88.79"/>
<polygon fill="#63b8ff" stroke="#63b8ff" points="589.27,-92.2 598.08,-86.3 587.52,-85.42 589.27,-92.2"/>
</a>
</g>
</g>
<!-- Node16 -->
<g id="Node000016" class="node">
<title>Node16</title>
<g id="a_Node000016"><a xlink:title=" ">
<polygon fill="#e0e0e0" stroke="#999999" points="833.5,-88 711.75,-88 711.75,-56 833.5,-56 833.5,-88"/>
<text text-anchor="start" x="719.75" y="-74.5" font-family="Helvetica,sans-Serif" font-size="10.00">tensorflow/lite/delegates</text>
<text text-anchor="middle" x="772.62" y="-62.5" font-family="Helvetica,sans-Serif" font-size="10.00">/gpu/delegate.h</text>
</a>
</g>
</g>
<!-- Node1&#45;&gt;Node16 -->
<g id="edge19_Node000001_Node000016" class="edge">
<title>Node1&#45;&gt;Node16</title>
<g id="a_edge19_Node000001_Node000016"><a xlink:title=" ">
<path fill="none" stroke="#63b8ff" d="M444.86,-130.29C506.5,-121.17 605.3,-105.96 700.31,-88.38"/>
<polygon fill="#63b8ff" stroke="#63b8ff" points="700.9,-91.83 710.09,-86.55 699.62,-84.95 700.9,-91.83"/>
</a>
</g>
</g>
<!-- Node3 -->
<g id="Node000003" class="node">
<title>Node3</title>
<g id="a_Node000003"><a xlink:title=" ">
<polygon fill="#e0e0e0" stroke="#999999" points="107.5,-20 69.75,-20 69.75,0 107.5,0 107.5,-20"/>
<text text-anchor="middle" x="88.62" y="-6.5" font-family="Helvetica,sans-Serif" font-size="10.00">array</text>
</a>
</g>
</g>
<!-- Node2&#45;&gt;Node3 -->
<g id="edge2_Node000002_Node000003" class="edge">
<title>Node2&#45;&gt;Node3</title>
<g id="a_edge2_Node000002_Node000003"><a xlink:title=" ">
<path fill="none" stroke="#63b8ff" d="M189.03,-61.62C169.82,-51.94 139.58,-36.69 117.3,-25.46"/>
<polygon fill="#63b8ff" stroke="#63b8ff" points="118.94,-22.37 108.44,-20.99 115.79,-28.62 118.94,-22.37"/>
</a>
</g>
</g>
<!-- Node4 -->
<g id="Node000004" class="node">
<title>Node4</title>
<g id="a_Node000004"><a xlink:title=" ">
<polygon fill="#e0e0e0" stroke="#999999" points="171.25,-20 126,-20 126,0 171.25,0 171.25,-20"/>
<text text-anchor="middle" x="148.62" y="-6.5" font-family="Helvetica,sans-Serif" font-size="10.00">cstdint</text>
</a>
</g>
</g>
<!-- Node2&#45;&gt;Node4 -->
<g id="edge3_Node000002_Node000004" class="edge">
<title>Node2&#45;&gt;Node4</title>
<g id="a_edge3_Node000002_Node000004"><a xlink:title=" ">
<path fill="none" stroke="#63b8ff" d="M198.41,-61.62C189.61,-52.68 176.15,-38.99 165.44,-28.1"/>
<polygon fill="#63b8ff" stroke="#63b8ff" points="168.15,-25.87 158.65,-21.19 163.16,-30.78 168.15,-25.87"/>
</a>
</g>
</g>
<!-- Node2&#45;&gt;Node5 -->
<g id="edge4_Node000002_Node000005" class="edge">
<title>Node2&#45;&gt;Node5</title>
<g id="a_edge4_Node000002_Node000005"><a xlink:title=" ">
<path fill="none" stroke="#63b8ff" d="M179.19,-61.62C147.61,-51.22 96.56,-34.39 62.08,-23.02"/>
<polygon fill="#63b8ff" stroke="#63b8ff" points="63.54,-19.81 52.95,-20.01 61.35,-26.46 63.54,-19.81"/>
</a>
</g>
</g>
<!-- Node2&#45;&gt;Node6 -->
<g id="edge5_Node000002_Node000006" class="edge">
<title>Node2&#45;&gt;Node6</title>
<g id="a_edge5_Node000002_Node000006"><a xlink:title=" ">
<path fill="none" stroke="#63b8ff" d="M218.09,-61.62C228.18,-52.59 243.67,-38.72 255.89,-27.78"/>
<polygon fill="#63b8ff" stroke="#63b8ff" points="258.21,-30.4 263.32,-21.12 253.54,-25.19 258.21,-30.4"/>
</a>
</g>
</g>
<!-- Node2&#45;&gt;Node7 -->
<g id="edge6_Node000002_Node000007" class="edge">
<title>Node2&#45;&gt;Node7</title>
<g id="a_edge6_Node000002_Node000007"><a xlink:title=" ">
<path fill="none" stroke="#63b8ff" d="M227.62,-61.62C248.84,-51.68 282.57,-35.87 306.69,-24.56"/>
<polygon fill="#63b8ff" stroke="#63b8ff" points="308.07,-27.78 315.64,-20.37 305.1,-21.44 308.07,-27.78"/>
</a>
</g>
</g>
<!-- Node8 -->
<g id="Node000008" class="node">
<title>Node8</title>
<g id="a_Node000008"><a xlink:title=" ">
<polygon fill="#e0e0e0" stroke="#999999" points="412.62,-20 372.62,-20 372.62,0 412.62,0 412.62,-20"/>
<text text-anchor="middle" x="392.62" y="-6.5" font-family="Helvetica,sans-Serif" font-size="10.00">string</text>
</a>
</g>
</g>
<!-- Node2&#45;&gt;Node8 -->
<g id="edge7_Node000002_Node000008" class="edge">
<title>Node2&#45;&gt;Node8</title>
<g id="a_edge7_Node000002_Node000008"><a xlink:title=" ">
<path fill="none" stroke="#63b8ff" d="M236.53,-61.62C270.55,-50.59 326.82,-32.34 361.69,-21.03"/>
<polygon fill="#63b8ff" stroke="#63b8ff" points="362.34,-24.5 370.77,-18.09 360.18,-17.84 362.34,-24.5"/>
</a>
</g>
</g>
<!-- Node9 -->
<g id="Node000009" class="node">
<title>Node9</title>
<g id="a_Node000009"><a xlink:title=" ">
<polygon fill="#e0e0e0" stroke="#999999" points="232.12,-20 189.12,-20 189.12,0 232.12,0 232.12,-20"/>
<text text-anchor="middle" x="210.62" y="-6.5" font-family="Helvetica,sans-Serif" font-size="10.00">vector</text>
</a>
</g>
</g>
<!-- Node2&#45;&gt;Node9 -->
<g id="edge8_Node000002_Node000009" class="edge">
<title>Node2&#45;&gt;Node9</title>
<g id="a_edge8_Node000002_Node000009"><a xlink:title=" ">
<path fill="none" stroke="#63b8ff" d="M208.09,-61.62C208.5,-53.56 209.09,-41.65 209.6,-31.41"/>
<polygon fill="#63b8ff" stroke="#63b8ff" points="213.09,-31.79 210.09,-21.62 206.1,-31.44 213.09,-31.79"/>
</a>
</g>
</g>
<!-- Node10&#45;&gt;Node8 -->
<g id="edge11_Node000010_Node000008" class="edge">
<title>Node10&#45;&gt;Node8</title>
<g id="a_edge11_Node000010_Node000008"><a xlink:title=" ">
<path fill="none" stroke="#63b8ff" d="M426.38,-61.62C420.65,-53.03 412,-40.07 404.9,-29.41"/>
<polygon fill="#63b8ff" stroke="#63b8ff" points="408,-27.75 399.54,-21.37 402.17,-31.63 408,-27.75"/>
</a>
</g>
</g>
<!-- Node11 -->
<g id="Node000011" class="node">
<title>Node11</title>
<g id="a_Node000011"><a xlink:title=" ">
<polygon fill="#e0e0e0" stroke="#999999" points="474.5,-20 430.75,-20 430.75,0 474.5,0 474.5,-20"/>
<text text-anchor="middle" x="452.62" y="-6.5" font-family="Helvetica,sans-Serif" font-size="10.00">format</text>
</a>
</g>
</g>
<!-- Node10&#45;&gt;Node11 -->
<g id="edge10_Node000010_Node000011" class="edge">
<title>Node10&#45;&gt;Node11</title>
<g id="a_edge10_Node000010_Node000011"><a xlink:title=" ">
<path fill="none" stroke="#63b8ff" d="M435.75,-61.62C438.5,-53.39 442.58,-41.13 446.05,-30.74"/>
<polygon fill="#63b8ff" stroke="#63b8ff" points="449.27,-32.14 449.11,-21.55 442.63,-29.93 449.27,-32.14"/>
</a>
</g>
</g>
<!-- Node12 -->
<g id="Node000012" class="node">
<title>Node12</title>
<g id="a_Node000012"><a xlink:title=" ">
<polygon fill="#e0e0e0" stroke="#999999" points="575,-20 492.25,-20 492.25,0 575,0 575,-20"/>
<text text-anchor="middle" x="533.62" y="-6.5" font-family="Helvetica,sans-Serif" font-size="10.00">tl/expected.hpp</text>
</a>
</g>
</g>
<!-- Node10&#45;&gt;Node12 -->
<g id="edge12_Node000010_Node000012" class="edge">
<title>Node10&#45;&gt;Node12</title>
<g id="a_edge12_Node000010_Node000012"><a xlink:title=" ">
<path fill="none" stroke="#63b8ff" d="M448.41,-61.62C464.42,-52.11 489.45,-37.24 508.25,-26.08"/>
<polygon fill="#63b8ff" stroke="#63b8ff" points="509.84,-29.2 516.65,-21.08 506.27,-23.18 509.84,-29.2"/>
</a>
</g>
</g>
<!-- Node13 -->
<g id="Node000013" class="node">
<title>Node13</title>
<g id="a_Node000013"><a xlink:title=" ">
<polygon fill="#e0e0e0" stroke="#999999" points="638.25,-20 593,-20 593,0 638.25,0 638.25,-20"/>
<text text-anchor="middle" x="615.62" y="-6.5" font-family="Helvetica,sans-Serif" font-size="10.00">variant</text>
</a>
</g>
</g>
<!-- Node10&#45;&gt;Node13 -->
<g id="edge13_Node000010_Node000013" class="edge">
<title>Node10&#45;&gt;Node13</title>
<g id="a_edge13_Node000010_Node000013"><a xlink:title=" ">
<path fill="none" stroke="#63b8ff" d="M461.22,-61.62C493.96,-50.89 547.54,-33.32 582.19,-21.96"/>
<polygon fill="#63b8ff" stroke="#63b8ff" points="582.88,-25.42 591.29,-18.98 580.69,-18.77 582.88,-25.42"/>
</a>
</g>
</g>
</g>
</svg>
