<?xml version="1.0" encoding="UTF-8" standalone="no"?>
<!DOCTYPE svg PUBLIC "-//W3C//DTD SVG 1.1//EN"
 "http://www.w3.org/Graphics/SVG/1.1/DTD/svg11.dtd">
<!-- Generated by graphviz version 12.2.1 (20241206.2353)
 -->
<!-- Title: include/EyeAICore/tflite/TfLiteRuntime.hpp Pages: 1 -->
<svg width="918pt" height="300pt"
 viewBox="0.00 0.00 918.12 300.00" xmlns="http://www.w3.org/2000/svg" xmlns:xlink="http://www.w3.org/1999/xlink">
<g id="graph0" class="graph" transform="scale(1 1) rotate(0) translate(4 296)">
<title>include/EyeAICore/tflite/TfLiteRuntime.hpp</title>
<!-- Node1 -->
<g id="Node000001" class="node">
<title>Node1</title>
<g id="a_Node000001"><a xlink:title=" ">
<polygon fill="#999999" stroke="#666666" points="528.62,-292 409.12,-292 409.12,-260 528.62,-260 528.62,-292"/>
<text text-anchor="start" x="417.12" y="-278.5" font-family="Helvetica,sans-Serif" font-size="10.00">include/EyeAICore/tflite</text>
<text text-anchor="middle" x="468.88" y="-266.5" font-family="Helvetica,sans-Serif" font-size="10.00">/TfLiteRuntime.hpp</text>
</a>
</g>
</g>
<!-- Node2 -->
<g id="Node000002" class="node">
<title>Node2</title>
<g id="a_Node000002"><a xlink:href="DepthModel_8hpp.html" target="_top" xlink:title=" ">
<polygon fill="white" stroke="#666666" points="235.88,-218 63.88,-218 63.88,-198 235.88,-198 235.88,-218"/>
<text text-anchor="middle" x="149.88" y="-204.5" font-family="Helvetica,sans-Serif" font-size="10.00">include/EyeAICore/DepthModel.hpp</text>
</a>
</g>
</g>
<!-- Node1&#45;&gt;Node2 -->
<g id="edge1_Node000001_Node000002" class="edge">
<title>Node1&#45;&gt;Node2</title>
<g id="a_edge1_Node000001_Node000002"><a xlink:title=" ">
<path fill="none" stroke="#63b8ff" d="M397.66,-260.27C335.95,-247.5 248.48,-229.4 195.67,-218.47"/>
<polygon fill="#63b8ff" stroke="#63b8ff" points="396.89,-263.68 407.39,-262.28 398.31,-256.83 396.89,-263.68"/>
</a>
</g>
</g>
<!-- Node3 -->
<g id="Node000003" class="node">
<title>Node3</title>
<g id="a_Node000003"><a xlink:href="DepthModel_8cpp.html" target="_top" xlink:title=" ">
<polygon fill="white" stroke="#666666" points="103.75,-150 0,-150 0,-130 103.75,-130 103.75,-150"/>
<text text-anchor="middle" x="51.88" y="-136.5" font-family="Helvetica,sans-Serif" font-size="10.00">src/DepthModel.cpp</text>
</a>
</g>
</g>
<!-- Node1&#45;&gt;Node3 -->
<g id="edge20_Node000001_Node000003" class="edge">
<title>Node1&#45;&gt;Node3</title>
<g id="a_edge20_Node000001_Node000003"><a xlink:title=" ">
<path fill="none" stroke="#63b8ff" d="M397.8,-271.2C285.57,-264.47 77.62,-248.8 54.88,-224 36.26,-203.7 43.75,-167.49 48.76,-150.41"/>
<polygon fill="#63b8ff" stroke="#63b8ff" points="397.32,-274.68 407.51,-271.77 397.73,-267.69 397.32,-274.68"/>
</a>
</g>
</g>
<!-- Node5 -->
<g id="Node000005" class="node">
<title>Node5</title>
<g id="a_Node000005"><a xlink:href="MetricDepthModel_8hpp.html" target="_top" xlink:title=" ">
<polygon fill="white" stroke="#666666" points="381.75,-224 254,-224 254,-192 381.75,-192 381.75,-224"/>
<text text-anchor="start" x="262" y="-210.5" font-family="Helvetica,sans-Serif" font-size="10.00">include/EyeAICore/Metric</text>
<text text-anchor="middle" x="317.88" y="-198.5" font-family="Helvetica,sans-Serif" font-size="10.00">DepthModel.hpp</text>
</a>
</g>
</g>
<!-- Node1&#45;&gt;Node5 -->
<g id="edge4_Node000001_Node000005" class="edge">
<title>Node1&#45;&gt;Node5</title>
<g id="a_edge4_Node000001_Node000005"><a xlink:title=" ">
<path fill="none" stroke="#63b8ff" d="M423.18,-255.03C400.76,-245.23 374.17,-233.61 353.32,-224.49"/>
<polygon fill="#63b8ff" stroke="#63b8ff" points="421.52,-258.12 432.09,-258.92 424.32,-251.71 421.52,-258.12"/>
</a>
</g>
</g>
<!-- Node7 -->
<g id="Node000007" class="node">
<title>Node7</title>
<g id="a_Node000007"><a xlink:href="Rel2AbsDepthModel_8hpp.html" target="_top" xlink:title=" ">
<polygon fill="white" stroke="#666666" points="538,-224 399.75,-224 399.75,-192 538,-192 538,-224"/>
<text text-anchor="start" x="407.75" y="-210.5" font-family="Helvetica,sans-Serif" font-size="10.00">include/EyeAICore/Rel2Abs</text>
<text text-anchor="middle" x="468.88" y="-198.5" font-family="Helvetica,sans-Serif" font-size="10.00">DepthModel.hpp</text>
</a>
</g>
</g>
<!-- Node1&#45;&gt;Node7 -->
<g id="edge7_Node000001_Node000007" class="edge">
<title>Node1&#45;&gt;Node7</title>
<g id="a_edge7_Node000001_Node000007"><a xlink:title=" ">
<path fill="none" stroke="#63b8ff" d="M468.88,-248.31C468.88,-240.12 468.88,-231.38 468.88,-224.22"/>
<polygon fill="#63b8ff" stroke="#63b8ff" points="465.38,-248.18 468.88,-258.18 472.38,-248.18 465.38,-248.18"/>
</a>
</g>
</g>
<!-- Node9 -->
<g id="Node000009" class="node">
<title>Node9</title>
<g id="a_Node000009"><a xlink:href="YoloModel_8hpp.html" target="_top" xlink:title=" ">
<polygon fill="white" stroke="#666666" points="720.12,-218 555.62,-218 555.62,-198 720.12,-198 720.12,-218"/>
<text text-anchor="middle" x="637.88" y="-204.5" font-family="Helvetica,sans-Serif" font-size="10.00">include/EyeAICore/YoloModel.hpp</text>
</a>
</g>
</g>
<!-- Node1&#45;&gt;Node9 -->
<g id="edge11_Node000001_Node000009" class="edge">
<title>Node1&#45;&gt;Node9</title>
<g id="a_edge11_Node000001_Node000009"><a xlink:title=" ">
<path fill="none" stroke="#63b8ff" d="M519.19,-255.35C550.41,-243.16 589.11,-228.05 613.65,-218.46"/>
<polygon fill="#63b8ff" stroke="#63b8ff" points="517.95,-252.08 509.91,-258.98 520.5,-258.6 517.95,-252.08"/>
</a>
</g>
</g>
<!-- Node14 -->
<g id="Node000014" class="node">
<title>Node14</title>
<g id="a_Node000014"><a xlink:href="YoloModel_8cpp.html" target="_top" xlink:title=" ">
<polygon fill="white" stroke="#666666" points="908,-150 811.75,-150 811.75,-130 908,-130 908,-150"/>
<text text-anchor="middle" x="859.88" y="-136.5" font-family="Helvetica,sans-Serif" font-size="10.00">src/YoloModel.cpp</text>
</a>
</g>
</g>
<!-- Node1&#45;&gt;Node14 -->
<g id="edge21_Node000001_Node000014" class="edge">
<title>Node1&#45;&gt;Node14</title>
<g id="a_edge21_Node000001_Node000014"><a xlink:title=" ">
<path fill="none" stroke="#63b8ff" d="M540.32,-270.69C594.33,-265.18 669.14,-252.62 728.88,-224 748.79,-214.46 748.66,-204.48 766.88,-192 790.88,-175.55 820.68,-159.98 839.97,-150.47"/>
<polygon fill="#63b8ff" stroke="#63b8ff" points="540.25,-267.18 530.63,-271.62 540.91,-274.15 540.25,-267.18"/>
</a>
</g>
</g>
<!-- Node15 -->
<g id="Node000015" class="node">
<title>Node15</title>
<g id="a_Node000015"><a xlink:href="TfLiteRuntime_8cpp.html" target="_top" xlink:title=" ">
<polygon fill="white" stroke="#666666" points="910.12,-218 775.62,-218 775.62,-198 910.12,-198 910.12,-218"/>
<text text-anchor="middle" x="842.88" y="-204.5" font-family="Helvetica,sans-Serif" font-size="10.00">src/tflite/TfLiteRuntime.cpp</text>
</a>
</g>
</g>
<!-- Node1&#45;&gt;Node15 -->
<g id="edge22_Node000001_Node000015" class="edge">
<title>Node1&#45;&gt;Node15</title>
<g id="a_edge22_Node000001_Node000015"><a xlink:title=" ">
<path fill="none" stroke="#63b8ff" d="M540.08,-262.83C599.43,-252.63 686.2,-237.59 761.88,-224 771.73,-222.23 782.25,-220.31 792.34,-218.45"/>
<polygon fill="#63b8ff" stroke="#63b8ff" points="539.71,-259.34 530.44,-264.48 540.89,-266.24 539.71,-259.34"/>
</a>
</g>
</g>
<!-- Node2&#45;&gt;Node3 -->
<g id="edge2_Node000002_Node000003" class="edge">
<title>Node2&#45;&gt;Node3</title>
<g id="a_edge2_Node000002_Node000003"><a xlink:title=" ">
<path fill="none" stroke="#63b8ff" d="M126.44,-191.22C107.57,-178.51 81.67,-161.07 65.89,-150.44"/>
<polygon fill="#63b8ff" stroke="#63b8ff" points="124.33,-194.02 134.58,-196.7 128.24,-188.21 124.33,-194.02"/>
</a>
</g>
</g>
<!-- Node4 -->
<g id="Node000004" class="node">
<title>Node4</title>
<g id="a_Node000004"><a xlink:href="MetricDepthModel_8cpp.html" target="_top" xlink:title=" ">
<polygon fill="white" stroke="#666666" points="260.25,-150 129.5,-150 129.5,-130 260.25,-130 260.25,-150"/>
<text text-anchor="middle" x="194.88" y="-136.5" font-family="Helvetica,sans-Serif" font-size="10.00">src/MetricDepthModel.cpp</text>
</a>
</g>
</g>
<!-- Node2&#45;&gt;Node4 -->
<g id="edge3_Node000002_Node000004" class="edge">
<title>Node2&#45;&gt;Node4</title>
<g id="a_edge3_Node000002_Node000004"><a xlink:title=" ">
<path fill="none" stroke="#63b8ff" d="M162.73,-188.15C171.14,-175.82 181.76,-160.23 188.44,-150.44"/>
<polygon fill="#63b8ff" stroke="#63b8ff" points="159.92,-186.06 157.18,-196.29 165.7,-190 159.92,-186.06"/>
</a>
</g>
</g>
<!-- Node5&#45;&gt;Node4 -->
<g id="edge5_Node000005_Node000004" class="edge">
<title>Node5&#45;&gt;Node4</title>
<g id="a_edge5_Node000005_Node000004"><a xlink:title=" ">
<path fill="none" stroke="#63b8ff" d="M279.16,-186.22C256.82,-174.24 229.82,-159.75 212.51,-150.46"/>
<polygon fill="#63b8ff" stroke="#63b8ff" points="277.24,-189.17 287.7,-190.81 280.55,-183 277.24,-189.17"/>
</a>
</g>
</g>
<!-- Node6 -->
<g id="Node000006" class="node">
<title>Node6</title>
<g id="a_Node000006"><a xlink:href="Operators_8cpp.html" target="_top" xlink:title=" ">
<polygon fill="white" stroke="#666666" points="371.88,-150 277.88,-150 277.88,-130 371.88,-130 371.88,-150"/>
<text text-anchor="middle" x="324.88" y="-136.5" font-family="Helvetica,sans-Serif" font-size="10.00">src/Operators.cpp</text>
</a>
</g>
</g>
<!-- Node5&#45;&gt;Node6 -->
<g id="edge6_Node000005_Node000006" class="edge">
<title>Node5&#45;&gt;Node6</title>
<g id="a_edge6_Node000005_Node000006"><a xlink:title=" ">
<path fill="none" stroke="#63b8ff" d="M320.71,-180.31C321.83,-169.67 323.06,-158.13 323.89,-150.32"/>
<polygon fill="#63b8ff" stroke="#63b8ff" points="317.23,-179.87 319.66,-190.19 324.19,-180.61 317.23,-179.87"/>
</a>
</g>
</g>
<!-- Node7&#45;&gt;Node4 -->
<g id="edge8_Node000007_Node000004" class="edge">
<title>Node7&#45;&gt;Node4</title>
<g id="a_edge8_Node000007_Node000004"><a xlink:title=" ">
<path fill="none" stroke="#63b8ff" d="M393.53,-188.85C341.93,-176.42 275.6,-160.44 234.15,-150.46"/>
<polygon fill="#63b8ff" stroke="#63b8ff" points="392.62,-192.23 403.16,-191.17 394.26,-185.43 392.62,-192.23"/>
</a>
</g>
</g>
<!-- Node7&#45;&gt;Node6 -->
<g id="edge9_Node000007_Node000006" class="edge">
<title>Node7&#45;&gt;Node6</title>
<g id="a_edge9_Node000007_Node000006"><a xlink:title=" ">
<path fill="none" stroke="#63b8ff" d="M424.95,-186.87C398.54,-174.76 366.16,-159.92 345.52,-150.46"/>
<polygon fill="#63b8ff" stroke="#63b8ff" points="423.19,-189.91 433.74,-190.9 426.11,-183.55 423.19,-189.91"/>
</a>
</g>
</g>
<!-- Node8 -->
<g id="Node000008" class="node">
<title>Node8</title>
<g id="a_Node000008"><a xlink:href="Rel2AbsDepthModel_8cpp.html" target="_top" xlink:title=" ">
<polygon fill="white" stroke="#666666" points="531.5,-150 390.25,-150 390.25,-130 531.5,-130 531.5,-150"/>
<text text-anchor="middle" x="460.88" y="-136.5" font-family="Helvetica,sans-Serif" font-size="10.00">src/Rel2AbsDepthModel.cpp</text>
</a>
</g>
</g>
<!-- Node7&#45;&gt;Node8 -->
<g id="edge10_Node000007_Node000008" class="edge">
<title>Node7&#45;&gt;Node8</title>
<g id="a_edge10_Node000007_Node000008"><a xlink:title=" ">
<path fill="none" stroke="#63b8ff" d="M465.64,-180.31C464.35,-169.67 462.95,-158.13 462,-150.32"/>
<polygon fill="#63b8ff" stroke="#63b8ff" points="462.16,-180.68 466.84,-190.19 469.11,-179.84 462.16,-180.68"/>
</a>
</g>
</g>
<!-- Node10 -->
<g id="Node000010" class="node">
<title>Node10</title>
<g id="a_Node000010"><a xlink:href="ObjectTracker_8hpp.html" target="_top" xlink:title=" ">
<polygon fill="white" stroke="#666666" points="755.5,-156 626.25,-156 626.25,-124 755.5,-124 755.5,-156"/>
<text text-anchor="start" x="634.25" y="-142.5" font-family="Helvetica,sans-Serif" font-size="10.00">include/EyeAICore/Object</text>
<text text-anchor="middle" x="690.88" y="-130.5" font-family="Helvetica,sans-Serif" font-size="10.00">Tracker.hpp</text>
</a>
</g>
</g>
<!-- Node9&#45;&gt;Node10 -->
<g id="edge12_Node000009_Node000010" class="edge">
<title>Node9&#45;&gt;Node10</title>
<g id="a_edge12_Node000009_Node000010"><a xlink:title=" ">
<path fill="none" stroke="#63b8ff" d="M652.6,-188.67C660.78,-178.48 670.83,-165.96 678.59,-156.3"/>
<polygon fill="#63b8ff" stroke="#63b8ff" points="649.95,-186.38 646.42,-196.36 655.41,-190.76 649.95,-186.38"/>
</a>
</g>
</g>
<!-- Node11 -->
<g id="Node000011" class="node">
<title>Node11</title>
<g id="a_Node000011"><a xlink:href="SpatialAudio_8hpp.html" target="_top" xlink:title=" ">
<polygon fill="white" stroke="#666666" points="841.88,-88 717.88,-88 717.88,-56 841.88,-56 841.88,-88"/>
<text text-anchor="start" x="725.88" y="-74.5" font-family="Helvetica,sans-Serif" font-size="10.00">include/EyeAICore/audio</text>
<text text-anchor="middle" x="779.88" y="-62.5" font-family="Helvetica,sans-Serif" font-size="10.00">/SpatialAudio.hpp</text>
</a>
</g>
</g>
<!-- Node9&#45;&gt;Node11 -->
<g id="edge16_Node000009_Node000011" class="edge">
<title>Node9&#45;&gt;Node11</title>
<g id="a_edge16_Node000009_Node000011"><a xlink:title=" ">
<path fill="none" stroke="#63b8ff" d="M703.94,-194.2C726.37,-186.66 749.59,-174.76 764.88,-156 780.6,-136.7 782.06,-106.43 781.26,-88.27"/>
<polygon fill="#63b8ff" stroke="#63b8ff" points="703.01,-190.82 694.48,-197.11 705.07,-197.51 703.01,-190.82"/>
</a>
</g>
</g>
<!-- Node12 -->
<g id="Node000012" class="node">
<title>Node12</title>
<g id="a_Node000012"><a xlink:href="SpatialAudio_8cpp.html" target="_top" xlink:title=" ">
<polygon fill="white" stroke="#666666" points="736,-20 603.75,-20 603.75,0 736,0 736,-20"/>
<text text-anchor="middle" x="669.88" y="-6.5" font-family="Helvetica,sans-Serif" font-size="10.00">src/audio/SpatialAudio.cpp</text>
</a>
</g>
</g>
<!-- Node9&#45;&gt;Node12 -->
<g id="edge19_Node000009_Node000012" class="edge">
<title>Node9&#45;&gt;Node12</title>
<g id="a_edge19_Node000009_Node000012"><a xlink:title=" ">
<path fill="none" stroke="#63b8ff" d="M620.81,-189.22C594.86,-159.96 551.27,-100.44 578.88,-56 590.03,-38.03 610.73,-27.02 629.56,-20.39"/>
<polygon fill="#63b8ff" stroke="#63b8ff" points="618.14,-191.49 627.48,-196.49 623.3,-186.76 618.14,-191.49"/>
</a>
</g>
</g>
<!-- Node13 -->
<g id="Node000013" class="node">
<title>Node13</title>
<g id="a_Node000013"><a xlink:href="ObjectTracker_8cpp.html" target="_top" xlink:title=" ">
<polygon fill="white" stroke="#666666" points="700.25,-82 587.5,-82 587.5,-62 700.25,-62 700.25,-82"/>
<text text-anchor="middle" x="643.88" y="-68.5" font-family="Helvetica,sans-Serif" font-size="10.00">src/ObjectTracker.cpp</text>
</a>
</g>
</g>
<!-- Node9&#45;&gt;Node13 -->
<g id="edge17_Node000009_Node000013" class="edge">
<title>Node9&#45;&gt;Node13</title>
<g id="a_edge17_Node000009_Node000013"><a xlink:title=" ">
<path fill="none" stroke="#63b8ff" d="M627.74,-187.5C623.48,-178.23 619.02,-166.82 616.88,-156 614.11,-142.05 613.45,-137.8 616.88,-124 620.79,-108.25 630.56,-92.01 637.21,-82.21"/>
<polygon fill="#63b8ff" stroke="#63b8ff" points="624.47,-188.77 632.01,-196.22 630.76,-185.7 624.47,-188.77"/>
</a>
</g>
</g>
<!-- Node9&#45;&gt;Node14 -->
<g id="edge18_Node000009_Node000014" class="edge">
<title>Node9&#45;&gt;Node14</title>
<g id="a_edge18_Node000009_Node000014"><a xlink:title=" ">
<path fill="none" stroke="#63b8ff" d="M680.68,-194.28C723.82,-181.45 789.41,-161.95 828.13,-150.44"/>
<polygon fill="#63b8ff" stroke="#63b8ff" points="679.72,-190.91 671.13,-197.11 681.72,-197.62 679.72,-190.91"/>
</a>
</g>
</g>
<!-- Node10&#45;&gt;Node11 -->
<g id="edge13_Node000010_Node000011" class="edge">
<title>Node10&#45;&gt;Node11</title>
<g id="a_edge13_Node000010_Node000011"><a xlink:title=" ">
<path fill="none" stroke="#63b8ff" d="M720.71,-116.87C733.29,-107.55 747.63,-96.91 759.04,-88.45"/>
<polygon fill="#63b8ff" stroke="#63b8ff" points="718.68,-114.02 712.73,-122.79 722.85,-119.65 718.68,-114.02"/>
</a>
</g>
</g>
<!-- Node10&#45;&gt;Node13 -->
<g id="edge15_Node000010_Node000013" class="edge">
<title>Node10&#45;&gt;Node13</title>
<g id="a_edge15_Node000010_Node000013"><a xlink:title=" ">
<path fill="none" stroke="#63b8ff" d="M673.33,-114.36C665.37,-103.18 656.43,-90.63 650.51,-82.32"/>
<polygon fill="#63b8ff" stroke="#63b8ff" points="670.44,-116.34 679.1,-122.46 676.15,-112.28 670.44,-116.34"/>
</a>
</g>
</g>
<!-- Node11&#45;&gt;Node12 -->
<g id="edge14_Node000011_Node000012" class="edge">
<title>Node11&#45;&gt;Node12</title>
<g id="a_edge14_Node000011_Node000012"><a xlink:title=" ">
<path fill="none" stroke="#63b8ff" d="M741.59,-50.12C723.03,-39.99 701.67,-28.34 687.12,-20.41"/>
<polygon fill="#63b8ff" stroke="#63b8ff" points="739.76,-53.11 750.22,-54.82 743.12,-46.96 739.76,-53.11"/>
</a>
</g>
</g>
</g>
</svg>
