<?xml version="1.0" encoding="UTF-8" standalone="no"?>
<!DOCTYPE svg PUBLIC "-//W3C//DTD SVG 1.1//EN"
 "http://www.w3.org/Graphics/SVG/1.1/DTD/svg11.dtd">
<!-- Generated by graphviz version 12.2.1 (20241206.2353)
 -->
<!-- Title: src/YoloModel.cpp Pages: 1 -->
<svg width="1086pt" height="320pt"
 viewBox="0.00 0.00 1086.25 320.00" xmlns="http://www.w3.org/2000/svg" xmlns:xlink="http://www.w3.org/1999/xlink">
<g id="graph0" class="graph" transform="scale(1 1) rotate(0) translate(4 316)">
<title>src/YoloModel.cpp</title>
<!-- Node1 -->
<g id="Node000001" class="node">
<title>Node1</title>
<g id="a_Node000001"><a xlink:title=" ">
<polygon fill="#999999" stroke="#666666" points="786.75,-312 690.5,-312 690.5,-292 786.75,-292 786.75,-312"/>
<text text-anchor="middle" x="738.62" y="-298.5" font-family="Helvetica,sans-Serif" font-size="10.00">src/YoloModel.cpp</text>
</a>
</g>
</g>
<!-- Node2 -->
<g id="Node000002" class="node">
<title>Node2</title>
<g id="a_Node000002"><a xlink:href="YoloModel_8hpp.html" target="_top" xlink:title=" ">
<polygon fill="white" stroke="#666666" points="554,-256 423.25,-256 423.25,-236 554,-236 554,-256"/>
<text text-anchor="middle" x="488.62" y="-242.5" font-family="Helvetica,sans-Serif" font-size="10.00">EyeAICore/YoloModel.hpp</text>
</a>
</g>
</g>
<!-- Node1&#45;&gt;Node2 -->
<g id="edge1_Node000001_Node000002" class="edge">
<title>Node1&#45;&gt;Node2</title>
<g id="a_edge1_Node000001_Node000002"><a xlink:title=" ">
<path fill="none" stroke="#63b8ff" d="M694.79,-291.53C652.71,-282.44 588.99,-268.68 543.54,-258.86"/>
<polygon fill="#63b8ff" stroke="#63b8ff" points="544.4,-255.47 533.89,-256.78 542.92,-262.31 544.4,-255.47"/>
</a>
</g>
</g>
<!-- Node3 -->
<g id="Node000003" class="node">
<title>Node3</title>
<g id="a_Node000003"><a xlink:href="TfLiteRuntime_8hpp.html" target="_top" xlink:title=" ">
<polygon fill="white" stroke="#666666" points="569.12,-200 400.12,-200 400.12,-180 569.12,-180 569.12,-200"/>
<text text-anchor="middle" x="484.62" y="-186.5" font-family="Helvetica,sans-Serif" font-size="10.00">EyeAICore/tflite/TfLiteRuntime.hpp</text>
</a>
</g>
</g>
<!-- Node1&#45;&gt;Node3 -->
<g id="edge31_Node000001_Node000003" class="edge">
<title>Node1&#45;&gt;Node3</title>
<g id="a_edge31_Node000001_Node000003"><a xlink:title=" ">
<path fill="none" stroke="#63b8ff" d="M710.68,-291.62C685.74,-283.04 648.36,-269.62 616.62,-256 579.9,-240.24 538.77,-219.46 512.33,-205.69"/>
<polygon fill="#63b8ff" stroke="#63b8ff" points="514.11,-202.67 503.62,-201.13 510.86,-208.87 514.11,-202.67"/>
</a>
</g>
</g>
<!-- Node4 -->
<g id="Node000004" class="node">
<title>Node4</title>
<g id="a_Node000004"><a xlink:href="Operators_8hpp.html" target="_top" xlink:title=" ">
<polygon fill="white" stroke="#666666" points="198.88,-82 70.38,-82 70.38,-62 198.88,-62 198.88,-82"/>
<text text-anchor="middle" x="134.62" y="-68.5" font-family="Helvetica,sans-Serif" font-size="10.00">EyeAICore/Operators.hpp</text>
</a>
</g>
</g>
<!-- Node1&#45;&gt;Node4 -->
<g id="edge30_Node000001_Node000004" class="edge">
<title>Node1&#45;&gt;Node4</title>
<g id="a_edge30_Node000001_Node000004"><a xlink:title=" ">
<path fill="none" stroke="#63b8ff" d="M690.07,-300.81C625.26,-299.12 507.82,-290.91 414.62,-256 305.93,-215.28 196.27,-126.58 153.42,-89.66"/>
<polygon fill="#63b8ff" stroke="#63b8ff" points="155.85,-87.13 146.01,-83.2 151.25,-92.41 155.85,-87.13"/>
</a>
</g>
</g>
<!-- Node10 -->
<g id="Node000010" class="node">
<title>Node10</title>
<g id="a_Node000010"><a xlink:title=" ">
<polygon fill="#e0e0e0" stroke="#999999" points="629.62,-20 589.62,-20 589.62,0 629.62,0 629.62,-20"/>
<text text-anchor="middle" x="609.62" y="-6.5" font-family="Helvetica,sans-Serif" font-size="10.00">string</text>
</a>
</g>
</g>
<!-- Node1&#45;&gt;Node10 -->
<g id="edge39_Node000001_Node000010" class="edge">
<title>Node1&#45;&gt;Node10</title>
<g id="a_edge39_Node000001_Node000010"><a xlink:title=" ">
<path fill="none" stroke="#63b8ff" d="M712.68,-291.55C695.43,-284.15 673.33,-272.35 658.62,-256 637.59,-232.61 630.62,-222.46 630.62,-191 630.62,-191 630.62,-191 630.62,-133 630.62,-96.76 621.52,-55.34 615.3,-31.28"/>
<polygon fill="#63b8ff" stroke="#63b8ff" points="618.74,-30.61 612.76,-21.86 611.98,-32.42 618.74,-30.61"/>
</a>
</g>
</g>
<!-- Node15 -->
<g id="Node000015" class="node">
<title>Node15</title>
<g id="a_Node000015"><a xlink:title=" ">
<polygon fill="#e0e0e0" stroke="#999999" points="921,-20 838.25,-20 838.25,0 921,0 921,-20"/>
<text text-anchor="middle" x="879.62" y="-6.5" font-family="Helvetica,sans-Serif" font-size="10.00">tl/expected.hpp</text>
</a>
</g>
</g>
<!-- Node1&#45;&gt;Node15 -->
<g id="edge36_Node000001_Node000015" class="edge">
<title>Node1&#45;&gt;Node15</title>
<g id="a_edge36_Node000001_Node000015"><a xlink:title=" ">
<path fill="none" stroke="#63b8ff" d="M767.03,-291.53C802.74,-277.84 862.09,-248.67 884.62,-200 910.78,-143.51 895.44,-67 885.73,-31.13"/>
<polygon fill="#63b8ff" stroke="#63b8ff" points="889.15,-30.34 883.03,-21.69 882.42,-32.27 889.15,-30.34"/>
</a>
</g>
</g>
<!-- Node20 -->
<g id="Node000020" class="node">
<title>Node20</title>
<g id="a_Node000020"><a xlink:href="Profiling_8hpp.html" target="_top" xlink:title=" ">
<polygon fill="white" stroke="#666666" points="809.62,-256 667.62,-256 667.62,-236 809.62,-236 809.62,-256"/>
<text text-anchor="middle" x="738.62" y="-242.5" font-family="Helvetica,sans-Serif" font-size="10.00">EyeAICore/utils/Profiling.hpp</text>
</a>
</g>
</g>
<!-- Node1&#45;&gt;Node20 -->
<g id="edge32_Node000001_Node000020" class="edge">
<title>Node1&#45;&gt;Node20</title>
<g id="a_edge32_Node000001_Node000020"><a xlink:title=" ">
<path fill="none" stroke="#63b8ff" d="M738.62,-291.59C738.62,-285.01 738.62,-275.96 738.62,-267.73"/>
<polygon fill="#63b8ff" stroke="#63b8ff" points="742.13,-267.81 738.63,-257.81 735.13,-267.81 742.13,-267.81"/>
</a>
</g>
</g>
<!-- Node23 -->
<g id="Node000023" class="node">
<title>Node23</title>
<g id="a_Node000023"><a xlink:title=" ">
<polygon fill="#e0e0e0" stroke="#999999" points="954.5,-256 898.75,-256 898.75,-236 954.5,-236 954.5,-256"/>
<text text-anchor="middle" x="926.62" y="-242.5" font-family="Helvetica,sans-Serif" font-size="10.00">algorithm</text>
</a>
</g>
</g>
<!-- Node1&#45;&gt;Node23 -->
<g id="edge37_Node000001_Node000023" class="edge">
<title>Node1&#45;&gt;Node23</title>
<g id="a_edge37_Node000001_Node000023"><a xlink:title=" ">
<path fill="none" stroke="#63b8ff" d="M771.37,-291.59C803.7,-282.31 853.14,-268.11 887.51,-258.23"/>
<polygon fill="#63b8ff" stroke="#63b8ff" points="888.44,-261.61 897.09,-255.48 886.51,-254.88 888.44,-261.61"/>
</a>
</g>
</g>
<!-- Node24 -->
<g id="Node000024" class="node">
<title>Node24</title>
<g id="a_Node000024"><a xlink:title=" ">
<polygon fill="#e0e0e0" stroke="#999999" points="1020.75,-256 972.5,-256 972.5,-236 1020.75,-236 1020.75,-256"/>
<text text-anchor="middle" x="996.62" y="-242.5" font-family="Helvetica,sans-Serif" font-size="10.00">cstddef</text>
</a>
</g>
</g>
<!-- Node1&#45;&gt;Node24 -->
<g id="edge38_Node000001_Node000024" class="edge">
<title>Node1&#45;&gt;Node24</title>
<g id="a_edge38_Node000001_Node000024"><a xlink:title=" ">
<path fill="none" stroke="#63b8ff" d="M787.11,-292.3C830.41,-284.31 895.79,-271.7 961.24,-256.44"/>
<polygon fill="#63b8ff" stroke="#63b8ff" points="961.76,-259.92 970.69,-254.22 960.16,-253.1 961.76,-259.92"/>
</a>
</g>
</g>
<!-- Node25 -->
<g id="Node000025" class="node">
<title>Node25</title>
<g id="a_Node000025"><a xlink:title=" ">
<polygon fill="#e0e0e0" stroke="#999999" points="1078.25,-256 1039,-256 1039,-236 1078.25,-236 1078.25,-256"/>
<text text-anchor="middle" x="1058.62" y="-242.5" font-family="Helvetica,sans-Serif" font-size="10.00">utility</text>
</a>
</g>
</g>
<!-- Node1&#45;&gt;Node25 -->
<g id="edge40_Node000001_Node000025" class="edge">
<title>Node1&#45;&gt;Node25</title>
<g id="a_edge40_Node000001_Node000025"><a xlink:title=" ">
<path fill="none" stroke="#63b8ff" d="M787.18,-295.71C843.03,-289.14 937.57,-276.52 1027.79,-256.12"/>
<polygon fill="#63b8ff" stroke="#63b8ff" points="1028.33,-259.58 1037.29,-253.93 1026.76,-252.76 1028.33,-259.58"/>
</a>
</g>
</g>
<!-- Node2&#45;&gt;Node3 -->
<g id="edge2_Node000002_Node000003" class="edge">
<title>Node2&#45;&gt;Node3</title>
<g id="a_edge2_Node000002_Node000003"><a xlink:title=" ">
<path fill="none" stroke="#63b8ff" d="M487.93,-235.59C487.44,-229.01 486.77,-219.96 486.16,-211.73"/>
<polygon fill="#63b8ff" stroke="#63b8ff" points="489.65,-211.52 485.43,-201.81 482.67,-212.04 489.65,-211.52"/>
</a>
</g>
</g>
<!-- Node3&#45;&gt;Node4 -->
<g id="edge3_Node000003_Node000004" class="edge">
<title>Node3&#45;&gt;Node4</title>
<g id="a_edge3_Node000003_Node000004"><a xlink:title=" ">
<path fill="none" stroke="#63b8ff" d="M436.08,-179.52C398.4,-171.61 345.08,-159.19 299.62,-144 250.86,-127.71 196.47,-102.95 163.93,-87.39"/>
<polygon fill="#63b8ff" stroke="#63b8ff" points="165.66,-84.34 155.13,-83.15 162.62,-90.65 165.66,-84.34"/>
</a>
</g>
</g>
<!-- Node7 -->
<g id="Node000007" class="node">
<title>Node7</title>
<g id="a_Node000007"><a xlink:title=" ">
<polygon fill="#e0e0e0" stroke="#999999" points="51.25,-20 0,-20 0,0 51.25,0 51.25,-20"/>
<text text-anchor="middle" x="25.62" y="-6.5" font-family="Helvetica,sans-Serif" font-size="10.00">memory</text>
</a>
</g>
</g>
<!-- Node3&#45;&gt;Node7 -->
<g id="edge26_Node000003_Node000007" class="edge">
<title>Node3&#45;&gt;Node7</title>
<g id="a_edge26_Node000003_Node000007"><a xlink:title=" ">
<path fill="none" stroke="#63b8ff" d="M399.71,-181.79C282.84,-169.98 81.51,-142.19 34.62,-88 21.37,-72.68 20.59,-48.75 22.2,-31.63"/>
<polygon fill="#63b8ff" stroke="#63b8ff" points="25.65,-32.23 23.49,-21.86 18.71,-31.32 25.65,-32.23"/>
</a>
</g>
</g>
<!-- Node9 -->
<g id="Node000009" class="node">
<title>Node9</title>
<g id="a_Node000009"><a xlink:title=" ">
<polygon fill="#e0e0e0" stroke="#999999" points="395.12,-20 358.12,-20 358.12,0 395.12,0 395.12,-20"/>
<text text-anchor="middle" x="376.62" y="-6.5" font-family="Helvetica,sans-Serif" font-size="10.00">span</text>
</a>
</g>
</g>
<!-- Node3&#45;&gt;Node9 -->
<g id="edge27_Node000003_Node000009" class="edge">
<title>Node3&#45;&gt;Node9</title>
<g id="a_edge27_Node000003_Node000009"><a xlink:title=" ">
<path fill="none" stroke="#63b8ff" d="M493.85,-179.75C515.6,-156.8 566.06,-96.24 535.62,-56 520.11,-35.49 448.33,-21.63 406.71,-15.17"/>
<polygon fill="#63b8ff" stroke="#63b8ff" points="407.26,-11.72 396.85,-13.7 406.22,-18.64 407.26,-11.72"/>
</a>
</g>
</g>
<!-- Node3&#45;&gt;Node10 -->
<g id="edge28_Node000003_Node000010" class="edge">
<title>Node3&#45;&gt;Node10</title>
<g id="a_edge28_Node000003_Node000010"><a xlink:title=" ">
<path fill="none" stroke="#63b8ff" d="M500.48,-179.51C513.12,-171.33 530.64,-158.56 542.62,-144 571.83,-108.53 592.77,-58.22 602.85,-30.76"/>
<polygon fill="#63b8ff" stroke="#63b8ff" points="606.05,-32.21 606.1,-21.62 599.45,-29.87 606.05,-32.21"/>
</a>
</g>
</g>
<!-- Node12 -->
<g id="Node000012" class="node">
<title>Node12</title>
<g id="a_Node000012"><a xlink:href="TfLiteUtils_8hpp.html" target="_top" xlink:title=" ">
<polygon fill="white" stroke="#666666" points="416.5,-144 336.75,-144 336.75,-124 416.5,-124 416.5,-144"/>
<text text-anchor="middle" x="376.62" y="-130.5" font-family="Helvetica,sans-Serif" font-size="10.00">TfLiteUtils.hpp</text>
</a>
</g>
</g>
<!-- Node3&#45;&gt;Node12 -->
<g id="edge11_Node000003_Node000012" class="edge">
<title>Node3&#45;&gt;Node12</title>
<g id="a_edge11_Node000003_Node000012"><a xlink:title=" ">
<path fill="none" stroke="#63b8ff" d="M465.81,-179.59C449.27,-171.32 424.91,-159.14 405.83,-149.6"/>
<polygon fill="#63b8ff" stroke="#63b8ff" points="407.45,-146.5 396.94,-145.16 404.32,-152.76 407.45,-146.5"/>
</a>
</g>
</g>
<!-- Node17 -->
<g id="Node000017" class="node">
<title>Node17</title>
<g id="a_Node000017"><a xlink:title=" ">
<polygon fill="#e0e0e0" stroke="#999999" points="875.38,-82 809.88,-82 809.88,-62 875.38,-62 875.38,-82"/>
<text text-anchor="middle" x="842.62" y="-68.5" font-family="Helvetica,sans-Serif" font-size="10.00">string_view</text>
</a>
</g>
</g>
<!-- Node3&#45;&gt;Node17 -->
<g id="edge29_Node000003_Node000017" class="edge">
<title>Node3&#45;&gt;Node17</title>
<g id="a_edge29_Node000003_Node000017"><a xlink:title=" ">
<path fill="none" stroke="#63b8ff" d="M514.88,-179.54C583.01,-158.21 746.77,-106.76 801.62,-88 803.4,-87.39 805.21,-86.76 807.05,-86.12"/>
<polygon fill="#63b8ff" stroke="#63b8ff" points="807.87,-89.54 816.11,-82.88 805.51,-82.95 807.87,-89.54"/>
</a>
</g>
</g>
<!-- Node18 -->
<g id="Node000018" class="node">
<title>Node18</title>
<g id="a_Node000018"><a xlink:title=" ">
<polygon fill="#e0e0e0" stroke="#999999" points="310.25,-88 217,-88 217,-56 310.25,-56 310.25,-88"/>
<text text-anchor="start" x="225" y="-74.5" font-family="Helvetica,sans-Serif" font-size="10.00">tensorflow/lite/c/c</text>
<text text-anchor="middle" x="263.62" y="-62.5" font-family="Helvetica,sans-Serif" font-size="10.00">_api.h</text>
</a>
</g>
</g>
<!-- Node3&#45;&gt;Node18 -->
<g id="edge24_Node000003_Node000018" class="edge">
<title>Node3&#45;&gt;Node18</title>
<g id="a_edge24_Node000003_Node000018"><a xlink:title=" ">
<path fill="none" stroke="#63b8ff" d="M422.83,-179.57C392.48,-172.94 356.37,-161.95 327.62,-144 308.51,-132.06 291.66,-112.81 280.06,-97.36"/>
<polygon fill="#63b8ff" stroke="#63b8ff" points="283.12,-95.62 274.42,-89.56 277.44,-99.72 283.12,-95.62"/>
</a>
</g>
</g>
<!-- Node19 -->
<g id="Node000019" class="node">
<title>Node19</title>
<g id="a_Node000019"><a xlink:title=" ">
<polygon fill="#e0e0e0" stroke="#999999" points="526.5,-88 404.75,-88 404.75,-56 526.5,-56 526.5,-88"/>
<text text-anchor="start" x="412.75" y="-74.5" font-family="Helvetica,sans-Serif" font-size="10.00">tensorflow/lite/delegates</text>
<text text-anchor="middle" x="465.62" y="-62.5" font-family="Helvetica,sans-Serif" font-size="10.00">/gpu/delegate.h</text>
</a>
</g>
</g>
<!-- Node3&#45;&gt;Node19 -->
<g id="edge25_Node000003_Node000019" class="edge">
<title>Node3&#45;&gt;Node19</title>
<g id="a_edge25_Node000003_Node000019"><a xlink:title=" ">
<path fill="none" stroke="#63b8ff" d="M483.07,-179.51C480.24,-162.22 474.15,-125.05 469.97,-99.54"/>
<polygon fill="#63b8ff" stroke="#63b8ff" points="473.46,-99.21 468.39,-89.91 466.56,-100.34 473.46,-99.21"/>
</a>
</g>
</g>
<!-- Node5 -->
<g id="Node000005" class="node">
<title>Node5</title>
<g id="a_Node000005"><a xlink:title=" ">
<polygon fill="#e0e0e0" stroke="#999999" points="167.5,-20 129.75,-20 129.75,0 167.5,0 167.5,-20"/>
<text text-anchor="middle" x="148.62" y="-6.5" font-family="Helvetica,sans-Serif" font-size="10.00">array</text>
</a>
</g>
</g>
<!-- Node4&#45;&gt;Node5 -->
<g id="edge4_Node000004_Node000005" class="edge">
<title>Node4&#45;&gt;Node5</title>
<g id="a_edge4_Node000004_Node000005"><a xlink:title=" ">
<path fill="none" stroke="#63b8ff" d="M136.81,-61.62C138.71,-53.48 141.53,-41.39 143.94,-31.07"/>
<polygon fill="#63b8ff" stroke="#63b8ff" points="147.29,-32.12 146.15,-21.59 140.47,-30.53 147.29,-32.12"/>
</a>
</g>
</g>
<!-- Node6 -->
<g id="Node000006" class="node">
<title>Node6</title>
<g id="a_Node000006"><a xlink:title=" ">
<polygon fill="#e0e0e0" stroke="#999999" points="231.25,-20 186,-20 186,0 231.25,0 231.25,-20"/>
<text text-anchor="middle" x="208.62" y="-6.5" font-family="Helvetica,sans-Serif" font-size="10.00">cstdint</text>
</a>
</g>
</g>
<!-- Node4&#45;&gt;Node6 -->
<g id="edge5_Node000004_Node000006" class="edge">
<title>Node4&#45;&gt;Node6</title>
<g id="a_edge5_Node000004_Node000006"><a xlink:title=" ">
<path fill="none" stroke="#63b8ff" d="M146.19,-61.62C157.55,-52.41 175.11,-38.17 188.72,-27.14"/>
<polygon fill="#63b8ff" stroke="#63b8ff" points="190.65,-30.08 196.21,-21.07 186.24,-24.65 190.65,-30.08"/>
</a>
</g>
</g>
<!-- Node4&#45;&gt;Node7 -->
<g id="edge6_Node000004_Node000007" class="edge">
<title>Node4&#45;&gt;Node7</title>
<g id="a_edge6_Node000004_Node000007"><a xlink:title=" ">
<path fill="none" stroke="#63b8ff" d="M117.59,-61.62C100.16,-52.03 72.8,-36.97 52.45,-25.77"/>
<polygon fill="#63b8ff" stroke="#63b8ff" points="54.31,-22.8 43.86,-21.04 50.94,-28.93 54.31,-22.8"/>
</a>
</g>
</g>
<!-- Node8 -->
<g id="Node000008" class="node">
<title>Node8</title>
<g id="a_Node000008"><a xlink:title=" ">
<polygon fill="#e0e0e0" stroke="#999999" points="313.5,-20 263.75,-20 263.75,0 313.5,0 313.5,-20"/>
<text text-anchor="middle" x="288.62" y="-6.5" font-family="Helvetica,sans-Serif" font-size="10.00">optional</text>
</a>
</g>
</g>
<!-- Node4&#45;&gt;Node8 -->
<g id="edge7_Node000004_Node000008" class="edge">
<title>Node4&#45;&gt;Node8</title>
<g id="a_edge7_Node000004_Node000008"><a xlink:title=" ">
<path fill="none" stroke="#63b8ff" d="M158.69,-61.62C184.27,-51.66 224.95,-35.81 253.98,-24.5"/>
<polygon fill="#63b8ff" stroke="#63b8ff" points="255.02,-27.85 263.07,-20.96 252.48,-21.33 255.02,-27.85"/>
</a>
</g>
</g>
<!-- Node4&#45;&gt;Node9 -->
<g id="edge8_Node000004_Node000009" class="edge">
<title>Node4&#45;&gt;Node9</title>
<g id="a_edge8_Node000004_Node000009"><a xlink:title=" ">
<path fill="none" stroke="#63b8ff" d="M172.7,-61.56C220.87,-49.62 302.8,-29.3 346.72,-18.42"/>
<polygon fill="#63b8ff" stroke="#63b8ff" points="347.45,-21.84 356.31,-16.04 345.76,-15.05 347.45,-21.84"/>
</a>
</g>
</g>
<!-- Node4&#45;&gt;Node10 -->
<g id="edge9_Node000004_Node000010" class="edge">
<title>Node4&#45;&gt;Node10</title>
<g id="a_edge9_Node000004_Node000010"><a xlink:title=" ">
<path fill="none" stroke="#63b8ff" d="M177.35,-61.54C187.26,-59.54 197.79,-57.56 207.62,-56 345.04,-34.24 510.51,-19.21 578.33,-13.52"/>
<polygon fill="#63b8ff" stroke="#63b8ff" points="578.27,-17.04 587.95,-12.73 577.7,-10.06 578.27,-17.04"/>
</a>
</g>
</g>
<!-- Node11 -->
<g id="Node000011" class="node">
<title>Node11</title>
<g id="a_Node000011"><a xlink:title=" ">
<polygon fill="#e0e0e0" stroke="#999999" points="112.12,-20 69.12,-20 69.12,0 112.12,0 112.12,-20"/>
<text text-anchor="middle" x="90.62" y="-6.5" font-family="Helvetica,sans-Serif" font-size="10.00">vector</text>
</a>
</g>
</g>
<!-- Node4&#45;&gt;Node11 -->
<g id="edge10_Node000004_Node000011" class="edge">
<title>Node4&#45;&gt;Node11</title>
<g id="a_edge10_Node000004_Node000011"><a xlink:title=" ">
<path fill="none" stroke="#63b8ff" d="M127.75,-61.62C121.38,-52.94 111.74,-39.8 103.88,-29.08"/>
<polygon fill="#63b8ff" stroke="#63b8ff" points="106.94,-27.33 98.2,-21.33 101.29,-31.47 106.94,-27.33"/>
</a>
</g>
</g>
<!-- Node12&#45;&gt;Node4 -->
<g id="edge12_Node000012_Node000004" class="edge">
<title>Node12&#45;&gt;Node4</title>
<g id="a_edge12_Node000012_Node000004"><a xlink:title=" ">
<path fill="none" stroke="#63b8ff" d="M338.55,-123.56C296.83,-113.22 229.76,-96.59 184.02,-85.25"/>
<polygon fill="#63b8ff" stroke="#63b8ff" points="184.9,-81.86 174.35,-82.85 183.21,-88.65 184.9,-81.86"/>
</a>
</g>
</g>
<!-- Node12&#45;&gt;Node7 -->
<g id="edge18_Node000012_Node000007" class="edge">
<title>Node12&#45;&gt;Node7</title>
<g id="a_edge18_Node000012_Node000007"><a xlink:title=" ">
<path fill="none" stroke="#63b8ff" d="M336.27,-131.92C261.34,-129.17 104.4,-119.7 61.62,-88 43.41,-74.5 34.09,-49.47 29.55,-31.62"/>
<polygon fill="#63b8ff" stroke="#63b8ff" points="32.97,-30.88 27.4,-21.86 26.14,-32.38 32.97,-30.88"/>
</a>
</g>
</g>
<!-- Node12&#45;&gt;Node8 -->
<g id="edge19_Node000012_Node000008" class="edge">
<title>Node12&#45;&gt;Node8</title>
<g id="a_edge19_Node000012_Node000008"><a xlink:title=" ">
<path fill="none" stroke="#63b8ff" d="M370.01,-123.83C355.61,-103.87 321.2,-56.15 302.05,-29.61"/>
<polygon fill="#63b8ff" stroke="#63b8ff" points="304.89,-27.57 296.2,-21.5 299.21,-31.66 304.89,-27.57"/>
</a>
</g>
</g>
<!-- Node12&#45;&gt;Node9 -->
<g id="edge20_Node000012_Node000009" class="edge">
<title>Node12&#45;&gt;Node9</title>
<g id="a_edge20_Node000012_Node000009"><a xlink:title=" ">
<path fill="none" stroke="#63b8ff" d="M376.62,-123.83C376.62,-104.4 376.62,-58.67 376.62,-31.77"/>
<polygon fill="#63b8ff" stroke="#63b8ff" points="380.13,-31.79 376.63,-21.79 373.13,-31.79 380.13,-31.79"/>
</a>
</g>
</g>
<!-- Node13 -->
<g id="Node000013" class="node">
<title>Node13</title>
<g id="a_Node000013"><a xlink:href="Errors_8hpp.html" target="_top" xlink:title=" ">
<polygon fill="white" stroke="#666666" points="792.12,-82 659.12,-82 659.12,-62 792.12,-62 792.12,-82"/>
<text text-anchor="middle" x="725.62" y="-68.5" font-family="Helvetica,sans-Serif" font-size="10.00">EyeAICore/utils/Errors.hpp</text>
</a>
</g>
</g>
<!-- Node12&#45;&gt;Node13 -->
<g id="edge13_Node000012_Node000013" class="edge">
<title>Node12&#45;&gt;Node13</title>
<g id="a_edge13_Node000012_Node000013"><a xlink:title=" ">
<path fill="none" stroke="#63b8ff" d="M416.66,-126.12C475.97,-115.92 587.88,-96.68 659.49,-84.37"/>
<polygon fill="#63b8ff" stroke="#63b8ff" points="659.87,-87.86 669.13,-82.71 658.68,-80.96 659.87,-87.86"/>
</a>
</g>
</g>
<!-- Node12&#45;&gt;Node17 -->
<g id="edge21_Node000012_Node000017" class="edge">
<title>Node12&#45;&gt;Node17</title>
<g id="a_edge21_Node000012_Node000017"><a xlink:title=" ">
<path fill="none" stroke="#63b8ff" d="M416.72,-132.02C492.74,-129.44 662.68,-120.26 801.62,-88 804.08,-87.43 806.6,-86.75 809.11,-86.01"/>
<polygon fill="#63b8ff" stroke="#63b8ff" points="810.11,-89.36 818.5,-82.9 807.91,-82.72 810.11,-89.36"/>
</a>
</g>
</g>
<!-- Node12&#45;&gt;Node18 -->
<g id="edge22_Node000012_Node000018" class="edge">
<title>Node12&#45;&gt;Node18</title>
<g id="a_edge22_Node000012_Node000018"><a xlink:title=" ">
<path fill="none" stroke="#63b8ff" d="M358.97,-123.62C343.92,-115.63 321.75,-103.86 302.57,-93.68"/>
<polygon fill="#63b8ff" stroke="#63b8ff" points="304.39,-90.68 293.92,-89.08 301.11,-96.86 304.39,-90.68"/>
</a>
</g>
</g>
<!-- Node12&#45;&gt;Node19 -->
<g id="edge23_Node000012_Node000019" class="edge">
<title>Node12&#45;&gt;Node19</title>
<g id="a_edge23_Node000012_Node000019"><a xlink:title=" ">
<path fill="none" stroke="#63b8ff" d="M390.53,-123.62C402,-115.89 418.73,-104.62 433.48,-94.67"/>
<polygon fill="#63b8ff" stroke="#63b8ff" points="435.23,-97.71 441.57,-89.22 431.32,-91.91 435.23,-97.71"/>
</a>
</g>
</g>
<!-- Node13&#45;&gt;Node10 -->
<g id="edge15_Node000013_Node000010" class="edge">
<title>Node13&#45;&gt;Node10</title>
<g id="a_edge15_Node000013_Node000010"><a xlink:title=" ">
<path fill="none" stroke="#63b8ff" d="M707.5,-61.62C688.77,-51.94 659.29,-36.69 637.58,-25.46"/>
<polygon fill="#63b8ff" stroke="#63b8ff" points="639.46,-22.49 628.97,-21 636.24,-28.71 639.46,-22.49"/>
</a>
</g>
</g>
<!-- Node14 -->
<g id="Node000014" class="node">
<title>Node14</title>
<g id="a_Node000014"><a xlink:title=" ">
<polygon fill="#e0e0e0" stroke="#999999" points="708.5,-20 664.75,-20 664.75,0 708.5,0 708.5,-20"/>
<text text-anchor="middle" x="686.62" y="-6.5" font-family="Helvetica,sans-Serif" font-size="10.00">format</text>
</a>
</g>
</g>
<!-- Node13&#45;&gt;Node14 -->
<g id="edge14_Node000013_Node000014" class="edge">
<title>Node13&#45;&gt;Node14</title>
<g id="a_edge14_Node000013_Node000014"><a xlink:title=" ">
<path fill="none" stroke="#63b8ff" d="M719.53,-61.62C714,-53.12 705.69,-40.33 698.8,-29.74"/>
<polygon fill="#63b8ff" stroke="#63b8ff" points="701.76,-27.86 693.37,-21.38 695.89,-31.67 701.76,-27.86"/>
</a>
</g>
</g>
<!-- Node13&#45;&gt;Node15 -->
<g id="edge16_Node000013_Node000015" class="edge">
<title>Node13&#45;&gt;Node15</title>
<g id="a_edge16_Node000013_Node000015"><a xlink:title=" ">
<path fill="none" stroke="#63b8ff" d="M749.69,-61.62C775.27,-51.66 815.95,-35.81 844.98,-24.5"/>
<polygon fill="#63b8ff" stroke="#63b8ff" points="846.02,-27.85 854.07,-20.96 843.48,-21.33 846.02,-27.85"/>
</a>
</g>
</g>
<!-- Node16 -->
<g id="Node000016" class="node">
<title>Node16</title>
<g id="a_Node000016"><a xlink:title=" ">
<polygon fill="#e0e0e0" stroke="#999999" points="772.25,-20 727,-20 727,0 772.25,0 772.25,-20"/>
<text text-anchor="middle" x="749.62" y="-6.5" font-family="Helvetica,sans-Serif" font-size="10.00">variant</text>
</a>
</g>
</g>
<!-- Node13&#45;&gt;Node16 -->
<g id="edge17_Node000013_Node000016" class="edge">
<title>Node13&#45;&gt;Node16</title>
<g id="a_edge17_Node000013_Node000016"><a xlink:title=" ">
<path fill="none" stroke="#63b8ff" d="M729.38,-61.62C732.67,-53.39 737.57,-41.13 741.73,-30.74"/>
<polygon fill="#63b8ff" stroke="#63b8ff" points="744.95,-32.1 745.42,-21.52 738.45,-29.5 744.95,-32.1"/>
</a>
</g>
</g>
<!-- Node20&#45;&gt;Node17 -->
<g id="edge35_Node000020_Node000017" class="edge">
<title>Node20&#45;&gt;Node17</title>
<g id="a_edge35_Node000020_Node000017"><a xlink:title=" ">
<path fill="none" stroke="#63b8ff" d="M728.37,-235.76C715.71,-223.17 696.95,-199.91 706.62,-180 728.12,-135.74 777.77,-104.32 810.76,-87.42"/>
<polygon fill="#63b8ff" stroke="#63b8ff" points="812.05,-90.69 819.47,-83.12 808.95,-84.41 812.05,-90.69"/>
</a>
</g>
</g>
<!-- Node21 -->
<g id="Node000021" class="node">
<title>Node21</title>
<g id="a_Node000021"><a xlink:title=" ">
<polygon fill="#e0e0e0" stroke="#999999" points="761.25,-200 716,-200 716,-180 761.25,-180 761.25,-200"/>
<text text-anchor="middle" x="738.62" y="-186.5" font-family="Helvetica,sans-Serif" font-size="10.00">chrono</text>
</a>
</g>
</g>
<!-- Node20&#45;&gt;Node21 -->
<g id="edge33_Node000020_Node000021" class="edge">
<title>Node20&#45;&gt;Node21</title>
<g id="a_edge33_Node000020_Node000021"><a xlink:title=" ">
<path fill="none" stroke="#63b8ff" d="M738.62,-235.59C738.62,-229.01 738.62,-219.96 738.62,-211.73"/>
<polygon fill="#63b8ff" stroke="#63b8ff" points="742.13,-211.81 738.63,-201.81 735.13,-211.81 742.13,-211.81"/>
</a>
</g>
</g>
<!-- Node22 -->
<g id="Node000022" class="node">
<title>Node22</title>
<g id="a_Node000022"><a xlink:title=" ">
<polygon fill="#e0e0e0" stroke="#999999" points="875.75,-200 779.5,-200 779.5,-180 875.75,-180 875.75,-200"/>
<text text-anchor="middle" x="827.62" y="-186.5" font-family="Helvetica,sans-Serif" font-size="10.00">concurrentqueue.h</text>
</a>
</g>
</g>
<!-- Node20&#45;&gt;Node22 -->
<g id="edge34_Node000020_Node000022" class="edge">
<title>Node20&#45;&gt;Node22</title>
<g id="a_edge34_Node000020_Node000022"><a xlink:title=" ">
<path fill="none" stroke="#63b8ff" d="M754.13,-235.59C767.45,-227.51 786.9,-215.71 802.45,-206.27"/>
<polygon fill="#63b8ff" stroke="#63b8ff" points="803.97,-209.44 810.71,-201.26 800.34,-203.46 803.97,-209.44"/>
</a>
</g>
</g>
</g>
</svg>
