<?xml version="1.0" encoding="UTF-8" standalone="no"?>
<!DOCTYPE svg PUBLIC "-//W3C//DTD SVG 1.1//EN"
 "http://www.w3.org/Graphics/SVG/1.1/DTD/svg11.dtd">
<!-- Generated by graphviz version 12.2.1 (20241206.2353)
 -->
<!-- Title: src/YoloModel.cpp Pages: 1 -->
<svg width="1232pt" height="320pt"
 viewBox="0.00 0.00 1231.88 320.00" xmlns="http://www.w3.org/2000/svg" xmlns:xlink="http://www.w3.org/1999/xlink">
<g id="graph0" class="graph" transform="scale(1 1) rotate(0) translate(4 316)">
<title>src/YoloModel.cpp</title>
<!-- Node1 -->
<g id="Node000001" class="node">
<title>Node1</title>
<g id="a_Node000001"><a xlink:title=" ">
<polygon fill="#999999" stroke="#666666" points="1026.38,-312 930.12,-312 930.12,-292 1026.38,-292 1026.38,-312"/>
<text text-anchor="middle" x="978.25" y="-298.5" font-family="Helvetica,sans-Serif" font-size="10.00">src/YoloModel.cpp</text>
</a>
</g>
</g>
<!-- Node2 -->
<g id="Node000002" class="node">
<title>Node2</title>
<g id="a_Node000002"><a xlink:href="YoloModel_8hpp.html" target="_top" xlink:title=" ">
<polygon fill="white" stroke="#666666" points="606.62,-256 475.88,-256 475.88,-236 606.62,-236 606.62,-256"/>
<text text-anchor="middle" x="541.25" y="-242.5" font-family="Helvetica,sans-Serif" font-size="10.00">EyeAICore/YoloModel.hpp</text>
</a>
</g>
</g>
<!-- Node1&#45;&gt;Node2 -->
<g id="edge1_Node000001_Node000002" class="edge">
<title>Node1&#45;&gt;Node2</title>
<g id="a_edge1_Node000001_Node000002"><a xlink:title=" ">
<path fill="none" stroke="#63b8ff" d="M929.81,-295.01C854.37,-285.69 708.15,-267.62 618.17,-256.51"/>
<polygon fill="#63b8ff" stroke="#63b8ff" points="618.8,-253.06 608.45,-255.3 617.94,-260 618.8,-253.06"/>
</a>
</g>
</g>
<!-- Node9 -->
<g id="Node000009" class="node">
<title>Node9</title>
<g id="a_Node000009"><a xlink:href="TfLiteRuntime_8hpp.html" target="_top" xlink:title=" ">
<polygon fill="white" stroke="#666666" points="625.75,-200 456.75,-200 456.75,-180 625.75,-180 625.75,-200"/>
<text text-anchor="middle" x="541.25" y="-186.5" font-family="Helvetica,sans-Serif" font-size="10.00">EyeAICore/tflite/TfLiteRuntime.hpp</text>
</a>
</g>
</g>
<!-- Node1&#45;&gt;Node9 -->
<g id="edge31_Node000001_Node000009" class="edge">
<title>Node1&#45;&gt;Node9</title>
<g id="a_edge31_Node000001_Node000009"><a xlink:title=" ">
<path fill="none" stroke="#63b8ff" d="M933.63,-291.58C893,-282.86 831.43,-269.27 778.25,-256 710.22,-239.03 631.88,-217.06 584.49,-203.51"/>
<polygon fill="#63b8ff" stroke="#63b8ff" points="585.74,-200.23 575.17,-200.83 583.81,-206.95 585.74,-200.23"/>
</a>
</g>
</g>
<!-- Node13 -->
<g id="Node000013" class="node">
<title>Node13</title>
<g id="a_Node000013"><a xlink:title=" ">
<polygon fill="#e0e0e0" stroke="#999999" points="876.25,-20 836.25,-20 836.25,0 876.25,0 876.25,-20"/>
<text text-anchor="middle" x="856.25" y="-6.5" font-family="Helvetica,sans-Serif" font-size="10.00">string</text>
</a>
</g>
</g>
<!-- Node1&#45;&gt;Node13 -->
<g id="edge39_Node000001_Node000013" class="edge">
<title>Node1&#45;&gt;Node13</title>
<g id="a_edge39_Node000001_Node000013"><a xlink:title=" ">
<path fill="none" stroke="#63b8ff" d="M978.25,-291.58C978.25,-272.57 978.25,-228.24 978.25,-191 978.25,-191 978.25,-191 978.25,-133 978.25,-97.75 981.97,-82.95 959.25,-56 941.07,-34.43 910.57,-22.87 887.47,-16.89"/>
<polygon fill="#63b8ff" stroke="#63b8ff" points="888.5,-13.54 877.96,-14.67 886.9,-20.36 888.5,-13.54"/>
</a>
</g>
</g>
<!-- Node14 -->
<g id="Node000014" class="node">
<title>Node14</title>
<g id="a_Node000014"><a xlink:title=" ">
<polygon fill="#e0e0e0" stroke="#999999" points="1016.62,-20 933.88,-20 933.88,0 1016.62,0 1016.62,-20"/>
<text text-anchor="middle" x="975.25" y="-6.5" font-family="Helvetica,sans-Serif" font-size="10.00">tl/expected.hpp</text>
</a>
</g>
</g>
<!-- Node1&#45;&gt;Node14 -->
<g id="edge36_Node000001_Node000014" class="edge">
<title>Node1&#45;&gt;Node14</title>
<g id="a_edge36_Node000001_Node000014"><a xlink:title=" ">
<path fill="none" stroke="#63b8ff" d="M983.86,-291.67C994.43,-273.16 1016.25,-230.2 1016.25,-191 1016.25,-191 1016.25,-191 1016.25,-133 1016.25,-95.17 998.32,-54.02 986.17,-30.49"/>
<polygon fill="#63b8ff" stroke="#63b8ff" points="989.31,-28.93 981.5,-21.77 983.14,-32.24 989.31,-28.93"/>
</a>
</g>
</g>
<!-- Node19 -->
<g id="Node000019" class="node">
<title>Node19</title>
<g id="a_Node000019"><a xlink:href="Operators_8hpp.html" target="_top" xlink:title=" ">
<polygon fill="white" stroke="#666666" points="128.5,-144 0,-144 0,-124 128.5,-124 128.5,-144"/>
<text text-anchor="middle" x="64.25" y="-130.5" font-family="Helvetica,sans-Serif" font-size="10.00">EyeAICore/Operators.hpp</text>
</a>
</g>
</g>
<!-- Node1&#45;&gt;Node19 -->
<g id="edge29_Node000001_Node000019" class="edge">
<title>Node1&#45;&gt;Node19</title>
<g id="a_edge29_Node000001_Node000019"><a xlink:title=" ">
<path fill="none" stroke="#63b8ff" d="M929.65,-299.35C838.44,-295.67 635.58,-284.74 467.25,-256 368.22,-239.09 344.38,-229.21 248.25,-200 195.81,-184.07 136.17,-162.32 99.37,-148.46"/>
<polygon fill="#63b8ff" stroke="#63b8ff" points="100.73,-145.23 90.14,-144.97 98.25,-151.78 100.73,-145.23"/>
</a>
</g>
</g>
<!-- Node20 -->
<g id="Node000020" class="node">
<title>Node20</title>
<g id="a_Node000020"><a xlink:href="Profiling_8hpp.html" target="_top" xlink:title=" ">
<polygon fill="white" stroke="#666666" points="929.25,-256 787.25,-256 787.25,-236 929.25,-236 929.25,-256"/>
<text text-anchor="middle" x="858.25" y="-242.5" font-family="Helvetica,sans-Serif" font-size="10.00">EyeAICore/utils/Profiling.hpp</text>
</a>
</g>
</g>
<!-- Node1&#45;&gt;Node20 -->
<g id="edge32_Node000001_Node000020" class="edge">
<title>Node1&#45;&gt;Node20</title>
<g id="a_edge32_Node000001_Node000020"><a xlink:title=" ">
<path fill="none" stroke="#63b8ff" d="M957.35,-291.59C938.62,-283.17 910.89,-270.69 889.53,-261.07"/>
<polygon fill="#63b8ff" stroke="#63b8ff" points="891.25,-258.01 880.7,-257.1 888.38,-264.4 891.25,-258.01"/>
</a>
</g>
</g>
<!-- Node23 -->
<g id="Node000023" class="node">
<title>Node23</title>
<g id="a_Node000023"><a xlink:title=" ">
<polygon fill="#e0e0e0" stroke="#999999" points="1100.12,-256 1044.38,-256 1044.38,-236 1100.12,-236 1100.12,-256"/>
<text text-anchor="middle" x="1072.25" y="-242.5" font-family="Helvetica,sans-Serif" font-size="10.00">algorithm</text>
</a>
</g>
</g>
<!-- Node1&#45;&gt;Node23 -->
<g id="edge37_Node000001_Node000023" class="edge">
<title>Node1&#45;&gt;Node23</title>
<g id="a_edge37_Node000001_Node000023"><a xlink:title=" ">
<path fill="none" stroke="#63b8ff" d="M994.62,-291.59C1008.82,-283.44 1029.63,-271.48 1046.13,-262"/>
<polygon fill="#63b8ff" stroke="#63b8ff" points="1047.51,-265.25 1054.44,-257.23 1044.02,-259.18 1047.51,-265.25"/>
</a>
</g>
</g>
<!-- Node24 -->
<g id="Node000024" class="node">
<title>Node24</title>
<g id="a_Node000024"><a xlink:title=" ">
<polygon fill="#e0e0e0" stroke="#999999" points="1166.38,-256 1118.12,-256 1118.12,-236 1166.38,-236 1166.38,-256"/>
<text text-anchor="middle" x="1142.25" y="-242.5" font-family="Helvetica,sans-Serif" font-size="10.00">cstddef</text>
</a>
</g>
</g>
<!-- Node1&#45;&gt;Node24 -->
<g id="edge38_Node000001_Node000024" class="edge">
<title>Node1&#45;&gt;Node24</title>
<g id="a_edge38_Node000001_Node000024"><a xlink:title=" ">
<path fill="none" stroke="#63b8ff" d="M1006.82,-291.59C1034.65,-282.43 1077.02,-268.48 1106.95,-258.62"/>
<polygon fill="#63b8ff" stroke="#63b8ff" points="1107.91,-261.99 1116.32,-255.54 1105.72,-255.34 1107.91,-261.99"/>
</a>
</g>
</g>
<!-- Node25 -->
<g id="Node000025" class="node">
<title>Node25</title>
<g id="a_Node000025"><a xlink:title=" ">
<polygon fill="#e0e0e0" stroke="#999999" points="1223.88,-256 1184.62,-256 1184.62,-236 1223.88,-236 1223.88,-256"/>
<text text-anchor="middle" x="1204.25" y="-242.5" font-family="Helvetica,sans-Serif" font-size="10.00">utility</text>
</a>
</g>
</g>
<!-- Node1&#45;&gt;Node25 -->
<g id="edge40_Node000001_Node000025" class="edge">
<title>Node1&#45;&gt;Node25</title>
<g id="a_edge40_Node000001_Node000025"><a xlink:title=" ">
<path fill="none" stroke="#63b8ff" d="M1024.27,-291.53C1061.93,-283.54 1116.78,-271.39 1173.38,-256.34"/>
<polygon fill="#63b8ff" stroke="#63b8ff" points="1174.13,-259.77 1182.88,-253.79 1172.31,-253.01 1174.13,-259.77"/>
</a>
</g>
</g>
<!-- Node3 -->
<g id="Node000003" class="node">
<title>Node3</title>
<g id="a_Node000003"><a xlink:href="TensorBuffer_8hpp.html" target="_top" xlink:title=" ">
<polygon fill="white" stroke="#666666" points="204.5,-82 64,-82 64,-62 204.5,-62 204.5,-82"/>
<text text-anchor="middle" x="134.25" y="-68.5" font-family="Helvetica,sans-Serif" font-size="10.00">EyeAICore/TensorBuffer.hpp</text>
</a>
</g>
</g>
<!-- Node2&#45;&gt;Node3 -->
<g id="edge2_Node000002_Node000003" class="edge">
<title>Node2&#45;&gt;Node3</title>
<g id="a_edge2_Node000002_Node000003"><a xlink:title=" ">
<path fill="none" stroke="#63b8ff" d="M475.39,-239.85C398.85,-231.03 271.76,-207.3 183.25,-144 164.84,-130.83 151.09,-108.47 142.91,-92.36"/>
<polygon fill="#63b8ff" stroke="#63b8ff" points="146.27,-91.27 138.81,-83.75 139.96,-94.29 146.27,-91.27"/>
</a>
</g>
</g>
<!-- Node2&#45;&gt;Node9 -->
<g id="edge8_Node000002_Node000009" class="edge">
<title>Node2&#45;&gt;Node9</title>
<g id="a_edge8_Node000002_Node000009"><a xlink:title=" ">
<path fill="none" stroke="#63b8ff" d="M541.25,-235.59C541.25,-229.01 541.25,-219.96 541.25,-211.73"/>
<polygon fill="#63b8ff" stroke="#63b8ff" points="544.75,-211.81 541.25,-201.81 537.75,-211.81 544.75,-211.81"/>
</a>
</g>
</g>
<!-- Node4 -->
<g id="Node000004" class="node">
<title>Node4</title>
<g id="a_Node000004"><a xlink:title=" ">
<polygon fill="#e0e0e0" stroke="#999999" points="172.88,-20 127.62,-20 127.62,0 172.88,0 172.88,-20"/>
<text text-anchor="middle" x="150.25" y="-6.5" font-family="Helvetica,sans-Serif" font-size="10.00">cstdint</text>
</a>
</g>
</g>
<!-- Node3&#45;&gt;Node4 -->
<g id="edge3_Node000003_Node000004" class="edge">
<title>Node3&#45;&gt;Node4</title>
<g id="a_edge3_Node000003_Node000004"><a xlink:title=" ">
<path fill="none" stroke="#63b8ff" d="M136.75,-61.62C138.92,-53.48 142.15,-41.39 144.9,-31.07"/>
<polygon fill="#63b8ff" stroke="#63b8ff" points="148.24,-32.14 147.43,-21.58 141.47,-30.34 148.24,-32.14"/>
</a>
</g>
</g>
<!-- Node5 -->
<g id="Node000005" class="node">
<title>Node5</title>
<g id="a_Node000005"><a xlink:title=" ">
<polygon fill="#e0e0e0" stroke="#999999" points="257.88,-20 206.62,-20 206.62,0 257.88,0 257.88,-20"/>
<text text-anchor="middle" x="232.25" y="-6.5" font-family="Helvetica,sans-Serif" font-size="10.00">memory</text>
</a>
</g>
</g>
<!-- Node3&#45;&gt;Node5 -->
<g id="edge4_Node000003_Node000005" class="edge">
<title>Node3&#45;&gt;Node5</title>
<g id="a_edge4_Node000003_Node000005"><a xlink:title=" ">
<path fill="none" stroke="#63b8ff" d="M149.56,-61.62C165.02,-52.16 189.16,-37.38 207.37,-26.23"/>
<polygon fill="#63b8ff" stroke="#63b8ff" points="209.05,-29.31 215.75,-21.1 205.4,-23.34 209.05,-29.31"/>
</a>
</g>
</g>
<!-- Node6 -->
<g id="Node000006" class="node">
<title>Node6</title>
<g id="a_Node000006"><a xlink:title=" ">
<polygon fill="#e0e0e0" stroke="#999999" points="578.75,-20 541.75,-20 541.75,0 578.75,0 578.75,-20"/>
<text text-anchor="middle" x="560.25" y="-6.5" font-family="Helvetica,sans-Serif" font-size="10.00">span</text>
</a>
</g>
</g>
<!-- Node3&#45;&gt;Node6 -->
<g id="edge5_Node000003_Node000006" class="edge">
<title>Node3&#45;&gt;Node6</title>
<g id="a_edge5_Node000003_Node000006"><a xlink:title=" ">
<path fill="none" stroke="#63b8ff" d="M201.28,-61.56C295.22,-48.33 462.16,-24.82 530.16,-15.24"/>
<polygon fill="#63b8ff" stroke="#63b8ff" points="530.39,-18.74 539.81,-13.88 529.42,-11.81 530.39,-18.74"/>
</a>
</g>
</g>
<!-- Node7 -->
<g id="Node000007" class="node">
<title>Node7</title>
<g id="a_Node000007"><a xlink:title=" ">
<polygon fill="#e0e0e0" stroke="#999999" points="681.88,-20 636.62,-20 636.62,0 681.88,0 681.88,-20"/>
<text text-anchor="middle" x="659.25" y="-6.5" font-family="Helvetica,sans-Serif" font-size="10.00">variant</text>
</a>
</g>
</g>
<!-- Node3&#45;&gt;Node7 -->
<g id="edge6_Node000003_Node000007" class="edge">
<title>Node3&#45;&gt;Node7</title>
<g id="a_edge6_Node000003_Node000007"><a xlink:title=" ">
<path fill="none" stroke="#63b8ff" d="M204.75,-61.72C220.07,-59.77 236.2,-57.77 251.25,-56 400.85,-38.42 438.64,-37.47 588.25,-20 600.28,-18.59 613.45,-16.95 625.14,-15.46"/>
<polygon fill="#63b8ff" stroke="#63b8ff" points="625.27,-18.97 634.74,-14.23 624.38,-12.03 625.27,-18.97"/>
</a>
</g>
</g>
<!-- Node8 -->
<g id="Node000008" class="node">
<title>Node8</title>
<g id="a_Node000008"><a xlink:title=" ">
<polygon fill="#e0e0e0" stroke="#999999" points="109.75,-20 66.75,-20 66.75,0 109.75,0 109.75,-20"/>
<text text-anchor="middle" x="88.25" y="-6.5" font-family="Helvetica,sans-Serif" font-size="10.00">vector</text>
</a>
</g>
</g>
<!-- Node3&#45;&gt;Node8 -->
<g id="edge7_Node000003_Node000008" class="edge">
<title>Node3&#45;&gt;Node8</title>
<g id="a_edge7_Node000003_Node000008"><a xlink:title=" ">
<path fill="none" stroke="#63b8ff" d="M127.06,-61.62C120.41,-52.94 110.33,-39.8 102.11,-29.08"/>
<polygon fill="#63b8ff" stroke="#63b8ff" points="105.02,-27.12 96.16,-21.31 99.46,-31.38 105.02,-27.12"/>
</a>
</g>
</g>
<!-- Node9&#45;&gt;Node3 -->
<g id="edge9_Node000009_Node000003" class="edge">
<title>Node9&#45;&gt;Node3</title>
<g id="a_edge9_Node000009_Node000003"><a xlink:title=" ">
<path fill="none" stroke="#63b8ff" d="M456.5,-182.55C375.44,-175.43 259.61,-162.47 218.25,-144 190.59,-131.65 164.96,-107.34 149.46,-90.64"/>
<polygon fill="#63b8ff" stroke="#63b8ff" points="152.24,-88.5 142.95,-83.39 147.03,-93.17 152.24,-88.5"/>
</a>
</g>
</g>
<!-- Node9&#45;&gt;Node5 -->
<g id="edge25_Node000009_Node000005" class="edge">
<title>Node9&#45;&gt;Node5</title>
<g id="a_edge25_Node000009_Node000005"><a xlink:title=" ">
<path fill="none" stroke="#63b8ff" d="M456.33,-181.06C391.21,-170.47 303.84,-145.74 251.25,-88 237.29,-72.68 233.18,-48.75 232.16,-31.63"/>
<polygon fill="#63b8ff" stroke="#63b8ff" points="235.67,-31.78 231.91,-21.87 228.67,-31.96 235.67,-31.78"/>
</a>
</g>
</g>
<!-- Node9&#45;&gt;Node6 -->
<g id="edge26_Node000009_Node000006" class="edge">
<title>Node9&#45;&gt;Node6</title>
<g id="a_edge26_Node000009_Node000006"><a xlink:title=" ">
<path fill="none" stroke="#63b8ff" d="M557.8,-179.51C582.82,-164.08 629.26,-130.9 647.25,-88 652.75,-74.88 654.64,-68.15 647.25,-56 634.91,-35.72 610.16,-24.18 590.2,-17.87"/>
<polygon fill="#63b8ff" stroke="#63b8ff" points="591.16,-14.51 580.59,-15.15 589.26,-21.24 591.16,-14.51"/>
</a>
</g>
</g>
<!-- Node10 -->
<g id="Node000010" class="node">
<title>Node10</title>
<g id="a_Node000010"><a xlink:href="TfLiteUtils_8hpp.html" target="_top" xlink:title=" ">
<polygon fill="white" stroke="#666666" points="581.12,-144 501.38,-144 501.38,-124 581.12,-124 581.12,-144"/>
<text text-anchor="middle" x="541.25" y="-130.5" font-family="Helvetica,sans-Serif" font-size="10.00">TfLiteUtils.hpp</text>
</a>
</g>
</g>
<!-- Node9&#45;&gt;Node10 -->
<g id="edge10_Node000009_Node000010" class="edge">
<title>Node9&#45;&gt;Node10</title>
<g id="a_edge10_Node000009_Node000010"><a xlink:title=" ">
<path fill="none" stroke="#63b8ff" d="M541.25,-179.59C541.25,-173.01 541.25,-163.96 541.25,-155.73"/>
<polygon fill="#63b8ff" stroke="#63b8ff" points="544.75,-155.81 541.25,-145.81 537.75,-155.81 544.75,-155.81"/>
</a>
</g>
</g>
<!-- Node9&#45;&gt;Node13 -->
<g id="edge27_Node000009_Node000013" class="edge">
<title>Node9&#45;&gt;Node13</title>
<g id="a_edge27_Node000009_Node000013"><a xlink:title=" ">
<path fill="none" stroke="#63b8ff" d="M584.92,-179.51C658.53,-162.65 802.67,-125.72 837.25,-88 851.26,-72.72 855.36,-48.78 856.36,-31.65"/>
<polygon fill="#63b8ff" stroke="#63b8ff" points="859.86,-31.97 856.61,-21.89 852.86,-31.8 859.86,-31.97"/>
</a>
</g>
</g>
<!-- Node16 -->
<g id="Node000016" class="node">
<title>Node16</title>
<g id="a_Node000016"><a xlink:title=" ">
<polygon fill="#e0e0e0" stroke="#999999" points="950,-82 884.5,-82 884.5,-62 950,-62 950,-82"/>
<text text-anchor="middle" x="917.25" y="-68.5" font-family="Helvetica,sans-Serif" font-size="10.00">string_view</text>
</a>
</g>
</g>
<!-- Node9&#45;&gt;Node16 -->
<g id="edge28_Node000009_Node000016" class="edge">
<title>Node9&#45;&gt;Node16</title>
<g id="a_edge28_Node000009_Node000016"><a xlink:title=" ">
<path fill="none" stroke="#63b8ff" d="M626.1,-180.26C674.33,-173.63 735.27,-162.41 787.25,-144 826.88,-129.96 868.91,-104.9 894.11,-88.62"/>
<polygon fill="#63b8ff" stroke="#63b8ff" points="895.82,-91.69 902.25,-83.27 891.97,-85.83 895.82,-91.69"/>
</a>
</g>
</g>
<!-- Node17 -->
<g id="Node000017" class="node">
<title>Node17</title>
<g id="a_Node000017"><a xlink:title=" ">
<polygon fill="#e0e0e0" stroke="#999999" points="493.88,-88 400.62,-88 400.62,-56 493.88,-56 493.88,-88"/>
<text text-anchor="start" x="408.62" y="-74.5" font-family="Helvetica,sans-Serif" font-size="10.00">tensorflow/lite/c/c</text>
<text text-anchor="middle" x="447.25" y="-62.5" font-family="Helvetica,sans-Serif" font-size="10.00">_api.h</text>
</a>
</g>
</g>
<!-- Node9&#45;&gt;Node17 -->
<g id="edge23_Node000009_Node000017" class="edge">
<title>Node9&#45;&gt;Node17</title>
<g id="a_edge23_Node000009_Node000017"><a xlink:title=" ">
<path fill="none" stroke="#63b8ff" d="M529.55,-179.76C519.07,-171.16 503.66,-157.65 492.25,-144 480.46,-129.9 469.39,-112.5 461.17,-98.45"/>
<polygon fill="#63b8ff" stroke="#63b8ff" points="464.22,-96.74 456.23,-89.79 458.14,-100.21 464.22,-96.74"/>
</a>
</g>
</g>
<!-- Node18 -->
<g id="Node000018" class="node">
<title>Node18</title>
<g id="a_Node000018"><a xlink:title=" ">
<polygon fill="#e0e0e0" stroke="#999999" points="382.12,-88 260.38,-88 260.38,-56 382.12,-56 382.12,-88"/>
<text text-anchor="start" x="268.38" y="-74.5" font-family="Helvetica,sans-Serif" font-size="10.00">tensorflow/lite/delegates</text>
<text text-anchor="middle" x="321.25" y="-62.5" font-family="Helvetica,sans-Serif" font-size="10.00">/gpu/delegate.h</text>
</a>
</g>
</g>
<!-- Node9&#45;&gt;Node18 -->
<g id="edge24_Node000009_Node000018" class="edge">
<title>Node9&#45;&gt;Node18</title>
<g id="a_edge24_Node000009_Node000018"><a xlink:title=" ">
<path fill="none" stroke="#63b8ff" d="M523.25,-179.51C487.87,-160.86 408.57,-119.04 360.52,-93.71"/>
<polygon fill="#63b8ff" stroke="#63b8ff" points="362.3,-90.69 351.82,-89.12 359.03,-96.88 362.3,-90.69"/>
</a>
</g>
</g>
<!-- Node10&#45;&gt;Node3 -->
<g id="edge11_Node000010_Node000003" class="edge">
<title>Node10&#45;&gt;Node3</title>
<g id="a_edge11_Node000010_Node000003"><a xlink:title=" ">
<path fill="none" stroke="#63b8ff" d="M501.11,-127.08C433.55,-117.12 296.08,-96.86 209.94,-84.16"/>
<polygon fill="#63b8ff" stroke="#63b8ff" points="210.56,-80.71 200.15,-82.72 209.54,-87.64 210.56,-80.71"/>
</a>
</g>
</g>
<!-- Node10&#45;&gt;Node5 -->
<g id="edge17_Node000010_Node000005" class="edge">
<title>Node10&#45;&gt;Node5</title>
<g id="a_edge17_Node000010_Node000005"><a xlink:title=" ">
<path fill="none" stroke="#63b8ff" d="M539.51,-123.65C535.91,-107.12 525.99,-72.88 503.25,-56 466.84,-28.98 334.98,-17.27 269.58,-13.04"/>
<polygon fill="#63b8ff" stroke="#63b8ff" points="269.88,-9.55 259.68,-12.42 269.45,-16.53 269.88,-9.55"/>
</a>
</g>
</g>
<!-- Node10&#45;&gt;Node6 -->
<g id="edge19_Node000010_Node000006" class="edge">
<title>Node10&#45;&gt;Node6</title>
<g id="a_edge19_Node000010_Node000006"><a xlink:title=" ">
<path fill="none" stroke="#63b8ff" d="M542.68,-123.83C545.72,-104.31 552.89,-58.25 557.07,-31.4"/>
<polygon fill="#63b8ff" stroke="#63b8ff" points="560.49,-32.19 558.57,-21.77 553.58,-31.11 560.49,-32.19"/>
</a>
</g>
</g>
<!-- Node11 -->
<g id="Node000011" class="node">
<title>Node11</title>
<g id="a_Node000011"><a xlink:href="Errors_8hpp.html" target="_top" xlink:title=" ">
<polygon fill="white" stroke="#666666" points="827.75,-82 694.75,-82 694.75,-62 827.75,-62 827.75,-82"/>
<text text-anchor="middle" x="761.25" y="-68.5" font-family="Helvetica,sans-Serif" font-size="10.00">EyeAICore/utils/Errors.hpp</text>
</a>
</g>
</g>
<!-- Node10&#45;&gt;Node11 -->
<g id="edge12_Node000010_Node000011" class="edge">
<title>Node10&#45;&gt;Node11</title>
<g id="a_edge12_Node000010_Node000011"><a xlink:title=" ">
<path fill="none" stroke="#63b8ff" d="M575.62,-123.62C613.37,-113.33 674.15,-96.75 715.81,-85.39"/>
<polygon fill="#63b8ff" stroke="#63b8ff" points="716.57,-88.81 725.29,-82.81 714.73,-82.06 716.57,-88.81"/>
</a>
</g>
</g>
<!-- Node15 -->
<g id="Node000015" class="node">
<title>Node15</title>
<g id="a_Node000015"><a xlink:title=" ">
<polygon fill="#e0e0e0" stroke="#999999" points="638.12,-82 588.38,-82 588.38,-62 638.12,-62 638.12,-82"/>
<text text-anchor="middle" x="613.25" y="-68.5" font-family="Helvetica,sans-Serif" font-size="10.00">optional</text>
</a>
</g>
</g>
<!-- Node10&#45;&gt;Node15 -->
<g id="edge18_Node000010_Node000015" class="edge">
<title>Node10&#45;&gt;Node15</title>
<g id="a_edge18_Node000010_Node000015"><a xlink:title=" ">
<path fill="none" stroke="#63b8ff" d="M552.5,-123.62C563.45,-114.5 580.32,-100.45 593.5,-89.46"/>
<polygon fill="#63b8ff" stroke="#63b8ff" points="595.71,-92.17 601.15,-83.08 591.23,-86.79 595.71,-92.17"/>
</a>
</g>
</g>
<!-- Node10&#45;&gt;Node16 -->
<g id="edge20_Node000010_Node000016" class="edge">
<title>Node10&#45;&gt;Node16</title>
<g id="a_edge20_Node000010_Node000016"><a xlink:title=" ">
<path fill="none" stroke="#63b8ff" d="M581.54,-127.32C638.56,-119.19 746.03,-103.48 837.25,-88 848.85,-86.03 861.36,-83.76 872.97,-81.58"/>
<polygon fill="#63b8ff" stroke="#63b8ff" points="873.55,-85.04 882.72,-79.74 872.25,-78.16 873.55,-85.04"/>
</a>
</g>
</g>
<!-- Node10&#45;&gt;Node17 -->
<g id="edge21_Node000010_Node000017" class="edge">
<title>Node10&#45;&gt;Node17</title>
<g id="a_edge21_Node000010_Node000017"><a xlink:title=" ">
<path fill="none" stroke="#63b8ff" d="M526.56,-123.62C514.33,-115.82 496.45,-104.4 480.75,-94.38"/>
<polygon fill="#63b8ff" stroke="#63b8ff" points="482.92,-91.62 472.61,-89.19 479.16,-97.52 482.92,-91.62"/>
</a>
</g>
</g>
<!-- Node10&#45;&gt;Node18 -->
<g id="edge22_Node000010_Node000018" class="edge">
<title>Node10&#45;&gt;Node18</title>
<g id="a_edge22_Node000010_Node000018"><a xlink:title=" ">
<path fill="none" stroke="#63b8ff" d="M506.88,-123.62C475.46,-115.06 428.1,-102.14 389.07,-91.5"/>
<polygon fill="#63b8ff" stroke="#63b8ff" points="390.08,-88.14 379.51,-88.89 388.24,-94.9 390.08,-88.14"/>
</a>
</g>
</g>
<!-- Node11&#45;&gt;Node7 -->
<g id="edge16_Node000011_Node000007" class="edge">
<title>Node11&#45;&gt;Node7</title>
<g id="a_edge16_Node000011_Node000007"><a xlink:title=" ">
<path fill="none" stroke="#63b8ff" d="M745.31,-61.62C729.14,-52.11 703.86,-37.24 684.88,-26.08"/>
<polygon fill="#63b8ff" stroke="#63b8ff" points="686.77,-23.13 676.38,-21.08 683.22,-29.16 686.77,-23.13"/>
</a>
</g>
</g>
<!-- Node12 -->
<g id="Node000012" class="node">
<title>Node12</title>
<g id="a_Node000012"><a xlink:title=" ">
<polygon fill="#e0e0e0" stroke="#999999" points="783.12,-20 739.38,-20 739.38,0 783.12,0 783.12,-20"/>
<text text-anchor="middle" x="761.25" y="-6.5" font-family="Helvetica,sans-Serif" font-size="10.00">format</text>
</a>
</g>
</g>
<!-- Node11&#45;&gt;Node12 -->
<g id="edge13_Node000011_Node000012" class="edge">
<title>Node11&#45;&gt;Node12</title>
<g id="a_edge13_Node000011_Node000012"><a xlink:title=" ">
<path fill="none" stroke="#63b8ff" d="M761.25,-61.62C761.25,-53.56 761.25,-41.65 761.25,-31.41"/>
<polygon fill="#63b8ff" stroke="#63b8ff" points="764.75,-31.63 761.25,-21.63 757.75,-31.63 764.75,-31.63"/>
</a>
</g>
</g>
<!-- Node11&#45;&gt;Node13 -->
<g id="edge14_Node000011_Node000013" class="edge">
<title>Node11&#45;&gt;Node13</title>
<g id="a_edge14_Node000011_Node000013"><a xlink:title=" ">
<path fill="none" stroke="#63b8ff" d="M776.09,-61.62C791.01,-52.2 814.26,-37.52 831.89,-26.39"/>
<polygon fill="#63b8ff" stroke="#63b8ff" points="833.64,-29.42 840.23,-21.12 829.91,-23.5 833.64,-29.42"/>
</a>
</g>
</g>
<!-- Node11&#45;&gt;Node14 -->
<g id="edge15_Node000011_Node000014" class="edge">
<title>Node11&#45;&gt;Node14</title>
<g id="a_edge15_Node000011_Node000014"><a xlink:title=" ">
<path fill="none" stroke="#63b8ff" d="M794.69,-61.62C831.33,-51.35 890.28,-34.82 930.79,-23.47"/>
<polygon fill="#63b8ff" stroke="#63b8ff" points="931.55,-26.89 940.24,-20.82 929.66,-20.15 931.55,-26.89"/>
</a>
</g>
</g>
<!-- Node19&#45;&gt;Node3 -->
<g id="edge30_Node000019_Node000003" class="edge">
<title>Node19&#45;&gt;Node3</title>
<g id="a_edge30_Node000019_Node000003"><a xlink:title=" ">
<path fill="none" stroke="#63b8ff" d="M75.19,-123.62C85.83,-114.5 102.23,-100.45 115.05,-89.46"/>
<polygon fill="#63b8ff" stroke="#63b8ff" points="117.15,-92.26 122.47,-83.1 112.6,-86.95 117.15,-92.26"/>
</a>
</g>
</g>
<!-- Node20&#45;&gt;Node16 -->
<g id="edge35_Node000020_Node000016" class="edge">
<title>Node20&#45;&gt;Node16</title>
<g id="a_edge35_Node000020_Node000016"><a xlink:title=" ">
<path fill="none" stroke="#63b8ff" d="M830.22,-235.65C803.42,-224.99 768.79,-205.65 781.25,-180 784.37,-173.58 857.79,-117.74 895.43,-89.38"/>
<polygon fill="#63b8ff" stroke="#63b8ff" points="897.49,-92.21 903.37,-83.4 893.28,-86.62 897.49,-92.21"/>
</a>
</g>
</g>
<!-- Node21 -->
<g id="Node000021" class="node">
<title>Node21</title>
<g id="a_Node000021"><a xlink:title=" ">
<polygon fill="#e0e0e0" stroke="#999999" points="949.88,-200 904.62,-200 904.62,-180 949.88,-180 949.88,-200"/>
<text text-anchor="middle" x="927.25" y="-186.5" font-family="Helvetica,sans-Serif" font-size="10.00">chrono</text>
</a>
</g>
</g>
<!-- Node20&#45;&gt;Node21 -->
<g id="edge33_Node000020_Node000021" class="edge">
<title>Node20&#45;&gt;Node21</title>
<g id="a_edge33_Node000020_Node000021"><a xlink:title=" ">
<path fill="none" stroke="#63b8ff" d="M870.27,-235.59C880.26,-227.77 894.71,-216.46 906.56,-207.19"/>
<polygon fill="#63b8ff" stroke="#63b8ff" points="908.46,-210.15 914.18,-201.23 904.14,-204.64 908.46,-210.15"/>
</a>
</g>
</g>
<!-- Node22 -->
<g id="Node000022" class="node">
<title>Node22</title>
<g id="a_Node000022"><a xlink:title=" ">
<polygon fill="#e0e0e0" stroke="#999999" points="886.38,-200 790.12,-200 790.12,-180 886.38,-180 886.38,-200"/>
<text text-anchor="middle" x="838.25" y="-186.5" font-family="Helvetica,sans-Serif" font-size="10.00">concurrentqueue.h</text>
</a>
</g>
</g>
<!-- Node20&#45;&gt;Node22 -->
<g id="edge34_Node000020_Node000022" class="edge">
<title>Node20&#45;&gt;Node22</title>
<g id="a_edge34_Node000020_Node000022"><a xlink:title=" ">
<path fill="none" stroke="#63b8ff" d="M854.77,-235.59C852.24,-228.78 848.74,-219.32 845.61,-210.86"/>
<polygon fill="#63b8ff" stroke="#63b8ff" points="848.97,-209.88 842.22,-201.72 842.41,-212.31 848.97,-209.88"/>
</a>
</g>
</g>
</g>
</svg>
