<?xml version="1.0" encoding="UTF-8" standalone="no"?>
<!DOCTYPE svg PUBLIC "-//W3C//DTD SVG 1.1//EN"
 "http://www.w3.org/Graphics/SVG/1.1/DTD/svg11.dtd">
<!-- Generated by graphviz version 2.43.0 (0)
 -->
<!-- Title: include/EyeAICore/YoloModel.hpp Pages: 1 -->
<svg width="931pt" height="263pt"
 viewBox="0.00 0.00 931.23 263.00" xmlns="http://www.w3.org/2000/svg" xmlns:xlink="http://www.w3.org/1999/xlink">
<g id="graph0" class="graph" transform="scale(1 1) rotate(0) translate(4 259)">
<title>include/EyeAICore/YoloModel.hpp</title>
<!-- Node1 -->
<g id="node1" class="node">
<title>Node1</title>
<g id="a_node1"><a xlink:title=" ">
<polygon fill="#bfbfbf" stroke="black" points="429.5,-235.5 429.5,-254.5 608.5,-254.5 608.5,-235.5 429.5,-235.5"/>
<text text-anchor="middle" x="519" y="-242.5" font-family="Helvetica,sans-Serif" font-size="10.00">include/EyeAICore/YoloModel.hpp</text>
</a>
</g>
</g>
<!-- Node2 -->
<g id="node2" class="node">
<title>Node2</title>
<g id="a_node2"><a xlink:href="TfLiteRuntime_8hpp.html" target="_top" xlink:title=" ">
<polygon fill="none" stroke="black" points="426.5,-179.5 426.5,-198.5 611.5,-198.5 611.5,-179.5 426.5,-179.5"/>
<text text-anchor="middle" x="519" y="-186.5" font-family="Helvetica,sans-Serif" font-size="10.00">EyeAICore/tflite/TfLiteRuntime.hpp</text>
</a>
</g>
</g>
<!-- Node1&#45;&gt;Node2 -->
<g id="edge1" class="edge">
<title>Node1&#45;&gt;Node2</title>
<path fill="none" stroke="midnightblue" d="M519,-235.08C519,-228.01 519,-217.86 519,-208.99"/>
<polygon fill="midnightblue" stroke="midnightblue" points="522.5,-208.75 519,-198.75 515.5,-208.75 522.5,-208.75"/>
</g>
<!-- Node3 -->
<g id="node3" class="node">
<title>Node3</title>
<g id="a_node3"><a xlink:href="Operators_8hpp.html" target="_top" xlink:title=" ">
<polygon fill="none" stroke="black" points="112.5,-62 112.5,-81 251.5,-81 251.5,-62 112.5,-62"/>
<text text-anchor="middle" x="182" y="-69" font-family="Helvetica,sans-Serif" font-size="10.00">EyeAICore/Operators.hpp</text>
</a>
</g>
</g>
<!-- Node2&#45;&gt;Node3 -->
<g id="edge2" class="edge">
<title>Node2&#45;&gt;Node3</title>
<path fill="none" stroke="midnightblue" d="M426.25,-183.09C376.8,-177.66 316.02,-166.37 266,-143 238.09,-129.96 211.91,-105.24 196.42,-88.82"/>
<polygon fill="midnightblue" stroke="midnightblue" points="198.67,-86.1 189.34,-81.09 193.51,-90.83 198.67,-86.1"/>
</g>
<!-- Node6 -->
<g id="node6" class="node">
<title>Node6</title>
<g id="a_node6"><a xlink:title=" ">
<polygon fill="none" stroke="#bfbfbf" points="252,-0.5 252,-19.5 310,-19.5 310,-0.5 252,-0.5"/>
<text text-anchor="middle" x="281" y="-7.5" font-family="Helvetica,sans-Serif" font-size="10.00">memory</text>
</a>
</g>
</g>
<!-- Node2&#45;&gt;Node6 -->
<g id="edge25" class="edge">
<title>Node2&#45;&gt;Node6</title>
<path fill="none" stroke="midnightblue" d="M484.91,-179.49C440.47,-166.69 363.1,-138.35 318,-87 303.07,-70 292.7,-45.9 286.81,-29.42"/>
<polygon fill="midnightblue" stroke="midnightblue" points="290.1,-28.21 283.59,-19.85 283.46,-30.44 290.1,-28.21"/>
</g>
<!-- Node8 -->
<g id="node8" class="node">
<title>Node8</title>
<g id="a_node8"><a xlink:title=" ">
<polygon fill="none" stroke="#bfbfbf" points="0,-0.5 0,-19.5 40,-19.5 40,-0.5 0,-0.5"/>
<text text-anchor="middle" x="20" y="-7.5" font-family="Helvetica,sans-Serif" font-size="10.00">span</text>
</a>
</g>
</g>
<!-- Node2&#45;&gt;Node8 -->
<g id="edge26" class="edge">
<title>Node2&#45;&gt;Node8</title>
<path fill="none" stroke="midnightblue" d="M436.77,-179.48C319.72,-165.82 113.01,-135.51 57,-87 39.62,-71.95 29.65,-46.85 24.54,-29.65"/>
<polygon fill="midnightblue" stroke="midnightblue" points="27.83,-28.41 21.85,-19.66 21.07,-30.23 27.83,-28.41"/>
</g>
<!-- Node9 -->
<g id="node9" class="node">
<title>Node9</title>
<g id="a_node9"><a xlink:title=" ">
<polygon fill="none" stroke="#bfbfbf" points="470,-0.5 470,-19.5 514,-19.5 514,-0.5 470,-0.5"/>
<text text-anchor="middle" x="492" y="-7.5" font-family="Helvetica,sans-Serif" font-size="10.00">string</text>
</a>
</g>
</g>
<!-- Node2&#45;&gt;Node9 -->
<g id="edge27" class="edge">
<title>Node2&#45;&gt;Node9</title>
<path fill="none" stroke="midnightblue" d="M611.72,-185.48C751.74,-178.56 991.98,-152.68 904,-56 848.72,4.75 622.75,-33.12 524.2,-19.63"/>
<polygon fill="midnightblue" stroke="midnightblue" points="524.66,-16.16 514.23,-18 523.53,-23.07 524.66,-16.16"/>
</g>
<!-- Node11 -->
<g id="node11" class="node">
<title>Node11</title>
<g id="a_node11"><a xlink:href="TfLiteUtils_8hpp.html" target="_top" xlink:title=" ">
<polygon fill="none" stroke="black" points="412,-123.5 412,-142.5 500,-142.5 500,-123.5 412,-123.5"/>
<text text-anchor="middle" x="456" y="-130.5" font-family="Helvetica,sans-Serif" font-size="10.00">TfLiteUtils.hpp</text>
</a>
</g>
</g>
<!-- Node2&#45;&gt;Node11 -->
<g id="edge10" class="edge">
<title>Node2&#45;&gt;Node11</title>
<path fill="none" stroke="midnightblue" d="M508.88,-179.32C499.47,-171.26 485.26,-159.08 473.93,-149.37"/>
<polygon fill="midnightblue" stroke="midnightblue" points="476.18,-146.68 466.31,-142.83 471.62,-152 476.18,-146.68"/>
</g>
<!-- Node16 -->
<g id="node16" class="node">
<title>Node16</title>
<g id="a_node16"><a xlink:title=" ">
<polygon fill="none" stroke="#bfbfbf" points="545.5,-62 545.5,-81 618.5,-81 618.5,-62 545.5,-62"/>
<text text-anchor="middle" x="582" y="-69" font-family="Helvetica,sans-Serif" font-size="10.00">string_view</text>
</a>
</g>
</g>
<!-- Node2&#45;&gt;Node16 -->
<g id="edge28" class="edge">
<title>Node2&#45;&gt;Node16</title>
<path fill="none" stroke="midnightblue" d="M523.74,-179.32C534.04,-160.42 558.68,-115.25 572.39,-90.12"/>
<polygon fill="midnightblue" stroke="midnightblue" points="575.49,-91.74 577.21,-81.28 569.35,-88.38 575.49,-91.74"/>
</g>
<!-- Node17 -->
<g id="node17" class="node">
<title>Node17</title>
<g id="a_node17"><a xlink:title=" ">
<polygon fill="none" stroke="#bfbfbf" points="636.5,-56.5 636.5,-86.5 739.5,-86.5 739.5,-56.5 636.5,-56.5"/>
<text text-anchor="start" x="644.5" y="-74.5" font-family="Helvetica,sans-Serif" font-size="10.00">tensorflow/lite/c/c</text>
<text text-anchor="middle" x="688" y="-63.5" font-family="Helvetica,sans-Serif" font-size="10.00">_api.h</text>
</a>
</g>
</g>
<!-- Node2&#45;&gt;Node17 -->
<g id="edge23" class="edge">
<title>Node2&#45;&gt;Node17</title>
<path fill="none" stroke="midnightblue" d="M531.7,-179.32C558.57,-160.96 621.72,-117.8 659.01,-92.31"/>
<polygon fill="midnightblue" stroke="midnightblue" points="661.17,-95.08 667.45,-86.55 657.22,-89.3 661.17,-95.08"/>
</g>
<!-- Node18 -->
<g id="node18" class="node">
<title>Node18</title>
<g id="a_node18"><a xlink:title=" ">
<polygon fill="none" stroke="#bfbfbf" points="757.5,-56.5 757.5,-86.5 894.5,-86.5 894.5,-56.5 757.5,-56.5"/>
<text text-anchor="start" x="765.5" y="-74.5" font-family="Helvetica,sans-Serif" font-size="10.00">tensorflow/lite/delegates</text>
<text text-anchor="middle" x="826" y="-63.5" font-family="Helvetica,sans-Serif" font-size="10.00">/gpu/delegate.h</text>
</a>
</g>
</g>
<!-- Node2&#45;&gt;Node18 -->
<g id="edge24" class="edge">
<title>Node2&#45;&gt;Node18</title>
<path fill="none" stroke="midnightblue" d="M541.82,-179.41C591.89,-160.58 712.21,-115.31 779.12,-90.14"/>
<polygon fill="midnightblue" stroke="midnightblue" points="780.46,-93.37 788.59,-86.58 778,-86.82 780.46,-93.37"/>
</g>
<!-- Node4 -->
<g id="node4" class="node">
<title>Node4</title>
<g id="a_node4"><a xlink:title=" ">
<polygon fill="none" stroke="#bfbfbf" points="124,-0.5 124,-19.5 166,-19.5 166,-0.5 124,-0.5"/>
<text text-anchor="middle" x="145" y="-7.5" font-family="Helvetica,sans-Serif" font-size="10.00">array</text>
</a>
</g>
</g>
<!-- Node3&#45;&gt;Node4 -->
<g id="edge3" class="edge">
<title>Node3&#45;&gt;Node4</title>
<path fill="none" stroke="midnightblue" d="M176.7,-61.98C171.26,-53.23 162.64,-39.37 155.76,-28.31"/>
<polygon fill="midnightblue" stroke="midnightblue" points="158.54,-26.15 150.29,-19.51 152.6,-29.85 158.54,-26.15"/>
</g>
<!-- Node5 -->
<g id="node5" class="node">
<title>Node5</title>
<g id="a_node5"><a xlink:title=" ">
<polygon fill="none" stroke="#bfbfbf" points="184,-0.5 184,-19.5 234,-19.5 234,-0.5 184,-0.5"/>
<text text-anchor="middle" x="209" y="-7.5" font-family="Helvetica,sans-Serif" font-size="10.00">cstdint</text>
</a>
</g>
</g>
<!-- Node3&#45;&gt;Node5 -->
<g id="edge4" class="edge">
<title>Node3&#45;&gt;Node5</title>
<path fill="none" stroke="midnightblue" d="M185.87,-61.98C189.8,-53.32 196,-39.65 200.99,-28.65"/>
<polygon fill="midnightblue" stroke="midnightblue" points="204.19,-30.06 205.14,-19.51 197.82,-27.17 204.19,-30.06"/>
</g>
<!-- Node3&#45;&gt;Node6 -->
<g id="edge5" class="edge">
<title>Node3&#45;&gt;Node6</title>
<path fill="none" stroke="midnightblue" d="M196.18,-61.98C212.36,-52.25 239.03,-36.23 258.14,-24.74"/>
<polygon fill="midnightblue" stroke="midnightblue" points="260.07,-27.66 266.84,-19.51 256.47,-21.66 260.07,-27.66"/>
</g>
<!-- Node7 -->
<g id="node7" class="node">
<title>Node7</title>
<g id="a_node7"><a xlink:title=" ">
<polygon fill="none" stroke="#bfbfbf" points="328,-0.5 328,-19.5 384,-19.5 384,-0.5 328,-0.5"/>
<text text-anchor="middle" x="356" y="-7.5" font-family="Helvetica,sans-Serif" font-size="10.00">optional</text>
</a>
</g>
</g>
<!-- Node3&#45;&gt;Node7 -->
<g id="edge6" class="edge">
<title>Node3&#45;&gt;Node7</title>
<path fill="none" stroke="midnightblue" d="M206.93,-61.98C237.04,-51.68 287.83,-34.31 321.64,-22.75"/>
<polygon fill="midnightblue" stroke="midnightblue" points="322.79,-26.06 331.12,-19.51 320.52,-19.43 322.79,-26.06"/>
</g>
<!-- Node3&#45;&gt;Node8 -->
<g id="edge7" class="edge">
<title>Node3&#45;&gt;Node8</title>
<path fill="none" stroke="midnightblue" d="M158.79,-61.98C130.05,-51.42 81.07,-33.43 49.64,-21.89"/>
<polygon fill="midnightblue" stroke="midnightblue" points="50.7,-18.55 40.1,-18.38 48.28,-25.12 50.7,-18.55"/>
</g>
<!-- Node3&#45;&gt;Node9 -->
<g id="edge8" class="edge">
<title>Node3&#45;&gt;Node9</title>
<path fill="none" stroke="midnightblue" d="M238.73,-62C293.14,-53.44 377.76,-39.11 459.74,-20.11"/>
<polygon fill="midnightblue" stroke="midnightblue" points="460.78,-23.46 469.72,-17.77 459.19,-16.64 460.78,-23.46"/>
</g>
<!-- Node10 -->
<g id="node10" class="node">
<title>Node10</title>
<g id="a_node10"><a xlink:title=" ">
<polygon fill="none" stroke="#bfbfbf" points="58.5,-0.5 58.5,-19.5 105.5,-19.5 105.5,-0.5 58.5,-0.5"/>
<text text-anchor="middle" x="82" y="-7.5" font-family="Helvetica,sans-Serif" font-size="10.00">vector</text>
</a>
</g>
</g>
<!-- Node3&#45;&gt;Node10 -->
<g id="edge9" class="edge">
<title>Node3&#45;&gt;Node10</title>
<path fill="none" stroke="midnightblue" d="M167.67,-61.98C151.34,-52.25 124.4,-36.23 105.09,-24.74"/>
<polygon fill="midnightblue" stroke="midnightblue" points="106.68,-21.61 96.3,-19.51 103.11,-27.63 106.68,-21.61"/>
</g>
<!-- Node11&#45;&gt;Node3 -->
<g id="edge11" class="edge">
<title>Node11&#45;&gt;Node3</title>
<path fill="none" stroke="midnightblue" d="M416.74,-123.48C367.81,-112.85 284.16,-94.68 231.05,-83.15"/>
<polygon fill="midnightblue" stroke="midnightblue" points="231.7,-79.71 221.18,-81.01 230.21,-86.55 231.7,-79.71"/>
</g>
<!-- Node11&#45;&gt;Node6 -->
<g id="edge17" class="edge">
<title>Node11&#45;&gt;Node6</title>
<path fill="none" stroke="midnightblue" d="M431.39,-123.45C410.78,-115.67 381.1,-102.96 358,-87 333,-69.72 308.84,-43.93 294.45,-27.28"/>
<polygon fill="midnightblue" stroke="midnightblue" points="297,-24.87 287.86,-19.5 291.65,-29.4 297,-24.87"/>
</g>
<!-- Node11&#45;&gt;Node7 -->
<g id="edge18" class="edge">
<title>Node11&#45;&gt;Node7</title>
<path fill="none" stroke="midnightblue" d="M428.85,-123.36C410.99,-116.31 388.51,-104.61 375,-87 362.36,-70.52 358.04,-46.65 356.61,-30.07"/>
<polygon fill="midnightblue" stroke="midnightblue" points="360.09,-29.72 356.02,-19.94 353.11,-30.13 360.09,-29.72"/>
</g>
<!-- Node11&#45;&gt;Node8 -->
<g id="edge19" class="edge">
<title>Node11&#45;&gt;Node8</title>
<path fill="none" stroke="midnightblue" d="M411.9,-129.7C329.81,-124.89 157.02,-112.04 103,-87 73.75,-73.44 47.73,-45.79 32.92,-27.84"/>
<polygon fill="midnightblue" stroke="midnightblue" points="35.56,-25.54 26.59,-19.92 30.1,-29.91 35.56,-25.54"/>
</g>
<!-- Node12 -->
<g id="node12" class="node">
<title>Node12</title>
<g id="a_node12"><a xlink:href="Errors_8hpp.html" target="_top" xlink:title=" ">
<polygon fill="none" stroke="black" points="384.5,-62 384.5,-81 527.5,-81 527.5,-62 384.5,-62"/>
<text text-anchor="middle" x="456" y="-69" font-family="Helvetica,sans-Serif" font-size="10.00">EyeAICore/utils/Errors.hpp</text>
</a>
</g>
</g>
<!-- Node11&#45;&gt;Node12 -->
<g id="edge12" class="edge">
<title>Node11&#45;&gt;Node12</title>
<path fill="none" stroke="midnightblue" d="M456,-123.48C456,-115.08 456,-101.98 456,-91.16"/>
<polygon fill="midnightblue" stroke="midnightblue" points="459.5,-91.01 456,-81.01 452.5,-91.01 459.5,-91.01"/>
</g>
<!-- Node11&#45;&gt;Node16 -->
<g id="edge20" class="edge">
<title>Node11&#45;&gt;Node16</title>
<path fill="none" stroke="midnightblue" d="M474.05,-123.48C495.2,-113.49 530.44,-96.85 554.88,-85.31"/>
<polygon fill="midnightblue" stroke="midnightblue" points="556.43,-88.44 563.98,-81.01 553.44,-82.11 556.43,-88.44"/>
</g>
<!-- Node11&#45;&gt;Node17 -->
<g id="edge21" class="edge">
<title>Node11&#45;&gt;Node17</title>
<path fill="none" stroke="midnightblue" d="M489.24,-123.48C525,-114.3 582.66,-99.52 626.68,-88.23"/>
<polygon fill="midnightblue" stroke="midnightblue" points="627.61,-91.6 636.42,-85.73 625.87,-84.82 627.61,-91.6"/>
</g>
<!-- Node11&#45;&gt;Node18 -->
<g id="edge22" class="edge">
<title>Node11&#45;&gt;Node18</title>
<path fill="none" stroke="midnightblue" d="M500.25,-125.68C555.73,-117.65 653.98,-103.08 747.29,-87.26"/>
<polygon fill="midnightblue" stroke="midnightblue" points="747.9,-90.71 757.17,-85.58 746.73,-83.81 747.9,-90.71"/>
</g>
<!-- Node12&#45;&gt;Node9 -->
<g id="edge14" class="edge">
<title>Node12&#45;&gt;Node9</title>
<path fill="none" stroke="midnightblue" d="M461.16,-61.98C466.45,-53.23 474.84,-39.37 481.53,-28.31"/>
<polygon fill="midnightblue" stroke="midnightblue" points="484.67,-29.88 486.85,-19.51 478.68,-26.25 484.67,-29.88"/>
</g>
<!-- Node13 -->
<g id="node13" class="node">
<title>Node13</title>
<g id="a_node13"><a xlink:title=" ">
<polygon fill="none" stroke="#bfbfbf" points="402,-0.5 402,-19.5 452,-19.5 452,-0.5 402,-0.5"/>
<text text-anchor="middle" x="427" y="-7.5" font-family="Helvetica,sans-Serif" font-size="10.00">format</text>
</a>
</g>
</g>
<!-- Node12&#45;&gt;Node13 -->
<g id="edge13" class="edge">
<title>Node12&#45;&gt;Node13</title>
<path fill="none" stroke="midnightblue" d="M451.85,-61.98C447.62,-53.32 440.96,-39.65 435.6,-28.65"/>
<polygon fill="midnightblue" stroke="midnightblue" points="438.67,-26.96 431.15,-19.51 432.38,-30.03 438.67,-26.96"/>
</g>
<!-- Node14 -->
<g id="node14" class="node">
<title>Node14</title>
<g id="a_node14"><a xlink:title=" ">
<polygon fill="none" stroke="#bfbfbf" points="532,-0.5 532,-19.5 624,-19.5 624,-0.5 532,-0.5"/>
<text text-anchor="middle" x="578" y="-7.5" font-family="Helvetica,sans-Serif" font-size="10.00">tl/expected.hpp</text>
</a>
</g>
</g>
<!-- Node12&#45;&gt;Node14 -->
<g id="edge15" class="edge">
<title>Node12&#45;&gt;Node14</title>
<path fill="none" stroke="midnightblue" d="M473.48,-61.98C493.86,-52.03 527.78,-35.49 551.42,-23.96"/>
<polygon fill="midnightblue" stroke="midnightblue" points="553.1,-27.04 560.55,-19.51 550.03,-20.75 553.1,-27.04"/>
</g>
<!-- Node15 -->
<g id="node15" class="node">
<title>Node15</title>
<g id="a_node15"><a xlink:title=" ">
<polygon fill="none" stroke="#bfbfbf" points="642.5,-0.5 642.5,-19.5 693.5,-19.5 693.5,-0.5 642.5,-0.5"/>
<text text-anchor="middle" x="668" y="-7.5" font-family="Helvetica,sans-Serif" font-size="10.00">variant</text>
</a>
</g>
</g>
<!-- Node12&#45;&gt;Node15 -->
<g id="edge16" class="edge">
<title>Node12&#45;&gt;Node15</title>
<path fill="none" stroke="midnightblue" d="M486.37,-61.98C525,-51.13 591.6,-32.44 632.52,-20.96"/>
<polygon fill="midnightblue" stroke="midnightblue" points="633.66,-24.27 642.34,-18.2 631.77,-17.53 633.66,-24.27"/>
</g>
</g>
</svg>
