<?xml version="1.0" encoding="UTF-8" standalone="no"?>
<!DOCTYPE svg PUBLIC "-//W3C//DTD SVG 1.1//EN"
 "http://www.w3.org/Graphics/SVG/1.1/DTD/svg11.dtd">
<!-- Generated by graphviz version 2.43.0 (0)
 -->
<!-- Title: src/YoloModel.cpp Pages: 1 -->
<svg width="1165pt" height="319pt"
 viewBox="0.00 0.00 1164.50 319.00" xmlns="http://www.w3.org/2000/svg" xmlns:xlink="http://www.w3.org/1999/xlink">
<g id="graph0" class="graph" transform="scale(1 1) rotate(0) translate(4 315)">
<title>src/YoloModel.cpp</title>
<!-- Node1 -->
<g id="node1" class="node">
<title>Node1</title>
<g id="a_node1"><a xlink:title=" ">
<polygon fill="#bfbfbf" stroke="black" points="736,-291.5 736,-310.5 840,-310.5 840,-291.5 736,-291.5"/>
<text text-anchor="middle" x="788" y="-298.5" font-family="Helvetica,sans-Serif" font-size="10.00">src/YoloModel.cpp</text>
</a>
</g>
</g>
<!-- Node2 -->
<g id="node2" class="node">
<title>Node2</title>
<g id="a_node2"><a xlink:href="YoloModel_8hpp.html" target="_top" xlink:title=" ">
<polygon fill="none" stroke="black" points="458,-235.5 458,-254.5 598,-254.5 598,-235.5 458,-235.5"/>
<text text-anchor="middle" x="528" y="-242.5" font-family="Helvetica,sans-Serif" font-size="10.00">EyeAICore/YoloModel.hpp</text>
</a>
</g>
</g>
<!-- Node1&#45;&gt;Node2 -->
<g id="edge1" class="edge">
<title>Node1&#45;&gt;Node2</title>
<path fill="none" stroke="midnightblue" d="M746.8,-291.44C701.35,-282 628.16,-266.8 579.09,-256.61"/>
<polygon fill="midnightblue" stroke="midnightblue" points="579.51,-253.12 569.01,-254.52 578.08,-259.98 579.51,-253.12"/>
</g>
<!-- Node3 -->
<g id="node3" class="node">
<title>Node3</title>
<g id="a_node3"><a xlink:href="TfLiteRuntime_8hpp.html" target="_top" xlink:title=" ">
<polygon fill="none" stroke="black" points="430.5,-179.5 430.5,-198.5 615.5,-198.5 615.5,-179.5 430.5,-179.5"/>
<text text-anchor="middle" x="523" y="-186.5" font-family="Helvetica,sans-Serif" font-size="10.00">EyeAICore/tflite/TfLiteRuntime.hpp</text>
</a>
</g>
</g>
<!-- Node1&#45;&gt;Node3 -->
<g id="edge31" class="edge">
<title>Node1&#45;&gt;Node3</title>
<path fill="none" stroke="midnightblue" d="M761.66,-291.4C735.98,-282.83 695.94,-268.96 662,-255 621.89,-238.5 576.58,-216.7 548.9,-203.01"/>
<polygon fill="midnightblue" stroke="midnightblue" points="550.4,-199.85 539.89,-198.53 547.29,-206.12 550.4,-199.85"/>
</g>
<!-- Node4 -->
<g id="node4" class="node">
<title>Node4</title>
<g id="a_node4"><a xlink:href="Operators_8hpp.html" target="_top" xlink:title=" ">
<polygon fill="none" stroke="black" points="79.5,-62 79.5,-81 218.5,-81 218.5,-62 79.5,-62"/>
<text text-anchor="middle" x="149" y="-69" font-family="Helvetica,sans-Serif" font-size="10.00">EyeAICore/Operators.hpp</text>
</a>
</g>
</g>
<!-- Node1&#45;&gt;Node4 -->
<g id="edge30" class="edge">
<title>Node1&#45;&gt;Node4</title>
<path fill="none" stroke="midnightblue" d="M735.92,-299.69C668.02,-297.81 546.42,-289.38 449,-255 332.58,-213.92 212.63,-123.64 167.58,-87.7"/>
<polygon fill="midnightblue" stroke="midnightblue" points="169.57,-84.81 159.59,-81.26 165.18,-90.26 169.57,-84.81"/>
</g>
<!-- Node10 -->
<g id="node10" class="node">
<title>Node10</title>
<g id="a_node10"><a xlink:title=" ">
<polygon fill="none" stroke="#bfbfbf" points="630,-0.5 630,-19.5 674,-19.5 674,-0.5 630,-0.5"/>
<text text-anchor="middle" x="652" y="-7.5" font-family="Helvetica,sans-Serif" font-size="10.00">string</text>
</a>
</g>
</g>
<!-- Node1&#45;&gt;Node10 -->
<g id="edge39" class="edge">
<title>Node1&#45;&gt;Node10</title>
<path fill="none" stroke="midnightblue" d="M760.77,-291.44C742.05,-284.32 717.81,-272.51 702,-255 681.14,-231.91 676,-221.11 676,-190 676,-190 676,-190 676,-132 676,-95.02 665.08,-52.88 657.97,-29.37"/>
<polygon fill="midnightblue" stroke="midnightblue" points="661.27,-28.18 654.94,-19.69 654.59,-30.28 661.27,-28.18"/>
</g>
<!-- Node15 -->
<g id="node15" class="node">
<title>Node15</title>
<g id="a_node15"><a xlink:title=" ">
<polygon fill="none" stroke="#bfbfbf" points="895,-0.5 895,-19.5 987,-19.5 987,-0.5 895,-0.5"/>
<text text-anchor="middle" x="941" y="-7.5" font-family="Helvetica,sans-Serif" font-size="10.00">tl/expected.hpp</text>
</a>
</g>
</g>
<!-- Node1&#45;&gt;Node15 -->
<g id="edge36" class="edge">
<title>Node1&#45;&gt;Node15</title>
<path fill="none" stroke="midnightblue" d="M818.61,-291.44C857.51,-278.66 922.64,-250.41 948,-199 975.77,-142.7 957.9,-64.97 947.26,-29.72"/>
<polygon fill="midnightblue" stroke="midnightblue" points="950.49,-28.32 944.13,-19.85 943.82,-30.44 950.49,-28.32"/>
</g>
<!-- Node20 -->
<g id="node20" class="node">
<title>Node20</title>
<g id="a_node20"><a xlink:href="Profiling_8hpp.html" target="_top" xlink:title=" ">
<polygon fill="none" stroke="black" points="710.5,-235.5 710.5,-254.5 865.5,-254.5 865.5,-235.5 710.5,-235.5"/>
<text text-anchor="middle" x="788" y="-242.5" font-family="Helvetica,sans-Serif" font-size="10.00">EyeAICore/utils/Profiling.hpp</text>
</a>
</g>
</g>
<!-- Node1&#45;&gt;Node20 -->
<g id="edge32" class="edge">
<title>Node1&#45;&gt;Node20</title>
<path fill="none" stroke="midnightblue" d="M788,-291.08C788,-284.01 788,-273.86 788,-264.99"/>
<polygon fill="midnightblue" stroke="midnightblue" points="791.5,-264.75 788,-254.75 784.5,-264.75 791.5,-264.75"/>
</g>
<!-- Node23 -->
<g id="node23" class="node">
<title>Node23</title>
<g id="a_node23"><a xlink:title=" ">
<polygon fill="none" stroke="#bfbfbf" points="958,-235.5 958,-254.5 1022,-254.5 1022,-235.5 958,-235.5"/>
<text text-anchor="middle" x="990" y="-242.5" font-family="Helvetica,sans-Serif" font-size="10.00">algorithm</text>
</a>
</g>
</g>
<!-- Node1&#45;&gt;Node23 -->
<g id="edge37" class="edge">
<title>Node1&#45;&gt;Node23</title>
<path fill="none" stroke="midnightblue" d="M820.01,-291.44C854.73,-282.16 910.29,-267.31 948.38,-257.13"/>
<polygon fill="midnightblue" stroke="midnightblue" points="949.39,-260.48 958.14,-254.52 947.58,-253.72 949.39,-260.48"/>
</g>
<!-- Node24 -->
<g id="node24" class="node">
<title>Node24</title>
<g id="a_node24"><a xlink:title=" ">
<polygon fill="none" stroke="#bfbfbf" points="1040.5,-235.5 1040.5,-254.5 1093.5,-254.5 1093.5,-235.5 1040.5,-235.5"/>
<text text-anchor="middle" x="1067" y="-242.5" font-family="Helvetica,sans-Serif" font-size="10.00">cstddef</text>
</a>
</g>
</g>
<!-- Node1&#45;&gt;Node24 -->
<g id="edge38" class="edge">
<title>Node1&#45;&gt;Node24</title>
<path fill="none" stroke="midnightblue" d="M839.38,-291.44C886.48,-283.37 958.36,-270.53 1030.18,-255.07"/>
<polygon fill="midnightblue" stroke="midnightblue" points="1031.28,-258.41 1040.31,-252.87 1029.79,-251.57 1031.28,-258.41"/>
</g>
<!-- Node25 -->
<g id="node25" class="node">
<title>Node25</title>
<g id="a_node25"><a xlink:title=" ">
<polygon fill="none" stroke="#bfbfbf" points="1111.5,-235.5 1111.5,-254.5 1156.5,-254.5 1156.5,-235.5 1111.5,-235.5"/>
<text text-anchor="middle" x="1134" y="-242.5" font-family="Helvetica,sans-Serif" font-size="10.00">utility</text>
</a>
</g>
</g>
<!-- Node1&#45;&gt;Node25 -->
<g id="edge40" class="edge">
<title>Node1&#45;&gt;Node25</title>
<path fill="none" stroke="midnightblue" d="M840.24,-294.81C900.96,-288.28 1004.32,-275.6 1101.43,-255.1"/>
<polygon fill="midnightblue" stroke="midnightblue" points="1102.36,-258.48 1111.41,-252.96 1100.9,-251.63 1102.36,-258.48"/>
</g>
<!-- Node2&#45;&gt;Node3 -->
<g id="edge2" class="edge">
<title>Node2&#45;&gt;Node3</title>
<path fill="none" stroke="midnightblue" d="M527.17,-235.08C526.52,-228.01 525.58,-217.86 524.76,-208.99"/>
<polygon fill="midnightblue" stroke="midnightblue" points="528.22,-208.39 523.81,-198.75 521.25,-209.03 528.22,-208.39"/>
</g>
<!-- Node3&#45;&gt;Node4 -->
<g id="edge3" class="edge">
<title>Node3&#45;&gt;Node4</title>
<path fill="none" stroke="midnightblue" d="M476.04,-179.5C435.57,-171.65 375.82,-158.84 325,-143 271.52,-126.32 211.35,-100.66 177.04,-85.33"/>
<polygon fill="midnightblue" stroke="midnightblue" points="178.21,-82.02 167.66,-81.11 175.34,-88.41 178.21,-82.02"/>
</g>
<!-- Node7 -->
<g id="node7" class="node">
<title>Node7</title>
<g id="a_node7"><a xlink:title=" ">
<polygon fill="none" stroke="#bfbfbf" points="0,-0.5 0,-19.5 58,-19.5 58,-0.5 0,-0.5"/>
<text text-anchor="middle" x="29" y="-7.5" font-family="Helvetica,sans-Serif" font-size="10.00">memory</text>
</a>
</g>
</g>
<!-- Node3&#45;&gt;Node7 -->
<g id="edge26" class="edge">
<title>Node3&#45;&gt;Node7</title>
<path fill="none" stroke="midnightblue" d="M430.35,-181.2C305.37,-170 92.44,-143.08 41,-87 26.99,-71.72 25.55,-47.04 26.6,-29.97"/>
<polygon fill="midnightblue" stroke="midnightblue" points="30.12,-29.86 27.59,-19.57 23.16,-29.2 30.12,-29.86"/>
</g>
<!-- Node9 -->
<g id="node9" class="node">
<title>Node9</title>
<g id="a_node9"><a xlink:title=" ">
<polygon fill="none" stroke="#bfbfbf" points="386,-0.5 386,-19.5 426,-19.5 426,-0.5 386,-0.5"/>
<text text-anchor="middle" x="406" y="-7.5" font-family="Helvetica,sans-Serif" font-size="10.00">span</text>
</a>
</g>
</g>
<!-- Node3&#45;&gt;Node9 -->
<g id="edge27" class="edge">
<title>Node3&#45;&gt;Node9</title>
<path fill="none" stroke="midnightblue" d="M532.73,-179.2C556.34,-156.8 612.44,-96.55 581,-56 563.43,-33.34 481.69,-20.09 436.4,-14.37"/>
<polygon fill="midnightblue" stroke="midnightblue" points="436.61,-10.87 426.26,-13.14 435.77,-17.82 436.61,-10.87"/>
</g>
<!-- Node3&#45;&gt;Node10 -->
<g id="edge28" class="edge">
<title>Node3&#45;&gt;Node10</title>
<path fill="none" stroke="midnightblue" d="M539.17,-179.44C553.01,-171.48 572.73,-158.53 586,-143 616.14,-107.73 636.66,-56.32 646.09,-29.25"/>
<polygon fill="midnightblue" stroke="midnightblue" points="649.48,-30.14 649.35,-19.55 642.85,-27.91 649.48,-30.14"/>
</g>
<!-- Node12 -->
<g id="node12" class="node">
<title>Node12</title>
<g id="a_node12"><a xlink:href="TfLiteUtils_8hpp.html" target="_top" xlink:title=" ">
<polygon fill="none" stroke="black" points="362,-123.5 362,-142.5 450,-142.5 450,-123.5 362,-123.5"/>
<text text-anchor="middle" x="406" y="-130.5" font-family="Helvetica,sans-Serif" font-size="10.00">TfLiteUtils.hpp</text>
</a>
</g>
</g>
<!-- Node3&#45;&gt;Node12 -->
<g id="edge11" class="edge">
<title>Node3&#45;&gt;Node12</title>
<path fill="none" stroke="midnightblue" d="M504.46,-179.44C485.38,-170.64 455.43,-156.81 433.56,-146.72"/>
<polygon fill="midnightblue" stroke="midnightblue" points="435,-143.53 424.45,-142.52 432.07,-149.88 435,-143.53"/>
</g>
<!-- Node17 -->
<g id="node17" class="node">
<title>Node17</title>
<g id="a_node17"><a xlink:title=" ">
<polygon fill="none" stroke="#bfbfbf" points="865.5,-62 865.5,-81 938.5,-81 938.5,-62 865.5,-62"/>
<text text-anchor="middle" x="902" y="-69" font-family="Helvetica,sans-Serif" font-size="10.00">string_view</text>
</a>
</g>
</g>
<!-- Node3&#45;&gt;Node17 -->
<g id="edge29" class="edge">
<title>Node3&#45;&gt;Node17</title>
<path fill="none" stroke="midnightblue" d="M551.39,-179.42C631.41,-155.23 853.21,-88.18 857,-87 859.96,-86.08 863.03,-85.11 866.1,-84.13"/>
<polygon fill="midnightblue" stroke="midnightblue" points="867.39,-87.39 875.85,-81.01 865.26,-80.73 867.39,-87.39"/>
</g>
<!-- Node18 -->
<g id="node18" class="node">
<title>Node18</title>
<g id="a_node18"><a xlink:title=" ">
<polygon fill="none" stroke="#bfbfbf" points="236.5,-56.5 236.5,-86.5 339.5,-86.5 339.5,-56.5 236.5,-56.5"/>
<text text-anchor="start" x="244.5" y="-74.5" font-family="Helvetica,sans-Serif" font-size="10.00">tensorflow/lite/c/c</text>
<text text-anchor="middle" x="288" y="-63.5" font-family="Helvetica,sans-Serif" font-size="10.00">_api.h</text>
</a>
</g>
</g>
<!-- Node3&#45;&gt;Node18 -->
<g id="edge24" class="edge">
<title>Node3&#45;&gt;Node18</title>
<path fill="none" stroke="midnightblue" d="M457.02,-179.48C424.02,-173.07 384.51,-161.99 353,-143 332.79,-130.82 315.03,-110.51 303.21,-94.81"/>
<polygon fill="midnightblue" stroke="midnightblue" points="305.98,-92.68 297.27,-86.65 300.32,-96.79 305.98,-92.68"/>
</g>
<!-- Node19 -->
<g id="node19" class="node">
<title>Node19</title>
<g id="a_node19"><a xlink:title=" ">
<polygon fill="none" stroke="#bfbfbf" points="434.5,-56.5 434.5,-86.5 571.5,-86.5 571.5,-56.5 434.5,-56.5"/>
<text text-anchor="start" x="442.5" y="-74.5" font-family="Helvetica,sans-Serif" font-size="10.00">tensorflow/lite/delegates</text>
<text text-anchor="middle" x="503" y="-63.5" font-family="Helvetica,sans-Serif" font-size="10.00">/gpu/delegate.h</text>
</a>
</g>
</g>
<!-- Node3&#45;&gt;Node19 -->
<g id="edge25" class="edge">
<title>Node3&#45;&gt;Node19</title>
<path fill="none" stroke="midnightblue" d="M521.5,-179.32C518.49,-161.97 511.65,-122.46 507.18,-96.66"/>
<polygon fill="midnightblue" stroke="midnightblue" points="510.59,-95.8 505.43,-86.55 503.69,-97 510.59,-95.8"/>
</g>
<!-- Node5 -->
<g id="node5" class="node">
<title>Node5</title>
<g id="a_node5"><a xlink:title=" ">
<polygon fill="none" stroke="#bfbfbf" points="142,-0.5 142,-19.5 184,-19.5 184,-0.5 142,-0.5"/>
<text text-anchor="middle" x="163" y="-7.5" font-family="Helvetica,sans-Serif" font-size="10.00">array</text>
</a>
</g>
</g>
<!-- Node4&#45;&gt;Node5 -->
<g id="edge4" class="edge">
<title>Node4&#45;&gt;Node5</title>
<path fill="none" stroke="midnightblue" d="M151.01,-61.98C153,-53.49 156.13,-40.2 158.69,-29.32"/>
<polygon fill="midnightblue" stroke="midnightblue" points="162.11,-30.04 161,-19.51 155.3,-28.44 162.11,-30.04"/>
</g>
<!-- Node6 -->
<g id="node6" class="node">
<title>Node6</title>
<g id="a_node6"><a xlink:title=" ">
<polygon fill="none" stroke="#bfbfbf" points="202,-0.5 202,-19.5 252,-19.5 252,-0.5 202,-0.5"/>
<text text-anchor="middle" x="227" y="-7.5" font-family="Helvetica,sans-Serif" font-size="10.00">cstdint</text>
</a>
</g>
</g>
<!-- Node4&#45;&gt;Node6 -->
<g id="edge5" class="edge">
<title>Node4&#45;&gt;Node6</title>
<path fill="none" stroke="midnightblue" d="M160.18,-61.98C172.57,-52.52 192.79,-37.1 207.75,-25.69"/>
<polygon fill="midnightblue" stroke="midnightblue" points="210.02,-28.36 215.85,-19.51 205.77,-22.79 210.02,-28.36"/>
</g>
<!-- Node4&#45;&gt;Node7 -->
<g id="edge6" class="edge">
<title>Node4&#45;&gt;Node7</title>
<path fill="none" stroke="midnightblue" d="M131.81,-61.98C111.76,-52.03 78.4,-35.49 55.14,-23.96"/>
<polygon fill="midnightblue" stroke="midnightblue" points="56.68,-20.82 46.16,-19.51 53.57,-27.09 56.68,-20.82"/>
</g>
<!-- Node8 -->
<g id="node8" class="node">
<title>Node8</title>
<g id="a_node8"><a xlink:title=" ">
<polygon fill="none" stroke="#bfbfbf" points="284,-0.5 284,-19.5 340,-19.5 340,-0.5 284,-0.5"/>
<text text-anchor="middle" x="312" y="-7.5" font-family="Helvetica,sans-Serif" font-size="10.00">optional</text>
</a>
</g>
</g>
<!-- Node4&#45;&gt;Node8 -->
<g id="edge7" class="edge">
<title>Node4&#45;&gt;Node8</title>
<path fill="none" stroke="midnightblue" d="M172.35,-61.98C200.31,-51.77 247.33,-34.61 278.99,-23.05"/>
<polygon fill="midnightblue" stroke="midnightblue" points="280.5,-26.23 288.69,-19.51 278.1,-19.65 280.5,-26.23"/>
</g>
<!-- Node4&#45;&gt;Node9 -->
<g id="edge8" class="edge">
<title>Node4&#45;&gt;Node9</title>
<path fill="none" stroke="midnightblue" d="M185.82,-61.98C236.92,-50.15 328.37,-28.97 375.73,-18.01"/>
<polygon fill="midnightblue" stroke="midnightblue" points="376.73,-21.37 385.68,-15.7 375.15,-14.55 376.73,-21.37"/>
</g>
<!-- Node4&#45;&gt;Node10 -->
<g id="edge9" class="edge">
<title>Node4&#45;&gt;Node10</title>
<path fill="none" stroke="midnightblue" d="M191.41,-61.99C202.92,-59.85 215.41,-57.69 227,-56 372.96,-34.74 548.51,-19.36 619.68,-13.55"/>
<polygon fill="midnightblue" stroke="midnightblue" points="620.12,-17.03 629.8,-12.73 619.55,-10.05 620.12,-17.03"/>
</g>
<!-- Node11 -->
<g id="node11" class="node">
<title>Node11</title>
<g id="a_node11"><a xlink:title=" ">
<polygon fill="none" stroke="#bfbfbf" points="76.5,-0.5 76.5,-19.5 123.5,-19.5 123.5,-0.5 76.5,-0.5"/>
<text text-anchor="middle" x="100" y="-7.5" font-family="Helvetica,sans-Serif" font-size="10.00">vector</text>
</a>
</g>
</g>
<!-- Node4&#45;&gt;Node11 -->
<g id="edge10" class="edge">
<title>Node4&#45;&gt;Node11</title>
<path fill="none" stroke="midnightblue" d="M141.98,-61.98C134.56,-52.96 122.67,-38.52 113.43,-27.31"/>
<polygon fill="midnightblue" stroke="midnightblue" points="116.07,-25 107.01,-19.51 110.66,-29.45 116.07,-25"/>
</g>
<!-- Node12&#45;&gt;Node4 -->
<g id="edge12" class="edge">
<title>Node12&#45;&gt;Node4</title>
<path fill="none" stroke="midnightblue" d="M369.18,-123.48C323.47,-112.89 245.47,-94.84 195.63,-83.3"/>
<polygon fill="midnightblue" stroke="midnightblue" points="196.29,-79.85 185.75,-81.01 194.71,-86.67 196.29,-79.85"/>
</g>
<!-- Node12&#45;&gt;Node7 -->
<g id="edge18" class="edge">
<title>Node12&#45;&gt;Node7</title>
<path fill="none" stroke="midnightblue" d="M361.9,-130.98C281.81,-128.35 116.42,-119.07 70,-87 50.39,-73.45 39.32,-47.41 33.75,-29.63"/>
<polygon fill="midnightblue" stroke="midnightblue" points="37.06,-28.47 30.97,-19.81 30.33,-30.38 37.06,-28.47"/>
</g>
<!-- Node12&#45;&gt;Node8 -->
<g id="edge19" class="edge">
<title>Node12&#45;&gt;Node8</title>
<path fill="none" stroke="midnightblue" d="M399.28,-123.06C388.54,-108.8 366.8,-80.06 348,-56 340.59,-46.52 332.2,-36.02 325.39,-27.55"/>
<polygon fill="midnightblue" stroke="midnightblue" points="327.96,-25.17 318.96,-19.58 322.51,-29.56 327.96,-25.17"/>
</g>
<!-- Node12&#45;&gt;Node9 -->
<g id="edge20" class="edge">
<title>Node12&#45;&gt;Node9</title>
<path fill="none" stroke="midnightblue" d="M406,-123.3C406,-103.85 406,-56.49 406,-29.9"/>
<polygon fill="midnightblue" stroke="midnightblue" points="409.5,-29.62 406,-19.62 402.5,-29.62 409.5,-29.62"/>
</g>
<!-- Node13 -->
<g id="node13" class="node">
<title>Node13</title>
<g id="a_node13"><a xlink:href="Errors_8hpp.html" target="_top" xlink:title=" ">
<polygon fill="none" stroke="black" points="704.5,-62 704.5,-81 847.5,-81 847.5,-62 704.5,-62"/>
<text text-anchor="middle" x="776" y="-69" font-family="Helvetica,sans-Serif" font-size="10.00">EyeAICore/utils/Errors.hpp</text>
</a>
</g>
</g>
<!-- Node12&#45;&gt;Node13 -->
<g id="edge13" class="edge">
<title>Node12&#45;&gt;Node13</title>
<path fill="none" stroke="midnightblue" d="M450.26,-124.88C515.57,-114.38 638.07,-94.68 712.82,-82.66"/>
<polygon fill="midnightblue" stroke="midnightblue" points="713.72,-86.06 723.04,-81.02 712.61,-79.15 713.72,-86.06"/>
</g>
<!-- Node12&#45;&gt;Node17 -->
<g id="edge21" class="edge">
<title>Node12&#45;&gt;Node17</title>
<path fill="none" stroke="midnightblue" d="M450.01,-130.7C531.23,-127.63 709.87,-117.68 857,-87 860.87,-86.19 864.87,-85.18 868.82,-84.06"/>
<polygon fill="midnightblue" stroke="midnightblue" points="869.89,-87.4 878.43,-81.13 867.85,-80.7 869.89,-87.4"/>
</g>
<!-- Node12&#45;&gt;Node18 -->
<g id="edge22" class="edge">
<title>Node12&#45;&gt;Node18</title>
<path fill="none" stroke="midnightblue" d="M389.09,-123.48C372.44,-115.08 346.45,-101.97 324.99,-91.15"/>
<polygon fill="midnightblue" stroke="midnightblue" points="326.32,-87.9 315.81,-86.52 323.16,-94.15 326.32,-87.9"/>
</g>
<!-- Node12&#45;&gt;Node19 -->
<g id="edge23" class="edge">
<title>Node12&#45;&gt;Node19</title>
<path fill="none" stroke="midnightblue" d="M419.9,-123.48C433.28,-115.27 454,-102.56 471.4,-91.88"/>
<polygon fill="midnightblue" stroke="midnightblue" points="473.44,-94.74 480.14,-86.52 469.78,-88.77 473.44,-94.74"/>
</g>
<!-- Node13&#45;&gt;Node10 -->
<g id="edge15" class="edge">
<title>Node13&#45;&gt;Node10</title>
<path fill="none" stroke="midnightblue" d="M758.23,-61.98C737.52,-52.03 703.05,-35.49 679.01,-23.96"/>
<polygon fill="midnightblue" stroke="midnightblue" points="680.26,-20.68 669.73,-19.51 677.23,-26.99 680.26,-20.68"/>
</g>
<!-- Node14 -->
<g id="node14" class="node">
<title>Node14</title>
<g id="a_node14"><a xlink:title=" ">
<polygon fill="none" stroke="#bfbfbf" points="707,-0.5 707,-19.5 757,-19.5 757,-0.5 707,-0.5"/>
<text text-anchor="middle" x="732" y="-7.5" font-family="Helvetica,sans-Serif" font-size="10.00">format</text>
</a>
</g>
</g>
<!-- Node13&#45;&gt;Node14 -->
<g id="edge14" class="edge">
<title>Node13&#45;&gt;Node14</title>
<path fill="none" stroke="midnightblue" d="M769.7,-61.98C763.1,-53.05 752.56,-38.81 744.31,-27.64"/>
<polygon fill="midnightblue" stroke="midnightblue" points="747.05,-25.47 738.29,-19.51 741.42,-29.63 747.05,-25.47"/>
</g>
<!-- Node13&#45;&gt;Node15 -->
<g id="edge16" class="edge">
<title>Node13&#45;&gt;Node15</title>
<path fill="none" stroke="midnightblue" d="M799.64,-61.98C827.94,-51.77 875.53,-34.61 907.59,-23.05"/>
<polygon fill="midnightblue" stroke="midnightblue" points="909.18,-26.19 917.4,-19.51 906.81,-19.61 909.18,-26.19"/>
</g>
<!-- Node16 -->
<g id="node16" class="node">
<title>Node16</title>
<g id="a_node16"><a xlink:title=" ">
<polygon fill="none" stroke="#bfbfbf" points="775.5,-0.5 775.5,-19.5 826.5,-19.5 826.5,-0.5 775.5,-0.5"/>
<text text-anchor="middle" x="801" y="-7.5" font-family="Helvetica,sans-Serif" font-size="10.00">variant</text>
</a>
</g>
</g>
<!-- Node13&#45;&gt;Node16 -->
<g id="edge17" class="edge">
<title>Node13&#45;&gt;Node16</title>
<path fill="none" stroke="midnightblue" d="M779.58,-61.98C783.18,-53.4 788.85,-39.93 793.44,-28.98"/>
<polygon fill="midnightblue" stroke="midnightblue" points="796.78,-30.08 797.42,-19.51 790.32,-27.37 796.78,-30.08"/>
</g>
<!-- Node20&#45;&gt;Node17 -->
<g id="edge35" class="edge">
<title>Node20&#45;&gt;Node17</title>
<path fill="none" stroke="midnightblue" d="M777.58,-235.19C764.14,-222.72 743.66,-199.17 754,-179 778.08,-132 833.62,-101.03 869.4,-85.16"/>
<polygon fill="midnightblue" stroke="midnightblue" points="871.11,-88.24 878.92,-81.08 868.35,-81.8 871.11,-88.24"/>
</g>
<!-- Node21 -->
<g id="node21" class="node">
<title>Node21</title>
<g id="a_node21"><a xlink:title=" ">
<polygon fill="none" stroke="#bfbfbf" points="763,-179.5 763,-198.5 813,-198.5 813,-179.5 763,-179.5"/>
<text text-anchor="middle" x="788" y="-186.5" font-family="Helvetica,sans-Serif" font-size="10.00">chrono</text>
</a>
</g>
</g>
<!-- Node20&#45;&gt;Node21 -->
<g id="edge33" class="edge">
<title>Node20&#45;&gt;Node21</title>
<path fill="none" stroke="midnightblue" d="M788,-235.08C788,-228.01 788,-217.86 788,-208.99"/>
<polygon fill="midnightblue" stroke="midnightblue" points="791.5,-208.75 788,-198.75 784.5,-208.75 791.5,-208.75"/>
</g>
<!-- Node22 -->
<g id="node22" class="node">
<title>Node22</title>
<g id="a_node22"><a xlink:title=" ">
<polygon fill="none" stroke="#bfbfbf" points="831.5,-179.5 831.5,-198.5 938.5,-198.5 938.5,-179.5 831.5,-179.5"/>
<text text-anchor="middle" x="885" y="-186.5" font-family="Helvetica,sans-Serif" font-size="10.00">concurrentqueue.h</text>
</a>
</g>
</g>
<!-- Node20&#45;&gt;Node22 -->
<g id="edge34" class="edge">
<title>Node20&#45;&gt;Node22</title>
<path fill="none" stroke="midnightblue" d="M803.58,-235.32C819,-226.74 842.81,-213.49 860.71,-203.52"/>
<polygon fill="midnightblue" stroke="midnightblue" points="862.42,-206.58 869.45,-198.65 859.01,-200.46 862.42,-206.58"/>
</g>
</g>
</svg>
