<?xml version="1.0" encoding="UTF-8" standalone="no"?>
<!DOCTYPE svg PUBLIC "-//W3C//DTD SVG 1.1//EN"
 "http://www.w3.org/Graphics/SVG/1.1/DTD/svg11.dtd">
<!-- Generated by graphviz version 12.2.1 (20241206.2353)
 -->
<!-- Title: src/YoloModel.cpp Pages: 1 -->
<!--zoomable 382 -->

<svg id="main" version="1.1" xmlns="http://www.w3.org/2000/svg" xmlns:xlink="http://www.w3.org/1999/xlink" xml:space="preserve" onload="init(evt)">

<style type="text/css"><![CDATA[
.node, .edge {opacity: 0.7;}
.node.selected, .edge.selected {opacity: 1;}
.edge:hover path { stroke: red; }
.edge:hover polygon { stroke: red; fill: red; }
]]></style>

<defs>
  <circle id="rim" cx="0" cy="0" r="7"/>
  <circle id="rim2" cx="0" cy="0" r="3.5"/>
  <g id="zoomPlus">
    <use xlink:href="#rim" fill="#404040"><set attributeName="fill" to="#808080" begin="zoomplus.mouseover" end="zoomplus.mouseout"/></use>
    <path d="M-4,0h8M0,-4v8" fill="none" stroke="white" stroke-width="1.5" pointer-events="none"/>
  </g>
  <g id="zoomMin">
    <use xlink:href="#rim" fill="#404040"><set attributeName="fill" to="#808080" begin="zoomminus.mouseover" end="zoomminus.mouseout"/></use>
    <path d="M-4,0h8" fill="none" stroke="white" stroke-width="1.5" pointer-events="none"/>
  </g>
  <g id="arrowUp" transform="translate(30 24)">
    <use xlink:href="#rim"/>
    <path pointer-events="none" fill="none" stroke="white" stroke-width="1.5" d="M0,-3.0v7 M-2.5,-0.5L0,-3.0L2.5,-0.5"/>
  </g>
  <g id="arrowRight" transform="rotate(90) translate(36 -43)">
    <use xlink:href="#rim"/>
    <path pointer-events="none" fill="none" stroke="white" stroke-width="1.5" d="M0,-3.0v7 M-2.5,-0.5L0,-3.0L2.5,-0.5"/>
  </g>
  <g id="arrowDown" transform="rotate(180) translate(-30 -48)">
    <use xlink:href="#rim"/>
    <path pointer-events="none" fill="none" stroke="white" stroke-width="1.5" d="M0,-3.0v7 M-2.5,-0.5L0,-3.0L2.5,-0.5"/>
  </g>
  <g id="arrowLeft" transform="rotate(270) translate(-36 17)">
    <use xlink:href="#rim"/>
    <path pointer-events="none" fill="none" stroke="white" stroke-width="1.5" d="M0,-3.0v7 M-2.5,-0.5L0,-3.0L2.5,-0.5"/>
  </g>
  <g id="resetDef">
    <use xlink:href="#rim2" fill="#404040"><set attributeName="fill" to="#808080" begin="reset.mouseover" end="reset.mouseout"/></use>
  </g>
</defs>
<script type="application/ecmascript">
var viewWidth = 1449;
var viewHeight = 382;
var sectionId = 'dynsection-0';
</script>
<script type="application/ecmascript" xlink:href="svg.min.js"/>
<svg id="graph" class="graph">
<g id="viewport">
<title>src/YoloModel.cpp</title>
<!-- Node1 -->
<g id="Node000001" class="node">
<title>Node1</title>
<g id="a_Node000001"><a xlink:title=" ">
<polygon fill="#999999" stroke="#666666" points="1096.66,-374 993.66,-374 993.66,-353.25 1096.66,-353.25 1096.66,-374"/>
<text text-anchor="middle" x="1045.16" y="-360.5" font-family="Helvetica,sans-Serif" font-size="10.00">src/YoloModel.cpp</text>
</a>
</g>
</g>
<!-- Node2 -->
<g id="Node000002" class="node">
<title>Node2</title>
<g id="a_Node000002"><a xlink:href="YoloModel_8hpp.html" target="_top" xlink:title=" ">
<polygon fill="white" stroke="#666666" points="626.03,-260.5 486.28,-260.5 486.28,-239.75 626.03,-239.75 626.03,-260.5"/>
<text text-anchor="middle" x="556.16" y="-247" font-family="Helvetica,sans-Serif" font-size="10.00">EyeAICore/YoloModel.hpp</text>
</a>
</g>
</g>
<!-- Node1&#45;&gt;Node2 -->
<g id="edge1_Node000001_Node000002" class="edge">
<title>Node1&#45;&gt;Node2</title>
<g id="a_edge1_Node000001_Node000002"><a xlink:title=" ">
<path fill="none" stroke="#63b8ff" d="M1002.19,-352.83C913.08,-332.51 708.31,-285.82 610.32,-263.48"/>
<polygon fill="#63b8ff" stroke="#63b8ff" points="611.21,-260.09 600.68,-261.28 609.65,-266.91 611.21,-260.09"/>
</a>
</g>
</g>
<!-- Node9 -->
<g id="Node000009" class="node">
<title>Node9</title>
<g id="a_Node000009"><a xlink:href="TfLiteRuntime_8hpp.html" target="_top" xlink:title=" ">
<polygon fill="white" stroke="#666666" points="648.53,-203.75 463.78,-203.75 463.78,-183 648.53,-183 648.53,-203.75"/>
<text text-anchor="middle" x="556.16" y="-190.25" font-family="Helvetica,sans-Serif" font-size="10.00">EyeAICore/tflite/TfLiteRuntime.hpp</text>
</a>
</g>
</g>
<!-- Node1&#45;&gt;Node9 -->
<g id="edge35_Node000001_Node000009" class="edge">
<title>Node1&#45;&gt;Node9</title>
<g id="a_edge35_Node000001_Node000009"><a xlink:title=" ">
<path fill="none" stroke="#63b8ff" d="M1016.75,-352.85C933.62,-324.25 690.66,-240.65 595.26,-207.83"/>
<polygon fill="#63b8ff" stroke="#63b8ff" points="596.67,-204.61 586.07,-204.67 594.39,-211.23 596.67,-204.61"/>
</a>
</g>
</g>
<!-- Node13 -->
<g id="Node000013" class="node">
<title>Node13</title>
<g id="a_Node000013"><a xlink:title=" ">
<polygon fill="#e0e0e0" stroke="#999999" points="991.03,-20.75 947.28,-20.75 947.28,0 991.03,0 991.03,-20.75"/>
<text text-anchor="middle" x="969.16" y="-7.25" font-family="Helvetica,sans-Serif" font-size="10.00">string</text>
</a>
</g>
</g>
<!-- Node1&#45;&gt;Node13 -->
<g id="edge43_Node000001_Node000013" class="edge">
<title>Node1&#45;&gt;Node13</title>
<g id="a_edge43_Node000001_Node000013"><a xlink:title=" ">
<path fill="none" stroke="#63b8ff" d="M1046.9,-352.93C1053.5,-313.46 1074.03,-161.93 1021.16,-56.75 1015.33,-45.15 1005.11,-35.24 995.27,-27.67"/>
<polygon fill="#63b8ff" stroke="#63b8ff" points="997.52,-24.97 987.34,-22.02 993.46,-30.67 997.52,-24.97"/>
</a>
</g>
</g>
<!-- Node14 -->
<g id="Node000014" class="node">
<title>Node14</title>
<g id="a_Node000014"><a xlink:title=" ">
<polygon fill="#e0e0e0" stroke="#999999" points="783.03,-20.75 691.28,-20.75 691.28,0 783.03,0 783.03,-20.75"/>
<text text-anchor="middle" x="737.16" y="-7.25" font-family="Helvetica,sans-Serif" font-size="10.00">tl/expected.hpp</text>
</a>
</g>
</g>
<!-- Node1&#45;&gt;Node14 -->
<g id="edge40_Node000001_Node000014" class="edge">
<title>Node1&#45;&gt;Node14</title>
<g id="a_edge40_Node000001_Node000014"><a xlink:title=" ">
<path fill="none" stroke="#63b8ff" d="M1039.39,-352.86C1028.76,-333.93 1007.16,-290.6 1007.16,-251.12 1007.16,-251.12 1007.16,-251.12 1007.16,-135.62 1007.16,-42.8 873.82,-19.08 794.55,-13.18"/>
<polygon fill="#63b8ff" stroke="#63b8ff" points="794.99,-9.7 784.78,-12.53 794.52,-16.68 794.99,-9.7"/>
</a>
</g>
</g>
<!-- Node19 -->
<g id="Node000019" class="node">
<title>Node19</title>
<g id="a_Node000019"><a xlink:href="Operators_8hpp.html" target="_top" xlink:title=" ">
<polygon fill="white" stroke="#666666" points="171.28,-317.25 33.03,-317.25 33.03,-296.5 171.28,-296.5 171.28,-317.25"/>
<text text-anchor="middle" x="102.16" y="-303.75" font-family="Helvetica,sans-Serif" font-size="10.00">EyeAICore/Operators.hpp</text>
</a>
</g>
</g>
<!-- Node1&#45;&gt;Node19 -->
<g id="edge29_Node000001_Node000019" class="edge">
<title>Node1&#45;&gt;Node19</title>
<g id="a_edge29_Node000001_Node000019"><a xlink:title=" ">
<path fill="none" stroke="#63b8ff" d="M993.45,-359.62C837.63,-350.58 371.74,-323.53 182.94,-312.57"/>
<polygon fill="#63b8ff" stroke="#63b8ff" points="183.42,-309.09 173.24,-312 183.02,-316.08 183.42,-309.09"/>
</a>
</g>
</g>
<!-- Node21 -->
<g id="Node000021" class="node">
<title>Node21</title>
<g id="a_Node000021"><a xlink:href="Profiling_8hpp.html" target="_top" xlink:title=" ">
<polygon fill="white" stroke="#666666" points="1227.16,-317.25 1073.16,-317.25 1073.16,-296.5 1227.16,-296.5 1227.16,-317.25"/>
<text text-anchor="middle" x="1150.16" y="-303.75" font-family="Helvetica,sans-Serif" font-size="10.00">EyeAICore/utils/Profiling.hpp</text>
</a>
</g>
</g>
<!-- Node1&#45;&gt;Node21 -->
<g id="edge36_Node000001_Node000021" class="edge">
<title>Node1&#45;&gt;Node21</title>
<g id="a_edge36_Node000001_Node000021"><a xlink:title=" ">
<path fill="none" stroke="#63b8ff" d="M1063.93,-352.84C1079.91,-344.51 1103.11,-332.41 1121.42,-322.86"/>
<polygon fill="#63b8ff" stroke="#63b8ff" points="1122.96,-326.01 1130.21,-318.28 1119.72,-319.8 1122.96,-326.01"/>
</a>
</g>
</g>
<!-- Node24 -->
<g id="Node000024" class="node">
<title>Node24</title>
<g id="a_Node000024"><a xlink:title=" ">
<polygon fill="#e0e0e0" stroke="#999999" points="1308.78,-317.25 1245.53,-317.25 1245.53,-296.5 1308.78,-296.5 1308.78,-317.25"/>
<text text-anchor="middle" x="1277.16" y="-303.75" font-family="Helvetica,sans-Serif" font-size="10.00">algorithm</text>
</a>
</g>
</g>
<!-- Node1&#45;&gt;Node24 -->
<g id="edge41_Node000001_Node000024" class="edge">
<title>Node1&#45;&gt;Node24</title>
<g id="a_edge41_Node000001_Node000024"><a xlink:title=" ">
<path fill="none" stroke="#63b8ff" d="M1086.9,-352.77C1128.49,-342.96 1192.04,-327.96 1234.09,-318.04"/>
<polygon fill="#63b8ff" stroke="#63b8ff" points="1234.67,-321.5 1243.6,-315.79 1233.07,-314.68 1234.67,-321.5"/>
</a>
</g>
</g>
<!-- Node25 -->
<g id="Node000025" class="node">
<title>Node25</title>
<g id="a_Node000025"><a xlink:title=" ">
<polygon fill="#e0e0e0" stroke="#999999" points="1379.16,-317.25 1327.16,-317.25 1327.16,-296.5 1379.16,-296.5 1379.16,-317.25"/>
<text text-anchor="middle" x="1353.16" y="-303.75" font-family="Helvetica,sans-Serif" font-size="10.00">cstddef</text>
</a>
</g>
</g>
<!-- Node1&#45;&gt;Node25 -->
<g id="edge42_Node000001_Node000025" class="edge">
<title>Node1&#45;&gt;Node25</title>
<g id="a_edge42_Node000001_Node000025"><a xlink:title=" ">
<path fill="none" stroke="#63b8ff" d="M1097.02,-355.54C1149.72,-347.99 1233.93,-335 1315.61,-317.64"/>
<polygon fill="#63b8ff" stroke="#63b8ff" points="1316.33,-321.06 1325.37,-315.53 1314.86,-314.22 1316.33,-321.06"/>
</a>
</g>
</g>
<!-- Node26 -->
<g id="Node000026" class="node">
<title>Node26</title>
<g id="a_Node000026"><a xlink:title=" ">
<polygon fill="#e0e0e0" stroke="#999999" points="1441.41,-317.25 1396.91,-317.25 1396.91,-296.5 1441.41,-296.5 1441.41,-317.25"/>
<text text-anchor="middle" x="1419.16" y="-303.75" font-family="Helvetica,sans-Serif" font-size="10.00">utility</text>
</a>
</g>
</g>
<!-- Node1&#45;&gt;Node26 -->
<g id="edge44_Node000001_Node000026" class="edge">
<title>Node1&#45;&gt;Node26</title>
<g id="a_edge44_Node000001_Node000026"><a xlink:title=" ">
<path fill="none" stroke="#63b8ff" d="M1097.03,-358.4C1162.36,-352.51 1278.13,-340.13 1385.55,-317.53"/>
<polygon fill="#63b8ff" stroke="#63b8ff" points="1386.06,-321 1395.1,-315.48 1384.59,-314.15 1386.06,-321"/>
</a>
</g>
</g>
<!-- Node3 -->
<g id="Node000003" class="node">
<title>Node3</title>
<g id="a_Node000003"><a xlink:href="TensorBuffer_8hpp.html" target="_top" xlink:title=" ">
<polygon fill="white" stroke="#666666" points="188.28,-83.88 38.03,-83.88 38.03,-63.12 188.28,-63.12 188.28,-83.88"/>
<text text-anchor="middle" x="113.16" y="-70.38" font-family="Helvetica,sans-Serif" font-size="10.00">EyeAICore/TensorBuffer.hpp</text>
</a>
</g>
</g>
<!-- Node2&#45;&gt;Node3 -->
<g id="edge2_Node000002_Node000003" class="edge">
<title>Node2&#45;&gt;Node3</title>
<g id="a_edge2_Node000002_Node000003"><a xlink:title=" ">
<path fill="none" stroke="#63b8ff" d="M485.89,-244.86C402.99,-236.83 264.07,-213.67 166.16,-147 146.68,-133.74 131.73,-110.87 122.75,-94.36"/>
<polygon fill="#63b8ff" stroke="#63b8ff" points="125.87,-92.78 118.19,-85.48 119.65,-95.98 125.87,-92.78"/>
</a>
</g>
</g>
<!-- Node2&#45;&gt;Node9 -->
<g id="edge8_Node000002_Node000009" class="edge">
<title>Node2&#45;&gt;Node9</title>
<g id="a_edge8_Node000002_Node000009"><a xlink:title=" ">
<path fill="none" stroke="#63b8ff" d="M556.16,-239.34C556.16,-232.72 556.16,-223.72 556.16,-215.52"/>
<polygon fill="#63b8ff" stroke="#63b8ff" points="559.66,-215.59 556.16,-205.59 552.66,-215.59 559.66,-215.59"/>
</a>
</g>
</g>
<!-- Node4 -->
<g id="Node000004" class="node">
<title>Node4</title>
<g id="a_Node000004"><a xlink:title=" ">
<polygon fill="#e0e0e0" stroke="#999999" points="145.66,-20.75 96.66,-20.75 96.66,0 145.66,0 145.66,-20.75"/>
<text text-anchor="middle" x="121.16" y="-7.25" font-family="Helvetica,sans-Serif" font-size="10.00">cstdint</text>
</a>
</g>
</g>
<!-- Node3&#45;&gt;Node4 -->
<g id="edge3_Node000003_Node000004" class="edge">
<title>Node3&#45;&gt;Node4</title>
<g id="a_edge3_Node000003_Node000004"><a xlink:title=" ">
<path fill="none" stroke="#63b8ff" d="M114.44,-62.68C115.51,-54.52 117.07,-42.63 118.41,-32.35"/>
<polygon fill="#63b8ff" stroke="#63b8ff" points="121.88,-32.84 119.71,-22.47 114.94,-31.93 121.88,-32.84"/>
</a>
</g>
</g>
<!-- Node5 -->
<g id="Node000005" class="node">
<title>Node5</title>
<g id="a_Node000005"><a xlink:title=" ">
<polygon fill="#e0e0e0" stroke="#999999" points="228.78,-20.75 171.53,-20.75 171.53,0 228.78,0 228.78,-20.75"/>
<text text-anchor="middle" x="200.16" y="-7.25" font-family="Helvetica,sans-Serif" font-size="10.00">memory</text>
</a>
</g>
</g>
<!-- Node3&#45;&gt;Node5 -->
<g id="edge4_Node000003_Node000005" class="edge">
<title>Node3&#45;&gt;Node5</title>
<g id="a_edge4_Node000003_Node000005"><a xlink:title=" ">
<path fill="none" stroke="#63b8ff" d="M127.14,-62.68C140.58,-53.23 161.15,-38.78 177.03,-27.62"/>
<polygon fill="#63b8ff" stroke="#63b8ff" points="178.81,-30.65 184.98,-22.04 174.78,-24.93 178.81,-30.65"/>
</a>
</g>
</g>
<!-- Node6 -->
<g id="Node000006" class="node">
<title>Node6</title>
<g id="a_Node000006"><a xlink:title=" ">
<polygon fill="#e0e0e0" stroke="#999999" points="311.78,-20.75 272.53,-20.75 272.53,0 311.78,0 311.78,-20.75"/>
<text text-anchor="middle" x="292.16" y="-7.25" font-family="Helvetica,sans-Serif" font-size="10.00">span</text>
</a>
</g>
</g>
<!-- Node3&#45;&gt;Node6 -->
<g id="edge5_Node000003_Node000006" class="edge">
<title>Node3&#45;&gt;Node6</title>
<g id="a_edge5_Node000003_Node000006"><a xlink:title=" ">
<path fill="none" stroke="#63b8ff" d="M141.92,-62.68C174.68,-51.49 228.01,-33.28 261.53,-21.83"/>
<polygon fill="#63b8ff" stroke="#63b8ff" points="262.31,-25.26 270.65,-18.72 260.05,-18.64 262.31,-25.26"/>
</a>
</g>
</g>
<!-- Node7 -->
<g id="Node000007" class="node">
<title>Node7</title>
<g id="a_Node000007"><a xlink:title=" ">
<polygon fill="#e0e0e0" stroke="#999999" points="420.41,-20.75 369.91,-20.75 369.91,0 420.41,0 420.41,-20.75"/>
<text text-anchor="middle" x="395.16" y="-7.25" font-family="Helvetica,sans-Serif" font-size="10.00">variant</text>
</a>
</g>
</g>
<!-- Node3&#45;&gt;Node7 -->
<g id="edge6_Node000003_Node000007" class="edge">
<title>Node3&#45;&gt;Node7</title>
<g id="a_edge6_Node000003_Node000007"><a xlink:title=" ">
<path fill="none" stroke="#63b8ff" d="M158.47,-62.68C214.08,-50.63 307.29,-30.42 358.57,-19.3"/>
<polygon fill="#63b8ff" stroke="#63b8ff" points="359.25,-22.74 368.28,-17.2 357.76,-15.9 359.25,-22.74"/>
</a>
</g>
</g>
<!-- Node8 -->
<g id="Node000008" class="node">
<title>Node8</title>
<g id="a_Node000008"><a xlink:title=" ">
<polygon fill="#e0e0e0" stroke="#999999" points="78.53,-20.75 31.78,-20.75 31.78,0 78.53,0 78.53,-20.75"/>
<text text-anchor="middle" x="55.16" y="-7.25" font-family="Helvetica,sans-Serif" font-size="10.00">vector</text>
</a>
</g>
</g>
<!-- Node3&#45;&gt;Node8 -->
<g id="edge7_Node000003_Node000008" class="edge">
<title>Node3&#45;&gt;Node8</title>
<g id="a_edge7_Node000003_Node000008"><a xlink:title=" ">
<path fill="none" stroke="#63b8ff" d="M103.84,-62.68C95.25,-53.63 82.29,-39.97 71.91,-29.03"/>
<polygon fill="#63b8ff" stroke="#63b8ff" points="74.73,-26.91 65.3,-22.07 69.65,-31.73 74.73,-26.91"/>
</a>
</g>
</g>
<!-- Node9&#45;&gt;Node3 -->
<g id="edge9_Node000009_Node000003" class="edge">
<title>Node9&#45;&gt;Node3</title>
<g id="a_edge9_Node000009_Node000003"><a xlink:title=" ">
<path fill="none" stroke="#63b8ff" d="M463.37,-186.27C374.6,-179.39 247.71,-166.56 202.16,-147 173,-134.48 145.68,-109.48 129.19,-92.38"/>
<polygon fill="#63b8ff" stroke="#63b8ff" points="132.02,-90.28 122.64,-85.36 126.91,-95.06 132.02,-90.28"/>
</a>
</g>
</g>
<!-- Node9&#45;&gt;Node5 -->
<g id="edge25_Node000009_Node000005" class="edge">
<title>Node9&#45;&gt;Node5</title>
<g id="a_edge25_Node000009_Node000005"><a xlink:title=" ">
<path fill="none" stroke="#63b8ff" d="M467.33,-182.53C400.82,-170.84 311.59,-145.4 253.16,-90.25 234.85,-72.97 219.54,-48.27 210.16,-31.13"/>
<polygon fill="#63b8ff" stroke="#63b8ff" points="213.34,-29.67 205.58,-22.46 207.15,-32.93 213.34,-29.67"/>
</a>
</g>
</g>
<!-- Node9&#45;&gt;Node6 -->
<g id="edge26_Node000009_Node000006" class="edge">
<title>Node9&#45;&gt;Node6</title>
<g id="a_edge26_Node000009_Node000006"><a xlink:title=" ">
<path fill="none" stroke="#63b8ff" d="M493.21,-182.55C437.29,-170.49 357.43,-144.51 311.16,-90.25 297.47,-74.2 293.3,-49.94 292.19,-32.56"/>
<polygon fill="#63b8ff" stroke="#63b8ff" points="295.69,-32.51 291.88,-22.62 288.69,-32.73 295.69,-32.51"/>
</a>
</g>
</g>
<!-- Node10 -->
<g id="Node000010" class="node">
<title>Node10</title>
<g id="a_Node000010"><a xlink:href="TfLiteUtils_8hpp.html" target="_top" xlink:title=" ">
<polygon fill="white" stroke="#666666" points="546.78,-147 459.53,-147 459.53,-126.25 546.78,-126.25 546.78,-147"/>
<text text-anchor="middle" x="503.16" y="-133.5" font-family="Helvetica,sans-Serif" font-size="10.00">TfLiteUtils.hpp</text>
</a>
</g>
</g>
<!-- Node9&#45;&gt;Node10 -->
<g id="edge10_Node000009_Node000010" class="edge">
<title>Node9&#45;&gt;Node10</title>
<g id="a_edge10_Node000009_Node000010"><a xlink:title=" ">
<path fill="none" stroke="#63b8ff" d="M546.68,-182.59C539.37,-175.03 529.06,-164.39 520.31,-155.35"/>
<polygon fill="#63b8ff" stroke="#63b8ff" points="523.07,-153.17 513.6,-148.42 518.04,-158.04 523.07,-153.17"/>
</a>
</g>
</g>
<!-- Node9&#45;&gt;Node13 -->
<g id="edge27_Node000009_Node000013" class="edge">
<title>Node9&#45;&gt;Node13</title>
<g id="a_edge27_Node000009_Node000013"><a xlink:title=" ">
<path fill="none" stroke="#63b8ff" d="M629.23,-182.55C730.45,-167.48 905.89,-135.54 950.16,-90.25 965.05,-75.01 968.98,-50.24 969.7,-32.52"/>
<polygon fill="#63b8ff" stroke="#63b8ff" points="973.2,-32.64 969.76,-22.62 966.2,-32.6 973.2,-32.64"/>
</a>
</g>
</g>
<!-- Node16 -->
<g id="Node000016" class="node">
<title>Node16</title>
<g id="a_Node000016"><a xlink:title=" ">
<polygon fill="#e0e0e0" stroke="#999999" points="941.28,-83.88 869.03,-83.88 869.03,-63.12 941.28,-63.12 941.28,-83.88"/>
<text text-anchor="middle" x="905.16" y="-70.38" font-family="Helvetica,sans-Serif" font-size="10.00">string_view</text>
</a>
</g>
</g>
<!-- Node9&#45;&gt;Node16 -->
<g id="edge28_Node000009_Node000016" class="edge">
<title>Node9&#45;&gt;Node16</title>
<g id="a_edge28_Node000009_Node000016"><a xlink:title=" ">
<path fill="none" stroke="#63b8ff" d="M585.42,-182.56C639.51,-164.42 758.77,-124.36 859.16,-90.25 861.26,-89.54 863.41,-88.81 865.58,-88.06"/>
<polygon fill="#63b8ff" stroke="#63b8ff" points="866.69,-91.38 875.02,-84.84 864.43,-84.76 866.69,-91.38"/>
</a>
</g>
</g>
<!-- Node17 -->
<g id="Node000017" class="node">
<title>Node17</title>
<g id="a_Node000017"><a xlink:title=" ">
<polygon fill="#e0e0e0" stroke="#999999" points="695.28,-90.25 593.03,-90.25 593.03,-56.75 695.28,-56.75 695.28,-90.25"/>
<text text-anchor="start" x="601.03" y="-76.75" font-family="Helvetica,sans-Serif" font-size="10.00">tensorflow/lite/c/c</text>
<text text-anchor="middle" x="644.16" y="-64" font-family="Helvetica,sans-Serif" font-size="10.00">_api.h</text>
</a>
</g>
</g>
<!-- Node9&#45;&gt;Node17 -->
<g id="edge23_Node000009_Node000017" class="edge">
<title>Node9&#45;&gt;Node17</title>
<g id="a_edge23_Node000009_Node000017"><a xlink:title=" ">
<path fill="none" stroke="#63b8ff" d="M563.36,-182.73C576.81,-164.71 606.15,-125.41 625.52,-99.46"/>
<polygon fill="#63b8ff" stroke="#63b8ff" points="628.08,-101.89 631.26,-91.78 622.47,-97.7 628.08,-101.89"/>
</a>
</g>
</g>
<!-- Node18 -->
<g id="Node000018" class="node">
<title>Node18</title>
<g id="a_Node000018"><a xlink:title=" ">
<polygon fill="#e0e0e0" stroke="#999999" points="850.53,-90.25 713.78,-90.25 713.78,-56.75 850.53,-56.75 850.53,-90.25"/>
<text text-anchor="start" x="721.78" y="-76.75" font-family="Helvetica,sans-Serif" font-size="10.00">tensorflow/lite/delegates</text>
<text text-anchor="middle" x="782.16" y="-64" font-family="Helvetica,sans-Serif" font-size="10.00">/gpu/delegate.h</text>
</a>
</g>
</g>
<!-- Node9&#45;&gt;Node18 -->
<g id="edge24_Node000009_Node000018" class="edge">
<title>Node9&#45;&gt;Node18</title>
<g id="a_edge24_Node000009_Node000018"><a xlink:title=" ">
<path fill="none" stroke="#63b8ff" d="M575.04,-182.53C611.39,-163.57 691.84,-121.61 741.09,-95.92"/>
<polygon fill="#63b8ff" stroke="#63b8ff" points="742.51,-99.13 749.76,-91.4 739.27,-92.92 742.51,-99.13"/>
</a>
</g>
</g>
<!-- Node10&#45;&gt;Node3 -->
<g id="edge11_Node000010_Node000003" class="edge">
<title>Node10&#45;&gt;Node3</title>
<g id="a_edge11_Node000010_Node000003"><a xlink:title=" ">
<path fill="none" stroke="#63b8ff" d="M459.18,-128.73C393.06,-118.37 267.27,-98.65 186.94,-86.06"/>
<polygon fill="#63b8ff" stroke="#63b8ff" points="187.84,-82.66 177.42,-84.57 186.76,-89.58 187.84,-82.66"/>
</a>
</g>
</g>
<!-- Node10&#45;&gt;Node5 -->
<g id="edge17_Node000010_Node000005" class="edge">
<title>Node10&#45;&gt;Node5</title>
<g id="a_edge17_Node000010_Node000005"><a xlink:title=" ">
<path fill="none" stroke="#63b8ff" d="M459.28,-130.17C419.32,-124.08 359.37,-112.07 311.16,-90.25 276.04,-74.36 240.64,-46.72 219.55,-28.74"/>
<polygon fill="#63b8ff" stroke="#63b8ff" points="221.91,-26.15 212.06,-22.23 217.31,-31.43 221.91,-26.15"/>
</a>
</g>
</g>
<!-- Node10&#45;&gt;Node6 -->
<g id="edge19_Node000010_Node000006" class="edge">
<title>Node10&#45;&gt;Node6</title>
<g id="a_edge19_Node000010_Node000006"><a xlink:title=" ">
<path fill="none" stroke="#63b8ff" d="M483.4,-125.88C466.78,-117.34 442.66,-104.15 423.16,-90.25 404.82,-77.18 403.89,-69.24 385.16,-56.75 365.42,-43.58 341.29,-31.92 322.56,-23.72"/>
<polygon fill="#63b8ff" stroke="#63b8ff" points="324.19,-20.61 313.62,-19.9 321.44,-27.05 324.19,-20.61"/>
</a>
</g>
</g>
<!-- Node11 -->
<g id="Node000011" class="node">
<title>Node11</title>
<g id="a_Node000011"><a xlink:href="Errors_8hpp.html" target="_top" xlink:title=" ">
<polygon fill="white" stroke="#666666" points="574.53,-83.88 431.78,-83.88 431.78,-63.12 574.53,-63.12 574.53,-83.88"/>
<text text-anchor="middle" x="503.16" y="-70.38" font-family="Helvetica,sans-Serif" font-size="10.00">EyeAICore/utils/Errors.hpp</text>
</a>
</g>
</g>
<!-- Node10&#45;&gt;Node11 -->
<g id="edge12_Node000010_Node000011" class="edge">
<title>Node10&#45;&gt;Node11</title>
<g id="a_edge12_Node000010_Node000011"><a xlink:title=" ">
<path fill="none" stroke="#63b8ff" d="M503.16,-125.8C503.16,-117.65 503.16,-105.76 503.16,-95.48"/>
<polygon fill="#63b8ff" stroke="#63b8ff" points="506.66,-95.61 503.16,-85.61 499.66,-95.61 506.66,-95.61"/>
</a>
</g>
</g>
<!-- Node15 -->
<g id="Node000015" class="node">
<title>Node15</title>
<g id="a_Node000015"><a xlink:title=" ">
<polygon fill="#e0e0e0" stroke="#999999" points="376.03,-83.88 320.28,-83.88 320.28,-63.12 376.03,-63.12 376.03,-83.88"/>
<text text-anchor="middle" x="348.16" y="-70.38" font-family="Helvetica,sans-Serif" font-size="10.00">optional</text>
</a>
</g>
</g>
<!-- Node10&#45;&gt;Node15 -->
<g id="edge18_Node000010_Node000015" class="edge">
<title>Node10&#45;&gt;Node15</title>
<g id="a_edge18_Node000010_Node000015"><a xlink:title=" ">
<path fill="none" stroke="#63b8ff" d="M478.25,-125.8C452.61,-115.69 412.41,-99.84 383.48,-88.43"/>
<polygon fill="#63b8ff" stroke="#63b8ff" points="384.99,-85.26 374.41,-84.85 382.43,-91.78 384.99,-85.26"/>
</a>
</g>
</g>
<!-- Node10&#45;&gt;Node16 -->
<g id="edge20_Node000010_Node000016" class="edge">
<title>Node10&#45;&gt;Node16</title>
<g id="a_edge20_Node000010_Node000016"><a xlink:title=" ">
<path fill="none" stroke="#63b8ff" d="M547.23,-132.9C615,-128.06 748.55,-115.95 859.16,-90.25 862.32,-89.52 865.57,-88.65 868.81,-87.7"/>
<polygon fill="#63b8ff" stroke="#63b8ff" points="869.72,-91.08 878.19,-84.72 867.6,-84.41 869.72,-91.08"/>
</a>
</g>
</g>
<!-- Node10&#45;&gt;Node17 -->
<g id="edge21_Node000010_Node000017" class="edge">
<title>Node10&#45;&gt;Node17</title>
<g id="a_edge21_Node000010_Node000017"><a xlink:title=" ">
<path fill="none" stroke="#63b8ff" d="M525.81,-125.8C544.8,-117.57 572.55,-105.54 596.41,-95.2"/>
<polygon fill="#63b8ff" stroke="#63b8ff" points="597.54,-98.53 605.32,-91.34 594.75,-92.1 597.54,-98.53"/>
</a>
</g>
</g>
<!-- Node10&#45;&gt;Node18 -->
<g id="edge22_Node000010_Node000018" class="edge">
<title>Node10&#45;&gt;Node18</title>
<g id="a_edge22_Node000010_Node000018"><a xlink:title=" ">
<path fill="none" stroke="#63b8ff" d="M547.06,-126.01C588.57,-116.91 651.86,-103.05 702.31,-91.99"/>
<polygon fill="#63b8ff" stroke="#63b8ff" points="703.03,-95.42 712.05,-89.86 701.53,-88.58 703.03,-95.42"/>
</a>
</g>
</g>
<!-- Node11&#45;&gt;Node7 -->
<g id="edge16_Node000011_Node000007" class="edge">
<title>Node11&#45;&gt;Node7</title>
<g id="a_edge16_Node000011_Node000007"><a xlink:title=" ">
<path fill="none" stroke="#63b8ff" d="M485.81,-62.68C468.72,-53.01 442.37,-38.1 422.48,-26.84"/>
<polygon fill="#63b8ff" stroke="#63b8ff" points="424.21,-23.8 413.78,-21.92 420.76,-29.89 424.21,-23.8"/>
</a>
</g>
</g>
<!-- Node12 -->
<g id="Node000012" class="node">
<title>Node12</title>
<g id="a_Node000012"><a xlink:title=" ">
<polygon fill="#e0e0e0" stroke="#999999" points="527.66,-20.75 478.66,-20.75 478.66,0 527.66,0 527.66,-20.75"/>
<text text-anchor="middle" x="503.16" y="-7.25" font-family="Helvetica,sans-Serif" font-size="10.00">format</text>
</a>
</g>
</g>
<!-- Node11&#45;&gt;Node12 -->
<g id="edge13_Node000011_Node000012" class="edge">
<title>Node11&#45;&gt;Node12</title>
<g id="a_edge13_Node000011_Node000012"><a xlink:title=" ">
<path fill="none" stroke="#63b8ff" d="M503.16,-62.68C503.16,-54.52 503.16,-42.63 503.16,-32.35"/>
<polygon fill="#63b8ff" stroke="#63b8ff" points="506.66,-32.48 503.16,-22.48 499.66,-32.48 506.66,-32.48"/>
</a>
</g>
</g>
<!-- Node11&#45;&gt;Node13 -->
<g id="edge14_Node000011_Node000013" class="edge">
<title>Node11&#45;&gt;Node13</title>
<g id="a_edge14_Node000011_Node000013"><a xlink:title=" ">
<path fill="none" stroke="#63b8ff" d="M550.6,-62.66C561.59,-60.55 573.26,-58.45 584.16,-56.75 713.7,-36.55 869.03,-20.82 935.88,-14.45"/>
<polygon fill="#63b8ff" stroke="#63b8ff" points="935.81,-17.97 945.44,-13.55 935.15,-11 935.81,-17.97"/>
</a>
</g>
</g>
<!-- Node11&#45;&gt;Node14 -->
<g id="edge15_Node000011_Node000014" class="edge">
<title>Node11&#45;&gt;Node14</title>
<g id="a_edge15_Node000011_Node000014"><a xlink:title=" ">
<path fill="none" stroke="#63b8ff" d="M540.75,-62.68C580.92,-52.19 644.74,-35.52 688.66,-24.04"/>
<polygon fill="#63b8ff" stroke="#63b8ff" points="689.4,-27.47 698.19,-21.55 687.63,-20.7 689.4,-27.47"/>
</a>
</g>
</g>
<!-- Node19&#45;&gt;Node3 -->
<g id="edge30_Node000019_Node000003" class="edge">
<title>Node19&#45;&gt;Node3</title>
<g id="a_edge30_Node000019_Node000003"><a xlink:title=" ">
<path fill="none" stroke="#63b8ff" d="M54.8,-296.05C35.34,-289.43 14.7,-278.48 3.16,-260.5 -1.82,-252.74 0.49,-248.58 3.16,-239.75 21.43,-179.32 69.87,-120.77 95.95,-92.34"/>
<polygon fill="#63b8ff" stroke="#63b8ff" points="98.26,-95 102.53,-85.31 93.15,-90.22 98.26,-95"/>
</a>
</g>
</g>
<!-- Node20 -->
<g id="Node000020" class="node">
<title>Node20</title>
<g id="a_Node000020"><a xlink:href="MetricDepthModel_8hpp.html" target="_top" xlink:title=" ">
<polygon fill="white" stroke="#666666" points="192.28,-260.5 12.03,-260.5 12.03,-239.75 192.28,-239.75 192.28,-260.5"/>
<text text-anchor="middle" x="102.16" y="-247" font-family="Helvetica,sans-Serif" font-size="10.00">EyeAICore/MetricDepthModel.hpp</text>
</a>
</g>
</g>
<!-- Node19&#45;&gt;Node20 -->
<g id="edge31_Node000019_Node000020" class="edge">
<title>Node19&#45;&gt;Node20</title>
<g id="a_edge31_Node000019_Node000020"><a xlink:title=" ">
<path fill="none" stroke="#63b8ff" d="M102.16,-296.09C102.16,-289.47 102.16,-280.47 102.16,-272.27"/>
<polygon fill="#63b8ff" stroke="#63b8ff" points="105.66,-272.34 102.16,-262.34 98.66,-272.34 105.66,-272.34"/>
</a>
</g>
</g>
<!-- Node20&#45;&gt;Node3 -->
<g id="edge32_Node000020_Node000003" class="edge">
<title>Node20&#45;&gt;Node3</title>
<g id="a_edge32_Node000020_Node000003"><a xlink:title=" ">
<path fill="none" stroke="#63b8ff" d="M102.76,-239.49C104.49,-212.12 109.44,-133.47 111.83,-95.51"/>
<polygon fill="#63b8ff" stroke="#63b8ff" points="115.31,-96.03 112.44,-85.83 108.32,-95.59 115.31,-96.03"/>
</a>
</g>
</g>
<!-- Node20&#45;&gt;Node5 -->
<g id="edge34_Node000020_Node000005" class="edge">
<title>Node20&#45;&gt;Node5</title>
<g id="a_edge34_Node000020_Node000005"><a xlink:title=" ">
<path fill="none" stroke="#63b8ff" d="M92.34,-239.35C63.35,-209.31 -17.02,-116.78 29.16,-56.75 33.24,-51.44 111.13,-32.3 160.37,-20.65"/>
<polygon fill="#63b8ff" stroke="#63b8ff" points="160.9,-24.12 169.83,-18.42 159.29,-17.3 160.9,-24.12"/>
</a>
</g>
</g>
<!-- Node20&#45;&gt;Node9 -->
<g id="edge33_Node000020_Node000009" class="edge">
<title>Node20&#45;&gt;Node9</title>
<g id="a_edge33_Node000020_Node000009"><a xlink:title=" ">
<path fill="none" stroke="#63b8ff" d="M183.85,-239.27C262.36,-229.81 380.88,-215.51 463.02,-205.61"/>
<polygon fill="#63b8ff" stroke="#63b8ff" points="463.35,-209.09 472.86,-204.42 462.51,-202.14 463.35,-209.09"/>
</a>
</g>
</g>
<!-- Node21&#45;&gt;Node16 -->
<g id="edge39_Node000021_Node000016" class="edge">
<title>Node21&#45;&gt;Node16</title>
<g id="a_edge39_Node000021_Node000016"><a xlink:title=" ">
<path fill="none" stroke="#63b8ff" d="M1139.94,-296.23C1102.51,-260.87 972.48,-138.08 923.77,-92.08"/>
<polygon fill="#63b8ff" stroke="#63b8ff" points="926.19,-89.55 916.52,-85.23 921.38,-94.64 926.19,-89.55"/>
</a>
</g>
</g>
<!-- Node22 -->
<g id="Node000022" class="node">
<title>Node22</title>
<g id="a_Node000022"><a xlink:title=" ">
<polygon fill="#e0e0e0" stroke="#999999" points="1167.66,-260.5 1118.66,-260.5 1118.66,-239.75 1167.66,-239.75 1167.66,-260.5"/>
<text text-anchor="middle" x="1143.16" y="-247" font-family="Helvetica,sans-Serif" font-size="10.00">chrono</text>
</a>
</g>
</g>
<!-- Node21&#45;&gt;Node22 -->
<g id="edge37_Node000021_Node000022" class="edge">
<title>Node21&#45;&gt;Node22</title>
<g id="a_edge37_Node000021_Node000022"><a xlink:title=" ">
<path fill="none" stroke="#63b8ff" d="M1148.91,-296.09C1148.05,-289.39 1146.88,-280.26 1145.82,-271.98"/>
<polygon fill="#63b8ff" stroke="#63b8ff" points="1149.33,-271.81 1144.59,-262.33 1142.39,-272.69 1149.33,-271.81"/>
</a>
</g>
</g>
<!-- Node23 -->
<g id="Node000023" class="node">
<title>Node23</title>
<g id="a_Node000023"><a xlink:title=" ">
<polygon fill="#e0e0e0" stroke="#999999" points="1292.53,-260.5 1185.78,-260.5 1185.78,-239.75 1292.53,-239.75 1292.53,-260.5"/>
<text text-anchor="middle" x="1239.16" y="-247" font-family="Helvetica,sans-Serif" font-size="10.00">concurrentqueue.h</text>
</a>
</g>
</g>
<!-- Node21&#45;&gt;Node23 -->
<g id="edge38_Node000021_Node000023" class="edge">
<title>Node21&#45;&gt;Node23</title>
<g id="a_edge38_Node000021_Node000023"><a xlink:title=" ">
<path fill="none" stroke="#63b8ff" d="M1166.07,-296.09C1179.36,-287.91 1198.55,-276.11 1213.93,-266.65"/>
<polygon fill="#63b8ff" stroke="#63b8ff" points="1215.41,-269.84 1222.09,-261.62 1211.74,-263.88 1215.41,-269.84"/>
</a>
</g>
</g>
</g>
</svg>

<g id="navigator" transform="translate(0 0)" fill="#404254">
  <rect fill="#f2f5e9" fill-opacity="0.5" stroke="#606060" stroke-width=".5" x="0" y="0" width="60" height="60"/>
  <use id="zoomplus" xlink:href="#zoomPlus" x="17" y="9" onmousedown="handleZoom(evt,'in')"/>
  <use id="zoomminus" xlink:href="#zoomMin" x="42" y="9" onmousedown="handleZoom(evt,'out')"/>
  <use id="reset" xlink:href="#resetDef" x="30" y="36" onmousedown="handleReset()"/>
   <use id="arrowup" xlink:href="#arrowUp" x="0" y="0" onmousedown="handlePan(0,-1)"/>
  <use id="arrowright" xlink:href="#arrowRight" x="0" y="0" onmousedown="handlePan(1,0)"/>
  <use id="arrowdown" xlink:href="#arrowDown" x="0" y="0" onmousedown="handlePan(0,1)"/>
  <use id="arrowleft" xlink:href="#arrowLeft" x="0" y="0" onmousedown="handlePan(-1,0)"/>
</g>
<svg viewBox="0 0 15 15" width="100%" height="30px" preserveAspectRatio="xMaxYMin meet">
 <g id="arrow_out" transform="scale(0.3 0.3)">
  <a xlink:href="YoloModel_8cpp__incl_org.svg" target="_base">
   <rect id="button" ry="5" rx="5" y="6" x="6" height="38" width="38"
        fill="#f2f5e9" fill-opacity="0.5" stroke="#606060" stroke-width="1.0"/>
   <path id="arrow"
     d="M 11.500037,31.436501 C 11.940474,20.09759 22.043105,11.32322 32.158766,21.979434 L 37.068811,17.246167 C 37.068811,17.246167 37.088388,32 37.088388,32 L 22.160133,31.978069 C 22.160133,31.978069 26.997745,27.140456 26.997745,27.140456 C 18.528582,18.264221 13.291696,25.230495 11.500037,31.436501 z"
     style="fill:#404040;"/>
  </a>
 </g>
</svg>

<style type='text/css'>
<![CDATA[
[data-mouse-over-selected='false'] { opacity: 0.7; }
[data-mouse-over-selected='true']  { opacity: 1.0; }
]]>
</style>
<script type="application/ecmascript"><![CDATA[
document.addEventListener('DOMContentLoaded', (event) => {
  highlightEdges();
  highlightAdjacentNodes();
});
]]></script>
</svg>
