<?xml version="1.0" encoding="UTF-8" standalone="no"?>
<!DOCTYPE svg PUBLIC "-//W3C//DTD SVG 1.1//EN"
 "http://www.w3.org/Graphics/SVG/1.1/DTD/svg11.dtd">
<!-- Generated by graphviz version 12.2.1 (20241206.2353)
 -->
<!-- Title: include/EyeAICore/YoloModel.hpp Pages: 1 -->
<svg width="870pt" height="264pt"
 viewBox="0.00 0.00 870.22 264.00" xmlns="http://www.w3.org/2000/svg" xmlns:xlink="http://www.w3.org/1999/xlink">
<g id="graph0" class="graph" transform="scale(1 1) rotate(0) translate(4 260)">
<title>include/EyeAICore/YoloModel.hpp</title>
<!-- Node1 -->
<g id="Node000001" class="node">
<title>Node1</title>
<g id="a_Node000001"><a xlink:title=" ">
<polygon fill="#999999" stroke="#666666" points="255.88,-256 91.38,-256 91.38,-236 255.88,-236 255.88,-256"/>
<text text-anchor="middle" x="173.62" y="-242.5" font-family="Helvetica,sans-Serif" font-size="10.00">include/EyeAICore/YoloModel.hpp</text>
</a>
</g>
</g>
<!-- Node2 -->
<g id="Node000002" class="node">
<title>Node2</title>
<g id="a_Node000002"><a xlink:href="TensorBuffer_8hpp.html" target="_top" xlink:title=" ">
<polygon fill="white" stroke="#666666" points="177.88,-82 37.38,-82 37.38,-62 177.88,-62 177.88,-82"/>
<text text-anchor="middle" x="107.62" y="-68.5" font-family="Helvetica,sans-Serif" font-size="10.00">EyeAICore/TensorBuffer.hpp</text>
</a>
</g>
</g>
<!-- Node1&#45;&gt;Node2 -->
<g id="edge1_Node000001_Node000002" class="edge">
<title>Node1&#45;&gt;Node2</title>
<g id="a_edge1_Node000001_Node000002"><a xlink:title=" ">
<path fill="none" stroke="#63b8ff" d="M169.98,-235.51C159.55,-208.31 129.37,-129.68 115.18,-92.68"/>
<polygon fill="#63b8ff" stroke="#63b8ff" points="118.57,-91.75 111.72,-83.67 112.03,-94.26 118.57,-91.75"/>
</a>
</g>
</g>
<!-- Node8 -->
<g id="Node000008" class="node">
<title>Node8</title>
<g id="a_Node000008"><a xlink:href="TfLiteRuntime_8hpp.html" target="_top" xlink:title=" ">
<polygon fill="white" stroke="#666666" points="490.12,-200 321.12,-200 321.12,-180 490.12,-180 490.12,-200"/>
<text text-anchor="middle" x="405.62" y="-186.5" font-family="Helvetica,sans-Serif" font-size="10.00">EyeAICore/tflite/TfLiteRuntime.hpp</text>
</a>
</g>
</g>
<!-- Node1&#45;&gt;Node8 -->
<g id="edge7_Node000001_Node000008" class="edge">
<title>Node1&#45;&gt;Node8</title>
<g id="a_edge7_Node000001_Node000008"><a xlink:title=" ">
<path fill="none" stroke="#63b8ff" d="M214.3,-235.53C253.11,-226.5 311.73,-212.85 353.85,-203.05"/>
<polygon fill="#63b8ff" stroke="#63b8ff" points="354.57,-206.48 363.52,-200.8 352.99,-199.66 354.57,-206.48"/>
</a>
</g>
</g>
<!-- Node3 -->
<g id="Node000003" class="node">
<title>Node3</title>
<g id="a_Node000003"><a xlink:title=" ">
<polygon fill="#e0e0e0" stroke="#999999" points="45.25,-20 0,-20 0,0 45.25,0 45.25,-20"/>
<text text-anchor="middle" x="22.62" y="-6.5" font-family="Helvetica,sans-Serif" font-size="10.00">cstdint</text>
</a>
</g>
</g>
<!-- Node2&#45;&gt;Node3 -->
<g id="edge2_Node000002_Node000003" class="edge">
<title>Node2&#45;&gt;Node3</title>
<g id="a_edge2_Node000002_Node000003"><a xlink:title=" ">
<path fill="none" stroke="#63b8ff" d="M94.34,-61.62C81.12,-52.29 60.58,-37.79 44.87,-26.7"/>
<polygon fill="#63b8ff" stroke="#63b8ff" points="47.24,-24.09 37.05,-21.18 43.2,-29.81 47.24,-24.09"/>
</a>
</g>
</g>
<!-- Node4 -->
<g id="Node000004" class="node">
<title>Node4</title>
<g id="a_Node000004"><a xlink:title=" ">
<polygon fill="#e0e0e0" stroke="#999999" points="114.25,-20 63,-20 63,0 114.25,0 114.25,-20"/>
<text text-anchor="middle" x="88.62" y="-6.5" font-family="Helvetica,sans-Serif" font-size="10.00">memory</text>
</a>
</g>
</g>
<!-- Node2&#45;&gt;Node4 -->
<g id="edge3_Node000002_Node000004" class="edge">
<title>Node2&#45;&gt;Node4</title>
<g id="a_edge3_Node000002_Node000004"><a xlink:title=" ">
<path fill="none" stroke="#63b8ff" d="M104.66,-61.62C102.08,-53.48 98.25,-41.39 94.98,-31.07"/>
<polygon fill="#63b8ff" stroke="#63b8ff" points="98.32,-30.03 91.97,-21.56 91.65,-32.15 98.32,-30.03"/>
</a>
</g>
</g>
<!-- Node5 -->
<g id="Node000005" class="node">
<title>Node5</title>
<g id="a_Node000005"><a xlink:title=" ">
<polygon fill="#e0e0e0" stroke="#999999" points="230.12,-20 193.12,-20 193.12,0 230.12,0 230.12,-20"/>
<text text-anchor="middle" x="211.62" y="-6.5" font-family="Helvetica,sans-Serif" font-size="10.00">span</text>
</a>
</g>
</g>
<!-- Node2&#45;&gt;Node5 -->
<g id="edge4_Node000002_Node000005" class="edge">
<title>Node2&#45;&gt;Node5</title>
<g id="a_edge4_Node000002_Node000005"><a xlink:title=" ">
<path fill="none" stroke="#63b8ff" d="M123.88,-61.62C140.44,-52.07 166.38,-37.11 185.76,-25.92"/>
<polygon fill="#63b8ff" stroke="#63b8ff" points="187.27,-29.09 194.18,-21.07 183.77,-23.03 187.27,-29.09"/>
</a>
</g>
</g>
<!-- Node6 -->
<g id="Node000006" class="node">
<title>Node6</title>
<g id="a_Node000006"><a xlink:title=" ">
<polygon fill="#e0e0e0" stroke="#999999" points="317.25,-20 272,-20 272,0 317.25,0 317.25,-20"/>
<text text-anchor="middle" x="294.62" y="-6.5" font-family="Helvetica,sans-Serif" font-size="10.00">variant</text>
</a>
</g>
</g>
<!-- Node2&#45;&gt;Node6 -->
<g id="edge5_Node000002_Node000006" class="edge">
<title>Node2&#45;&gt;Node6</title>
<g id="a_edge5_Node000002_Node000006"><a xlink:title=" ">
<path fill="none" stroke="#63b8ff" d="M136.84,-61.62C170.4,-50.86 225.36,-33.22 260.75,-21.87"/>
<polygon fill="#63b8ff" stroke="#63b8ff" points="261.61,-25.27 270.07,-18.88 259.48,-18.6 261.61,-25.27"/>
</a>
</g>
</g>
<!-- Node7 -->
<g id="Node000007" class="node">
<title>Node7</title>
<g id="a_Node000007"><a xlink:title=" ">
<polygon fill="#e0e0e0" stroke="#999999" points="175.12,-20 132.12,-20 132.12,0 175.12,0 175.12,-20"/>
<text text-anchor="middle" x="153.62" y="-6.5" font-family="Helvetica,sans-Serif" font-size="10.00">vector</text>
</a>
</g>
</g>
<!-- Node2&#45;&gt;Node7 -->
<g id="edge6_Node000002_Node000007" class="edge">
<title>Node2&#45;&gt;Node7</title>
<g id="a_edge6_Node000002_Node000007"><a xlink:title=" ">
<path fill="none" stroke="#63b8ff" d="M114.81,-61.62C121.47,-52.94 131.55,-39.8 139.77,-29.08"/>
<polygon fill="#63b8ff" stroke="#63b8ff" points="142.41,-31.38 145.72,-21.31 136.86,-27.12 142.41,-31.38"/>
</a>
</g>
</g>
<!-- Node8&#45;&gt;Node2 -->
<g id="edge8_Node000008_Node000002" class="edge">
<title>Node8&#45;&gt;Node2</title>
<g id="a_edge8_Node000008_Node000002"><a xlink:title=" ">
<path fill="none" stroke="#63b8ff" d="M320.68,-180.93C280.08,-174.67 231.71,-163.58 191.62,-144 164.41,-130.7 138.67,-106.62 123.03,-90.23"/>
<polygon fill="#63b8ff" stroke="#63b8ff" points="125.82,-88.1 116.46,-83.14 120.69,-92.86 125.82,-88.1"/>
</a>
</g>
</g>
<!-- Node8&#45;&gt;Node4 -->
<g id="edge24_Node000008_Node000004" class="edge">
<title>Node8&#45;&gt;Node4</title>
<g id="a_edge24_Node000008_Node000004"><a xlink:title=" ">
<path fill="none" stroke="#63b8ff" d="M323.01,-179.55C222.11,-165.99 60.82,-137.08 28.62,-88 20.82,-76.11 22.26,-68.72 28.62,-56 34.89,-43.48 46.47,-33.54 57.8,-26.22"/>
<polygon fill="#63b8ff" stroke="#63b8ff" points="59.42,-29.33 66.25,-21.23 55.86,-23.3 59.42,-29.33"/>
</a>
</g>
</g>
<!-- Node8&#45;&gt;Node5 -->
<g id="edge25_Node000008_Node000005" class="edge">
<title>Node8&#45;&gt;Node5</title>
<g id="a_edge25_Node000008_Node000005"><a xlink:title=" ">
<path fill="none" stroke="#63b8ff" d="M386.03,-179.57C355.23,-163.98 294.94,-130.32 255.62,-88 239.79,-70.95 227.31,-47.2 219.75,-30.6"/>
<polygon fill="#63b8ff" stroke="#63b8ff" points="223.13,-29.58 215.93,-21.8 216.71,-32.37 223.13,-29.58"/>
</a>
</g>
</g>
<!-- Node9 -->
<g id="Node000009" class="node">
<title>Node9</title>
<g id="a_Node000009"><a xlink:href="TfLiteUtils_8hpp.html" target="_top" xlink:title=" ">
<polygon fill="white" stroke="#666666" points="445.5,-144 365.75,-144 365.75,-124 445.5,-124 445.5,-144"/>
<text text-anchor="middle" x="405.62" y="-130.5" font-family="Helvetica,sans-Serif" font-size="10.00">TfLiteUtils.hpp</text>
</a>
</g>
</g>
<!-- Node8&#45;&gt;Node9 -->
<g id="edge9_Node000008_Node000009" class="edge">
<title>Node8&#45;&gt;Node9</title>
<g id="a_edge9_Node000008_Node000009"><a xlink:title=" ">
<path fill="none" stroke="#63b8ff" d="M405.62,-179.59C405.62,-173.01 405.62,-163.96 405.62,-155.73"/>
<polygon fill="#63b8ff" stroke="#63b8ff" points="409.13,-155.81 405.63,-145.81 402.13,-155.81 409.13,-155.81"/>
</a>
</g>
</g>
<!-- Node12 -->
<g id="Node000012" class="node">
<title>Node12</title>
<g id="a_Node000012"><a xlink:title=" ">
<polygon fill="#e0e0e0" stroke="#999999" points="724.62,-20 684.62,-20 684.62,0 724.62,0 724.62,-20"/>
<text text-anchor="middle" x="704.62" y="-6.5" font-family="Helvetica,sans-Serif" font-size="10.00">string</text>
</a>
</g>
</g>
<!-- Node8&#45;&gt;Node12 -->
<g id="edge26_Node000008_Node000012" class="edge">
<title>Node8&#45;&gt;Node12</title>
<g id="a_edge26_Node000008_Node000012"><a xlink:title=" ">
<path fill="none" stroke="#63b8ff" d="M490.44,-182.29C607.67,-171.05 809.89,-143.92 854.62,-88 889.39,-44.54 789.79,-23.16 736.22,-15.04"/>
<polygon fill="#63b8ff" stroke="#63b8ff" points="736.83,-11.59 726.43,-13.63 735.83,-18.52 736.83,-11.59"/>
</a>
</g>
</g>
<!-- Node15 -->
<g id="Node000015" class="node">
<title>Node15</title>
<g id="a_Node000015"><a xlink:title=" ">
<polygon fill="#e0e0e0" stroke="#999999" points="594.38,-82 528.88,-82 528.88,-62 594.38,-62 594.38,-82"/>
<text text-anchor="middle" x="561.62" y="-68.5" font-family="Helvetica,sans-Serif" font-size="10.00">string_view</text>
</a>
</g>
</g>
<!-- Node8&#45;&gt;Node15 -->
<g id="edge27_Node000008_Node000015" class="edge">
<title>Node8&#45;&gt;Node15</title>
<g id="a_edge27_Node000008_Node000015"><a xlink:title=" ">
<path fill="none" stroke="#63b8ff" d="M418.39,-179.51C445.15,-159.61 507.35,-113.36 540.28,-88.87"/>
<polygon fill="#63b8ff" stroke="#63b8ff" points="541.97,-91.98 547.9,-83.2 537.79,-86.36 541.97,-91.98"/>
</a>
</g>
</g>
<!-- Node16 -->
<g id="Node000016" class="node">
<title>Node16</title>
<g id="a_Node000016"><a xlink:title=" ">
<polygon fill="#e0e0e0" stroke="#999999" points="705.25,-88 612,-88 612,-56 705.25,-56 705.25,-88"/>
<text text-anchor="start" x="620" y="-74.5" font-family="Helvetica,sans-Serif" font-size="10.00">tensorflow/lite/c/c</text>
<text text-anchor="middle" x="658.62" y="-62.5" font-family="Helvetica,sans-Serif" font-size="10.00">_api.h</text>
</a>
</g>
</g>
<!-- Node8&#45;&gt;Node16 -->
<g id="edge22_Node000008_Node000016" class="edge">
<title>Node8&#45;&gt;Node16</title>
<g id="a_edge22_Node000008_Node000016"><a xlink:title=" ">
<path fill="none" stroke="#63b8ff" d="M426.33,-179.51C467.35,-160.7 559.74,-118.34 614.84,-93.07"/>
<polygon fill="#63b8ff" stroke="#63b8ff" points="616,-96.39 623.63,-89.04 613.08,-90.03 616,-96.39"/>
</a>
</g>
</g>
<!-- Node17 -->
<g id="Node000017" class="node">
<title>Node17</title>
<g id="a_Node000017"><a xlink:title=" ">
<polygon fill="#e0e0e0" stroke="#999999" points="845.5,-88 723.75,-88 723.75,-56 845.5,-56 845.5,-88"/>
<text text-anchor="start" x="731.75" y="-74.5" font-family="Helvetica,sans-Serif" font-size="10.00">tensorflow/lite/delegates</text>
<text text-anchor="middle" x="784.62" y="-62.5" font-family="Helvetica,sans-Serif" font-size="10.00">/gpu/delegate.h</text>
</a>
</g>
</g>
<!-- Node8&#45;&gt;Node17 -->
<g id="edge23_Node000008_Node000017" class="edge">
<title>Node8&#45;&gt;Node17</title>
<g id="a_edge23_Node000008_Node000017"><a xlink:title=" ">
<path fill="none" stroke="#63b8ff" d="M436.64,-179.51C499.18,-160.37 641.41,-116.83 723.36,-91.75"/>
<polygon fill="#63b8ff" stroke="#63b8ff" points="724.28,-95.13 732.82,-88.86 722.23,-88.44 724.28,-95.13"/>
</a>
</g>
</g>
<!-- Node9&#45;&gt;Node2 -->
<g id="edge10_Node000009_Node000002" class="edge">
<title>Node9&#45;&gt;Node2</title>
<g id="a_edge10_Node000009_Node000002"><a xlink:title=" ">
<path fill="none" stroke="#63b8ff" d="M365.44,-124.91C314.02,-114.56 224.59,-96.55 165.75,-84.7"/>
<polygon fill="#63b8ff" stroke="#63b8ff" points="166.75,-81.33 156.26,-82.79 165.37,-88.2 166.75,-81.33"/>
</a>
</g>
</g>
<!-- Node9&#45;&gt;Node4 -->
<g id="edge16_Node000009_Node000004" class="edge">
<title>Node9&#45;&gt;Node4</title>
<g id="a_edge16_Node000009_Node000004"><a xlink:title=" ">
<path fill="none" stroke="#63b8ff" d="M369.9,-123.57C339.64,-115.24 295.31,-102.24 257.62,-88 250.68,-85.38 166.28,-46.68 119.45,-25.17"/>
<polygon fill="#63b8ff" stroke="#63b8ff" points="121.16,-22.11 110.62,-21.11 118.24,-28.47 121.16,-22.11"/>
</a>
</g>
</g>
<!-- Node9&#45;&gt;Node5 -->
<g id="edge18_Node000009_Node000005" class="edge">
<title>Node9&#45;&gt;Node5</title>
<g id="a_edge18_Node000009_Node000005"><a xlink:title=" ">
<path fill="none" stroke="#63b8ff" d="M377.27,-123.56C355.45,-115.66 325,-103.25 300.62,-88 273.04,-70.74 245.34,-45.16 228.34,-28.29"/>
<polygon fill="#63b8ff" stroke="#63b8ff" points="231.06,-26.07 221.54,-21.43 226.09,-30.99 231.06,-26.07"/>
</a>
</g>
</g>
<!-- Node10 -->
<g id="Node000010" class="node">
<title>Node10</title>
<g id="a_Node000010"><a xlink:href="Errors_8hpp.html" target="_top" xlink:title=" ">
<polygon fill="white" stroke="#666666" points="443.12,-82 310.12,-82 310.12,-62 443.12,-62 443.12,-82"/>
<text text-anchor="middle" x="376.62" y="-68.5" font-family="Helvetica,sans-Serif" font-size="10.00">EyeAICore/utils/Errors.hpp</text>
</a>
</g>
</g>
<!-- Node9&#45;&gt;Node10 -->
<g id="edge11_Node000009_Node000010" class="edge">
<title>Node9&#45;&gt;Node10</title>
<g id="a_edge11_Node000009_Node000010"><a xlink:title=" ">
<path fill="none" stroke="#63b8ff" d="M401.09,-123.62C397.07,-115.3 391.06,-102.86 386,-92.4"/>
<polygon fill="#63b8ff" stroke="#63b8ff" points="389.19,-90.96 381.69,-83.48 382.89,-94 389.19,-90.96"/>
</a>
</g>
</g>
<!-- Node14 -->
<g id="Node000014" class="node">
<title>Node14</title>
<g id="a_Node000014"><a xlink:title=" ">
<polygon fill="#e0e0e0" stroke="#999999" points="510.5,-82 460.75,-82 460.75,-62 510.5,-62 510.5,-82"/>
<text text-anchor="middle" x="485.62" y="-68.5" font-family="Helvetica,sans-Serif" font-size="10.00">optional</text>
</a>
</g>
</g>
<!-- Node9&#45;&gt;Node14 -->
<g id="edge17_Node000009_Node000014" class="edge">
<title>Node9&#45;&gt;Node14</title>
<g id="a_edge17_Node000009_Node000014"><a xlink:title=" ">
<path fill="none" stroke="#63b8ff" d="M418.12,-123.62C430.45,-114.38 449.54,-100.07 464.27,-89.01"/>
<polygon fill="#63b8ff" stroke="#63b8ff" points="466.1,-92.02 472,-83.22 461.9,-86.42 466.1,-92.02"/>
</a>
</g>
</g>
<!-- Node9&#45;&gt;Node15 -->
<g id="edge19_Node000009_Node000015" class="edge">
<title>Node9&#45;&gt;Node15</title>
<g id="a_edge19_Node000009_Node000015"><a xlink:title=" ">
<path fill="none" stroke="#63b8ff" d="M430,-123.62C455.91,-113.66 497.12,-97.81 526.53,-86.5"/>
<polygon fill="#63b8ff" stroke="#63b8ff" points="527.67,-89.81 535.75,-82.95 525.16,-83.27 527.67,-89.81"/>
</a>
</g>
</g>
<!-- Node9&#45;&gt;Node16 -->
<g id="edge20_Node000009_Node000016" class="edge">
<title>Node9&#45;&gt;Node16</title>
<g id="a_edge20_Node000009_Node000016"><a xlink:title=" ">
<path fill="none" stroke="#63b8ff" d="M445.94,-124.37C483.69,-116.17 541.92,-103.22 600.6,-88.71"/>
<polygon fill="#63b8ff" stroke="#63b8ff" points="601.23,-92.16 610.09,-86.35 599.54,-85.36 601.23,-92.16"/>
</a>
</g>
</g>
<!-- Node9&#45;&gt;Node17 -->
<g id="edge21_Node000009_Node000017" class="edge">
<title>Node9&#45;&gt;Node17</title>
<g id="a_edge21_Node000009_Node000017"><a xlink:title=" ">
<path fill="none" stroke="#63b8ff" d="M445.76,-128.02C502.76,-120.76 610.65,-106.33 712.48,-88.31"/>
<polygon fill="#63b8ff" stroke="#63b8ff" points="712.87,-91.8 722.1,-86.6 711.64,-84.91 712.87,-91.8"/>
</a>
</g>
</g>
<!-- Node10&#45;&gt;Node6 -->
<g id="edge15_Node000010_Node000006" class="edge">
<title>Node10&#45;&gt;Node6</title>
<g id="a_edge15_Node000010_Node000006"><a xlink:title=" ">
<path fill="none" stroke="#63b8ff" d="M363.81,-61.62C351.18,-52.38 331.61,-38.07 316.51,-27.01"/>
<polygon fill="#63b8ff" stroke="#63b8ff" points="318.71,-24.28 308.57,-21.2 314.57,-29.93 318.71,-24.28"/>
</a>
</g>
</g>
<!-- Node11 -->
<g id="Node000011" class="node">
<title>Node11</title>
<g id="a_Node000011"><a xlink:title=" ">
<polygon fill="#e0e0e0" stroke="#999999" points="391.5,-20 347.75,-20 347.75,0 391.5,0 391.5,-20"/>
<text text-anchor="middle" x="369.62" y="-6.5" font-family="Helvetica,sans-Serif" font-size="10.00">format</text>
</a>
</g>
</g>
<!-- Node10&#45;&gt;Node11 -->
<g id="edge12_Node000010_Node000011" class="edge">
<title>Node10&#45;&gt;Node11</title>
<g id="a_edge12_Node000010_Node000011"><a xlink:title=" ">
<path fill="none" stroke="#63b8ff" d="M375.53,-61.62C374.59,-53.56 373.2,-41.65 372.01,-31.41"/>
<polygon fill="#63b8ff" stroke="#63b8ff" points="375.5,-31.14 370.86,-21.62 368.55,-31.95 375.5,-31.14"/>
</a>
</g>
</g>
<!-- Node10&#45;&gt;Node12 -->
<g id="edge13_Node000010_Node000012" class="edge">
<title>Node10&#45;&gt;Node12</title>
<g id="a_edge13_Node000010_Node000012"><a xlink:title=" ">
<path fill="none" stroke="#63b8ff" d="M423,-61.56C432.47,-59.68 442.36,-57.75 451.62,-56 531.24,-40.96 625.22,-24.61 673.12,-16.38"/>
<polygon fill="#63b8ff" stroke="#63b8ff" points="673.51,-19.87 682.77,-14.73 672.33,-12.97 673.51,-19.87"/>
</a>
</g>
</g>
<!-- Node13 -->
<g id="Node000013" class="node">
<title>Node13</title>
<g id="a_Node000013"><a xlink:title=" ">
<polygon fill="#e0e0e0" stroke="#999999" points="492,-20 409.25,-20 409.25,0 492,0 492,-20"/>
<text text-anchor="middle" x="450.62" y="-6.5" font-family="Helvetica,sans-Serif" font-size="10.00">tl/expected.hpp</text>
</a>
</g>
</g>
<!-- Node10&#45;&gt;Node13 -->
<g id="edge14_Node000010_Node000013" class="edge">
<title>Node10&#45;&gt;Node13</title>
<g id="a_edge14_Node000010_Node000013"><a xlink:title=" ">
<path fill="none" stroke="#63b8ff" d="M388.19,-61.62C399.55,-52.41 417.11,-38.17 430.72,-27.14"/>
<polygon fill="#63b8ff" stroke="#63b8ff" points="432.65,-30.08 438.21,-21.07 428.24,-24.65 432.65,-30.08"/>
</a>
</g>
</g>
</g>
</svg>
