<?xml version="1.0" encoding="UTF-8" standalone="no"?>
<!DOCTYPE svg PUBLIC "-//W3C//DTD SVG 1.1//EN"
 "http://www.w3.org/Graphics/SVG/1.1/DTD/svg11.dtd">
<!-- Generated by graphviz version 12.2.1 (20241206.2353)
 -->
<!-- Title: include/EyeAICore/YoloModel.hpp Pages: 1 -->
<svg width="414pt" height="220pt"
 viewBox="0.00 0.00 414.12 220.00" xmlns="http://www.w3.org/2000/svg" xmlns:xlink="http://www.w3.org/1999/xlink">

<svg id="main" version="1.1" xmlns="http://www.w3.org/2000/svg" xmlns:xlink="http://www.w3.org/1999/xlink" xml:space="preserve">

<style type="text/css"><![CDATA[
.node, .edge {opacity: 0.7;}
.node.selected, .edge.selected {opacity: 1;}
.edge:hover path { stroke: red; }
.edge:hover polygon { stroke: red; fill: red; }
]]></style>
<script type="application/ecmascript" xlink:href="svg.min.js"/>
<svg id="graph" class="graph">
<g id="graph0" class="graph" transform="scale(1 1) rotate(0) translate(4 216)">
<title>include/EyeAICore/YoloModel.hpp</title>
<!-- Node1 -->
<g id="Node000001" class="node">
<title>Node1</title>
<g id="a_Node000001"><a xlink:title=" ">
<polygon fill="#999999" stroke="#666666" points="326.25,-212 161.75,-212 161.75,-192 326.25,-192 326.25,-212"/>
<text text-anchor="middle" x="244" y="-198.5" font-family="Helvetica,sans-Serif" font-size="10.00">include/EyeAICore/YoloModel.hpp</text>
</a>
</g>
</g>
<!-- Node2 -->
<g id="Node000002" class="node">
<title>Node2</title>
<g id="a_Node000002"><a xlink:href="ObjectTracker_8hpp.html" target="_top" xlink:title=" ">
<polygon fill="white" stroke="#666666" points="215.62,-156 86.38,-156 86.38,-124 215.62,-124 215.62,-156"/>
<text text-anchor="start" x="94.38" y="-142.5" font-family="Helvetica,sans-Serif" font-size="10.00">include/EyeAICore/Object</text>
<text text-anchor="middle" x="151" y="-130.5" font-family="Helvetica,sans-Serif" font-size="10.00">Tracker.hpp</text>
</a>
</g>
</g>
<!-- Node1&#45;&gt;Node2 -->
<g id="edge1_Node000001_Node000002" class="edge">
<title>Node1&#45;&gt;Node2</title>
<g id="a_edge1_Node000001_Node000002"><a xlink:title=" ">
<path fill="none" stroke="#63b8ff" d="M220.08,-185.56C206.17,-176.6 188.72,-165.33 174.83,-156.37"/>
<polygon fill="#63b8ff" stroke="#63b8ff" points="217.9,-188.32 228.2,-190.8 221.69,-182.44 217.9,-188.32"/>
</a>
</g>
</g>
<!-- Node3 -->
<g id="Node000003" class="node">
<title>Node3</title>
<g id="a_Node000003"><a xlink:href="SpatialAudio_8hpp.html" target="_top" xlink:title=" ">
<polygon fill="white" stroke="#666666" points="124,-88 0,-88 0,-56 124,-56 124,-88"/>
<text text-anchor="start" x="8" y="-74.5" font-family="Helvetica,sans-Serif" font-size="10.00">include/EyeAICore/audio</text>
<text text-anchor="middle" x="62" y="-62.5" font-family="Helvetica,sans-Serif" font-size="10.00">/SpatialAudio.hpp</text>
</a>
</g>
</g>
<!-- Node1&#45;&gt;Node3 -->
<g id="edge5_Node000001_Node000003" class="edge">
<title>Node1&#45;&gt;Node3</title>
<g id="a_edge5_Node000001_Node000003"><a xlink:title=" ">
<path fill="none" stroke="#63b8ff" d="M150.23,-194.54C123.2,-188.16 95.93,-176.6 77,-156 60.06,-137.56 59.06,-106.72 60.26,-88.28"/>
<polygon fill="#63b8ff" stroke="#63b8ff" points="149.38,-197.94 159.89,-196.58 150.82,-191.09 149.38,-197.94"/>
</a>
</g>
</g>
<!-- Node4 -->
<g id="Node000004" class="node">
<title>Node4</title>
<g id="a_Node000004"><a xlink:href="SpatialAudio_8cpp.html" target="_top" xlink:title=" ">
<polygon fill="white" stroke="#666666" points="238.12,-20 105.88,-20 105.88,0 238.12,0 238.12,-20"/>
<text text-anchor="middle" x="172" y="-6.5" font-family="Helvetica,sans-Serif" font-size="10.00">src/audio/SpatialAudio.cpp</text>
</a>
</g>
</g>
<!-- Node1&#45;&gt;Node4 -->
<g id="edge8_Node000001_Node000004" class="edge">
<title>Node1&#45;&gt;Node4</title>
<g id="a_edge8_Node000001_Node000004"><a xlink:title=" ">
<path fill="none" stroke="#63b8ff" d="M253.99,-181.43C267.52,-151.89 287.36,-95.22 263,-56 251.84,-38.03 231.15,-27.02 212.31,-20.39"/>
<polygon fill="#63b8ff" stroke="#63b8ff" points="250.91,-179.76 249.71,-190.29 257.21,-182.81 250.91,-179.76"/>
</a>
</g>
</g>
<!-- Node5 -->
<g id="Node000005" class="node">
<title>Node5</title>
<g id="a_Node000005"><a xlink:href="ObjectTracker_8cpp.html" target="_top" xlink:title=" ">
<polygon fill="white" stroke="#666666" points="254.38,-82 141.62,-82 141.62,-62 254.38,-62 254.38,-82"/>
<text text-anchor="middle" x="198" y="-68.5" font-family="Helvetica,sans-Serif" font-size="10.00">src/ObjectTracker.cpp</text>
</a>
</g>
</g>
<!-- Node1&#45;&gt;Node5 -->
<g id="edge6_Node000001_Node000005" class="edge">
<title>Node1&#45;&gt;Node5</title>
<g id="a_edge6_Node000001_Node000005"><a xlink:title=" ">
<path fill="none" stroke="#63b8ff" d="M240.41,-180.71C237.28,-164.94 232.12,-142.68 225,-124 219.22,-108.84 209.94,-92.44 203.91,-82.45"/>
<polygon fill="#63b8ff" stroke="#63b8ff" points="236.92,-181.1 242.2,-190.28 243.8,-179.81 236.92,-181.1"/>
</a>
</g>
</g>
<!-- Node6 -->
<g id="Node000006" class="node">
<title>Node6</title>
<g id="a_Node000006"><a xlink:href="YoloModel_8cpp.html" target="_top" xlink:title=" ">
<polygon fill="white" stroke="#666666" points="406.12,-150 309.88,-150 309.88,-130 406.12,-130 406.12,-150"/>
<text text-anchor="middle" x="358" y="-136.5" font-family="Helvetica,sans-Serif" font-size="10.00">src/YoloModel.cpp</text>
</a>
</g>
</g>
<!-- Node1&#45;&gt;Node6 -->
<g id="edge7_Node000001_Node000006" class="edge">
<title>Node1&#45;&gt;Node6</title>
<g id="a_edge7_Node000001_Node000006"><a xlink:title=" ">
<path fill="none" stroke="#63b8ff" d="M271.91,-186.31C293.26,-175.08 322.04,-159.93 340.31,-150.31"/>
<polygon fill="#63b8ff" stroke="#63b8ff" points="270.37,-183.17 263.15,-190.92 273.63,-189.36 270.37,-183.17"/>
</a>
</g>
</g>
<!-- Node2&#45;&gt;Node3 -->
<g id="edge2_Node000002_Node000003" class="edge">
<title>Node2&#45;&gt;Node3</title>
<g id="a_edge2_Node000002_Node000003"><a xlink:title=" ">
<path fill="none" stroke="#63b8ff" d="M121.16,-116.87C108.58,-107.55 94.25,-96.91 82.84,-88.45"/>
<polygon fill="#63b8ff" stroke="#63b8ff" points="119.02,-119.65 129.14,-122.79 123.19,-114.02 119.02,-119.65"/>
</a>
</g>
</g>
<!-- Node2&#45;&gt;Node5 -->
<g id="edge4_Node000002_Node000005" class="edge">
<title>Node2&#45;&gt;Node5</title>
<g id="a_edge4_Node000002_Node000005"><a xlink:title=" ">
<path fill="none" stroke="#63b8ff" d="M168.55,-114.36C176.51,-103.18 185.45,-90.63 191.37,-82.32"/>
<polygon fill="#63b8ff" stroke="#63b8ff" points="165.73,-112.28 162.78,-122.46 171.43,-116.34 165.73,-112.28"/>
</a>
</g>
</g>
<!-- Node3&#45;&gt;Node4 -->
<g id="edge3_Node000003_Node000004" class="edge">
<title>Node3&#45;&gt;Node4</title>
<g id="a_edge3_Node000003_Node000004"><a xlink:title=" ">
<path fill="none" stroke="#63b8ff" d="M100.29,-50.12C118.84,-39.99 140.2,-28.34 154.75,-20.41"/>
<polygon fill="#63b8ff" stroke="#63b8ff" points="98.76,-46.96 91.66,-54.82 102.11,-53.11 98.76,-46.96"/>
</a>
</g>
</g>
</g>
</svg>
</svg>

<style type='text/css'>
<![CDATA[
[data-mouse-over-selected='false'] { opacity: 0.7; }
[data-mouse-over-selected='true']  { opacity: 1.0; }
]]>
</style>
<script type="application/ecmascript"><![CDATA[
document.addEventListener('DOMContentLoaded', (event) => {
  highlightEdges();
  highlightAdjacentNodes();
});
]]></script>
</svg>
